<?xml version="1.0" encoding="utf-8"?>
<!-- Generated by IcoMoon.io -->
<!DOCTYPE svg PUBLIC "-//W3C//DTD SVG 1.1//EN" "http://www.w3.org/Graphics/SVG/1.1/DTD/svg11.dtd">
<svg version="1.1" xmlns="http://www.w3.org/2000/svg" xmlns:xlink="http://www.w3.org/1999/xlink" width="32" height="32" viewBox="0 0 32 32">
<path d="M22.334 16.473c-0.034-3.417 2.76-5.056 2.885-5.138-1.57-2.319-4.015-2.637-4.886-2.674-2.081-0.213-4.061 1.237-5.117 1.237-1.053 0-2.683-1.206-4.409-1.174-2.268 0.034-4.36 1.332-5.528 3.383-2.357 4.129-0.604 10.247 1.693 13.596 1.122 1.639 2.461 3.48 4.218 3.415 1.692-0.068 2.332-1.106 4.378-1.106s2.621 1.106 4.412 1.072c1.821-0.034 2.975-1.671 4.089-3.315 1.289-1.902 1.82-3.743 1.851-3.838-0.040-0.019-3.551-1.377-3.586-5.459v0zM19.055 6.446c0.937-1.115 1.569-2.662 1.397-4.206-1.349 0.054-2.985 0.882-3.953 1.995-0.869 0.987-1.629 2.562-1.425 4.075 1.506 0.115 3.044-0.751 3.982-1.864v0z" fill="rgb(68, 68, 68)"></path>
</svg>
