<?xml version="1.0" encoding="utf-8"?>
<!-- Generated by IcoMoon.io -->
<!DOCTYPE svg PUBLIC "-//W3C//DTD SVG 1.1//EN" "http://www.w3.org/Graphics/SVG/1.1/DTD/svg11.dtd">
<svg version="1.1" xmlns="http://www.w3.org/2000/svg" xmlns:xlink="http://www.w3.org/1999/xlink" width="32" height="32" viewBox="0 0 32 32">
<path d="M7.92 21.95v-6.18c0-1.041 0.284-1.988 0.853-2.841s1.314-1.478 2.237-1.875v2.43c-0.687 0.612-1.030 1.373-1.030 2.285v6.18c0 0.858 0.3 1.588 0.901 2.189s1.33 0.901 2.189 0.901c0.858 0 1.588-0.3 2.189-0.901s0.901-1.33 0.901-2.189v-6.18c0-0.912-0.343-1.674-1.030-2.285v-2.43c0.923 0.397 1.668 1.022 2.237 1.875s0.853 1.8 0.853 2.841v6.18c0 1.427-0.502 2.642-1.505 3.645s-2.218 1.505-3.645 1.505c-1.427 0-2.642-0.502-3.645-1.505s-1.505-2.218-1.505-3.645zM12.040 15.77v-6.18c0-1.427 0.502-2.642 1.505-3.645s2.218-1.505 3.645-1.505c1.427 0 2.642 0.502 3.645 1.505s1.505 2.218 1.505 3.645v6.18c0 1.041-0.284 1.988-0.853 2.841s-1.314 1.478-2.237 1.875v-2.43c0.687-0.612 1.030-1.373 1.030-2.285v-6.18c0-0.858-0.3-1.588-0.901-2.189s-1.33-0.901-2.189-0.901c-0.858 0-1.588 0.3-2.189 0.901s-0.901 1.33-0.901 2.189v6.18c0 0.912 0.343 1.674 1.030 2.285v2.43c-0.923-0.397-1.668-1.022-2.237-1.875s-0.853-1.8-0.853-2.841z" fill="rgb(68, 68, 68)"></path>
</svg>
