<?xml version="1.0" encoding="utf-8"?>
<!-- Generated by IcoMoon.io -->
<!DOCTYPE svg PUBLIC "-//W3C//DTD SVG 1.1//EN" "http://www.w3.org/Graphics/SVG/1.1/DTD/svg11.dtd">
<svg version="1.1" xmlns="http://www.w3.org/2000/svg" xmlns:xlink="http://www.w3.org/1999/xlink" width="32" height="32" viewBox="0 0 32 32">
<path d="M9.33 16.909v-4.126h3.004v-3.513c0-0.708 0.117-1.375 0.352-2.002s0.582-1.189 1.042-1.689c0.46-0.499 1.076-0.894 1.847-1.185s1.649-0.436 2.632-0.436c0.496 0 0.983 0.014 1.462 0.041s0.835 0.054 1.069 0.082l0.352 0.041-0.095 3.84h-2.612c-0.686 0-1.144 0.145-1.374 0.436s-0.345 0.749-0.345 1.375v3.010h4.453l-0.189 4.126h-4.263v11.453h-4.331v-11.453h-3.004z" fill="rgb(68, 68, 68)"></path>
</svg>
