<?xml version="1.0" encoding="utf-8"?>
<!-- Generated by IcoMoon.io -->
<!DOCTYPE svg PUBLIC "-//W3C//DTD SVG 1.1//EN" "http://www.w3.org/Graphics/SVG/1.1/DTD/svg11.dtd">
<svg version="1.1" xmlns="http://www.w3.org/2000/svg" xmlns:xlink="http://www.w3.org/1999/xlink" width="32" height="32" viewBox="0 0 32 32">
<path d="M3.34 24.539v-17.509c0-0.967 0.342-1.792 1.026-2.476s1.509-1.026 2.476-1.026h17.509c0.967 0 1.792 0.342 2.476 1.026s1.026 1.509 1.026 2.476v17.509c0 0.967-0.342 1.792-1.026 2.476s-1.509 1.026-2.476 1.026h-3.857v-9.725h3.693l0.164-3.556h-3.857v-2.79c0-0.547 0.098-0.946 0.294-1.197s0.595-0.376 1.197-0.376l2.271 0.014 0.082-3.31c-0.711-0.091-1.546-0.137-2.503-0.137-0.857 0-1.619 0.125-2.284 0.376s-1.199 0.59-1.6 1.019c-0.401 0.429-0.702 0.91-0.903 1.443s-0.301 1.11-0.301 1.73v3.228h-3.474v3.556h3.474v9.725h-9.903c-0.967 0-1.792-0.342-2.476-1.026s-1.026-1.509-1.026-2.476v0z" fill="rgb(68, 68, 68)"></path>
</svg>
