<?xml version="1.0" encoding="utf-8"?>
<!-- Generated by IcoMoon.io -->
<!DOCTYPE svg PUBLIC "-//W3C//DTD SVG 1.1//EN" "http://www.w3.org/Graphics/SVG/1.1/DTD/svg11.dtd">
<svg version="1.1" xmlns="http://www.w3.org/2000/svg" xmlns:xlink="http://www.w3.org/1999/xlink" width="32" height="32" viewBox="0 0 32 32">
<path d="M1.935 15.84c0 1.845 0.654 3.423 1.963 4.732s2.886 1.963 4.732 1.963c1.845 0 3.423-0.654 4.732-1.963s1.963-2.886 1.963-4.732c0-1.845-0.654-3.423-1.963-4.732s-2.886-1.963-4.732-1.963c-1.845 0-3.423 0.654-4.732 1.963s-1.963 2.886-1.963 4.732zM16.355 15.84c0 1.845 0.654 3.423 1.963 4.732s2.886 1.963 4.732 1.963c1.845 0 3.423-0.654 4.732-1.963s1.963-2.886 1.963-4.732c0-1.845-0.654-3.423-1.963-4.732s-2.886-1.963-4.732-1.963c-1.845 0-3.423 0.654-4.732 1.963s-1.963 2.886-1.963 4.732z" fill="rgb(68, 68, 68)"></path>
</svg>
