<?xml version="1.0" encoding="utf-8"?>
<!-- Generated by IcoMoon.io -->
<!DOCTYPE svg PUBLIC "-//W3C//DTD SVG 1.1//EN" "http://www.w3.org/Graphics/SVG/1.1/DTD/svg11.dtd">
<svg version="1.1" xmlns="http://www.w3.org/2000/svg" xmlns:xlink="http://www.w3.org/1999/xlink" width="32" height="32" viewBox="0 0 32 32">
<path d="M1.92 16.503c0-1.888 0.367-3.694 1.101-5.419s1.724-3.209 2.97-4.452c1.246-1.244 2.728-2.233 4.445-2.968s3.518-1.103 5.403-1.103c1.894 0 3.7 0.368 5.417 1.103s3.197 1.725 4.438 2.968c1.242 1.244 2.229 2.725 2.963 4.446s1.101 3.529 1.101 5.426c0 3.041-0.886 5.771-2.658 8.19s-4.058 4.096-6.858 5.031c-0.326 0.064-0.566 0.025-0.72-0.116s-0.231-0.325-0.231-0.551c0-0.036 0.002-0.499 0.007-1.389s0.007-1.702 0.007-2.437c0-1.18-0.313-2.038-0.938-2.573 0.698-0.082 1.321-0.193 1.869-0.334s1.112-0.374 1.692-0.701c0.58-0.327 1.065-0.731 1.454-1.212s0.709-1.116 0.958-1.906c0.249-0.79 0.374-1.702 0.374-2.737 0-1.461-0.476-2.705-1.427-3.731 0.054-0.136 0.104-0.295 0.149-0.477s0.086-0.436 0.122-0.762c0.036-0.327 0.020-0.706-0.048-1.137s-0.188-0.869-0.36-1.314c-0.036-0.009-0.084-0.018-0.143-0.027s-0.204-0.005-0.435 0.014c-0.231 0.018-0.483 0.068-0.755 0.15s-0.632 0.234-1.081 0.456c-0.449 0.222-0.922 0.502-1.421 0.837-1.069-0.3-2.229-0.458-3.48-0.477-1.251 0.018-2.411 0.177-3.48 0.477-0.498-0.336-0.97-0.615-1.414-0.837s-0.807-0.372-1.088-0.449c-0.281-0.077-0.528-0.129-0.741-0.157s-0.365-0.032-0.455-0.014l-0.136 0.027c-0.526 1.325-0.571 2.555-0.136 3.69-0.952 1.044-1.427 2.287-1.427 3.731 0 1.035 0.125 1.947 0.374 2.737s0.569 1.425 0.958 1.906c0.39 0.481 0.875 0.885 1.455 1.212s1.144 0.563 1.692 0.708c0.548 0.145 1.167 0.254 1.856 0.327-0.48 0.427-0.775 1.048-0.884 1.865-0.254 0.118-0.523 0.209-0.809 0.272s-0.628 0.093-1.026 0.088c-0.399-0.005-0.795-0.134-1.189-0.388s-0.736-0.631-1.026-1.13c-0.018-0.036-0.048-0.084-0.088-0.143s-0.127-0.168-0.258-0.327c-0.131-0.159-0.274-0.3-0.428-0.422s-0.353-0.238-0.598-0.347c-0.245-0.109-0.498-0.172-0.761-0.191h-0.136c-0.054 0-0.138 0.016-0.252 0.048s-0.19 0.073-0.231 0.123c-0.041 0.050-0.023 0.134 0.054 0.252s0.233 0.259 0.469 0.422c0.027 0.009 0.061 0.027 0.102 0.055s0.127 0.093 0.258 0.197c0.131 0.104 0.256 0.227 0.374 0.368s0.254 0.338 0.408 0.592c0.154 0.254 0.29 0.531 0.408 0.831 0.009 0.027 0.020 0.059 0.034 0.095s0.050 0.113 0.109 0.232c0.059 0.118 0.129 0.234 0.211 0.347s0.193 0.241 0.333 0.381c0.14 0.141 0.292 0.268 0.455 0.381s0.367 0.22 0.612 0.32c0.245 0.1 0.505 0.172 0.782 0.218s0.6 0.061 0.972 0.048c0.372-0.014 0.766-0.066 1.183-0.157 0 0.454 0.002 0.953 0.007 1.498s0.007 0.835 0.007 0.871c0 0.218-0.077 0.399-0.231 0.545s-0.394 0.191-0.72 0.136c-2.8-0.935-5.086-2.614-6.858-5.038s-2.658-5.156-2.658-8.197v0z" fill="rgb(68, 68, 68)"></path>
</svg>
