<?xml version="1.0" encoding="utf-8"?>
<!-- Generated by IcoMoon.io -->
<!DOCTYPE svg PUBLIC "-//W3C//DTD SVG 1.1//EN" "http://www.w3.org/Graphics/SVG/1.1/DTD/svg11.dtd">
<svg version="1.1" xmlns="http://www.w3.org/2000/svg" xmlns:xlink="http://www.w3.org/1999/xlink" width="32" height="32" viewBox="0 0 32 32">
<path d="M27.84 21.917c0 0.526-0.149 1.014-0.387 1.443l-7.613-8.48 7.53-6.56c0.293 0.463 0.47 1.007 0.47 1.594v12.003zM16 16.64l10.24-9.218c-0.42-0.237-0.893-0.382-1.404-0.382h-17.673c-0.511 0-0.984 0.145-1.403 0.382l10.24 9.218zM18.698 16l-2.373 2.093c-0.139 0.122-0.312 0.183-0.485 0.183s-0.346-0.061-0.485-0.183l-2.373-2.093-7.542 8.503c0.452 0.286 0.982 0.457 1.555 0.457h17.69c0.573 0 1.103-0.171 1.555-0.457l-7.542-8.503zM4.63 8.32c-0.293 0.463-0.47 1.007-0.47 1.594v12.003c0 0.526 0.148 1.014 0.387 1.443l7.613-8.482-7.53-6.558z" fill="rgb(68, 68, 68)"></path>
</svg>
