<?xml version="1.0" encoding="utf-8"?>
<!-- Generated by IcoMoon.io -->
<!DOCTYPE svg PUBLIC "-//W3C//DTD SVG 1.1//EN" "http://www.w3.org/Graphics/SVG/1.1/DTD/svg11.dtd">
<svg version="1.1" xmlns="http://www.w3.org/2000/svg" xmlns:xlink="http://www.w3.org/1999/xlink" width="32" height="32" viewBox="0 0 32 32">
<path d="M20.971 2.602c-3.304-0-6.609 0.033-9.912-0.016-1.335-0.020-2.4 0.935-2.386 2.391 0.036 3.672 0.012 7.345 0.012 11.017 0 3.705-0.001 7.41 0.001 11.115 0.001 1.382 0.899 2.278 2.276 2.278 3.337 0 6.673 0 10.010 0 1.377-0 2.276-0.896 2.276-2.278 0.002-7.41 0.002-14.82 0-22.23-0-1.382-0.899-2.277-2.276-2.278zM21.584 24.927c-3.747 0-7.476 0-11.223 0 0-5.953 0-11.893 0-17.858 3.732 0 7.461 0 11.223 0 0 5.96 0 11.9 0 17.858z" fill="rgb(68, 68, 68)"></path>
</svg>
