<?xml version="1.0" encoding="utf-8"?>
<!-- Generated by IcoMoon.io -->
<!DOCTYPE svg PUBLIC "-//W3C//DTD SVG 1.1//EN" "http://www.w3.org/Graphics/SVG/1.1/DTD/svg11.dtd">
<svg version="1.1" xmlns="http://www.w3.org/2000/svg" xmlns:xlink="http://www.w3.org/1999/xlink" width="32" height="32" viewBox="0 0 32 32">
<path d="M15.382 26.283c-5.835 0-10.582-4.747-10.582-10.581s4.747-10.582 10.582-10.582 10.582 4.747 10.582 10.582c0 5.835-4.747 10.581-10.582 10.581v0zM15.382 6.4c-5.129 0-9.302 4.173-9.302 9.302s4.173 9.301 9.302 9.301 9.302-4.172 9.302-9.301c0-5.129-4.173-9.302-9.302-9.302v0zM14.294 13.227c0 0.766-0.621 1.387-1.387 1.387s-1.387-0.621-1.387-1.387c0-0.766 0.621-1.387 1.387-1.387s1.387 0.621 1.387 1.387zM19.414 13.227c0 0.766-0.621 1.387-1.387 1.387s-1.387-0.621-1.387-1.387c0-0.766 0.621-1.387 1.387-1.387s1.387 0.621 1.387 1.387zM15.49 20.614c-2.947 0-4.798-1.963-4.825-1.993l0.942-0.867c0.136 0.146 3.391 3.541 8.206-0.077l0.769 1.023c-1.907 1.434-3.634 1.914-5.092 1.914v0z" fill="rgb(68, 68, 68)"></path>
</svg>
