<?xml version="1.0" encoding="utf-8"?>
<!-- Generated by IcoMoon.io -->
<!DOCTYPE svg PUBLIC "-//W3C//DTD SVG 1.1//EN" "http://www.w3.org/Graphics/SVG/1.1/DTD/svg11.dtd">
<svg version="1.1" xmlns="http://www.w3.org/2000/svg" xmlns:xlink="http://www.w3.org/1999/xlink" width="32" height="32" viewBox="0 0 32 32">
<path d="M3.686 24.572c2.533 0 4.788-0.777 6.767-2.33-1.177-0.020-2.231-0.383-3.161-1.091s-1.573-1.61-1.929-2.708c0.386 0.069 0.727 0.104 1.024 0.104 0.465 0 0.945-0.064 1.439-0.193-1.256-0.257-2.3-0.886-3.131-1.885s-1.247-2.152-1.247-3.458v-0.074c0.791 0.425 1.618 0.653 2.478 0.683-0.752-0.495-1.346-1.143-1.781-1.944s-0.653-1.667-0.653-2.597c0-0.999 0.247-1.914 0.742-2.745 1.365 1.682 3.022 3.025 4.971 4.029s4.041 1.561 6.277 1.669c-0.099-0.386-0.148-0.801-0.148-1.247 0-1.504 0.534-2.787 1.603-3.851s2.355-1.595 3.858-1.595c1.583 0 2.909 0.574 3.977 1.721 1.266-0.257 2.419-0.697 3.458-1.321-0.416 1.306-1.212 2.31-2.389 3.013 1.078-0.129 2.122-0.416 3.131-0.861-0.722 1.098-1.627 2.043-2.716 2.834 0 0.069 0.002 0.183 0.007 0.341s0.007 0.277 0.007 0.356c0 1.207-0.153 2.424-0.46 3.651s-0.749 2.419-1.328 3.576c-0.579 1.158-1.318 2.238-2.219 3.243s-1.909 1.882-3.027 2.634c-1.118 0.752-2.407 1.343-3.866 1.773s-3 0.646-4.623 0.646c-3.018 0-5.808-0.816-8.37-2.449 0.475 0.049 0.91 0.074 1.306 0.074z" fill="rgb(68, 68, 68)"></path>
</svg>
