<?xml version="1.0" encoding="utf-8"?>
<!-- Generated by IcoMoon.io -->
<!DOCTYPE svg PUBLIC "-//W3C//DTD SVG 1.1//EN" "http://www.w3.org/Graphics/SVG/1.1/DTD/svg11.dtd">
<svg version="1.1" xmlns="http://www.w3.org/2000/svg" xmlns:xlink="http://www.w3.org/1999/xlink" width="32" height="32" viewBox="0 0 32 32">
<path d="M1.1 16.48c0-1.953 0.381-3.82 1.143-5.601s1.786-3.315 3.074-4.603c1.288-1.288 2.822-2.312 4.603-3.074s3.648-1.143 5.601-1.143c1.953 0 3.82 0.381 5.601 1.143s3.315 1.786 4.603 3.074c1.288 1.288 2.312 2.822 3.074 4.603s1.143 3.648 1.143 5.601c0 1.953-0.381 3.82-1.143 5.601s-1.786 3.315-3.074 4.603c-1.288 1.288-2.822 2.312-4.603 3.074s-3.648 1.143-5.601 1.143c-1.953 0-3.82-0.381-5.601-1.143s-3.315-1.786-4.603-3.074c-1.288-1.288-2.312-2.822-3.074-4.603s-1.143-3.648-1.143-5.601zM2.548 16.48c0 2.532 0.671 4.841 2.012 6.928s3.111 3.667 5.311 4.74l-6.196-16.947c-0.751 1.674-1.127 3.433-1.127 5.279zM4.689 9.367h0.837c0.397 0 0.885-0.013 1.465-0.040s1.057-0.051 1.432-0.072l0.547-0.048c0.225-0.011 0.389 0.067 0.491 0.233s0.115 0.341 0.040 0.523c-0.075 0.182-0.22 0.29-0.434 0.322-0.472 0.054-0.971 0.091-1.497 0.113l4.732 14.050 2.832-8.514-2.012-5.536-1.368-0.113c-0.215-0.021-0.362-0.123-0.443-0.306s-0.067-0.359 0.040-0.531c0.107-0.172 0.268-0.252 0.483-0.241 1.427 0.107 2.564 0.161 3.412 0.161 0.408 0 0.899-0.013 1.473-0.040s1.049-0.051 1.424-0.072l0.563-0.048c0.172-0.011 0.308 0.035 0.41 0.137s0.156 0.22 0.161 0.354c0.005 0.134-0.032 0.26-0.113 0.378s-0.207 0.188-0.378 0.209c-0.461 0.054-0.955 0.091-1.481 0.113l4.683 13.937 1.304-4.313c0.258-0.848 0.432-1.424 0.523-1.73s0.19-0.705 0.298-1.199c0.107-0.494 0.161-0.917 0.161-1.271 0-0.494-0.062-0.979-0.185-1.457s-0.249-0.858-0.378-1.143c-0.129-0.284-0.3-0.609-0.515-0.974-0.021-0.043-0.083-0.145-0.185-0.306s-0.166-0.268-0.193-0.322c-0.027-0.054-0.083-0.153-0.169-0.298s-0.145-0.247-0.177-0.306c-0.032-0.059-0.081-0.153-0.145-0.282s-0.11-0.231-0.137-0.306c-0.027-0.075-0.062-0.172-0.105-0.29s-0.072-0.223-0.088-0.314c-0.016-0.091-0.032-0.19-0.048-0.298s-0.024-0.215-0.024-0.322c0-0.612 0.209-1.148 0.628-1.609s0.939-0.692 1.561-0.692l0.161 0.016c-1.18-1.084-2.519-1.923-4.015-2.519s-3.077-0.893-4.74-0.893c-2.221 0-4.286 0.526-6.196 1.577s-3.455 2.478-4.635 4.281zM11.851 28.921c1.202 0.354 2.425 0.531 3.669 0.531 1.481 0 2.918-0.247 4.313-0.74-0.043-0.064-0.075-0.123-0.097-0.177l-3.991-10.928-3.895 11.314zM22.038 27.681c1.963-1.137 3.53-2.701 4.699-4.691s1.754-4.16 1.754-6.51c0-2.221-0.531-4.292-1.593-6.212 0.054 0.429 0.081 0.869 0.081 1.32 0 1.448-0.327 2.999-0.982 4.651l-3.959 11.443z" fill="rgb(68, 68, 68)"></path>
</svg>
