<?xml version="1.0" encoding="UTF-8" standalone="no"?>
<svg width="67px" height="67px" viewBox="0 0 67 67" version="1.1" xmlns="http://www.w3.org/2000/svg" xmlns:xlink="http://www.w3.org/1999/xlink" xmlns:sketch="http://www.bohemiancoding.com/sketch/ns">
    <!-- Generator: Sketch 3.2.2 (9983) - http://www.bohemiancoding.com/sketch -->
    <title>favicon 2</title>
    <desc>Created with Sketch.</desc>
    <defs>
        <rect id="path-1" x="0" y="0" width="67" height="67" rx="24"></rect>
    </defs>
    <g id="Blank-Project" stroke="none" stroke-width="1" fill="none" fill-rule="evenodd" sketch:type="MSPage">
        <g id="Producto-SuperShake-9" sketch:type="MSArtboardGroup" transform="translate(-646.000000, -1206.000000)">
            <g id="favicon-2" sketch:type="MSLayerGroup" transform="translate(646.000000, 1206.000000)">
                <g id="icon">
                    <mask id="mask-2" sketch:name="Mask 2" fill="white">
                        <use xlink:href="#path-1"></use>
                    </mask>
                    <use id="Mask-2" fill="#F0720A" sketch:type="MSShapeGroup" xlink:href="#path-1"></use>
                    <g mask="url(#mask-2)" fill="#FEFEFE" sketch:type="MSShapeGroup">
                        <g transform="translate(-15.000000, -5.000000)">
                            <path d="M33.8756539,68.3414674 C33.8756539,68.3414674 38.1992567,60.7422728 48.4411578,55.2077078 C52.4204725,53.0573477 54.0117759,51.8710547 58.6988687,51.3521359 C62.7300514,50.9058344 76.3257225,56.8840088 83.5659565,45.3099212 C85.9883508,41.4375321 86.7530696,38.1199262 87.767777,31.0918077 C88.7824844,24.0636893 85.1402119,16.3097697 82.7874068,13.7511253 C79.3245382,9.98530146 75.3882154,6.74213011 71.0752959,6.74213011 C66.7623765,6.74213011 67.7438756,7.76939801 64.82764,8.4338162 C62.809531,8.89361042 56.6282981,8.80774816 48.4411578,6.74213034 C40.2540176,4.67651252 39.8113781,3.86001577 33.8756536,5.46697557 C27.9399292,7.07393536 22.8816023,11.9113813 22.8816023,11.9113813 C22.8816023,11.9113813 17.3261784,20.057886 13.4044794,24.3841346 C9.48278027,28.7103832 5.81580211,37.1702831 13.4201472,48.8818697 C21.5158916,59.4189826 27.2936579,58.7319484 30.3760843,56.754324 C32.5029792,55.3897499 36.9784015,53.785388 39.1080093,47.0545385 C40.964264,41.1876502 39.6786766,51.5333965 38.3935915,55.432504 C38.2043492,56.0066887 32.6404602,60.0210601 32.6404602,60.0210601 C32.6404602,60.0210601 26.9951133,64.8033125 18.7870826,63.4387007 C10.5790519,62.0740888 3.45352386,50.7756669 1.88911741,46.2652942 C0.324710965,41.7549216 -1.14132104,31.6687515 5.86399208,23.0483936 C12.8693052,14.4280358 20.724241,8.23771536 24.4363716,5.94399877 C27.113239,4.39350741 27.9693198,3.27829171 31.316104,2.24500936 C34.6628883,1.21172702 36.858516,0.243291269 42.2941065,0.243291269 C47.7296971,0.243291269 49.9636424,3.27829185 54.8472481,3.27829161 C59.7308539,3.27829136 59.2512291,1.25527367 73.3052523,2.8149002 C87.3592756,4.37452672 96.9409486,18.6594767 96.940943,29.0980411 C96.9409373,39.5366054 96.1765437,49.2780507 86.2502773,58.8833602 C76.3240109,68.4886697 67.5818518,60.5267673 65.3883575,59.7050633 C63.1948631,58.8833594 60.6049288,55.2680547 52.4704896,59.71027 C44.3360503,64.1524853 43.2521226,65.1483724 40.9161955,66.0548028 C38.5802684,66.9612333 33.8756539,68.3414674 33.8756539,68.3414674 Z M79.9556179,56.3325778 C79.9556179,56.3325778 84.7395211,55.6897934 87.7786005,49.2979279 C90.8176799,42.9060624 90.9496693,38.5007675 90.9496693,38.5007675 C90.9496693,38.5007675 86.9591267,44.6933605 85.2888438,48.4340983 C83.618561,52.1748361 79.9556179,56.3325778 79.9556179,56.3325778 Z M6.81759167,30.5788581 C6.81759167,30.5788581 0.836762921,36.7125213 7.33795269,45.0436261 C6.47017,39.1637613 6.81759165,39.8683397 6.81759165,37.5629796 C6.81759165,35.2576195 6.45616388,32.9614895 6.81759167,30.5788581 Z" id="silueta"></path>
                            <path d="M38.3660444,32.1079192 C39.0201136,27.1989237 40.4402091,22.0236746 44.0217959,17.3194159 C52.378433,6.34333623 57.9853717,5.10770532 57.9853717,5.10770532 L63.6333297,12.321038 C63.6333297,12.321038 61.9191767,11.5154279 58.8748758,13.5597458 C56.080991,15.4359035 49.2578546,21.6355725 46.2341487,29.9375501 C49.2183803,29.1978909 51.9690232,28.646483 53.5373247,28.646483 C58.2998626,28.646483 67.8985307,29.6684053 69.4786042,28.8097823 C71.0586776,27.9511593 68.1250012,32.0663019 61.1167441,33.4205026 C54.1084869,34.7747032 53.5321025,33.552562 50.7679214,33.552562 C49.4325045,33.552562 47.385218,33.4504826 45.1476089,33.6592658 C42.9568624,42.3654488 42.2156366,48.8441514 40.3806936,53.7862802 C38.4459577,58.9971855 27.7309179,63.1569954 24.6699794,63.428064 C29.9965858,61.6947834 33.9801581,55.3151404 36.5278379,48.5753759 C37.6989671,45.47721 37.6111036,40.9420625 37.9859848,35.8795517 C37.9742136,35.887227 37.9624544,35.8949271 37.9507073,35.9026519 C33.7118539,38.6901 34.7896089,37.620371 33.2940457,36.0815712 C31.7984825,34.5427713 33.1088808,33.7314812 33.1088808,33.7314812 C33.1088808,33.7314812 35.3359879,33.0085843 38.3660444,32.1079192 Z" id="efe"></path>
                        </g>
                    </g>
                </g>
            </g>
        </g>
    </g>
</svg>