<?xml version="1.0" encoding="UTF-8" standalone="no"?>
<svg width="67px" height="67px" viewBox="0 0 67 67" version="1.1" xmlns="http://www.w3.org/2000/svg" xmlns:xlink="http://www.w3.org/1999/xlink" xmlns:sketch="http://www.bohemiancoding.com/sketch/ns">
    <!-- Generator: Sketch 3.2.2 (9983) - http://www.bohemiancoding.com/sketch -->
    <title>favicon</title>
    <desc>Created with Sketch.</desc>
    <defs>
        <rect id="path-1" x="0" y="0" width="67" height="67"></rect>
    </defs>
    <g id="Blank-Project" stroke="none" stroke-width="1" fill="none" fill-rule="evenodd" sketch:type="MSPage">
        <g id="Producto-SuperShake-9" sketch:type="MSArtboardGroup" transform="translate(-646.000000, -1206.000000)">
            <g id="favicon" sketch:type="MSLayerGroup" transform="translate(646.000000, 1206.000000)">
                <g id="icon">
                    <mask id="mask-2" sketch:name="Mask 2" fill="white">
                        <use xlink:href="#path-1"></use>
                    </mask>
                    <use id="Mask-2" fill="#FEFEFE" sketch:type="MSShapeGroup" xlink:href="#path-1"></use>
                    <g mask="url(#mask-2)" sketch:type="MSShapeGroup">
                        <g transform="translate(3.000000, 11.000000)">
                            <path d="M21.4315361,44.5705222 C21.4315361,44.5705222 24.1668767,39.6145257 30.6464468,36.0050268 C33.1639724,34.6026181 34.1707153,33.8289487 37.136019,33.4905234 C39.6863591,33.1994572 48.287702,37.0982666 52.8682582,29.5499486 C54.4007934,27.0244775 54.8845951,24.8608214 55.5265528,20.2772659 C56.1685105,15.6937104 53.8642157,10.6368063 52.3757064,8.96812522 C50.1849119,6.51215313 47.6945852,4.39704138 44.9660035,4.39704138 C42.2374219,4.39704138 42.8583703,5.0669987 41.0134049,5.50031491 C39.7366421,5.80018071 35.8260661,5.74418358 30.6464468,4.39704153 C25.4668275,3.04989947 25.1867902,2.51740159 21.431536,3.56541885 C17.6762817,4.61343611 14.4761157,7.76829216 14.4761157,7.76829216 C14.4761157,7.76829216 10.9614598,13.08123 8.4803849,15.9026965 C5.99930997,18.7241629 3.67938501,24.241489 8.49029718,31.8794802 C13.6120947,38.7515104 17.2674162,38.3034446 19.2175227,37.0136896 C20.5631093,36.12375 23.3944989,35.0774269 24.7418018,30.6877425 C25.916167,26.861511 25.1028362,33.6087368 24.2898232,36.1516331 C24.1700985,36.5261013 20.6500871,39.1441696 20.6500871,39.1441696 C20.6500871,39.1441696 17.078541,42.2630299 11.8857053,41.3730657 C6.69286956,40.4831014 2.18488244,33.1145653 1.19515591,30.173018 C0.205429386,27.2314706 -0.722060252,20.6535336 3.70987254,15.0315611 C8.14180533,9.40958856 13.1112545,5.37242306 15.4597453,3.87652093 C17.1532737,2.86533092 17.6948758,2.13801633 19.8122291,1.46413654 C21.9295824,0.790256752 23.318653,0.158668219 26.757496,0.158668219 C30.196339,0.158668219 31.6096513,2.13801643 34.6992794,2.13801626 C37.7889076,2.1380161 37.4854715,0.818656744 46.3767923,1.83580448 C55.2681131,2.85295221 61.3299879,12.1692239 61.3299843,18.9769833 C61.3299808,25.7847427 60.8463848,32.1378591 54.566502,38.4021914 C48.2866191,44.6665237 42.7558654,39.4739787 41.3681445,38.9380848 C39.9804236,38.4021909 38.3418938,36.0443835 33.1956159,38.9414804 C28.0493379,41.8385774 27.3635877,42.4880689 25.8857563,43.0792192 C24.4079249,43.6703695 21.4315361,44.5705222 21.4315361,44.5705222 Z M50.5841664,36.7386377 C50.5841664,36.7386377 53.6107174,36.3194305 55.5334003,32.1508225 C57.4560832,27.9822146 57.5395867,25.1091962 57.5395867,25.1091962 C57.5395867,25.1091962 55.0149577,29.1478438 53.9582481,31.5874554 C52.9015386,34.027067 50.5841664,36.7386377 50.5841664,36.7386377 Z M4.31317024,19.9427335 C4.31317024,19.9427335 0.529380624,23.9429487 4.64237824,29.3762779 C4.09337286,25.5415835 4.31317023,26.0010911 4.31317023,24.4975954 C4.31317023,22.9940996 4.08451184,21.4966236 4.31317024,19.9427335 Z" id="silueta" fill="#F0720A"></path>
                            <path d="M24.2723954,20.9399473 C24.6861943,17.7384285 25.5846221,14.3632661 27.850524,11.2952712 C33.137376,4.13695841 36.6846229,3.33111216 36.6846229,3.33111216 L40.2578208,8.03545956 C40.2578208,8.03545956 39.1733567,7.51006166 37.2473704,8.84331248 C35.4798107,10.0668936 31.1631325,14.1101559 29.2501757,19.5244892 C31.138159,19.0421028 32.8783616,18.6824889 33.8705523,18.6824889 C36.8835866,18.6824889 42.9562133,19.34896 43.9558516,18.7889885 C44.9554899,18.2290169 43.0994906,20.9128056 38.6656952,21.7959799 C34.2318999,22.6791543 33.8672485,21.8821056 32.1184809,21.8821056 C31.2736253,21.8821056 29.9784032,21.8155321 28.562773,21.9516951 C27.1767905,27.6296405 26.7078517,31.8548813 25.5469694,35.0780088 C24.3229528,38.4764253 17.5440501,41.1893448 15.607538,41.3661287 C18.9774318,40.2357283 21.497651,36.0750915 23.1094485,31.679593 C23.8503669,29.65905 23.7947798,26.7013451 24.0319495,23.3997076 C24.0245025,23.4047133 24.017063,23.4097351 24.0096312,23.414773 C21.3279076,25.2326739 22.0097526,24.5350246 21.0635799,23.5314595 C20.1174073,22.5278943 20.9464348,21.9987921 20.9464348,21.9987921 C20.9464348,21.9987921 22.3554209,21.5273376 24.2723954,20.9399473 Z" id="efe" fill="#317549"></path>
                        </g>
                    </g>
                </g>
            </g>
        </g>
    </g>
</svg>