<?xml version="1.0" encoding="UTF-8" standalone="no"?>
<svg width="67px" height="67px" viewBox="0 0 67 67" version="1.1" xmlns="http://www.w3.org/2000/svg" xmlns:xlink="http://www.w3.org/1999/xlink" xmlns:sketch="http://www.bohemiancoding.com/sketch/ns">
    <!-- Generator: Sketch 3.2.2 (9983) - http://www.bohemiancoding.com/sketch -->
    <title>favicon</title>
    <desc>Created with Sketch.</desc>
    <defs>
        <rect id="path-1" x="0" y="0" width="67" height="67"></rect>
    </defs>
    <g id="Blank-Project" stroke="none" stroke-width="1" fill="none" fill-rule="evenodd" sketch:type="MSPage">
        <g id="Producto-SuperShake-9" sketch:type="MSArtboardGroup" transform="translate(-646.000000, -1206.000000)">
            <g id="favicon" sketch:type="MSLayerGroup" transform="translate(646.000000, 1206.000000)">
                <g id="icon">
                    <mask id="mask-2" sketch:name="Mask 2" fill="white">
                        <use xlink:href="#path-1"></use>
                    </mask>
                    <use id="Mask-2" fill="#F0720A" sketch:type="MSShapeGroup" xlink:href="#path-1"></use>
                    <g mask="url(#mask-2)" sketch:type="MSShapeGroup">
                        <g transform="translate(-5.000000, 7.000000)">
                            <path d="M26.6165852,54.4750827 C26.6165852,54.4750827 30.0137017,48.4177537 38.0609097,44.0061439 C41.1875141,42.2920887 42.4378239,41.3464929 46.1205397,40.9328619 C49.2878975,40.5771143 59.9702105,45.3423258 65.6589659,36.1166039 C67.5622756,33.0299169 68.1631261,30.3854484 68.9603962,24.783325 C69.7576663,19.1812016 66.8958808,13.0005411 65.0472482,10.9610419 C62.3264228,7.95929827 59.2335978,5.37416168 55.8448754,5.37416168 C52.456153,5.37416168 53.2273308,6.19299842 50.9360028,6.72260712 C49.3503458,7.08910975 44.4936628,7.02066883 38.0609097,5.37416187 C31.6281567,3.72765491 31.2803685,3.07682417 26.616585,4.35773415 C21.9528015,5.63864413 17.9784018,9.49457931 17.9784018,9.49457931 C17.9784018,9.49457931 13.6134259,15.98817 10.5320909,19.436629 C7.45075593,22.885088 4.5695588,29.6284865 10.5444013,38.9638092 C16.9053434,47.3629572 21.4450169,46.8153212 23.8669234,45.2389539 C25.5380551,44.1512499 29.0544583,42.8724107 30.7277216,37.5072409 C32.1862074,32.8307357 31.176103,41.077345 30.1663933,44.1853293 C30.0177029,44.6430127 25.6460759,47.842874 25.6460759,47.842874 C25.6460759,47.842874 21.2104461,51.6548143 14.7612792,50.5670803 C8.31211219,49.4793462 2.71348303,40.4733576 1.48430654,36.8781331 C0.255130044,33.2829085 -0.896752248,25.2432077 4.60742235,18.371908 C10.1115969,11.5006082 16.2833322,6.56629485 19.2000063,4.73797003 C21.3032592,3.50207113 21.9758941,2.61313107 24.6055103,1.78950022 C27.2351265,0.965869364 28.9602625,0.193927823 33.2310837,0.193927823 C37.5019048,0.193927823 39.2571476,2.61313119 43.0942664,2.61313099 C46.9313852,2.61313079 46.5545371,1.00058046 57.596984,2.24376103 C68.6394308,3.48694159 76.1678882,14.8734959 76.1678838,23.1940907 C76.1678793,31.5146855 75.5672844,39.2796056 67.768075,46.9360118 C59.9688657,54.5924179 53.1000264,48.245974 51.3765666,47.5909925 C49.6531068,46.9360111 47.6181584,44.0542465 41.2268132,47.5951427 C34.8354681,51.136039 33.9838106,51.929862 32.1484393,52.6523791 C30.3130681,53.3748961 26.6165852,54.4750827 26.6165852,54.4750827 Z M62.8222712,44.9027794 C62.8222712,44.9027794 66.5810523,44.390415 68.9689004,39.2954498 C71.3567485,34.2004845 71.4604544,30.6890175 71.4604544,30.6890175 C71.4604544,30.6890175 68.3250281,35.6251424 67.012663,38.6068899 C65.7002979,41.5886374 62.8222712,44.9027794 62.8222712,44.9027794 Z M5.35667917,24.3744521 C5.35667917,24.3744521 0.657456581,29.263604 5.76553426,35.9043397 C5.083705,31.2174909 5.35667916,31.7791114 5.35667916,29.9415055 C5.35667916,28.1038996 5.07270019,26.273651 5.35667917,24.3744521 Z" id="silueta" fill="#FEFEFE"></path>
                            <path d="M30.1447492,25.593269 C30.6586607,21.6803015 31.77445,17.555103 34.588554,13.8053315 C41.154483,5.0562825 45.5599349,4.07135931 45.5599349,4.07135931 L49.9976162,9.82111724 C49.9976162,9.82111724 48.6507817,9.17896425 46.258831,10.808493 C44.0636358,12.303981 38.7026001,17.2457462 36.3268312,23.8632646 C38.6715845,23.2736812 40.8328039,22.8341531 42.0650408,22.8341531 C45.8070349,22.8341531 53.3488455,23.6487288 54.5903318,22.9643192 C55.8318181,22.2799096 53.5267867,25.5600957 48.0202989,26.639531 C42.5138111,27.7189663 42.0609377,26.7447958 39.8890811,26.7447958 C38.8398249,26.7447958 37.2312427,26.6634282 35.4731213,26.8298496 C33.7518204,33.7695606 33.1694288,38.9337439 31.7276878,42.8731219 C30.2075382,47.0267421 21.7885783,50.3425326 19.3835552,50.5586017 C23.5687459,49.1770012 26.6986956,44.0917785 28.7004441,38.7195025 C29.620617,36.24995 29.5515814,32.6349774 29.8461309,28.5996426 C29.8368821,28.6057607 29.8276427,28.6118984 29.8184129,28.6180559 C26.4878852,30.8399348 27.3346927,29.9872523 26.1596074,28.7606727 C24.984522,27.5340931 26.0141206,26.8874126 26.0141206,26.8874126 C26.0141206,26.8874126 27.7639905,26.3111904 30.1447492,25.593269 Z" id="efe" fill="#317549"></path>
                        </g>
                    </g>
                </g>
            </g>
        </g>
    </g>
</svg>