<?xml version="1.0" encoding="UTF-8" standalone="no"?>
<svg width="67px" height="67px" viewBox="0 0 67 67" version="1.1" xmlns="http://www.w3.org/2000/svg" xmlns:xlink="http://www.w3.org/1999/xlink" xmlns:sketch="http://www.bohemiancoding.com/sketch/ns">
    <!-- Generator: Sketch 3.2.2 (9983) - http://www.bohemiancoding.com/sketch -->
    <title>favicon</title>
    <desc>Created with Sketch.</desc>
    <defs></defs>
    <g id="Blank-Project" stroke="none" stroke-width="1" fill="none" fill-rule="evenodd" sketch:type="MSPage">
        <g id="Producto-SuperShake-9" sketch:type="MSArtboardGroup" transform="translate(-646.000000, -1113.000000)">
            <g id="favicon" sketch:type="MSLayerGroup" transform="translate(646.000000, 1113.000000)">
                <rect id="Rectangle-397" fill="#317549" sketch:type="MSShapeGroup" x="0" y="0" width="67" height="67"></rect>
                <g id="icon" transform="translate(4.000000, 13.000000)" fill="#FEFEFE" sketch:type="MSShapeGroup">
                    <path d="M20.7401963,41.5991541 C20.7401963,41.5991541 23.3873,36.9735573 29.6578517,33.6046917 C32.0941668,32.2957769 33.0684342,31.5736855 35.9380829,31.2578218 C38.4061539,30.98616 46.7300342,34.6250488 51.1628305,27.579952 C52.6459291,25.2228456 53.1141243,23.2034333 53.7353737,18.9254482 C54.3566231,14.647463 52.1266604,9.92768592 50.6861675,8.37025021 C48.5660438,6.07800959 46.1560502,4.10390528 43.5154873,4.10390528 C40.8749244,4.10390528 41.4758422,4.72919879 39.6903918,5.13362725 C38.4548149,5.41350199 34.6703866,5.36123801 29.6578517,4.10390542 C24.6453169,2.84657284 24.3743131,2.34957482 20.7401961,3.32772426 C17.1060791,4.3058737 14.0091443,7.25040601 14.0091443,7.25040601 C14.0091443,7.25040601 10.6078644,12.209148 8.2068241,14.8425167 C5.80578384,17.4758854 3.56069517,22.6253897 8.21641663,29.7541815 C13.1729948,36.1680764 16.7104028,35.7498816 18.5976026,34.5461103 C19.8997832,33.7155 22.6398376,32.7389318 23.9436791,28.641893 C25.0801616,25.0707436 24.2930673,31.3681544 23.5062805,33.7415242 C23.3904179,34.0910279 19.9839552,36.5345583 19.9839552,36.5345583 C19.9839552,36.5345583 16.5276204,39.4454946 11.5022955,38.6148613 C6.47697054,37.784228 2.11440236,30.9069277 1.1566025,28.1614834 C0.198802631,25.4160392 -0.698767986,19.2766313 3.59019923,14.029457 C7.87916645,8.78228266 12.6883108,5.01426152 14.9610439,3.61808621 C16.5999422,2.67430886 17.1240733,1.99548191 19.1731249,1.36652744 C21.2221765,0.737572969 22.5664383,0.148090337 25.8943509,0.148090337 C29.2222635,0.148090337 30.5899851,1.995482 33.5799478,1.99548185 C36.5699105,1.9954817 36.2762627,0.764079627 44.8807667,1.71341751 C53.4852708,2.6627554 59.3516012,11.3579423 59.3515977,17.7118511 C59.3515943,24.0657598 58.8835982,29.9953352 52.8062922,35.8420453 C46.7289862,41.6887555 41.3766439,36.8423801 40.0336882,36.3422125 C38.6907325,35.8420448 37.1050585,33.6414246 32.1247895,36.3453817 C27.1445206,39.0493389 26.4808914,39.655531 25.0507319,40.2072713 C23.6205725,40.7590116 20.7401963,41.5991541 20.7401963,41.5991541 Z M48.9524191,34.2893952 C48.9524191,34.2893952 51.8813394,33.8981351 53.7420003,30.0074344 C55.6026611,26.1167336 55.683471,23.4352498 55.683471,23.4352498 C55.683471,23.4352498 53.2402816,27.2046542 52.2176595,29.481625 C51.1950373,31.7585959 48.9524191,34.2893952 48.9524191,34.2893952 Z M4.17403572,18.6132179 C4.17403572,18.6132179 0.512303829,22.3467521 4.4926241,27.4178594 C3.96132857,23.8388112 4.17403571,24.267685 4.17403571,22.8644224 C4.17403571,21.4611597 3.95275339,20.0635153 4.17403572,18.6132179 Z" id="silueta"></path>
                    <path d="M23.4894149,19.5439508 C23.8898655,16.5558666 24.7593117,13.405715 26.95212,10.5422532 C32.0684283,3.86116118 35.501248,3.10903802 35.501248,3.10903802 L38.9591815,7.49976226 C38.9591815,7.49976226 37.9097,7.00939088 36.0458423,8.25375831 C34.3353006,9.39576734 30.1578702,13.1694789 28.3066217,18.2228566 C30.1337022,17.7726293 31.8177693,17.4369896 32.7779539,17.4369896 C35.6937934,17.4369896 41.570529,18.0590293 42.5379209,17.5363892 C43.5053128,17.0137491 41.7091844,19.5186186 37.4184147,20.3429146 C33.127645,21.1672106 32.7747566,20.4232986 31.0824009,20.4232986 C30.2647987,20.4232986 29.0113579,20.3611633 27.6413932,20.4882488 C26.3001198,25.7876645 25.8463081,29.7312226 24.7228736,32.7394749 C23.5383415,35.9113303 16.978113,38.4433885 15.104069,38.6083868 C18.3652566,37.5533464 20.8041784,33.6700854 22.3639824,29.5676201 C23.0810002,27.68178 23.0272063,24.9212555 23.2567254,21.8397271 C23.2495185,21.8443991 23.242319,21.8490861 23.2351269,21.8537881 C20.6399105,23.5504956 21.2997606,22.8993563 20.3841096,21.9626955 C19.4684587,21.0260347 20.2707433,20.532206 20.2707433,20.532206 C20.2707433,20.532206 21.6342783,20.0921817 23.4894149,19.5439508 Z" id="efe"></path>
                </g>
            </g>
        </g>
    </g>
</svg>