<?xml version="1.0" encoding="UTF-8" standalone="no"?>
<svg width="100px" height="100px" viewBox="0 0 100 100" version="1.1" xmlns="http://www.w3.org/2000/svg" xmlns:xlink="http://www.w3.org/1999/xlink" xmlns:sketch="http://www.bohemiancoding.com/sketch/ns">
    <title>logo 1</title>
    <description>Created with Sketch (http://www.bohemiancoding.com/sketch)</description>
    <defs></defs>
    <g id="Page-1" stroke="none" stroke-width="1" fill="none" fill-rule="evenodd" sketch:type="MSPage">
        <path d="M69.7937615,51.4787507 C69.6882315,40.7992368 78.418675,35.6774644 78.808826,35.4229981 C73.9033952,28.1744146 66.2618513,27.1814196 63.5387867,27.0666215 C57.0355637,26.4017151 50.8494199,30.9328621 47.5489579,30.9328621 C44.2568144,30.9328621 39.163811,27.1649493 33.7703653,27.2639358 C26.6820789,27.370334 20.1462346,31.4258185 16.4963983,37.836228 C9.13180941,50.7407161 14.6103968,69.8578052 21.7883918,80.3235344 C25.295836,85.446295 29.4782153,91.2001979 34.969525,90.9946484 C40.2576039,90.7815226 42.2572907,87.5393421 48.6505799,87.5393421 C55.0437059,87.5393421 56.8408144,90.9946484 62.4370016,90.8885796 C68.1274645,90.781852 71.7326095,85.667656 75.215914,80.5290839 C79.2436682,74.5859372 80.902136,68.8320343 81,68.5367216 C80.8735924,68.4784167 69.9036953,64.2348413 69.7937615,51.4787507 L69.7937615,51.4787507 Z M59.547076,20.1433516 C62.4744409,16.6583806 64.4503181,11.8234032 63.9113383,7 C59.6946811,7.16846947 54.5835467,9.75611555 51.5582152,13.2332097 C48.8436571,16.3177443 46.4675587,21.2408145 47.1043413,25.9677657 C51.8114865,26.3281746 56.6165983,23.6204458 59.547076,20.1433516 L59.547076,20.1433516 Z" id="apple" fill="#000000" sketch:type="MSShapeGroup"></path>
    </g>
</svg>