<?xml version="1.0" encoding="utf-8"?>
<!-- Generator: Adobe Illustrator 16.0.0, SVG Export Plug-In . SVG Version: 6.00 Build 0)  -->
<!DOCTYPE svg PUBLIC "-//W3C//DTD SVG 1.1//EN" "http://www.w3.org/Graphics/SVG/1.1/DTD/svg11.dtd">
<svg version="1.1" id="Layer_1" xmlns="http://www.w3.org/2000/svg" xmlns:xlink="http://www.w3.org/1999/xlink" x="0px" y="0px"
	 width="300px" height="300px" viewBox="0 0 300 300" enable-background="new 0 0 300 300" xml:space="preserve">
<path d="M229.327,69.749c-27.132-0.205-54.265-0.057-81.399-0.057c-27.129,0-54.265-0.085-81.396,0.028
	c-18.571,0.08-21.5,3.302-18.938,21.62c7.37,52.737,15.309,105.396,22.217,158.191c1.82,13.926,7.833,19.162,21.663,18.961
	c36.817-0.538,73.646-0.162,110.469-0.18c20.604-0.012,23.117-2.32,25.602-22.504c6.389-51.904,12.803-103.806,19.305-155.694
	C248.828,74.294,245.384,69.868,229.327,69.749z M101.773,240.518c-7.398,0.776-14.027-4.588-14.805-11.988L74.766,112.425
	c-0.779-7.404,4.591-14.028,11.989-14.805c7.396-0.779,14.028,4.585,14.805,11.986l12.202,116.106
	C114.541,233.113,109.168,239.741,101.773,240.518z M161.618,227.441c0,7.443-6.036,13.472-13.473,13.472
	c-7.438,0-13.471-6.026-13.471-13.472V110.697c0-7.441,6.033-13.471,13.471-13.471c7.437,0,13.473,6.03,13.473,13.471V227.441
	L161.618,227.441z M221.042,112.425L208.84,228.532c-0.775,7.399-7.41,12.765-14.805,11.985c-7.398-0.776-12.77-7.4-11.989-14.806
	l12.202-116.104c0.779-7.401,7.406-12.765,14.805-11.989C216.448,98.397,221.82,105.024,221.042,112.425z"/>
<path d="M237.488,28.387h-59.437c-0.448-7.033-6.235-12.622-13.386-12.622h-35.185c-7.149,0-12.938,5.589-13.385,12.622H56.662
	c-7.441,0-13.471,6.036-13.471,13.472c0,7.438,6.03,13.471,13.471,13.471h180.826c7.441,0,13.472-6.033,13.472-13.471
	C250.959,34.422,244.93,28.387,237.488,28.387z"/>
</svg>
