<?xml version="1.0" encoding="utf-8"?>
<!-- Generator: Adobe Illustrator 16.0.0, SVG Export Plug-In . SVG Version: 6.00 Build 0)  -->
<!DOCTYPE svg PUBLIC "-//W3C//DTD SVG 1.1//EN" "http://www.w3.org/Graphics/SVG/1.1/DTD/svg11.dtd">
<svg version="1.1" id="Layer_1" xmlns="http://www.w3.org/2000/svg" xmlns:xlink="http://www.w3.org/1999/xlink" x="0px" y="0px"
	 width="300px" height="300px" viewBox="0 0 300 300" enable-background="new 0 0 300 300" xml:space="preserve">
<rect x="61.581" y="242.5" width="178" height="12"/>
<path d="M265.477,42.769c-75.604,0-151.213,0-226.817,0c-7.842,0-10.633,2.747-10.633,10.49c-0.002,52.646-0.002,105.291,0,157.938
	c0.001,7.587,2.817,10.382,10.441,10.383c37.852,0,75.703,0,113.554,0c37.854,0,75.704,0.001,113.558,0
	c7.333,0,10.231-2.928,10.231-10.333c0.004-52.743,0.004-105.484,0-158.227C275.811,45.697,272.849,42.769,265.477,42.769z
	 M263.419,208.008h-223v-27.042c-0.009,0-0.02,0-0.028,0c0-41.516,0-83.048,0-124.793c73.956,0,147.957,0,222.169,0
	c0,0.056,0,0.112,0,0.168h0.859V208.008z"/>
<rect x="112.581" y="225.5" width="77" height="12"/>
</svg>
