<?xml version="1.0" encoding="UTF-8" standalone="no"?>
<svg width="100px" height="100px" viewBox="0 0 100 100" version="1.1" xmlns="http://www.w3.org/2000/svg" xmlns:xlink="http://www.w3.org/1999/xlink" xmlns:sketch="http://www.bohemiancoding.com/sketch/ns">
    <title>logo 1</title>
    <description>Created with Sketch (http://www.bohemiancoding.com/sketch)</description>
    <defs></defs>
    <g id="Page-1" stroke="none" stroke-width="1" fill="none" fill-rule="evenodd" sketch:type="MSPage">
        <path d="M29.1576705,52.8405574 L29.1576705,39.9462139 L38.5464533,39.9462139 L38.5464533,28.966872 C38.5464533,26.7539703 38.9129787,24.6687673 39.6460405,22.7112004 C40.3791023,20.7536335 41.4645813,18.9946868 42.9025102,17.4343074 C44.3404391,15.873928 46.2646974,14.6398283 48.6753429,13.7319712 C51.0859884,12.8241141 53.8278803,12.3701923 56.9011009,12.3701923 C58.4518085,12.3701923 59.9742986,12.4127475 61.4686168,12.4978591 C62.9629351,12.5829707 64.0766084,12.668081 64.8096702,12.7531926 L65.9092574,12.8808594 L65.6132147,24.8815355 L57.4508944,24.8815355 C55.3080985,24.8815355 53.8772397,25.3354572 53.1582753,26.2433143 C52.4393108,27.1511714 52.079834,28.5838619 52.079834,30.5414288 L52.079834,31.137207 L52.079834,39.9462139 L65.993841,39.9462139 L65.4017556,52.8405574 L52.079834,52.8405574 L52.079834,88.6298077 L38.5464533,88.6298077 L38.5464533,52.8405574 L29.1576705,52.8405574 Z" id="facebook" fill="#000000" sketch:type="MSShapeGroup"></path>
    </g>
</svg>