<?xml version="1.0" encoding="UTF-8" standalone="no"?>
<svg width="100px" height="100px" viewBox="0 0 100 100" version="1.1" xmlns="http://www.w3.org/2000/svg" xmlns:xlink="http://www.w3.org/1999/xlink" xmlns:sketch="http://www.bohemiancoding.com/sketch/ns">
    <title>logo 1</title>
    <description>Created with Sketch (http://www.bohemiancoding.com/sketch)</description>
    <defs></defs>
    <g id="Page-1" stroke="none" stroke-width="1" fill="none" fill-rule="evenodd" sketch:type="MSPage">
        <path d="M10.4375,76.6852893 L10.4375,21.9709607 C10.4375,18.9502587 11.5061285,16.3713018 13.6434177,14.2340126 C15.7807068,12.0967235 18.3596637,11.028095 21.3803657,11.028095 L76.0946944,11.028095 C79.1153964,11.028095 81.6943533,12.0967235 83.8316424,14.2340126 C85.9689316,16.3713018 87.0375601,18.9502587 87.0375601,21.9709607 L87.0375601,76.6852893 C87.0375601,79.7059913 85.9689316,82.2849482 83.8316424,84.4222374 C81.6943533,86.5595265 79.1153964,87.628155 76.0946944,87.628155 L64.0404438,87.628155 L64.0404438,57.2360553 L75.5817475,57.2360553 L76.0946944,46.1222073 L64.0404438,46.1222073 L64.0404438,37.915058 L64.0404438,37.4021112 C64.0404438,35.6922799 64.346784,34.4455466 64.9594736,33.6618739 C65.5721631,32.8782012 66.8188964,32.4863707 68.6997109,32.4863707 L75.7954754,32.5291163 L76.0519488,22.1846885 C73.8291681,21.8997166 71.2217144,21.7572328 68.2295096,21.7572328 C65.5507739,21.7572328 63.1712943,22.1490633 61.0909996,22.932736 C59.0107048,23.7164087 57.3436443,24.777913 56.089768,26.1172809 C54.8358917,27.4566488 53.8954985,28.9598529 53.2685604,30.6269385 C52.6416222,32.294024 52.3281579,34.0964441 52.3281579,36.034253 L52.3281579,46.1222073 L41.4707833,46.1222073 L41.4707833,57.2360553 L52.3281579,57.2360553 L52.3281579,87.628155 L21.3803657,87.628155 C18.3596637,87.628155 15.7807068,86.5595265 13.6434177,84.4222374 C11.5061285,82.2849482 10.4375,79.7059913 10.4375,76.6852893 L10.4375,76.6852893 Z" id="facebook2" fill="#000000" sketch:type="MSShapeGroup"></path>
    </g>
</svg>