<?xml version="1.0" encoding="UTF-8" standalone="no"?>
<svg width="100px" height="100px" viewBox="0 0 100 100" version="1.1" xmlns="http://www.w3.org/2000/svg" xmlns:xlink="http://www.w3.org/1999/xlink" xmlns:sketch="http://www.bohemiancoding.com/sketch/ns">
    <title>logo 1</title>
    <description>Created with Sketch (http://www.bohemiancoding.com/sketch)</description>
    <defs></defs>
    <g id="Page-1" stroke="none" stroke-width="1" fill="none" fill-rule="evenodd" sketch:type="MSPage">
        <path d="M6.046875,49.5 C6.046875,55.2669559 8.09210194,60.1956176 12.1826172,64.2861328 C16.2731324,68.3766481 21.2017941,70.421875 26.96875,70.421875 C32.7357059,70.421875 37.6643676,68.3766481 41.7548828,64.2861328 C45.8453981,60.1956176 47.890625,55.2669559 47.890625,49.5 C47.890625,43.7330441 45.8453981,38.8043824 41.7548828,34.7138672 C37.6643676,30.6233519 32.7357059,28.578125 26.96875,28.578125 C21.2017941,28.578125 16.2731324,30.6233519 12.1826172,34.7138672 C8.09210194,38.8043824 6.046875,43.7330441 6.046875,49.5 Z M51.109375,49.5 C51.109375,55.2669559 53.1546019,60.1956176 57.2451172,64.2861328 C61.3356324,68.3766481 66.2642941,70.421875 72.03125,70.421875 C77.7982059,70.421875 82.7268676,68.3766481 86.8173828,64.2861328 C90.9078981,60.1956176 92.953125,55.2669559 92.953125,49.5 C92.953125,43.7330441 90.9078981,38.8043824 86.8173828,34.7138672 C82.7268676,30.6233519 77.7982059,28.578125 72.03125,28.578125 C66.2642941,28.578125 61.3356324,30.6233519 57.2451172,34.7138672 C53.1546019,38.8043824 51.109375,43.7330441 51.109375,49.5 Z" id="flickr" fill="#000000" sketch:type="MSShapeGroup"></path>
    </g>
</svg>