<?xml version="1.0" encoding="UTF-8" standalone="no"?>
<svg width="100px" height="100px" viewBox="0 0 100 100" version="1.1" xmlns="http://www.w3.org/2000/svg" xmlns:xlink="http://www.w3.org/1999/xlink" xmlns:sketch="http://www.bohemiancoding.com/sketch/ns">
    <title>logo 1</title>
    <description>Created with Sketch (http://www.bohemiancoding.com/sketch)</description>
    <defs></defs>
    <g id="Page-1" stroke="none" stroke-width="1" fill="none" fill-rule="evenodd" sketch:type="MSPage">
        <path d="M50.0438871,10 C48.3761755,10 46.9492163,10.6388456 45.7680251,11.9190718 C44.5868339,13.1967629 44,14.7406396 44,16.5430967 C44,18.2872465 44.5918495,19.800702 45.7680251,21.0809282 C46.9492163,22.3586193 48.3736677,23 50.0438871,23 C51.6514107,23 53.0482759,22.3611544 54.2294671,21.0809282 C55.4081505,19.800702 56,18.2872465 56,16.5430967 C56,14.7406396 55.4081505,13.199298 54.2294671,11.9190718 C53.0482759,10.6388456 51.6514107,10 50.0438871,10 Z M76.226462,60.8955657 C73.7153821,60.8955657 72.4772457,58.9200268 72.4772457,54.9715179 L72.4772457,39.3778622 L80.3709869,39.3778622 L80.3709869,29.6286161 L72.4648146,29.6286161 C72.43498,28.3441305 72.3653659,25.3872445 72.3156416,24 L63.0942601,24 L63.0942601,29.6286161 L58,29.6286161 L58,39.3752932 L63.0942601,39.3752932 L63.0942601,54.5270859 C63.0942601,59.4800625 63.698411,63.104881 64.9017404,65.4015414 C66.4978921,68.4688931 69.2998595,70 73.4617879,70 C76.4278456,70 79.0433467,69.4117056 81,68.2325477 L81,59.3927175 C79.4411415,60.3971853 77.9916766,60.8955657 76.226462,60.8955657 Z M45.4542665,29.8536974 C42.0337543,31.206048 38.849227,31.8925073 36.1138322,31.8925073 C33.6727841,30.4758815 31.1403871,29.7688541 28.2882686,29.7688541 C24.3272749,29.7688541 20.9270624,31.0954946 18.0724065,33.7487757 C15.1035643,36.5820274 13.6140682,40.1223066 13.6140682,44.3670421 C13.6140682,47.2002938 14.4209843,49.8510039 16.0576537,52.3294564 C17.5116252,54.6305093 19.0341083,56.1062684 21.0260238,56.7541626 L21.0260238,56.9315622 C19.0341083,57.756856 18.1485306,59.8213761 18.1485306,63.1276934 C18.1485306,65.6652791 19.0341083,67.5523996 21.0260238,68.7890548 L21.0260238,68.9690255 C15.5197097,70.7944417 13,74.1881734 13,79.1425073 C13,83.4515181 14.8498171,86.6061459 18.4631772,88.6115328 C21.3127582,90.2029873 24.9768677,91 29.4022188,91 C40.1712499,91 45.5684527,86.4287463 45.5684527,77.283668 C45.5684527,71.5606024 41.4120736,68.0511753 33.0866281,66.7528159 C31.1606869,66.4571499 29.7143279,65.7501224 28.7221763,64.6291626 C27.9634722,63.860431 27.5930013,63.0942703 27.5930013,62.3281097 C27.5930013,60.1427522 28.7551635,58.8752449 31.0871002,58.5230167 C34.634486,57.9908178 37.5297415,56.3248041 39.7779417,53.5249755 C42.015992,50.7225759 43.1375546,47.4316846 43.1375546,43.6574437 C43.1375546,42.4799216 42.784846,41.2098433 42.3230261,39.8549216 C43.6957984,39.5309745 44.6854125,39.2378795 45.4542665,38.9627816 L45.4542665,70.0771303 L56,70.0771303 L56,28 L45.4542665,28 L45.4542665,29.8536974 Z M30.3612867,74 C35.4555237,74 38,75.4572378 38,78.3692223 C38,81.4580681 35.6669029,83 30.9980663,83 C25.6633855,83 23.0000085,81.5128702 23.0000085,78.5411016 C22.994724,75.5145309 25.4520064,74 30.3612867,74 L30.3612867,74 Z M28.5902471,50 C24.8642752,50 23,48.0690776 23,44.2096709 C23,40.0698903 24.8642752,38 28.5902471,38 C30.3668523,38 31.7592571,38.6436408 32.7597256,39.9309224 C33.5874329,41.1036164 33.9999972,42.5030475 33.9999972,44.1267777 C34.0025758,48.0422592 32.2001852,50 28.5902471,50 L28.5902471,50 Z" id="git" fill="#000000" sketch:type="MSShapeGroup"></path>
    </g>
</svg>