<?xml version="1.0" encoding="UTF-8" standalone="no"?>
<svg width="100px" height="100px" viewBox="0 0 100 100" version="1.1" xmlns="http://www.w3.org/2000/svg" xmlns:xlink="http://www.w3.org/1999/xlink" xmlns:sketch="http://www.bohemiancoding.com/sketch/ns">
    <title>logo 1</title>
    <description>Created with Sketch (http://www.bohemiancoding.com/sketch)</description>
    <defs></defs>
    <g id="Page-1" stroke="none" stroke-width="1" fill="none" fill-rule="evenodd" sketch:type="MSPage">
        <path d="M6,51.5714932 C6,45.6711573 7.14696119,40.0262091 9.44091797,34.6364792 C11.7348748,29.2467494 14.828838,24.6088145 18.7229004,20.7225356 C22.6169628,16.8362567 27.2472876,13.7443001 32.6140137,11.4465732 C37.9807397,9.14884624 43.6093455,8 49.5,8 C55.4189749,8 61.0617407,9.14884624 66.4284668,11.4465732 C71.7951928,13.7443001 76.4184376,16.8362567 80.2983398,20.7225356 C84.1782421,24.6088145 87.2651252,29.2396577 89.559082,34.6152041 C91.8530388,39.9907505 93,45.6427903 93,51.5714932 C93,61.074438 90.2317171,69.6056851 84.6950684,77.1654904 C79.1584196,84.7252958 72.0146922,89.9660203 63.2636719,92.8878212 C62.2441355,93.0863902 61.4936548,92.9658323 61.012207,92.5261438 C60.5307593,92.0864553 60.2900391,91.5120322 60.2900391,90.8028572 C60.2900391,90.6893892 60.2971191,89.2426939 60.3112793,86.462728 C60.3254395,83.6827621 60.3325195,81.1439537 60.3325195,78.8462267 C60.3325195,75.1585168 59.3554785,72.4778756 57.4013672,70.8042226 C59.5820422,70.5489196 61.5290442,70.2014291 63.2424316,69.7617406 C64.9558191,69.3220521 66.7187409,68.5916128 68.53125,67.5704009 C70.3437591,66.5491889 71.8588806,65.2868764 73.0766602,63.7834254 C74.2944397,62.2799744 75.2927207,60.2943142 76.0715332,57.8263853 C76.8503457,55.3584563 77.2397461,52.5076157 77.2397461,49.2737777 C77.2397461,44.7066908 75.7529446,40.8204702 72.7792969,37.6149993 C72.9492196,37.1894943 73.1049798,36.6930793 73.246582,36.1257393 C73.3881843,35.5583993 73.5156244,34.7641352 73.6289062,33.7429232 C73.7421881,32.7217113 73.692628,31.5374068 73.4802246,30.1899743 C73.2678212,28.8425419 72.8925808,27.4738547 72.3544922,26.0838717 C72.2412104,26.0555047 72.0925302,26.0271381 71.9084473,25.9987711 C71.7243643,25.9704041 71.2712438,25.9845874 70.5490723,26.0413214 C69.8269007,26.0980554 69.0410199,26.2540716 68.1914062,26.5093746 C67.3417926,26.7646775 66.2160715,27.2398177 64.814209,27.9348091 C63.4123465,28.6298006 61.932625,29.5020728 60.375,30.5516518 C57.0331864,29.6155408 53.4082227,29.1191257 49.5,29.0623917 C45.5917773,29.1191257 41.9668136,29.6155408 38.625,30.5516518 C37.067375,29.5020728 35.5947335,28.6298006 34.2070312,27.9348091 C32.819329,27.2398177 31.6865278,26.7717692 30.8085938,26.5306497 C29.9306597,26.2895302 29.1589389,26.1264224 28.4934082,26.0413214 C27.8278775,25.9562204 27.353517,25.9420371 27.0703125,25.9987711 L26.6455078,26.0838717 C25.0029215,30.2254536 24.8613213,34.0691244 26.2207031,37.6149993 C23.2470554,40.8772042 21.7602539,44.7634248 21.7602539,49.2737777 C21.7602539,52.5076157 22.1496543,55.3584563 22.9284668,57.8263853 C23.7072793,60.2943142 24.7055603,62.2799744 25.9233398,63.7834254 C27.1411194,65.2868764 28.6562409,66.5491889 30.46875,67.5704009 C32.2812591,68.5916128 34.0441809,69.3291438 35.7575684,69.7830158 C37.4709558,70.2368877 39.4037978,70.5772866 41.5561523,70.8042226 C40.0551683,72.1374716 39.1347673,74.0805819 38.7949219,76.6336119 C38.0019492,77.0023828 37.1594283,77.2860486 36.267334,77.4846176 C35.3752397,77.6831866 34.3061586,77.7753779 33.0600586,77.7611944 C31.8139586,77.7470109 30.5749573,77.3427873 29.3430176,76.5485113 C28.1110778,75.7542353 27.0419967,74.5770225 26.1357422,73.0168375 C26.0791013,72.9033695 25.9870612,72.754445 25.8596191,72.5700595 C25.7321771,72.385674 25.4631368,72.0452751 25.0524902,71.5488526 C24.6418436,71.0524302 24.1958032,70.6127483 23.7143555,70.2297938 C23.2329077,69.8468393 22.6098671,69.4851655 21.8452148,69.1447615 C21.0805626,68.8043575 20.2876018,68.6057915 19.4663086,68.5490575 L19.0415039,68.5490575 C18.8715812,68.5490575 18.6096209,68.598699 18.2556152,68.6979835 C17.9016096,68.797268 17.6608893,68.9249175 17.5334473,69.080936 C17.4060052,69.2369545 17.4626453,69.4993453 17.7033691,69.8681163 C17.944093,70.2368873 18.4326135,70.6765692 19.1689453,71.1871752 C19.2539067,71.2155422 19.3601068,71.2722754 19.4875488,71.3573764 C19.6149909,71.4424773 19.8840311,71.648135 20.2946777,71.9743555 C20.7053243,72.300576 21.0947247,72.6835247 21.4628906,73.1232132 C21.8310565,73.5629017 22.255857,74.1798747 22.7373047,74.9741507 C23.2187524,75.7684267 23.6435528,76.6336072 24.0117188,77.5697182 C24.0400392,77.6548192 24.0754392,77.7541022 24.1179199,77.8675702 C24.1604006,77.9810382 24.2736807,78.222154 24.4577637,78.590925 C24.6418466,78.959696 24.8613269,79.3213698 25.1162109,79.6759573 C25.371095,80.0305448 25.7180154,80.4276769 26.1569824,80.8673653 C26.5959495,81.3070538 27.07031,81.7041859 27.5800781,82.0587734 C28.0898463,82.4133609 28.727047,82.7466681 29.4916992,83.0587051 C30.2563515,83.3707421 31.0705523,83.5976747 31.9343262,83.7395097 C32.7981,83.8813447 33.8105411,83.9309862 34.9716797,83.8884357 C36.1328183,83.8458852 37.3647396,83.6827774 38.6674805,83.3991074 C38.6674805,84.8174574 38.6745605,86.3776189 38.6887207,88.0796389 C38.7028809,89.7816588 38.7099609,90.6893892 38.7099609,90.8028572 C38.7099609,91.4836652 38.4692407,92.0509967 37.987793,92.5048687 C37.5063452,92.9587406 36.7558645,93.1005735 35.7363281,92.9303715 C26.9853078,90.0085706 19.8415804,84.7607544 14.3049316,77.1867656 C8.76828286,69.6127767 6,61.074438 6,51.5714932 L6,51.5714932 Z" id="github" fill="#000000" sketch:type="MSShapeGroup"></path>
    </g>
</svg>