<?xml version="1.0" encoding="utf-8"?>
<!-- Generator: Adobe Illustrator 16.0.0, SVG Export Plug-In . SVG Version: 6.00 Build 0)  -->
<!DOCTYPE svg PUBLIC "-//W3C//DTD SVG 1.1//EN" "http://www.w3.org/Graphics/SVG/1.1/DTD/svg11.dtd">
<svg version="1.1" id="Layer_1" xmlns="http://www.w3.org/2000/svg" xmlns:xlink="http://www.w3.org/1999/xlink" x="0px" y="0px"
	 width="300px" height="300px" viewBox="0 0 300 300" enable-background="new 0 0 300 300" xml:space="preserve">
<path d="M241.41,190.884c-61.463,0-122.173,0-183.27,0c-0.104-1.983-0.275-3.729-0.275-5.478
	c-0.016-33.383-0.021-66.766-0.003-100.15c0.008-11.895,6.03-18.194,17.906-18.214c49.265-0.08,98.525-0.079,147.787,0
	c11.938,0.019,17.859,6.243,17.858,18.147c-0.005,33.02-0.003,66.042-0.004,99.062C241.41,186.357,241.41,188.463,241.41,190.884z
	 M72.429,81.641c0,32.412,0,64.42,0,96.453c51.809,0,103.142,0,154.555,0c0-32.434,0-64.321,0-96.453
	C175.229,81.641,123.871,81.641,72.429,81.641z"/>
<path d="M279.415,204.291c0,3.727,0.78,7.701-0.27,11.111c-0.726,2.357-3.746,5.193-6.145,5.638
	c-8.12,1.502-16.418,2.79-24.651,2.817c-65.714,0.224-131.427,0.19-197.14,0.067c-7.01-0.012-14.07-0.741-21.012-1.772
	c-8.942-1.332-10.162-3.107-10.158-11.967c0.001-1.791,0-3.582,0-5.896C106.498,204.291,192.637,204.291,279.415,204.291z"/>
</svg>
