<?xml version="1.0" encoding="UTF-8" standalone="no"?>
<svg width="100px" height="100px" viewBox="0 0 100 100" version="1.1" xmlns="http://www.w3.org/2000/svg" xmlns:xlink="http://www.w3.org/1999/xlink" xmlns:sketch="http://www.bohemiancoding.com/sketch/ns">
    <title>logo 1</title>
    <description>Created with Sketch (http://www.bohemiancoding.com/sketch)</description>
    <defs></defs>
    <g id="Page-1" stroke="none" stroke-width="1" fill="none" fill-rule="evenodd" sketch:type="MSPage">
        <path d="M24.75,68.59375 L24.75,49.28125 C24.75,46.0289551 25.6385002,43.0700817 27.4155273,40.404541 C29.1925545,37.7390003 31.522772,35.7859763 34.40625,34.5454102 L34.40625,42.1396484 C32.2604059,44.0507908 31.1875,46.4313009 31.1875,49.28125 L31.1875,68.59375 C31.1875,71.2760551 32.1262927,73.5559802 34.0039062,75.4335938 C35.8815198,77.3112073 38.1614449,78.25 40.84375,78.25 C43.5260551,78.25 45.8059802,77.3112073 47.6835938,75.4335938 C49.5612073,73.5559802 50.5,71.2760551 50.5,68.59375 L50.5,49.28125 C50.5,46.4313009 49.4270941,44.0507908 47.28125,42.1396484 L47.28125,34.5454102 C50.164728,35.7859763 52.4949455,37.7390003 54.2719727,40.404541 C56.0489998,43.0700817 56.9375,46.0289551 56.9375,49.28125 L56.9375,68.59375 C56.9375,73.0530822 55.3700515,76.8501634 52.2351074,79.9851074 C49.1001634,83.1200515 45.3030822,84.6875 40.84375,84.6875 C36.3844178,84.6875 32.5873366,83.1200515 29.4523926,79.9851074 C26.3174485,76.8501634 24.75,73.0530822 24.75,68.59375 Z M37.625,49.28125 L37.625,29.96875 C37.625,25.5094178 39.1924485,21.7123366 42.3273926,18.5773926 C45.4623366,15.4424485 49.2594178,13.875 53.71875,13.875 C58.1780822,13.875 61.9751634,15.4424485 65.1101074,18.5773926 C68.2450515,21.7123366 69.8125,25.5094178 69.8125,29.96875 L69.8125,49.28125 C69.8125,52.5335449 68.9239998,55.4924183 67.1469727,58.157959 C65.3699455,60.8234997 63.039728,62.7765237 60.15625,64.0170898 L60.15625,56.4228516 C62.3020941,54.5117092 63.375,52.1311991 63.375,49.28125 L63.375,29.96875 C63.375,27.2864449 62.4362073,25.0065198 60.5585938,23.1289062 C58.6809802,21.2512927 56.4010551,20.3125 53.71875,20.3125 C51.0364449,20.3125 48.7565198,21.2512927 46.8789062,23.1289062 C45.0012927,25.0065198 44.0625,27.2864449 44.0625,29.96875 L44.0625,49.28125 C44.0625,52.1311991 45.1354059,54.5117092 47.28125,56.4228516 L47.28125,64.0170898 C44.397772,62.7765237 42.0675545,60.8234997 40.2905273,58.157959 C38.5135002,55.4924183 37.625,52.5335449 37.625,49.28125 Z" id="link" fill="#000000" sketch:type="MSShapeGroup"></path>
    </g>
</svg>