<?xml version="1.0" encoding="UTF-8" standalone="no"?>
<svg width="100px" height="100px" viewBox="0 0 100 100" version="1.1" xmlns="http://www.w3.org/2000/svg" xmlns:xlink="http://www.w3.org/1999/xlink" xmlns:sketch="http://www.bohemiancoding.com/sketch/ns">
    <title>logo 1</title>
    <description>Created with Sketch (http://www.bohemiancoding.com/sketch)</description>
    <defs></defs>
    <g id="Page-1" stroke="none" stroke-width="1" fill="none" fill-rule="evenodd" sketch:type="MSPage">
        <path d="M15.875,21.9031402 C15.875,24.0684529 16.6239497,25.8777967 18.1218715,27.3312258 C19.6197933,28.7846548 21.5700286,29.5113585 23.9726359,29.5113585 L24.0616209,29.5113585 C26.5532136,29.5113585 28.5553563,28.7846548 30.068109,27.3312258 C31.5808617,25.8777967 32.3372267,24.0684529 32.3372267,21.9031402 C32.3075649,19.6785038 31.5511999,17.8543294 30.068109,16.4305621 C28.5850181,15.0067948 26.6125368,14.2949219 24.1506059,14.2949219 C21.688675,14.2949219 19.6939476,15.0142102 18.166364,16.4528084 C16.6387804,17.8914065 15.875,19.7081656 15.875,21.9031402 Z M16.7203576,79.6099188 L31.4028841,79.6099188 L31.4028841,35.5178466 L16.7203576,35.5178466 L16.7203576,79.6099188 Z M39.50052,79.6099188 L54.1385541,79.6099188 L54.1385541,55.0055637 C54.1385541,53.4038255 54.3016916,52.2025399 54.6279716,51.4016708 C55.221208,49.9185799 56.1555412,48.6579715 57.4309994,47.6198079 C58.7064576,46.5816443 60.2785104,46.0625702 62.1472049,46.0625702 C63.8675904,46.0625702 65.2913363,46.4926602 66.4184854,47.3528529 C67.5456344,48.2130456 68.3539069,49.3624238 68.8433269,50.801022 C69.3327469,52.2396202 69.5774532,53.9822258 69.5774532,56.0288913 L69.5774532,79.6099188 L84.2154872,79.6099188 L84.2154872,54.3381761 C84.2154872,51.0160525 83.7928127,48.0795765 82.9474509,45.5286602 C82.102089,42.9777438 80.9156341,40.908863 79.3880505,39.3219558 C77.8604668,37.7350485 76.0807845,36.5337629 74.0489499,35.7180629 C72.0171154,34.9023629 69.785097,34.494519 67.352828,34.494519 C66.2850025,34.494519 65.2616851,34.5760878 64.2828451,34.7392278 C63.3040051,34.9023678 62.43641,35.1248281 61.6800336,35.4066154 C60.9236572,35.6884026 60.1969536,36.0295084 59.4999009,36.429943 C58.8028481,36.8303775 58.2096207,37.2308061 57.7202007,37.6312406 C57.2307807,38.0316751 56.7487834,38.4914264 56.2741943,39.0105082 C55.7996052,39.5295901 55.406592,39.9967567 55.0951429,40.4120221 C54.7836938,40.8272876 54.4648341,41.2870389 54.1385541,41.7912898 L54.1385541,35.5178466 L39.50052,35.5178466 C39.5301818,36.2890539 39.5524279,38.3356886 39.5672588,41.6578123 C39.5820897,44.9799359 39.589505,48.7246843 39.589505,52.8921697 C39.589505,57.0596552 39.5820897,61.1751707 39.5672588,65.2388398 C39.5524279,69.3025089 39.5301818,72.7135668 39.50052,75.4721159 L39.50052,79.6099188 Z" id="linkdin" fill="#000000" sketch:type="MSShapeGroup"></path>
    </g>
</svg>