<?xml version="1.0" encoding="UTF-8" standalone="no"?>
<svg width="29px" height="29px" viewBox="0 0 29 29" version="1.1" xmlns="http://www.w3.org/2000/svg" xmlns:xlink="http://www.w3.org/1999/xlink" xmlns:sketch="http://www.bohemiancoding.com/sketch/ns">
    <title>logo-t0theme</title>
    <description>Created with Sketch (http://www.bohemiancoding.com/sketch)</description>
    <defs></defs>
    <g id="Page-1" stroke="none" stroke-width="1" fill="none" fill-rule="evenodd" sketch:type="MSPage">
        <path d="M14.461,26.9533513 C21.3606478,26.9533513 26.9539726,21.3600264 26.9539726,14.4603786 C26.9539726,7.56097359 21.3606478,1.96764875 14.461,1.96764875 C7.5613522,1.96764875 1.96802736,7.56097359 1.96802736,14.4603786 C1.96802736,21.3600264 7.5613522,26.9533513 14.461,26.9533513" id="Fill-1" fill="#000000" sketch:type="MSShapeGroup"></path>
        <path d="M15.7297494,10.567959 L15.7297494,20.5655469 L17.4175744,20.5655469 C18.0209545,20.5655469 18.4510602,20.683971 18.7079044,20.9208228 C18.9647487,21.1576745 19.0931689,21.4672393 19.0931689,21.8495264 C19.0931689,22.2235028 18.9647487,22.5289124 18.7079044,22.7657642 C18.4510602,23.0026159 18.0209545,23.12104 17.4175744,23.12104 L11.5468787,23.12104 C10.9434986,23.12104 10.5133929,23.0026159 10.2565487,22.7657642 C9.99970446,22.5289124 9.87128427,22.2193476 9.87128427,21.8370605 C9.87128427,21.4630841 9.99970446,21.1576745 10.2565487,20.9208228 C10.5133929,20.683971 10.9434986,20.5655469 11.5468787,20.5655469 L13.2224731,20.5655469 L13.2224731,10.567959 L10.5072763,10.567959 L10.5072763,12.9863281 C10.5072763,13.6013117 10.3910866,14.0396886 10.1587038,14.3014722 C9.92632088,14.5632557 9.62259695,14.6941455 9.24752285,14.6941455 C8.88060253,14.6941455 8.58095543,14.5632557 8.34857256,14.3014722 C8.11618969,14.0396886 8,13.6013117 8,12.9863281 L8,8 L20.9889144,8.01246582 L20.9889144,12.9863281 C20.9889144,13.6013117 20.8727247,14.0396886 20.6403418,14.3014722 C20.4079589,14.5632557 20.104235,14.6941455 19.7291609,14.6941455 C19.3622406,14.6941455 19.0625935,14.5632557 18.8302106,14.3014722 C18.5978277,14.0396886 18.481638,13.6013117 18.481638,12.9863281 L18.481638,10.567959 L15.7297494,10.567959 Z" id="T" fill="#FEFEFE" sketch:type="MSShapeGroup"></path>
    </g>
</svg>