<?xml version="1.0" encoding="UTF-8" standalone="no"?>
<svg width="100px" height="100px" viewBox="0 0 100 100" version="1.1" xmlns="http://www.w3.org/2000/svg" xmlns:xlink="http://www.w3.org/1999/xlink" xmlns:sketch="http://www.bohemiancoding.com/sketch/ns">
    <title>logo</title>
    <description>Created with Sketch (http://www.bohemiancoding.com/sketch)</description>
    <defs></defs>
    <g id="Page-1" stroke="none" stroke-width="1" fill="none" fill-rule="evenodd" sketch:type="MSPage">
        <path d="M14.5,98 L2,98 L2,2 L18,2 L18,82 L58,82 L58,98 L14.5,98 Z M40,20 L60,20 L60,40 L40,40 L40,20 Z M20,80 L20,60 L39.8651772,60 L39.8651772,40 L20,40 L20,0 L0,0 L0,100 L60,100 L60,80 L20,80 Z M18,42 L18,58 L38,58 L38,42 L18,42 Z" id="logo" fill="#1A1918" sketch:type="MSShapeGroup"></path>
    </g>
</svg>