<?xml version="1.0" encoding="UTF-8" standalone="no"?>
<svg width="100px" height="100px" viewBox="0 0 100 100" version="1.1" xmlns="http://www.w3.org/2000/svg" xmlns:xlink="http://www.w3.org/1999/xlink" xmlns:sketch="http://www.bohemiancoding.com/sketch/ns">
    <title>logo 1</title>
    <description>Created with Sketch (http://www.bohemiancoding.com/sketch)</description>
    <defs></defs>
    <g id="Page-1" stroke="none" stroke-width="1" fill="none" fill-rule="evenodd" sketch:type="MSPage">
        <path d="M87,68.4900477 C87,70.1338265 86.5355408,71.6584866 85.7904341,73 L62,46.4986642 L85.5328918,26 C86.4481236,27.4468594 87,29.1455822 87,30.9815918 L87,68.4900477 L87,68.4900477 Z M49.9988494,52 L82,23.1930456 C80.6875933,22.4532182 79.2089244,22 77.6133254,22 L22.3843734,22 C20.786617,22 19.3078043,22.4532182 18,23.1930456 L49.9988494,52 L49.9988494,52 Z M58.4302658,50.0001451 L51.0160908,56.5411952 C50.5820377,56.9219611 50.0421705,57.1122715 49.5,57.1122715 C48.9578295,57.1122715 48.4179623,56.9218161 47.9839092,56.5410502 L40.5674308,50 L17,76.5720917 C18.4127243,77.4651871 20.0683167,78 21.858804,78 L77.141196,78 C78.9318272,78 80.5874197,77.4650421 82,76.5720917 L58.4302658,50.0001451 L58.4302658,50.0001451 Z M14.4672377,26 C13.5519251,27.4468594 13,29.1455822 13,30.9815918 L13,68.4900477 C13,70.1338265 13.4622925,71.6584866 14.2096727,73 L38,46.4941222 L14.4672377,26 L14.4672377,26 Z" id="email" fill="#000000" sketch:type="MSShapeGroup"></path>
    </g>
</svg>