<?xml version="1.0" encoding="utf-8"?>
<!-- Generator: Adobe Illustrator 16.0.0, SVG Export Plug-In . SVG Version: 6.00 Build 0)  -->
<!DOCTYPE svg PUBLIC "-//W3C//DTD SVG 1.1//EN" "http://www.w3.org/Graphics/SVG/1.1/DTD/svg11.dtd">
<svg version="1.1" id="Layer_1" xmlns="http://www.w3.org/2000/svg" xmlns:xlink="http://www.w3.org/1999/xlink" x="0px" y="0px"
	 width="300px" height="300px" viewBox="0 0 300 300" enable-background="new 0 0 300 300" xml:space="preserve">
<path stroke="#000000" stroke-miterlimit="10" d="M196.607,24.396c-30.975-0.003-61.955,0.309-92.925-0.152
	c-12.52-0.187-22.504,8.764-22.371,22.42c0.334,34.426,0.11,68.857,0.11,103.286c0.001,34.733-0.013,69.467,0.007,104.202
	c0.008,12.957,8.429,21.353,21.337,21.354c31.28,0.004,62.562,0.004,93.841,0c12.908-0.001,21.335-8.396,21.338-21.354
	c0.016-69.467,0.016-138.935,0-208.402C217.941,32.793,209.515,24.398,196.607,24.396z M202.351,233.686
	c-35.124,0-70.089,0-105.219,0c0-55.812,0-111.5,0-167.416c34.988,0,69.948,0,105.219,0
	C202.351,122.141,202.351,177.828,202.351,233.686z"/>
</svg>
