<?xml version="1.0" encoding="utf-8"?>
<!-- Generator: Adobe Illustrator 16.0.0, SVG Export Plug-In . SVG Version: 6.00 Build 0)  -->
<!DOCTYPE svg PUBLIC "-//W3C//DTD SVG 1.1//EN" "http://www.w3.org/Graphics/SVG/1.1/DTD/svg11.dtd">
<svg version="1.1" id="Layer_1" xmlns="http://www.w3.org/2000/svg" xmlns:xlink="http://www.w3.org/1999/xlink" x="0px" y="0px"
	 width="300px" height="300px" viewBox="0 0 300 300" enable-background="new 0 0 300 300" xml:space="preserve">
<path stroke="#000000" stroke-miterlimit="10" d="M275.112,196.85c0.002-30.975-0.31-61.955,0.151-92.925
	c0.187-12.52-8.764-22.504-22.42-22.371c-34.426,0.334-68.856,0.11-103.286,0.11c-34.733,0.001-69.467-0.013-104.202,0.007
	c-12.957,0.008-21.353,8.429-21.354,21.337c-0.004,31.28-0.004,62.562,0,93.841c0.001,12.908,8.396,21.335,21.354,21.338
	c69.467,0.016,138.935,0.016,208.402,0C266.714,218.184,275.11,209.758,275.112,196.85z M65.822,202.594
	c0-35.124,0-70.089,0-105.219c55.812,0,111.501,0,167.415,0c0,34.988,0,69.948,0,105.219
	C177.365,202.594,121.679,202.594,65.822,202.594z"/>
</svg>
