<?xml version="1.0" encoding="UTF-8" standalone="no"?>
<svg width="100px" height="100px" viewBox="0 0 100 100" version="1.1" xmlns="http://www.w3.org/2000/svg" xmlns:xlink="http://www.w3.org/1999/xlink" xmlns:sketch="http://www.bohemiancoding.com/sketch/ns">
    <title>logo 1</title>
    <description>Created with Sketch (http://www.bohemiancoding.com/sketch)</description>
    <defs></defs>
    <g id="Page-1" stroke="none" stroke-width="1" fill="none" fill-rule="evenodd" sketch:type="MSPage">
        <path d="M98.5078283,75.7323899 C98.4871777,75.4742608 98.38599,75.2629391 98.2008232,75.0819046 C97.6060871,74.5016303 97.0099742,73.9227328 96.42694,73.331445 C96.2183693,73.119435 95.975381,72.9879612 95.7007285,72.9012299 C95.5279522,72.8468507 95.351734,72.8007316 95.1768926,72.7525475 C93.2020105,72.2108205 91.2560392,71.5603352 89.2412327,71.1686673 C89.107004,71.1425102 88.9775938,71.0612856 88.860574,70.9835027 C88.1144003,70.4885831 87.3709801,69.9888452 86.6296249,69.4856655 C86.5243071,69.4140777 86.4093523,69.3349181 86.3425821,69.2309781 C86.0768782,68.8165948 85.8063558,68.4028999 85.5785113,67.9678663 C85.0973532,67.0482384 84.7104994,66.0728545 84.1618827,65.1979689 C83.1259129,63.5445659 82.1828705,61.8484856 81.4091628,60.0581021 C81.3265606,59.8674307 81.2329447,59.6822661 81.1482774,59.4922831 C81.0367643,59.2437908 80.9059775,59.0014936 80.8226869,58.7440528 C80.4468466,57.5841927 80.0833967,56.4202025 79.7185701,55.2569006 C79.481777,54.5024753 79.286285,53.7335947 79.0102558,52.994313 C78.3735302,51.2906608 77.5185969,49.6833769 76.7517727,48.0375457 C76.6863793,47.8971235 76.6010236,47.7546362 76.5824381,47.6052655 C76.5101611,47.0263679 76.4131035,46.4440287 76.4144802,45.8637544 C76.4165452,44.7479483 76.4674833,43.6314539 76.5211748,42.5163362 C76.5989585,40.8897786 76.4963941,39.2728579 76.2926419,37.6607555 C76.1907658,36.8574577 75.9271269,36.0989023 75.6400841,35.3451653 C75.5505983,35.1090632 75.5113623,34.8440507 75.4989719,34.5900516 C75.4700611,33.9815553 75.4769447,33.3709939 75.4597359,32.7611209 C75.4232532,31.453955 75.2098641,30.1805181 74.7101205,28.9649021 C74.6467921,28.810713 74.5696966,28.6592772 74.4795225,28.518855 C74.2351575,28.1361356 73.9921692,27.7485977 73.5371685,27.6157473 C73.5027509,27.3486697 73.6500583,27.2075591 73.7946122,27.0843455 C74.1456718,26.7842274 74.2661334,26.7876691 74.6757029,27.0492399 C74.779644,27.1160093 74.87739,27.2302745 75.0412178,27.1187627 C75.1024811,26.7463684 75.1664979,26.3588306 75.231203,25.9712928 C75.2546069,25.9650977 75.2780109,25.9582142 75.3014149,25.9520191 C75.3688734,26.0738561 75.4363319,26.195693 75.5044787,26.3168416 C75.6930872,26.1378721 75.7715594,26.0236069 75.8390179,25.9024583 C76.0861362,25.461918 76.3470217,25.0344562 76.6519617,24.6269564 C77.3616526,23.6777296 77.7567667,22.6004708 77.7216608,21.4020634 C77.7106471,21.0344875 77.8235369,20.7970087 78.1298535,20.6015189 C78.502252,20.3640402 78.7390451,20.0129846 78.8636369,19.5827694 C79.0019956,19.1064351 79.0969882,18.6273475 79.0804678,18.1269212 C79.0646357,17.6595354 79.0639473,17.1921497 79.2043711,16.7371541 C79.3743941,16.1857903 79.5437287,15.6337382 79.7103099,15.0816861 C79.7653781,14.969486 79.8011724,14.8517791 79.8149394,14.7326955 C79.8638124,14.5702463 79.9119971,14.4071087 79.9601817,14.2446594 C80.0255752,14.0223242 80.070318,13.7903522 80.0923453,13.5597568 C80.1370882,13.0992545 79.7013613,12.4425741 79.2676995,12.3062819 C78.6516244,12.1128571 78.0465629,12.1252473 77.4580219,12.4226121 C77.1833694,12.5616576 76.9004567,12.6848712 76.5962051,12.8266702 C76.4392609,12.5582159 76.2974603,12.3159187 76.1535948,12.0694915 C76.2836933,11.9517846 76.3931413,11.8519747 76.5466438,11.7129291 C76.396583,11.6069241 76.2871351,11.5263878 76.173557,11.4506699 C75.7536622,11.1698255 75.3041683,10.9247749 74.9193795,10.6026298 C74.3728279,10.1448808 73.8696426,9.63550604 73.3561319,9.13989815 C72.9341721,8.73239833 72.402076,8.52933676 71.8747983,8.313885 C71.8569011,8.30631321 71.827302,8.32696354 71.8025213,8.33453533 C71.7660386,8.40749982 71.729556,8.47977597 71.6841248,8.56857238 C71.1644189,8.23816712 70.6261276,8.20856832 70.0534187,8.28153282 C69.4483572,8.35862738 68.8377889,8.35656234 68.2361692,8.20443825 C67.9374244,8.12872038 67.6317961,8.08053628 67.3247911,8.0185853 C67.2896851,8.08741973 67.2587093,8.13009707 67.2463189,8.17759283 C67.2311752,8.23541375 67.2304868,8.29736473 67.2201616,8.38891452 C66.7837464,8.18378793 66.3721118,8.00344172 65.8868236,8 C65.8840702,8.43090353 65.5997808,8.53071345 65.275567,8.58991106 C65.0972838,8.62226324 64.9196889,8.66149886 64.7427825,8.70348787 C64.616814,8.73308667 64.4839621,8.75304865 64.370384,8.80949289 C63.6462376,9.16949695 62.9799128,9.61692074 62.3789815,10.159336 C62.2598965,10.2667178 62.1538903,10.3899314 62.0396239,10.5083266 C61.9177856,10.3596442 61.8234813,10.2440024 61.6892527,10.0794881 C61.4022099,10.4862996 61.1433895,10.8518104 60.880439,11.2242047 C60.7799396,11.1347199 60.6973373,11.0617554 60.5961496,10.9715823 C59.7474115,11.5711302 59.4989164,12.5210453 59.1058674,13.4413616 C58.7616913,13.2025062 58.4319707,13.0008213 58.1346026,12.7592124 C57.8516899,12.5286171 57.5260993,12.4136636 57.1881185,12.3262439 C56.7826791,12.2216155 56.4846227,12.4666661 56.4791158,12.8672825 C56.4777391,12.9856777 56.4901295,13.110268 56.5176636,13.2307283 C56.5231704,13.2727173 56.534184,13.3140179 56.5513928,13.3532536 C56.5686016,13.4055677 56.5892522,13.4558169 56.6140329,13.5033126 C56.8790484,14.0216359 57.1970671,14.5124253 57.4655244,15.0286836 C57.4875516,15.0713609 57.5095789,15.1140383 57.5316062,15.1574039 C57.5329829,15.161534 57.5343596,15.1649757 57.5357363,15.1691058 C57.7759711,15.8574501 57.8750938,16.4631931 57.8806007,17.1653042 C57.881289,17.2960897 57.9274086,17.4179266 58.0017506,17.5163598 C58.0072574,17.6292483 58.0113876,17.7414484 58.014141,17.8543369 C58.0292847,18.5240959 58.0719625,19.1745812 58.418892,19.769999 C58.5083778,19.9234998 58.4656999,20.03983 58.2963653,20.1107295 C58.1167054,20.185759 57.9411756,20.2690487 57.7628925,20.3468316 C56.6333067,20.8383094 55.5071627,21.337359 54.3727585,21.8178233 C53.6554957,22.1213831 52.9458047,22.4283847 52.3758491,22.9831902 C52.2553875,23.1008971 52.1197822,23.202772 51.9889953,23.3094654 C51.5925045,23.6336755 51.1430106,23.8346721 50.6529039,23.9978097 C48.8549283,24.5966692 47.0073913,25.0165592 45.1922069,25.5493377 C43.675079,25.9946965 42.1414306,26.3842993 40.7199835,27.1077492 C40.1892641,27.3782685 39.6323873,27.5985387 39.0885891,27.8435892 C38.9708809,27.8965917 38.8490426,27.9468409 38.7416597,28.0177403 C37.702248,28.7040196 36.6291072,29.3393614 35.668856,30.1419708 C35.2317525,30.5074816 34.7953372,30.8895127 34.307984,31.1786173 C32.5871038,32.2001203 30.9385006,33.3290049 29.3036644,34.4785399 C28.772945,34.8516225 28.2601227,35.2501738 27.7321566,35.6266981 C27.5772774,35.7368332 27.4093195,35.8510984 27.2296596,35.9006592 C26.0209134,36.2379479 24.8968345,36.7583362 23.826447,37.4081332 C22.9061203,37.9670687 21.9734032,38.5067307 21.0413745,39.0457042 C20.8768584,39.1406957 20.6910033,39.217102 20.5058366,39.2570259 C18.2859012,39.7319835 16.0728493,40.2351632 13.9238141,40.9744449 C12.8224508,41.3537226 11.7148923,41.7460789 10.6720389,42.258207 C9.39308076,42.8866654 8.19397145,43.6617411 7.09329649,44.5896292 C6.39599584,45.1774752 5.74206137,45.7894133 5.14732518,46.4839526 C4.4575964,47.2893155 3.91448662,48.1683311 3.41680807,49.1010376 C2.66306255,50.5142085 2.20393172,52.0306309 1.81432445,53.5566902 C1.46326489,54.9313138 1.15350646,56.3334711 1.10807523,57.7700457 C1.08880137,58.3792303 0.999315598,58.9877267 1.00000395,59.5962231 C1.0006923,60.243955 1.06952751,60.891687 1.11082863,61.5387306 C1.13010249,61.8367837 1.12597238,62.1389669 1.18104054,62.4308248 C1.40475497,63.6299206 1.65049666,64.8235096 2.14955191,65.9475758 C2.32301663,66.337867 2.44072484,66.7543153 2.62864495,67.1370348 C3.23645983,68.3760545 3.95716445,69.5441748 4.87060765,70.5856397 C5.00758971,70.7418938 5.12185615,70.9174216 5.25814986,71.0729874 C5.51490519,71.3648454 5.76615369,71.6635868 6.04493628,71.9327294 C6.81038378,72.6699462 7.58890998,73.393396 8.37363134,74.1333661 C8.35435748,74.1608999 8.33370692,74.2111491 8.29653591,74.2428129 C7.85530223,74.624844 7.4292123,75.0275254 6.9638863,75.3778926 C6.18604846,75.9629853 5.38480664,76.5164141 4.59044835,77.0794797 C4.01980449,77.4842262 3.57857081,77.9736389 3.51042395,78.707414 C3.46430437,79.209217 3.48633163,79.713085 3.85597669,80.0971811 C4.32543281,80.5852172 4.86785424,80.9913403 5.47498077,81.2976535 C7.21238139,82.1725391 8.95941895,83.0295278 10.6920011,83.9154269 C11.3287268,84.2410137 11.8993706,84.657462 12.3357859,85.2521915 C12.9195084,86.0472291 13.5293884,86.8243698 14.1557887,87.586367 C14.373308,87.8513795 14.6651693,88.0585712 14.9377567,88.2747113 C15.2241112,88.5018649 15.5614037,88.4089384 15.8766689,88.364196 C16.0707842,88.3366623 16.2043245,88.0936767 16.1726603,87.8837317 C16.1499447,87.7309193 16.1045135,87.5801719 16.0604589,87.4314895 C15.9358672,87.0081578 15.8112755,86.5855144 15.6777352,86.164936 C15.622667,85.9921616 15.6859954,85.9274572 15.8725388,85.9095603 C15.9303604,86.0245138 15.9909354,86.1367139 16.0446268,86.2516674 C16.3826077,86.9813123 16.7171468,87.7130223 17.0592578,88.4412906 C17.1129492,88.5548674 17.1783427,88.6870295 17.2774654,88.7510455 C17.5851588,88.9506654 17.9024891,89.0848925 18.2976032,88.9375868 C18.7415902,88.7723842 18.8785723,88.6381571 18.9074831,88.1652645 C18.9102365,88.1212105 18.9260686,88.0785331 18.9315754,88.0537528 C19.1649268,88.134289 19.3638605,88.2313456 19.5738079,88.2698929 C20.1802461,88.3807163 20.6848081,88.0007502 20.4817443,87.3757336 C20.3984537,87.1189812 20.373673,86.8422668 20.3330602,86.5731242 C20.2112219,85.7663847 19.9895725,84.9761654 19.9847541,84.1494639 C19.9799356,83.3186324 19.943453,82.4884892 19.9090354,81.6583459 C19.8856314,81.0883969 19.6839442,80.6230761 19.1002217,80.4083127 C18.9301987,80.3456734 18.7670593,80.2637604 18.596348,80.2059395 C18.0800839,80.0317884 17.5693267,79.8349219 17.0427373,79.7020715 C15.9558294,79.4281104 14.9783695,78.9490228 14.105539,78.249665 C13.9995328,78.1649987 13.8873314,78.0892808 13.7744417,78.0073678 C14.1929597,77.5709575 14.1929597,77.5716459 14.6878849,77.7705774 C14.7601619,77.7994878 14.8324388,77.8325284 14.9074692,77.849737 C16.0184694,78.1071777 17.1253396,78.3859572 18.2432233,78.6110458 C19.1972793,78.8030938 20.164414,78.9338792 21.1432506,78.877435 C21.8026919,78.8395761 22.4635099,78.7975871 23.1195094,78.7225575 C24.1107364,78.6089807 25.0964566,78.4733769 26.055331,78.1615569 C26.8001279,77.9192598 27.4974286,77.5805944 28.2084963,77.2673977 C29.5136118,76.6919419 30.683122,75.9037877 31.7714066,74.9910431 C32.4776558,74.3983787 33.1343437,73.7561535 33.7504188,73.0657442 C34.9433329,71.7269145 36.0811789,70.3433425 37.1811655,68.9294833 C37.7105083,68.2487108 38.3114396,67.6443445 38.9447235,67.0661353 C39.1526059,66.8761523 39.3942174,66.7453669 39.659233,66.6386735 C39.6138017,66.7997461 39.5463432,66.9360382 39.4740663,67.069577 C39.0397161,67.8673681 38.5461677,68.639002 38.1840945,69.4684569 C37.7070665,70.5601709 37.3133291,71.6904323 36.9216568,72.8172519 C36.585741,73.7829989 36.5692205,74.7762797 36.8287293,75.7668072 C36.8617702,75.8927742 36.9567628,76.0139228 37.051067,76.1089143 C37.236922,76.2961439 37.4764686,76.3856287 37.7304705,76.4620349 C38.1875363,76.5983271 38.6329,76.5226092 39.0761988,76.4310594 C40.1555348,76.2073475 41.2286757,75.9567902 42.3093885,75.7399617 C42.7788446,75.6456586 43.2620677,75.5424069 43.7342772,75.5623689 C44.470814,75.5933444 45.2066623,75.7007261 45.9356272,75.8198097 C47.0383672,76.0001559 48.1431723,76.1440198 49.261056,76.1811904 C50.068493,76.2080358 50.7933277,75.9388932 51.4741079,75.546537 C51.8685337,75.3193834 51.9084581,74.7625128 51.5532684,74.5553212 C51.3013316,74.4080155 51.0115353,74.3040755 50.7251809,74.2421245 C50.2316324,74.1347428 49.7215636,74.1044557 49.2307685,73.9874372 C48.7668192,73.8773021 48.3138836,73.7100344 47.8657664,73.5427667 C47.642052,73.4594771 47.6317267,73.1868927 47.8341022,73.0588607 C47.9421735,72.9907146 48.0660768,72.929452 48.1899802,72.9088017 C48.586471,72.8427206 48.9843385,72.7738862 49.3849594,72.7477291 C50.3947719,72.6823364 51.4066494,72.6437891 52.4164619,72.5852798 C52.8287848,72.5618761 53.1633239,72.6864664 53.472394,72.9700643 C54.2653756,73.6983326 55.0769427,74.4059505 55.8857564,75.1170101 C56.2519597,75.4384669 56.6732311,75.5699407 57.1722864,75.5547971 C57.7098894,75.5382768 58.0994966,75.0812162 57.8282859,74.5491261 C57.7085126,74.3137124 57.6383007,74.0528299 57.5433081,73.7953891 C58.1993077,73.6721755 58.52834,72.80555 58.1187705,72.2693298 C57.243875,71.1211715 56.32699,70.0122489 55.2641744,69.0320466 C54.9736899,68.7642807 54.6233187,68.5846228 54.2275162,68.5495173 C53.7064337,68.5033982 53.1832861,68.5612191 52.6862959,68.7105898 C51.2676023,69.1359866 49.8165561,69.4168311 48.3744586,69.7375995 C48.2367881,69.7678867 48.0922342,69.788537 47.9518104,69.7844069 C47.6007508,69.7727051 47.4844193,69.6040607 47.6007508,69.2722788 C47.7342911,68.8930011 47.8857286,68.5199185 48.0289058,68.1447708 C48.514194,66.8733989 49.1812072,65.7045903 50.056791,64.6638137 C50.7692354,63.8178386 51.4183514,62.9278094 52.0110226,61.9957913 C52.4522562,61.3026286 52.9478697,60.6514549 53.5515545,60.0952727 C53.9280831,59.7483471 54.1669412,59.3325872 54.3390293,58.8672665 C54.3989159,58.7055055 54.4250733,58.5313544 54.4739463,58.334488 C54.549665,58.3902439 54.6033565,58.4232844 54.6487877,58.4652734 C55.247654,59.0221439 55.8568456,59.5673126 56.3676028,60.2122912 C56.706272,60.6390647 57.0614617,61.0541363 57.4235349,61.4616361 C58.1545648,62.2835192 58.7272737,63.2003938 59.1822744,64.2012464 C59.4445366,64.7787672 59.7715038,65.3266893 60.0619884,65.8918199 C60.331134,66.41565 60.7193646,66.8210847 61.2370054,67.0984875 C61.4173536,67.1948557 61.5488289,67.3283945 61.6286777,67.5135591 C61.8351833,67.989205 62.0382472,68.4662276 62.2454411,68.9411852 C62.299821,69.0657755 62.3617726,69.1869241 62.4299195,69.3300997 C62.534549,69.24681 62.5978774,69.1965609 62.669466,69.1401167 C62.8229685,69.4498716 62.960639,69.7431063 63.1106997,70.0301458 C63.4610709,70.6971514 64.0021156,71.1831225 64.6705055,71.4949425 C65.2322008,71.7565133 65.8262486,71.9568215 66.4196081,72.137856 C67.5354268,72.4785865 68.6595057,72.7945365 69.7849614,73.1022264 C70.0589255,73.1772559 70.2323902,73.2956511 70.3322013,73.5737422 C70.6694938,74.5181506 71.1534053,75.3930362 71.6545256,76.258285 C71.8754866,76.6403161 72.1721664,76.9369924 72.623037,77.0402441 C73.1048834,77.1510675 73.4531896,76.9018869 73.4552546,76.4145391 C73.455943,76.1846321 73.4242788,75.946465 73.3623271,75.7248181 C73.1365476,74.9125719 72.8908059,74.1058324 72.6547012,73.2963395 C72.6195952,73.1772559 72.5948145,73.055419 72.5652154,72.9349587 C72.5955029,72.9211919 72.6257904,72.9081133 72.6567662,72.8943464 C72.7290432,73.0182484 72.8171523,73.1359553 72.8708437,73.267429 C73.2983104,74.3116473 73.7126983,75.3620607 74.1477368,76.4035256 C74.2406643,76.6251725 74.3776464,76.8433776 74.5407858,77.0189054 C74.9744477,77.4835378 75.8004701,77.4332887 76.1825055,76.9184072 C76.3119157,76.7435677 76.4358191,76.660278 76.6547151,76.6540829 C76.9396928,76.6458228 77.1517053,76.4957638 77.2033317,76.1970223 C77.2473862,75.9437116 77.2907524,75.6862709 77.287999,75.4308951 C77.2859339,75.2278336 77.2990126,75.0674494 77.4435665,74.8994933 C77.5722884,74.7501226 77.6838014,74.542931 77.7030753,74.3515713 C77.7381812,73.9929439 77.7395579,73.6205497 77.6872432,73.2639873 C77.5330523,72.2121972 77.3492623,71.1645372 77.1682257,70.1168772 C77.1448217,69.9798967 77.0821817,69.8470462 77.0216067,69.7197026 C76.8137244,69.2853573 76.4516512,69.0348 76.0159243,68.8551421 C73.7973656,67.9389559 71.6187313,66.9339732 69.4607476,65.8828715 C69.2982965,65.8037119 69.1385988,65.7142271 68.9899147,65.6116638 C68.3917368,65.1986572 67.797689,64.7801439 67.2050178,64.3588772 C67.090063,64.2769642 66.9751082,64.1861028 66.8863108,64.0780327 C66.3232388,63.3938185 65.8613546,62.6435232 65.4483433,61.8608758 C64.7806418,60.595699 64.2630011,59.2685712 63.7749595,57.9256115 C62.8573861,55.4021413 61.9886858,52.8600858 60.9004012,50.4020084 C60.8164222,50.2127137 60.7283132,50.0241073 60.6291905,49.8423844 C60.0282591,48.7362152 59.4225093,47.6327993 58.8208896,46.5273183 C58.7733933,46.4398986 58.7417291,46.3442188 58.6866609,46.2161867 C59.2586815,45.9250171 59.7969728,45.6118204 60.36624,45.3695232 C61.9556449,44.6928808 63.5099439,43.949469 64.996096,43.0676999 C65.0786983,43.0188275 65.177821,42.9961121 65.2817621,42.9568765 C65.3333885,43.0828435 65.3760664,43.1764583 65.4097956,43.2728265 C65.8854469,44.645385 66.3466428,46.0234503 66.6866887,47.4373095 C66.7472637,47.6885552 66.8209174,47.9404892 66.8429446,48.1965532 C66.91591,49.0239431 66.97855,49.8520213 67.0232929,50.6807878 C67.0563338,51.2906608 67.0329298,51.8991572 66.7995785,52.4794314 C66.7465753,52.6115935 66.7018325,52.7478857 66.6653498,52.8855546 C66.6488293,52.9481939 66.6625964,53.0190934 66.6625964,53.12441 C67.0845562,52.9674675 67.311024,52.5971383 67.7467509,52.4278056 L67.7467509,53.8175727 C68.0007528,53.7652586 68.1948681,53.7260229 68.4151408,53.6805922 C68.5672666,54.3214408 68.7118205,54.9381972 68.8598162,55.5549537 C69.0126304,56.1944256 69.3065567,56.7698814 69.6706949,57.3116084 C69.7002941,57.3556624 69.7691293,57.372871 69.8393412,57.4141717 C69.9880252,57.1133652 69.7884031,56.7402826 70.100915,56.4745817 C70.2688729,56.7678164 70.4148035,57.041089 70.577943,57.3033482 C71.3179214,58.4921188 72.0117803,59.7153066 73.0608289,60.6769236 C73.1647701,60.7726034 73.2459956,60.893752 73.3341047,61.0059522 C74.0128198,61.8760193 74.6750145,62.7598534 75.3709384,63.6161537 C76.5108495,65.018311 77.5413125,66.4954979 78.5187725,68.0132971 C79.4748935,69.4973673 80.4544185,70.9662941 81.4236182,72.4414159 C81.931622,72.8943464 81.9268036,73.4945826 81.8676053,74.0927538 C81.7994584,74.7804098 81.8214857,75.4632473 81.8497081,76.1515916 C81.8676053,76.5873135 81.9908203,76.9294207 82.3150341,77.2068234 C82.4327423,77.3073217 82.5476971,77.4160801 82.678484,77.4966164 C83.914076,78.2613669 85.1579282,79.0123505 86.3887017,79.7853611 C86.8705482,80.0882326 87.3579014,80.3986759 87.7805496,80.7752002 C88.1887424,81.1393343 88.6602635,81.2301958 89.1586304,81.3306941 C89.7568084,81.4511543 90.2014838,80.6912222 90.0872174,80.2692672 C89.9942899,79.9264717 89.8290854,79.5802345 89.6115661,79.3000784 C89.3444855,78.9559063 89.0113231,78.6523464 88.6678354,78.3804504 C88.3036972,78.0920342 87.8989461,77.8531787 87.5031437,77.6074398 C87.2546486,77.4532507 87.0460779,77.2735928 86.9001473,76.9617728 C87.0157904,76.8984452 87.1162898,76.8013886 87.2250495,76.7917518 C87.4425687,76.7717898 87.6724783,76.764218 87.883114,76.8130905 C89.1717091,77.1090785 90.4575508,77.4181451 91.7413274,77.7334068 C91.9010251,77.7726424 92.055216,77.8559321 92.1970165,77.9426635 C92.8502626,78.3419031 93.4911184,78.7624815 94.151248,79.1500193 C94.5635709,79.3916282 95.0006745,79.5905597 95.4295178,79.8025697 C95.707612,79.9395502 96.0070452,79.945057 96.30579,79.903068 C96.8867591,79.8218434 97.0946415,79.3916282 96.8007151,78.8912019 C96.7318799,78.7748717 96.6582263,78.6612949 96.5625453,78.5091708 C96.8716154,78.6069157 97.1194221,78.7266876 97.3782425,78.7597281 C98.0294236,78.8430178 98.5422459,78.521561 98.4644621,77.8614388 C98.4555135,77.7843443 98.4864894,77.6611306 98.5422459,77.6246484 C98.7680254,77.4745893 98.8898637,77.2556959 99,77.0237238 L99,76.7119039 C98.8781617,76.4751134 98.8086381,76.2114776 98.595249,76.0214945 C98.5264138,75.964362 98.5154001,75.8321999 98.5078283,75.7323899 L98.5078283,75.7323899 Z M14.9173961,65.8437297 C14.0514241,66.731754 13.1496514,67.584994 12.441743,68.6210224 C11.9648505,69.3194378 11.4399985,69.984433 10.9360865,70.6637512 C10.8617832,70.764012 10.780725,70.8594985 10.6685944,71 C10.1667089,70.5471212 9.65198924,70.1447139 9.21224839,69.6706917 C8.56783554,68.9770506 7.9774615,68.232938 7.36412097,67.5092868 C7.31481055,67.4506308 7.26212271,67.393339 7.22024263,67.3292266 C6.44613662,66.1254148 5.84090191,64.8383934 5.42818047,63.4667982 C5.28160019,62.978453 5.24174657,62.4573696 5.16001286,61.9499271 C4.9215666,60.4651122 4.98776414,58.9789332 5.1127289,57.4879799 C5.24647496,55.8926736 5.60245565,54.3410181 5.98072734,52.794137 C6.08948045,52.3487608 6.3103641,51.9327125 6.46302375,51.4968849 C6.83589157,50.4328926 7.46544374,49.5059916 8.00718285,48.5327115 C8.04973842,48.4556403 8.11390951,48.3881177 8.17605414,48.3253694 C8.70766097,47.7885989 9.2392678,47.2518285 9.77695399,46.7211964 C9.87557483,46.6243458 9.99446022,46.5431823 10.1153721,46.4749777 C10.8813722,46.0405142 11.6480479,45.6080968 12.4187765,45.1831819 C12.5842704,45.0917877 12.7639494,45.0181267 12.9456549,44.9649271 C13.6170872,44.7657696 14.285142,44.5502429 14.967382,44.3954184 C15.6117949,44.2494605 16.2757968,44.1962609 16.9222361,44.0584875 C17.6835079,43.8961605 18.4083035,44.1178255 19.2019986,44.168979 C19.0513654,44.5727504 18.9730091,44.9478759 18.6872789,45.2322893 C18.5332682,45.3857497 18.3860125,45.5467126 18.2421341,45.7104037 C18.1968766,45.7615572 18.1739101,45.83249 18.1171694,45.9382072 C18.5042224,45.9191099 18.7224041,45.6128711 19.0891925,45.5392101 C18.7528009,46.2649074 18.4900372,46.9680972 18.3231924,47.7913271 C18.7419932,47.5798928 18.8656069,47.1883982 19.2161837,46.9592306 C19.0750073,47.5607955 18.8541237,48.1057505 18.9716581,48.701859 C19.1128345,48.7209563 19.2344218,48.7373254 19.3951873,48.7591509 C19.3722208,49.1990708 19.3499298,49.62876 19.3242614,50.1191513 C19.546496,50.0864131 19.7221221,50.0604953 19.9207148,50.0311673 C19.7667042,50.9314685 19.6167465,51.807898 19.4667887,52.6850096 C19.4924572,52.7041069 19.5174501,52.7232042 19.5431186,52.7423015 C19.6566001,52.6856917 19.7694061,52.6283998 19.9139599,52.5561029 C20.0010975,52.9530538 19.9213903,53.3465946 19.9585419,53.7319507 C19.9943427,54.1118506 20.0558118,54.4890222 20.1057977,54.86824 C20.4016602,54.9159832 20.4158454,54.5974676 20.6306497,54.5367654 C20.8792282,55.2181297 20.6076832,55.9015402 20.6441594,56.6272375 C20.842752,56.5876788 21.0062194,56.5549406 21.2216992,56.5119716 C21.0589073,56.8639075 20.9177309,57.1701464 20.753588,57.5248104 C21.115648,57.5595948 21.2791155,57.2458535 21.5925406,57.209705 C21.6317187,57.356345 21.6796782,57.5104875 21.7127769,57.6673581 C21.8647611,58.3835068 22.0167453,59.0976093 21.9985072,59.8389937 C21.9856729,60.3539387 21.7850538,60.7924945 21.481761,61.1730763 C21.048775,61.7159852 20.5293269,62.1613615 19.9240922,62.5173897 C19.0554183,63.0289244 18.2211941,63.5991152 17.3585995,64.1222447 C16.5932748,64.5867183 15.8576715,65.0921146 15.1538159,65.6459362 C15.0727577,65.7107306 14.9883221,65.7707507 14.9173961,65.8437297 L14.9173961,65.8437297 Z M42.8518635,60.5352476 C42.4093511,61.3412179 41.9668386,62.147877 41.5318264,62.9579804 C41.4390965,63.131574 41.3211386,63.2238817 41.126815,63.272791 C40.5792996,63.4112526 40.0379207,63.5752021 39.4944963,63.7322629 C39.4085848,63.757062 39.3233552,63.7880609 39.2422165,63.8259484 C38.1471857,64.3363962 37.1864769,65.0493699 36.2823605,65.845696 C36.1862215,65.9304262 36.1057647,66.0337558 36.0239442,66.1343298 C34.9295952,67.4789913 33.8386554,68.8257193 32.7402155,70.1669365 C32.5445281,70.4059721 32.3249765,70.6264084 32.1074704,70.8461559 C31.9349655,71.0204383 31.7433692,71.1754326 31.5701825,71.3490262 C30.4983342,72.4236532 29.3064825,73.3536189 28.059402,74.2022986 C27.4798402,74.5963285 26.8245945,74.8952953 26.1734398,75.1598188 C25.1445473,75.577959 24.059744,75.8080394 22.9565312,75.9127466 C21.8560457,76.016765 20.7528328,76.0229648 19.645529,75.9568339 C18.7966414,75.9065468 18.0125285,75.633068 17.2120514,75.4009211 C17.1431858,75.380944 17.0777295,75.3471897 17,75.315502 C17.0300008,75.2597041 17.0402284,75.2176834 17.0661382,75.1963286 C17.700247,74.6693481 18.2989002,74.1031023 19.0032382,73.6587854 C21.5792197,72.0337565 24.2513403,70.5912764 26.9970994,69.2851913 C27.4968862,69.0475334 28.0021276,68.822275 28.5114601,68.6066608 C29.1060223,68.3552256 29.5996726,67.96464 30.0005929,67.4686583 C30.3626486,67.021586 30.5576541,66.4773838 30.7165222,65.9269819 C31.1051695,64.5816316 31.5129082,63.2404144 31.8558724,61.8833534 C32.0522416,61.1063154 32.1476988,60.3024118 32.2690658,59.5067745 C32.5356642,57.7591279 32.6386217,55.9956374 32.7408973,54.2328358 C32.7443065,54.1722159 32.7586251,54.1129736 32.775671,54 C32.8718101,54.0874857 32.9386301,54.1391504 32.993859,54.2004593 C33.6211493,54.8975891 33.9886597,55.7035593 34.0063874,56.6583241 C34.0077511,56.7485652 34.0486614,56.8374286 34.0950263,57.022044 C34.2804861,56.7712977 34.406626,56.6011484 34.5586757,56.3944894 C34.6629968,56.5212403 34.746181,56.6293918 34.8368653,56.7306547 C35.0441439,56.9607351 35.2473314,57.1949487 35.4662012,57.4140073 C35.6816618,57.6289327 35.6973441,57.6206663 35.9353053,57.4050521 C35.9918978,57.3533873 36.049854,57.3037891 36.1200833,57.2411026 C36.2250862,57.2969005 36.3300892,57.3444321 36.4255464,57.4050521 C37.0371545,57.7942599 37.7053551,58.0636055 38.3619645,58.3605057 C38.8406143,58.5768088 39.328128,58.6091854 39.8320058,58.5616538 C40.1511057,58.5313438 40.4681601,58.4769236 40.7865781,58.4349029 C40.8322612,58.4287032 40.879308,58.4342141 40.963174,58.4342141 C40.8227155,58.6429397 40.5581626,58.6649833 40.4313409,58.9405287 C40.6774842,58.9405287 40.8656713,58.9667055 41.0443127,58.9357067 C41.516826,58.8537319 41.9661568,58.9735942 42.4148058,59.0769237 C42.7107232,59.1451212 42.900274,59.3648686 42.9657303,59.6665908 C43.0339141,59.9676241 43.0025496,60.2597022 42.8518635,60.5352476 L42.8518635,60.5352476 Z" id="mono" fill="#000000" sketch:type="MSShapeGroup"></path>
    </g>
</svg>