<?xml version="1.0" encoding="utf-8"?>
<!-- Generator: Adobe Illustrator 16.0.0, SVG Export Plug-In . SVG Version: 6.00 Build 0)  -->
<!DOCTYPE svg PUBLIC "-//W3C//DTD SVG 1.1//EN" "http://www.w3.org/Graphics/SVG/1.1/DTD/svg11.dtd">
<svg version="1.1" id="Layer_1" xmlns="http://www.w3.org/2000/svg" xmlns:xlink="http://www.w3.org/1999/xlink" x="0px" y="0px"
	 width="300px" height="300px" viewBox="0 0 300 300" enable-background="new 0 0 300 300" xml:space="preserve">
<g>
	<path fill-rule="evenodd" clip-rule="evenodd" d="M153.475,252.565c-29.141,0.007-58.283,0.022-87.424-0.004
		c-9.9-0.011-11.554-1.623-11.597-11.331c-0.047-10.69,0.096-21.384,0-32.074c-0.051-5.73,1.425-10.792,4.889-15.44
		c14.006-18.791,27.811-37.732,41.88-56.476c3.355-4.469,5.431-9.091,5.326-14.714c-0.102-5.515-0.079-11.036,0.021-16.551
		c0.077-4.287,1.787-7.238,6.567-7.721c7.978-0.808,11.064,0.484,12.739,5.637c2.644,8.129,3.628,8.907,12.022,8.94
		c10.69,0.042,21.384,0.059,32.074-0.016c7.424-0.052,8.901-1.242,10.998-8.254c1.688-5.645,4.104-6.856,11.698-6.299
		c5.176,0.38,7.175,3.466,7.544,8.147c0.096,1.2,0.216,2.437,0.034,3.613c-2.021,13.123,2.123,23.94,10.46,34.275
		c13.083,16.214,25.218,33.206,37.372,50.145c2.373,3.308,4.002,7.813,4.244,11.868c0.705,11.859,0.784,23.773,0.625,35.658
		c-0.114,8.637-2.393,10.565-11.013,10.578C212.448,252.588,182.962,252.562,153.475,252.565z M154.148,140.676
		c-15.532-1.595-31.482,13.543-31.336,30.288c0.148,17.02,13.781,30.919,30.839,30.955c17.466,0.039,31.546-13.703,31.568-30.81
		C185.244,153.847,171.823,140.701,154.148,140.676z"/>
	<path fill-rule="evenodd" clip-rule="evenodd" d="M149.758,47.786c24.698-1.544,48.977,2.079,72.978,6.77
		c10.036,1.961,19.712,6.879,28.909,11.681c8.252,4.308,12.019,12.887,13.951,21.564c2.574,11.551,2.441,23.31-1.171,34.758
		c-2.282,7.239-5.791,8.859-13.04,6.62c-7.905-2.442-15.914-4.576-23.731-7.269c-7.913-2.726-9.599-5.524-9.53-13.807
		c0.136-16.464-1.879-19.813-17.793-23.988c-7.734-2.03-16.003-2.837-24.024-2.812c-21.516,0.068-43.03,0.849-64.543,1.458
		c-2.022,0.057-4.059,0.781-6.025,1.399c-14.958,4.703-17.051,7.615-16.852,23.246c0.12,9.385-0.708,11.285-9.599,14.018
		c-11.017,3.389-22.278,5.995-33.479,8.761c-4.539,1.12-7.993-1.047-9.562-5.156c-5.875-15.374-5.968-43.859,10.482-57.753
		c9.062-7.656,20.014-11.043,31.128-12.972C101.617,50.18,125.485,46.221,149.758,47.786z"/>
</g>
</svg>
