<?xml version="1.0" encoding="UTF-8" standalone="no"?>
<svg width="40px" height="40px" viewBox="0 0 40 40" version="1.1" xmlns="http://www.w3.org/2000/svg" xmlns:xlink="http://www.w3.org/1999/xlink" xmlns:sketch="http://www.bohemiancoding.com/sketch/ns">
    <title>logo-t0theme</title>
    <description>Created with Sketch (http://www.bohemiancoding.com/sketch)</description>
    <defs></defs>
    <g id="Page-1" stroke="none" stroke-width="1" fill="none" fill-rule="evenodd" sketch:type="MSPage">
        <path d="M20,39 C30.4933789,39 39,30.4933789 39,20 C39,9.50662112 30.4933789,1 20,1 C9.50662112,1 1,9.50662112 1,20 C1,30.4933789 9.50662112,39 20,39" id="Fill-1" fill="#000000" sketch:type="MSShapeGroup"></path>
        <path d="M15.6770491,16.0548956 C15.6770491,16.8121942 15.4364093,17.4425735 14.9551224,17.9460523 C14.4738355,18.449531 13.9169659,18.7012666 13.2844967,18.7012666 C12.7158292,18.7012666 12.2026492,18.4918337 11.7449412,18.0729616 C11.1790477,17.5542259 10.8961052,16.8815439 10.8961052,16.0548956 C10.8961052,15.2282473 11.1790477,14.5541784 11.7449412,14.0326687 C12.2026492,13.6137965 12.7158292,13.4043636 13.2844967,13.4043636 C13.9169659,13.4043636 14.4738355,13.6560992 14.9551224,14.159578 C15.4364093,14.6630568 15.6770491,15.294823 15.6770491,16.0548956 L15.6770491,16.0548956 Z M14.8240521,16.0548956 C14.8240521,15.5361599 14.6673242,15.1068917 14.3538636,14.7670783 C14.040403,14.4272648 13.6839509,14.2573606 13.2844967,14.2573606 C12.8878164,14.2573606 12.5327513,14.4279582 12.2192907,14.7691587 C11.9058301,15.1103592 11.7491021,15.5389339 11.7491021,16.0548956 C11.7491021,16.5708573 11.9058301,16.9987385 12.2192907,17.338552 C12.5327513,17.6783655 12.8878164,17.8482697 13.2844967,17.8482697 C13.6839509,17.8482697 14.040403,17.679059 14.3538636,17.3406325 C14.6673242,17.002206 14.8240521,16.5736313 14.8240521,16.0548956 L14.8240521,16.0548956 Z" id="O" fill="#FEFEFE" sketch:type="MSShapeGroup"></path>
        <path d="M7.8611283,14.3863503 L7.8611283,17.7234409 L8.43534088,17.7234409 C8.64061597,17.7234409 8.78694163,17.7629696 8.87432224,17.8420282 C8.96170285,17.9210869 9.0053925,18.0244164 9.0053925,18.1520198 C9.0053925,18.2768493 8.96170285,18.3787918 8.87432224,18.4578504 C8.78694163,18.5369091 8.64061597,18.5764378 8.43534088,18.5764378 L6.43807972,18.5764378 C6.23280463,18.5764378 6.08647897,18.5369091 5.99909836,18.4578504 C5.91171775,18.3787918 5.8680281,18.2754623 5.8680281,18.1478589 C5.8680281,18.0230294 5.91171775,17.9210869 5.99909836,17.8420282 C6.08647897,17.7629696 6.23280463,17.7234409 6.43807972,17.7234409 L7.00813134,17.7234409 L7.00813134,14.3863503 L6.08439806,14.3863503 L6.08439806,15.1935767 C6.08439806,15.3988518 6.04486932,15.5451775 5.96581067,15.6325581 C5.88675202,15.7199387 5.78342253,15.7636284 5.6558191,15.7636284 C5.53098965,15.7636284 5.42904713,15.7199387 5.34998848,15.6325581 C5.27092983,15.5451775 5.2314011,15.3988518 5.2314011,15.1935767 L5.2314011,13.5291924 L9.65034142,13.5333534 L9.65034142,15.1935767 C9.65034142,15.3988518 9.61081269,15.5451775 9.53175404,15.6325581 C9.45269539,15.7199387 9.3493659,15.7636284 9.22176246,15.7636284 C9.09693301,15.7636284 8.9949905,15.7199387 8.91593185,15.6325581 C8.8368732,15.5451775 8.79734446,15.3988518 8.79734446,15.1935767 L8.79734446,14.3863503 L7.8611283,14.3863503 Z" id="T" fill="#FEFEFE" sketch:type="MSShapeGroup"></path>
        <path d="M19.5317353,14.3863503 L19.5317353,17.7234409 L20.1059478,17.7234409 C20.3112229,17.7234409 20.4575486,17.7629696 20.5449292,17.8420282 C20.6323098,17.9210869 20.6759995,18.0244164 20.6759995,18.1520198 C20.6759995,18.2768493 20.6323098,18.3787918 20.5449292,18.4578504 C20.4575486,18.5369091 20.3112229,18.5764378 20.1059478,18.5764378 L18.1086867,18.5764378 C17.9034116,18.5764378 17.7570859,18.5369091 17.6697053,18.4578504 C17.5823247,18.3787918 17.5386351,18.2754623 17.5386351,18.1478589 C17.5386351,18.0230294 17.5823247,17.9210869 17.6697053,17.8420282 C17.7570859,17.7629696 17.9034116,17.7234409 18.1086867,17.7234409 L18.6787383,17.7234409 L18.6787383,14.3863503 L17.755005,14.3863503 L17.755005,15.1935767 C17.755005,15.3988518 17.7154763,15.5451775 17.6364176,15.6325581 C17.557359,15.7199387 17.4540295,15.7636284 17.3264261,15.7636284 C17.2015966,15.7636284 17.0996541,15.7199387 17.0205954,15.6325581 C16.9415368,15.5451775 16.9020081,15.3988518 16.9020081,15.1935767 L16.9020081,13.5291924 L21.3209484,13.5333534 L21.3209484,15.1935767 C21.3209484,15.3988518 21.2814196,15.5451775 21.202361,15.6325581 C21.1233023,15.7199387 21.0199729,15.7636284 20.8923694,15.7636284 C20.76754,15.7636284 20.6655975,15.7199387 20.5865388,15.6325581 C20.5074802,15.5451775 20.4679514,15.3988518 20.4679514,15.1935767 L20.4679514,14.3863503 L19.5317353,14.3863503 Z" id="T" fill="#FEFEFE" sketch:type="MSShapeGroup"></path>
        <path d="M25.8871588,16.4876355 L24.064658,16.4876355 L24.064658,17.7234409 L24.1978088,17.7234409 C24.4030839,17.7234409 24.5494095,17.7629696 24.6367901,17.8420282 C24.7241707,17.9210869 24.7678604,18.0244164 24.7678604,18.1520198 C24.7678604,18.2768493 24.7241707,18.3787918 24.6367901,18.4578504 C24.5494095,18.5369091 24.4030839,18.5764378 24.1978088,18.5764378 L23.1534076,18.5764378 C22.9481325,18.5764378 22.8018069,18.5369091 22.7144263,18.4578504 C22.6270456,18.3787918 22.583356,18.2754623 22.583356,18.1478589 C22.583356,17.9925156 22.6513177,17.8718489 22.7872431,17.7858553 C22.8538188,17.7414715 22.99529,17.7206669 23.2116611,17.7234409 L23.2116611,14.3863503 C23.0618657,14.3724804 22.9488274,14.3267103 22.8725428,14.2490386 C22.7962581,14.171367 22.7581163,14.0742789 22.7581163,13.9577714 C22.7581163,13.830168 22.801806,13.7268385 22.8891866,13.6477798 C22.9765672,13.5687212 23.1228929,13.5291924 23.328168,13.5291924 L24.1978088,13.5333534 C24.4030839,13.5333534 24.5494095,13.5721886 24.6367901,13.6498603 C24.7241707,13.7275319 24.7678604,13.830168 24.7678604,13.9577714 C24.7678604,14.0853748 24.7241707,14.1887043 24.6367901,14.267763 C24.5494095,14.3468216 24.4030839,14.3863503 24.1978088,14.3863503 L24.064658,14.3863503 L24.064658,15.6346386 L25.8871588,15.6346386 L25.8871588,14.3863503 L25.7540081,14.3863503 C25.548733,14.3863503 25.4024073,14.3468216 25.3150267,14.267763 C25.2276461,14.1887043 25.1839565,14.0853748 25.1839565,13.9577714 C25.1839565,13.830168 25.2276461,13.7268385 25.3150267,13.6477798 C25.4024073,13.5687212 25.548733,13.5291924 25.7540081,13.5291924 L26.6236489,13.5333534 C26.828924,13.5333534 26.9752496,13.5721886 27.0626302,13.6498603 C27.1500109,13.7275319 27.1937005,13.830168 27.1937005,13.9577714 C27.1937005,14.0742789 27.1555587,14.171367 27.0792741,14.2490386 C27.0029894,14.3267103 26.8899511,14.3724804 26.7401558,14.3863503 L26.7401558,17.7234409 C26.9593008,17.7234409 27.1007721,17.7442455 27.1645738,17.7858553 C27.3004992,17.8718489 27.3684609,17.9939025 27.3684609,18.1520198 C27.3684609,18.2768493 27.3247712,18.3787918 27.2373906,18.4578504 C27.15001,18.5369091 27.0036843,18.5764378 26.7984092,18.5764378 L25.7540081,18.5764378 C25.548733,18.5764378 25.4024073,18.5369091 25.3150267,18.4578504 C25.2276461,18.3787918 25.1839565,18.2754623 25.1839565,18.1478589 C25.1839565,18.0230294 25.2283396,17.9210869 25.3171072,17.8420282 C25.4058748,17.7629696 25.551507,17.7234409 25.7540081,17.7234409 L25.8871588,17.7234409 L25.8871588,16.4876355 Z" id="H" fill="#FEFEFE" sketch:type="MSShapeGroup"></path>
        <path d="M17.2692868,24.2513963 L17.2692868,25.5038455 L19.4454693,25.5038455 L19.4454693,25.0419789 C19.4454693,24.8367038 19.484998,24.6903781 19.5640567,24.6029975 C19.6431153,24.5156169 19.7464448,24.4719272 19.8740483,24.4719272 C19.9988777,24.4719272 20.1008202,24.5156169 20.1798789,24.6029975 C20.2589375,24.6903781 20.2984663,24.8367038 20.2984663,25.0419789 L20.2984663,26.3568425 L16.2831391,26.3568425 C16.0778641,26.3568425 15.9315384,26.3173137 15.8441578,26.2382551 C15.7567772,26.1591964 15.7130875,26.0558669 15.7130875,25.9282635 C15.7130875,25.8034341 15.7574707,25.7014915 15.8462383,25.6224329 C15.9350059,25.5433742 16.080638,25.5038455 16.2831391,25.5038455 L16.4162899,25.5038455 L16.4162899,22.166755 L16.2831391,22.166755 C16.0778641,22.166755 15.9315384,22.1272263 15.8441578,22.0481676 C15.7567772,21.969109 15.7130875,21.8657795 15.7130875,21.738176 C15.7130875,21.6105726 15.7567772,21.5072431 15.8441578,21.4281845 C15.9315384,21.3491258 16.0778641,21.3095971 16.2831391,21.3095971 L20.111223,21.313758 L20.111223,22.6119778 C20.111223,22.8144789 20.0723878,22.9594176 19.9947161,23.0467982 C19.9170445,23.1341788 19.8144085,23.1778684 19.686805,23.1778684 C19.5592016,23.1778684 19.4558721,23.1348723 19.3768135,23.0488787 C19.2977548,22.962885 19.2582261,22.8172529 19.2582261,22.6119778 L19.2582261,22.166755 L17.2692868,22.166755 L17.2692868,23.3983994 L18.0182598,23.3983994 C18.0182598,23.1764803 18.0390644,23.0336221 18.0806742,22.9698204 C18.1666678,22.833895 18.2887214,22.7659333 18.4468387,22.7659333 C18.5716682,22.7659333 18.6736107,22.809623 18.7526694,22.8970036 C18.831728,22.9843842 18.8712567,23.1307099 18.8712567,23.335985 L18.8712567,24.3179717 C18.8712567,24.5038289 18.8490652,24.6286564 18.8046814,24.6924582 C18.7159138,24.8228356 18.5966341,24.8880233 18.4468387,24.8880233 C18.2887214,24.8880233 18.1666678,24.8200616 18.0806742,24.6841362 C18.0390644,24.6203345 18.0182598,24.4760893 18.0182598,24.2513963 L17.2692868,24.2513963 Z" id="E" fill="#FEFEFE" sketch:type="MSShapeGroup"></path>
        <path d="M23.6194352,22.9614985 L23.6194352,25.5038455 L23.9273463,25.5038455 C24.1326214,25.5038455 24.2789471,25.5433742 24.3663277,25.6224329 C24.4537083,25.7014915 24.4973979,25.804821 24.4973979,25.9324245 C24.4973979,26.0572539 24.4537083,26.1591964 24.3663277,26.2382551 C24.2789471,26.3173137 24.1326214,26.3568425 23.9273463,26.3568425 L22.8080479,26.3568425 C22.6027728,26.3568425 22.4564471,26.3173137 22.3690665,26.2382551 C22.2816859,26.1591964 22.2379963,26.0558669 22.2379963,25.9282635 C22.2379963,25.8034341 22.2809924,25.7014915 22.366986,25.6224329 C22.4529797,25.5433742 22.5861291,25.5038455 22.7664383,25.5038455 L22.7664383,22.166755 C22.6166429,22.152885 22.5036046,22.1071149 22.42732,22.0294433 C22.3510353,21.9517716 22.3128935,21.8546835 22.3128935,21.738176 C22.3128935,21.6105726 22.3565832,21.5072431 22.4439638,21.4281845 C22.5313444,21.3491258 22.6776701,21.3095971 22.8829452,21.3095971 L23.8191613,21.313758 L24.9800694,23.8810708 L26.1201726,21.3095971 L27.0647107,21.313758 C27.2699858,21.313758 27.4163115,21.3525933 27.5036921,21.4302649 C27.5910727,21.5079366 27.6347623,21.6105726 27.6347623,21.738176 C27.6347623,21.8546835 27.5959271,21.9517716 27.5182554,22.0294433 C27.4405838,22.1071149 27.328239,22.152885 27.1812176,22.166755 L27.1812176,25.5038455 C27.3615268,25.5038455 27.4946762,25.5440677 27.5806699,25.6245134 C27.6666635,25.704959 27.7096596,25.807595 27.7096596,25.9324245 C27.7096596,26.0572539 27.66597,26.1591964 27.5785894,26.2382551 C27.4912088,26.3173137 27.3448831,26.3568425 27.139608,26.3568425 L26.0161486,26.3568425 C25.8136475,26.3568425 25.6687088,26.3173137 25.5813282,26.2382551 C25.4939476,26.1591964 25.450258,26.0558669 25.450258,25.9282635 C25.450258,25.8034341 25.4939476,25.7014915 25.5813282,25.6224329 C25.6687088,25.5433742 25.8136475,25.5038455 26.0161486,25.5038455 L26.3282207,25.5038455 L26.3282207,22.9614985 L25.3503949,25.1584858 L24.6097439,25.1584858 L23.6194352,22.9614985 Z" id="M" fill="#FEFEFE" sketch:type="MSShapeGroup"></path>
        <path d="M24.0771409,31.0592504 L24.0771409,32.3116996 L26.2533234,32.3116996 L26.2533234,31.8498329 C26.2533234,31.6445578 26.2928521,31.4982322 26.3719108,31.4108516 C26.4509694,31.323471 26.5542989,31.2797813 26.6819023,31.2797813 C26.8067318,31.2797813 26.9086743,31.323471 26.9877329,31.4108516 C27.0667916,31.4982322 27.1063203,31.6445578 27.1063203,31.8498329 L27.1063203,33.1646965 L23.0909932,33.1646965 C22.8857181,33.1646965 22.7393925,33.1251678 22.6520118,33.0461091 C22.5646312,32.9670505 22.5209416,32.863721 22.5209416,32.7361176 C22.5209416,32.6112881 22.5653247,32.5093456 22.6540923,32.4302869 C22.7428599,32.3512283 22.8884921,32.3116996 23.0909932,32.3116996 L23.2241439,32.3116996 L23.2241439,28.974609 L23.0909932,28.974609 C22.8857181,28.974609 22.7393925,28.9350803 22.6520118,28.8560217 C22.5646312,28.776963 22.5209416,28.6736335 22.5209416,28.5460301 C22.5209416,28.4184267 22.5646312,28.3150972 22.6520118,28.2360385 C22.7393925,28.1569799 22.8857181,28.1174511 23.0909932,28.1174511 L26.9190771,28.1216121 L26.9190771,29.4198318 C26.9190771,29.6223329 26.8802419,29.7672716 26.8025702,29.8546522 C26.7248985,29.9420329 26.6222625,29.9857225 26.4946591,29.9857225 C26.3670557,29.9857225 26.2637262,29.9427263 26.1846675,29.8567327 C26.1056089,29.7707391 26.0660801,29.6251069 26.0660801,29.4198318 L26.0660801,28.974609 L24.0771409,28.974609 L24.0771409,30.2062534 L24.8261138,30.2062534 C24.8261138,29.9843344 24.8469184,29.8414762 24.8885283,29.7776745 C24.9745219,29.6417491 25.0965755,29.5737874 25.2546928,29.5737874 C25.3795222,29.5737874 25.4814648,29.617477 25.5605234,29.7048577 C25.6395821,29.7922383 25.6791108,29.9385639 25.6791108,30.143839 L25.6791108,31.1258258 C25.6791108,31.3116829 25.6569192,31.4365105 25.6125354,31.5003122 C25.5237678,31.6306896 25.4044881,31.6958774 25.2546928,31.6958774 C25.0965755,31.6958774 24.9745219,31.6279157 24.8885283,31.4919903 C24.8469184,31.4281886 24.8261138,31.2839434 24.8261138,31.0592504 L24.0771409,31.0592504 Z" id="E" fill="#FEFEFE" sketch:type="MSShapeGroup"></path>
    </g>
</svg>