<?xml version="1.0" encoding="UTF-8" standalone="no"?>
<svg width="100px" height="100px" viewBox="0 0 100 100" version="1.1" xmlns="http://www.w3.org/2000/svg" xmlns:xlink="http://www.w3.org/1999/xlink" xmlns:sketch="http://www.bohemiancoding.com/sketch/ns">
    <title>logo 1</title>
    <description>Created with Sketch (http://www.bohemiancoding.com/sketch)</description>
    <defs></defs>
    <g id="Page-1" stroke="none" stroke-width="1" fill="none" fill-rule="evenodd" sketch:type="MSPage">
        <path d="M11.5185828,76.7887663 C19.4334496,76.7887663 26.4825222,74.361783 32.6660119,69.5077436 C28.9868355,69.4459087 25.6941766,68.3097095 22.7879364,66.0991119 C19.8816963,63.8885144 17.8720923,61.0673395 16.7590641,57.6355027 C17.9648446,57.8519249 19.0314806,57.9601343 19.959004,57.9601343 C21.4121241,57.9601343 22.9115979,57.7591739 24.4574703,57.3572471 C20.5309544,56.5533934 17.2692125,54.5901649 14.6721468,51.4675026 C12.0750811,48.3448403 10.7765677,44.7430115 10.7765677,40.6619083 L10.7765677,40.4300286 C13.2499636,41.7594789 15.8315319,42.4705696 18.5213499,42.5633219 C16.1716238,41.0174495 14.3166047,38.992387 12.956237,36.4880736 C11.5958692,33.9837603 10.9156956,31.2785242 10.9156956,28.372284 C10.9156956,25.2496217 11.6886202,22.3898006 13.2344926,19.7927349 C17.5011005,25.0487012 22.6796955,29.2456819 28.7704328,32.3838029 C34.8611702,35.5219239 41.4001125,37.2610043 48.3874558,37.6010962 C48.0782814,36.3953157 47.9236964,35.0968024 47.9236964,33.7055172 C47.9236964,29.006065 49.5932136,24.9945862 52.932298,21.6709605 C56.2713825,18.3473348 60.2905905,16.6855469 64.9900427,16.6855469 C69.9368345,16.6855469 74.0797104,18.478732 77.4187949,22.065156 C81.3762283,21.2613024 84.978057,19.8854965 88.2243891,17.9376973 C86.9258563,22.0188005 84.437039,25.1568744 80.7578626,27.3520133 C84.1278645,26.9500865 87.3896064,26.0534939 90.5431861,24.6622087 C88.2862124,28.0940455 85.4573083,31.0466175 82.0563889,33.5200134 C82.0563889,33.7364356 82.0641182,34.0919809 82.0795769,34.5866601 C82.0950356,35.0813392 82.1027649,35.4523431 82.1027649,35.6996827 C82.1027649,39.4716114 81.6235516,43.2744005 80.6651107,47.1081641 C79.7066698,50.9419277 78.3231347,54.6674244 76.514464,58.2847659 C74.7057933,61.9021074 72.3947487,65.2797879 69.5812608,68.417909 C66.767773,71.55603 63.6142406,74.2999124 60.1205689,76.6496385 C56.6268972,78.9993646 52.5999599,80.8466544 48.0396363,82.1915634 C43.4793126,83.5364724 38.6639922,84.2089169 33.5935307,84.2089169 C24.1637089,84.2089169 15.4451192,81.6582656 7.4375,76.5568866 C8.92153753,76.7114739 10.2818849,76.7887663 11.5185828,76.7887663 Z" id="twitter" fill="#000000" sketch:type="MSShapeGroup"></path>
    </g>
</svg>