<?xml version="1.0" encoding="UTF-8" standalone="no"?>
<svg width="100px" height="100px" viewBox="0 0 100 100" version="1.1" xmlns="http://www.w3.org/2000/svg" xmlns:xlink="http://www.w3.org/1999/xlink" xmlns:sketch="http://www.bohemiancoding.com/sketch/ns">
    <title>logo 1</title>
    <description>Created with Sketch (http://www.bohemiancoding.com/sketch)</description>
    <defs></defs>
    <g id="Page-1" stroke="none" stroke-width="1" fill="none" fill-rule="evenodd" sketch:type="MSPage">
        <path d="M3.4375,51.5 C3.4375,45.3977559 4.62775502,39.5638299 7.00830078,33.9980469 C9.38884654,28.4322638 12.5908002,23.6377154 16.6142578,19.6142578 C20.6377154,15.5908002 25.4322638,12.3888465 30.9980469,10.0083008 C36.5638299,7.62775502 42.3977559,6.4375 48.5,6.4375 C54.6022441,6.4375 60.4361701,7.62775502 66.0019531,10.0083008 C71.5677362,12.3888465 76.3622846,15.5908002 80.3857422,19.6142578 C84.4091998,23.6377154 87.6111535,28.4322638 89.9916992,33.9980469 C92.372245,39.5638299 93.5625,45.3977559 93.5625,51.5 C93.5625,57.6022441 92.372245,63.4361701 89.9916992,69.0019531 C87.6111535,74.5677362 84.4091998,79.3622846 80.3857422,83.3857422 C76.3622846,87.4091998 71.5677362,90.6111535 66.0019531,92.9916992 C60.4361701,95.372245 54.6022441,96.5625 48.5,96.5625 C42.3977559,96.5625 36.5638299,95.372245 30.9980469,92.9916992 C25.4322638,90.6111535 20.6377154,87.4091998 16.6142578,83.3857422 C12.5908002,79.3622846 9.38884654,74.5677362 7.00830078,69.0019531 C4.62775502,63.4361701 3.4375,57.6022441 3.4375,51.5 Z M7.96386719,51.5 C7.96386719,59.4128 10.0593866,66.6297688 14.2504883,73.151123 C18.44159,79.6724773 23.9737612,84.609521 30.847168,87.9624023 L11.484375,35.0039062 C9.13735806,40.2344012 7.96386719,45.7330441 7.96386719,51.5 Z M14.652832,29.2705078 L17.2680664,29.2705078 C18.5086325,29.2705078 20.0341706,29.2285974 21.8447266,29.1447754 C23.6552825,29.0609534 25.1472923,28.9855147 26.3208008,28.918457 L28.0307617,28.7675781 C28.7348668,28.7340493 29.2461735,28.9771296 29.5646973,29.4968262 C29.883221,30.0165228 29.9251314,30.5613578 29.6904297,31.1313477 C29.455728,31.7013375 29.0030958,32.0366206 28.3325195,32.137207 C26.8572517,32.3048511 25.2981853,32.4222002 23.6552734,32.4892578 L38.4414062,76.3950195 L47.2929688,49.7900391 L41.0063477,32.4892578 L36.7314453,32.137207 C36.060869,32.0701494 35.5998548,31.7516305 35.3483887,31.1816406 C35.0969226,30.6116508 35.138833,30.0584337 35.4741211,29.5219727 C35.8094092,28.9855116 36.3123339,28.7340493 36.9829102,28.7675781 C41.4422423,29.1028663 44.9962433,29.2705078 47.6450195,29.2705078 C48.9191144,29.2705078 50.4530347,29.2285974 52.2468262,29.1447754 C54.0406177,29.0609534 55.5242454,28.9855147 56.6977539,28.918457 L58.4580078,28.7675781 C58.9944688,28.7340493 59.4219548,28.8765446 59.7404785,29.1950684 C60.0590022,29.5135921 60.2266438,29.8824035 60.2434082,30.3015137 C60.2601726,30.7206238 60.1428235,31.1145815 59.8913574,31.4833984 C59.6398913,31.8522154 59.2459337,32.0701494 58.7094727,32.137207 C57.2677337,32.3048511 55.7254314,32.4222002 54.0825195,32.4892578 L68.7177734,76.0429688 L72.7915039,62.5644531 C73.5961954,59.9156769 74.1410305,58.1135302 74.4260254,57.157959 C74.7110203,56.2023878 75.0211572,54.9534582 75.3564453,53.4111328 C75.6917334,51.8688074 75.859375,50.5444391 75.859375,49.4379883 C75.859375,47.8956629 75.6665872,46.3785068 75.2810059,44.8864746 C74.8954245,43.3944424 74.5014669,42.2041874 74.0991211,41.3156738 C73.6967753,40.4271603 73.1603224,39.4129289 72.4897461,38.2729492 C72.4226885,38.138834 72.2299007,37.820315 71.911377,37.3173828 C71.5928532,36.8144506 71.3916834,36.4791675 71.3078613,36.3115234 C71.2240393,36.1438794 71.0480157,35.8337425 70.7797852,35.3811035 C70.5115546,34.9284645 70.3271489,34.6099456 70.2265625,34.4255371 C70.1259761,34.2411286 69.9750987,33.9477559 69.7739258,33.5454102 C69.5727529,33.1430644 69.4302576,32.8245454 69.3464355,32.5898438 C69.2626135,32.3551421 69.1536465,32.0533873 69.0195312,31.6845703 C68.885416,31.3157534 68.7932131,30.9888523 68.7429199,30.7038574 C68.6926267,30.4188625 68.6423342,30.1087256 68.592041,29.7734375 C68.5417478,29.4381494 68.5166016,29.1028663 68.5166016,28.7675781 C68.5166016,26.8564358 69.1704036,25.1800202 70.4780273,23.7382812 C71.7856511,22.2965423 73.4117741,21.5756836 75.3564453,21.5756836 L75.859375,21.6259766 C72.1712055,18.2395664 67.9885488,15.6159761 63.3112793,13.755127 C58.6340098,11.8942778 53.6969661,10.9638672 48.5,10.9638672 C41.5595356,10.9638672 35.1053358,12.6067544 29.137207,15.8925781 C23.1690782,19.1784018 18.3410015,23.6376671 14.652832,29.2705078 Z M37.0332031,90.3764648 C40.7884302,91.4829157 44.6106576,92.0361328 48.5,92.0361328 C53.1269763,92.0361328 57.6197699,91.2649817 61.9785156,89.7226562 C61.8444004,89.5214834 61.7438154,89.3370777 61.6767578,89.1694336 L49.2041016,55.0205078 L37.0332031,90.3764648 Z M68.8686523,86.5039062 C75.0044252,82.949852 79.8995585,78.0631008 83.5541992,71.8435059 C87.2088399,65.623911 89.0361328,58.8428102 89.0361328,51.5 C89.0361328,44.5595356 87.3764814,38.0885717 84.0571289,32.0869141 C84.224773,33.4280666 84.3085938,34.8027273 84.3085938,36.2109375 C84.3085938,40.7373273 83.2859803,45.5821682 81.2407227,50.7456055 L68.8686523,86.5039062 Z" id="wordpress" fill="#000000" sketch:type="MSShapeGroup"></path>
    </g>
</svg>