<?xml version="1.0" encoding="UTF-8" standalone="no"?>
<svg width="100px" height="100px" viewBox="0 0 100 100" version="1.1" xmlns="http://www.w3.org/2000/svg" xmlns:xlink="http://www.w3.org/1999/xlink" xmlns:sketch="http://www.bohemiancoding.com/sketch/ns">
    <title>logo 1</title>
    <description>Created with Sketch (http://www.bohemiancoding.com/sketch)</description>
    <defs></defs>
    <g id="Page-1" stroke="none" stroke-width="1" fill="none" fill-rule="evenodd" sketch:type="MSPage">
        <path d="M75.44,71.832 L70.5,71.832 L70.523,68.963 C70.523,67.688 71.57,66.645 72.85,66.645 L73.165,66.645 C74.447,66.645 75.497,67.688 75.497,68.963 L75.44,71.832 L75.44,71.832 Z M56.913,65.684 C55.66,65.684 54.635,66.526 54.635,67.557 L54.635,81.51 C54.635,82.539 55.66,83.379 56.913,83.379 C58.171,83.379 59.197,82.539 59.197,81.51 L59.197,67.557 C59.197,66.525 58.171,65.684 56.913,65.684 L56.913,65.684 Z M87,57.879 L87,84.423 C87,90.79 81.478,96 74.73,96 L24.271,96 C17.52,96 12,90.79 12,84.423 L12,57.879 C12,51.512 17.52,46.301 24.271,46.301 L74.73,46.301 C81.478,46.301 87,51.512 87,57.879 L87,57.879 Z M27.637,87.305 L27.633,59.344 L33.888,59.346 L33.888,55.203 L17.214,55.178 L17.214,59.251 L22.419,59.266 L22.419,87.305 L27.637,87.305 L27.637,87.305 Z M46.387,63.509 L41.172,63.509 L41.172,78.44 C41.172,80.6 41.303,81.68 41.164,82.061 C40.74,83.219 38.834,84.448 38.091,82.186 C37.965,81.79 38.076,80.595 38.074,78.543 L38.053,63.509 L32.867,63.509 L32.883,78.306 C32.887,80.574 32.832,82.266 32.901,83.035 C33.028,84.392 32.983,85.975 34.242,86.878 C36.588,88.569 41.085,86.626 42.21,84.21 L42.2,87.293 L46.388,87.298 L46.388,63.509 L46.387,63.509 Z M63.07,80.607 L63.059,68.18 C63.055,63.444 59.512,60.607 54.702,64.439 L54.723,55.2 L49.513,55.208 L49.488,87.098 L53.771,87.035 L54.161,85.049 C59.637,90.072 63.078,86.631 63.07,80.607 L63.07,80.607 Z M79.391,78.96 L75.48,78.981 C75.478,79.136 75.473,79.315 75.471,79.51 L75.471,81.692 C75.471,82.859 74.506,83.81 73.334,83.81 L72.568,83.81 C71.394,83.81 70.43,82.859 70.43,81.692 L70.43,81.45 L70.43,79.05 L70.43,75.953 L79.384,75.953 L79.384,72.583 C79.384,70.12 79.321,67.658 79.117,66.25 C78.477,61.796 72.225,61.089 69.067,63.369 C68.075,64.081 67.318,65.034 66.878,66.315 C66.433,67.596 66.213,69.346 66.213,71.569 L66.213,78.978 C66.214,91.296 81.176,89.555 79.391,78.96 L79.391,78.96 Z M59.333,38.732 C59.602,39.386 60.02,39.916 60.587,40.316 C61.147,40.71 61.864,40.908 62.721,40.908 C63.473,40.908 64.139,40.705 64.719,40.286 C65.297,39.869 65.784,39.246 66.181,38.415 L66.083,40.461 L71.896,40.461 L71.896,15.74 L67.32,15.74 L67.32,34.98 C67.32,36.022 66.462,36.875 65.413,36.875 C64.37,36.875 63.509,36.022 63.509,34.98 L63.509,15.74 L58.733,15.74 L58.733,32.414 C58.733,34.538 58.771,35.954 58.834,36.672 C58.901,37.385 59.064,38.069 59.333,38.732 L59.333,38.732 Z M41.717,24.77 C41.717,22.397 41.915,20.544 42.308,19.208 C42.704,17.877 43.415,16.807 44.445,16 C45.472,15.189 46.787,14.783 48.386,14.783 C49.731,14.783 50.883,15.047 51.846,15.564 C52.813,16.084 53.558,16.759 54.076,17.592 C54.603,18.428 54.961,19.287 55.152,20.166 C55.347,21.057 55.443,22.401 55.443,24.214 L55.443,30.466 C55.443,32.759 55.351,34.446 55.173,35.517 C54.996,36.591 54.616,37.587 54.028,38.521 C53.447,39.445 52.698,40.136 51.79,40.577 C50.872,41.022 49.822,41.24 48.636,41.24 C47.311,41.24 46.195,41.057 45.275,40.675 C44.352,40.295 43.639,39.722 43.131,38.961 C42.618,38.199 42.257,37.271 42.039,36.189 C41.82,35.108 41.716,33.482 41.716,31.315 L41.716,24.77 L41.717,24.77 Z M46.27,34.59 C46.27,35.99 47.312,37.133 48.581,37.133 C49.851,37.133 50.888,35.99 50.888,34.59 L50.888,21.43 C50.888,20.032 49.851,18.889 48.581,18.889 C47.312,18.889 46.27,20.032 46.27,21.43 L46.27,34.59 L46.27,34.59 Z M30.182,41.235 L35.666,41.235 L35.672,22.275 L42.152,6.033 L36.154,6.033 L32.709,18.097 L29.215,6 L23.279,6 L30.173,22.284 L30.182,41.235 L30.182,41.235 Z" id="YouTube" fill="#000000" sketch:type="MSShapeGroup"></path>
    </g>
</svg>