<svg display="none" width="0" height="0" version="1.1" xmlns="http://www.w3.org/2000/svg" xmlns:xlink="http://www.w3.org/1999/xlink">
<defs>
<symbol id="icon-megaphone" viewBox="0 0 1280 1024">
	<title>megaphone</title>
	<path class="path1" d="M1263.936 0c-8.864 0-15.936 7.168-15.936 16v992c0 8.832 7.072 16 15.936 16s16-7.168 16-16v-992c0-8.832-7.168-16-16-16zM1206.944 38.528c-5.44-2.656-12.032-1.984-16.832 1.76l-18.080 14.24c-95.296 75.36-254.688 201.472-580.032 201.472h-443.808c-46.432 0-84.192 38.4-84.192 85.568v342.848c0 46.080 37.76 83.584 84.192 83.584h108.608c2.816 36 16.064 121.408 78.528 184.352 47.168 47.552 112 71.648 192.672 71.648 8.832 0 16-7.168 16-16s-7.168-16-16-16c-71.744 0-128.832-20.864-169.792-62.016-53.344-53.632-66.144-128.768-69.216-161.984h95.84c2.72 21.824 11.52 60.192 40.768 89.664 25.248 25.44 59.712 38.336 102.4 38.336 8.832 0 16-7.168 16-16s-7.168-16-16-16c-33.76 0-60.512-9.664-79.488-28.672-21.024-21.088-28.608-49.472-31.392-67.328h172.672c326.912 0 487.584 126.816 583.584 202.592l16.704 13.152c2.848 2.24 6.336 3.36 9.824 3.36 2.4 0 4.8-0.544 7.008-1.632 5.504-2.688 8.992-8.256 8.992-14.368v-918.208c0.032-6.112-3.456-11.68-8.96-14.368zM96 684.416v-342.848c0-29.536 23.392-53.568 52.192-53.568h107.808v448h-107.808c-29.28 0-52.192-22.656-52.192-51.584zM1184 938.144c-100.288-78.912-266.496-202.144-594.176-202.144h-185.504c-1.504-0.48-3.040-0.96-4.736-0.992-0.032 0-0.032 0-0.064 0-1.728 0-3.36 0.48-4.928 0.992h-106.592v-448h304c327.584 0 492.608-123.648 592-202.112v852.256zM16 699.424c8.832 0 16-7.168 16-16v-342.848c0-8.832-7.168-16-16-16s-16 7.136-16 16v342.848c0 8.832 7.168 16 16 16z"></path>
</symbol>
<symbol id="icon-envelope" viewBox="0 0 1216 1024">
	<title>envelope</title>
	<path class="path1" d="M641.92 13.216c-18.56-17.056-49.248-17.056-67.808 0l-566.016 341.472c-4.8 2.912-7.744 8.096-7.744 13.696v605.504c0 27.616 22.592 50.112 50.368 50.112h1114.56c27.776 0 50.368-22.496 50.368-50.112v-605.504c0-5.6-2.944-10.784-7.744-13.696l-565.984-341.472zM592.128 39.68c1.12-0.672 2.112-1.472 3.040-2.368 3.456-3.424 8-5.312 12.832-5.312s9.376 1.888 12.8 5.312c0.928 0.896 1.952 1.696 3.040 2.368l551.264 332.608-399.296 237.952c-7.584 4.544-10.080 14.336-5.568 21.952 3.008 5.024 8.32 7.808 13.76 7.808 2.784 0 5.6-0.704 8.16-2.24l391.84-233.28v568.224l-541.92-360.512c-17.216-13.728-51.008-13.728-67.072-0.8l-543.008 361.152v-568.064l391.808 233.28c2.56 1.536 5.408 2.24 8.192 2.24 5.44 0 10.752-2.784 13.76-7.808 4.512-7.584 2.016-17.408-5.568-21.952l-399.328-237.952 551.264-332.608zM1154.88 992h-1094.016l532.992-354.752c5.536-4.416 22.784-4.384 29.408 0.8l531.616 353.952zM208 416h800c8.832 0 16-7.168 16-16s-7.168-16-16-16h-800c-8.832 0-16 7.168-16 16s7.168 16 16 16z"></path>
</symbol>
<symbol id="icon-paperclip" viewBox="0 0 1088 1024">
	<title>paperclip</title>
	<path class="path1" d="M178.784 1019.744c64.48 0 133.856-32.832 182.624-81.632l540.256-549.408c27.712-27.712 43.136-64.448 43.392-103.392 0.288-39.040-14.688-75.648-42.112-103.104-56.576-56.544-149.152-56.032-206.784 1.536l-414.112 432.96c-6.496 6.816-6.272 17.664 0.576 24.192 6.816 6.528 17.6 6.272 24.192-0.544l413.824-432.704c43.936-43.968 114.912-44.512 158.112-1.28 20.896 20.896 32.32 48.832 32.096 78.656-0.192 29.92-12.064 58.112-33.472 79.552l-540.256 549.44c-56.832 56.8-173.632 108.32-243.68 38.208-33.184-33.184-49.824-73.888-48.096-117.728 1.696-43.52 22.176-87.040 57.824-122.656l617.472-626.688c32.832-32.832 84.128-51.84 140.672-52.032 0.352 0 0.672 0 1.024 0 56.064 0 106.656 18.464 138.944 50.752 32.512 32.48 51.008 83.488 50.784 139.968-0.224 56.544-19.232 107.808-52.288 140.864l-476.64 495.52c-6.56 6.816-6.336 17.632 0.48 24.192 6.784 6.528 17.632 6.336 24.16-0.48l476.416-495.296c39.2-39.168 61.824-99.2 62.048-164.672 0.288-65.504-21.888-125.408-60.768-164.288-38.656-38.656-98.048-60.8-163.136-60.8-0.384 0-0.768 0-1.152 0-65.504 0.256-125.536 22.88-164.8 62.144l-617.504 626.72c-86.432 86.432-90.464 207.84-9.632 288.672 30.304 30.272 68.928 43.328 109.536 43.328z"></path>
</symbol>
<symbol id="icon-attachment" viewBox="0 0 1024 1024">
	<title>attachment</title>
	<path class="path1" d="M607.552 527.072c5.248 0.576 10.464 0.832 15.68 0.832 38.912 0 76.224-15.392 104.256-43.424l236.96-236.96c27.712-27.712 43.168-64.448 43.392-103.392 0.288-39.040-14.688-75.648-42.112-103.104-27.2-27.2-63.36-42.144-102.016-42.144-0.352 0-0.672 0-1.056 0-38.944 0.256-75.648 15.68-103.36 43.392l-236.96 236.96c-35.040 35.040-50.208 84.768-40.608 133.024 1.856 9.28 11.072 15.328 20.128 13.408 9.28-1.856 15.296-10.848 13.44-20.096-7.392-37.024 4.288-75.232 31.232-102.144l236.96-236.96c21.312-21.344 49.536-33.184 79.424-33.376 31.2 0 57.76 11.2 78.656 32.096s32.32 48.864 32.128 78.656c-0.224 29.92-12.064 58.112-33.408 79.424l-236.96 236.96c-24.448 24.416-58.016 36.256-92.128 32.768-9.12-1.056-17.824 5.792-18.816 15.2-1.024 9.472 5.792 17.888 15.168 18.88zM484.48 744.736c36.736-36.736 51.456-88.608 39.328-138.688-2.208-9.184-11.232-14.912-20.672-12.608-9.184 2.208-14.816 11.456-12.608 20.64 9.312 38.432-2.016 78.208-30.272 106.496l-236.96 236.96c-21.312 21.344-49.536 33.184-79.424 33.376-30.688 0.16-57.76-11.168-78.656-32.096-20.896-20.896-32.32-48.832-32.096-78.656 0.192-29.92 12.064-58.112 33.376-79.456l236.96-236.96c24.672-24.672 58.304-36.608 92.992-32.672 9.216 0.704 17.888-5.664 18.944-15.072 1.056-9.376-5.664-17.856-15.072-18.944-44.928-5.056-88.96 10.368-121.056 42.464l-236.96 236.96c-27.712 27.712-43.136 64.448-43.392 103.392-0.288 39.040 14.688 75.648 42.112 103.104 27.2 27.2 63.36 42.144 102.016 42.144 0.352 0 0.672 0 1.056 0 38.944-0.256 75.648-15.68 103.36-43.392l237.024-236.992zM727.488 283.904c-6.688-6.688-17.504-6.688-24.192 0l-432 432c-6.688 6.656-6.688 17.504 0 24.192 3.328 3.328 7.712 5.024 12.096 5.024s8.736-1.664 12.096-5.024l432-432c6.688-6.688 6.688-17.504 0-24.192z"></path>
</symbol>
<symbol id="icon-magnifying-glass" viewBox="0 0 1024 1024">
	<title>magnifying-glass</title>
	<path class="path1" d="M336 0c-185.28 0-336 150.72-336 336s150.72 336 336 336c87.2 0 166.496-33.664 226.272-88.32 0.704 1.248 1.344 2.56 2.432 3.648l68.832 68.832c-5.76 9.728-9.024 20.736-9.024 32.352 0 17.088 6.656 33.152 18.752 45.248l271.52 271.52c12.064 12.064 28.128 18.72 45.216 18.72s33.152-6.656 45.248-18.752 18.752-28.16 18.752-45.248-6.656-33.152-18.752-45.248l-271.52-271.52c-20.288-20.288-53.088-23.328-77.44-9.568l-68.96-68.96c-1.088-1.088-2.368-1.728-3.648-2.432 54.656-59.776 88.32-139.072 88.32-226.272 0-185.28-150.72-336-336-336zM711.104 665.856l271.52 271.52c6.048 6.048 9.376 14.080 9.376 22.624s-3.328 16.576-9.376 22.624c-12.128 12.064-33.12 12.064-45.248 0l-271.52-271.52c-6.016-6.048-9.376-14.080-9.376-22.624s3.328-16.576 9.376-22.624c6.048-6.016 14.080-9.376 22.624-9.376s16.544 3.328 22.624 9.376zM336 640c-167.616 0-304-136.384-304-304s136.384-304 304-304 304 136.384 304 304-136.384 304-304 304zM336 96c-132.352 0-240 107.648-240 240s107.648 240 240 240 240-107.648 240-240-107.648-240-240-240zM336 544c-114.688 0-208-93.312-208-208s93.312-208 208-208 208 93.312 208 208-93.312 208-208 208z"></path>
</symbol>
<symbol id="icon-profile-male" viewBox="0 0 1152 1024">
	<title>profile-male</title>
	<path class="path1" d="M16 1023.456c8.576 2.144 17.344-2.816 19.584-11.328 32.96-122.976 166.912-154.848 246.976-173.92 20.064-4.768 35.904-8.544 46.208-12.992 91.2-39.584 120.928-103.264 129.824-149.728 1.088-5.6-0.928-11.36-5.28-15.136-47.488-40.992-87.552-102.528-112.832-173.312-0.704-2.016-1.824-3.872-3.296-5.472-33.44-36.352-52.64-74.784-52.64-105.408 0-17.888 6.752-29.888 21.952-38.944 4.64-2.784 7.552-7.68 7.776-13.056 7.072-163.008 123.168-291.328 265.568-292.16 0.16 0 3.264 0.224 3.424 0.224 143.104 1.984 258.464 133.056 262.592 298.368 0.128 4.576 2.176 8.864 5.696 11.808 10.016 8.48 14.688 19.232 14.688 33.824 0 25.632-13.664 57.152-38.432 88.704-1.184 1.504-2.080 3.232-2.688 5.056-25.6 81.152-71.552 152.8-126.016 196.64-4.608 3.712-6.784 9.664-5.696 15.456 8.896 46.432 38.624 110.080 129.824 149.728 10.784 4.672 27.52 8.32 48.736 12.896 79.264 17.152 211.904 45.92 244.448 167.424 1.92 7.136 8.384 11.84 15.424 11.84 1.376 0 2.752-0.192 4.16-0.544 8.544-2.304 13.6-11.072 11.328-19.616-37.6-140.384-187.872-172.928-268.576-190.4-18.72-4.064-34.88-7.552-42.752-11.008-59.52-25.856-96.192-65.248-109.152-117.28 55.264-47.456 101.504-120.672 127.936-202.784 28.064-36.48 43.488-74.048 43.488-106.144 0-21.408-6.912-39.264-20.608-53.216-7.616-179.328-135.584-320.544-294.4-322.816l-4.768-0.064c-155.936 0.832-284.448 138.336-295.68 314.56-20.032 14.72-30.208 35.36-30.208 61.568 0 37.856 21.408 83.136 58.88 124.672 25.888 71.136 66.016 133.632 113.792 177.376-12.896 52.224-49.6 91.744-109.248 117.632-7.712 3.36-23.072 7.040-40.864 11.264-81.312 19.328-232.608 55.328-270.496 196.704-2.272 8.544 2.784 17.28 11.328 19.584z"></path>
</symbol>
<symbol id="icon-facebook" viewBox="0 0 1024 1024">
	<title>facebook</title>
	<path class="path1" d="M512-1.088c-282.912 0-513.12 230.144-513.12 513.088s230.208 513.088 513.12 513.088 513.12-230.144 513.12-513.088-230.208-513.088-513.12-513.088zM512 990.912c-264.064 0-478.88-214.848-478.88-478.912s214.816-478.912 478.88-478.912 478.88 214.848 478.88 478.912-214.816 478.912-478.88 478.912zM624 224h-85.376c-108.736-1.088-122.624 66.208-122.624 139.040v52.96h-48c-9.44-1.088-17.12 6.56-16 16v96c-1.12 9.44 6.56 17.088 16 16h48v240c-0.992 9.44 6.656 17.088 16.096 16h97.76c9.44 1.088 17.088-6.56 14.080-16l0.064-240h80c9.44 1.088 17.12-6.56 16-16v-96c1.12-9.44-6.56-17.088-16-16h-80.096l0.096-48c3.104-20.448 3.104-17.12 22.080-16h57.248c4.448-0.992 9.184-0.448 12.512-3.68s5.248-7.648 4.128-12.32v-96c1.152-9.44-6.528-17.088-15.968-16zM606.88 318.208l-40.128-1.536c-49.696 0-53.856 26.976-53.856 54.592l-0.128 60.672c0 4.544 1.792 8.896 4.992 12.128 3.2 3.2 7.552 4.992 12.096 4.992h78.144v61.824h-78.080c-9.44 0-17.088 7.648-17.12 17.088l-0.032 240.032h-64.768v-240c0-9.44-6.432-17.088-15.904-17.088h-48.096v-61.824h48.096c4.544 0 8.896-1.792 12.096-4.992 3.2-3.232 3.776-7.584 3.776-12.128v-68.96c0-71.744 14.496-105.92 90.624-105.92h68.256v61.12z"></path>
</symbol>
<symbol id="icon-logo_sf2" viewBox="0 0 1024 1024">
	<title>logo_sf2</title>
	<path class="path1" d="M148.48 1003.52h-128v-983.040h163.84v819.2h409.6v163.84h-445.44zM409.6 204.8v204.8h204.8v-204.8h-204.8zM204.8 819.2v-204.8h203.42v-204.8h-203.42v-409.6h-204.8v1024h614.4v-204.8h-409.6zM184.32 430.080h204.8v163.84h-204.8v-163.84z"></path>
</symbol>
<symbol id="icon-download2" viewBox="0 0 1024 1024">
	<title>download2</title>
	<path class="path1" d="M896 512h-160l-224 224-224-224h-160l-128 256v64h1024v-64l-128-256zM0 896h1024v64h-1024v-64zM576 320v-256h-128v256h-224l288 288 288-288h-224z"></path>
</symbol>
<symbol id="icon-arrow-up2" viewBox="0 0 1024 1024">
	<title>arrow-up2</title>
	<path class="path1" d="M877.254 402.746l-320-320c-24.992-24.994-65.514-24.994-90.508 0l-320 320c-24.994 24.994-24.994 65.516 0 90.51 24.994 24.996 65.516 24.996 90.51 0l210.744-210.746v613.49c0 35.346 28.654 64 64 64s64-28.654 64-64v-613.49l210.746 210.746c12.496 12.496 28.876 18.744 45.254 18.744s32.758-6.248 45.254-18.746c24.994-24.994 24.994-65.514 0-90.508z"></path>
</symbol>
<symbol id="icon-arrow-right2" viewBox="0 0 1024 1024">
	<title>arrow-right2</title>
	<path class="path1" d="M621.254 877.254l320-320c24.994-24.992 24.994-65.516 0-90.51l-320-320c-24.994-24.992-65.516-24.992-90.51 0-24.994 24.994-24.994 65.516 0 90.51l210.746 210.746h-613.49c-35.346 0-64 28.654-64 64s28.654 64 64 64h613.49l-210.746 210.746c-12.496 12.496-18.744 28.876-18.744 45.254s6.248 32.758 18.744 45.254c24.994 24.994 65.516 24.994 90.51 0z"></path>
</symbol>
<symbol id="icon-arrow-left2" viewBox="0 0 1024 1024">
	<title>arrow-left2</title>
	<path class="path1" d="M402.746 877.254l-320-320c-24.994-24.992-24.994-65.516 0-90.51l320-320c24.994-24.992 65.516-24.992 90.51 0 24.994 24.994 24.994 65.516 0 90.51l-210.746 210.746h613.49c35.346 0 64 28.654 64 64s-28.654 64-64 64h-613.49l210.746 210.746c12.496 12.496 18.744 28.876 18.744 45.254s-6.248 32.758-18.744 45.254c-24.994 24.994-65.516 24.994-90.51 0z"></path>
</symbol>
<symbol id="icon-file-pdf" viewBox="0 0 1024 1024">
	<title>file-pdf</title>
	<path class="path1" d="M842.012 589.48c-13.648-13.446-43.914-20.566-89.972-21.172-31.178-0.344-68.702 2.402-108.17 7.928-17.674-10.198-35.892-21.294-50.188-34.658-38.462-35.916-70.568-85.772-90.576-140.594 1.304-5.12 2.414-9.62 3.448-14.212 0 0 21.666-123.060 15.932-164.666-0.792-5.706-1.276-7.362-2.808-11.796l-1.882-4.834c-5.894-13.592-17.448-27.994-35.564-27.208l-10.916-0.344c-20.202 0-36.664 10.332-40.986 25.774-13.138 48.434 0.418 120.892 24.98 214.738l-6.288 15.286c-17.588 42.876-39.63 86.060-59.078 124.158l-2.528 4.954c-20.46 40.040-39.026 74.028-55.856 102.822l-17.376 9.188c-1.264 0.668-31.044 16.418-38.028 20.644-59.256 35.38-98.524 75.542-105.038 107.416-2.072 10.17-0.53 23.186 10.014 29.212l16.806 8.458c7.292 3.652 14.978 5.502 22.854 5.502 42.206 0 91.202-52.572 158.698-170.366 77.93-25.37 166.652-46.458 244.412-58.090 59.258 33.368 132.142 56.544 178.142 56.544 8.168 0 15.212-0.78 20.932-2.294 8.822-2.336 16.258-7.368 20.792-14.194 8.926-13.432 10.734-31.932 8.312-50.876-0.72-5.622-5.21-12.574-10.068-17.32zM211.646 814.048c7.698-21.042 38.16-62.644 83.206-99.556 2.832-2.296 9.808-8.832 16.194-14.902-47.104 75.124-78.648 105.066-99.4 114.458zM478.434 199.686c13.566 0 21.284 34.194 21.924 66.254s-6.858 54.56-16.158 71.208c-7.702-24.648-11.426-63.5-11.426-88.904 0 0-0.566-48.558 5.66-48.558v0zM398.852 637.494c9.45-16.916 19.282-34.756 29.33-53.678 24.492-46.316 39.958-82.556 51.478-112.346 22.91 41.684 51.444 77.12 84.984 105.512 4.186 3.542 8.62 7.102 13.276 10.65-68.21 13.496-127.164 29.91-179.068 49.862v0zM828.902 633.652c-4.152 2.598-16.052 4.1-23.708 4.1-24.708 0-55.272-11.294-98.126-29.666 16.468-1.218 31.562-1.838 45.102-1.838 24.782 0 32.12-0.108 56.35 6.072 24.228 6.18 24.538 18.734 20.382 21.332v0z"></path>
	<path class="path2" d="M917.806 229.076c-22.21-30.292-53.174-65.7-87.178-99.704s-69.412-64.964-99.704-87.178c-51.574-37.82-76.592-42.194-90.924-42.194h-496c-44.112 0-80 35.888-80 80v864c0 44.112 35.886 80 80 80h736c44.112 0 80-35.888 80-80v-624c0-14.332-4.372-39.35-42.194-90.924v0zM785.374 174.626c30.7 30.7 54.8 58.398 72.58 81.374h-153.954v-153.946c22.982 17.78 50.678 41.878 81.374 72.572v0zM896 944c0 8.672-7.328 16-16 16h-736c-8.672 0-16-7.328-16-16v-864c0-8.672 7.328-16 16-16 0 0 495.956-0.002 496 0v224c0 17.672 14.324 32 32 32h224v624z"></path>
</symbol>
</defs>
</svg>
