<?xml version="1.0" encoding="UTF-8" standalone="no"?>
<svg xmlns:sketch="http://www.bohemiancoding.com/sketch/ns" xmlns="http://www.w3.org/2000/svg" height="2003px" width="1200px" version="1.1" xmlns:xlink="http://www.w3.org/1999/xlink" viewBox="0 0 1200 2003"><!-- Generator: Sketch 3.2.2 (9983) - http://www.bohemiancoding.com/sketch -->
 <title>bg</title>
 <desc>Created with Sketch.</desc>
 <defs>
  <rect id="path-1" y="0" x="0" height="2281" width="1200"/>
 </defs>
 <g id="Blank-Project" fill-rule="evenodd" sketch:type="MSPage" fill="none">
  <g id="Portada-Web-2" sketch:type="MSArtboardGroup">
   <g id="bg" sketch:type="MSLayerGroup">
    <g id="Rectangle-249">
     <use xlink:href="#path-1" fill-rule="evenodd" sketch:type="MSShapeGroup" fill="#317549"/>
     <use xlink:href="#path-1" fill="none"/>
    </g>
    <g id="fresa" sketch:type="MSShapeGroup" transform="translate(708.15 921.25)">
     <path id="Stroke-507" fill="#2C6941" d="m187.66 120.23c-0.97-3.75-1.59-6.68-2.13-9.19-1.53-7.19-2.23-10.47-8.06-19.391-5.66-8.645-9.25-18.794-11.88-26.203-1.12-3.175-2.09-5.917-2.84-7.365-0.64-1.226-1.44-3.296-2.55-6.16-3.55-9.125-9.49-24.397-17.64-31.76-11.35-10.244-17.54-13.284-24.53-12.046-5.48 0.9711-7.71 1.0267-8.76 0.8219-2.77 0.7652-14.779 4.3521-27.335 12.013-1.74 2.999-4.691 6.006-6.876 8.233-0.769 0.781-1.716 1.748-1.968 2.098-0.813 1.809-4.718 3.404-7.565 4.355 2.797 2.749 3.893 7.185 2.632 11.801-1.466 5.364-1.995 13.424-1.55 15.642l1.004 5.022-4.087-3.084c-0.011-0.007-2.032-1.473-4.22-1.169-0.484 0.067-1.131 0.217-1.884 0.385-3.099 0.692-8.256 1.845-11.801-0.092-0.188 2.341-0.39 4.62-0.583 6.421-0.358 3.356 0.785 9.441 1.62 13.884 1.011 5.373 1.274 6.972 0.646 8.106-0.573 1.036-0.799 2.189-0.801 2.2l-0.713 3.711c-0.563-0.589-1.125-1.175-1.688-1.763 1.303 6.95 4.356 17.83 11.069 22.07 8.917 5.63 9.493 5.74 39.683 11.5 6.077 1.16 13.337 2.54 22.087 4.25 29.05 5.65 55.5 7.33 59.76 5.06l1.21-0.64c5.72-2.96 12.84-6.66 9.75-18.71z"/>
     <path id="Stroke-509" fill="#2C6941" d="m55.309 24.698c-4.375-5.414-11.301-12.316-19.727-16.918-13.116-7.1648-21.86-7.2409-21.86-7.2409l0.443 3.2158-2.233 3.76s2.399 0.9715 7.97 1.4967c5.571 0.5238 8.061 0.9924 18.28 7.0904 5.872 3.505 11.405 11.391 15.079 17.498 0.446-2.774 1.219-5.933 2.048-8.902z"/>
     <path id="Stroke-511" fill="#2C6941" d="m109.84 0.53908s-10.488 9.0943-19.264 11.659c-3.417 0.998-5.215 1.817-6.153 2.449 1.332 1.693 0.671 4.044-0.842 6.487 3.395-1.88 28.839-16.172 26.259-20.595v0.00008z"/>
     <path id="Stroke-513" fill="#2C6941" d="m68.027 12.615s7.573-4.3324 12.961 0.319c5.388 4.652-9.215 16.026-9.496 17.539-0.279 1.512-14.863 7.151-14.21 3.621 0.653-3.531 6.211-6.808 10.39-11.112l1.21 7.527-0.855-17.894z"/>
     <path id="Stroke-515" fill="#2C6941" d="m38.733 46.634c1.54-2.692 7.392-12.044 13.685-10.882 2.875 0.531 5.301 2.165 6.829 4.602 1.811 2.889 2.259 6.707 1.226 10.474-1.532 5.598-2.086 14.008-1.621 16.324 0.164 0.822-0.196 1.66-0.904 2.107-0.709 0.446-1.619 0.408-2.288-0.096-0.012-0.008-2.134-1.542-4.431-1.223-0.51 0.071-1.193 0.227-1.987 0.406-4.379 0.981-12.531 2.809-15.344-3.344-3.078-6.732 0.231-10.746 0.372-10.914 0.563-0.663 1.489-0.889 2.295-0.563 0.805 0.326 1.313 1.132 1.257 2-0.009 0.129-0.83 12.881-1.532 19.431-0.376 3.504 0.82 9.853 1.694 14.49 1.056 5.602 1.331 7.27 0.677 8.449-0.6 1.082-0.837 2.285-0.84 2.295-0.142 0.75-0.688 1.35-1.411 1.56-0.724 0.22-1.506 0.01-2.028-0.54-1.939-2.019-8.303-8.898-8.8-12.45-0.434-3.107-0.692-19.576 1.648-25.993 0.465-1.279 0.866-2.32 1.211-3.172-1.438 0.424-3.292 1.29-5.348 3.021-2.867 2.416-4.802 4.433-6.356 6.054-1.443 1.506-2.584 2.694-3.865 3.572-0.78 0.535-1.713 0.967-2.702 1.425-2.3159 1.074-3.9477 1.924-3.8352 3.096 0.2793 2.926 0.8628 3.973 0.8686 3.983 0.4869 0.852 0.3129 1.965-0.443 2.591-0.7545 0.627-1.8293 0.654-2.575 0.018-0.1448-0.123-3.5386-3.075-3.9158-8.295-0.32317-4.466 1.6055-9.117 5.7348-13.825 8.1736-9.318 14.264-8.769 18.711-8.367 1.51 0.136 2.815 0.255 3.846-0.091 3.991-1.334 8.95-5.167 10.172-6.143z"/>
     <g id="Group" transform="translate(54.042 7.7246)">
      <path id="Stroke-385" fill="#317549" d="m38.306 65.793c1.387 0.945 2.97 0.996 3.538 0.112 0.565-0.882-0.098-2.364-1.485-3.309-1.386-0.945-2.969-0.996-3.535-0.113-0.568 0.883 0.096 2.365 1.482 3.31z"/>
      <path id="Stroke-387" fill="#317549" d="m85.097 77.497c1.386 0.945 2.97 0.997 3.537 0.114 0.566-0.883-0.098-2.365-1.484-3.311-1.386-0.945-2.97-0.996-3.535-0.112-0.568 0.882 0.096 2.364 1.482 3.309z"/>
      <path id="Stroke-389" fill="#317549" d="m65.653 13.167c1.624 0.231 3.049-0.462 3.18-1.551 0.132-1.087-1.078-2.1563-2.702-2.3889-1.625-0.2312-3.047 0.4623-3.18 1.5509-0.132 1.087 1.077 2.158 2.702 2.389z"/>
      <path id="Stroke-391" fill="#317549" d="m4.2133 67.189c1.2005 1.182 2.7636 1.538 3.4932 0.794 0.7282-0.743 0.3466-2.304-0.8539-3.485-1.2005-1.182-2.7636-1.537-3.4932-0.794-0.7282 0.743-0.3466 2.303 0.8539 3.485z"/>
      <path id="Stroke-393" fill="#317549" d="m74.483 26.239c1.237 1.143 2.809 1.444 3.509 0.673 0.702-0.769 0.267-2.32-0.971-3.461-1.238-1.143-2.808-1.444-3.51-0.675-0.701 0.771-0.265 2.321 0.972 3.463z"/>
      <path id="Stroke-395" fill="#317549" d="m40.852 18.924c1.237 1.143 2.809 1.444 3.509 0.673 0.702-0.77 0.267-2.32-0.97-3.462-1.239-1.142-2.809-1.444-3.511-0.674-0.701 0.771-0.265 2.32 0.972 3.463z"/>
      <path id="Stroke-397" fill="#317549" d="m79.248 106.76c1.387 0.94 2.97 0.99 3.538 0.11 0.565-0.88-0.098-2.36-1.485-3.31-1.386-0.94-2.969-0.99-3.535-0.11-0.568 0.88 0.096 2.36 1.482 3.31z"/>
      <path id="Stroke-399" fill="#317549" d="m74.862 118.46c1.386 0.95 2.97 1 3.537 0.12 0.566-0.89-0.098-2.37-1.484-3.31-1.386-0.95-2.97-1-3.536-0.12-0.567 0.89 0.097 2.37 1.483 3.31z"/>
      <path id="Stroke-401" fill="#317549" d="m67.172 59.889c1.237 1.143 2.809 1.444 3.509 0.673 0.702-0.769 0.266-2.32-0.971-3.461-1.238-1.143-2.809-1.444-3.51-0.675-0.701 0.771-0.265 2.321 0.972 3.463z"/>
      <path id="Stroke-403" fill="#317549" d="m80.711 62.867c1.386 0.945 2.969 0.996 3.537 0.112 0.566-0.882-0.098-2.364-1.484-3.309-1.387-0.945-2.97-0.996-3.536-0.113-0.567 0.882 0.096 2.365 1.483 3.31z"/>
      <path id="Stroke-405" fill="#317549" d="m1.3724 96.466c1.237 1.142 2.8089 1.444 3.5093 0.673 0.7018-0.77 0.2661-2.321-0.9709-3.462-1.2385-1.142-2.809-1.444-3.5108-0.674-0.70042 0.771-0.26468 2.32 0.9724 3.463z"/>
      <path id="Stroke-407" fill="#317549" d="m15.994 100.85c1.238 1.15 2.809 1.45 3.51 0.68 0.702-0.77 0.266-2.323-0.971-3.464-1.239-1.142-2.809-1.444-3.511-0.674-0.7 0.771-0.265 2.32 0.972 3.458z"/>
      <path id="Stroke-409" fill="#317549" d="m26.609 68.719c1.386 0.945 2.969 0.996 3.537 0.114 0.566-0.884-0.098-2.366-1.484-3.311-1.387-0.945-2.97-0.996-3.536-0.113-0.567 0.883 0.097 2.365 1.483 3.31z"/>
      <path id="Stroke-411" fill="#317549" d="m71.937 73.108c1.387 0.945 2.97 0.996 3.537 0.114 0.566-0.884-0.097-2.366-1.484-3.311-1.386-0.945-2.969-0.996-3.535-0.112-0.568 0.882 0.096 2.364 1.482 3.309z"/>
      <path id="Stroke-413" fill="#317549" d="m96.359 90.709c1.625 0.231 3.049-0.462 3.181-1.551 0.131-1.087-1.078-2.157-2.703-2.389-1.624-0.231-3.047 0.462-3.18 1.551-0.131 1.087 1.078 2.158 2.702 2.389z"/>
      <path id="Stroke-415" fill="#317549" d="m59.861 20.387c1.237 1.143 2.809 1.444 3.509 0.673 0.702-0.77 0.266-2.32-0.971-3.462-1.238-1.142-2.809-1.444-3.51-0.674-0.701 0.771-0.265 2.32 0.972 3.463z"/>
      <path id="Stroke-417" fill="#317549" d="m21.843 78.909c1.237 1.143 2.809 1.444 3.51 0.673 0.702-0.769 0.266-2.32-0.971-3.461-1.239-1.143-2.809-1.445-3.511-0.675-0.7 0.771-0.265 2.32 0.972 3.463z"/>
      <path id="Stroke-419" fill="#317549" d="m70.475 86.276c1.386 0.945 2.97 0.996 3.537 0.112 0.566-0.882-0.098-2.364-1.484-3.309s-2.97-0.997-3.536-0.113c-0.567 0.882 0.097 2.364 1.483 3.31z"/>
      <path id="Stroke-421" fill="#317549" d="m57.315 93.591c1.386 0.945 2.97 0.996 3.537 0.112 0.566-0.882-0.098-2.364-1.484-3.309s-2.97-0.996-3.535-0.113c-0.568 0.883 0.096 2.365 1.482 3.31z"/>
      <path id="Stroke-423" fill="#317549" d="m65.71 35.018c1.237 1.142 2.809 1.444 3.509 0.673 0.702-0.77 0.266-2.321-0.971-3.462-1.238-1.143-2.809-1.444-3.511-0.674-0.7 0.771-0.264 2.32 0.973 3.463z"/>
      <path id="Stroke-425" fill="#317549" d="m40.852 30.628c1.237 1.143 2.809 1.444 3.509 0.673 0.702-0.769 0.267-2.32-0.97-3.461-1.239-1.143-2.809-1.444-3.511-0.675-0.701 0.771-0.265 2.321 0.972 3.463z"/>
      <path id="Stroke-427" fill="#317549" d="m73.4 95.054c1.386 0.945 2.969 0.996 3.537 0.114 0.566-0.884-0.098-2.366-1.484-3.311-1.387-0.945-2.97-0.996-3.536-0.113-0.567 0.883 0.096 2.365 1.483 3.31z"/>
      <path id="Stroke-429" fill="#317549" d="m59.861 48.185c1.237 1.143 2.809 1.444 3.509 0.673 0.702-0.77 0.266-2.32-0.971-3.462-1.238-1.142-2.809-1.444-3.51-0.674-0.701 0.771-0.265 2.32 0.972 3.463z"/>
      <path id="Stroke-431" fill="#317549" d="m57.315 77.497c1.386 0.945 2.97 0.997 3.537 0.113 0.566-0.882-0.098-2.364-1.484-3.31-1.386-0.945-2.97-0.996-3.535-0.112-0.568 0.882 0.096 2.364 1.482 3.309z"/>
      <path id="Stroke-433" fill="#317549" d="m48.542 81.886c1.386 0.946 2.97 0.997 3.537 0.113 0.566-0.882-0.098-2.364-1.484-3.309-1.386-0.946-2.97-0.997-3.536-0.113-0.567 0.882 0.097 2.364 1.483 3.309z"/>
      <path id="Stroke-435" fill="#317549" d="m43.777 48.185c1.237 1.143 2.808 1.444 3.509 0.673 0.702-0.77 0.266-2.32-0.971-3.462-1.239-1.142-2.809-1.444-3.511-0.674-0.7 0.771-0.264 2.32 0.973 3.463z"/>
      <path id="Stroke-437" fill="#317549" d="m96.416 36.481c1.237 1.142 2.809 1.444 3.51 0.673 0.704-0.77 0.264-2.321-0.971-3.462-1.239-1.143-2.809-1.444-3.511-0.674-0.7 0.771-0.265 2.32 0.972 3.463z"/>
      <path id="Stroke-439" fill="#317549" d="m32.079 52.574c1.237 1.143 2.809 1.444 3.509 0.673 0.702-0.769 0.266-2.32-0.971-3.461-1.238-1.143-2.809-1.444-3.511-0.675-0.7 0.771-0.264 2.321 0.973 3.463z"/>
      <path id="Stroke-441" fill="#317549" d="m54.391 64.33c1.386 0.945 2.97 0.996 3.537 0.112 0.566-0.882-0.098-2.364-1.484-3.309s-2.97-0.996-3.536-0.113c-0.567 0.883 0.097 2.365 1.483 3.31z"/>
      <path id="Stroke-443" fill="#317549" d="m47.08 99.443c1.386 0.947 2.969 0.997 3.537 0.113 0.566-0.883-0.098-2.365-1.484-3.31-1.387-0.945-2.97-0.996-3.536-0.112-0.567 0.882 0.097 2.364 1.483 3.309z"/>
      <path id="Stroke-445" fill="#317549" d="m33.92 105.3c1.386 0.94 2.97 0.99 3.537 0.11 0.566-0.88-0.098-2.37-1.484-3.31-1.386-0.95-2.97-1-3.536-0.11-0.567 0.88 0.097 2.36 1.483 3.31z"/>
      <path id="Stroke-447" fill="#317549" d="m92.408 67.256c1.387 0.945 2.97 0.996 3.537 0.114 0.566-0.884-0.097-2.366-1.484-3.311-1.386-0.945-2.969-0.996-3.535-0.113-0.568 0.883 0.096 2.365 1.482 3.31z"/>
      <path id="Stroke-449" fill="#317549" d="m110.98 119.97c1.63 0.23 3.05-0.46 3.18-1.55s-1.08-2.16-2.7-2.39-3.05 0.46-3.18 1.55 1.08 2.16 2.7 2.39z"/>
      <path id="Stroke-451" fill="#317549" d="m96.795 80.423c1.386 0.945 2.97 0.997 3.535 0.114 0.57-0.883-0.1-2.365-1.482-3.31-1.386-0.946-2.97-0.997-3.536-0.113-0.567 0.882 0.097 2.364 1.483 3.309z"/>
      <path id="Stroke-453" fill="#317549" d="m106.59 87.783c1.63 0.231 3.05-0.463 3.19-1.551 0.13-1.087-1.08-2.157-2.71-2.389-1.62-0.231-3.04 0.462-3.18 1.551-0.13 1.087 1.08 2.158 2.7 2.389z"/>
      <path id="Stroke-455" fill="#317549" d="m98.257 59.941c1.386 0.945 2.973 0.996 3.533 0.112 0.57-0.882-0.09-2.364-1.48-3.309-1.386-0.945-2.97-0.997-3.535-0.113-0.568 0.882 0.096 2.364 1.482 3.31z"/>
      <path id="Stroke-457" fill="#317549" d="m59.804 117.04c1.624 0.23 3.049-0.46 3.18-1.55 0.132-1.08-1.077-2.15-2.702-2.39-1.624-0.23-3.047 0.47-3.18 1.55-0.132 1.09 1.077 2.16 2.702 2.39z"/>
      <path id="Stroke-459" d="m84.719 30.628c1.237 1.143 2.808 1.444 3.509 0.673 0.702-0.769 0.266-2.32-0.971-3.461-1.239-1.143-2.809-1.444-3.511-0.675-0.7 0.771-0.264 2.321 0.973 3.463z"/>
      <path id="Stroke-461" d="m95.333 109.68c1.386 0.95 2.97 1 3.537 0.12 0.566-0.89-0.098-2.37-1.484-3.31-1.386-0.95-2.97-1-3.536-0.12-0.567 0.89 0.097 2.37 1.483 3.31z"/>
      <path id="Stroke-463" d="m99.719 99.443c1.391 0.947 2.971 0.997 3.541 0.113 0.56-0.883-0.1-2.365-1.49-3.31-1.38-0.945-2.967-0.996-3.533-0.112-0.568 0.882 0.096 2.364 1.482 3.309z"/>
      <path id="Stroke-467" d="m89.484 100.91c1.386 0.94 2.97 0.99 3.537 0.11 0.566-0.88-0.098-2.366-1.484-3.311s-2.97-0.996-3.536-0.112c-0.567 0.882 0.097 2.364 1.483 3.313z"/>
      <path id="Stroke-469" d="m74.483 48.185c1.237 1.143 2.809 1.444 3.509 0.673 0.702-0.77 0.267-2.32-0.971-3.462s-2.808-1.444-3.51-0.674c-0.701 0.771-0.265 2.32 0.972 3.463z"/>
      <path id="Stroke-471" d="m83.635 114.07c1.386 0.95 2.97 1 3.537 0.12 0.566-0.89-0.098-2.37-1.484-3.31-1.386-0.95-2.97-1-3.536-0.12-0.567 0.89 0.097 2.37 1.483 3.31z"/>
      <path id="Stroke-473" d="m89.105 54.037c1.237 1.143 2.809 1.444 3.51 0.673 0.701-0.769 0.266-2.32-0.971-3.461-1.239-1.143-2.809-1.444-3.511-0.675-0.701 0.771-0.265 2.321 0.972 3.463z"/>
      <path id="Stroke-475" d="m109.19 111.19c1.57 0.5 3.08 0.06 3.37-0.99 0.29-1.04-0.75-2.29-2.33-2.79-1.57-0.5-3.09-0.06-3.37 0.99-0.29 1.04 0.75 2.29 2.33 2.79z"/>
      <path id="Stroke-479" d="m53.199 4.0345c0.772 1.4791 2.175 2.3101 3.132 1.8537 0.958-0.4565 1.107-2.0249 0.335-3.5055-0.772-1.4792-2.174-2.3087-3.132-1.8537-0.958 0.45648-1.107 2.0263-0.335 3.5055z"/>
      <path id="Stroke-483" fill="#317549" d="m84.231 17.34c0.992 1.356 2.491 1.972 3.349 1.374 0.86-0.599 0.751-2.183-0.238-3.539-0.992-1.358-2.492-1.973-3.35-1.374-0.859 0.598-0.752 2.183 0.239 3.539z"/>
      <path id="Stroke-487" fill="#317549" d="m107.63 65.621c0.99 1.356 2.49 1.972 3.35 1.373 0.86-0.598 0.75-2.182-0.24-3.539s-2.49-1.972-3.35-1.373c-0.86 0.598-0.75 2.182 0.24 3.539z"/>
      <path id="Stroke-489" fill="#317549" d="m78.057 6.9606c0.772 1.4791 2.174 2.3101 3.132 1.8537 0.958-0.4565 1.107-2.0249 0.335-3.5055-0.772-1.4791-2.175-2.3087-3.132-1.8537-0.958 0.4565-1.107 2.0263-0.335 3.5055z"/>
      <path id="Stroke-491" fill="#317549" d="m101.78 49.527c0.99 1.356 2.49 1.972 3.35 1.374s0.75-2.183-0.24-3.539c-0.99-1.358-2.49-1.972-3.35-1.374s-0.75 2.183 0.24 3.539z"/>
      <path id="Stroke-497" fill="#317549" d="m100.32 127.07c0.99 1.36 2.49 1.97 3.34 1.37 0.86-0.6 0.76-2.18-0.23-3.54-1-1.35-2.5-1.97-3.35-1.37-0.862 0.6-0.756 2.18 0.24 3.54z"/>
      <path id="Stroke-499" fill="#317549" d="m41.441 121.41c1.455 0.82 3.03 0.73 3.518-0.21 0.487-0.94-0.295-2.37-1.75-3.19s-3.03-0.73-3.518 0.21c-0.489 0.93 0.295 2.36 1.75 3.19z"/>
      <path id="Stroke-501" fill="#317549" d="m12.583 86.103c0.991 1.357 2.49 1.973 3.348 1.374 0.86-0.598 0.752-2.183-0.238-3.539-0.991-1.358-2.492-1.972-3.35-1.374-0.858 0.599-0.751 2.183 0.24 3.539z"/>
      <path id="Stroke-503" fill="#317549" d="m19.568 37.685c0.772 1.479 2.175 2.31 3.132 1.853 0.958-0.456 1.107-2.025 0.335-3.505-0.772-1.479-2.174-2.309-3.132-1.854-0.958 0.457-1.107 2.027-0.335 3.506z"/>
      <path id="Stroke-505" fill="#317549" d="m9.3328 110.84c0.7722 1.48 2.1742 2.31 3.1322 1.85s1.107-2.02 0.335-3.5-2.175-2.31-3.1324-1.86c-0.9577 0.46-1.1069 2.03-0.3348 3.51z"/>
     </g>
    </g>
    <g id="Group-28" sketch:type="MSShapeGroup" transform="translate(334.6 21)">
     <path id="Stroke-8" stroke="#2D6C43" stroke-width="10" d="m0.6257 608.92c-7.6599-12.25 110.82-135.68 110.82-135.68s34.28-44.59 137.71-90.72c103.44-46.13 243.27-167.47 243.27-167.47"/>
     <path id="Fill-4" fill="#2D6C43" d="m354.2 453.15c29.7 12.11 63.75-1.78 76.05-31.02 12.31-29.25-1.8-62.79-31.5-74.9-29.7-12.12-63.74 1.77-76.05 31.02-12.3 29.25 1.8 62.78 31.5 74.9"/>
     <path id="Stroke-6" d="m354.2 453.15c29.7 12.11 63.75-1.78 76.05-31.02 12.31-29.25-1.8-62.79-31.5-74.9-29.7-12.12-63.74 1.77-76.05 31.02-12.3 29.25 1.8 62.78 31.5 74.9z"/>
     <path id="Fill-10" fill="#2D6C43" d="m632.62 266.2c29.7 12.29 63.75-1.8 76.05-31.46 12.3-29.67-1.8-63.69-31.5-75.98s-63.75 1.8-76.05 31.47c-12.31 29.67 1.8 63.69 31.5 75.97"/>
     <path id="Stroke-12" d="m632.62 266.2c29.7 12.29 63.75-1.8 76.05-31.46 12.3-29.67-1.8-63.69-31.5-75.98s-63.75 1.8-76.05 31.47c-12.31 29.67 1.8 63.69 31.5 75.97z"/>
     <path id="Fill-14" fill="#2D6C43" d="m485.78 336.17c29.7 12.29 63.75-1.8 76.05-31.47 12.31-29.67-1.8-63.69-31.5-75.98s-63.74 1.81-76.05 31.48c-12.3 29.67 1.8 63.68 31.5 75.97"/>
     <path id="Stroke-16" d="m485.78 336.17c29.7 12.29 63.75-1.8 76.05-31.47 12.31-29.67-1.8-63.69-31.5-75.98s-63.74 1.81-76.05 31.48c-12.3 29.67 1.8 63.68 31.5 75.97z"/>
     <path id="Fill-18" fill="#2D6C43" d="m327.33 347.21c29.7 12.29 63.75-1.8 76.05-31.46 12.31-29.67-1.8-63.69-31.5-75.98s-63.74 1.8-76.05 31.47c-12.3 29.67 1.8 63.68 31.5 75.97"/>
     <path id="Stroke-20" d="m327.33 347.21c29.7 12.29 63.75-1.8 76.05-31.46 12.31-29.67-1.8-63.69-31.5-75.98s-63.74 1.8-76.05 31.47c-12.3 29.67 1.8 63.68 31.5 75.97z"/>
     <path id="Fill-22" fill="#2D6C43" d="m145.79 439.46c29.7 12.29 63.74-1.81 76.04-31.47 12.31-29.67-1.79-63.69-31.49-75.98s-63.75 1.8-76.05 31.47c-12.31 29.67 1.8 63.69 31.5 75.98"/>
     <path id="Stroke-24" d="m145.79 439.46c29.7 12.29 63.74-1.81 76.04-31.47 12.31-29.67-1.79-63.69-31.49-75.98s-63.75 1.8-76.05 31.47c-12.31 29.67 1.8 63.69 31.5 75.98z"/>
     <path id="Stroke-26" fill="#2D6C43" d="m553.88 118.43c-29.85-20.728-187.47-88.231-187.47-88.231l-52.12-29.326c0-0.00001 6.57 46.511 29.85 65.724 23.27 19.214 173.42 194.01 228.59 120.21 0 0 11.01-47.65-18.85-68.38z"/>
    </g>
    <g id="alfalfa-2" sketch:type="MSShapeGroup" fill="#2C6A42" transform="translate(243.7 1014.4) scale(-1 1) translate(-100.7 -96.82)">
     <path id="Stroke-521" d="m179.73 189.27s-55.94-45.94-70.56-62.53l-11.446-22.97-4.451 1.91 11.447 24.25s52.76 52.96 69.93 62.53c0 0 3.81 0 5.08-3.19z"/>
     <path id="Stroke-523" d="m94.154 102.81c0.335-0.15 5.382-2.54 7.446-13.435 2.42-12.753 1.87-20.701 0.59-34.796-1.06-11.752-1.24-20.747-1.27-23.607-0.48-0.799-0.96-1.599-1.439-2.399-3.282-4.591-13.561-17.943-19.857-21.832-5.673-3.5044-8.876-5.1485-10.205-5.7871-1.383 0.1717-2.763 0.3451-4.145 0.5186-0.768 0.0967-1.544-0.0751-2.2-0.48692-0.316-0.19842-0.633-0.39684-0.949-0.59527-0.433 0.69369-1.011 1.3173-1.759 1.8175-1.779 1.2455-13.89 13.107-15.041 28.706-0.088 1.21-0.818 2.271-1.891 2.791 0.236 8.911 1.813 27.977 10.611 38.133 0.653 0.754 0.933 1.75 0.787 2.718 2.755 4.519 17.683 20.199 22.898 24.269 6.242 4.875 11.556 6.195 16.251 4.055l0.173-0.07z"/>
     <path id="Stroke-525" d="m112.22 123.33c-0.78-3.11-2.44-13.24 6.03-23.16 7.17-8.396 12.67-16.123 16.3-21.235 2-2.808 3.73-5.232 4.5-6.008 1.12-1.124 10.11-9.959 19.72-13.769 0.16 0.227 0.36 0.433 0.59 0.615 1.02 0.826 2.43 0.977 3.61 0.387 3.15-1.581 6.3-3.163 9.45-4.745 2.44 0.016 9.89 0.103 13.36 0.602 3.41 0.488 7.46 1.99 10.83 4.018 0.73 0.442 1.44 0.757 2.12 0.972-0.07 1.556 0.18 3.293 0.97 5.121 1.56 3.666 2.64 17.507-7.73 29.651-8.29 9.701-10.67 11.021-10.92 11.141 0.5-0.24 1.97-0.37 3.14 0.79 0.96 0.97 1.25 2.42 0.72 3.68-0.52 1.26-1.74 2.09-3.1 2.09h3.81c-1.36 0-2.59-0.83-3.11-2.09s-0.23-2.71 0.73-3.68c-0.09 0.1-10.55 10.24-33.28 15.04-2.61 0.55-5.01 1.07-7.23 1.56-17.5 3.81-22.12 4.82-30.51-0.98z"/>
     <path id="Stroke-527" d="m99.197 132.1c-0.478 0.73-0.656 1.63-0.491 2.49-0.004 0.01 1.129 11.82-25.236 29.08-26.552 17.38-38.573 20.31-53.922 16.84-0.002-0.21-0.022-0.41-0.06-0.61-0.244-1.27-1.186-2.29-2.429-2.63-7.2264-1.95-14.53-4.94-15.626-6.4l-1.1297-3.53c-0.01989-0.06-0.04149-0.11-0.06309-0.17 0.87549-1.14 1.5068-2.45 1.5068-3.86 0.0017-0.12 1.0699-12.32 10.622-18.91 10.183-7.03 14.073-10.27 14.234-10.4 1.01-0.85 1.422-2.19 1.107-3.43 2.628-0.98 7.256-2.48 14.649-4.17 14.053-3.2 29.033-3 37.591-1.86 9.022 1.21 15.764 4.21 17.526 6.42 0.442 0.55 1.045 0.95 1.721 1.14z"/>
     <path id="Stroke-529" d="m66.692 15.397c1.118 3.34 27.392 81.929 28.661 94.043"/>
     <path id="Stroke-531" d="m185.93 68.754c-0.27 0.22-27.48 22.103-43.78 32.796-9.71 6.37-20.82 15.12-28.93 21.5-5.68 4.47-10.16 8-11.64 8.74"/>
     <path id="Stroke-533" d="m8.5467 163.62c0.3107-0.07 31.119-7.04 39.796-11.4 8.784-4.41 29.257-12.78 33.205-14.1 3.811-1.27 13.652-3.75 14.069-3.85l13.963-3.82"/>
    </g>
    <path id="Stroke-180" opacity=".072178" fill="#000" d="m788.7 1534.2c-4.38-2.3-8.78-4.4-13.29-6.5-16.9-7.9-36.06-17-61.15-41.8-25.82-25.5-39.93-44.3-44.31-50.4-9.13-1.7-40.24-8.1-59.24-22.8-31.38-24.3-32.51-44.2-27.94-56.6 5.44-14.8 9.57-26 22.93-39.3-3.29-0.7-6.33-0.9-7.94-0.2-1.48 0.6-3.37 1.3-5.47 2.1-5.15 2-17.22 6.8-19.33 9-3.27 4.6-12.39 9.4-15.1 10.7-11.68 3.9-24.76 8.7-27.94 10.6-1.51 2.7-5.83 12.8-9.22 21.3-0.84 2.1-2.83 3.5-5.09 3.7-2.27 0.1-4.41-1.1-5.52-3-0.57-1.1-1.14-2.1-1.71-3.1-1.91 1.7-3.8 3.9-4.71 6.1-3.7 9-16.47 15.3-18.99 16.4-2.38 1.1-5.2 0.5-6.92-1.5-1.71-1.9-1.91-4.8-0.48-7-0.01 0 2.34-4 0.65-5.8-1.68-1.8-6.16-6.5 3.59-23.8-2.1 1-3.61 1.9-4.14 2.6-0.73 1.4-2 2.5-3.58 2.9-1.57 0.5-3.22 0.2-4.63-0.7-3.41-2-8.26-8.8-2.11-19.8 2.5-4.5 4.02-7.7 4.94-9.8-3.14 0.5-5.59-0.6-6.85-2.7-2.33-3.9-4.16-13.1 5.52-20.4 1.08-0.8 2.14-1.6 3.17-2.3-0.28-0.3-0.53-0.7-0.75-1.1-1.04-1.8-1.02-4.1 0.06-5.9 0.13-0.2 3.16-5.2 10.62-13.8 7.31-8.4 19.21-13.4 21.9-14.5 5.45-3.2 27.58-16.1 32.6-18.1 10.57-4.2 27.81-10.2 36.41-8.5 0.33-2 1.67-3.7 3.57-4.5 2.21-0.9 4.75-0.4 6.43 1.3 3.91 4 7.82 7.9 11.74 11.9 3.14-3.1 5.99-6.2 6.73-7.6 1.23-2.2 3.37-3.6 5.86-3.9 0.48-0.1 0.98-0.1 1.49 0-0.31-1.5-0.62-2.9-0.93-4.3-0.42-1.9 0.13-3.9 1.47-5.3 0.85-0.9 1.94-1.5 3.12-1.7l-2.31-5.7c-0.65-1.7-0.54-3.5 0.32-5.1 0.85-1.5 2.36-2.6 4.09-2.9 0.25-0.1 8.08-1.9 12.66-12.5 5.68-13.3 8.62-27.7 8.65-27.9 0.47-2.3 2.35-4.2 4.73-4.6 2.37-0.4 4.77 0.7 6.04 2.7 0.89 1.4 2.09 3 3.1 4.1 1.13-0.7 2.46-1 3.76-0.8 1.03 0.1 10.13 1.7 13.54 9.4 2.33 5.3 5.02 15.8 5.32 16.9 0.56 2.2-0.2 4.5-1.93 6-1.51 1.2-3.09 2.7-4.37 4 2.59 2.2 4.21 4.7 4.64 5.4 1.23 2.1 1.1 4.7-0.32 6.6s-3.86 2.7-6.17 2.2c-1.34-0.4-2.88-0.6-4.21-0.8 0.18 1.5 0.4 2.5 0.4 2.5 0.38 1.8-0.1 3.7-1.28 5.1-1.19 1.4-2.96 2.1-4.79 2-1.33 0-2.9 0.1-4.11 0.2 0.35 1.2 0.7 2.4 1.06 3.6 0.45 1.5 0.28 3.1-0.49 4.5s-2.06 2.4-3.59 2.8c-4.16 1.2-8.92 3-9.98 3.9 0 0 0.56-0.5 0.93-1.5 0.67-1.8 0.43-3.5-0.7-5.1-1.29-1.8-3.17-2.2-3.73-2.2 3.48-0.1 19.35-5.9 24.8-15.6 10.26-18.3 19.2-26.7 26.58-24.8l1.53 0.4c12.77 3.3 16.53 3.5 17.63 3.3-0.73 0.1-2.46 1-3.15 3.1-0.82 2.5 0.08 4.6 2.19 6.1 2.3 1.6 5.03 1.1 6.15 0.2-1.34 1.1-4.46 5.3-4.69 6.9-0.1 2.5 1.96 8.9 3.39 12.5 0.61 1.5 0.55 3.2-0.16 4.7-0.72 1.5-2.03 2.6-3.61 3.1-0.09 0-9.47 2.9-15.79 6.5-1.09 0.6-2.25 1.4-3.41 2.3 1.02-0.3 2.1-0.7 3.23-1.2 10.2-4.2 13.83-8.1 13.87-8.1 1.56-1.7 4.05-2.4 6.25-1.7 0.06 0 7.05 2.3 20.68 5.9 11.78 3.1 27.17-3.6 27.32-3.7 2.84-1.3 6.17-0.1 7.61 2.6 1.44 2.8 0.5 6.2-2.15 7.8-0.37 0.2-1.41 1.2-1.56 2-0.13 0.8 0.57 1.8 1.01 2.4 4.47 6 10.46 7.5 10.52 7.5 3.11 0.7 5.13 3.7 4.57 6.8-0.09 0.5-2.4 12.2-20.58 9.8-8.79-1.2-14.08-5.2-17.94-8.1-1.51-1.2-3.38-2.6-4.1-2.6-0.88 1.2-0.86 2.2-0.75 2.7 4.87 9.2 1.83 15.2-2.71 17.6-0.86 0.7-2.44 4.1-3.08 6.4-0.67 2.4-2.85 4.2-5.39 4.3s-4.88-1.4-5.78-3.8c-1.91-5-7.7-15.7-13.41-16.5l-1.17-0.2c-10.11-1.6-31.15-4.9-41.59 2.4-5.92 4.2-8.85 8.4-10.26 12.4 9.47-1.9 24.87-3.6 38.85 1.3 21.17 7.4 31.12 31.7 36.46 44.7l1.05 2.5c5.88 14.2 1.24 36.5-6.61 47.7l-1.17 1.6c-6.67 9.4-14.97 21.2-10.12 34.7 5.6 15.6 24.45 41.7 39.54 54.8 14.57 12.6 28.11 21.5 48.01 33.4 20.8 12.5 35.16 33.4 36.71 39.6 0.65 2.6 0.26 5.2-1.1 7.3-2.33 3.7-6.62 4.7-7.45 4.9-2.37 0.4-4.79-0.6-6.11-2.6-0.11-0.2-11.71-17.9-30.83-28z" sketch:type="MSShapeGroup"/>
    <path id="Stroke-181" opacity=".088444" d="m1032.8 1647.8c-3.4-1.8-6.8-3.4-10.2-5-13-6.1-27.66-13-46.9-32.1-19.79-19.5-30.6-33.9-33.96-38.6-7-1.3-30.85-6.2-45.41-17.5-24.05-18.6-24.92-33.9-21.41-43.4 4.16-11.3 7.33-19.9 17.57-30.1-2.52-0.5-4.85-0.7-6.08-0.2-1.14 0.5-2.58 1.1-4.19 1.7-3.95 1.5-13.2 5.1-14.82 6.8-2.51 3.6-9.5 7.2-11.58 8.3-8.95 2.9-18.98 6.6-21.41 8.1-1.16 2.1-4.47 9.8-7.07 16.3-0.65 1.6-2.17 2.7-3.9 2.8-1.74 0.1-3.39-0.8-4.23-2.3-0.44-0.8-0.88-1.5-1.31-2.3-1.47 1.3-2.92 3-3.62 4.7-2.83 6.9-12.62 11.7-14.56 12.5-1.82 0.9-3.98 0.4-5.29-1.1-1.32-1.5-1.47-3.7-0.38-5.4 0 0 1.8-3 0.5-4.4-1.28-1.4-4.71-5 2.76-18.3-1.62 0.8-2.77 1.5-3.18 2-0.56 1.1-1.53 1.9-2.74 2.3-1.2 0.3-2.47 0.1-3.55-0.6-2.62-1.5-6.33-6.7-1.62-15.2 1.92-3.5 3.09-5.8 3.79-7.5-2.41 0.4-4.28-0.4-5.25-2-1.78-3-3.19-10.1 4.23-15.7 0.83-0.6 1.64-1.2 2.43-1.8-0.22-0.2-0.41-0.5-0.57-0.8-0.81-1.4-0.79-3.1 0.04-4.5 0.1-0.2 2.42-4 8.14-10.6 5.6-6.5 14.72-10.3 16.79-11.1 4.18-2.4 21.14-12.4 24.99-13.9 8.1-3.2 21.31-7.8 27.91-6.5 0.25-1.5 1.27-2.8 2.73-3.4 1.7-0.7 3.64-0.3 4.93 1 3 3 6 6 9 9.1 2.41-2.4 4.59-4.8 5.16-5.8 0.94-1.8 2.58-2.8 4.49-3.1h1.14c-0.24-1.1-0.48-2.1-0.71-3.2-0.32-1.5 0.1-3 1.13-4.1 0.65-0.7 1.48-1.1 2.39-1.3-0.59-1.5-1.18-2.9-1.77-4.4-0.5-1.3-0.41-2.7 0.24-3.9 0.66-1.2 1.81-2 3.14-2.2 0.19-0.1 6.19-1.4 9.7-9.6 4.35-10.2 6.61-21.2 6.63-21.4 0.36-1.8 1.8-3.2 3.63-3.5 1.82-0.3 3.66 0.5 4.63 2.1 0.68 1.1 1.6 2.3 2.37 3.1 0.87-0.5 1.89-0.8 2.89-0.6 0.78 0.1 7.76 1.3 10.37 7.2 1.79 4.1 3.85 12.1 4.08 13 0.43 1.7-0.15 3.4-1.48 4.5-1.16 1-2.37 2.1-3.35 3.1 1.99 1.7 3.23 3.6 3.56 4.2 0.94 1.6 0.84 3.5-0.25 5s-2.95 2.1-4.72 1.7c-1.03-0.3-2.22-0.5-3.23-0.6 0.14 1.1 0.3 1.9 0.31 1.9 0.29 1.4-0.08 2.8-0.99 3.9s-2.27 1.6-3.67 1.6c-1.02-0.1-2.22 0-3.15 0.1 0.27 0.9 0.54 1.8 0.81 2.7 0.35 1.2 0.22 2.5-0.37 3.5-0.59 1.1-1.58 1.9-2.75 2.2-3.19 0.9-6.84 2.3-7.66 2.9 0.01 0 0.43-0.3 0.72-1.1 0.52-1.4 0.33-2.7-0.53-3.9-1-1.4-2.44-1.7-2.87-1.7 2.67-0.1 14.84-4.5 19.01-12 7.87-14 14.72-20.4 20.37-19l1.18 0.3c9.79 2.5 12.67 2.7 13.51 2.6-0.55 0.1-1.88 0.8-2.41 2.4-0.63 1.8 0.06 3.5 1.68 4.6 1.76 1.3 3.85 0.9 4.71 0.2-1.03 0.8-3.42 4-3.6 5.2-0.07 1.9 1.51 6.9 2.61 9.6 0.46 1.2 0.42 2.5-0.13 3.7-0.55 1.1-1.55 2-2.77 2.3-0.07 0-7.25 2.2-12.1 5-0.83 0.5-1.72 1.1-2.61 1.8 0.78-0.3 1.61-0.6 2.48-0.9 7.81-3.3 10.6-6.3 10.62-6.3 1.2-1.3 3.11-1.8 4.79-1.3 0.06 0 5.41 1.8 15.86 4.5 9.03 2.4 20.83-2.7 20.93-2.8 2.2-0.9 4.7-0.1 5.8 2s0.4 4.7-1.6 6c-0.3 0.2-1.1 0.9-1.2 1.5s0.4 1.4 0.8 1.9c3.4 4.6 8 5.7 8 5.7 2.4 0.5 4 2.8 3.5 5.2 0 0.4-1.8 9.4-15.7 7.5-6.8-0.9-10.83-3.9-13.79-6.2-1.15-0.9-2.59-1.9-3.14-1.9-0.67 0.9-0.66 1.7-0.58 2 3.74 7.1 1.41 11.7-2.07 13.5-0.66 0.5-1.87 3.1-2.36 4.9-0.52 1.9-2.19 3.2-4.14 3.3-1.94 0.1-3.73-1.1-4.43-2.9-1.46-3.9-5.9-12-10.27-12.7l-0.9-0.1c-7.75-1.2-23.88-3.7-31.88 1.9-4.54 3.2-6.78 6.4-7.86 9.4 7.25-1.4 19.06-2.7 29.77 1 16.23 5.7 23.86 24.3 27.96 34.3l0.8 1.9c4.51 10.9 0.94 28-5.07 36.5l-0.9 1.3c-5.11 7.2-11.47 16.2-7.76 26.6 4.3 12 18.75 32 30.32 42 11.2 9.7 21.5 16.5 36.8 25.6 15.9 9.5 26.9 25.6 28.1 30.3 0.5 2 0.2 4-0.8 5.7-1.8 2.8-5.1 3.6-5.7 3.7-1.8 0.4-3.7-0.4-4.7-2-0.1-0.1-9-13.7-23.6-21.4z" transform="translate(925.81 1519.2) scale(-1 1) translate(-925.81 -1519.2)" sketch:type="MSShapeGroup" fill="#000"/>
    <path id="Stroke-184" opacity=".09375" fill="#000" d="m312.92 856.75v-7.52c5.17 2.18 10.95 5.46 13.03 8.9 5.65 9.34 19.41 8.7 36.82 7.89l5.67-0.26c16.61-0.68 20.9 1.28 21.08 1.37 1.33 0.9 2.92 0.89 4.33 0.11 1.41-0.79 2.1-2.38 2.03-3.97-0.04-0.84-1.17-20.44-20.7-26.52-8.01-2.5-15.82-3.59-22.72-4.56-6.97-0.98-13.56-1.9-16.17-3.97-8.36-6.63-19.72 1.71-22.27 3.75-0.39 0.2-0.77 0.4-1.16 0.6-0.08-8.05-0.15-16.1-0.23-24.15 9.83-1.7 34.97-6.6 42.37-13.21 8.56-7.63 12.1-14.53 12.24-14.82 0.69-1.37 0.58-2.99-0.28-4.26-0.85-1.26-2.33-1.97-3.87-1.84-3.24 0.25-31.95 2.69-41.21 9.62-3.08 2.3-6.01 4.3-8.45 5.89l0.15-2.52c2.83-1.79 5.65-3.59 8.47-5.39 5.06-0.22 23.18-1.85 31.23-13.82 8.46-12.57 11.02-26.58 11.13-27.17 0.26-1.49-0.3-3.01-1.47-3.98s-2.78-1.24-4.21-0.71c-2.32 0.85-22.8 8.48-28.92 14.55-0.31 0.3-0.64 0.61-0.98 0.92 2.76-0.73 6.13-2.02 10.16-4.35 15-8.64 25.87-19.95 27.05-28.12 0.84-5.82 0.85-12.3 0.85-12.58 0-1.89-1.27-3.55-3.1-4.06-3.86-1.09-6.99-1.71-9.54-2 0.49-0.87 0.82-1.46 0.82-1.46 0.45-0.8 0.63-1.74 0.5-2.66l-2.42-16.77c-0.23-1.58-1.34-2.9-2.87-3.41-1.53-0.5-3.22-0.11-4.36 1.02-0.04 0.04-1.01 1-2.56 2.51 2.11-3.86 3.52-7.73 4.11-10.67 1.37-6.79-1.81-12.12-3.9-14.2-1.39-1.37-3.54-1.63-5.22-0.62-4.95 2.96-11.06 7.33-12.08 11.37-0.19 0.44-1.01 1.3-2.12 2.29 0.53-1.42 1.04-3.07 1.53-5.03 4.01-15.9 0.71-21.88-0.83-23.67-0.61-0.81-4.88-6.72-5.5-12.91-0.5-4.96-1.98-8.14-4.5-9.73-2.37-1.5-4.56-0.92-5.18-0.7-0.33 0.05-17.64 4.38-20.51 20.5-1.05 5.91-2.79 10.2-4.19 13.66-1.82 4.51-3.4 8.41-2.17 12.93 2.14 7.83 6.94 11.09 11.68 13.75 3.15 1.77 5.44 4.83 5.7 6.08-0.77 1.05-1.76 2.56-2.79 4.18-1.33-4.31-3.13-9.07-5.33-12.31l-0.97-1.42c-8.73-12.92-15.42-21.86-21.87-19.3-4.14 1.64-10.52 4.8-10.79 4.93-1.55 0.77-2.47 2.38-2.34 4.09 0.12 1.71 1.28 3.17 2.92 3.71 3.81 1.24 9.26 4.44 9.15 6.97-0.1 2.11-0.55 3.93-0.99 5.7-0.93 3.73-2.08 8.37 2.23 12.65 3.94 3.91 10.61 6.91 12.84 7.85 1.81 1.53 3.62 3.06 5.43 4.6-0.24-0.03-0.54-0.11-0.87-0.23-2.77-1.03-7.29-3.95-11.29-6.53-5.64-3.64-9.23-5.9-11.92-6.43-4.53-0.9-16.06 1.98-20.8 3.26-2.07 0.55-3.39 2.54-3.11 4.64 0.28 2.09 2.09 3.66 4.22 3.66 3.13 0.02 9.25 1.17 9.86 3.88 0.42 1.87 1.34 3.76 2.55 5.57-7.41-4.1-11.33-4.33-12.08-4.33-1.33 0-2.59 0.62-3.39 1.66-0.81 1.05-1.08 2.41-0.73 3.68 0.55 2.01 4.69 16.65 10.72 26.81-2.33 0.2-4.66 0.41-6.98 0.61-1.26 0.11-2.4 0.77-3.12 1.79-0.72 1.03-0.95 2.31-0.62 3.52 0.15 0.56 3.92 13.99 17.37 23.86 10.07 7.39 17.9 7.51 21.89 6.84 4.12 3.54 8.24 7.09 12.37 10.63-0.4 3.06-0.79 6.12-1.19 9.17-3.66-4.61-8.33-9.43-12.76-10.89-7.56-2.5-32.3-5.64-33.35-5.77-1.96-0.25-3.83 0.87-4.53 2.71-0.69 1.83-0.02 3.9 1.63 4.99 0.08 0.06 8.44 5.64 11.91 11.42 4.01 6.68 7.8 12.99 18.22 14.02 5.31 0.53 13.79 3.46 18.14 5.06-0.2 6.2-0.39 12.4-0.59 18.59-1.62-0.4-3.65-1.55-5.42-4.47-5.74-9.48-16.91-16.99-17.38-17.31-0.61-0.4-1.31-0.64-2.03-0.7l-29.48-2.4c-1.34-0.1-2.65 0.42-3.54 1.42s-1.26 2.35-0.98 3.66c0.69 3.32 1.39 6.64 2.09 9.96-1.62 2.89-3.24 5.79-4.87 8.68-0.69 1.23-0.71 2.72-0.07 3.97 0.64 1.26 1.87 2.11 3.28 2.28 0.13 0.02 13.18 1.61 24.63 3.94 3.88 0.79 8.18 1.49 12.29 2.17 5.9 0.97 13.98 2.29 15.63 3.29 1.82 1.84 5.79 3.93 8.4 5.19 0.08 0.8 0.17 1.6 0.25 2.4 0.19 1.95 1.72 3.52 3.69 3.77l12.4 1.59" sketch:type="MSShapeGroup"/>
    <path id="Stroke-184" sketch:type="MSShapeGroup" fill="#2C6A42" d="m192.86 860.59v-5.31c3.63 1.54 7.69 3.85 9.15 6.28 3.98 6.59 13.65 6.14 25.89 5.57l3.99-0.18c11.68-0.49 14.7 0.9 14.82 0.96 0.94 0.63 2.05 0.62 3.04 0.07s1.48-1.67 1.43-2.8c-0.03-0.59-0.82-14.41-14.55-18.71-5.63-1.76-11.13-2.53-15.97-3.21-4.91-0.69-9.54-1.34-11.37-2.8-5.88-4.68-13.87 1.2-15.66 2.64-0.27 0.14-0.54 0.28-0.82 0.43-0.05-5.68-0.1-11.36-0.16-17.04 6.91-1.21 24.59-4.66 29.79-9.32 6.02-5.39 8.5-10.26 8.61-10.46 0.48-0.96 0.41-2.11-0.2-3-0.6-0.89-1.64-1.39-2.72-1.31-2.28 0.18-22.46 1.9-28.98 6.79-2.16 1.63-4.22 3.03-5.94 4.16 0.04-0.59 0.08-1.19 0.11-1.78 1.99-1.26 3.97-2.53 5.95-3.8 3.56-0.16 16.3-1.3 21.96-9.75 5.95-8.87 7.75-18.75 7.82-19.17 0.19-1.05-0.2-2.12-1.03-2.81-0.82-0.68-1.95-0.87-2.96-0.5-1.63 0.6-16.03 5.98-20.33 10.26-0.22 0.22-0.45 0.44-0.69 0.66 1.94-0.52 4.31-1.43 7.15-3.07 10.54-6.1 18.18-14.08 19.01-19.85 0.59-4.1 0.6-8.68 0.6-8.87 0-1.33-0.89-2.5-2.18-2.87-2.71-0.76-4.92-1.2-6.71-1.41 0.35-0.61 0.58-1.02 0.58-1.02 0.32-0.57 0.44-1.23 0.35-1.88l-1.7-11.83c-0.16-1.12-0.94-2.05-2.02-2.41s-2.26-0.08-3.06 0.72c-0.03 0.03-0.71 0.7-1.8 1.77 1.48-2.72 2.47-5.45 2.89-7.53 0.96-4.79-1.27-8.55-2.75-10.01-0.97-0.97-2.48-1.16-3.66-0.45-3.48 2.09-7.78 5.18-8.5 8.03-0.14 0.31-0.71 0.92-1.49 1.61 0.37-1 0.73-2.16 1.08-3.55 2.82-11.21 0.49-15.43-0.59-16.69-0.42-0.57-3.43-4.75-3.87-9.11-0.35-3.5-1.38-5.75-3.16-6.87-1.66-1.06-3.21-0.65-3.64-0.5-0.23 0.05-12.4 3.1-14.42 14.47-0.74 4.17-1.96 7.2-2.94 9.64-1.29 3.18-2.4 5.94-1.53 9.12 1.5 5.53 4.88 7.82 8.21 9.7 2.22 1.25 3.83 3.41 4.01 4.29-0.54 0.75-1.24 1.81-1.96 2.95-0.94-3.04-2.21-6.4-3.75-8.68l-0.68-1.01c-6.14-9.11-10.84-15.42-15.38-13.61-2.91 1.16-7.4 3.38-7.59 3.48-1.08 0.54-1.73 1.68-1.64 2.88 0.09 1.21 0.9 2.24 2.05 2.62 2.68 0.88 6.51 3.13 6.43 4.92-0.06 1.48-0.38 2.77-0.69 4.02-0.65 2.63-1.46 5.91 1.57 8.92 2.77 2.76 7.46 4.88 9.03 5.54 1.27 1.08 2.54 2.16 3.81 3.25-0.17-0.02-0.38-0.08-0.61-0.16-1.95-0.73-5.13-2.79-7.93-4.61-3.97-2.57-6.5-4.16-8.39-4.54-3.18-0.63-11.29 1.4-14.62 2.3-1.45 0.39-2.39 1.79-2.19 3.27s1.47 2.59 2.97 2.59c2.2 0.01 6.5 0.82 6.93 2.73 0.3 1.33 0.95 2.66 1.8 3.93-5.22-2.89-7.97-3.05-8.5-3.05-0.93 0-1.82 0.44-2.38 1.17-0.57 0.74-0.76 1.7-0.51 2.6 0.38 1.42 3.29 11.74 7.53 18.91-1.63 0.14-3.27 0.29-4.91 0.43-0.88 0.08-1.68 0.54-2.19 1.27-0.5 0.72-0.67 1.63-0.43 2.48 0.1 0.4 2.75 9.87 12.2 16.83 7.09 5.22 12.59 5.31 15.4 4.83 2.9 2.5 5.79 5 8.69 7.5-0.28 2.16-0.55 4.31-0.83 6.47-2.58-3.26-5.86-6.65-8.97-7.69-5.32-1.76-22.71-3.98-23.45-4.07-1.38-0.17-2.7 0.62-3.18 1.92-0.49 1.29-0.02 2.75 1.14 3.52 0.06 0.04 5.93 3.97 8.37 8.06 2.82 4.71 5.49 9.16 12.81 9.89 3.74 0.37 9.7 2.44 12.76 3.57-0.14 4.37-0.28 8.74-0.42 13.12-1.14-0.29-2.56-1.1-3.81-3.16-4.03-6.69-11.89-11.99-12.22-12.21-0.42-0.28-0.92-0.46-1.43-0.5l-20.72-1.69c-0.94-0.07-1.87 0.3-2.49 1-0.63 0.7-0.88 1.66-0.69 2.58 0.49 2.34 0.98 4.69 1.47 7.03-1.14 2.04-2.28 4.08-3.42 6.13-0.49 0.86-0.5 1.92-0.05 2.8s1.32 1.48 2.31 1.6c0.09 0.02 9.26 1.14 17.31 2.78 2.73 0.56 5.75 1.06 8.64 1.53 4.15 0.69 9.83 1.62 10.99 2.33 1.28 1.3 4.07 2.77 5.91 3.66 0.05 0.56 0.11 1.12 0.17 1.69 0.14 1.38 1.21 2.48 2.59 2.66l8.72 1.13"/>
    <path id="Stroke-184" sketch:type="MSShapeGroup" fill="#2C6A42" d="m402.94 849.15v-3.78c2.57 1.1 5.44 2.74 6.48 4.47 2.82 4.68 9.66 4.36 18.33 3.95l2.82-0.12c8.27-0.35 10.41 0.64 10.5 0.68 0.66 0.45 1.45 0.45 2.15 0.05 0.7-0.39 1.05-1.19 1.01-1.99-0.02-0.41-0.58-10.24-10.3-13.29-3.99-1.25-7.88-1.8-11.31-2.29-3.47-0.49-6.75-0.95-8.05-1.99-4.16-3.33-9.82 0.86-11.09 1.88-0.19 0.1-0.38 0.2-0.58 0.3-0.03-4.04-0.07-8.07-0.11-12.11 4.89-0.85 17.41-3.31 21.1-6.62 4.26-3.83 6.02-7.29 6.09-7.44 0.34-0.68 0.29-1.5-0.14-2.13s-1.16-0.99-1.93-0.93c-1.61 0.13-15.9 1.35-20.51 4.83-1.54 1.15-2.99 2.15-4.21 2.95 0.02-0.42 0.05-0.84 0.08-1.26 1.4-0.9 2.81-1.8 4.21-2.7 2.52-0.11 11.54-0.93 15.55-6.94 4.21-6.3 5.48-13.32 5.54-13.62 0.13-0.74-0.15-1.51-0.73-1.99-0.59-0.49-1.39-0.63-2.1-0.36-1.15 0.42-11.35 4.25-14.4 7.29-0.15 0.16-0.31 0.31-0.49 0.47 1.38-0.37 3.06-1.02 5.07-2.18 7.46-4.34 12.87-10.01 13.46-14.11 0.42-2.92 0.42-6.17 0.42-6.3 0-0.95-0.63-1.78-1.54-2.04-1.92-0.55-3.48-0.86-4.75-1 0.24-0.44 0.41-0.73 0.41-0.73 0.22-0.41 0.31-0.88 0.25-1.34l-1.21-8.41c-0.11-0.79-0.66-1.45-1.43-1.71-0.76-0.25-1.6-0.05-2.17 0.52-0.02 0.01-0.5 0.49-1.27 1.25 1.05-1.93 1.75-3.87 2.05-5.35 0.68-3.4-0.9-6.07-1.95-7.12-0.69-0.69-1.76-0.82-2.59-0.31-2.47 1.48-5.51 3.68-6.02 5.7-0.1 0.22-0.5 0.66-1.05 1.15 0.26-0.71 0.51-1.54 0.76-2.52 1.99-7.97 0.35-10.97-0.42-11.87-0.3-0.41-2.43-3.37-2.74-6.47-0.24-2.49-0.98-4.09-2.23-4.89-1.18-0.75-2.28-0.46-2.58-0.35-0.17 0.03-8.78 2.2-10.21 10.28-0.53 2.97-1.39 5.12-2.09 6.85-0.91 2.27-1.69 4.22-1.08 6.49 1.06 3.93 3.46 5.56 5.81 6.89 1.58 0.89 2.71 2.42 2.84 3.05-0.38 0.53-0.87 1.29-1.38 2.1-0.67-2.16-1.56-4.55-2.66-6.17l-0.48-0.72c-4.35-6.47-7.68-10.96-10.89-9.68-2.06 0.83-5.24 2.41-5.37 2.48-0.77 0.38-1.23 1.19-1.17 2.05 0.07 0.86 0.64 1.59 1.46 1.86 1.89 0.62 4.61 2.23 4.55 3.5-0.04 1.05-0.27 1.97-0.49 2.85-0.46 1.87-1.04 4.2 1.11 6.35 1.96 1.96 5.28 3.46 6.39 3.93 0.9 0.77 1.81 1.54 2.71 2.31-0.12-0.02-0.27-0.05-0.44-0.12-1.38-0.51-3.63-1.98-5.62-3.27-2.8-1.82-4.59-2.96-5.93-3.23-2.26-0.45-8 1-10.36 1.64-1.02 0.28-1.69 1.27-1.55 2.32 0.14 1.06 1.04 1.84 2.11 1.84 1.56 0.01 4.6 0.59 4.9 1.95 0.21 0.94 0.67 1.88 1.28 2.79-3.7-2.06-5.65-2.17-6.02-2.17-0.66 0-1.29 0.31-1.69 0.83-0.4 0.53-0.53 1.21-0.36 1.85 0.28 1 2.33 8.35 5.34 13.44-1.16 0.1-2.32 0.2-3.48 0.31-0.62 0.05-1.19 0.38-1.55 0.89-0.36 0.52-0.47 1.16-0.31 1.77 0.08 0.28 1.95 7.01 8.64 11.96 5.02 3.71 8.92 3.77 10.9 3.43 2.06 1.78 4.11 3.56 6.16 5.34-0.2 1.53-0.39 3.06-0.59 4.59-1.82-2.31-4.15-4.72-6.35-5.46-3.76-1.25-16.08-2.83-16.6-2.89-0.98-0.13-1.91 0.44-2.26 1.36-0.34 0.92-0.01 1.95 0.81 2.5 0.04 0.03 4.2 2.83 5.93 5.73 2 3.35 3.88 6.51 9.07 7.03 2.65 0.26 6.87 1.73 9.03 2.53-0.1 3.11-0.19 6.22-0.29 9.33-0.81-0.2-1.82-0.78-2.7-2.25-2.86-4.75-8.42-8.51-8.66-8.67-0.3-0.2-0.64-0.33-1-0.36l-14.68-1.2c-0.67-0.05-1.32 0.21-1.76 0.71-0.45 0.5-0.63 1.18-0.49 1.84 0.35 1.66 0.69 3.33 1.04 4.99-0.81 1.45-1.61 2.9-2.42 4.36-0.34 0.61-0.36 1.36-0.04 1.99s0.93 1.05 1.64 1.14c0.06 0.01 6.56 0.8 12.26 1.97 1.93 0.4 4.07 0.75 6.12 1.09 2.93 0.49 6.95 1.15 7.77 1.65 0.91 0.93 2.89 1.97 4.19 2.6 0.04 0.41 0.08 0.81 0.12 1.21 0.1 0.98 0.86 1.76 1.84 1.89l6.17 0.8"/>
    <g id="MARIHUANA" sketch:type="MSShapeGroup" fill="#2C6941" transform="translate(96 1673)">
     <path id="Fill-2" d="m256.4 153.04l-0.22 4.94c0.07 0 1.11 0.05 2.93 0.05 5.01 0 15.9-0.34 28.51-2.94 12.61-2.62 27.02-7.46 38.97-16.85 13.7-10.8 24.87-25.17 32.74-36.87 7.86-11.696 12.38-20.738 12.44-20.869 1.14-2.272 0.38-5.021-1.76-6.382-2.13-1.365-4.94-0.894-6.51 1.094l-0.05 0.059c-0.62 0.772-6.95 8.508-16.38 16.354-9.42 7.882-21.96 15.704-34.42 17.264-14.92 1.93-28.19 5.78-38.79 10.84-5.3 2.53-9.93 5.37-13.78 8.49-3.83 3.12-6.91 6.53-8.95 10.33-2.19 4.12-3.24 7.33-3.27 10.4 0 1.48 0.29 2.95 0.9 4.22 0.61 1.29 1.52 2.32 2.44 3.02 1.26 0.96 2.48 1.36 3.39 1.58 0.91 0.2 1.55 0.21 1.81 0.22v-4.95l-0.22 4.94 0.22-4.94v-4.94 1.66l0.38-1.64-0.38-0.02v1.66l0.38-1.64-0.25 1.08 0.66-0.86-0.41-0.22-0.25 1.08 0.66-0.86-0.96 1.26 1.44-0.69-0.48-0.58-0.96 1.27 1.44-0.69-0.77 0.37 0.84-0.17-0.07-0.2-0.77 0.37 0.84-0.17-0.01-0.16c-0.03-0.5 0.31-2.44 2.09-5.71 1.21-2.28 3.38-4.83 6.48-7.34 4.64-3.77 11.3-7.45 19.42-10.45 8.12-3.02 17.7-5.4 28.19-6.75 16.05-2.13 30.14-11.59 40.44-20.287 10.28-8.735 16.74-16.887 16.88-17.049l-3.87-3.075-4.41-2.212-0.04 0.076c-0.46 0.919-5 9.764-12.48 20.754-7.46 10.983-17.92 24.103-29.94 33.553-10.14 8.01-23.17 12.54-34.86 14.94-11.68 2.41-21.97 2.74-26.52 2.74-0.82 0-1.46-0.01-1.88-0.02l-0.47-0.01-0.13-0.01h-0.23v4.94"/>
     <path id="Fill-3" d="m246.15 76.42l-3.79 3.164c0.26 0.307 1.48 1.724 3.82 3.135 2.32 1.404 5.82 2.769 10.24 2.762 1.47 0 3.04-0.148 4.68-0.474 5.16-1.039 9.82-2.779 13.66-4.174 1.91-0.698 3.62-1.311 4.99-1.714 1.36-0.412 2.41-0.573 2.76-0.56 0.19-0.02 1.4 0.148 2.88 0.514 2.27 0.531 5.32 1.411 8.57 2.173 3.27 0.758 6.74 1.424 10.23 1.433 1.55-0.003 3.12-0.135 4.69-0.527 7.54-1.889 21.51-5.624 21.52-5.627 2.14-0.57 3.63-2.492 3.67-4.701 0.03-2.212-1.41-4.179-3.52-4.812 0-0.004-1.73-0.521-4.47-1.365-4.11-1.263-10.48-3.25-16.58-5.258-3.04-1.005-6.02-2.014-8.6-2.937-2.57-0.92-4.77-1.764-6.13-2.37-2.27-1.002-4.84-1.658-7.74-2.123-2.89-0.458-6.08-0.696-9.43-0.696-5.03 0-10.39 0.534-15.54 1.777-5.14 1.253-10.09 3.191-14.21 6.277-2.88 2.169-4.91 4.179-6.33 6.25-1.41 2.05-2.2 4.282-2.2 6.454-0.01 2.555 1.11 4.602 2.12 5.762 1.02 1.197 1.94 1.734 2.26 1.929l2.45-4.292-3.79 3.164 3.79-3.164 2.45-4.296-0.65 1.131 1.02-0.864c-0.08-0.072-0.05-0.072-0.37-0.267l-0.65 1.131 1.02-0.864-0.74 0.63h0.96l-0.22-0.63-0.74 0.63h0.96-0.37l0.37 0.066v-0.066h-0.37l0.37 0.066c-0.01-0.003 0.07-0.419 0.72-1.276 0.65-0.85 1.86-2.083 3.86-3.583 2.59-1.961 6.37-3.557 10.61-4.575 4.23-1.026 8.91-1.504 13.22-1.5 2.87 0 5.59 0.207 7.89 0.573 2.29 0.36 4.19 0.9 5.27 1.391 2.38 1.058 5.75 2.291 9.62 3.633 11.56 3.992 27.3 8.722 27.33 8.732l1.42-4.737-1.27-4.776c0 0.003-3.49 0.933-7.91 2.1-4.42 1.163-9.77 2.564-13.46 3.487-0.55 0.142-1.35 0.234-2.3 0.234-2.89 0.02-7.05-0.883-10.93-1.902-1.95-0.504-3.84-1.025-5.6-1.44-1.78-0.409-3.34-0.759-5.15-0.778-1.98 0.016-3.73 0.438-5.54 0.959-2.7 0.801-5.53 1.912-8.53 2.977-3 1.064-6.15 2.076-9.27 2.703-1.03 0.204-1.93 0.283-2.75 0.283-2.42-0.006-4.06-0.699-5.16-1.355-0.55-0.326-0.94-0.646-1.17-0.85l-0.21-0.201-0.01-0.013-1.58 1.46 1.65-1.378-0.07-0.082-1.58 1.46 1.65-1.378c-0.38-0.452-0.83-0.837-1.34-1.131l-2.45 4.296"/>
     <path id="Fill-4" d="m196.73 82.027l4.55-1.902c-0.02-0.066-4.72-11.36-11.32-24.605-3.44-6.876-7.86-13.799-13.4-19.739-5.54-5.93-12.25-10.911-20.23-13.578-6.68-2.231-14.02-5.435-20.23-8.323-3.11-1.441-5.95-2.805-8.32-3.9327-2.38-1.1373-4.25-2.0174-5.68-2.5943-2.19-0.8768-5.91-2.5086-9.03-3.8996-3.13-1.3911-5.67-2.5482-5.67-2.5515-2.24-1.0186-4.9-0.22413-6.21 1.8559-1.319 2.0801-0.9 4.8293 0.98 6.4214 0 0.0033 9.1 7.7168 18.91 15.909 4.9 4.094 9.98 8.31 14.2 11.748 2.12 1.721 4.01 3.244 5.58 4.473 1.58 1.24 2.77 2.146 3.72 2.783 0.1 0.052 0.73 0.59 1.46 1.42 1.3 1.467 3.03 3.818 4.81 6.521 2.68 4.064 5.53 8.966 7.82 13.307 1.15 2.173 2.15 4.207 2.93 5.907 0.77 1.685 1.31 3.099 1.48 3.725 0.68 2.344 1.83 4.563 3.28 6.775 2.19 3.296 5.06 6.517 8.33 9.167 3.29 2.617 6.91 4.783 11.17 5.363 0.52 0.066 1.05 0.096 1.56 0.096 2.6 0.013 4.96-0.874 6.74-2.084 1.79-1.213 3.08-2.693 4.08-4.107 2.33-3.385 3.15-6.56 3.25-6.856 0.29-1.062 0.22-2.186-0.21-3.201l-4.55 1.902-4.76-1.302 2.05 0.56-2.04-0.583-0.01 0.023 2.05 0.56-2.04-0.583c0.01 0.019-0.69 2.218-1.82 3.8-0.5 0.716-1.05 1.279-1.5 1.576-0.48 0.303-0.76 0.396-1.24 0.406l-0.34-0.02c-0.88-0.099-2.29-0.607-3.83-1.559-2.32-1.411-4.87-3.739-6.86-6.181-2.01-2.413-3.45-5.05-3.82-6.468-0.34-1.163-0.8-2.373-1.4-3.764-2.07-4.813-5.73-11.686-9.59-17.986-1.93-3.141-3.9-6.121-5.78-8.62-0.94-1.252-1.87-2.383-2.79-3.382-0.93-1.002-1.82-1.869-2.96-2.64-0.45-0.3-1.63-1.174-3.11-2.337-5.24-4.118-14.88-12.125-23.16-19.064-4.15-3.471-7.96-6.6781-10.73-9.0219-2.77-2.3405-4.51-3.8074-4.51-3.814l-3.19 3.7744-2.04 4.5029c0.01 0.0033 2.58 1.1766 5.75 2.5876 3.18 1.414 6.91 3.053 9.38 4.042 0.9 0.359 2.77 1.229 5.1 2.343 7.08 3.366 18.74 9.052 29.67 12.708 6.01 2.004 11.42 5.904 16.14 10.954 4.72 5.037 8.69 11.198 11.78 17.402 3.22 6.457 5.99 12.473 7.95 16.861 0.98 2.195 1.76 3.985 2.29 5.221 0.26 0.617 0.47 1.098 0.6 1.421 0.14 0.323 0.21 0.482 0.21 0.485l4.55-1.902-4.76-1.302 4.76 1.302"/>
     <path id="Fill-5" d="m197.66 133.42l-4.48-2.07 2.46 1.13-2.4-1.25-0.06 0.12 2.46 1.13-2.4-1.25-0.02 0.04c-0.16 0.26-0.99 1.59-2.99 2.88-2.02 1.27-5.25 2.6-10.72 2.62-8.83 0.02-23.6-3.73-46.39-17.84-27.93-17.25-39.897-25.593-49.663-30.571-4.881-2.485-9.272-4.077-14.355-5.251-5.088-1.183-10.835-2.004-18.995-3.174-15.029-2.153-25.661-2.753-32.871-2.753-8.6508 0-12.378 0.864-12.848 0.982l1.1973 4.797 1.2763 4.776 0.421-0.112c2.1644-0.564 12.427-3.174 26.041-5.637 13.612-2.462 30.598-4.763 46.041-4.76 9.533-0.006 18.473 0.89 25.515 2.997 33.4 9.915 62.94 32.016 71.98 39.306 4.38 3.5 8.68 7.79 11.83 11.19 1.59 1.7 2.88 3.17 3.78 4.21 0.45 0.52 0.8 0.93 1.04 1.21l0.26 0.31 0.07 0.1 3.82-3.13-4.48-2.07 4.48 2.07 3.82-3.13c-0.12-0.13-8.58-10.55-18.45-18.49-9.6-7.66-39.74-30.413-75.34-41.054-8.444-2.508-18.19-3.401-28.325-3.408-17.486 0.007-36.153 2.723-50.537 5.423-14.371 2.703-24.433 5.399-24.519 5.422-2.615 0.702-4.1774 3.386-3.4998 6.016 0.6776 2.627 3.3452 4.216 5.9734 3.557l-0.6578-2.631 0.6118 2.644 0.046-0.013-0.6578-2.631 0.6118 2.644s0.171-0.043 0.569-0.105c1.1941-0.198 4.3124-0.594 9.9304-0.594 6.661 0 16.838 0.557 31.476 2.654 8.157 1.167 13.716 1.978 18.157 3.016 3.335 0.781 6.052 1.665 9.036 2.974 8.914 3.876 20.525 12.136 52.035 31.636 23.72 14.64 39.99 19.28 51.57 19.31 8.11 0.02 13.86-2.43 17.42-5.15 3.58-2.7 4.97-5.5 5.21-6.02 0.79-1.72 0.54-3.74-0.66-5.2l-3.82 3.13"/>
     <path id="Fill-6" d="m260.13 165.19l3.39 3.6-1.92-2.04 1.89 2.07 0.03-0.03-1.92-2.04 1.89 2.07 0.3-0.25c1.49-1.2 8.1-6 19.39-6 5.43 0 12.01 1.1 19.8 4.38 13.24 5.52 25.47 17.14 35.38 28.48 4.97 5.67 9.38 11.24 13.18 15.93 1.9 2.35 3.65 4.47 5.28 6.31s3.11 3.39 4.66 4.64c2.08 1.66 4.86 4.26 7.76 7.17 4.35 4.37 9.03 9.45 12.6 13.42 1.79 1.98 3.3 3.69 4.36 4.9s1.67 1.91 1.67 1.92l3.74-3.24 0.27-4.93-0.1 1.78 0.13-1.78h-0.03l-0.1 1.78 0.13-1.78c-0.23-0.03-15.43-1.12-34.38-17.5-9.7-8.37-17.53-19.17-26.47-28.53-4.48-4.67-9.29-8.99-14.89-12.32-5.58-3.33-11.99-5.61-19.32-6.12-13.02-0.93-21.59-1.66-26.66-2.82-2.54-0.56-4.12-1.22-4.96-1.78-0.84-0.59-1.1-0.92-1.49-1.76-0.58-1.35-0.65-2.09-0.65-2.25l-1.77-0.35 1.09 1.37c0.35-0.24 0.67-0.84 0.68-1.02l-1.77-0.35 1.09 1.37-1.75-2.2 0.67 2.7c0.46-0.12 0.73-0.23 1.08-0.5l-1.75-2.2 0.67 2.7c0.81-0.21 1.58-0.63 2.19-1.2l-3.39-3.6-1.19-4.8c-0.51 0.14-1.8 0.51-3.2 1.82-0.68 0.65-1.36 1.55-1.81 2.64-0.47 1.09-0.71 2.34-0.7 3.62 0 1.93 0.49 3.92 1.44 6.14 1 2.43 2.84 4.67 5.17 6.15 1.75 1.14 3.7 1.94 5.9 2.57 3.29 0.95 7.19 1.55 12.13 2.09s10.92 0.99 18.28 1.52c5.73 0.42 10.5 2.11 15 4.77 6.72 3.97 12.75 10.31 19.02 17.54 6.28 7.21 12.8 15.25 20.91 22.29 21.48 18.6 39.47 19.85 40.25 19.88 1.98 0.11 3.83-0.98 4.7-2.76 0.88-1.78 0.6-3.91-0.69-5.41-0.02-0.03-4.48-5.2-10.14-11.34-2.82-3.06-5.95-6.38-8.99-9.42-3.04-3.05-5.98-5.82-8.56-7.9-0.78-0.61-2.01-1.84-3.45-3.48-2.53-2.86-5.77-6.95-9.53-11.59-5.65-6.97-12.53-15.21-20.51-22.8-7.98-7.58-17.07-14.56-27.36-18.9-8.9-3.74-16.85-5.14-23.62-5.14-8.35 0-14.88 2.12-19.32 4.28-4.44 2.17-6.83 4.37-7.11 4.63l3.38 3.6-1.19-4.8 1.19 4.8"/>
     <path id="Fill-7" d="m232.16 283.86l4.77 1.29 0.06-0.24c0.34-1.22 2.06-7.2 4.7-13.56 1.31-3.18 2.86-6.45 4.51-9.23 1.64-2.77 3.44-5.03 4.9-6.17 1.95-1.58 4.85-3.39 8.14-5.39 4.95-3.02 10.78-6.48 16.01-11.04 5.21-4.54 9.92-10.32 12.01-17.88l-4.75-1.32-4.93-0.16v0.04c-0.02 0.61-0.37 7.62-2.61 15.62-1.11 4-2.69 8.24-4.85 12.04-2.15 3.8-4.87 7.15-8.21 9.57-8.33 6.03-16.45 11.6-22.48 15.67-3.02 2.03-5.51 3.69-7.24 4.83-1.74 1.15-2.71 1.78-2.71 1.78l2.68 4.15 4.77 1.29-4.77-1.29 2.68 4.15c0.04-0.03 15.94-10.33 32.85-22.57 4.93-3.58 8.57-8.27 11.27-13.16 4.05-7.34 6.11-15.19 7.23-21.26 1.1-6.07 1.25-10.37 1.25-10.54 0.08-2.51-1.71-4.67-4.18-5.05-2.48-0.38-4.83 1.15-5.5 3.57-0.94 3.38-2.68 6.35-5.04 9.11-3.53 4.14-8.48 7.7-13.55 10.9-5.08 3.22-10.19 6-14.24 9.22-3.11 2.52-5.49 5.87-7.6 9.5-3.13 5.44-5.56 11.57-7.26 16.41-1.7 4.83-2.65 8.35-2.67 8.43-0.53 1.98 0.21 4.08 1.86 5.29 1.65 1.2 3.87 1.26 5.58 0.15l-2.68-4.15"/>
     <path id="Fill-8" d="m264.06 176.54l0.06-0.01c0.81-0.19 9.11-1.99 19.22-1.98 4.71 0 9.81 0.39 14.69 1.46 4.89 1.07 9.53 2.82 13.45 5.44 4.33 2.88 9.8 7.96 15.76 14.07 8.98 9.16 19.16 20.6 29.75 30.73 5.3 5.06 10.72 9.82 16.21 13.81 5.5 3.99 11.07 7.24 16.8 9.23 2.57 0.89 5.38-0.48 6.27-3.07 0.89-2.58-0.48-5.39-3.06-6.28-5.88-2.02-12.5-6.25-19.23-11.77-10.12-8.27-20.51-19.36-30.22-29.66-4.86-5.15-9.55-10.11-14.01-14.46-4.48-4.34-8.7-8.08-12.8-10.83-5.22-3.48-11.03-5.6-16.81-6.87s-11.55-1.69-16.8-1.69c-12 0-21.31 2.21-21.54 2.26-2.65 0.62-4.29 3.28-3.67 5.94s3.28 4.31 5.93 3.68"/>
     <path id="Fill-9" d="m264.28 154.79l-1.46-0.94 1.45 0.95 0.01-0.01-1.46-0.94 1.45 0.95c0.03-0.05 2.49-3.79 6.42-7.68 3.91-3.92 9.3-7.82 14.65-8.85 7.38-1.49 19.22-4.82 31.35-9.86 12.12-5.09 24.48-11.75 32.82-20.57 15.16-16.145 20.08-24.88 20.3-25.282 1.32-2.387 0.46-5.397-1.92-6.725-2.38-1.325-5.38-0.465-6.71 1.922l1.48 0.82-1.47-0.834-0.01 0.014 1.48 0.82-1.47-0.834c-0.07 0.126-4.65 8.185-18.87 23.319-6.58 7.06-17.99 13.49-29.42 18.22-11.41 4.76-22.88 7.97-29.49 9.29-8.54 1.76-15.19 7.08-19.89 11.75-4.68 4.7-7.4 8.91-7.53 9.1-1.48 2.29-0.82 5.36 1.46 6.84 2.29 1.48 5.35 0.83 6.83-1.47"/>
     <path id="Fill-10" d="m249.62 77.857l0.01-0.01c0.28-0.165 3.69-2.159 8.31-4.058 4.6-1.918 10.47-3.666 15.25-3.639 5.56 0.01 9.4 0.824 13.04 1.813 3.61 0.972 7.11 2.258 11.52 2.822 2.16 0.267 5.06 0.438 8.37 0.573 9.86 0.399 22.98 0.399 23.01 0.399 2.73 0 4.94-2.215 4.94-4.945 0-2.729-2.21-4.944-4.94-4.944 0 0-1.44 0-3.73-0.013-3.43-0.024-8.76-0.08-13.89-0.215-5.11-0.128-10.15-0.362-12.54-0.669-3.05-0.369-6.07-1.421-10.15-2.551-4.06-1.115-9.07-2.166-15.63-2.159-7.19 0.029-14.15 2.366-19.51 4.588-5.33 2.242-9 4.447-9.14 4.526-2.34 1.404-3.09 4.444-1.69 6.784 1.4 2.344 4.43 3.102 6.77 1.698"/>
     <path id="Fill-11" d="m192.76 78.529l-1.98 1.991 1.99-1.981-0.01-0.01-1.98 1.991 1.99-1.981s-0.14-0.138-0.41-0.438c-1.91-2.093-10.02-11.65-16.17-28.6-1.2-3.296-3.14-6.313-5.5-9.177-4.16-5.001-9.68-9.58-15.66-13.799-8.97-6.313-18.99-11.752-26.81-15.661-7.82-3.9033-13.43-6.2536-13.5-6.2866-2.52-1.0515-5.41 0.1352-6.46 2.6569-1.05 2.5185 0.14 5.4157 2.65 6.4677 0 0 0.17 0.072 0.53 0.227 2.72 1.167 15.36 6.742 28.01 14.294 6.32 3.767 12.63 8.04 17.63 12.384 5.03 4.322 8.63 8.798 9.84 12.273 7.78 21.433 18.5 32.275 18.86 32.641 1.93 1.932 5.05 1.932 6.98 0s1.93-5.06 0-6.992"/>
     <path id="Fill-12" d="m193.82 131.6l-0.03-0.01c-0.88-0.34-19.68-7.76-44.54-25.56-26.83-19.204-52.83-26.947-73.036-29.835-12.174-1.737-26.078-2.063-35.337-2.066-6.168 0-10.253 0.151-10.299 0.151-2.724 0.102-4.849 2.397-4.747 5.126 0.099 2.73 2.388 4.859 5.112 4.757 0.003 0 0.23-0.007 0.687-0.023 1.382-0.04 4.74-0.122 9.247-0.122 8.999-0.003 22.62 0.343 33.942 1.968 18.957 2.719 43.301 9.929 68.691 28.094 26.56 19.01 46.51 26.65 46.8 26.76 2.55 0.97 5.4-0.31 6.37-2.86s-0.31-5.41-2.86-6.38"/>
     <path id="Fill-13" d="m186.47 242.74l-2.65-4.17 1.53 2.4-1.45-2.44-0.08 0.04 1.53 2.4-1.45-2.44-0.03 0.01c-0.35 0.19-4.07 2.2-11.76 2.21-9.66-0.01-25.77-3.22-49.2-18.07-16.81-10.66-31.18-16.82-43.318-20.3-12.128-3.49-22.029-4.27-29.699-4.26-5.921 0-10.559 0.45-13.536 0.44-4.927 0.02-10.733-1.83-15.151-3.79-2.213-0.97-4.092-1.96-5.397-2.69-0.652-0.36-1.162-0.66-1.497-0.86l-0.372-0.23-0.082-0.05-0.01-0.01-2.668 4.16-0.223 4.94c0.066 0 1.421 0.06 3.809 0.06 7.157 0 23.565-0.53 42.281-4.85 9.069-2.11 20.072-3.14 30.683-3.14 8.144 0 16.07 0.61 22.72 1.73 6.62 1.1 12.03 2.85 14.7 4.54 5.96 3.68 14.54 9.25 22.24 14.67 3.85 2.7 7.49 5.38 10.45 7.73 2.95 2.32 5.28 4.42 6.24 5.57 2.96 3.46 7.63 8.37 11.63 12.49 3.99 4.12 7.26 7.4 7.28 7.41l3.48-3.5-2.65-4.17 2.65 4.17 3.49-3.49s-0.8-0.81-2.11-2.13c-1.95-1.98-5.02-5.11-8.1-8.33-3.08-3.23-6.2-6.58-8.18-8.88-1.83-2.13-4.41-4.35-7.6-6.9-9.54-7.55-24.41-17.36-33.65-23.07-4.67-2.83-10.88-4.59-18.23-5.86-7.33-1.24-15.729-1.87-24.36-1.87-11.246 0.01-22.848 1.07-32.903 3.39-17.651 4.08-33.41 4.61-40.061 4.61-1.112 0-1.967-0.02-2.54-0.03l-0.638-0.02-0.184-0.01c-2.2333-0.1-4.2464 1.3-4.924 3.44-0.6776 2.13 0.1513 4.45 2.0328 5.66 0.148 0.09 3.5982 2.31 8.7262 4.57 5.138 2.24 11.924 4.6 19.118 4.62 3.786-0.01 8.092-0.44 13.536-0.43 7.009 0 15.828 0.68 26.985 3.87 11.151 3.2 24.632 8.94 40.752 19.16 24.59 15.59 42.58 19.6 54.48 19.6 10.75 0.01 16.37-3.29 17.01-3.72 1.27-0.81 2.1-2.14 2.26-3.64 0.16-1.49-0.36-2.97-1.42-4.03l-3.49 3.49"/>
     <path id="Fill-14" d="m47.797 205.64s0.221-0.02 0.678-0.04c1.372-0.05 4.747-0.17 9.325-0.17 6.105 0 14.358 0.21 22.842 1.02 8.476 0.8 17.203 2.24 24.088 4.54 21.61 7.21 36.02 18.06 49.7 24.97 13.22 6.62 20.84 9.49 20.99 9.55 2.55 0.96 5.39-0.34 6.35-2.9 0.96-2.55-0.34-5.4-2.89-6.36l-0.06-0.03c-0.73-0.27-7.9-3.06-19.98-9.11-12.42-6.18-27.85-17.76-50.99-25.5-8.041-2.68-17.344-4.15-26.271-5.01-8.921-0.85-17.453-1.05-23.779-1.05-6.325 0-10.443 0.21-10.509 0.21-2.72 0.14-4.812 2.46-4.674 5.19 0.141 2.73 2.46 4.82 5.18 4.69"/>
     <path id="Fill-15" d="m235.03 282.28c0.03-0.02 3.32-2.38 7.68-5.69 4.38-3.31 9.8-7.56 14.17-11.46 4.51-4.03 9.69-9.71 13.84-14.46 4.14-4.74 7.2-8.51 7.23-8.54 1.72-2.12 1.4-5.24-0.72-6.96-2.11-1.72-5.22-1.4-6.94 0.72 0 0-0.18 0.22-0.51 0.63-1.2 1.45-4.32 5.22-8.03 9.4-3.7 4.18-8.03 8.8-11.42 11.82-4.02 3.58-9.31 7.74-13.57 10.96-2.13 1.62-4 3.01-5.34 3.99-0.67 0.49-1.2 0.87-1.57 1.14-0.37 0.26-0.56 0.4-0.56 0.4-2.21 1.59-2.73 4.68-1.14 6.9 1.58 2.22 4.66 2.73 6.88 1.15"/>
     <path id="Fill-16" d="m214.18 228.73v28.97h4.93l4.68-1.57c-0.11-0.32-1.67-4.96-5.69-10.55-4.01-5.58-10.58-12.19-20.59-15.88-3.68-1.36-7.44-3.79-11.1-7.09-5.5-4.94-10.72-11.79-15.18-19.28-4.47-7.48-8.2-15.59-10.89-23.01-3.86-10.64-9.3-21.76-13.79-30.29-4.49-8.52-8.03-14.43-8.06-14.48-1.35-2.25-4.2-3.06-6.52-1.84s-3.29 4.02-2.21 6.41c0 0.01 0.33 0.74 0.92 2.05 2.04 4.6 7.19 16.26 11.91 27.74 2.35 5.73 4.6 11.43 6.29 16.12 0.84 2.35 1.54 4.45 2.04 6.13 0.49 1.67 0.78 3 0.81 3.42 0.2 1.89 0.74 3.69 1.47 5.74 1.29 3.54 3.25 7.69 5.57 12.12 3.48 6.62 7.76 13.78 11.7 19.69 1.96 2.96 3.84 5.6 5.53 7.74 0.85 1.07 1.65 2.02 2.43 2.84 0.8 0.84 1.52 1.54 2.51 2.21 0.93 0.62 1.97 1.22 3.18 1.88 4.19 2.29 10.43 5.38 15.81 8.81 2.67 1.71 5.11 3.5 6.87 5.15 1.78 1.65 2.74 3.19 2.92 3.9 0.25 0.8 0.53 2.15 0.77 3.77 0.88 5.73 1.36 14.85 1.59 22.37 0.11 3.77 0.17 7.17 0.2 9.62s0.03 3.93 0.03 3.93c0 2.73 2.21 4.95 4.93 4.95 2.73 0 4.94-2.22 4.94-4.95 0-0.04 0-8.02-0.36-17.24-0.17-4.61-0.44-9.53-0.84-13.96-0.21-2.22-0.45-4.31-0.73-6.21-0.29-1.9-0.62-3.59-1.08-5.12-0.58-1.94-1.56-3.59-2.71-5.1-2.03-2.61-4.63-4.82-7.47-6.9-4.26-3.08-9.1-5.8-13.34-8.08-2.11-1.13-4.08-2.15-5.7-3.02-1.61-0.86-2.92-1.6-3.54-2.02v-0.01c-0.18-0.12-1.05-0.96-2.03-2.17-1.76-2.12-4.12-5.43-6.59-9.23-3.73-5.7-7.77-12.56-10.9-18.64-1.56-3.03-2.9-5.87-3.84-8.21-0.95-2.31-1.47-4.25-1.5-4.84-0.2-1.85-0.71-3.74-1.43-6.1-1.25-4.08-3.2-9.3-5.43-14.95-6.67-16.92-15.92-37.46-15.93-37.49l-4.5 2.03-4.23 2.54 0.15 0.25c1.49 2.5 14.14 24.18 20.89 42.82 3.87 10.66 9.61 22.43 16.81 32.59 7.23 10.13 15.85 18.8 26.21 22.69 7.7 2.84 12.78 7.91 16 12.38 1.61 2.23 2.72 4.28 3.42 5.74 0.34 0.73 0.59 1.31 0.74 1.69l0.16 0.41 0.02 0.07 1.03-0.35-1.03 0.34v0.01l1.03-0.35-1.03 0.34c0.76 2.29 3.09 3.7 5.47 3.32 2.38-0.39 4.14-2.47 4.14-4.88v-28.97c0-2.73-2.21-4.94-4.93-4.94-2.73 0-4.93 2.21-4.93 4.94"/>
     <path id="Fill-17" d="m238.96 302.55v-55.13c0-2.73-2.21-4.95-4.93-4.95-2.73 0-4.94 2.22-4.94 4.95v55.13c0 2.73 2.21 4.94 4.94 4.94 2.72 0 4.93-2.21 4.93-4.94"/>
     <path id="Fill-18" d="m221.91 51.189v4.944c2.49-0.006 4.77-0.811 6.77-2.01 2.99-1.823 5.47-4.569 7.31-7.938 1.82-3.372 2.97-7.414 2.97-11.815-0.01-5.874-2.01-11.138-4.97-15.117-1.49-1.994-3.23-3.682-5.22-4.951-2-1.256-4.3-2.13-6.86-2.136-2.54-0.01-4.91 0.906-6.78 2.268-2.83 2.06-4.76 5-6.11 8.359-1.33 3.376-2.05 7.236-2.06 11.357 0.02 5.495 1.27 10.525 3.61 14.557 1.19 2.01 2.67 3.794 4.56 5.158 1.87 1.362 4.24 2.278 6.78 2.268v-9.889c-0.24-0.006-0.5-0.046-1.02-0.409-0.77-0.524-1.89-1.908-2.7-3.985-0.82-2.067-1.36-4.763-1.36-7.7-0.01-3.917 0.98-7.404 2.25-9.54 0.63-1.075 1.3-1.787 1.81-2.146 0.52-0.363 0.78-0.402 1.02-0.409 0.2-0.01 0.79 0.099 1.59 0.61 1.19 0.738 2.7 2.324 3.78 4.414 1.11 2.086 1.82 4.635 1.81 7.291 0.01 3.534-1.26 6.738-2.95 8.911-0.84 1.087-1.76 1.895-2.55 2.367-0.8 0.484-1.41 0.603-1.68 0.596v4.945"/>
     <path id="Fill-19" d="m214.2 24.534c-0.01 0.109-0.32 3.234-0.32 7.43 0 3.151 0.16 6.89 0.84 10.539 0.33 1.826 0.8 3.632 1.5 5.376 0.71 1.737 1.65 3.445 3.13 4.938 1.93 1.932 5.05 1.932 6.98 0 1.92-1.931 1.92-5.063 0-6.991-0.2-0.192-0.61-0.755-0.96-1.662-0.56-1.351-1.02-3.395-1.27-5.584-0.27-2.192-0.36-4.539-0.36-6.616 0-1.849 0.07-3.491 0.15-4.651 0.03-0.584 0.06-1.045 0.09-1.355l0.03-0.346 0.01-0.092c0.27-2.72-1.71-5.143-4.42-5.413-2.71-0.274-5.13 1.711-5.4 4.427"/>
     <path id="Fill-20" d="m234.49 66.362v4.945c2.5-0.007 4.78-0.814 6.77-2.014 3-1.82 5.48-4.566 7.32-7.938 1.82-3.372 2.97-7.41 2.97-11.814-0.01-5.875-2.01-11.139-4.97-15.118-1.49-1.991-3.23-3.682-5.23-4.951-1.99-1.256-4.29-2.126-6.86-2.136-2.53-0.007-4.9 0.906-6.77 2.268-2.83 2.063-4.77 5.001-6.11 8.363-1.34 3.372-2.06 7.232-2.06 11.353 0.01 5.495 1.26 10.525 3.61 14.56 1.19 2.011 2.67 3.791 4.56 5.159 1.87 1.358 4.24 2.274 6.77 2.268v-9.889c-0.23-0.01-0.49-0.05-1.02-0.412-0.76-0.525-1.88-1.906-2.69-3.986-0.83-2.067-1.37-4.76-1.36-7.7-0.02-3.916 0.97-7.404 2.25-9.54 0.62-1.071 1.3-1.787 1.8-2.146 0.53-0.363 0.79-0.402 1.02-0.409 0.2-0.006 0.8 0.102 1.6 0.61 1.19 0.742 2.7 2.324 3.78 4.414 1.1 2.09 1.81 4.635 1.81 7.292 0.01 3.537-1.27 6.737-2.96 8.913-0.83 1.085-1.76 1.892-2.55 2.367-0.79 0.481-1.41 0.603-1.68 0.597v4.944"/>
     <path id="Fill-21" d="m226.79 39.704c-0.01 0.109-0.33 3.237-0.33 7.43 0.01 3.152 0.17 6.893 0.84 10.539 0.34 1.826 0.8 3.636 1.51 5.38 0.71 1.737 1.65 3.444 3.13 4.934 1.92 1.932 5.05 1.932 6.97 0 1.93-1.928 1.93-5.06 0-6.991-0.2-0.192-0.6-0.752-0.96-1.662-0.55-1.351-1.01-3.392-1.27-5.581-0.26-2.195-0.35-4.539-0.35-6.619 0-1.849 0.07-3.487 0.14-4.651 0.04-0.58 0.07-1.042 0.1-1.352l0.03-0.349 0.01-0.092c0.27-2.717-1.71-5.139-4.42-5.413-2.72-0.27-5.13 1.711-5.4 4.427"/>
     <path id="Fill-22" d="m219.57 105.61v4.94c2.5-0.01 4.78-0.81 6.78-2.01 2.99-1.82 5.47-4.57 7.31-7.94 1.82-3.37 2.97-7.412 2.97-11.812-0.01-5.874-2.01-11.139-4.97-15.121-1.49-1.991-3.23-3.679-5.22-4.948-2-1.256-4.3-2.129-6.87-2.136-2.53-0.01-4.9 0.907-6.77 2.268-2.83 2.06-4.76 5.001-6.11 8.36-1.34 3.372-2.06 7.235-2.06 11.356 0.01 5.495 1.26 10.525 3.61 14.553 1.19 2.01 2.67 3.8 4.56 5.16 1.87 1.36 4.24 2.28 6.77 2.27v-9.89c-0.23-0.01-0.49-0.04-1.01-0.41-0.77-0.525-1.89-1.906-2.7-3.983-0.83-2.067-1.37-4.763-1.36-7.7-0.02-3.916 0.97-7.407 2.25-9.54 0.62-1.075 1.3-1.787 1.81-2.146 0.52-0.363 0.78-0.402 1.01-0.409 0.21-0.01 0.8 0.099 1.6 0.61 1.19 0.739 2.7 2.324 3.78 4.414 1.1 2.087 1.81 4.635 1.81 7.292 0.01 3.533-1.27 6.738-2.95 8.91-0.84 1.084-1.76 1.895-2.55 2.362-0.8 0.49-1.41 0.61-1.69 0.6v4.95"/>
     <path id="Fill-23" d="m211.87 78.951c-0.01 0.109-0.32 3.234-0.33 7.43 0.01 3.152 0.17 6.89 0.84 10.536 0.34 1.826 0.81 3.633 1.51 5.383 0.71 1.73 1.65 3.44 3.13 4.93 1.93 1.94 5.05 1.94 6.97 0 1.93-1.93 1.93-5.06 0-6.99-0.2-0.19-0.59-0.752-0.96-1.659-0.55-1.354-1.01-3.395-1.26-5.584-0.27-2.192-0.36-4.539-0.36-6.616 0-1.849 0.07-3.491 0.14-4.651 0.04-0.583 0.07-1.045 0.1-1.355l0.03-0.346 0.01-0.095c0.27-2.717-1.71-5.14-4.42-5.41-2.71-0.273-5.13 1.711-5.4 4.427"/>
     <path id="Fill-24" d="m246.71 122.31l4.66 1.6c0.81-2.36 0.79-4.78 0.31-7.07-0.74-3.42-2.53-6.67-5.11-9.51-2.59-2.82-6.02-5.23-10.17-6.66-5.55-1.901-11.17-1.719-15.89-0.22-2.36 0.77-4.52 1.86-6.37 3.35-1.83 1.47-3.41 3.38-4.25 5.8-0.83 2.4-0.74 4.94-0.07 7.16 1.03 3.35 3.17 6.14 5.9 8.51 2.75 2.36 6.16 4.3 10.05 5.65l1.6-4.68-2.37 4.34c0.13 0.07 0.38 0.2 0.77 0.34l1.6-4.68-2.37 4.34 2.37-4.34-2.47 4.28 0.1 0.06 2.37-4.34-2.47 4.28 2.47-4.27-2.48 4.27h0.01l2.47-4.27-2.48 4.27c0.03 0 0.3 0.2 0.91 0.41 0.45 0.16 1.11 0.29 1.79 0.25 1.03-0.03 1.94-0.43 2.46-0.78 0.54-0.35 0.81-0.65 1.01-0.87l-3.68-3.29-1.61 4.68c5.19 1.77 10.34 2.23 14.91 1.31 2.28-0.46 4.45-1.29 6.35-2.63 1.89-1.33 3.53-3.28 4.34-5.69l-9.32-3.21c-0.09 0.21-0.21 0.45-0.72 0.83-0.75 0.55-2.42 1.16-4.64 1.26s-4.94-0.26-7.71-1.22c-1.89-0.65-3.97-0.1-5.29 1.39l3.68 3.28-2.46-4.28c-0.68 0.41-1 0.76-1.22 1l3.68 3.28-2.46-4.28 2.47 4.28-0.35-4.93c-0.85 0.06-1.62 0.36-2.12 0.65l2.47 4.28-0.35-4.93 0.35 4.93 1.39-4.74c-0.46-0.14-1.1-0.24-1.74-0.19l0.35 4.93 1.39-4.74-1.39 4.74 2.47-4.27c-0.03-0.02-0.37-0.25-1.08-0.47l-1.39 4.74 2.47-4.27-0.03-0.02c-0.08-0.05-0.35-0.21-0.84-0.38-3.7-1.27-6.67-3.34-8.27-5.24-0.81-0.94-1.26-1.82-1.43-2.41-0.18-0.62-0.13-0.88-0.06-1.1 0.06-0.2 0.35-0.72 1.1-1.31 1.08-0.89 3.07-1.8 5.39-2.15 2.33-0.37 4.96-0.21 7.47 0.66 3.34 1.14 5.95 3.4 7.45 5.7 0.75 1.14 1.21 2.28 1.4 3.19 0.2 0.91 0.11 1.53 0.02 1.79l4.66 1.61"/>
     <path id="Fill-25" d="m219.05 120.93c0.1 0.04 2.95 1.36 6.9 2.72 2.98 1.03 6.56 2.09 10.22 2.64 1.83 0.27 3.69 0.42 5.57 0.32 1.87-0.1 3.79-0.44 5.67-1.35 2.45-1.2 3.47-4.16 2.28-6.61-1.2-2.46-4.15-3.48-6.6-2.28-0.25 0.13-0.91 0.32-1.88 0.37-1.46 0.09-3.54-0.15-5.68-0.62-2.16-0.46-4.4-1.14-6.36-1.81-1.74-0.61-3.27-1.21-4.34-1.65-0.54-0.23-0.96-0.41-1.25-0.53l-0.32-0.15-0.08-0.03c-2.48-1.15-5.41-0.06-6.55 2.42s-0.05 5.42 2.42 6.56"/>
     <path id="Fill-26" d="m264.74 91.247l4.72-1.444c-0.73-2.39-2.17-4.338-3.9-5.901-2.61-2.337-5.96-3.912-9.71-4.687-3.75-0.762-7.94-0.679-12.15 0.606-5.6 1.728-10.04 5.186-12.97 9.181-1.46 2.008-2.57 4.17-3.19 6.458-0.62 2.274-0.78 4.74-0.04 7.2 0.73 2.43 2.3 4.43 4.15 5.83 2.79 2.11 6.16 3.1 9.76 3.41 3.61 0.29 7.51-0.15 11.44-1.35l-1.44-4.73 0.62 4.91c0.15-0.02 0.43-0.06 0.82-0.18l-1.44-4.73 0.62 4.91-0.62-4.91 0.51 4.92 0.11-0.01-0.62-4.91 0.51 4.92-0.51-4.91 0.5 4.91h0.01l-0.51-4.91 0.5 4.91c0.02 0 0.37-0.01 0.98-0.2 0.45-0.14 1.04-0.41 1.56-0.83 0.81-0.62 1.31-1.45 1.53-2.02 0.23-0.6 0.29-1 0.33-1.3l-4.9-0.57 1.44 4.73c5.24-1.62 9.68-4.29 12.84-7.72 1.57-1.72 2.84-3.662 3.59-5.87 0.75-2.193 0.93-4.734 0.18-7.157l-4.72 1.444-4.72 1.447c0.06 0.224 0.1 0.488-0.09 1.094-0.28 0.887-1.27 2.367-3.02 3.752-1.73 1.394-4.14 2.7-6.94 3.55-1.88 0.58-3.24 2.21-3.46 4.16l4.9 0.57-4.48-2.07c-0.32 0.71-0.38 1.18-0.42 1.5l4.9 0.57-4.48-2.07 4.48 2.07-3.15-3.81c-0.65 0.54-1.09 1.21-1.33 1.74l4.48 2.07-3.15-3.81 3.15 3.81-1.65-4.66c-0.45 0.16-1.01 0.45-1.5 0.85l3.15 3.81-1.65-4.66 1.65 4.66-0.51-4.91c-0.04 0.01-0.45 0.02-1.14 0.25l1.65 4.66-0.51-4.91h-0.03c-0.1 0.01-0.4 0.03-0.91 0.19-3.73 1.15-7.35 1.22-9.76 0.63-1.2-0.29-2.08-0.73-2.57-1.11-0.5-0.39-0.62-0.634-0.69-0.855-0.07-0.191-0.14-0.788 0.12-1.704 0.35-1.362 1.42-3.267 3.1-4.919 1.67-1.664 3.9-3.092 6.43-3.863 3.37-1.045 6.8-0.758 9.37 0.224 1.28 0.485 2.32 1.134 3 1.754 0.69 0.619 0.99 1.173 1.06 1.437l4.72-1.447"/>
     <path id="Fill-27" d="m241.56 106.43c0.1-0.03 3.18-0.64 7.18-1.87 3.01-0.92 6.53-2.17 9.81-3.88 1.65-0.859 3.24-1.832 4.7-3.015 1.45-1.187 2.8-2.591 3.79-4.444 1.28-2.409 0.37-5.406-2.04-6.688-2.41-1.279-5.39-0.366-6.67 2.047-0.12 0.247-0.54 0.794-1.3 1.408-1.13 0.926-2.95 1.961-4.96 2.844-2.02 0.894-4.23 1.668-6.21 2.275-1.77 0.541-3.35 0.953-4.48 1.226-0.57 0.135-1.02 0.238-1.32 0.304l-0.34 0.072-0.09 0.02c-2.68 0.534-4.41 3.138-3.88 5.821 0.54 2.67 3.14 4.41 5.81 3.88"/>
     <path id="Fill-28" d="m272.2 111.8l4.72-1.44c-0.74-2.39-2.17-4.34-3.9-5.9-2.61-2.34-5.96-3.91-9.71-4.685-3.75-0.762-7.95-0.683-12.15 0.605-5.6 1.73-10.03 5.18-12.97 9.18-1.47 2.01-2.57 4.17-3.2 6.46-0.61 2.27-0.77 4.74-0.03 7.2 0.73 2.42 2.3 4.43 4.15 5.82 2.79 2.11 6.16 3.11 9.76 3.42 3.61 0.29 7.51-0.15 11.44-1.35l-1.44-4.73 0.62 4.91c0.15-0.02 0.42-0.06 0.82-0.18l-1.44-4.73 0.62 4.91-0.62-4.91 0.5 4.92 0.12-0.01-0.62-4.91 0.5 4.92-0.5-4.91 0.5 4.91-0.5-4.91 0.5 4.91c0.02-0.01 0.36-0.01 0.97-0.2 0.46-0.14 1.07-0.42 1.6-0.85 0.81-0.64 1.31-1.49 1.53-2.08 0.23-0.61 0.28-1.01 0.31-1.31l-4.91-0.48-2.19 4.43c0.01 0 0.14 0.09 0.58 0.24 0.22 0.08 0.54 0.18 1.02 0.24 0.49 0.06 1.18 0.07 2.03-0.18 5.24-1.62 9.68-4.29 12.83-7.72 1.58-1.72 2.85-3.67 3.6-5.87s0.93-4.74 0.18-7.16l-4.72 1.44-4.72 1.45c0.06 0.22 0.1 0.49-0.09 1.09-0.28 0.89-1.27 2.37-3.02 3.76-1.73 1.39-4.14 2.7-6.95 3.55l1.45 4.73 0.58-4.91c-0.48-0.05-1.18-0.07-2.03 0.18l1.45 4.73 0.58-4.91-0.58 4.91 1.88-4.57c-0.22-0.08-0.57-0.24-1.3-0.34l-0.58 4.91 1.88-4.57-1.88 4.57 2.18-4.43-0.3-0.14-1.88 4.57 2.18-4.43c-1.45-0.72-3.17-0.68-4.58 0.11s-2.36 2.22-2.51 3.84l4.91 0.48-4.51-2.01c-0.31 0.72-0.36 1.2-0.4 1.53l4.91 0.48-4.51-2.01 4.51 2.01-3.17-3.79c-0.66 0.55-1.11 1.25-1.34 1.78l4.51 2.01-3.17-3.79 3.17 3.79-1.65-4.66c-0.46 0.16-1.03 0.46-1.52 0.87l3.17 3.79-1.65-4.66 1.65 4.66-0.51-4.92c-0.03 0.01-0.44 0.02-1.14 0.26l1.65 4.66-0.51-4.92-0.03 0.01c-0.1 0.01-0.41 0.03-0.91 0.18-3.73 1.16-7.35 1.23-9.76 0.64-1.2-0.29-2.08-0.73-2.57-1.11-0.5-0.4-0.62-0.63-0.69-0.86-0.07-0.19-0.14-0.79 0.12-1.7 0.35-1.36 1.42-3.27 3.1-4.92 1.67-1.67 3.89-3.09 6.43-3.86 3.37-1.05 6.8-0.76 9.37 0.22 1.28 0.48 2.32 1.13 3 1.75 0.69 0.62 0.99 1.18 1.06 1.44l4.72-1.45"/>
     <path id="Fill-29" d="m249.02 126.98c0.1-0.02 3.18-0.63 7.18-1.86 3.01-0.92 6.53-2.17 9.81-3.88 1.65-0.86 3.24-1.84 4.7-3.02 1.45-1.19 2.8-2.59 3.79-4.44 1.28-2.41 0.37-5.4-2.04-6.69-2.41-1.28-5.39-0.36-6.67 2.05-0.12 0.24-0.54 0.79-1.3 1.4-1.13 0.93-2.95 1.97-4.96 2.85-2.02 0.89-4.23 1.67-6.21 2.27-1.77 0.54-3.35 0.96-4.48 1.23-0.57 0.13-1.02 0.24-1.32 0.3l-0.34 0.08-0.09 0.02c-2.68 0.53-4.41 3.14-3.88 5.81 0.54 2.68 3.14 4.42 5.81 3.88"/>
     <path id="Fill-30" d="m188.29 90.871l-3.23-3.735c-1.88 1.645-3.08 3.755-3.8 5.973-1.07 3.343-1.14 7.041-0.32 10.801 0.83 3.74 2.61 7.54 5.49 10.87 3.86 4.42 8.81 7.08 13.65 8.14 2.43 0.53 4.84 0.65 7.18 0.3 2.33-0.36 4.64-1.22 6.58-2.9 1.91-1.66 3.11-3.9 3.63-6.16 0.78-3.42 0.32-6.91-0.86-10.33-1.2-3.43-3.19-6.814-5.88-9.926l-3.73 3.243 3.97-2.937-0.24-0.306-3.73 3.243 3.97-2.937-3.97 2.937 4.01-2.887-0.04-0.05-3.97 2.937 4.01-2.887-0.04-0.056c-0.13-0.162-0.61-0.828-1.54-1.358-0.93-0.544-2.05-0.693-2.72-0.633l0.29 4.934 4.76-1.288c0-0.004-0.03-0.155-0.15-0.485-0.13-0.323-0.36-0.857-0.88-1.47-3.61-4.137-7.85-7.114-12.26-8.61-2.21-0.739-4.5-1.111-6.82-0.9-2.3 0.204-4.69 1.074-6.59 2.742l3.23 3.735 3.24 3.732c0.18-0.149 0.4-0.29 1.04-0.36 0.92-0.108 2.67 0.195 4.64 1.233 1.98 1.015 4.15 2.697 6.07 4.914l3.72-3.243-4.6 1.774c0.12 0.323 0.36 0.86 0.88 1.469l3.72-3.243-4.6 1.774 4.6-1.77-4.76 1.289s0.03 0.151 0.16 0.481l4.6-1.77-4.76 1.289c0.61 2.26 2.72 3.78 5.05 3.65l-0.29-4.939-1.55 4.689c0.71 0.24 1.36 0.28 1.84 0.25l-0.29-4.939-1.55 4.689 1.55-4.693-3.79 3.163c0.29 0.38 1.16 1.2 2.24 1.53l1.55-4.693-3.79 3.163 3.79-3.159-4 2.889 0.21 0.27 3.79-3.159-4 2.889 0.28 0.35c2.57 2.95 4.11 6.23 4.55 8.68 0.23 1.22 0.18 2.21 0.04 2.81-0.16 0.62-0.33 0.82-0.5 0.98-0.15 0.14-0.67 0.44-1.61 0.58-1.38 0.23-3.55 0.03-5.74-0.84-2.2-0.85-4.4-2.3-6.14-4.31-2.32-2.66-3.46-5.92-3.6-8.67-0.08-1.368 0.08-2.585 0.37-3.461 0.28-0.887 0.67-1.385 0.88-1.556l-3.24-3.732"/>
     <path id="Fill-31" d="m211.56 105.92c-0.07-0.09-1.87-2.65-4.62-5.82-2.07-2.376-4.64-5.089-7.53-7.403-1.45-1.153-2.99-2.215-4.66-3.069-1.67-0.844-3.5-1.513-5.59-1.668-2.72-0.191-5.08 1.863-5.27 4.589-0.19 2.723 1.86 5.086 4.58 5.278 0.28 0.009 0.94 0.171 1.81 0.619 1.31 0.656 2.99 1.894 4.61 3.384 1.64 1.48 3.24 3.19 4.6 4.76 1.21 1.39 2.23 2.68 2.94 3.6 0.35 0.46 0.63 0.84 0.82 1.09l0.2 0.28 0.06 0.07c1.57 2.23 4.65 2.76 6.87 1.18 2.23-1.57 2.75-4.66 1.18-6.89"/>
     <path id="Fill-32" d="m209.42 125.12l0.17-4.94c-2.96-0.09-5.66 0.92-7.99 2.43-3.51 2.3-6.41 5.8-8.62 10.12-2.2 4.31-3.65 9.48-3.85 15.15-0.25 7.56 1.73 14.48 4.88 19.81 1.59 2.66 3.47 4.95 5.69 6.71 2.21 1.74 4.85 3.03 7.89 3.15 3 0.12 5.79-1.05 7.94-2.74 3.24-2.57 5.49-6.24 7.16-10.56 1.65-4.33 2.64-9.37 2.83-14.79 0.24-7.24-0.95-13.88-3.38-19.17-1.23-2.64-2.77-4.97-4.83-6.82-2.02-1.84-4.72-3.19-7.72-3.29l-0.17 4.94-0.18 4.94c0.31 0.02 0.73 0.11 1.49 0.77 1.12 0.97 2.59 3.3 3.55 6.55 0.99 3.23 1.54 7.32 1.38 11.73-0.19 5.88-1.64 11.12-3.49 14.45-0.91 1.67-1.92 2.84-2.7 3.44-0.81 0.61-1.23 0.67-1.54 0.67-0.27 0-1.07-0.2-2.12-1.03-1.57-1.22-3.47-3.74-4.8-7-1.35-3.27-2.17-7.25-2.02-11.42 0.19-5.55 2.08-10.47 4.44-13.76 1.17-1.64 2.45-2.85 3.54-3.55 1.09-0.72 1.91-0.87 2.27-0.85l0.18-4.94"/>
     <path id="Fill-33" d="m216.41 162.19c0.01-0.1 0.52-4.36 0.72-10.06 0.14-4.29 0.13-9.37-0.45-14.22-0.29-2.43-0.72-4.8-1.4-7.05-0.68-2.24-1.59-4.37-3.07-6.29-1.68-2.15-4.78-2.53-6.93-0.84-2.14 1.68-2.52 4.79-0.84 6.94 0.4 0.49 0.96 1.57 1.4 3.06 0.67 2.22 1.12 5.29 1.33 8.5s0.2 6.58 0.1 9.55c-0.09 2.64-0.26 4.98-0.4 6.63-0.08 0.84-0.14 1.49-0.18 1.94l-0.06 0.51-0.02 0.15c-0.32 2.72 1.61 5.17 4.32 5.5 2.7 0.32 5.16-1.61 5.48-4.32"/>
     <path id="Fill-34" d="m228.66 206.78l-1.53-4.7c-2.65 0.87-4.69 2.64-6.25 4.69-2.32 3.12-3.72 7.05-4.28 11.45-0.54 4.4-0.17 9.29 1.42 14.22 2.15 6.56 6 11.87 10.38 15.47 2.19 1.8 4.53 3.18 7.03 4.01 2.47 0.82 5.2 1.11 7.94 0.23 2.71-0.87 4.8-2.8 6.14-4.97 2.02-3.28 2.8-7.16 2.89-11.39 0.06-4.23-0.65-8.85-2.17-13.55-2.05-6.26-5.12-11.56-8.87-15.36-1.89-1.89-3.96-3.43-6.34-4.39-2.36-0.97-5.19-1.3-7.89-0.41l3.05 9.4c0.14-0.03 0.39-0.11 1.16 0.19 1.13 0.42 3.04 1.87 4.81 4.27 1.78 2.38 3.49 5.63 4.69 9.36 1.62 4.96 2 9.77 1.47 13.07-0.25 1.64-0.73 2.88-1.16 3.55-0.45 0.69-0.7 0.78-0.83 0.83-0.1 0.05-0.72 0.14-1.8-0.22-1.6-0.51-3.93-1.99-6-4.3-2.1-2.29-3.98-5.35-5.11-8.85-1.52-4.66-1.43-9.31-0.47-12.72 0.48-1.7 1.16-3.06 1.82-3.93 0.66-0.88 1.24-1.2 1.42-1.25l-1.52-4.7"/>
     <path id="Fill-35" d="m246.44 235.86c-0.02-0.09-0.9-3.87-2.5-8.77-1.19-3.69-2.77-8-4.77-11.96-1-1.98-2.11-3.88-3.39-5.6-1.29-1.72-2.75-3.28-4.67-4.5-2.31-1.44-5.35-0.74-6.79 1.58-1.45 2.32-0.74 5.37 1.57 6.82 0.42 0.24 1.19 0.94 1.99 2.03 1.22 1.62 2.53 4.05 3.68 6.68 1.16 2.63 2.18 5.47 3 8 0.73 2.26 1.31 4.27 1.69 5.71 0.2 0.72 0.34 1.3 0.44 1.69l0.11 0.44 0.03 0.13c0.62 2.66 3.28 4.31 5.93 3.69 2.65-0.63 4.3-3.29 3.68-5.94"/>
     <path id="Fill-36" d="m225.19 156.91l-0.85-4.87c-3.03 0.54-5.57 2.17-7.64 4.23-3.1 3.13-5.35 7.39-6.69 12.35-1.32 4.96-1.69 10.64-0.65 16.56 1.4 7.91 4.99 14.65 9.42 19.48 2.23 2.41 4.67 4.35 7.34 5.68 2.66 1.31 5.63 2.04 8.74 1.51 3.08-0.54 5.67-2.32 7.5-4.52 2.77-3.34 4.3-7.63 5.07-12.48 0.76-4.86 0.69-10.31-0.31-16-1.35-7.59-4.06-14.22-7.73-19.16-1.86-2.46-3.96-4.53-6.47-5.97-2.47-1.44-5.5-2.23-8.58-1.68l0.85 4.87 0.86 4.87c0.42-0.07 0.96-0.04 1.96 0.51 1.47 0.82 3.56 2.97 5.31 6.19 1.77 3.21 3.26 7.4 4.08 12.09 1.11 6.23 0.76 12.09-0.46 16.06-0.59 1.98-1.4 3.47-2.12 4.32-0.75 0.87-1.25 1.08-1.67 1.16-0.39 0.08-1.33 0.03-2.66-0.64-1.99-0.96-4.57-3.2-6.72-6.37-2.15-3.15-3.91-7.19-4.69-11.63-1.06-5.92-0.16-11.56 1.61-15.59 0.88-2.01 1.97-3.6 2.99-4.61 1.02-1.03 1.9-1.42 2.37-1.49l-0.86-4.87"/>
     <path id="Fill-37" d="m240.4 194.17c-0.01-0.09-0.42-4.66-1.48-10.66-0.79-4.5-1.94-9.8-3.61-14.72-0.84-2.46-1.81-4.84-3-7.01-1.2-2.17-2.6-4.17-4.53-5.8-2.09-1.76-5.21-1.48-6.95 0.61-1.75 2.09-1.48 5.21 0.61 6.97 0.57 0.47 1.42 1.5 2.22 2.99 1.23 2.21 2.38 5.34 3.31 8.67 0.94 3.33 1.68 6.87 2.23 10.01 0.5 2.79 0.84 5.28 1.06 7.05 0.11 0.89 0.19 1.59 0.24 2.08l0.06 0.54 0.01 0.17c0.25 2.72 2.65 4.72 5.36 4.47 2.72-0.24 4.72-2.65 4.47-5.37"/>
     <path id="Fill-38" d="m243.32 183.94l-2.24-4.41c-2.73 1.41-4.69 3.7-6.07 6.29-2.06 3.9-2.96 8.63-2.8 13.77 0.19 5.13 1.49 10.67 4.21 16.03 3.65 7.14 9.05 12.55 14.69 15.86 2.83 1.65 5.74 2.8 8.68 3.28 2.92 0.47 5.98 0.31 8.8-1.11 2.79-1.42 4.74-3.88 5.85-6.52 1.68-4.01 1.88-8.56 1.22-13.42-0.7-4.87-2.36-10.07-4.98-15.21-3.5-6.86-8.03-12.41-12.98-16.06-2.49-1.81-5.1-3.17-7.92-3.82-2.79-0.65-5.92-0.52-8.7 0.91l4.48 8.81c0.38-0.18 0.9-0.32 2.03-0.08 1.64 0.35 4.26 1.8 6.87 4.36 2.63 2.55 5.28 6.13 7.43 10.37 2.89 5.64 4.26 11.34 4.25 15.49 0.01 2.08-0.33 3.73-0.77 4.76-0.47 1.05-0.88 1.39-1.26 1.59-0.34 0.2-1.26 0.42-2.73 0.17-2.18-0.33-5.3-1.72-8.28-4.12-2.98-2.38-5.84-5.72-7.89-9.75-2.73-5.35-3.52-11.01-3-15.38 0.25-2.18 0.83-4.02 1.51-5.28 0.68-1.29 1.41-1.92 1.84-2.13l-2.24-4.4"/>
     <path id="Fill-39" d="m268.73 215.12c-0.03-0.09-1.76-4.34-4.52-9.76-2.08-4.08-4.72-8.81-7.75-13.03-1.52-2.1-3.14-4.09-4.92-5.82-1.78-1.72-3.7-3.22-6.03-4.22-2.51-1.06-5.4 0.11-6.46 2.62-1.07 2.52 0.11 5.42 2.62 6.49 0.68 0.28 1.79 1.02 2.99 2.2 1.82 1.76 3.84 4.42 5.7 7.33 1.87 2.91 3.61 6.07 5.05 8.92 1.29 2.52 2.35 4.8 3.07 6.43 0.36 0.81 0.65 1.47 0.84 1.91l0.21 0.51 0.06 0.15c1.03 2.53 3.91 3.75 6.44 2.71 2.52-1.03 3.73-3.91 2.7-6.44"/>
     <path id="Fill-40" d="m229.26 130.82l-2.96-3.95c-2.31 1.75-3.73 4.18-4.58 6.76-1.24 3.89-1.3 8.3-0.34 12.9 0.98 4.59 3.03 9.36 6.32 13.75 4.41 5.84 10.1 9.83 15.71 11.92 2.82 1.04 5.63 1.61 8.39 1.58 2.74-0.04 5.53-0.68 7.91-2.47 2.36-1.77 3.76-4.37 4.36-6.97 0.88-3.95 0.34-8.09-1.03-12.36-1.4-4.26-3.71-8.65-6.86-12.84-4.21-5.58-9.14-9.84-14.19-12.34-2.53-1.24-5.12-2.06-7.81-2.2-2.65-0.15-5.54 0.48-7.88 2.27l2.96 3.95 2.97 3.95c0.21-0.15 0.52-0.32 1.46-0.29 1.38 0.04 3.86 0.87 6.53 2.7 2.67 1.81 5.55 4.53 8.08 7.91 3.4 4.49 5.47 9.27 6.09 12.86 0.33 1.78 0.28 3.24 0.07 4.14-0.23 0.91-0.49 1.17-0.69 1.32-0.16 0.14-0.83 0.47-2.1 0.48-1.87 0.04-4.79-0.67-7.74-2.3-2.95-1.61-5.96-4.08-8.35-7.27-3.2-4.23-4.75-9.03-4.96-12.89-0.12-1.92 0.11-3.58 0.49-4.74 0.38-1.17 0.88-1.75 1.12-1.92l-2.97-3.95"/>
     <path id="Fill-41" d="m257.07 154.21c-0.05-0.08-2.25-3.58-5.56-7.98-2.48-3.3-5.57-7.09-8.95-10.38-1.69-1.65-3.45-3.17-5.33-4.45-1.88-1.27-3.86-2.33-6.17-2.87-2.65-0.61-5.3 1.05-5.91 3.71s1.05 5.32 3.7 5.93c0.57 0.12 1.62 0.57 2.84 1.41 1.83 1.24 4.01 3.26 6.1 5.53 2.1 2.27 4.12 4.79 5.84 7.07 1.53 2.04 2.81 3.88 3.71 5.21 0.45 0.66 0.8 1.19 1.03 1.55l0.27 0.41 0.08 0.13c1.45 2.31 4.5 3 6.8 1.55 2.31-1.45 3-4.51 1.55-6.82"/>
     <path id="Fill-42" d="m201.89 170.01l0.77-4.88c-2.64-0.41-5.12 0.21-7.29 1.28-3.27 1.62-6.07 4.29-8.38 7.71-2.29 3.42-4.04 7.62-4.79 12.36-0.99 6.34-0.05 12.35 2.05 17.19 1.06 2.42 2.41 4.57 4.14 6.33 1.72 1.74 3.89 3.18 6.61 3.63 2.68 0.43 5.29-0.32 7.34-1.57 3.1-1.9 5.37-4.8 7.21-8.27 1.83-3.47 3.17-7.58 3.89-12.09 0.94-6.02 0.63-11.69-0.86-16.43-0.77-2.37-1.83-4.53-3.42-6.38-1.56-1.82-3.82-3.34-6.5-3.76l-1.55 9.77c0.01 0.01 0.15-0.02 0.6 0.48 0.67 0.72 1.6 2.65 2.04 5.3 0.46 2.64 0.5 5.96-0.06 9.47-0.72 4.68-2.4 8.72-4.15 11.12-0.86 1.21-1.72 1.99-2.28 2.32-0.6 0.33-0.72 0.26-0.72 0.27l-0.3-0.13c-0.35-0.19-0.98-0.73-1.62-1.63-0.97-1.34-1.92-3.44-2.45-5.91-0.54-2.47-0.68-5.3-0.22-8.16 0.68-4.36 2.65-8.06 4.78-10.38 1.06-1.16 2.15-1.96 2.98-2.36 0.85-0.42 1.35-0.41 1.4-0.39l0.78-4.89"/>
     <path id="Fill-43" d="m204.93 202.25c0.02-0.09 0.95-3.85 1.75-8.93 0.6-3.82 1.14-8.38 1.16-12.81 0-2.22-0.12-4.41-0.49-6.53-0.37-2.11-0.95-4.17-2.11-6.12-1.41-2.34-4.44-3.09-6.77-1.69-2.34 1.42-3.09 4.45-1.69 6.79 0.26 0.41 0.63 1.38 0.85 2.71 0.35 2.01 0.42 4.76 0.25 7.62-0.16 2.86-0.53 5.85-0.95 8.48-0.37 2.34-0.77 4.4-1.07 5.85-0.16 0.73-0.29 1.31-0.38 1.7l-0.1 0.44-0.03 0.14c-0.65 2.65 0.97 5.32 3.61 5.98 2.65 0.65 5.32-0.97 5.97-3.63"/>
     <path id="Fill-44" d="m206.8 66.603l0.94 4.852c2.18-0.428 3.99-1.51 5.49-2.851 2.23-2.034 3.83-4.711 4.81-7.79 0.96-3.075 1.26-6.589 0.56-10.219-0.95-4.839-3.43-8.841-6.51-11.656-1.55-1.407-3.27-2.531-5.16-3.276-1.89-0.732-4.02-1.108-6.26-0.679-2.22 0.425-4.13 1.631-5.51 3.111-2.08 2.242-3.2 5.014-3.77 7.998-0.56 2.989-0.54 6.25 0.11 9.602 0.88 4.467 2.68 8.373 5.28 11.346 1.32 1.48 2.85 2.74 4.7 3.597 1.82 0.857 4.05 1.256 6.26 0.817l-1.88-9.708v0.013-0.016 0.003 0.013-0.016c-0.04-0.007-0.29-0.059-0.69-0.34-0.6-0.408-1.46-1.318-2.21-2.643-0.75-1.322-1.4-3.036-1.77-4.952-0.58-2.92-0.33-5.653 0.27-7.318 0.3-0.837 0.66-1.381 0.88-1.615l0.22-0.181-0.01-0.017v0.014l0.01 0.003-0.01-0.017v0.014l-0.02-0.096 0.01 0.099 0.01-0.003-0.02-0.096 0.01 0.099c0.01-0.01 0.38-0.01 0.97 0.25 0.89 0.376 2.14 1.309 3.17 2.647 1.05 1.335 1.88 3.033 2.24 4.889 0.5 2.548 0.02 5.047-0.88 6.82-0.44 0.88-0.98 1.559-1.42 1.958-0.45 0.406-0.76 0.492-0.76 0.488l0.94 4.856"/>
     <path id="Fill-45" d="m195.71 46.94c0.01 0.108 0.24 2.637 0.89 5.979 0.49 2.512 1.19 5.472 2.31 8.321 0.57 1.427 1.23 2.834 2.1 4.173 0.87 1.328 1.94 2.627 3.48 3.679 2.26 1.526 5.32 0.929 6.85-1.335 1.52-2.265 0.93-5.337-1.33-6.864-0.04-0.016-0.36-0.293-0.74-0.876-0.56-0.864-1.21-2.328-1.73-3.956-0.52-1.629-0.95-3.422-1.26-5.027-0.27-1.427-0.46-2.71-0.58-3.616-0.06-0.455-0.11-0.815-0.13-1.055l-0.03-0.267-0.01-0.069c-0.25-2.72-2.65-4.718-5.37-4.467-2.71 0.25-4.7 2.66-4.45 5.38"/>
     <path id="Fill-46" d="m189.01 209.66c0 0.1-0.07 0.98-0.07 2.38 0 2.1 0.14 5.34 0.89 8.93 0.78 3.57 2.13 7.56 5.02 10.98 1.32 1.55 2.99 2.67 4.7 3.32 1.72 0.67 3.44 0.89 5.05 0.89 4.14-0.03 7.76-1.38 10.54-2.61 2.77-1.24 4.63-2.44 4.77-2.53 2.29-1.48 2.96-4.54 1.48-6.84-1.47-2.29-4.52-2.96-6.81-1.48l0.67 1.06-0.67-1.06 0.67 1.06-0.67-1.06c-0.06 0.04-1.61 1.01-3.67 1.92-2.04 0.92-4.64 1.68-6.31 1.65-0.67 0-1.17-0.09-1.5-0.22-0.33-0.14-0.51-0.26-0.76-0.54-1.3-1.49-2.31-3.98-2.85-6.6-0.56-2.6-0.69-5.24-0.68-6.87 0-0.54 0.01-0.97 0.02-1.26l0.02-0.3v-0.06l-0.55-0.04 0.55 0.04-0.55-0.04 0.55 0.04c0.21-2.72-1.82-5.1-4.54-5.31s-5.09 1.83-5.29 4.55"/>
    </g>
   </g>
  </g>
 </g>
</svg>
