<?xml version="1.0" encoding="UTF-8" standalone="no"?>
<svg width="1226px" height="1072px" viewBox="0 0 1226 1072" version="1.1" xmlns="http://www.w3.org/2000/svg" xmlns:xlink="http://www.w3.org/1999/xlink" xmlns:sketch="http://www.bohemiancoding.com/sketch/ns">
    <!-- Generator: Sketch 3.2.2 (9983) - http://www.bohemiancoding.com/sketch -->
    <title>bg</title>
    <desc>Created with Sketch.</desc>
    <defs>
        <rect id="path-1" x="0" y="0" width="1500" height="1123"></rect>
    </defs>
    <g id="Blank-Project" stroke="none" stroke-width="1" fill="none" fill-rule="evenodd" sketch:type="MSPage">
        <g id="Portada-10" sketch:type="MSArtboardGroup" transform="translate(-156.000000, 0.000000)">
            <g id="bg" sketch:type="MSLayerGroup">
                <mask id="mask-2" sketch:name="Mask" fill="white">
                    <use xlink:href="#path-1"></use>
                </mask>
                <use id="Mask" sketch:type="MSShapeGroup" xlink:href="#path-1"></use>
                <g id="gegant-bg-3" mask="url(#mask-2)" sketch:type="MSShapeGroup">
                    <g transform="translate(520.476045, 92.274756) scale(-1, -1) rotate(-272.000000) translate(-520.476045, -92.274756) translate(-465.023955, -748.225244)">
                        <path d="M1269.82854,1136.13199 C1268.65038,1139.51028 1268.05078,1143.62489 1269.76467,1147.41992 L1270.86153,1142.10782 L1269.82854,1136.13199 L1269.82854,1136.13199 Z M1213.4447,1600.90159 L1247.67427,1608.02671 C1247.67427,1608.02671 1242.89308,1630.81346 1251.08627,1637.6631 C1259.27946,1644.51274 1280.58943,1637.31953 1284.45874,1631.53773 C1288.32805,1625.75592 1282.75547,1611.23022 1282.75547,1611.23022 L1289.60413,1597.73831 L1305.4401,1600.45898 C1305.4401,1600.45898 1304.98005,1659.96699 1309.33679,1669.84683 C1313.69353,1679.72666 1330.98904,1684.68205 1344.29751,1684.68205 C1357.60597,1684.68204 1375.32867,1665.09881 1363.69609,1656.59634 C1352.06351,1648.09387 1337.7802,1632.70771 1337.7802,1632.70771 C1337.7802,1632.70771 1342.10682,1619.86579 1342.10681,1610.16238 C1342.10681,1600.45898 1346.40605,1593.631 1355.05107,1597.04499 C1363.69608,1600.45898 1378.04513,1598.73187 1378.04513,1598.73187 C1378.04513,1598.73187 1409.11564,1635.53968 1409.11565,1648.17113 C1409.11566,1660.80258 1441.29315,1237.08594 1435.93416,1165.6986 C1430.57518,1094.31125 1445.38976,967.385419 1445.38976,967.385419 C1445.38976,967.385419 1471.43162,746.191153 1450.27226,740.994339 C1429.1129,735.797524 1399.04291,721.027305 1388.54402,721.027304 C1378.04513,721.027302 1372.89152,698.930781 1365.94703,691.356865 C1359.00254,683.782948 1349.07322,678.310662 1349.07322,678.310662 C1349.07322,678.310662 1355.42074,673.042658 1366.73294,667.087523 C1378.04513,661.132388 1387.83478,661.030247 1392.86242,655.140111 C1397.89006,649.249975 1398.906,629.976261 1402.21668,620.439998 C1405.52736,610.903734 1410.03746,607.842598 1419.57518,607.842597 C1429.1129,607.842596 1430.04944,589.184825 1426.42657,581.576861 C1422.80371,573.968898 1410.23188,573.00939 1418.32923,559.40915 C1426.42657,545.808909 1435.93418,550.111217 1435.93418,519.199608 C1435.93418,488.287999 1384.62815,459.007556 1352.01422,459.007555 C1319.40029,459.007553 1275.19485,481.788114 1271.04348,493.494101 C1266.89212,505.200087 1272.47565,521.100051 1264.00862,530.97988 C1255.5416,540.859709 1249.54184,549.736698 1253.86571,562.337194 C1258.18959,574.93769 1278.37957,608.279018 1278.37956,637.683271 C1278.37956,667.087523 1283.34696,692.752793 1268.60634,704.768299 C1253.86572,716.783806 1236.6633,733.785654 1220.49051,733.785654 C1204.31772,733.785654 1158.09137,725.493655 1138.9365,738.400574 C1119.78164,751.307494 1106.41019,752.198919 1096.20978,765.074874 C1086.00937,777.95083 1091.40669,918.719833 1091.40669,918.719833 C1091.40669,918.719833 1089.34196,985.600579 1083.55305,991.65476 C1077.76415,997.708941 1052.97646,995.508265 1052.97646,995.508265 L1034.09543,994.715898 C1034.09543,994.715898 1035.2209,974.75197 1023.13101,971.068688 C1011.04113,967.385407 999.285323,966.215427 995.205158,980.465668 C991.124993,994.71591 992.770752,1021.22307 999.531776,1021.22306 C1006.2928,1021.22305 1043.26347,1032.13668 1060.95606,1037.91848 C1078.64864,1043.70029 1106.4321,1058.05265 1122.6843,1044.31932 C1138.9365,1030.586 1146.65048,998.095839 1146.65048,950.559996 C1146.65048,903.024152 1137.759,889.256771 1144.52277,879.445037 C1151.28653,869.633302 1159.63033,885.7035 1164.62511,897.753053 C1169.61989,909.802606 1193.52856,960.576001 1193.52856,977.645955 C1193.52857,994.71591 1198.37274,1011.06466 1192.95351,1051.09778 C1187.53427,1091.13089 1189.48126,1113.09125 1185.15738,1121.04276 C1180.8335,1128.99426 1167.36896,1177.44321 1167.36895,1244.21872 C1167.36895,1310.99423 1145.72766,1393.95137 1159.12647,1450.47253 C1172.52529,1506.99369 1178.10883,1501.52448 1172.73889,1534.18798 C1167.36895,1566.85149 1154.1673,1591.82651 1163.45309,1599.71923 C1172.73888,1607.61195 1183.99084,1618.47919 1198.71777,1618.47914 C1213.44469,1618.4791 1213.4447,1600.90159 1213.4447,1600.90159 Z M1361.63136,546.898414 C1361.63136,546.898414 1350.66968,559.115108 1338.76327,565.655232 C1326.85685,572.195356 1319.33456,573.814138 1326.82673,577.051701 C1334.3189,580.289264 1342.57234,584.56062 1352.10185,580.80616 C1361.63136,577.051701 1368.03092,570.443482 1368.03092,562.009105 C1368.03092,553.574727 1361.63136,546.898414 1361.63136,546.898414 Z M1402.0113,795.191019 L1431.7034,810.577181 C1431.7034,810.577181 1446.95884,819.766784 1442.63496,828.752105 C1438.31108,837.737425 1427.65062,839.356207 1427.65062,839.356207 C1427.65062,839.356207 1426.19107,817.120403 1416.50547,817.120402 C1406.81987,817.1204 1398.78003,811.920492 1398.78003,805.93131 C1398.78003,799.942127 1402.0113,795.191019 1402.0113,795.191019 Z M1153.19243,794.500793 C1153.19243,794.500793 1165.64652,779.325104 1194.76083,784.280494 C1223.87513,789.235884 1230.5102,800.898539 1230.51019,809.026494 C1230.51019,817.154449 1220.15369,816.052563 1215.76957,808.651977 C1211.38544,801.25139 1196.06703,797.150271 1188.81857,802.901124 C1181.57012,808.651976 1180.05033,817.572298 1169.90742,810.236711 C1159.76451,802.901124 1153.19243,794.500793 1153.19243,794.500793 Z M1328.11103,773.490681 C1328.11103,773.490681 1320.80507,836.412683 1324.45805,864.154825 C1328.11103,891.896967 1362.2248,910.593357 1368.55864,962.638885 C1374.89248,1014.68441 1417.98867,1137.14011 1386.08519,1179.77344 C1354.1817,1222.40677 1328.7299,1225.68786 1328.7299,1270.95183 C1328.7299,1316.21579 1342.55591,1383.64438 1342.55591,1402.91812 C1342.5559,1422.19185 1351.14068,1493.43988 1351.14068,1493.43988 C1351.14068,1493.43988 1357.11032,1529.20159 1354.1255,1529.20164 C1351.14068,1529.20169 1338.19095,1544.81378 1328.05078,1540.20193 C1317.91061,1535.59008 1317.17947,1434.25376 1317.17947,1434.25376 C1317.17947,1434.25376 1308.6522,1333.23623 1308.6522,1230.25325 C1308.6522,1127.27027 1279.37168,1088.80362 1274.77123,1061.57837 C1270.17077,1034.35312 1264.71922,1021.94761 1268.1586,990.593398 C1271.59799,959.239185 1311.04279,916.797723 1311.04279,890.476274 C1311.04279,864.154825 1291.18416,854.74856 1301.11348,830.34303 C1311.04279,805.937499 1303.38084,790.891808 1312.57902,778.566783 C1321.77719,766.241759 1328.11103,773.490681 1328.11103,773.490681 Z M1273.31359,1488.80948 C1273.31359,1488.80948 1271.63771,1500.61452 1279.16,1500.61452 C1286.68229,1500.61452 1288.8456,1489.94232 1288.8456,1489.94232 L1273.31359,1488.80948 Z M1281.16722,1528.04404 L1297.94793,1531.38065 L1295.02335,1539.33218 L1282.38579,1536.06367 L1281.16722,1528.04404 Z M1237.68197,1452.76606 L1261.4948,1453.8339 L1260.06264,1459.82308 L1237.68197,1452.76606 Z M1258.41962,1378.6952 L1278.91081,1378.72925 L1276.4764,1391.63617 L1258.41962,1378.6952 Z M1258.62773,1191.38392 L1279.94591,1190.90107 L1277.47864,1208.48791 L1268.0395,1198.8526 L1258.62773,1191.38392 Z M1269.82854,1136.13199 C1271.26881,1132.0021 1273.57373,1128.97262 1273.57373,1128.97262 L1270.86153,1142.10782 L1272.11418,1149.35441 L1278.63423,1147.70468 L1278.63423,1127.97907 L1268.70492,1129.63189 L1269.82854,1136.13199 L1269.82854,1136.13199 Z M1269.61953,871.063277 L1272.30039,877.946967 L1276.77488,873.298 L1269.61953,871.063277 Z" id="Path-1134" opacity="0.10780084" fill="#8C4C35" transform="translate(1225.777301, 1071.844800) scale(-1, -1) rotate(43.000000) translate(-1225.777301, -1071.844800) "></path>
                        <path d="M1426.14601,671.30423 C1424.96785,674.682518 1424.36826,678.79713 1426.08215,682.592161 L1427.17901,677.280065 L1426.14601,671.30423 L1426.14601,671.30423 Z M1369.76218,1136.07383 L1403.99175,1143.19895 C1403.99175,1143.19895 1399.21056,1165.9857 1407.40375,1172.83534 C1415.59694,1179.68498 1436.90691,1172.49177 1440.77622,1166.70997 C1444.64552,1160.92816 1439.07295,1146.40246 1439.07295,1146.40246 L1445.92161,1132.91055 L1461.75757,1135.63122 C1461.75757,1135.63122 1461.29753,1195.13924 1465.65427,1205.01907 C1470.01101,1214.8989 1487.30652,1219.85429 1500.61499,1219.85429 C1513.92345,1219.85428 1531.64615,1200.27105 1520.01357,1191.76858 C1508.38099,1183.26611 1494.09767,1167.87995 1494.09767,1167.87995 C1494.09767,1167.87995 1498.4243,1155.03803 1498.42429,1145.33462 C1498.42429,1135.63122 1502.72353,1128.80324 1511.36855,1132.21723 C1520.01356,1135.63122 1534.36261,1133.90411 1534.36261,1133.90411 C1534.36261,1133.90411 1565.43312,1170.71192 1565.43313,1183.34337 C1565.43314,1195.97482 1597.61063,772.258177 1592.25164,700.870836 C1586.89266,629.483495 1601.70724,502.557659 1601.70724,502.557659 C1601.70724,502.557659 1627.7491,281.363394 1606.58974,276.16658 C1585.43038,270.969765 1555.36039,256.199546 1544.8615,256.199544 C1534.36261,256.199543 1529.209,234.103022 1522.26451,226.529106 C1515.32001,218.955189 1505.3907,213.482903 1505.3907,213.482903 C1505.3907,213.482903 1511.73822,208.214899 1523.05042,202.259764 C1534.36261,196.304629 1544.15226,196.202488 1549.1799,190.312352 C1554.20754,184.422216 1555.22348,165.148502 1558.53416,155.612239 C1561.84484,146.075975 1566.35494,143.014838 1575.89266,143.014838 C1585.43038,143.014837 1586.36692,124.357065 1582.74405,116.749102 C1579.12119,109.141138 1566.54936,108.181631 1574.6467,94.5813906 C1582.74405,80.9811499 1592.25166,85.2834579 1592.25166,54.3718488 C1592.25166,23.4602397 1540.94563,-5.82020268 1508.3317,-5.82020419 C1475.71777,-5.8202057 1431.51232,16.9603552 1427.36096,28.6663415 C1423.2096,40.3723278 1428.79313,56.272292 1420.3261,66.152121 C1411.85907,76.0319499 1405.85932,84.908939 1410.18319,97.5094351 C1414.50707,110.109931 1434.69705,143.451259 1434.69704,172.855511 C1434.69704,202.259764 1439.66444,227.925034 1424.92382,239.94054 C1410.18319,251.956046 1392.98078,268.957895 1376.80799,268.957895 C1360.6352,268.957895 1314.40885,260.665896 1295.25398,273.572815 C1276.09912,286.479734 1262.72767,287.37116 1252.52726,300.247115 C1242.32685,313.12307 1247.72417,453.892074 1247.72417,453.892074 C1247.72417,453.892074 1245.65944,520.77282 1239.87053,526.827001 C1234.08163,532.881182 1209.29394,530.680506 1209.29394,530.680506 L1190.41291,529.888139 C1190.41291,529.888139 1191.53838,509.924211 1179.44849,506.240929 C1167.35861,502.557647 1155.6028,501.387668 1151.52264,515.637909 C1147.44247,529.888151 1149.08823,556.395311 1155.84926,556.395299 C1162.61028,556.395287 1199.58095,567.308919 1217.27354,573.090724 C1234.96612,578.872528 1262.74958,593.224887 1279.00178,579.491565 C1295.25398,565.758244 1302.96796,533.26808 1302.96796,485.732236 C1302.96796,438.196393 1294.07648,424.429012 1300.84025,414.617277 C1307.60401,404.805543 1315.94781,420.875741 1320.94259,432.925294 C1325.93737,444.974847 1349.84604,495.748241 1349.84604,512.818196 C1349.84604,529.888151 1354.69022,546.236903 1349.27098,586.270019 C1343.85175,626.303136 1345.79874,648.263494 1341.47486,656.214999 C1337.15098,664.166504 1323.68644,712.615451 1323.68643,779.390961 C1323.68643,846.166471 1302.04514,929.123606 1315.44395,985.644771 C1328.84277,1042.16593 1334.42631,1036.69672 1329.05637,1069.36023 C1323.68643,1102.02373 1310.48478,1126.99875 1319.77057,1134.89147 C1329.05636,1142.78419 1340.30832,1153.65143 1355.03524,1153.65139 C1369.76217,1153.65134 1369.76218,1136.07383 1369.76218,1136.07383 Z M1517.94884,82.0706549 C1517.94884,82.0706549 1506.98716,94.2873488 1495.08075,100.827473 C1483.17433,107.367597 1475.65204,108.986379 1483.14421,112.223942 C1490.63638,115.461505 1498.88982,119.732861 1508.41933,115.978401 C1517.94884,112.223941 1524.3484,105.615723 1524.3484,97.1813456 C1524.3484,88.7469678 1517.94884,82.0706549 1517.94884,82.0706549 Z M1558.32878,330.36326 L1588.02088,345.749422 C1588.02088,345.749422 1603.27632,354.939025 1598.95244,363.924346 C1594.62856,372.909666 1583.9681,374.528448 1583.9681,374.528448 C1583.9681,374.528448 1582.50855,352.292644 1572.82295,352.292642 C1563.13735,352.292641 1555.09751,347.092733 1555.09751,341.10355 C1555.09751,335.114368 1558.32878,330.36326 1558.32878,330.36326 Z M1309.50991,329.673034 C1309.50991,329.673034 1321.964,314.497344 1351.07831,319.452735 C1380.19261,324.408125 1386.82768,336.07078 1386.82767,344.198735 C1386.82767,352.32669 1376.47117,351.224804 1372.08705,343.824218 C1367.70292,336.423631 1352.38451,332.322512 1345.13605,338.073365 C1337.8876,343.824217 1336.36781,352.744539 1326.2249,345.408952 C1316.08199,338.073365 1309.50991,329.673034 1309.50991,329.673034 Z M1484.42851,308.662922 C1484.42851,308.662922 1477.12255,371.584924 1480.77553,399.327066 C1484.42851,427.069208 1518.54228,445.765598 1524.87612,497.811125 C1531.20996,549.856653 1574.30615,672.312346 1542.40266,714.945677 C1510.49918,757.579009 1485.04738,760.860104 1485.04738,806.12407 C1485.04738,851.388036 1498.87339,918.816618 1498.87338,938.090356 C1498.87338,957.364094 1507.45816,1028.61212 1507.45816,1028.61212 C1507.45816,1028.61212 1513.4278,1064.37384 1510.44298,1064.37388 C1507.45816,1064.37393 1494.50843,1079.98602 1484.36826,1075.37417 C1474.22809,1070.76232 1473.49695,969.426004 1473.49695,969.426004 C1473.49695,969.426004 1464.96968,868.408467 1464.96968,765.425489 C1464.96968,662.44251 1435.68916,623.975858 1431.08871,596.750609 C1426.48825,569.52536 1421.03669,557.119852 1424.47608,525.765639 C1427.91547,494.411426 1467.36027,451.969964 1467.36027,425.648515 C1467.36027,399.327066 1447.50164,389.920801 1457.43096,365.515271 C1467.36027,341.10974 1459.69832,326.064049 1468.89649,313.739024 C1478.09467,301.413999 1484.42851,308.662922 1484.42851,308.662922 Z M1429.63107,1023.98173 C1429.63107,1023.98173 1427.95519,1035.78676 1435.47748,1035.78676 C1442.99977,1035.78676 1445.16308,1025.11456 1445.16308,1025.11456 L1429.63107,1023.98173 Z M1437.4847,1063.21628 L1454.26541,1066.55289 L1451.34083,1074.50442 L1438.70327,1071.23591 L1437.4847,1063.21628 Z M1393.99945,987.938302 L1417.81228,989.006141 L1416.38012,994.995323 L1393.99945,987.938302 Z M1414.7371,913.867442 L1435.22829,913.901489 L1432.79388,926.808408 L1414.7371,913.867442 Z M1414.94521,726.556162 L1436.26339,726.073313 L1433.79612,743.660151 L1424.35697,734.024842 L1414.94521,726.556162 Z M1426.14601,671.30423 C1427.58629,667.174344 1429.89121,664.144861 1429.89121,664.144861 L1427.17901,677.280065 L1428.43166,684.526651 L1434.95171,682.876918 L1434.95171,663.151307 L1425.0224,664.804136 L1426.14601,671.30423 L1426.14601,671.30423 Z M1425.93701,406.235518 L1428.61787,413.119208 L1433.09236,408.470241 L1425.93701,406.235518 Z" id="Path-1141" opacity="0.10780084" fill="#8C4C35" transform="translate(1382.094780, 607.017041) scale(-1, -1) rotate(43.000000) translate(-1382.094780, -607.017041) "></path>
                        <path d="M276.884871,1131.82362 C275.706711,1135.20191 275.10712,1139.31652 276.821002,1143.11155 L277.917863,1137.79946 L276.884871,1131.82362 L276.884871,1131.82362 Z M220.501033,1596.59323 L254.730605,1603.71834 C254.730605,1603.71834 249.949417,1626.50509 258.142609,1633.35473 C266.3358,1640.20437 287.645764,1633.01117 291.515073,1627.22936 C295.384381,1621.44756 289.811809,1606.92186 289.811809,1606.92186 L296.660462,1593.42995 L312.496431,1596.15061 C312.496431,1596.15061 312.036386,1655.65863 316.393126,1665.53846 C320.749866,1675.41829 338.045379,1680.37368 351.353842,1680.37368 C364.662305,1680.37368 382.385008,1660.79045 370.752425,1652.28798 C359.119842,1643.7855 344.836531,1628.39934 344.836531,1628.39934 C344.836531,1628.39934 349.163155,1615.55742 349.163149,1605.85402 C349.163144,1596.15061 353.462389,1589.32264 362.107404,1592.73663 C370.75242,1596.15061 385.101462,1594.4235 385.101462,1594.4235 C385.101462,1594.4235 401.60832,1621.34232 401.608331,1633.97377 C401.608342,1646.60522 423.501571,1671.69478 436.169245,1676.03423 C448.83692,1680.37368 480.021425,1675.7959 480.021435,1662.36899 C480.021446,1648.94208 470.763015,1635.20875 464.185466,1623.0942 C457.607917,1610.97964 449.814522,1601.99432 454.412238,1593.5259 C459.009954,1585.05747 479.473751,1581.87872 486.722216,1593.86637 C493.970681,1605.85402 497.193727,1630.8724 503.470061,1630.87239 C509.746396,1630.87239 525.765836,1632.69855 529.175101,1603.30359 C532.584367,1573.90862 516.510159,1567.26635 509.99011,1558.48841 C503.470061,1549.71047 498.691602,1501.49059 494.762058,1477.01696 C490.832514,1452.54334 442.385336,1266.00276 442.385336,1266.00276 C442.385336,1266.00276 421.677814,1176.37551 416.318832,1104.98817 C410.95985,1033.60083 398.270263,1011.03384 412.583701,979.261773 C426.897139,947.48971 449.034088,893.998725 449.034088,893.998725 L452.446092,963.077053 L459.390587,992.366784 C459.390587,992.366784 455.518533,1026.33334 465.784671,1032.84251 C476.05081,1039.35169 524.985391,1031.61063 545.846272,1018.73466 C566.707153,1005.8587 580.53589,1001.88757 576.452986,990.574672 C572.370083,979.26177 548.891324,978.187741 534.30406,984.381208 C519.716796,990.574675 503.94106,993.400575 503.94106,993.400575 L491.938803,990.098014 L493.039626,910.245349 C493.039626,910.245349 497.423739,876.238557 505.920899,849.666398 C514.418059,823.094239 518.010784,767.405682 518.010784,758.144887 C518.010784,748.884092 511.493473,737.110013 511.493473,737.110013 C511.493473,737.110013 478.487956,741.882788 457.328598,736.685973 C436.16924,731.489159 406.099245,716.718939 395.600356,716.718938 C385.101467,716.718936 379.947852,694.622416 373.003362,687.048499 C366.058871,679.474583 356.129552,674.002297 356.129552,674.002297 C356.129552,674.002297 362.477078,668.734293 373.789273,662.779158 C385.101467,656.824023 394.89112,656.721882 399.918759,650.831745 C404.946399,644.941609 405.962338,625.667895 409.273017,616.131632 C412.583696,606.595369 417.093795,603.534232 426.631517,603.534231 C436.16924,603.53423 437.105772,584.876459 433.482909,577.268495 C429.860045,569.660532 417.288219,568.701025 425.385561,555.100784 C433.482903,541.500543 442.990515,545.802851 442.990515,514.891242 C442.990515,483.979633 391.684491,454.699191 359.070557,454.699189 C326.456623,454.699188 282.251181,477.479749 278.099819,489.185735 C273.948456,500.891721 279.531983,516.791686 271.064957,526.671514 C262.597931,536.551343 256.598172,545.428333 260.92205,558.028829 C265.245928,570.629325 285.435903,603.970652 285.435901,633.374905 C285.435898,662.779158 290.403295,688.444427 275.662673,700.459934 C260.922051,712.47544 243.719636,729.477288 227.546848,729.477288 C211.374059,729.477288 165.147704,721.185289 145.992838,734.092208 C126.837972,746.999128 113.466528,747.890553 103.266116,760.766509 C93.0657051,773.642464 98.4630227,914.411467 98.4630227,914.411467 C98.4630227,914.411467 96.3982947,981.292214 90.6093897,987.346395 C84.8204846,993.400575 60.0327972,991.199899 60.0327972,991.199899 L41.1517651,990.407532 C41.1517651,990.407532 42.2772328,970.443604 30.1873485,966.760322 C18.0974642,963.077041 6.3416592,961.907061 2.26149418,976.157303 C-1.81867085,990.407544 -0.172912677,1016.9147 6.58811212,1016.91469 C13.3491369,1016.91468 50.3198106,1027.82831 68.0123952,1033.61012 C85.7049797,1039.39192 113.488438,1053.74428 129.740637,1040.01096 C145.992836,1026.27764 153.706816,993.787474 153.706814,946.25163 C153.706812,898.715786 144.815337,884.948406 151.579104,875.136671 C158.342871,865.324936 166.68667,881.395134 171.681447,893.444687 C176.676224,905.494241 200.584895,956.267635 200.584898,973.33759 C200.584901,990.407544 205.429075,1006.7563 200.009841,1046.78941 C194.590608,1086.82253 196.537596,1108.78289 192.213714,1116.73439 C187.889832,1124.6859 174.425292,1173.13484 174.42529,1239.91035 C174.425288,1306.68586 152.783992,1389.643 166.182809,1446.16416 C179.581625,1502.68533 185.165163,1497.21611 179.795225,1529.87962 C174.425288,1562.54313 161.223636,1587.51814 170.509427,1595.41087 C179.795218,1603.30359 191.047178,1614.17083 205.774101,1614.17078 C220.501025,1614.17073 220.501033,1596.59323 220.501033,1596.59323 Z M368.687697,542.590048 C368.687697,542.590048 357.726019,554.806742 345.819605,561.346866 C333.91319,567.88699 326.390899,569.505773 333.883068,572.743336 C341.375237,575.980899 349.628672,580.252254 359.158184,576.497795 C368.687697,572.743335 375.087258,566.135117 375.087258,557.700739 C375.087258,549.266361 368.687697,542.590048 368.687697,542.590048 Z M409.067639,790.882654 L438.759739,806.268816 C438.759739,806.268816 454.015177,815.458419 449.691296,824.443739 C445.367415,833.42906 434.706958,835.047841 434.706958,835.047841 C434.706958,835.047841 433.247409,812.812037 423.561809,812.812036 C413.876209,812.812034 405.836367,807.612126 405.836368,801.622944 C405.836368,795.633762 409.067639,790.882654 409.067639,790.882654 Z M160.24877,790.192428 C160.24877,790.192428 172.702858,775.016738 201.817163,779.972128 C230.931468,784.927519 237.566533,796.590173 237.566528,804.718128 C237.566523,812.846083 227.21003,811.744197 222.825905,804.343611 C218.44178,796.943025 203.123364,792.841906 195.874909,798.592758 C188.626454,804.343611 187.106662,813.263932 176.963755,805.928346 C166.820848,798.592759 160.24877,790.192428 160.24877,790.192428 Z M335.167362,769.182315 C335.167362,769.182315 327.861402,832.104318 331.514382,859.84646 C335.167362,887.588601 322.499681,917.806884 328.833522,969.852412 C335.167362,1021.89794 342.363787,1110.66165 342.363787,1146.52245 C342.363786,1182.38324 335.786233,1221.3795 335.786232,1266.64346 C335.786232,1311.90743 349.612242,1379.33601 349.612241,1398.60975 C349.61224,1417.88349 358.197018,1489.13152 358.197018,1489.13152 C358.197018,1489.13152 364.166655,1524.89323 361.181837,1524.89328 C358.197019,1524.89333 345.247286,1540.50541 335.107118,1535.89356 C324.966949,1531.28171 324.235805,1429.9454 324.235805,1429.9454 C324.235805,1429.9454 315.708534,1328.92786 315.708534,1225.94488 C315.708534,1122.9619 311.494189,1059.99348 306.893735,1032.76823 C302.29328,1005.54298 294.499891,1000.89092 297.939279,969.536703 C301.378666,938.18249 318.099128,912.489357 318.099128,886.167908 C318.099127,859.84646 298.240499,850.440195 308.169813,826.034664 C318.099127,801.629134 310.43718,786.583443 319.635351,774.258418 C328.833522,761.933393 335.167362,769.182315 335.167362,769.182315 Z M280.369924,1484.50112 C280.369924,1484.50112 278.694045,1496.30615 286.216335,1496.30615 C293.738625,1496.30615 295.901935,1485.63396 295.901935,1485.63396 L280.369924,1484.50112 Z M288.223557,1523.73568 L305.004262,1527.07229 L302.079688,1535.02382 L289.44213,1531.7553 L288.223557,1523.73568 Z M244.738308,1448.4577 L268.551137,1449.52553 L267.118972,1455.51472 L244.738308,1448.4577 Z M265.475952,1374.38684 L285.967143,1374.42088 L283.532736,1387.3278 L265.475952,1374.38684 Z M265.684068,1187.07556 L287.002246,1186.59271 L284.534978,1204.17954 L275.095831,1194.54424 L265.684068,1187.07556 Z M276.884871,1131.82362 C278.325147,1127.69374 280.630069,1124.66425 280.630069,1124.66425 L277.917863,1137.79946 L279.17052,1145.04604 L285.690569,1143.39631 L285.690569,1123.6707 L275.761254,1125.32353 L276.884871,1131.82362 L276.884871,1131.82362 Z M276.675868,866.754911 L279.356728,873.638602 L283.831218,868.989635 L276.675868,866.754911 Z" id="Path-1130" fill="#E6D7D1"></path>
                    </g>
                </g>
            </g>
        </g>
    </g>
</svg>