<?xml version="1.0" encoding="UTF-8" standalone="no"?>
<svg width="378px" height="270px" viewBox="0 0 378 270" version="1.1" xmlns="http://www.w3.org/2000/svg" xmlns:xlink="http://www.w3.org/1999/xlink" xmlns:sketch="http://www.bohemiancoding.com/sketch/ns">
    <!-- Generator: Sketch 3.3.3 (12072) - http://www.bohemiancoding.com/sketch -->
    <title>bg_andeantrailmix</title>
    <desc>Created with Sketch.</desc>
    <defs></defs>
    <g id="Page-1" stroke="none" stroke-width="1" fill="none" fill-rule="evenodd" sketch:type="MSPage">
        <g id="bg_andeantrailmix" sketch:type="MSLayerGroup" transform="translate(4.000000, 5.000000)">
            <g id="Stroke-3-+-Stroke-4-+-Fill-5" transform="translate(215.000000, 0.000000)" sketch:type="MSShapeGroup">
                <path d="M92.0927434,188.910472 C92.0927434,188.910472 87.0175999,176.42171 92.4838658,172.126573 C97.9501318,167.833325 131.528083,148.318218 142.460615,129.192203 C153.393147,110.068078 163.936446,70.7432094 137.385471,46.0565605 C110.834497,21.3699117 93.2642211,51.7154129 88.9694328,55.6195677 C84.6746445,59.5218337 69.8365572,64.2702832 56.171837,57.1154993 C42.5052274,49.9588265 23.7634741,56.5941898 16.7346081,72.2070314 C9.70763156,87.819873 8.92538679,141.39009 30.0100954,154.562599 C51.094804,167.736996 72.1795125,172.517555 92.0927434,188.910472 L92.0927434,188.910472 Z" id="Stroke-3" stroke="#C1522E" stroke-width="9.10299969" stroke-linecap="round" stroke-linejoin="bevel"></path>
                <path d="M106.148586,37.8591576 C106.148586,37.8591576 101.462675,36.1025713 95.6071765,36.9808645 C89.7497881,37.8591576 89.3586657,38.8356685 86.6264775,36.9808645 C83.8923998,35.1279492 75.3028232,34.3478737 71.7883902,34.7369671 C68.2758466,35.1279492 64.3702912,40.5922549 60.8558582,40.5922549 C57.3414252,40.5922549 51.094804,37.8591576 46.4088933,40.5922549 C41.7248721,43.3234633 35.0871284,43.7144454 32.3530507,43.3234633 C29.6208625,42.93437 10.8791092,45.372814 3.45912082,71.4269559 C-3.9589781,97.479209 3.45912082,111.628229 6.97355383,118.263592 C10.4879868,124.898955 22.2008741,146.756178 22.2008741,146.756178 M72.9598678,57.1154993 C72.9598678,57.1154993 62.0273359,33.1768162 76.8654232,0" id="Stroke-4" stroke="#C1522E" stroke-width="9.10299969" stroke-linecap="round"></path>
                <path d="M83.6505463,63.4524317 C97.8651052,64.8728112 104.973329,73.8729552 107.815107,82.3971209 C110.658775,90.9231755 110.658775,110.343843 86.9665839,115.55316 C63.2762822,120.764366 52.6876357,104.016355 51.9035014,95.6602922 C50.4826124,80.502652 59.0117256,73.2798712 59.0117256,73.2798712 C59.0117256,73.2798712 69.4359874,62.0301634 83.6505463,63.4524317 Z" id="Fill-5" fill="#C1522E"></path>
            </g>
            <g id="CACAO-BLANCO" transform="translate(0.000000, 94.000000)" stroke="#C1522E" stroke-width="7" sketch:type="MSShapeGroup" stroke-linecap="round" stroke-linejoin="round">
                <path d="M60.04958,110.062709 C60.04958,110.062709 67.8884927,92.3029962 80.5988744,87.306088 C93.309256,82.3091798 107.580125,74.1688428 125.360427,72.1702671 C143.14073,70.1716914 178.334399,69.0886219 191.337778,69.0886219 C204.341158,69.0886218 216.104208,68.9959479 227.13897,72.4829249 C238.173732,75.969902 254.183873,83.5804051 265.614603,85.4432466 C277.045334,87.3060881 284.904834,82.812802 289.673341,85.059445 C294.441848,87.3060881 288.008961,94.2613201 283.553111,97.3644958 C279.097261,100.467671 255.561814,120.88872 246.899131,130.520266 C238.236448,140.151811 224.73881,149.300333 199.127077,159.472005 C173.515344,169.643676 140.153634,167.789266 123.476055,165.613765 C106.798476,163.438263 82.990613,155.903585 72.6850745,146.63712 C62.379536,137.370656 57.7364738,132.354087 57.7364739,126.981803 C57.736474,121.609519 57.090564,118.975329 57.090564,118.975329 L48.7096497,114.488596 C48.7096497,114.488596 51.0087141,107.513708 52.9670381,107.513705 C54.9253621,107.513702 60.04958,110.062709 60.04958,110.062709 Z" id="Path-424-Copy"></path>
                <path d="M263.343622,89.6294913 C263.343622,89.6294913 244.72176,84.6447517 235.372917,80.9480884 C226.024074,77.2514251 215.594032,73.5145082 203.4865,73.5145085 C191.378969,73.5145088 170.872735,79.3136564 156.037401,79.3136557 C141.202067,79.313655 127.481634,76.3256208 114.917282,78.6368545 C102.352929,80.9480882 86.5515412,88.8572082 76.7131181,95.07292 C66.8746951,101.288632 64.0729431,119.235566 65.8852351,125.950219 C67.6975271,132.664873 71.0403436,136.831452 79.8574822,142.888035 C88.6746208,148.944618 105.747238,159.823045 141.618633,157.834763 C177.490029,155.846482 204.940266,152.173223 215.735385,146.259872 C226.530504,140.34652 239.708003,127.325352 255.345573,113.385868 C270.983143,99.4463848 276.625954,95.8732869 276.625962,92.7513889 C276.625971,89.6294909 263.343622,89.6294913 263.343622,89.6294913 Z" id="Path-425-Copy"></path>
                <path d="M167.250958,69.3872381 C167.250958,69.3872381 175.751694,65.3077082 182.247299,53.222642 C188.742905,41.1375758 191.991175,31.2495368 202.016821,20.4216547 C212.042467,9.59377249 214.612998,3.8170913 213.197615,1.76609312 C211.782231,-0.28490506 200.009819,-0.514249426 193.751984,1.45343531 C187.494148,3.42112004 169.059505,5.40939913 159.2838,3.43141722 C149.508095,1.45343531 129.427785,1.15013846 115.738243,5.20064856 C102.0487,9.25115866 70.5292371,18.7029733 51.6555602,28.894307 C32.7818834,39.0856407 24.2970658,45.2882492 19.4780163,52.0871512 C14.6589669,58.8860532 7.11118293,67.4401464 4.28977378,72.6158513 C1.46836463,77.7915562 -1.66570229,82.8605427 1.31203575,90.9915186 C4.28977378,99.1224945 9.57968159,110.354774 12.4834679,112.343052 C15.3872542,114.33133 16.9365006,118.318186 35.1137153,118.318186 C53.29093,118.318186 55.268911,117.485056 55.268911,117.485056" id="Path-426-Copy"></path>
                <path d="M167.069354,9.18095101 C167.069354,9.18095101 148.780744,7.15054728 123.765311,15.7907618 C98.7498771,24.4309764 81.9917948,32.0396069 61.0147004,44.3764853 C40.0376061,56.7133637 30.3873401,66.7904963 23.6623889,75.2743788 C16.9374377,83.7582613 16.9374377,84.4556634 16.9374376,86.7462995 C16.9374375,89.0369355 24.4234392,93.9084103 22.2048792,98.5308779 C19.9863193,103.153346 13.178055,107.67097 13.178055,107.67097 C13.178055,107.67097 3.96494661,106.297712 6.94268468,97.9270926 C9.92042276,89.5564737 14.8864398,88.0474802 14.8864398,88.0474802 C14.8864398,88.0474802 10.3997066,88.2047419 9.42054466,86.2464214" id="Path-427-Copy"></path>
                <path d="M167.709725,126.667011 C167.709725,126.667011 172.692566,121.453304 177.640109,121.076402 C182.587651,120.699501 190.336902,122.488359 191.878668,124.409873 C193.420434,126.331387 194.034464,131.962703 190.229582,135.625536 C186.4247,139.288368 175.652552,143.283409 170.577762,139.816998 C165.502973,136.350587 165.71192,134.24233 166.040997,131.130617 C166.370074,128.018903 167.709725,126.667011 167.709725,126.667011 Z" id="Path-428-Copy"></path>
                <path d="M167.129855,102.263786 C167.129855,102.263786 171.333843,99.6360089 176.674228,101.231577 C182.014613,102.827145 188.07037,108.125969 189.839871,111.108158 C191.609372,114.090347 191.909982,117.499256 190.874926,119.788276 C189.839871,122.077297 188.72824,122.438542 188.72824,122.438542 C188.72824,122.438542 183.925594,121.065585 182.228968,121.065585 C180.532343,121.065585 176.271137,121.233539 176.271137,121.233539 C176.271137,121.233539 168.550067,116.748015 166.631685,113.335406 C164.713302,109.922797 164.333554,107.443618 164.713302,105.952808 C165.09305,104.461998 167.129855,102.263786 167.129855,102.263786 Z" id="Path-429-Copy"></path>
                <path d="M117.46769,156.463001 C117.46769,156.463001 117.087657,148.241484 119.566553,143.379342 C122.045448,138.5172 126.483433,132.603492 129.228209,131.416424 C131.972985,130.229355 134.907918,129.846476 137.892955,132.426429 C140.877991,135.006381 139.966197,137.579502 139.966197,139.941398 C139.966198,142.303294 138.177623,144.426922 138.177624,147.399718 C138.177624,150.372514 138.374045,152.142299 138.374045,152.142299 C138.374045,152.142299 136.021827,157.473574 135.170099,157.774185" id="Path-430-Copy"></path>
                <path d="M136.119184,131.106704 C136.119184,131.106704 133.672172,127.53582 135.824552,123.844806 C137.976932,120.153791 142.890314,111.261879 146.432447,110.27721 C149.97458,109.292541 151.630214,109.704172 153.447253,110.865905 C155.264293,112.027638 156.733185,114.36676 156.733184,118.02333 C156.733183,121.6799 154.68784,130.116343 151.120371,133.810488 C147.552903,137.504633 145.568193,138.235948 143.624475,137.729522 C141.680757,137.223096 139.939438,135.732002 139.939438,135.732002" id="Path-431-Copy"></path>
                <path d="M119.334548,94.179479 C119.334548,94.179479 112.930356,101.232146 113.237513,109.675136 C113.544671,118.118125 114.070454,121.847285 116.49213,123.923659 C118.913807,126.000032 123.8047,123.271767 125.922636,119.086568 C128.040571,114.901369 130.487583,106.341096 129.27831,101.408926 C128.069038,96.4767555 126.153786,93.3112395 124.542562,92.5323859 C122.931337,91.7535323 119.334548,94.179479 119.334548,94.179479 Z" id="Path-432-Copy"></path>
                <path d="M183.519087,104.621981 C183.519087,104.621981 186.963294,102.516287 185.016444,97.8090051 C183.069595,93.1017233 177.109201,86.0359612 173.319692,83.690291 C169.530182,81.3446208 165.781949,80.0471008 162.648031,81.4903712 C159.514113,82.9336415 158.599188,84.484801 157.940749,87.9671537 C157.28231,91.4495064 158.159659,94.1655299 159.121839,95.7169747 C160.08402,97.2684196 166.364666,102.976312 166.364666,102.976312" id="Path-433-Copy"></path>
                <path d="M153.395444,130.720978 C153.395444,130.720978 157.890647,129.663149 161.176863,131.806705 C164.463079,133.95026 167.571661,137.036638 167.571661,137.036638 C167.571661,137.036638 176.086671,143.079301 176.558652,145.488737 C177.030633,147.898173 177.686225,155.669914 169.920747,154.85633 C162.155269,154.042746 157.099838,147.559702 157.099838,147.559702 C157.099838,147.559702 147.530414,141.697519 149.322119,135.910489" id="Path-434-Copy"></path>
                <path d="M241.815538,125.334192 C241.815538,125.334192 243.968203,117.891529 243.208422,111.465417 C242.448642,105.039306 241.549942,102.262647 238.681621,101.835359 C235.813299,101.408072 232.514842,101.604208 229.488244,108.169808 C226.461647,114.735407 222.153186,123.368271 223.191657,126.986409 C224.230129,130.604548 223.900767,129.569493 223.900767,129.569493" id="Path-435-Copy"></path>
                <path d="M229.310896,136.423177 C229.310896,136.423177 226.464778,130.630169 220.462823,126.378642 C214.460868,122.127115 209.952854,118.474246 204.387865,121.867781 C198.822877,125.261317 201.098803,129.870388 203.21987,132.453472 C205.340936,135.036556 211.637523,139.322528 216.050173,140.610939 C220.462823,141.89935 222.169412,142.203375 222.169412,142.203375" id="Path-436-Copy"></path>
                <path d="M203.789207,95.8271415 C203.789207,95.8271415 211.402672,93.4999748 213.450863,89.3754098 C215.499055,85.2508449 212.561558,82.2151377 209.221825,81.1069224 C205.882092,79.9987071 198.945854,77.6402268 192.545078,78.6786983 C186.144302,79.7171698 183.921893,84.1426296 183.921893,84.1426296" id="Path-437-Copy"></path>
                <path d="M172.937381,83.4779281 C172.937381,83.4779281 176.207371,82.7750811 179.594644,82.7750811 C182.981917,82.7750811 185.159633,84.1394982 185.868742,86.6089993 C186.577852,89.0785004 186.625392,90.8482858 185.871874,91.8042033 C185.118356,92.7601208 182.620672,92.8867984 182.620672,92.8867984" id="Path-438-Copy"></path>
                <path d="M185.998836,101.928161 C185.998836,101.928161 191.725232,100.84215 196.730277,104.482778 C201.735322,108.123407 203.086645,111.058056 202.63089,113.229794 C202.175136,115.401532 200.072723,121.327481 197.214499,122.66343 C194.356275,123.99938 191.490665,123.600275 191.490665,123.600275" id="Path-439-Copy"></path>
                <path d="M183.462153,94.3536963 C183.462153,94.3536963 188.37525,91.0392985 195.057848,92.4037156 C201.740446,93.7681327 206.944475,97.0378374 208.499051,98.7444265 C210.053627,100.451016 209.974489,103.423526 207.755212,105.465455 C205.535934,107.507384 200.638494,107.792052 200.638494,107.792052" id="Path-440-Copy"></path>
                <path d="M67.2774648,128.767582 C67.2774648,128.767582 67.1542033,124.237364 70.2343187,121.552938 C73.3144342,118.868512 79.5950808,113.351063 83.2923572,112.467736 C86.9896336,111.584409 90.1804869,111.486483 93.8211142,115.304175 C97.4617416,119.121867 98.1452328,120.82504 97.1323807,123.958958 C96.1195286,127.092875 90.6655613,131.299709 87.7340431,133.012561 C84.802525,134.725414 76.7557942,136.039443 73.3081715,135.317239 C69.8605487,134.595036 69.9334239,133.869984 69.9334239,133.869984" id="Path-441-Copy"></path>
                <path d="M132.956799,129.857578 C132.956799,129.857578 135.511416,125.226587 132.754115,123.608815 C129.996814,121.991043 127.612998,121.133051 125.314868,121.766155 C123.016737,122.399258 122.991402,123.279738 120.885707,124.001658 C118.780013,124.723578 117.2354,124.520894 117.2354,124.520894 C117.2354,124.520894 109.315063,127.081489 109.315063,131.779661 C109.315063,136.477833 108.668865,138.329318 111.692331,140.121309 C114.715798,141.913299 119.017711,142.223586 119.951709,141.843554" id="Path-442-Copy"></path>
                <path d="M129.776765,101.526209 C129.776765,101.526209 133.749602,95.2236439 137.212881,94.4447903 C140.676161,93.6659367 142.870103,94.5401543 144.18698,97.2971708 C145.503858,100.054187 146.592715,102.482411 146.03875,105.258785 C145.484785,108.035159 143.205727,112.371803 142.445946,113.476886 C141.686166,114.581969 137.516623,120.425366 134.404909,120.780062 C131.293196,121.134758 128.393275,120.6884 127.861514,117.503525" id="Path-443-Copy"></path>
                <path d="M141.102879,157.449947 C141.102879,157.449947 136.500356,150.868691 138.801617,144.949005 C141.102879,139.029319 143.717846,140.070637 145.993772,140.070637 C148.269699,140.070637 150.140826,141.232655 150.140826,141.232655" id="Path-444-Copy"></path>
                <path d="M116.313928,97.8983911 C116.313928,97.8983911 108.624457,90.4053412 104.623153,89.0377927 C100.62185,87.6702443 95.2088742,86.3741476 91.9892711,89.9211198 C88.7696679,93.4680919 90.2986236,98.3672408 94.1353885,101.558092 C97.9721534,104.748943 103.056337,108.195997 105.683829,108.696445 C108.311321,109.196892 112.661059,108.724912 112.661059,108.724912" id="Path-445-Copy"></path>
                <path d="M95.3668653,151.060558 C95.3668653,151.060558 94.5436034,146.473691 97.7281923,144.403295 C100.912781,142.3329 102.885251,141.975071 106.702943,141.674461 C110.520635,141.373851 114.496603,141.677592 114.496603,141.677592" id="Path-446-Copy"></path>
                <path d="M75.565879,116.486689 C75.565879,116.486689 73.8533121,112.890184 79.7920707,109.249841 C85.7308294,105.609497 87.4752796,104.472815 92.0336794,104.472815 C96.5920792,104.472815 97.8804901,104.321087 97.8804901,104.321087 L103.575572,107.99616 C103.575572,107.99616 105.316891,110.477332 104.867114,111.553949" id="Path-447-Copy"></path>
                <path d="M109.049182,132.348999 C109.049182,132.348999 101.132545,129.240701 100.736571,122.782707 C100.340597,116.324712 103.686878,111.446344 105.959673,110.23394 C108.232468,109.021536 107.644058,109.195754 107.644058,109.195754" id="Path-448-Copy"></path>
                <path d="M152.742983,91.4506448 C152.742983,91.4506448 152.128953,80.162107 138.409344,80.162107 C124.689735,80.162107 127.117675,84.3438903 127.117675,86.5124966 C127.117675,88.6811028 130.634757,94.084969 132.556271,94.7940788 C134.477784,95.5031885 135.53846,95.0252298 135.53846,95.0252298" id="Path-449-Copy"></path>
                <path d="M157.523994,92.5019263 C157.523994,92.5019263 152.700283,89.7030635 148.514799,91.8910272 C144.329315,94.078991 144.383402,97.0002609 145.595806,100.356221 C146.80821,103.712181 147.564289,107.671923 151.31907,109.840528 C155.073851,112.009134 157.86275,113.047607 161.683573,112.392299" id="Path-450-Copy"></path>
                <path d="M177.04202,148.607852 C177.04202,148.607852 178.782769,143.055389 184.088424,139.896136 C189.39408,136.736882 191.505183,135.85384 195.266226,136.787553 C199.027269,137.721267 199.758868,142.88231 197.814865,146.204964 C195.870862,149.527617 195.826739,151.409277 192.892089,152.447748" id="Path-451-Copy"></path>
                <path d="M224.554936,119.233457 C224.554936,119.233457 224.548673,101.716083 223.06071,97.9166099 C221.572746,94.1171366 219.803246,91.5593882 217.049076,91.5593882 C214.294906,91.5593882 211.154725,92.597575 210.141589,97.0011153 C209.128454,101.404656 211.433131,111.987215 211.433131,111.987215 L213.782218,121.553507" id="Path-452-Copy"></path>
                <path id="Path-453-Copy" d=""></path>
                <path d="M85.8526676,133.998654 C85.8526676,133.998654 83.351853,135.724316 83.351853,139.285521 C83.351853,142.846727 83.8104543,144.065678 85.5549041,145.249615 C87.299354,146.433553 91.2024467,146.249941 94.5421801,145.749778 C97.8819134,145.249615 105.529823,140.583895 106.334012,139.577022 C107.138201,138.570149 108.702456,135.83192 107.518234,132.906665 C106.334012,129.981409 100.62982,126.337934 99.2938702,126.337934 C97.9579199,126.337934 95.6088337,126.771485 95.6088337,126.771485" id="Path-454-Copy"></path>
                <path d="M157.663197,129.98027 C157.663197,129.98027 154.703496,122.60792 157.986296,117.982623 C161.269096,113.357326 161.920987,113.100839 163.326681,112.499334 C164.732375,111.897829 165.593498,111.821822 165.593498,111.821822" id="Path-455-Copy"></path>
                <path d="M233.973769,102.258377 C233.973769,102.258377 233.293126,97.6464593 230.507358,94.3855792 C227.72159,91.1246991 227.509512,91.1246991 224.859816,91.1246991 C222.21012,91.1246991 221.250786,93.521325 221.250786,93.521325" id="Path-456-Copy"></path>
                <path d="M200.591808,129.574902 C200.591808,129.574902 199.357485,128.659692 195.856059,129.704711 C192.354634,130.74973 191.604248,133.493936 192.433772,135.710082" id="Path-457-Copy"></path>
                <path d="M198.821738,128.727159 C198.821738,128.727159 197.019785,126.020813 197.441095,123.64326 C197.862405,121.265707 199.128611,120.88909 199.128611,120.88909" id="Path-458-Copy"></path>
                <path d="M198.194613,146.849738 C198.194613,146.849738 200.695428,149.657995 203.02231,150.139085" id="Path-459-Copy"></path>
                <path d="M110.951623,92.7364933 C110.951623,92.7364933 109.688264,86.661663 112.825597,85.3447855 C115.962931,84.0279081 117.529748,84.0782944 120.211043,85.8480798 C122.892337,87.6178652 124.988068,89.2954181 124.988068,90.6060327 C124.988068,91.9166473 125.336503,92.7179899 125.336503,92.7179899" id="Path-460-Copy"></path>
            </g>
        </g>
    </g>
</svg>