<?xml version="1.0" encoding="UTF-8" standalone="no"?>
<svg width="451px" height="289px" viewBox="0 0 451 289" version="1.1" xmlns="http://www.w3.org/2000/svg" xmlns:xlink="http://www.w3.org/1999/xlink" xmlns:sketch="http://www.bohemiancoding.com/sketch/ns">
    <!-- Generator: Sketch 3.2.2 (9983) - http://www.bohemiancoding.com/sketch -->
    <title>Stroke 181</title>
    <desc>Created with Sketch.</desc>
    <defs>
        <rect id="path-1" x="0" y="0" width="554" height="345"></rect>
    </defs>
    <g id="Blank-Project" stroke="none" stroke-width="1" fill="none" fill-rule="evenodd" sketch:type="MSPage">
        <g id="Pagina-Producto-17" sketch:type="MSArtboardGroup" transform="translate(-318.000000, -257.000000)">
            <g id="Stroke-181" sketch:type="MSLayerGroup" transform="translate(304.000000, 201.000000)">
                <mask id="mask-2" sketch:name="Mask" fill="white">
                    <use xlink:href="#path-1"></use>
                </mask>
                <use id="Mask" sketch:type="MSShapeGroup" xlink:href="#path-1"></use>
                <g id="alfalfa" mask="url(#mask-2)" sketch:type="MSShapeGroup">
                    <g transform="translate(174.000000, 79.600583)">
                        <path d="M158.130529,182.912466 L141.55502,149.759603 L135.108187,152.522141 L151.683696,187.515893 C151.683696,187.515893 228.116813,263.947715 252.982482,277.760405 C252.982482,277.760405 258.507652,277.760405 260.348573,273.156977 C260.348573,273.156977 179.309544,206.853659 158.130529,182.912466 Z" id="Stroke-521" stroke="none" fill="#268870" fill-rule="evenodd"></path>
                        <path d="M136.383596,148.375928 C136.869696,148.164166 144.180439,144.710993 147.176447,128.985222 C150.680213,110.581136 149.878871,99.1098655 148.030731,78.7686343 C146.488208,61.8083838 146.2235,48.8258992 146.177778,44.698937 C145.484725,43.5462752 144.794079,42.3912071 144.101026,41.2361389 C139.345915,34.6113419 124.457316,15.3409551 115.336936,9.72924902 C107.118968,4.67101312 102.479365,2.29831065 100.554219,1.37666253 C98.5520673,1.6245209 96.5523216,1.87478566 94.5501696,2.12505043 C93.4383977,2.26462116 92.3145936,2.01676279 91.3640526,1.42238398 C90.9068304,1.13602333 90.4472018,0.849662689 89.9899795,0.563302046 C89.3619006,1.5643611 88.524462,2.46435169 87.4415673,3.18626928 C84.8642778,4.98384407 67.321383,22.1029165 65.6537251,44.6147132 C65.5261842,46.3617538 64.4697602,47.8922191 62.9152047,48.6430134 C63.2569181,61.502772 65.5406228,89.0198641 78.2850906,103.677197 C79.2308187,104.764887 79.6375058,106.201503 79.4257398,107.599616 C83.4156053,114.120939 105.03981,136.750649 112.593602,142.624651 C121.63457,149.656129 129.332749,151.571617 136.133327,148.481809 L136.383596,148.375928 L136.383596,148.375928 Z" id="Stroke-523" stroke="none" fill="#268870" fill-rule="evenodd"></path>
                        <path d="M162.559781,177.988988 C161.416725,173.505879 159.015106,158.879829 171.280693,144.571422 C181.67167,132.44802 189.634556,121.296799 194.902237,113.918802 C197.797176,109.866438 200.295053,106.367544 201.414044,105.248571 C203.03598,103.626663 216.062,90.8751923 229.975994,85.3765866 C230.219044,85.7038559 230.507816,86.0022485 230.835091,86.2645453 C232.31986,87.4557093 234.360515,87.674691 236.061863,86.8228282 C240.629272,84.5415686 245.194275,82.2579027 249.759278,79.9742367 C253.287108,79.9983006 264.082366,80.123433 269.109404,80.8429442 C274.04981,81.548017 279.91188,83.7161762 284.787313,86.6423488 C285.84855,87.2800427 286.876097,87.7348508 287.862734,88.0452753 C287.768883,90.290439 288.132255,92.7978994 289.263278,95.435305 C291.530138,100.726961 293.091913,120.702421 278.070959,138.228173 C266.06286,152.235781 262.614442,154.129611 262.260696,154.300465 C262.977813,153.956351 265.114725,153.768652 266.799228,155.45072 C268.192553,156.844021 268.608866,158.939989 267.853246,160.761628 C267.100032,162.58086 265.324085,163.769617 263.353217,163.769617 L268.878386,163.769617 C266.907518,163.769617 265.129164,162.58086 264.375951,160.761628 C263.620331,158.939989 264.03905,156.844021 265.432375,155.45072 C265.295208,155.585478 250.146714,170.218748 217.224307,177.149157 C213.436582,177.948079 209.959287,178.70128 206.749106,179.399133 C181.402149,184.900145 174.707453,186.353606 162.559781,177.988988 L162.559781,177.988988 Z" id="Stroke-525" stroke="none" fill="#268870" fill-rule="evenodd"></path>
                        <path d="M143.689526,190.651048 C142.996474,191.705047 142.738985,192.992467 142.977222,194.236572 C142.972409,194.255823 144.613596,211.300297 106.423509,236.206454 C67.9614942,261.290684 50.5485468,265.521121 28.3155146,260.5062 C28.3131082,260.215026 28.284231,259.91904 28.228883,259.627867 C27.8751374,257.796602 26.5106901,256.328703 24.7106784,255.842612 C14.2426959,253.019914 3.66401754,248.702847 2.07577193,246.602067 L0.439397661,241.510142 C0.410520468,241.423512 0.379236842,241.339288 0.347953216,241.255064 C1.61614327,239.611498 2.53058772,237.720074 2.53058772,235.684267 C2.53299415,235.520632 4.08033041,217.903437 17.9173187,208.390969 C32.666345,198.250433 38.3022105,193.579627 38.5356345,193.384709 C39.9987456,192.164668 40.5955409,190.227523 40.1383187,188.439573 C43.9452953,187.017396 50.649617,184.856456 61.3582427,182.421187 C81.7142573,177.796102 103.413061,178.084869 115.808596,179.73806 C128.877933,181.480288 138.643237,185.811793 141.196462,189.002669 C141.836573,189.801591 142.710108,190.376719 143.689526,190.651048 L143.689526,190.651048 Z" id="Stroke-527" stroke="none" fill="#268870" fill-rule="evenodd"></path>
                        <path d="M96.6052632,22.2208297 C98.2247924,27.0408328 136.282526,140.461305 138.121041,157.936523" id="Stroke-529" stroke="#268870" stroke-width="1.35" stroke-linecap="round" stroke-linejoin="round" fill="none"></path>
                        <path d="M269.326974,99.2253724 C268.932319,99.5430161 229.51495,131.124504 205.912658,146.556696 C191.847058,155.753926 175.755243,168.375452 164.004632,177.589526 C155.779444,184.038657 149.284482,189.132989 147.140351,190.20624" id="Stroke-531" stroke="#268870" stroke-width="1.35" stroke-linecap="round" stroke-linejoin="round" fill="none"></path>
                        <path d="M12.380117,236.129824 C12.8301199,236.028755 57.4574152,225.970037 70.0262135,219.686947 C82.7490234,213.324447 112.405901,201.244359 118.123585,199.338497 C123.643942,197.497607 137.899649,193.928928 138.503664,193.779732 L158.729731,188.261875" id="Stroke-533" stroke="#268870" stroke-width="1.35" stroke-linecap="round" stroke-linejoin="round" fill="none"></path>
                    </g>
                </g>
                <g id="alfalfa-2" mask="url(#mask-2)" fill="#268870" sketch:type="MSShapeGroup">
                    <g transform="translate(114.000000, 151.600583) scale(-1, 1) translate(-114.000000, -151.600583) translate(14.000000, 55.600583)">
                        <path d="M178.933727,188.655178 C178.933727,188.655178 123.2368,142.862959 108.680776,126.328034 L97.2886739,103.431093 L92.8578606,105.339033 L104.249963,129.50738 C104.249963,129.50738 156.781315,182.294825 173.871122,191.834524 C173.871122,191.834524 177.668489,191.834524 178.933727,188.655178 L178.933727,188.655178 Z" id="Stroke-521"></path>
                        <path d="M93.7344306,102.475461 C94.0685195,102.329208 99.0930849,99.944283 101.152198,89.0833186 C103.560284,76.3725831 103.009534,68.4499791 101.739334,54.401359 C100.67918,42.6878046 100.497251,33.7214843 100.465827,30.8712083 C99.9895018,30.0751253 99.5148309,29.2773804 99.0385061,28.4796355 C95.7703885,23.9042361 85.5376741,10.595192 79.2693716,6.71948134 C73.6212837,3.22602345 70.4325536,1.58732246 69.1094291,0.950788509 C67.7333796,1.12197127 66.3589839,1.294816 64.9829344,1.46766073 C64.21883,1.5640549 63.4464561,1.39287214 62.7931633,0.982365911 C62.4789212,0.784591654 62.1630253,0.586817397 61.8487832,0.38904314 C61.4171138,1.08042206 60.8415546,1.70199829 60.0972971,2.20058886 C58.3259641,3.44207936 46.2689918,15.2653236 45.1228352,30.8130394 C45.0351782,32.0196285 44.3091136,33.0766405 43.2406905,33.5951747 C43.4755451,42.4767346 45.0451016,61.481345 53.804186,71.6043954 C54.4541709,72.3556052 54.733681,73.3478004 54.5881373,74.3134041 C57.3303129,78.8173389 72.1923092,94.4464911 77.3839191,98.5033563 C83.5976427,103.359628 88.888487,104.682555 93.5624244,102.548588 L93.7344306,102.475461 L93.7344306,102.475461 Z" id="Stroke-523"></path>
                        <path d="M111.724935,122.927646 C110.93933,119.831399 109.288732,109.729954 117.718689,99.8478889 C124.860254,91.4748913 130.333028,83.7733291 133.953428,78.6777335 C135.943076,75.8789785 137.65983,73.4624762 138.428896,72.6896608 C139.543629,71.569494 148.49622,62.7627227 158.059103,58.9651246 C158.226147,59.1911523 158.424616,59.3972364 158.649547,59.578391 C159.670007,60.4010654 161.072519,60.5523045 162.24183,59.9639677 C165.380943,58.3884215 168.518402,56.8112133 171.655861,55.2340052 C174.080487,55.2506249 181.499908,55.3370472 184.954917,55.8339758 C188.350385,56.3209326 192.379299,57.8183663 195.730112,59.83932 C196.459484,60.2797417 197.165702,60.5938538 197.843804,60.8082477 C197.779301,62.3588644 198.029041,64.0906356 198.806377,65.9121531 C200.364356,69.5668219 201.437741,83.3628229 191.114061,95.4669398 C182.861072,105.141259 180.491025,106.449228 180.247901,106.567228 C180.740765,106.329566 182.209433,106.199933 183.367167,107.361649 C184.324779,108.323928 184.610904,109.771503 184.091578,111.029613 C183.573905,112.286061 182.353323,113.107074 180.998774,113.107074 L184.796142,113.107074 C183.441593,113.107074 182.219357,112.286061 181.701684,111.029613 C181.182358,109.771503 181.470137,108.323928 182.427749,107.361649 C182.333476,107.454719 171.92214,117.56115 149.295057,122.347619 C146.691809,122.899393 144.301915,123.419589 142.095605,123.90156 C124.675017,127.70082 120.073851,128.704649 111.724935,122.927646 L111.724935,122.927646 Z" id="Stroke-525"></path>
                        <path d="M98.7556882,131.672666 C98.2793634,132.400608 98.1023955,133.289761 98.2661321,134.148999 C98.2628243,134.162295 99.390788,145.934018 73.143305,163.135393 C46.7089307,180.459753 34.7412693,183.381493 19.4608348,179.917951 C19.4591809,179.716853 19.439334,179.512431 19.4012942,179.311332 C19.1581701,178.046574 18.2204055,177.032774 16.9832841,176.697056 C9.78879444,174.747567 2.51822512,171.765995 1.42664737,170.315097 L0.301991519,166.798371 C0.282144651,166.73854 0.260643878,166.680371 0.239143104,166.622203 C1.11075139,165.487078 1.73923555,164.180771 1.73923555,162.774745 C1.74088945,162.661731 2.8043508,150.49446 12.3143084,143.924698 C22.4510962,136.921163 26.3245433,133.695282 26.4849722,133.560662 C27.4905468,132.718044 27.9007154,131.380159 27.5864733,130.145317 C30.2029521,129.163093 34.8107333,127.670646 42.1706135,125.988734 C56.1610016,122.79443 71.074269,122.993866 79.5935371,124.135639 C88.5758988,125.338904 95.287448,128.330447 97.0422419,130.534217 C97.4821808,131.085991 98.0825486,131.483202 98.7556882,131.672666 L98.7556882,131.672666 Z" id="Stroke-527"></path>
                        <path d="M66.3953699,15.3467601 C67.5084484,18.6756831 93.6649665,97.0092466 94.9285505,109.078462" id="Stroke-529"></path>
                        <path d="M185.104449,68.5297536 C184.833209,68.7491334 157.742234,90.5608086 141.520727,101.219013 C131.853648,107.571057 120.793981,116.288082 112.71796,122.651759 C107.06491,127.105835 102.601019,130.624222 101.127389,131.36546" id="Stroke-531"></path>
                        <path d="M8.50867145,163.082468 C8.81795181,163.012665 39.4896324,156.065637 48.1279818,151.726237 C56.872181,147.331992 77.2549145,138.98891 81.1845944,137.672631 C84.978654,136.401225 94.7763911,133.936526 95.1915215,133.833484 L109.092599,130.02259" id="Stroke-533"></path>
                    </g>
                </g>
            </g>
        </g>
    </g>
</svg>