<?xml version="1.0" encoding="UTF-8" standalone="no"?>
<svg width="392px" height="315px" viewBox="0 0 392 315" version="1.1" xmlns="http://www.w3.org/2000/svg" xmlns:xlink="http://www.w3.org/1999/xlink" xmlns:sketch="http://www.bohemiancoding.com/sketch/ns">
    <!-- Generator: Sketch 3.2.2 (9983) - http://www.bohemiancoding.com/sketch -->
    <title>bg_amaranto</title>
    <desc>Created with Sketch.</desc>
    <defs></defs>
    <g id="Blank-Project" stroke="none" stroke-width="1" fill="none" fill-rule="evenodd" sketch:type="MSPage">
        <g id="Pagina-Producto-10" sketch:type="MSArtboardGroup" transform="translate(-387.000000, -192.000000)" fill="#B12365">
            <g id="bg_amaranto" sketch:type="MSLayerGroup" transform="translate(0.000000, 26.000000)">
                <g transform="translate(375.000000, 166.000000)" sketch:type="MSShapeGroup">
                    <g id="Fill-127-+-Stroke-185" transform="translate(111.000000, 0.000000)">
                        <path d="M116.410694,325.44508 L116.410694,315.307348 C123.361945,318.254363 131.124805,322.664169 133.92364,327.29902 C141.53011,339.893491 160.024537,339.02814 183.437149,337.935065 L191.062493,337.59214 C213.396556,336.667849 219.172188,339.317483 219.406773,339.432685 C221.199861,340.64364 223.332693,340.627565 225.228243,339.574677 C227.121097,338.521789 228.056739,336.378505 227.95967,334.224505 C227.905742,333.101961 226.39038,306.691348 200.125005,298.490609 C189.361082,295.128333 178.850617,293.652146 169.577789,292.347422 C160.202498,291.029303 151.34491,289.783519 147.834232,286.994571 C136.587658,278.0544 121.312701,289.295922 117.891003,292.047363 C117.367907,292.317952 116.847507,292.588542 116.32441,292.859131 C116.224644,282.011437 116.122182,271.161064 116.022416,260.31069 C129.234647,258.014698 163.044475,251.413384 172.99679,242.513399 C184.502216,232.225637 189.255923,222.923786 189.452758,222.532637 C190.377614,220.694771 190.234707,218.505943 189.077962,216.802032 C187.923914,215.100801 185.933991,214.14704 183.873961,214.310465 C179.511229,214.65339 140.909944,217.937973 128.455395,227.277331 C124.311069,230.385092 120.379756,233.069555 117.087484,235.212839 C117.160286,234.082257 117.230392,232.954354 117.300497,231.826451 C121.094295,229.40454 124.888093,226.97995 128.679194,224.55804 C135.487537,224.263338 159.851969,222.069152 170.683302,205.927547 C182.051213,188.987569 185.497178,170.115957 185.63739,169.322942 C185.996007,167.313613 185.243719,165.266777 183.666341,163.959374 C182.088962,162.651971 179.929167,162.284934 178.003956,162.992218 C174.889645,164.138874 147.348885,174.421278 139.119552,182.600584 C138.704311,183.010487 138.262106,183.428427 137.798329,183.849046 C141.508539,182.868494 146.041143,181.124397 151.468943,177.989845 C171.635122,166.33574 186.249466,151.099673 187.834934,140.083195 C188.962018,132.238777 188.9755,123.504896 188.9755,123.135179 C188.9755,120.59003 187.274088,118.352978 184.809603,117.65909 C179.62178,116.193619 175.407348,115.35506 171.980257,114.961231 C172.638173,113.790463 173.080378,113.005485 173.080378,113.005485 C173.695151,111.915089 173.932432,110.653231 173.754471,109.418164 L170.505341,86.8199172 C170.197954,84.6846709 168.704163,82.9030664 166.644134,82.2225738 C164.584105,81.5394022 162.313758,82.072544 160.779521,83.5969544 C160.730987,83.6451783 159.428638,84.9391858 157.341645,86.9699471 C160.170141,81.7805216 162.071084,76.564305 162.869211,72.5992303 C164.713531,63.4447301 160.437082,56.2647299 157.622068,53.4650657 C155.756177,51.6138044 152.862969,51.2655208 150.606104,52.6184686 C143.951454,56.6076553 135.730211,62.5070435 134.363149,67.9483048 C134.096208,68.543066 132.996088,69.7057974 131.510386,71.029275 C132.216836,69.1217526 132.904411,66.8927376 133.567719,64.2538196 C138.95777,42.8316997 134.516843,34.7702741 132.446028,32.3590801 C131.631723,31.2686845 125.885751,23.2983485 125.047179,14.9582961 C124.375782,8.27928843 122.396643,3.99004205 119.001909,1.84140021 C115.814795,-0.175965512 112.864963,0.606333015 112.03448,0.895676305 C111.592274,0.973370337 88.3144811,6.81113914 84.4586669,28.5252815 C83.0430708,36.4875802 80.7053149,42.2798042 78.8286388,46.9334088 C76.3722425,53.0203343 74.2501965,58.2767374 75.9057699,64.3583047 C78.7774077,74.9193348 85.2379189,79.305029 91.6094497,82.89235 C95.8535417,85.2821112 98.9274076,89.3998949 99.2806325,91.0904099 C98.2452251,92.5076562 96.9078238,94.5410965 95.5272805,96.7192085 C93.7395848,90.913589 91.3128486,84.4917754 88.3549267,80.1328723 L87.057971,78.2173125 C75.3098713,60.8111703 66.3228581,48.757879 57.6486242,52.2058865 C52.07522,54.421506 43.4953593,58.675924 43.1340452,58.855424 C41.0578375,59.8868792 39.8175057,62.0649912 39.9873772,64.366342 C40.1545524,66.6650137 41.7103599,68.6395138 43.9159935,69.362872 C49.0391034,71.0373124 56.3705432,75.3506707 56.2168499,78.7611707 C56.0901203,81.5956634 55.4780435,84.0577604 54.8875377,86.4394844 C53.6418131,91.4681636 52.0887019,97.7238727 57.8886015,103.486627 C63.189672,108.753746 72.1524178,112.796515 75.156178,114.061052 C77.588307,116.129321 80.0231323,118.194911 82.4552613,120.2605 C82.1290001,120.222993 81.7245441,120.121187 81.2823388,119.955082 C77.5613432,118.569985 71.4783244,114.631701 66.1071482,111.159582 C58.5222493,106.251462 53.6876514,103.205321 50.0691181,102.487321 C43.9860992,101.276365 28.4819511,105.155709 22.0996348,106.878373 C19.3277627,107.628522 17.5427634,110.299589 17.9229521,113.128724 C18.3004444,115.957858 20.729877,118.068993 23.6015149,118.068993 C27.8105541,118.090425 36.0371899,119.646985 36.8541911,123.295926 C37.4177332,125.822321 38.6634578,128.359433 40.2920674,130.800097 C30.3154851,125.273105 25.0521639,124.973045 24.035631,124.973045 C22.2506317,124.973045 20.5653982,125.800888 19.481456,127.210097 C18.3975138,128.619306 18.0361998,130.451814 18.5053688,132.163762 C19.2468715,134.872336 24.8067939,154.601262 32.9174856,168.288807 C29.7869959,168.564755 26.6565062,168.840703 23.5287128,169.116651 C21.8407829,169.26668 20.3065463,170.148106 19.3358518,171.527845 C18.3678537,172.910263 18.0604671,174.643643 18.5026724,176.26986 C18.7075968,177.033404 23.7767792,195.125397 41.8532677,208.421793 C55.3971523,218.382704 65.9291876,218.554167 71.2922746,217.640592 C76.8360187,222.417435 82.3797629,227.194279 87.923507,231.973801 C87.3923214,236.094264 86.8584394,240.212048 86.3245574,244.332511 C81.406372,238.11163 75.1319106,231.622839 69.1702286,229.648339 C59.0075965,226.283383 25.7370428,222.047719 24.3268394,221.870898 C21.689786,221.53601 19.1686767,223.049704 18.2357314,225.525197 C17.3054825,227.99801 18.2087677,230.784279 20.419794,232.255107 C20.5330417,232.330122 31.7688305,239.850369 36.4389496,247.649242 C41.8316967,256.651033 46.9251465,265.151832 60.9382,266.544966 C68.0835901,267.254929 79.486554,271.195892 85.3295956,273.35525 C85.065351,281.708698 84.8038027,290.062146 84.5422545,298.415594 C82.3608882,297.871736 79.6348545,296.325892 77.2539567,292.38493 C69.5369354,279.605601 54.5100454,269.489302 53.8737012,269.063325 C53.0620928,268.522146 52.1237548,268.195295 51.1476675,268.117601 L11.5082793,264.886601 C9.70710174,264.741929 7.94097704,265.446534 6.74378716,266.794123 C5.54659728,268.139034 5.05855366,269.966183 5.42795685,271.723675 C6.36629486,276.19778 7.30463287,280.671885 8.24297088,285.145989 C6.06160464,289.049445 3.8802384,292.950221 1.69617579,296.853676 C0.771319647,298.509363 0.733570417,300.516012 1.59910634,302.203848 C2.46464226,303.891684 4.12021565,305.04102 6.01306992,305.271423 C6.1883342,305.292855 23.7363336,307.43346 39.127234,310.57605 C44.3474133,311.642333 50.1257419,312.593415 55.6613969,313.504311 C63.5914317,314.806356 74.4524245,316.593318 76.67154,317.943587 C79.1225436,320.41908 84.4586669,323.232139 87.9720417,324.928013 C88.0798966,326.007692 88.190448,327.084692 88.2983029,328.164371 C88.5625475,330.797931 90.6198806,332.903707 93.2623267,333.243953 L109.942094,335.395274" id="Stroke-184"></path>
                    </g>
                    <g id="Fill-127-+-Stroke-186" transform="translate(80.000000, 221.500000) scale(-1, 1) translate(-80.000000, -221.500000) translate(0.000000, 101.000000)">
                        <path d="M81.5463831,229.614313 L81.5463831,222.461744 C86.4335073,224.540979 91.8912382,227.652271 93.8589787,230.922341 C99.2067588,239.808235 112.209391,239.197696 128.669786,238.426489 L134.030836,238.184542 C149.73295,237.532418 153.793547,239.401839 153.958473,239.483119 C155.219116,240.337495 156.718618,240.326154 158.051298,239.5833 C159.382082,238.840446 160.039891,237.328275 159.971645,235.808543 C159.933731,235.016544 158.868346,216.382817 140.402296,210.596873 C132.834647,208.224655 125.445194,207.183147 118.925869,206.262613 C112.334507,205.332628 106.10712,204.453678 103.638914,202.485966 C95.7319339,196.178323 84.9927725,204.109659 82.5871244,206.050909 C82.2193579,206.24182 81.8534871,206.432732 81.4857206,206.623644 C81.4155796,198.970168 81.3435428,191.314803 81.2734018,183.659437 C90.5623499,182.039524 114.332579,177.382038 121.329621,171.102748 C129.418589,163.844327 132.760714,157.281505 132.899101,157.005534 C133.549327,155.708847 133.448855,154.164543 132.635598,152.962367 C131.824237,151.762081 130.425207,151.089165 128.97689,151.204468 C125.909641,151.446415 98.770747,153.763817 90.0144916,160.353102 C87.100795,162.54575 84.336859,164.439744 82.0222047,165.951915 C82.0733887,165.154245 82.122677,164.358465 82.1719653,163.562685 C84.8392205,161.853932 87.5064756,160.143289 90.171835,158.434536 C94.9584868,158.226612 112.088066,156.678527 119.703107,145.289989 C127.695394,133.338168 130.118103,120.023503 130.21668,119.464 C130.468809,118.046339 129.939907,116.602216 128.830921,115.679792 C127.721934,114.757368 126.203475,114.498408 124.849943,114.997425 C122.660405,115.806436 103.297687,123.061076 97.5119997,128.831899 C97.2200614,129.121101 96.9091659,129.415975 96.5831049,129.712738 C99.1915932,129.02092 102.378271,127.790391 106.194323,125.578841 C120.372291,117.356411 130.647005,106.606766 131.761679,98.8342073 C132.554083,93.2996616 132.563561,87.1375649 132.563561,86.8767154 C132.563561,85.0810124 131.367372,83.502684 129.634699,83.0131186 C125.987365,81.9791717 123.02438,81.3875348 120.614941,81.1096734 C121.077492,80.28365 121.388388,79.7298174 121.388388,79.7298174 C121.820608,78.9605004 121.98743,78.0702098 121.862314,77.1988213 L119.577991,61.2548687 C119.361881,59.7483684 118.311661,58.4913763 116.863343,58.011262 C115.415026,57.5292575 113.818843,57.90541 112.740188,58.9809416 C112.706065,59.0149655 111.79044,59.9279387 110.323165,61.3607207 C112.311759,57.6993767 113.64823,54.0191307 114.209358,51.2216144 C115.506019,44.7627542 112.499433,39.6969814 110.520319,37.7217081 C109.208492,36.4155705 107.174402,36.1698427 105.587698,37.1244006 C100.909101,39.9389288 95.1291002,44.1011794 94.1679784,47.9402034 C93.9803037,48.3598308 93.2068566,49.1801836 92.1623239,50.1139492 C92.6589982,48.768117 93.1424027,47.1954592 93.6087458,45.3335987 C97.3982575,30.2194499 94.2760335,24.5317969 92.8201331,22.8306046 C92.2476305,22.0612876 88.2078859,16.4379019 87.6183221,10.5536666 C87.1462919,5.84136385 85.7548453,2.81513171 83.3681544,1.29918032 C81.1274326,-0.124150594 79.0535327,0.427791806 78.469656,0.631934886 C78.1587606,0.686751083 61.7931505,4.80552674 59.0822942,20.1257088 C58.0870497,25.7434239 56.4434746,29.8300659 55.1240649,33.1133671 C53.3970788,37.4079327 51.90516,41.1165319 53.069122,45.407317 C55.0880465,52.8585394 59.6301526,55.9528193 64.1097004,58.4838154 C67.0935381,60.169886 69.2546403,63.0751445 69.5029775,64.2678693 C68.7750272,65.2677924 67.8347582,66.7024646 66.8641579,68.2392083 C65.6073064,64.1431152 63.901173,59.612273 61.8215861,56.5368953 L60.9097526,55.1853925 C52.6501715,42.9046741 46.3317911,34.4006027 40.2333122,36.8333077 C36.3148927,38.3965144 30.2827635,41.3981738 30.0287392,41.5248181 C28.5690473,42.2525504 27.6970236,43.7892941 27.816453,45.4129877 C27.9339866,47.034791 29.0278076,48.4278785 30.5784933,48.9382362 C34.1803303,50.1196198 39.3347487,53.1628639 39.2266936,55.5691059 C39.1375955,57.568952 38.7072708,59.3060584 38.2921116,60.9864584 C37.4162965,64.5343895 36.3243712,68.9480385 40.4020299,73.0138881 C44.1289834,76.7300483 50.4303025,79.5823808 52.5421164,80.4745616 C54.2520412,81.9338066 55.9638616,83.3911614 57.6737863,84.8485161 C57.4444062,84.8220531 57.1600506,84.750225 56.8491552,84.6330318 C54.2330841,83.6557913 49.9563766,80.8771771 46.1801348,78.4274602 C40.8475202,74.9645887 37.4485235,72.8154157 34.9044891,72.3088384 C30.6277816,71.4544618 19.7274853,74.1914913 15.2403546,75.4068987 C13.2915712,75.9361585 12.0366153,77.8207016 12.3039095,79.8167672 C12.5693081,81.8128329 14.2773371,83.3023213 16.2962615,83.3023213 C19.255455,83.317443 25.039247,84.4156572 25.6136453,86.9901282 C26.0098473,88.7725998 26.8856624,90.5626321 28.0306675,92.2846168 C21.0165638,88.385106 17.3161501,88.173402 16.6014698,88.173402 C15.346514,88.173402 14.1616992,88.7574781 13.3996263,89.7517305 C12.6375534,90.7459829 12.3835291,92.038889 12.7133815,93.2467356 C13.2347001,95.1577416 17.1436411,109.077275 22.8459179,118.734377 C20.6450058,118.929069 18.4440938,119.123761 16.2450775,119.318453 C15.058367,119.424305 13.9797116,120.046185 13.2972583,121.019646 C12.6167007,121.994996 12.4005904,123.217964 12.7114858,124.365324 C12.8555593,124.904035 16.4194823,137.668648 29.1282799,147.049778 C38.6503997,154.077593 46.0550183,154.198567 49.825573,153.554004 C53.7231398,156.924255 57.6207066,160.294506 61.5182735,163.666647 C61.1448198,166.573796 60.7694705,169.479054 60.3941212,172.386203 C56.9363576,167.997127 52.5250551,163.419029 48.3336542,162.025942 C41.1887469,159.651833 17.7976589,156.663405 16.8062058,156.538651 C14.9522076,156.302374 13.1797247,157.370345 12.5238112,159.116903 C11.8697934,160.86157 12.5048541,162.827392 14.0593312,163.865119 C14.1389507,163.918045 22.0383481,169.223875 25.3217069,174.726287 C29.1131143,181.077405 32.6940986,187.075053 42.5460708,188.057965 C47.5696856,188.558871 55.5866166,191.339376 59.6946065,192.862888 C59.5088275,198.756574 59.3249443,204.65026 59.141061,210.543947 C57.6074367,210.160233 55.6908803,209.06958 54.0169739,206.289076 C48.5914699,197.272756 38.0267131,190.135309 37.5793271,189.834766 C37.0087202,189.452942 36.3490154,189.222336 35.6627706,189.16752 L7.79403043,186.887922 C6.52770035,186.785851 5.28601442,187.282977 4.44432198,188.233754 C3.60262953,189.182642 3.25950716,190.471768 3.51921857,191.711748 C4.17892346,194.868405 4.83862835,198.025061 5.49833324,201.181718 C3.96470894,203.93576 2.43108464,206.687911 0.895564639,209.441952 C0.245338267,210.610104 0.218798416,212.025874 0.827319305,213.216709 C1.43584019,214.407544 2.59980227,215.218445 3.93058627,215.381004 C4.05380701,215.396125 16.3910467,216.906406 27.2117235,219.123627 C30.8818059,219.875932 34.9442989,220.546958 38.8361786,221.18963 C44.4114432,222.108274 52.0473377,223.369047 53.6075019,224.321714 C55.3306966,226.068272 59.0822942,228.052996 61.5523961,229.249502 C61.6282243,230.011258 61.7059481,230.771124 61.7817763,231.53288 C61.9675552,233.39096 63.4139772,234.876668 65.2717668,235.116725 L76.9985899,236.634567" id="Stroke-184"></path>
                    </g>
                    <g id="Fill-127-+-Stroke-187" transform="translate(290.000000, 152.000000)">
                        <path d="M58.4489918,163.19695 L58.4489918,158.113306 C61.9094399,159.591109 65.7739202,161.802441 67.1672271,164.126622 C70.9538541,170.442217 80.1606865,170.00828 91.8158732,169.460149 L95.6118962,169.288187 C106.730163,168.824694 109.605369,170.153373 109.722149,170.211142 C110.614778,170.818385 111.676537,170.810324 112.620173,170.282345 C113.562468,169.754367 114.028246,168.6796 113.979923,167.59946 C113.953077,167.036552 113.198705,153.792746 100.123365,149.680422 C94.7649052,147.994383 89.5326217,147.254137 84.9164537,146.599874 C80.2492783,145.938892 75.8398243,145.314185 74.0921504,143.915645 C68.4934191,139.432527 60.8892923,145.069675 59.1859142,146.449406 C58.9255081,146.585096 58.6664443,146.720785 58.4060382,146.856474 C58.3563731,141.416814 58.3053657,135.97581 58.2557006,130.534807 C64.8329683,129.383463 81.6640619,126.073184 86.6184895,121.610217 C92.3460815,116.45134 94.7125556,111.786855 94.8105434,111.59071 C95.2709522,110.669098 95.1998103,109.571493 94.6239638,108.717054 C94.0494596,107.863958 93.0588426,107.385688 92.0333257,107.467638 C89.8614851,107.639601 70.6451252,109.28668 64.4450437,113.969974 C62.3819294,115.528385 60.4248567,116.874529 58.7859089,117.949295 C58.822151,117.382356 58.8570508,116.81676 58.8919506,116.251165 C60.780566,115.036679 62.6691815,113.82085 64.5564546,112.606364 C67.9457609,112.458584 80.0747793,111.358292 85.4667965,103.263959 C91.1259313,94.7692766 92.84139,85.3059607 92.9111896,84.9082973 C93.0897154,83.900704 92.7152139,82.8743023 91.9299687,82.218695 C91.1447234,81.5630877 90.0695415,81.379034 89.1111397,81.7337068 C87.5607837,82.3087067 73.8505364,87.4648972 69.7538383,91.5664735 C69.5471242,91.7720225 69.3269871,91.9816019 69.0961116,92.1925248 C70.9431157,91.7008192 73.1995212,90.8262283 75.9015701,89.2543828 C85.9406282,83.410342 93.2158916,75.7700982 94.0051637,70.2458002 C94.5662449,66.3121562 94.5729564,61.9324842 94.5729564,61.747087 C94.5729564,60.4708022 93.7259654,59.3490151 92.4991037,59.0010595 C89.9165194,58.2661882 87.8185052,57.8456859 86.1124425,57.6481976 C86.4399636,57.0611066 86.6601008,56.6674735 86.6601008,56.6674735 C86.966145,56.1206863 87.0842674,55.4879177 86.9956756,54.8685837 L85.3782047,43.5365183 C85.2251826,42.4657825 84.4815486,41.5723831 83.4560318,41.2311449 C82.430515,40.8885632 81.3002988,41.1559113 80.5365303,41.9203387 C80.512369,41.9445209 79.8640383,42.593411 78.8250985,43.6117519 C80.2331707,41.0094744 81.1794918,38.3937623 81.5768125,36.4054449 C82.4949453,31.8148501 80.3660583,28.2143835 78.9646976,26.8104702 C78.0358263,25.882141 76.595539,25.7074915 75.4720343,26.3859376 C72.1592391,28.3863461 68.0665678,31.3446399 67.386022,34.0732024 C67.2531343,34.37145 66.7054761,34.9545106 65.9658691,35.6181787 C66.3175515,34.6616369 66.6598379,33.5438801 66.9900436,32.2205743 C69.6733003,21.4782867 67.462533,17.4358226 66.431647,16.2267107 C66.0262726,15.6799234 63.1658323,11.6831369 62.7483771,7.50095312 C62.4141445,4.15171315 61.4288967,2.00083741 59.7389416,0.923384361 C58.1523436,-0.0882392654 56.6838679,0.304050375 56.2704397,0.449143803 C56.0503025,0.488104076 44.4622308,3.41549834 42.5427425,14.3042228 C41.8380352,18.296979 40.6742615,21.2015345 39.7400211,23.5351204 C38.5171862,26.5874563 37.4607965,29.2233202 38.2849684,32.2729691 C39.7145174,37.5688793 42.930667,39.7681195 46.1025208,41.5670093 C48.2153002,42.7653735 49.7455217,44.830268 49.9213629,45.6779898 C49.4059199,46.3886789 48.7401394,47.4083633 48.052882,48.5005944 C47.1629374,45.5893216 45.9548678,42.3690535 44.4823653,40.1832479 L43.8367192,39.2226757 C37.9883202,30.4942312 33.5144359,24.4500151 29.1962584,26.1790451 C26.4217253,27.2900846 22.1505282,29.4234954 21.9706601,29.5135071 C20.9370894,30.0307383 20.3196316,31.1229694 20.4041965,32.2769995 C20.4874191,33.4296862 21.2619259,34.4198145 22.3599269,34.7825481 C24.910296,35.6222091 28.5600084,37.785176 28.4834973,39.4953976 C28.4204092,40.9167758 28.1157072,42.1514134 27.8217437,43.3457473 C27.2016013,45.8674173 26.4284368,49.004391 29.315723,51.8941684 C31.9546839,54.5354062 36.4164875,56.5626838 37.9118091,57.1967959 C39.1225633,58.2339452 40.3346598,59.269751 41.5454139,60.3055569 C41.3829957,60.2867485 41.1816508,60.2356971 40.9615136,60.1524027 C39.1091403,59.4578351 36.0809126,57.4829523 33.4070519,55.7418312 C29.6311634,53.2806167 27.2244204,51.7531054 25.4230544,51.3930587 C22.3948267,50.7858159 14.6766045,52.7311426 11.4993815,53.5949858 C10.1194976,53.971154 9.23089532,55.3105813 9.42015955,56.7292726 C9.60808148,58.1479639 10.8174934,59.2066085 12.2470423,59.2066085 C14.3423719,59.2173562 18.4377277,59.9979051 18.8444445,61.8276945 C19.1249851,63.094575 19.7451274,64.3668295 20.5558764,65.5907194 C15.5893681,62.8191662 12.9691995,62.668699 12.4631526,62.668699 C11.5745503,62.668699 10.7356131,63.0838274 10.1960087,63.7904861 C9.65640427,64.4971448 9.47653613,65.4160699 9.71009625,66.2745393 C10.0792286,67.6327751 12.8470502,77.5259973 16.8846872,84.3897226 C15.3262774,84.5280987 13.7678677,84.6664749 12.2108003,84.804851 C11.3705208,84.8800846 10.6067523,85.3220822 10.1235245,86.0139629 C9.64163897,86.7071871 9.48861683,87.5764042 9.70875395,88.391883 C9.81076871,88.7747684 12.3342918,97.8471381 21.3330678,104.514719 C28.0754383,109.509694 33.3184602,109.595675 35.9882939,109.137556 C38.7480617,111.532941 41.5078295,113.928326 44.2675974,116.325055 C44.0031643,118.391293 43.737389,120.456187 43.4716137,122.522425 C41.0232594,119.402916 37.8997284,116.149062 34.9319042,115.158934 C29.8727773,113.471551 13.3101436,111.347544 12.6081209,111.258876 C11.295352,111.090944 10.0403019,111.849997 9.5758663,113.091352 C9.11277296,114.331364 9.5624433,115.72856 10.6631289,116.466118 C10.7195055,116.503735 16.3128676,120.27482 18.6377303,124.185626 C21.3223294,128.699644 23.8579332,132.962435 30.8338638,133.661033 C34.3909575,134.017049 40.0675422,135.993275 42.9763052,137.076102 C42.8447599,141.265003 42.7145568,145.453904 42.5843538,149.642805 C41.4984334,149.370083 40.1413686,148.594908 38.9561182,146.618682 C35.1144569,140.210389 27.6338217,135.137493 27.317039,134.923883 C26.9130069,134.652504 26.4458866,134.488603 25.9599742,134.449642 L6.226829,132.829432 C5.33017292,132.756886 4.45096673,133.110215 3.85498575,133.785974 C3.25900476,134.46039 3.01604855,135.376628 3.19994358,136.257936 C3.66706381,138.501511 4.13418405,140.745085 4.60130428,142.988659 C3.51538397,144.946077 2.42946366,146.902152 1.34220105,148.859569 C0.881792314,149.689826 0.86300012,150.696076 1.29387827,151.542454 C1.72475641,152.388833 2.54892832,152.965176 3.49122258,153.080713 C3.57847205,153.091461 12.3141573,154.164884 19.976003,155.74076 C22.5746948,156.275456 25.4512427,156.752383 28.2069836,157.209159 C32.1546865,157.862079 37.561469,158.758165 38.6661815,159.435268 C39.8863317,160.676623 42.5427425,162.087254 44.2917587,162.937662 C44.3454507,163.479076 44.400485,164.019146 44.454177,164.560559 C44.5857223,165.881178 45.6098969,166.937136 46.9253504,167.107755 L55.2288152,168.186551" id="Stroke-184"></path>
                    </g>
                </g>
            </g>
        </g>
    </g>
</svg>