<?xml version="1.0" encoding="UTF-8" standalone="no"?>
<svg width="807px" height="551px" viewBox="0 0 807 551" version="1.1" xmlns="http://www.w3.org/2000/svg" xmlns:xlink="http://www.w3.org/1999/xlink" xmlns:sketch="http://www.bohemiancoding.com/sketch/ns">
    <!-- Generator: Sketch 3.2.2 (9983) - http://www.bohemiancoding.com/sketch -->
    <title>bg_andeanprotein</title>
    <desc>Created with Sketch.</desc>
    <defs>
        <path id="path-1" d="M645.931921,169.275937 C618.907286,-18.3627883 370.565648,-1.51767835 327.79301,3.73357577 C324.061537,4.19020656 320.220449,3.44133206 316.534649,2.69245756 C307.975554,0.952694242 300.265974,-0.791635388 296.794836,12.6287436 C287.326851,-4.79172113 271.181493,10.6834964 258.776743,12.204077 C216.008672,17.4553311 -16.7859225,59.7028121 1.47865636,248.387222 C33.4862004,578.928554 264.129603,549.521531 316.511812,543.087603 C321.691115,542.452886 326.518737,544.256578 331.168235,546.064836 C340.161222,549.553495 348.491953,553.046721 357.398161,538.877467 C375.708413,556.466885 385.852356,534.576005 401.038584,532.712952 C453.425361,526.28359 695.710777,514.927182 645.931921,169.275937"></path>
    </defs>
    <g id="Blank-Project" stroke="none" stroke-width="1" fill="none" fill-rule="evenodd" sketch:type="MSPage">
        <g id="Producto-SuperShake-6" sketch:type="MSArtboardGroup" transform="translate(-213.000000, -210.000000)">
            <g id="macuchino-3" sketch:type="MSLayerGroup" transform="translate(213.000000, 209.000000)">
                <g id="bg_andeanprotein" transform="translate(0.177848, 0.000000)">
                    <path d="M645.931921,171.702311 C618.907286,-15.9364147 370.565648,0.908695278 327.79301,6.1599494 C324.061537,6.61658019 320.220449,5.86770569 316.534649,5.11883119 C307.975554,3.37906787 300.265974,1.63473824 296.794836,15.0551172 C287.326851,-2.36534751 271.181493,13.1098701 258.776743,14.6304506 C216.008672,19.8817047 -16.7859225,62.1291857 1.47865636,250.813596 C33.4862004,581.354928 264.129603,551.947905 316.511812,545.513977 C321.691115,544.87926 326.518737,546.682952 331.168235,548.49121 C340.161222,551.979869 348.491953,555.473094 357.398161,541.303841 C375.708413,558.893259 385.852356,537.002379 401.038584,535.139325 C453.425361,528.709964 695.710777,517.353556 645.931921,171.702311" id="shape" fill="#3A6324" sketch:type="MSShapeGroup"></path>
                    <g id="mascara" transform="translate(0.000000, 2.426374)">
                        <mask id="mask-2" sketch:name="Clip 23" fill="white">
                            <use xlink:href="#path-1"></use>
                        </mask>
                        <g id="Clip-23"></g>
                        <path d="M9.07405387,302.854143 C5.91349158,285.881176 3.35581113,267.7575 1.47865636,248.387222 C0.79356338,241.295746 0.460151463,234.409753 0.460151463,227.720112 C0.45101689,56.5794574 217.616357,17.2589799 258.776743,12.204077 C266.792331,11.2223208 276.365364,4.41852196 284.691527,4.41852196 C289.254246,4.41852196 293.442448,6.4596616 296.794836,12.6287436 C299.087614,3.75640731 303.239278,1.50978381 308.258726,1.50978381 C310.834675,1.50978381 313.634422,2.10340384 316.534649,2.69245756 C319.439443,3.28151129 322.44015,3.87056501 325.408887,3.87056501 C326.208162,3.87056501 327.00287,3.82946824 327.79301,3.73357577 C337.142246,2.58286617 356.297445,0.884199623 380.828341,0.884199623 C468.538512,0.884199623 624.812788,22.6472232 645.931921,169.275937 C650.526611,201.176164 652.63213,230.227015 652.627563,256.68877 L652.627563,258.373737 C652.116027,258.218483 651.604491,258.058662 651.102089,257.903408 C624.712308,249.72515 601.318666,241.551459 583.720911,241.551459 C580.656262,241.551459 577.765169,241.79804 575.065903,242.34143 C534.718494,250.40553 443.208341,300.191985 358.928202,300.196552 C354.575578,300.196552 350.254925,300.064129 345.952541,299.785584 C258.269774,294.127929 207.920008,270.616009 156.442121,270.616009 C115.112745,270.616009 55.5461944,287.232804 9.07405387,302.854143" id="Fill-22" fill="#6A895A" sketch:type="MSShapeGroup" mask="url(#mask-2)"></path>
                    </g>
                    <path d="M554.006145,328.029863 L665.717406,69.1247694 L778.593326,127.806393 L806.211707,74.7002314 L664.78568,1.17354114 L623.488275,15.8724864 L499.034284,304.321592 L554.006145,328.029863" id="pajita" fill="#3A6324" sketch:type="MSShapeGroup"></path>
                </g>
            </g>
        </g>
    </g>
</svg>