<?xml version="1.0" encoding="UTF-8" standalone="no"?>
<svg width="440px" height="332px" viewBox="0 0 440 332" version="1.1" xmlns="http://www.w3.org/2000/svg" xmlns:xlink="http://www.w3.org/1999/xlink" xmlns:sketch="http://www.bohemiancoding.com/sketch/ns">
    <!-- Generator: Sketch 3.2.2 (9983) - http://www.bohemiancoding.com/sketch -->
    <title>bg_algarroba</title>
    <desc>Created with Sketch.</desc>
    <defs>
        <rect id="path-1" x="0" y="0" width="554" height="345"></rect>
    </defs>
    <g id="Blank-Project" stroke="none" stroke-width="1" fill="none" fill-rule="evenodd" sketch:type="MSPage">
        <g id="Pagina-Producto-13" sketch:type="MSArtboardGroup" transform="translate(-356.000000, -214.000000)">
            <g id="Fill-127-+-Stroke-185-+-Fill-127-+-Stroke-186" sketch:type="MSLayerGroup" transform="translate(304.000000, 201.000000)">
                <g id="bg_algarroba">
                    <g id="Stroke-181">
                        <mask id="mask-2" sketch:name="Mask" fill="white">
                            <use xlink:href="#path-1"></use>
                        </mask>
                        <use id="Mask" sketch:type="MSShapeGroup" xlink:href="#path-1"></use>
                        <path d="M451.106617,308.443466 C451.106617,308.443466 418.097643,292.909831 398.080723,271.472152 C378.066435,250.034473 372.091353,229.275602 370.218055,221.203584 C368.347389,213.134197 363.603631,203.401996 359.875454,199.610674 C356.147276,195.821983 350.798381,183.821829 348.098938,174.258014 C345.399495,164.694199 343.426219,148.221285 343.486732,143.632758 C343.544615,139.046863 345.212692,130.314456 343.173639,124.289384 C341.134587,118.261681 338.661413,102.065025 338.666675,96.2057086 C338.671937,90.3490231 342.384329,81.7850019 344.765416,77.8621277 C347.143872,73.9418845 348.972442,71.9528215 347.922659,68.3035749 C346.878137,64.6543284 346.436123,63.2730347 346.436123,63.2730347 C346.436123,63.2730347 342.792139,61.3892131 344.452323,58.5187532 C346.112506,55.6456622 348.930345,56.0350555 350.256387,57.2505939 C351.582429,58.4687635 353.292603,62.7257793 353.292603,62.7257793 C353.292603,62.7257793 355.773669,67.2064331 360.470068,69.8085274 C365.163836,72.4106217 374.388247,79.6591251 377.916466,90.7173681 C381.442054,101.775611 382.539195,109.623991 380.684315,113.907317 C378.829435,118.188012 378.821542,124.047328 381.30524,128.525351 C383.788937,133.006005 386.601515,139.252084 387.038267,143.564351 C387.477649,147.876619 388.385357,151.275917 389.624575,156.445902 C390.863792,161.613256 392.708148,169.051194 393.615856,175.378835 C394.520932,181.709107 394.568291,188.839214 395.228681,192.375326 C395.889071,195.914069 398.204382,202.439037 402.785015,208.356237 C407.365648,214.276067 417.166256,226.086786 417.884529,227.965346 C418.600171,229.843905 420.115647,232.582813 420.115647,232.582813 C420.115647,232.582813 423.04399,235.513787 428.095579,240.520648 C433.149798,245.527509 438.282949,252.441871 441.982185,255.596483 C445.684052,258.748463 450.335724,263.329097 456.026654,265.378673 C461.717584,267.42825 469.794864,274.663598 476.00937,277.073627 C482.226507,279.483656 490.593201,284.603651 491.721915,290.160399 C492.847998,295.714515 488.6094,306.849058 479.984865,310.653536 C471.357699,314.460645 465.030058,312.437378 451.106617,308.443466 L451.106617,308.443466 Z" id="Stroke-177" fill="#000000" sketch:type="MSShapeGroup" mask="url(#mask-2)"></path>
                        <path d="M388.879768,318.431673 L393.510391,322.909696 L395.086382,321.567868 L395.53892,312.214536 C395.53892,312.214536 398.0805,309.775566 391.873887,306.639371 C385.669905,303.503176 383.115169,302.41919 383.220411,297.438639 C383.323021,292.458089 383.183576,286.8724 378.650302,275.653663 C374.117027,264.432296 370.817708,258.007307 365.179399,244.060187 C359.546351,230.110435 351.529586,212.890307 347.493577,204.644641 C343.454937,196.401606 336.174861,180.999523 330.920683,171.483067 C325.663874,161.966611 321.277937,158.096357 319.188895,151.179364 C317.099852,144.265002 318.767929,134.419667 315.918517,118.638715 C313.071737,102.860394 311.845674,99.8268093 307.493941,88.1818453 C303.139577,76.5368813 305.083912,76.1053914 300.795324,65.4944244 C296.506736,54.8808264 295.251732,43.0411657 295.251732,43.0411657 C295.251732,43.0411657 296.077877,36.358335 288.879363,27.2733687 C281.683481,18.1910334 273.903508,16.3940361 273.903508,16.3940361 L271.827621,13 L269.775413,16.6518776 C269.775413,16.6518776 261.458709,17.8963574 257.233266,24.8949124 C253.005192,31.8934674 249.997918,40.1628126 253.615592,49.9871 C257.233266,59.8140183 258.656656,67.7044944 257.712114,75.8449189 C256.770204,83.9853433 259.269688,104.139077 260.014271,109.48271 C260.761485,114.823713 260.908823,122.172196 264.573856,127.744729 C268.236257,133.319894 264.708038,131.570255 269.36234,143.094192 C274.019274,154.615497 275.113785,155.583718 279.873328,162.127104 C284.632872,168.667859 283.433119,172.680188 283.946171,180.939009 C284.461854,189.195199 286.924504,198.782693 289.000391,202.176729 C291.078909,205.570765 291.568282,215.952832 297.927495,228.197672 C304.284077,240.445144 303.352691,242.936734 306.899327,249.969493 C310.445963,257.002251 311.916712,260.640974 315.458086,265.910938 C318.996829,271.183534 322.532941,274.693335 326.555795,279.416045 C330.581279,284.138754 335.119816,297.120284 337.803472,300.269634 C340.487129,303.416352 348.464429,310.070242 355.45246,310.775359 C362.43786,311.477846 365.902934,312.196118 370.146794,310.480683 C374.393286,308.765248 376.69018,305.72114 379.734288,308.018034 C382.778397,310.314928 384.307028,313.224853 384.307028,313.224853 L388.879768,318.431673 L388.879768,318.431673 Z" id="Stroke-179" fill="#000000" sketch:type="MSShapeGroup" mask="url(#mask-2)"></path>
                        <path d="M372.216266,726.538603 L383.049136,737 L386.736005,733.865269 L387.794672,712.014348 C387.794672,712.014348 393.740441,706.316512 379.220702,698.989846 C364.707118,691.66318 358.730574,689.130809 358.976776,677.495424 C359.216822,665.860039 358.890605,652.810952 348.285471,626.602139 C337.680338,600.387181 329.961918,585.37735 316.771667,552.794584 C303.593727,520.205671 284.83932,479.976619 275.397489,460.713388 C265.949503,441.456304 248.918508,405.474505 236.626893,383.242499 C224.329124,361.010493 214.068672,351.968945 209.181571,335.809712 C204.294469,319.656626 208.196764,296.656304 201.530856,259.789405 C194.871103,222.928653 192.002854,215.841701 181.822418,188.637151 C171.635827,161.4326 176.184402,160.424569 166.151687,135.635606 C156.118972,110.840496 153.183018,83.181102 153.183018,83.181102 C153.183018,83.181102 155.115701,67.5689108 138.275511,46.3449359 C121.441477,25.1271076 103.241025,20.9290262 103.241025,20.9290262 L98.3846982,13 L93.5837671,21.5313864 C93.5837671,21.5313864 74.1276861,24.438696 64.2426921,40.788471 C54.3515431,57.138246 47.3163325,76.456796 55.7795123,99.4079463 C64.2426921,122.365243 67.5725687,140.798693 65.3629094,159.816062 C63.1594051,178.833432 69.006693,225.915867 70.7485692,238.399474 C72.4966006,250.876934 72.8412828,268.044197 81.4152533,281.062552 C89.9830688,294.087053 81.7291603,289.999609 92.6174258,316.921419 C103.511846,343.837083 106.072343,346.099007 117.20681,361.385432 C128.341277,376.66571 125.534579,386.039171 126.734812,405.333135 C127.9412,424.620953 133.702317,447.018915 138.558643,454.947941 C143.421125,462.876967 144.565962,487.131183 159.442694,515.737142 C174.31327,544.349249 172.134386,550.170014 180.431379,566.599694 C188.728373,583.029374 192.16904,591.530028 200.453724,603.841532 C208.732253,616.159182 217.004626,624.358655 226.415682,635.39168 C235.832893,646.424705 246.450337,676.751694 252.728478,684.109092 C259.006618,691.460345 277.668699,707.004924 294.016485,708.652195 C310.358116,710.293319 318.464303,711.971322 328.392382,707.963783 C338.326617,703.956244 343.699967,696.844707 350.821348,702.210629 C357.942729,707.576551 361.518807,714.374616 361.518807,714.374616 L372.216266,726.538603 L372.216266,726.538603 Z" id="Stroke-182" fill="#000000" sketch:type="MSShapeGroup" mask="url(#mask-2)">
                            <g transform="translate(220.500000, 375.000000) scale(-1, -1) translate(-220.500000, -375.000000) "></g>
                        </path>
                    </g>
                </g>
            </g>
        </g>
    </g>
</svg>