<svg xmlns="http://www.w3.org/2000/svg" width="296" height="233" viewBox="0 0 296 233">
  <title>
    Almendra Marcona Vacio
  </title>
  <g fill="none" fill-rule="evenodd" opacity=".5">
    <path fill="#FFF" d="M60.266 223.17c-3.5-1.4-8.8-3.4-14.9-6.6-6.1-3.2-12.7-8-18.1-14.4-2.8-3.2-5.4-6.7-7.8-10.5-1.3-1.9-2.4-3.9-3.6-6-.2-.4-.2-.5-.3-.5-.3-.7-.4-.9-.6-1.2-.2-.5-.5-1.1-.7-1.6-.5-1.1-1-2.2-1.5-3.4-3.9-9.2-7.3-19.9-9.2-32.3-1.1-6.2-1.7-12.8-2.4-19.6-.1-1.7-.3-3.4-.5-5.1l-.3-5.4c-.2-3.5-.5-7.1-.3-10.9 0-1.9.1-3.8.1-5.6 0-1.9.2-3.7.4-5.6.2-3.8.6-7.4.9-11.1.4-3.9 1.2-7.7 2.8-11.2 1.6-3.4 4-6.3 7.3-7.8s7-1.6 10.8-1.1c1.8.4 3.7.7 5.5 1.3.9.3 1.8.6 2.8.9 1 .4 1.8.7 2.7 1.1 3.5 1.4 7.1 2.7 10.7 4.4 3.6 1.6 7.2 3.2 10.6 5 1.8.9 3.5 1.7 5.3 2.6l5.1 2.7 5.1 2.7c1.6 1 3.3 1.9 4.9 2.9 6.6 3.8 12.8 7.8 18.4 12.1 1.4 1.1 2.7 2.3 4.1 3.4 1.3 1.1 2.6 2.3 3.8 3.4 2.5 2.2 5.1 4.4 7.5 6.7 4.8 4.5 9.1 9.2 12.7 14.3 3.6 5.1 6.4 10.7 8.4 16.7s3.3 12.5 4 19.1c.2 1.7.2 3.3.4 5 .1.8.1 1.7.2 2.5v2.6c0 1.6-.2 3.4-.3 5.2-.3 1.7-.4 3.4-.8 5.1-1.3 6.7-3.5 12.7-6.1 17.8-2.6 5.1-5.8 9.3-9.1 12.7-3.3 3.4-6.8 6-10.4 8.1-7.1 4.1-14.4 5.8-20.8 6.3-6.4.6-11.9-.1-15.6-.8-1.9-.4-3.3-.8-4.2-1.1-1.1-.6-1.6-.8-1.6-.8s-1.9-.7-5.4-2zm11.3 2.2c3.5.7 8.8 1.2 15 .5 6.2-.6 13.2-2.6 20.1-6.7 6.8-4.2 13.5-10.7 18.5-20.4 2.5-4.8 4.6-10.5 5.7-16.6.3-1.5.5-3.1.7-4.6.1-1.5.3-3 .3-4.7v-1.8c-.1-1.2-.1-2-.2-2.8-.1-1.6-.2-3.2-.4-4.8-.8-6.3-2-12.5-3.9-18.5-1.9-5.9-4.7-11.4-8.1-16.5-3.4-5.1-7.6-9.8-12.3-14.4-2.4-2.3-4.8-4.5-7.4-6.8-1.3-1.2-2.5-2.3-3.8-3.5-1.3-1.1-2.6-2.2-3.9-3.4-10.9-8.7-24.3-16.2-38.1-22.9-3.4-1.7-7-3.2-10.5-4.7-3.4-1.6-7.1-2.7-10.6-4.1-.9-.3-1.8-.7-2.6-.9-.9-.2-1.7-.5-2.6-.7-1.7-.6-3.4-.7-5.1-1-3.3-.3-6.6-.1-9.2 1.2-2.7 1.3-4.7 3.6-6.1 6.6-1.4 2.9-2.1 6.4-2.4 9.8-.3 3.6-.6 7.4-.8 11-.1 1.8-.3 3.6-.3 5.4 0 1.8 0 3.6-.1 5.3-.2 3.5.2 7.1.4 10.6.1 1.7.2 3.4.3 5.2.2 1.7.3 3.4.5 5.1.7 6.7 1.3 13.2 2.4 19.3 2.1 12.2 5.2 22.8 8.9 32.1.5 1.2.9 2.3 1.4 3.5.2.6.5 1.1.7 1.7.1.3.2.6.3.8.1.2.3.6.4.7 1.1 2.1 2.2 4.1 3.4 6.1 2.3 3.9 4.7 7.4 7.3 10.6 5.1 6.4 11.2 11.1 17 14.4 5.8 3.3 10.85 5.52 14.35 6.92 3.3 1.2 5.25 1.48 5.35 1.58"/>
    <path fill="#FFF" d="M77.3 216.3c0 .5.1.5 0 .5-.4-.1-.6-.2-.7-.2-.5-.2-1-.4-1.6-.6-1-.4-2.1-.8-3.1-1.2-2-.9-4.1-1.8-6-2.8-3.9-2-7.7-4.4-10.9-7.3-1.6-1.4-3-3-4.2-4.7-1.2-1.7-2.1-3.7-2.7-5.5-1.3-3.7-2.3-7.6-2.9-11.6-.7-4-1-8-2.2-11.6-.6-1.8-1.3-3.6-2.1-5.3-.5-.9-.9-1.9-1.3-2.6-.4-.8-.9-1.7-1.3-2.5-1.9-3.4-4-6.6-6.2-9.9-1.2-1.7-2.3-3.3-3.5-5l-3.6-5.1c-.9-.9-1.5-2.1-2.1-3.4-.5-1.2-.9-2.4-1.2-3.7-.3-1.3-.6-2.5-1-3.7-.4-1.2-.9-2.4-1.2-3.6-.6-2.5-1.1-4.9-1.7-7.4-.5-2.5-1-4.9-1.4-7.4-.4-2.5-.8-4.9-1.2-7.4-.4-2.5-.9-4.9-1.5-7.3-.6-2.4-1.4-4.8-2.3-7.1-.5-1.1-1-2.3-1.6-3.3-.6-1.1-1.2-2.1-1.8-3.2l.4-.4c.8 1 1.5 2 2.2 3 .7 1 1.4 2.1 2 3.2l1.8 3.3c.6 1.1 1.1 2.3 1.7 3.5 2.2 4.7 3.8 9.6 4.7 14.7.5 2.5.8 5.1 1 7.6.2 2.5.5 5 .7 7.5.1 1.2.1 2.5.2 3.8.1 1.3.4 2.4.8 3.6.4 1.1.9 2.2 1.5 3.2s1.3 1.8 2.1 2.4c3 2.9 6.1 5.6 9.1 8.7 1.5 1.5 2.9 3.1 4.2 4.9 1.3 1.8 2.6 3.6 3.6 5.5.5 1 1 1.9 1.4 3 .5 1.1.8 2.1 1.1 3 .7 2.2 1.1 4.3 1.4 6.5.3 2.2.3 4.3.3 6.3s0 4 .2 5.9c.3 3.9 1 7.6 2 11.4.4 1.9 1.1 3.6 2.1 5.2 1 1.7 2.2 3.2 3.7 4.6 2.9 2.9 6.5 5.3 10.3 7.4 1.9 1 3.9 2 5.9 2.9 1 .4 2 .9 3 1.3.3.2.8.4 1.3.7.5.1.5.1.6.2.4.2.4.3.4.4l-.5.2c-.3-.1-.5-.2-.6-.2 0-.3 0-.4.1-.6.5.1.5.1.6.2z"/>
    <path fill="#FFF" d="M75.344 206.9c-.5-.2-1.1-.5-1.7-.8-.7-.3-1.4-.8-2.2-1.3-.8-.5-1.7-1-2.6-1.6-.9-.6-1.7-1.3-2.7-2-1-.7-1.8-1.5-2.7-2.3-.9-.8-1.8-1.6-2.6-2.6l-2.4-2.7c-.7-1-1.4-1.9-2-2.9-.6-1-1-2-1.3-2.9-.3-1-.6-1.9-.8-2.7-.3-.8-.2-1.7-.3-2.4 0-.7-.1-1.3 0-1.9 0-1 .1-1.6.1-1.6 0-.1.1-.2.2-.2s.1 0 .1.1c0 0 .4.5.9 1.4.3.4.6 1 .9 1.6.3.6.6 1.3 1 2 .5.7.9 1.5 1.3 2.3.2.4.4.8.7 1.3.2.4 1.8 3.1 2.3 4.1.5.9 1.2 1.8 1.8 2.8.6 1 1.3 1.8 2.1 2.7.8.8 1.4 1.7 2.2 2.5.8.8 1.6 1.5 2.3 2.2.7.7 1.5 1.2 2.2 1.8.7.5 1.3 1.1 1.9 1.5.6.4 1.2.8 1.6 1.1.9.6 1.4.9 1.4.9.1.1.1.2.1.2-.1.2-.2.2-.3.1 0 0-.6-.3-1.5-.7zM99.244 211.4c-.3-.2-.7-.4-1.2-.7-1-.6-2.6-1.4-4.5-2.6-2-1.2-4.3-3-6.5-5.4-2.2-2.4-4.3-5.5-6.2-8.9-.8-1.8-2.2-3.4-3.4-5.1-1.2-1.7-2.5-3.5-3.9-5.3-2.7-3.6-5.5-7.5-7.8-11.8-1.2-2.1-2.2-4.3-3-6.7-.8-2.4-1.3-4.9-2.1-7.3-.8-2.4-1.7-4.8-2.7-7.2-1-2.4-2.9-4.2-4.6-6.1-3.4-3.9-7.1-7.5-10.2-11.8-.7-1.1-1.5-2.2-2.1-3.4-.3-.6-.6-1.2-.9-1.9-.3-.6-.5-1.1-.8-1.7-1.1-2.3-2.2-4.3-3.4-6.4-2.4-4.2-4.7-8.3-6.8-12.3-.5-1-1-2.1-1.5-3.1-.5-1.1-.9-2.1-1.3-3.2-.7-2-1.4-3.7-2.1-5.3-1.4-3-3.3-5.2-5.4-7.5-2.1-2.3-3.9-4.7-5.1-7-1.1-2.3-1.6-4.3-1.7-5.6-.1-.7 0-1.2 0-1.5v-.5c.2 0 .4-.1.6-.1 0 0 .1.1.3.4.2.3.4.7.7 1.2.7 1 1.7 2.3 3.2 3.7 1.5 1.4 3.4 2.9 5.9 4.9 2.5 2 5.6 5.1 7.4 9.2.9 1.9 1.7 4.1 2.3 6 .3.9.7 1.8 1 2.8.4 1 .8 1.9 1.2 2.9 1.7 4 3.7 8.3 5.5 12.9.9 2.2 1.9 4.8 2.6 7.1.2.6.4 1.2.6 1.9.2.6.3 1.1.5 1.7.4 1.1.9 2.2 1.5 3.3 2.3 4.4 5.6 8.4 8.8 12.5 1.6 2 3.1 4.2 4.8 6.2 1.7 2 3.4 4.1 5 6.2 1.6 2.1 3.4 4 4.9 6.1 1.5 2.1 2.7 4.3 3.6 6.5 2 4.5 3.4 9 4.7 13.3.6 2.1 1.3 4.2 2 6.2s1.4 3.9 2.5 5.5c2.1 3.2 4.5 5.9 6.7 8 2.3 2.1 4.4 3.7 6.1 5 1.8 1.4 3.2 2.6 4 3.5.5.5.7.9.9 1.1.2.3.3.4.3.4.2-.1-.1 0-.4-.1zM28.436 122.623c-.3-.6-.7-1.2-1.1-1.9-.8-1.2-1.3-2.7-1.9-4.2-.4-1.6-.9-3.2-1.2-4.9-.1-.8-.3-1.7-.4-2.5-.1-.8-.2-1.7-.4-2.5-.1-.8-.3-1.6-.4-2.5-.1-.8-.3-1.6-.5-2.4-.4-1.5-1-3-1.6-4.4-1.2-2.8-2.7-5.3-4-7.4-1.3-2.1-2.5-3.7-3.4-4.9-.9-1.2-.6-1.4.4-.3.9 1.1 2.3 2.6 3.8 4.6.7 1 1.5 2.1 2.3 3.3.8 1.2 1.5 2.5 2.2 3.9.7 1.4 1.4 2.9 1.9 4.5.3.8.5 1.7.7 2.5l.6 2.4.6 2.4c.3.8.6 1.5.8 2.3.5 1.5 1.3 2.9 1.8 4.3.7 1.3 1.1 2.7 1.7 3.9.6 1.2 1.1 2.4 1.7 3.5.5 1.1 1.1 2 1.6 2.9.5.9.9 1.6 1.3 2.3.8 1.3 1.1 2 1.1 2 0 .2-7.2-6.3-7.6-6.9zM90.2 171.92c-.7-1.9-1.5-4-2-6.4-.3-1.2-.4-2.4-.6-3.6-.1-1.2-.3-2.4-.4-3.7-.3-2.3-1-4.8-2.5-6.9-1.4-2.1-3.4-3.8-5.6-5.2-2.2-1.5-4.4-3-6.6-4.4-1.1-.8-2.2-1.6-3.2-2.5-1-.9-1.9-1.9-2.8-2.7-1.8-1.7-3.6-3.4-5.1-5.2-1.6-1.7-2.9-3.5-4.1-5.3-1.2-1.7-2.1-3.4-2.7-5-.6-1.6-1-3-1.3-4.2-.2-1.2-.3-2.1-.3-2.8v-1c.3-.1.5.2.9.7.4.5.9 1.3 1.6 2.2.6.9 1.4 2.1 2.3 3.4.9 1.3 1.9 2.8 2.9 4.4 1.1 1.6 2.3 3.3 3.7 5.1 1.4 1.8 2.9 3.7 4.4 5.6.8 1 1.5 2 2.3 2.9.8.9 1.7 1.8 2.6 2.7 1.8 1.8 4 3.3 6.1 5 2.1 1.6 4.2 3.4 5.8 5.5 1.6 2.1 2.8 4.6 3.5 7.2.3 1.3.6 2.5.8 3.6.3 1.1.6 2.2 1 3.3.6 2.1 1.4 4.1 2 6 1.4 3.6 2.6 6.7 3.5 8.9.9 2.2 1.3 3.5 1.3 3.5-6.873-3.3-6-7.2-7.5-11.1zM93.8 219.1c-.4-.2-.9-.5-1.3-.8-.4-.4-.9-.7-1.3-1.2-.2-.2-.4-.5-.6-.7l-.2-.2c-.1-.1-.1-.2-.2-.3-.1-.1-.1-.2-.2-.4-.1-.3-.3-.5-.4-.8-.1-.3-.2-.6-.4-1-.2-.6-.3-1.2-.4-1.7-.1-.2-.1-.5-.2-.7l-.3-.6c-.2-.4-.6-.7-.8-1.1-.4-.3-.7-.6-1-.9-.7-.6-1.3-.9-1.8-1.2-.4-.3-.7-.5-.7-.5s.3.1.8.2c.3.1.6.2.9.2.4.1.8.2 1.2.4.4.2.9.4 1.4.7.4.4 1 .8 1.3 1.3.2.3.3.6.5.9l.3.9c.2.6.3 1.2.5 1.6.1.2.1.4.2.7.1.2.3.5.4.8.1.1.1.3.2.4 0 0 .1.2 0 .1 0 .1.1.1.1.2.1.2.3.4.4.6l.9 1.2 1 1c1.4 1.2 2.6 1.8 2.6 1.8s-1.2 0-2.9-.9zM88.5 118.4c-.8-.6-1.8-1.4-2.8-2.3-1.1-.9-2.2-2-3.4-3.1-1.2-1.2-2.5-2.5-3.7-4-1.2-1.5-2.3-3.2-3.5-5-1.1-1.8-2.4-3.5-3.9-5.2-1.5-1.7-3-3.4-4.6-5-1.6-1.6-3.3-3.2-5-4.7-1.7-1.5-3.6-2.8-5.5-3.9-1.9-1.2-3.7-2.1-5.5-3.1-1.8-1-3.5-1.9-5-2.7-1.6-.9-3-1.8-4.2-2.6-1.2-.9-2.2-1.6-3-2.3-1.6-1.4-2.4-2.2-2.4-2.2.1-.1.1-.2.2-.3 0 0 1 .6 2.8 1.7.9.5 2 1.1 3.2 1.8 1.3.7 2.7 1.4 4.3 2.2 1.6.8 3.4 1.6 5.2 2.6 1.8 1 3.7 2.3 5.4 3.6.9.6 1.8 1.4 2.6 2.1.9.7 1.8 1.4 2.6 2.2.9.7 1.8 1.5 2.6 2.2.9.8 1.8 1.5 2.6 2.3 1.8 1.5 3.5 3 5.2 4.5 1.7 1.5 3.4 2.9 5.2 4.3 1.7 1.3 3.4 2.7 4.7 4.1 1.4 1.4 2.5 2.8 3.5 4.2 1 1.4 1.8 2.6 2.5 3.8.7 1.2 1.2 2.3 1.6 3.2.8 1.8 1.1 3 1.1 3 .1.2 0 .3-.1.4 0 0-1.1-.6-2.7-1.8z"/>
    <path fill="#FFF" d="M113.9 201.1c.3-1.2.6-3 .9-5.3.5-4.7.9-11.6-.4-19.7-.6-4-1.7-8.3-3.5-12.4-1.8-4.2-4.2-8.1-7.4-11.8-3-3.8-6.3-7.6-9.8-11.4-3.6-3.7-7.2-7.4-11.1-11.1-1.9-1.9-3.7-3.8-5.5-5.8-1.8-2-3.7-3.9-5.3-6-1.7-2.2-3.2-4.4-4.6-6.6-1.3-2.3-2.5-4.5-3.8-6.5-2.5-4.1-6-7.4-9.6-10.3-1.8-1.4-3.7-2.7-5.6-3.9-1.9-1.2-3.7-2.4-5.4-3.5-3.4-2.5-6.3-4.7-8.9-6.8-2.6-2.1-4.7-4-6.5-5.6-3.5-3.2-5.4-5.2-5.4-5.2.2-.2.8.1 1.9.8 1.1.7 2.6 1.8 4.6 3.1 1.9 1.4 4.3 3.1 6.9 5.2 2.5 2.2 5.3 4.8 8.4 7.4 3 2.8 7 4.7 11.2 7.1 4.1 2.5 8.2 5.6 11.6 9.7 3.4 4 6.2 8.1 9.4 12 3.4 4 6.7 8 10.1 12 3.3 4.1 6.5 8.3 9.6 12.5 3.1 4.1 6 8.3 9 12.1 3 3.8 5.8 7.7 7.6 12 2 4.2 3.2 8.5 4.2 12.6.9 4.1 1.4 8 1.8 11.4.3 3.5.5 6.5.5 9.1.1 2.5 0 4.5 0 5.9 0 1.4-.1 2.2-.1 2.2-1.9-.7-3.6-1.1-5.2-1.5 0 0 .2-.5.4-1.7zM77.15 222.823c-1-.5-2.4-1.2-4.3-2-1.9-.9-4.2-1.9-6.8-3.1-1.3-.6-2.7-1.3-4.1-2.1-.7-.4-1.4-.8-2.2-1.2-.7-.4-1.4-.9-2.2-1.4-.7-.5-1.5-.9-2.3-1.4-.8-.5-1.5-1-2.2-1.6-1.5-1.1-3.1-2.2-4.5-3.5-1.4-1.2-3.1-2.6-4.5-3.9l-4.2-4.2c-1.4-1.4-2.8-3-4.1-4.5-.7-.7-1.4-1.4-2-2.2-.7-.7-1.4-1.3-2.1-2-.8-.8-1.6-1.4-2.3-2.2-.7-.8-1.5-1.6-2.2-2.4-1.4-1.6-2.7-3.3-3.9-5-2.4-3.4-4.5-7-6.4-10.7-.4-.9-.9-1.9-1.3-2.8-.1-.2-.2-.5-.3-.7-.1-.3-.2-.5-.3-.8-.2-.5-.3-1-.5-1.4-.6-1.9-1.3-3.8-1.7-5.8-.4-2-.7-4.1-.9-6-.1-1-.2-1.9-.3-2.8 0-1-.1-1.9-.3-2.8l-.6-5.4c-.3-1.8-.7-3.4-1.1-5-.9-3.2-1.7-6.1-2.6-8.6-.8-2.5-1.7-4.7-2.4-6.4-.7-1.7-1.4-2.9-1.9-3.7-.5-.5-.7-.8-.7-.8l-.2-.2c-1-1.1-1-3 0-4.2 1-1.2 2.6-1.4 3.6-.3.2.2.4.6.5.9 0 0 .3.7.7 2 .3 1.2.6 2.8 1 4.8s.8 4.3 1.4 7c.6 2.7 1.2 5.7 2.1 8.8.4 1.6 1 3.2 1.6 4.8.6 1.7 1.2 3.5 1.8 5.3.2.5.3.9.5 1.4.1.5.2 1 .3 1.4.2 1 .3 1.9.5 2.9.2 2 .5 3.8.6 5.8.2 1.9.6 4 .9 6l.3 1.5c0 .2.1.5.1.7.1.2.1.5.2.7.3.9.5 1.9.8 2.9 1.4 3.7 3.5 7.3 6.3 10.3 1.4 1.5 2.9 3 4.5 4.3 1.5 1.4 3.2 2.6 4.9 3.9.9.7 1.8 1.5 2.5 2.3l2.1 2.4c1.3 1.6 2.6 3.1 3.8 4.7 2.6 3.1 4.9 6.1 7.5 8.7 1.2 1.4 2.7 2.5 4 3.7.7.6 1.3 1.2 2 1.7l2.1 1.5c.7.5 1.4 1 2 1.4.7.4 1.4.8 2.1 1.3 1.3.8 2.6 1.6 3.9 2.3 2.5 1.4 4.7 2.5 6.5 3.4 1.8.9 3.3 1.6 4.3 2.2 1 .5 1.5.8 1.5.8.2 0-.5-.3-1.5-.7zM148.213 136.5c2.7-2.1 6.7-5.3 12.1-8.6 5.4-3.3 12.2-6.2 19.7-7.5 3.8-.7 7.7-1.1 11.9-1.3 2.1-.1 4.2-.1 6.4-.1h.9c.3 0 .5.1.8.1.5.1 1.1.1 1.6.2 1.1.1 2.2.3 3.3.4 9 1.2 19 3.5 29.7 7.8 5.4 2 10.8 4.6 16.5 7.2 1.4.7 2.8 1.3 4.3 2 1.4.8 2.9 1.5 4.3 2.3 2.9 1.5 5.8 2.9 8.7 4.8 1.5.9 2.9 1.8 4.4 2.7 1.5.9 2.8 1.9 4.2 2.9 2.9 1.9 5.5 3.9 8.4 5.9 2.9 2.1 5.5 4.5 7.5 7.4 1.9 2.8 3.1 6.1 2.7 9.4-.3 3.3-2 6.3-4.1 9-1.2 1.2-2.3 2.6-3.6 3.7-.7.6-1.3 1.2-2 1.8-.7.6-1.4 1.1-2.1 1.6-2.8 2.1-5.4 4.3-8.4 6.3-2.9 2.1-5.8 4.2-8.8 6-1.5 1-3 2-4.4 2.9-1.5.9-3 1.8-4.5 2.8-1.5.9-3 1.9-4.5 2.7-1.5.8-3 1.7-4.5 2.5-6 3.4-12 6.4-18.1 8.8-1.5.5-3 1.1-4.5 1.6s-3 1-4.4 1.4c-2.9 1-5.8 1.9-8.7 2.8-5.8 1.7-11.4 2.9-17.1 3.3-5.7.4-11.4.1-17-1.1-5.7-1.2-11.3-3.2-16.8-5.7-1.4-.6-2.7-1.4-4.1-2-.7-.3-1.4-.7-2-1-.4-.2-.7-.4-.6-.3-.2-.1-.3-.2-.5-.3-.3-.2-.6-.4-1-.6-1.3-.7-2.6-1.8-3.9-2.7-1.2-1-2.5-1.9-3.6-3-4.7-4.1-8.4-8.7-11.1-13.1-2.8-4.4-4.6-8.8-5.8-13-1.1-4.2-1.6-8.2-1.5-11.9.1-7.5 2.2-14 4.7-19.3 2.5-5.3 5.6-9.3 7.9-11.9 1.2-1.3 2.1-2.2 2.8-2.8.4-.4.7-.8.7-.8s1.4-1.2 4.1-3.3zm-4.3 5.2c-.6.6-1.5 1.5-2.6 2.7-2.1 2.5-5.1 6.3-7.4 11.5-2.4 5.2-4.1 11.6-4 18.9.1 7.3 2.1 15.6 7.4 24 2.6 4.2 6.1 8.4 10.4 12.2 1 1 2.2 1.8 3.3 2.7 1.2.8 2.2 1.6 3.6 2.4.3.2.6.4 1 .6.2.1.3.2.5.3 1 .5 1.6.8 2.3 1.2 1.3.6 2.6 1.3 3.9 1.9 5.3 2.3 10.8 4.3 16.3 5.5 5.5 1.2 11.1 1.6 16.7 1.3 5.6-.3 11.3-1.4 17-3 2.9-.8 5.8-1.7 8.8-2.6 1.5-.4 3-.9 4.5-1.4l4.5-1.5c11.9-4.5 24-11.6 35.7-19.3 3-1.9 5.7-4 8.5-6.1 2.8-2 5.5-4.3 8.1-6.5.6-.5 1.4-1.1 1.9-1.6.6-.6 1.2-1.1 1.8-1.7 1.2-1.1 2.1-2.4 3.2-3.5 1.8-2.5 3.1-5.1 3.3-7.8.2-2.7-.7-5.4-2.3-7.8-1.6-2.4-4.1-4.6-6.6-6.4-2.7-1.9-5.5-3.9-8.3-5.7-1.4-.9-2.7-1.9-4.1-2.8-1.4-.8-2.8-1.7-4.2-2.5-2.7-1.8-5.7-3.1-8.5-4.7-1.4-.7-2.8-1.5-4.2-2.2-1.4-.7-2.8-1.3-4.2-2-5.6-2.6-11-5.1-16.3-7.1-10.5-4-20.3-6.5-29.4-7.9-1.1-.2-2.3-.3-3.4-.5-.6-.1-1.1-.2-1.7-.2-.3 0-.5-.1-.8-.1h-.7c-2.2-.1-4.3-.2-6.4-.1-4.1 0-8 .3-11.7.8-7.4 1-13.9 3.6-19.2 6.7-5.3 3-9.2 6.2-11.8 8.2-2.4 2-3.8 3.1-3.9 3.2 0 0-.3.3-1 .9z"/>
    <path fill="#FFF" d="M145.432 152.264c-.4-.3-.3-.4-.3-.4.8-.6 1.2-.9 1.6-1.3l2.4-1.8c1.6-1.2 3.3-2.3 5-3.4 3.4-2.2 7-4 10.8-5.2 1.9-.6 3.8-1 5.7-1.1 1.9-.2 3.8.1 5.6.5 3.5.7 7 1.7 10.4 3.1 3.4 1.3 6.8 2.9 10.2 3.7 1.7.4 3.5.6 5.1.8 1 .1 1.9.2 2.7.2.9 0 1.7.1 2.6.1 3.5.1 7.1-.1 10.7-.3 1.8-.1 3.7-.3 5.5-.4 1.9-.2 3.8-.3 5.6-.4 1.1-.3 2.3-.2 3.5-.1 1.2.1 2.3.4 3.5.7 1.1.4 2.2.7 3.4.9 1.1.2 2.3.4 3.4.7l6.6 2.1c2.2.7 4.3 1.5 6.5 2.3 2.1.8 4.2 1.6 6.4 2.4 2.1.8 4.3 1.6 6.4 2.2 2.2.6 4.4 1.2 6.6 1.5 1.1.2 2.2.3 3.4.3 1.1.1 2.2.1 3.4 0 0 .2.1.4.1.5-1.1.1-2.2.3-3.4.4-1.1.1-2.3.1-3.4.1-1.2 0-2.3 0-3.5-.1-1.2-.1-2.3-.2-3.5-.3-4.7-.5-9.3-1.5-13.7-3.1-2.2-.8-4.3-1.7-6.4-2.7-2.1-1-4.2-2-6.2-3-1-.5-2-1.1-3-1.6s-2.1-.8-3.2-1c-1.1-.2-2.1-.3-3.2-.3-1 0-2 .2-2.8.5-3.8 1-7.3 2.2-11.1 3.1-1.9.5-3.8.8-5.8 1.1-2 .2-4 .4-6 .2-1-.1-2-.1-3-.3-1.1-.1-2-.3-2.9-.5-2-.5-9.2-3.7-10.8-4.6-1.6-1-3.1-1.8-4.7-2.6-3.2-1.6-6.5-2.7-9.9-3.7-1.7-.5-3.3-.8-5.1-.8-1.7 0-3.6.3-5.4.8-3.6 1-7.2 2.6-10.6 4.6-1.7 1-3.4 2.1-5 3.2l-2.4 1.8c-.6.2-1 .5-1.4.8l-.4.4c-.6-.2-.4-.4-.4-.4l.4-.4.4.4-.4.4z"/>
    <path stroke="#FFF" stroke-width=".455" d="M145.4 152.264c-.4-.3-.3-.4-.3-.4.8-.6 1.2-.9 1.6-1.3l2.4-1.8c1.6-1.2 3.3-2.3 5-3.4 3.4-2.2 7-4 10.8-5.2 1.9-.6 3.8-1 5.7-1.1 1.9-.2 3.8.1 5.6.5 3.5.7 7 1.7 10.4 3.1 3.4 1.3 6.8 2.9 10.2 3.7 1.7.4 3.5.6 5.1.8 1 .1 1.9.2 2.7.2.9 0 1.7.1 2.6.1 3.5.1 7.1-.1 10.7-.3 1.8-.1 3.7-.3 5.5-.4 1.9-.2 3.8-.3 5.6-.4 1.1-.3 2.3-.2 3.5-.1 1.2.1 2.3.4 3.5.7 1.1.4 2.2.7 3.4.9 1.1.2 2.3.4 3.4.7l6.6 2.1c2.2.7 4.3 1.5 6.5 2.3 2.1.8 4.2 1.6 6.4 2.4 2.1.8 4.3 1.6 6.4 2.2 2.2.6 4.4 1.2 6.6 1.5 1.1.2 2.2.3 3.4.3 1.1.1 2.2.1 3.4 0 0 .2.1.4.1.5-1.1.1-2.2.3-3.4.4-1.1.1-2.3.1-3.4.1-1.2 0-2.3 0-3.5-.1-1.2-.1-2.3-.2-3.5-.3-4.7-.5-9.3-1.5-13.7-3.1-2.2-.8-4.3-1.7-6.4-2.7-2.1-1-4.2-2-6.2-3-1-.5-2-1.1-3-1.6s-2.1-.8-3.2-1c-1.1-.2-2.1-.3-3.2-.3-1 0-2 .2-2.8.5-3.8 1-7.3 2.2-11.1 3.1-1.9.5-3.8.8-5.8 1.1-2 .2-4 .4-6 .2-1-.1-2-.1-3-.3-1.1-.1-2-.3-2.9-.5-2-.5-3.9-1.1-5.7-1.9-1.8-.8-3.5-1.8-5.1-2.7-1.6-1-3.1-1.8-4.7-2.6-3.2-1.6-6.5-2.7-9.9-3.7-1.7-.5-3.3-.8-5.1-.8-1.7 0-3.6.3-5.4.8-3.6 1-7.2 2.6-10.6 4.6-1.7 1-3.4 2.1-5 3.2l-2.4 1.8c-.6.2-1 .5-1.4.8h-.8l.4-.4.4.4-.4.4z"/>
    <path fill="#FFF" d="M138.4 171.92c.3-.1.6-.3 1.1-.6.9-.5 2.3-1.4 4.1-2.4 1.9-1 4.3-2 7.3-2.6 3-.6 6.3-.8 9.9-.7 1.8.2 3.7-.1 5.6-.3 1.9-.2 3.9-.4 6-.6 4.1-.5 8.4-.8 12.9-.7 2.2 0 4.4.2 6.6.8 2.2.5 4.5 1.2 6.7 1.7 2.3.5 4.6.9 6.9 1.2 2.3.4 4.6-.3 6.9-.7 4.6-.9 9.2-2.1 14-2.5 1.2-.1 2.4-.1 3.7 0 .6 0 1.2.1 1.9.2.6.1 1.1.1 1.7.2 2.3.2 4.3.3 6.6.3 4.4.1 8.7.2 12.8.4 1 .1 2.1.2 3.1.3 1.1.1 2.1.3 3.1.4 1.9.4 3.6.7 5.2.8 3.1.3 5.6-.2 8.4-.7 2.8-.6 5.6-.9 7.9-.7 2.3.2 4.1.7 5.2 1.3.6.2.9.5 1.2.7.3.2.4.3.4.3-.1.2-.1.3-.2.5h-1.7c-1.1.1-2.6.3-4.4.8-1.8.5-3.9 1.3-6.6 2.4-2.7 1-6.6 2-10.7 1.5-1.9-.2-4-.6-5.8-1-.9-.2-1.8-.3-2.7-.5-.9-.1-1.9-.3-2.9-.4-4-.5-8.3-1-12.7-1.7-2.2-.3-4.6-.7-6.8-1.2-.6-.1-1.2-.3-1.7-.4-.5-.1-1-.3-1.5-.4-1-.2-2.2-.3-3.3-.4-4.5-.2-9.2.5-13.9 1.1-2.3.3-4.7.5-7.1.9-2.4.4-4.8.8-7.1 1-2.4.3-4.7.8-7.1 1-2.3.2-4.6.1-6.8-.2-4.4-.5-8.6-1.5-12.6-2.5-2-.5-3.9-.9-5.8-1.3-1.9-.3-3.7-.7-5.4-.6-3.5.1-6.7.8-9.4 1.6s-4.9 1.7-6.8 2.5c-1.9.8-3.5 1.3-4.6 1.5-.6.1-1 .2-1.3.2-.6-.1-.7-.2-.7-.3 0 0 .1-.1.4-.2z"/>
    <path stroke="#FFF" stroke-width=".455" d="M138.4 171.92c.3-.1.6-.3 1.1-.6.9-.5 2.3-1.4 4.1-2.4 1.9-1 4.3-2 7.3-2.6 3-.6 6.3-.8 9.9-.7 1.8.2 3.7-.1 5.6-.3 1.9-.2 3.9-.4 6-.6 4.1-.5 8.4-.8 12.9-.7 2.2 0 4.4.2 6.6.8 2.2.5 4.5 1.2 6.7 1.7 2.3.5 4.6.9 6.9 1.2 2.3.4 4.6-.3 6.9-.7 4.6-.9 9.2-2.1 14-2.5 1.2-.1 2.4-.1 3.7 0 .6 0 1.2.1 1.9.2.6.1 1.1.1 1.7.2 2.3.2 4.3.3 6.6.3 4.4.1 8.7.2 12.8.4 1 .1 2.1.2 3.1.3 1.1.1 2.1.3 3.1.4 1.9.4 3.6.7 5.2.8 3.1.3 5.6-.2 8.4-.7 2.8-.6 5.6-.9 7.9-.7 2.3.2 4.1.7 5.2 1.3.6.2.9.5 1.2.7.3.2.4.3.4.3-.1.2-.1.3-.2.5h-1.7c-1.1.1-2.6.3-4.4.8-1.8.5-3.9 1.3-6.6 2.4-2.7 1-6.6 2-10.7 1.5-1.9-.2-4-.6-5.8-1-.9-.2-1.8-.3-2.7-.5-.9-.1-1.9-.3-2.9-.4-4-.5-8.3-1-12.7-1.7-2.2-.3-4.6-.7-6.8-1.2-.6-.1-1.2-.3-1.7-.4-.5-.1-1-.3-1.5-.4-1-.2-2.2-.3-3.3-.4-4.5-.2-9.2.5-13.9 1.1-2.3.3-4.7.5-7.1.9-2.4.4-4.8.8-7.1 1-2.4.3-4.7.8-7.1 1-2.3.2-4.6.1-6.8-.2-4.4-.5-8.6-1.5-12.6-2.5-2-.5-3.9-.9-5.8-1.3-1.9-.3-3.7-.7-5.4-.6-3.5.1-6.7.8-9.4 1.6s-4.9 1.7-6.8 2.5c-1.9.8-3.5 1.3-4.6 1.5-.6.1-1 .2-1.3.2-.6-.1-.7-.2-.7-.3 0 0 .1-.1.4-.2z"/>
    <path fill="#FFF" d="M164.626 182.44c2.1-.3 5.3-.4 9 .1 1.9.3 3.9.7 5.9 1.4 1 .3 2.1.8 3.1 1.2 1 .5 2 .9 3.1 1.4 2 .8 4.2 1.4 6.5 1.2 2.3-.1 4.5-.9 6.7-1.9 2.2-1.1 4.4-2.1 6.5-3.2 1.1-.5 2.3-1 3.4-1.3 1.2-.4 2.4-.6 3.4-.9 2.2-.6 4.3-1.2 6.4-1.6 2.1-.4 4.1-.7 6-.8 1.9-.1 3.6 0 5.2.2 1.5.2 2.8.6 3.9 1 1 .4 1.8.7 2.4 1 .5.3.8.5.8.5-6.088-3.427-.407.3-1 .4-.6.1-1.4.1-2.5.2-1 .1-2.3.2-3.7.3-1.4.1-3 .2-4.8.3-1.8.1-3.7.3-5.7.5-2.1.3-4.2.5-6.5.8-1.2.1-2.3.2-3.4.4s-2.2.5-3.4.8c-2.3.6-4.5 1.6-6.7 2.5-2.3.9-4.6 1.7-7 2-2.4.3-4.9.1-7.3-.6-1.2-.3-2.2-.7-3.2-1-1-.3-2-.6-3-.8-2-.5-3.9-.8-5.6-1.2-3.5-.6-6.5-1-8.6-1.4-2.1-.3-2-1.2.1-1.5zM216.7 206.7c.8-.3 1.9-.8 3.1-1.1 1.2-.4 2.6-.8 4-1.2 1.5-.4 3.1-.8 4.8-1 1.7-.3 3.6-.4 5.5-.4 1.9-.1 3.9-.3 5.9-.6 2-.4 4-.8 6.1-1.2 2-.5 4-1.1 6-1.8s3.8-1.5 5.6-2.5c1.8-.9 3.4-1.9 5-2.9s3.1-1.9 4.5-2.7c1.4-.8 2.8-1.5 4-2.1 1.2-.5 2.3-1 3.2-1.3 1.8-.6 2.8-.9 2.8-.9 0 .1.1.2.1.3 0 0-.9.5-2.6 1.4-.8.4-1.8 1-2.9 1.7-1.1.7-2.4 1.4-3.7 2.3-1.4.9-2.8 1.9-4.5 2.8-1.6.9-3.5 1.8-5.4 2.5-.9.4-1.9.8-2.9 1.1-1 .4-2 .7-3 1.1-1 .4-2 .7-3 1-1 .3-2 .7-3 1-2 .7-4 1.3-6 2-2 .6-3.9 1.3-5.7 2.1-1.9.7-3.6 1.4-5.4 1.8-1.7.4-3.4.6-4.9.8-1.5.1-2.9.2-4.2.2-1.2 0-2.3-.1-3.2-.2-1.8-.2-2.9-.5-2.9-.5v-.5"/>
    <path fill="#FFF" d="M160.1 200c3.5 1.4 7.3 2.5 11.4 3 4.1.5 8.3.5 12.7-.3 4.4-.6 8.9-1.4 13.5-2.5s9.2-2.2 13.9-3.5c2.3-.6 4.7-1.2 7.1-1.7 2.4-.5 4.8-1.1 7.2-1.4 2.5-.4 4.9-.5 7.3-.5 2.4 0 4.7.1 6.9.1 4.4-.1 8.6-1.3 12.5-2.8 2-.8 3.8-1.7 5.6-2.6 1.8-.9 3.6-1.8 5.3-2.6 3.5-1.5 6.6-2.8 9.5-3.9 2.8-1 5.3-1.8 7.4-2.5 4.2-1.3 6.6-1.8 6.6-1.8 0 .1.1.2.1.2s-.5.3-1.6.8c-1 .5-2.6 1.2-4.6 2.2-2 .9-4.5 1.9-7.3 3-2.9 1-6.2 2-9.7 3.1-3.6 1-6.9 3.4-10.8 5.5-3.9 2.1-8.2 3.9-13 4.6-4.7.8-9.3 1.1-13.8 1.8l-14.1 2.4c-4.8.7-9.6 1.3-14.3 1.8-4.7.5-9.3.9-13.7 1.4-4.4.6-8.7 1-12.9.4-4.2-.4-8.2-1.4-11.8-2.6-3.6-1.2-6.9-2.6-9.8-3.9-2.9-1.4-5.4-2.7-7.4-3.8-2-1.1-3.6-2.1-4.6-2.8-1-.7-1.7-1.1-1.7-1.1 1.2-.9 2.3-2 3.4-3.1 0 0 13.7 10.4 20.7 13.1zM173.4 217.477c1.1.3 2.3.6 3.6 1 1.2.4 2.4.8 3.7 1.3 1 .3 2.4.4 3.6.5 1.3.1 2.7.2 4 .2 5.5.2 11.4.3 17.3.2 2.9 0 5.9-.1 8.8-.2 1.4 0 2.7-.4 4-.9 1.3-.5 2.6-1.1 3.9-1.7 2.6-1.2 5.1-2.5 7.5-3.7 2.4-1.2 4.6-2.5 6.8-3.7 4.3-2.3 8-3.9 11.2-4.4 1.5-.2 3 0 3.9.5.5.3.8.5.9.7l.3.3c-1 .8-2 1.6-3 2.3 0 0 0-.1-.3-.3-.2-.2-.8-.5-2-.4-2.3 0-6 1.3-10.4 3-2.2.9-4.5 1.9-6.9 3.1-2.4 1.2-4.9 2.6-7.5 3.9-2.6 1.2-5.3 2.6-8.4 3l-8.7.6c-5.8.3-11.7.5-17.2.2-1.4-.1-2.7-.1-4.1-.2-1.4-.1-2.6-.2-4.2-.7-1.3-.5-2.5-.9-3.7-1.4-1.2-.4-2.3-.8-3.4-1.2-2.2-.7-4.3-1.4-6.1-1.9-1.8-.6-3.4-1-4.8-1.4-2.7-.7-4.2-1.1-4.2-1.1.1.2 13.1 1.8 15.4 2.4zM139.4 149.725c.8-.5 2.1-1.4 3.6-2.5s3.4-2.4 5.6-3.9c1.1-.8 2.3-1.5 3.5-2.2.6-.4 1.3-.8 1.9-1.2.7-.4 1.4-.7 2.1-1.1.7-.4 1.4-.7 2.2-1.1.7-.4 1.5-.7 2.3-1 1.6-.7 3.2-1.4 4.8-1.9 1.6-.5 3.4-1.3 5.2-1.7 1.7-.5 3.5-.9 5.3-1.4l5.4-1.2c.9-.2 1.8-.4 2.7-.5.9-.2 1.7-.5 2.6-.7 1-.2 1.8-.6 2.8-.8 1-.2 2-.5 2.9-.6 1.9-.4 3.8-.6 5.7-.7 3.8-.3 7.6-.3 11.3 0 .9.1 1.9.2 2.8.3.2 0 .5.1.7.1.2.1.5.1.7.2.4.1.9.2 1.3.3 1.8.4 3.6.7 5.3 1.3 1.7.6 3.6 1.4 5.2 2.1.8.4 1.6.7 2.3 1.1.8.4 1.5.8 2.3 1.1 1.5.7 3.1 1.3 4.5 2 1.5.6 3 1 4.5 1.4 2.9.8 5.6 1.4 7.9 1.9 2.4.5 4.5.9 6.2 1.1 1.7.2 3 .2 3.8.2.6-.1.9-.2.9-.2.1 0 .2 0 .2-.1 1.3-.3 2.8.6 3.3 2s-.1 2.7-1.4 3c-.3.1-.6.1-.9 0 0 0-.7-.1-1.9-.4-1-.3-2.5-.8-4.2-1.4-1.7-.6-3.8-1.3-6.2-2.2-2.4-.8-5-1.7-7.9-2.5-1.4-.4-3-.7-4.5-1-1.6-.3-3.3-.7-5-1-.4-.1-.9-.2-1.3-.3-.4-.2-.8-.3-1.2-.5-.8-.3-1.7-.7-2.5-1-1.7-.7-3.2-1.4-4.8-2.2-1.6-.7-3.4-1.3-5.1-2-.4-.2-.9-.3-1.3-.5-.2-.1-.4-.2-.6-.2-.2-.1-.4-.1-.7-.2-.9-.2-1.8-.5-2.6-.7-3.6-.6-7.3-.6-11 .2-1.8.4-3.7.9-5.5 1.5-1.8.6-3.5 1.3-5.3 2-1 .3-2 .7-3 .9-1 .2-1.9.4-2.9.6-1.9.3-3.6.6-5.5.9-3.6.6-7.1 1-10.3 1.9-1.6.3-3.2.9-4.7 1.4-.8.3-1.5.5-2.3.8-.7.3-1.4.7-2.1 1l-2.1.9c-.7.4-1.3.7-1.9 1-1.3.7-2.5 1.3-3.6 2-2.2 1.3-4.1 2.5-5.7 3.5-1.6 1-2.8 1.8-3.7 2.3-.9.5-1.3.8-1.3.8-.2.1-.2 0-.1-.1"/>
    <path fill="#7C6A19" d="M63.8 162.19c-.9-5.1-1.5-10.4-1.7-16-.1-2.8-.1-5.7-.1-8.6v-1.3c0-.4.1-.7.1-1.1.1-.7.2-1.5.3-2.2l.6-4.5c1.6-12.2 4.8-25.7 10.5-40.1 2.7-7.2 6.2-14.6 9.7-22.2.9-1.9 1.8-3.8 2.7-5.8 1-1.9 2-3.9 3.1-5.9 2.1-3.9 3.9-7.8 6.5-11.7 1.2-2 2.4-3.9 3.7-5.9 1.2-2 2.6-3.8 3.9-5.7 2.6-3.9 5.2-7.4 7.9-11.3 2.9-3.9 6.1-7.5 10-10.1 3.8-2.6 8.3-4.2 12.7-3.7 4.4.4 8.5 2.7 12.1 5.6 1.7 1.6 3.5 3.1 5 4.9l2.4 2.7c.8 1 1.4 1.9 2.2 2.8 2.8 3.7 5.8 7.3 8.5 11.4 2.8 3.9 5.6 7.8 8.1 11.9 1.3 2 2.6 4 4 6 1.3 2 2.5 4.1 3.7 6.1 1.2 2 2.5 4 3.7 6.1 1.1 2.1 2.3 4.1 3.4 6.1 4.6 8.1 8.7 16.3 11.9 24.4.7 2.1 1.5 4.1 2.2 6.1.6 2 1.3 4 1.9 6 1.3 3.9 2.6 7.9 3.8 11.7 2.3 7.8 3.9 15.5 4.5 23.1.6 7.7.1 15.3-1.5 23-1.6 7.7-4.3 15.3-7.7 22.7-.9 1.9-1.8 3.7-2.7 5.5-.5.9-.9 1.8-1.4 2.7-.3.5-.5.9-.5.8-.1.2-.3.4-.4.7-.3.4-.5.9-.8 1.3-1 1.7-2.4 3.5-3.6 5.3-1.3 1.7-2.6 3.4-4 4.9-5.5 6.3-11.7 11.3-17.7 15-6 3.8-11.9 6.3-17.5 7.8s-11 2.1-16 2.1c-10.1-.1-18.9-2.9-26-6.3-7.2-3.4-12.6-7.6-16.1-10.7-1.7-1.6-3-2.9-3.8-3.8l-1.3-1.3s-24.5-38.3-26.3-48.5z"/>
    <path fill="#FFF" d="M85.6 199.09c-2.9-3.7-7.2-9-11.6-16.3-4.4-7.2-8.4-16.4-10.2-26.6-.9-5.1-1.5-10.4-1.7-16-.1-2.8-.1-5.7-.1-8.6v-1.3c0-.4.1-.7.1-1.1.1-.7.2-1.5.3-2.2l.6-4.5c1.7-12.2 4.8-25.7 10.5-40.1 2.7-7.2 6.2-14.6 9.7-22.2.9-1.9 1.8-3.8 2.7-5.8 1-1.9 2-3.9 3.1-5.9 2.1-3.9 3.9-7.8 6.5-11.7 1.2-2 2.4-3.9 3.7-5.9 1.2-2 2.6-3.8 3.9-5.7 2.6-3.9 5.2-7.4 7.9-11.3 2.9-3.9 6.1-7.5 10-10.1 3.8-2.6 8.3-4.2 12.7-3.7 4.4.4 8.5 2.7 12.1 5.6 1.7 1.6 3.5 3.1 5 4.9l2.4 2.7c.8 1 1.4 1.9 2.2 2.8 2.8 3.7 5.8 7.3 8.5 11.4 2.8 3.9 5.6 7.8 8.1 11.9 1.3 2 2.6 4 4 6 1.3 2 2.5 4.1 3.7 6.1 1.2 2 2.5 4 3.7 6.1 1.1 2.1 2.3 4.1 3.4 6.1 4.6 8.1 8.7 16.3 11.9 24.4.7 2.1 1.5 4.1 2.2 6.1.6 2 1.3 4 1.9 6 1.3 3.9 2.6 7.9 3.8 11.7 2.3 7.8 3.9 15.5 4.5 23.1.6 7.7.1 15.3-1.5 23-1.6 7.7-4.3 15.3-7.7 22.7-.9 1.9-1.8 3.7-2.7 5.5-.5.9-.9 1.8-1.4 2.7-.3.5-.5.9-.5.8-.1.2-.3.4-.4.7-.3.4-.5.9-.8 1.3-1 1.7-2.4 3.5-3.6 5.3-1.3 1.7-2.6 3.4-4 4.9-5.5 6.3-11.7 11.3-17.7 15-6 3.8-11.9 6.3-17.5 7.8s-11 2.1-16 2.1c-10.1-.1-18.9-2.9-26-6.3-7.2-3.4-12.6-7.6-16.1-10.7-1.7-1.6-3-2.9-3.8-3.8l-1.3-1.3s-1.6-1.9-4.5-5.6zm7 5.8c.7.9 2 2.1 3.6 3.6 3.3 2.9 8.5 6.8 15.5 9.9 7 3.2 15.6 5.5 25.5 5.4 9.8-.1 21-2.8 32.4-10 5.7-3.5 11.4-8.2 16.4-14 1.3-1.4 2.4-3 3.7-4.5 1.1-1.6 2.2-3 3.3-4.8.3-.4.5-.9.8-1.3.1-.2.3-.4.4-.6.2-.3.2-.4.3-.5.4-.9.9-1.8 1.3-2.6.9-1.8 1.8-3.5 2.6-5.3 3.2-7.2 5.7-14.6 7.4-22 1.6-7.5 2.2-15 1.8-22.5-.4-7.6-1.9-15.2-4-23-1.1-3.9-2.3-7.8-3.5-11.8-.6-2-1.2-4-1.8-6.1-.7-2-1.3-4-2-6-6.1-16-15.7-32.4-26.1-48.2-2.6-4-5.4-7.8-8.2-11.5-2.6-3.8-5.8-7.4-8.7-11-.7-.9-1.5-1.9-2.2-2.6-.8-.8-1.5-1.6-2.3-2.4-1.5-1.7-3.2-2.9-4.8-4.3-3.4-2.4-6.9-4.2-10.6-4.5-3.6-.3-7.3.9-10.5 3.2-3.3 2.2-6.2 5.5-8.7 8.8-2.5 3.6-5.3 7.5-7.7 11.1-1.2 1.9-2.6 3.7-3.7 5.6-1.1 1.9-2.3 3.8-3.4 5.6-2.4 3.6-4.2 7.7-6.3 11.5-1 1.9-2 3.8-2.9 5.6l-2.7 5.7c-3.5 7.6-6.9 14.9-9.5 22-5.4 14.2-8.7 27.4-10.7 39.6-.2 1.5-.5 3-.7 4.5-.1.7-.2 1.5-.3 2.2-.1.4-.1.7-.2 1.1v.9c-.1 2.9-.2 5.8-.2 8.6 0 5.6.4 10.9 1.1 15.8 1.4 10 4.9 18.8 9 25.9 4.1 7.1 8.3 12.4 11.1 16 2.6 3.6 4.2 5.5 4.3 5.6 0 0 .4.4 1.2 1.3z"/>
    <path fill="#FFF" d="M104.285 201.51c-.8-1.1-1.322-2.007-2.122-3.107-1.6-2.2-3.2-4.5-4.6-6.8-2.9-4.6-5.4-9.5-7-14.6-.8-2.5-1.3-5.1-1.5-7.7-.2-2.6.1-5.2.6-7.5 1-4.7 2.3-9.5 4.2-14.1 1.8-4.6 4-9.2 4.9-13.7.5-2.3.8-4.7 1.1-6.9.1-1.3.3-2.5.3-3.6.1-1.2.1-2.3.2-3.5.1-4.7-.1-9.5-.4-14.5l-.6-7.5c-.2-2.5-.4-5.1-.6-7.6-.3-1.5-.2-3.2 0-4.8.2-1.6.6-3.2 1-4.7.5-1.5 1.7-7.6 2.1-9.1.9-3 1.9-5.9 2.9-8.9 1-2.9 2-5.9 3.1-8.7 1.1-2.9 5.4-14.3 6.3-17.3.9-2.9 1.6-5.9 2-8.9.2-1.5.4-3 .4-4.5.1-1.5.1-3 .1-4.5.2-.1 1.1 2.8 1.2 4.4.1 1.5.1 7.7.1 9.3-.1 1.6-.2 3.1-.4 4.7-.6 6.3-2 12.6-4.2 18.5-1.1 3-2.3 5.9-3.7 8.7-1.3 2.8-2.7 5.6-4 8.4-.7 1.4-3.3 6.9-3.6 8.4-.2 1.4-.5 2.9-.4 4.3 0 1.4.2 2.7.7 3.8 1.4 5 3 9.8 4.2 14.9.6 2.5 1.1 5.1 1.4 7.8.2 2.7.5 5.4.3 8.1-.1 1.4-.8 6.8-1.1 8-.6 2.7-1.5 5.2-2.6 7.7s-2.4 4.7-3.7 6.9c-1.3 2.1-2.5 4.2-3.5 6.4-2.1 4.3-3.7 8.8-5 13.4-.7 2.3-1.1 4.4-1.1 6.8 0 2.4.4 4.8 1 7.2 1.3 4.9 3.5 9.7 6.2 14.3 1.4 2.3 6.8 10.1 6.8 10.1.4.6 2.306 2.278 2.606 2.878.2.1-1.607-.277-1.607-.277-.1-.6-1.578-1.692-1.978-2.192z"/>
    <path fill="#FFF" d="M111.826 192.8c-.4-.5-.8-1.2-1.3-2-.5-.7-1-1.7-1.5-2.7-.5-1-1.2-2.1-1.7-3.3-.5-1.2-1-2.5-1.6-3.8-.6-1.3-.9-2.7-1.4-4.2-.5-1.4-.9-2.9-1.1-4.4-.3-1.5-1.1-7.3-1.2-8.7-.1-1.4.1-2.7.4-3.9.3-1.2 1.6-5.3 2-6.1.4-.8.8-1.5 1.1-2 .7-1.1 1.1-1.7 1.1-1.7.4.2.4 3.7.3 4.6 0 .9-.2 6.1-.2 6.1 0 .6-.1 1.2-.1 1.8v1.9c0 1.3-.1 6.6 0 8 0 1.4 2 10.6 2.4 11.8.3 1.2 1.9 5.3 2.3 6.1.4.8.8 1.5 1 2.1.6 1.2.9 1.9.9 1.9-1.336-1.012-.603-.404-1.4-1.5zM126.045 194.91c-.8-4-1.1-8.5-1-13.3.2-2.4-.2-4.9-.3-7.5-.2-2.6-.5-5.3-.8-8.1-.6-5.6-1.1-11.4-.9-17.3.1-3 .3-6 1-9s1.7-6 2.4-9.1c.6-3.1 1.2-6.2 1.7-9.3.5-3.2-.4-6.2-1-9.4-1.2-6.3-2.8-12.4-3.4-18.9-.1-1.6-.2-3.3-.1-4.9 0-.8.2-1.7.2-2.5.1-.7.2-1.5.2-2.2.3-3.1.4-5.9.5-8.9.1-5.9.2-11.7.5-17.3l.3-4.2.6-4.2c.5-2.6.9-4.8 1.1-7 .4-4.1-.2-7.6-1-11.3-.8-3.8-1.2-7.5-1-10.6.2-3.1 1-5.5 1.7-7 .3-.8.7-1.3.9-1.6.5-.4.7-.3 1-.3 0 1 0 1.6.1 2.3.1 1.5.4 3.5 1.1 5.9.7 2.5 1.8 5.3 3.2 8.9 1.4 3.6 2.7 8.9 2 14.4-.3 2.6-.8 5.3-1.3 7.8-.2 1.2-.5 2.4-.7 3.6-.2 1.3-.4 2.6-.5 3.9-.7 5.4-1.3 11.1-2.2 17.1-.4 2.9-1 6.2-1.7 9.2-.2.8-.4 1.6-.6 2.3-.2.7-.4 1.4-.5 2.1-.3 1.4-.4 2.9-.5 4.4-.3 6.1.7 12.4 1.5 18.8.4 3.2.7 6.4 1.2 9.6.6 3.2 1.1 6.4 1.4 9.6.4 3.2 1 6.4 1.3 9.5.3 3.1.1 6.2-.2 9.2-.7 6-2 11.6-3.4 17-.7 2.7-1.2 5.3-1.7 7.8-.4 2.6-1 5-.8 7.3.2 4.7 1 9 2.1 12.6 1.1 3.6 2.3 6.6 3.4 9.2 1 2.6 1.8 4.7 2.1 6.3.2.8.668 2.93.668 3.33 0 0-7.768-14.33-8.568-18.23z"/>
    <path fill="#FFF" d="M117.178 84.128s-1.762-6.427-1.862-7.927l-.3-5c-.1-1.8.3-3.7.6-5.7.5-1.9 1-3.9 1.8-5.9.4-1 3-7.7 3.4-8.7.4-1 .6-1.9.9-2.8.5-1.9.9-3.8 1.1-5.7.4-3.7.5-7.3.4-10.3-.1-3-.4-5.5-.6-7.3-.2-1.8-.3-2.8-.3-2.8.3-.1 1.6 6.8 1.9 9.9.2 1.5.3 3.2.4 4.9.1 1.8 0 3.6-.1 5.6-.1 2-.4 4-.8 6-.2 1-1.7 6-1.7 6-.3 1-1.2 4.9-1.4 5.8-.4 1.9-.5 3.9-.8 5.7-.1 1.8-.5 3.6-.6 5.3-.2 1.7-.5 7.5-.6 8.7-.1 1.2-.1 2.3 0 3.2 0 1.8-.29 3.687-.39 3.787-.725-1.078-1.048-2.76-1.048-2.76zM148 176.8c-.4-2.9-.6-7.1.2-12.2.4-2.5 1-5.2 1.9-8 .5-1.4 1-2.8 1.6-4.2.6-1.4 1.2-2.8 1.9-4.2 1.1-2.7 1.9-5.7 1.7-8.8-.2-3.1-1.3-6.1-2.6-9-1.4-2.9-2.9-5.9-4.3-8.8-.7-1.5-1.3-3-1.8-4.6-.5-1.6-.9-3.2-1.3-4.6-.8-2.9-1.6-5.9-2.2-8.7-.6-2.8-.9-5.6-1-8.1-.2-2.6-.1-4.9.3-7 .3-2.1.8-3.8 1.3-5.2.5-1.4 1-2.5 1.4-3.2.4-.7.6-1.1.6-1.1.1-.1.2-.1.3-.1.1 0 .1.1.1.2 0 0 .1.4.2 1.2.1.8.2 1.9.3 3.4.1 1.4.2 3.1.3 5.1.1 1.9.2 4.1.4 6.4.1 2.4.4 4.9.7 7.7.4 2.8.7 5.7 1.1 8.7.2 1.6.3 3.1.6 4.6.3 1.5.6 3 1 4.5.8 3 2.1 6 3.3 9.1 1.2 3 2.3 6.2 2.7 9.5.4 3.3.1 6.7-.8 9.8-.5 1.6-1 3-1.4 4.4-.4 1.4-.8 2.8-1.1 4.1-.7 2.7-1.1 5.2-1.6 7.6-.8 4.7-1.4 8.7-1.9 11.6-.5 2.8-.8 4.5-.8 4.5 0 .1-.1.2-.2.2.2-.2.1-.3.1-.3s-.6-1.6-1-4.5zM122.9 215.7c-.3-.5-.6-1.1-.9-1.7-.2-.6-.5-1.3-.6-2.1-.1-.4-.1-.7-.2-1.1v-2.3c.1-.4.2-.8.2-1.2.2-.8.5-1.4.6-2 .1-.3.2-.6.2-.9 0-.3.1-.5.1-.8.1-.5-.1-1.1-.2-1.6-.2-.6-.4-1.1-.6-1.6-.4-1-.9-1.8-1.1-2.4-.3-.6-.4-1-.4-1s.3.2.8.7c.2.2.5.5.8.9.3.3.7.7 1 1.2.3.5.7 1 1 1.7.2.7.6 1.4.6 2.2v1.2c0 .4-.1.8-.2 1.1-.2.7-.4 1.4-.5 2-.1.3-.1.6-.2.8 0 .3 0 .7-.1 1.1v.8c0 .3 0 .6.1 1 0 .6.2 1.2.3 1.8.1.6.3 1.1.4 1.6.7 2.1 1.5 3.4 1.5 3.4s-1.3-.8-2.6-2.8zM145.448 218.9c.5-1.3 1-2.8 1.5-4.4.2-.8.5-1.7.8-2.5.3-.8.6-1.7.8-2.6.5-1.8 1-3.5 1.3-5.2.2-.8.3-1.6.5-2.4.2-.8.3-1.5.4-2.2.4-2.7.8-4.6.8-4.6s.3 1.8.4 4.6c.1.7.1 1.5 0 2.3-.1.8-.1 1.7-.3 2.5-.1.9-.2 1.8-.4 2.7-.2.9-.5 1.8-.7 2.8-.4 1.9-1.2 3.6-1.8 5.3-.3.8-.8 1.6-1.1 2.3-.4.7-.7 1.4-1.1 2-1.5 2.4-2 1.9-1.1-.6zM176.18 204.933c.1-.9.4-2 .5-3.2.2-1.2.5-2.6.6-4.1.2-1.5.4-3.1.6-4.8.1-.8.2-1.7.3-2.6 0-.9.1-1.8.2-2.7.3-1.8.3-3.7.4-5.6.1-2 .2-4 .2-6 0-1 .1-2 .3-3.1.2-1.1.3-2.1.5-3.2.5-2 .9-4.1 1.6-5.9.6-1.9 1.2-3.7 1.9-5.3.6-1.7 1.2-3.2 1.8-4.7.6-1.4.9-2.8 1.3-3.9.4-1.2.6-2.2.8-3.1.4-1.7 1.088-.133.888 1.567-.1.9-.987 4.233-1.387 5.733s-.8 3.1-1.3 4.8c-.5 1.7-1 3.5-1.4 5.3-.5 1.8-.7 3.7-1.1 5.6-.1.9-.1 1.8-.2 2.8 0 .5-.1.9-.1 1.4 0 .5 0 1 .1 1.5.1 1 .1 1.9.2 2.9s.1 1.9.2 2.8c.2 2 .2 3.9.1 5.9-.1 1-.2 1.9-.3 2.9-.2.9-.4 1.9-.6 2.8-.2.9-.4 1.8-.6 2.6-.3.8-.5 1.7-.8 2.4-.5 1.6-1.1 3-1.6 4.2-.5 1.2-1.1 2.3-1.5 3.2-.9 1.8-1.5 2.7-1.5 2.7-.3 0-.4-1.1-.1-2.9zM180.865 108.212c-.6-1.6-2.765-9.112-3.265-11.212-.5-2-1-4.2-1.4-6.5-.4-2.3-.5-4.8-.6-7.4-.1-2.6-.4-5.3-.9-8s-1-5.4-1.7-8.2c-.7-2.7-1.5-5.4-2.4-8.1-.9-2.6-2-5.2-3.4-7.5-1.3-2.5-2.6-4.6-3.9-6.7-1.3-2.1-2.5-4.2-3.6-6-1.1-1.9-2-3.7-2.8-5.4-.7-1.7-1.4-3.1-1.7-4.3-.8-2.4-1.2-3.8-1.2-3.8.1 0 .3-.1.4-.1 0 0 .7 1.3 1.9 3.5.6 1.1 1.4 2.4 2.2 4 .9 1.5 1.9 3.2 3.2 5 1.2 1.8 2.6 3.8 3.8 6 1.3 2.2 2.4 4.7 3.4 7.2.5 1.2 1 2.6 1.5 3.9.5 1.3 1 2.6 1.4 4 .5 1.3 1 2.7 1.4 4 .4 1.4.9 2.7 1.3 4.1l2.7 8.1c.8 2.7 1.8 5.3 2.8 7.8 1 2.5 1.9 4.9 2.4 7.3.6 2.3.8 4.6 1 6.6.1 2.1.3 3.9.2 5.6 0 1.7-.1 3.2-.2 4.4-.2 2.4-.96 5.206-.96 5.206"/>
    <path fill="#FFF" d="M155.9 209.7c1-1.1 2.5-2.8 4.3-5.1 3.5-4.6 8.2-11.8 11.9-21.2 1.8-4.7 3.3-9.9 4.1-15.4.7-5.5.6-11.2-.4-17.1-.8-5.9-1.9-12-3.3-18.2-1.5-6.2-3-12.4-4.8-18.7-.8-3.2-1.6-6.4-2.3-9.6-.7-3.2-1.5-6.4-1.9-9.7-.5-3.4-.7-6.7-.7-9.9s.2-6.3.1-9.3c-.1-5.9-1.8-11.6-3.8-16.9-1-2.6-2.3-5.2-3.5-7.6-1.2-2.5-2.4-4.9-3.6-7.2-2.1-4.7-3.8-9-5.2-12.8-1.4-3.8-2.5-7.2-3.3-10-1.7-5.6-2.5-8.9-2.5-8.9.1 0 .2-.1.3-.1 0 0 .4.7 1.1 2.1.7 1.4 1.7 3.5 2.9 6.2s2.6 6 4.1 9.9c1.3 3.9 2.7 8.4 4.2 13.1 1.4 4.9 4.5 9.4 7.4 14.6 2.8 5.2 5.2 11.1 6.3 17.6 1.1 6.4 1.5 12.5 2.5 18.6 1.1 6.3 2.2 12.7 3.2 19 1 6.4 1.7 12.9 2.4 19.2.7 6.3 1.1 12.5 1.9 18.4.8 5.9 1.3 11.8.5 17.4-.5 5.6-1.9 11-3.5 15.9s-3.5 9.4-5.3 13.3c-1.8 3.9-3.6 7.2-5.2 9.9-1.5 2.7-2.8 4.8-3.7 6.2-.9 1.4-1.5 2.2-1.5 2.2-1.3-1.4-2.7-2.8-4.2-4.3 0 0 .5-.5 1.5-1.6zM191.616 180.4c.2-1.8.5-4 .9-6.5s1-5.4 1.8-8.5c.4-1.5.8-3.2 1.4-4.8.6-1.6 1.1-3.3 1.7-5 .4-1.3.6-3.2.7-4.9.1-1.8.2-3.6.3-5.5.2-7.4.4-15.4.3-23.3l-.3-11.9c0-1.9-.6-3.6-1.2-5.4-.7-1.8-1.4-3.6-2.2-5.3-1.6-3.5-3.3-6.9-5-10.1-1.7-3.2-3.4-6.3-5-9.1-3.1-5.7-5.3-10.9-5.9-15.1-.3-2.1 0-4 .7-5.3.4-.6.7-1 1-1.3.3-.2.4-.4.4-.4 1 1.4 2.1 2.7 3.2 4.1 0 0-.2.1-.5.4-.3.3-.6 1.1-.6 2.7.1 3.1 1.7 8.2 4.1 14 1.2 2.9 2.5 6.1 4.2 9.3 1.7 3.2 3.5 6.6 5.2 10.1 1.6 3.5 3.6 7.1 4 11.3.3 3.9.6 7.8.8 11.8.4 7.9.7 15.7.3 23.2-.1 1.9-.2 3.7-.3 5.5-.2 1.9-.2 3.5-.9 5.7-.6 1.7-1.3 3.4-1.9 5-.5 1.6-1.1 3.1-1.6 4.6-.9 3-1.8 5.7-2.5 8.2-.8 2.5-1.3 4.6-1.8 6.4-1 3.6-1.5 5.7-1.5 5.7h-.2s0-2 .4-5.6zM103.814 210.938c-.7-1.1-1.9-2.8-3.3-4.8-1.4-2.1-3.3-4.6-5.2-7.6-1-1.5-2-3.1-3-4.8-.5-.9-1-1.7-1.6-2.6-.5-.9-1-1.9-1.5-2.8-.5-1-1-1.9-1.5-2.9s-.9-2-1.4-3.1c-.9-2.1-2-4.3-2.6-6.5-.7-2.2-1.7-4.7-2.3-7-.6-2.3-1.2-4.7-1.9-7.1-.6-2.4-1.1-4.9-1.6-7.4-.2-1.2-.5-2.4-.7-3.6-.3-1.2-.7-2.3-1-3.5-.3-1.3-.8-2.5-1.1-3.8-.3-1.3-.6-2.6-.8-3.9-.5-2.6-.8-5.2-1-7.7-.4-5.1-.4-10.2-.1-15.3.1-1.3.3-2.5.4-3.8 0-.3.1-.6.1-1 .1-.3.1-.7.2-1 .1-.6.3-1.2.4-1.8.6-2.4.9-4.8 1.8-7.2.9-2.4 1.9-4.8 2.8-7 .5-1.1.9-2.1 1.5-3.2.6-1 1-2.1 1.5-3.1.9-2.1 1.8-4.1 2.7-6.1.8-2.1 1.4-4.1 2-6 1.1-3.9 1.9-7.5 2.6-10.7.7-3.2 1.2-6 1.4-8.3.3-2.3.3-4 .3-5.1l-.3-1.2c0-.1 0-.2-.1-.3-.4-1.7.8-3.7 2.7-4.5 1.8-.7 3.6.2 4 2 .1.4.1.8 0 1.3 0 0-.2.9-.5 2.6-.4 1.4-1.1 3.4-1.9 5.7-.8 2.3-1.8 5.1-2.9 8.3-1.1 3.2-2.3 6.8-3.3 10.6-.5 1.9-.9 4-1.3 6.1-.5 2.2-.9 4.4-1.4 6.7-.1.6-.3 1.2-.4 1.7-.2.6-.4 1.1-.6 1.7-.4 1.1-.9 2.2-1.3 3.4-1 2.3-1.9 4.3-2.9 6.5s-1.8 4.6-2.7 6.9c-.2.6-.5 1.2-.7 1.8-.1.3-.2.5-.3.8-.1.3-.2.6-.2.9l-.9 3.6c-.8 4.8-.8 9.9.2 14.9.6 2.5 1.2 5 2 7.4.8 2.4 1.8 4.7 2.7 7.2.5 1.3.9 2.7 1.3 4 .3 1.3.5 2.6.8 3.9.5 2.5.8 4.9 1.2 7.4.8 4.9 1.4 9.6 2.5 13.9.4 2.2 1.2 4.3 1.9 6.4.4 1 .7 2.1 1.1 3.1.4 1 .9 2 1.3 2.9.4 1 .9 1.9 1.3 2.8.5.9.9 1.8 1.4 2.6.9 1.7 1.8 3.3 2.7 4.8 1.7 3 3.4 5.6 4.8 7.7 1.4 2.1 2.5 3.8 3.2 4.9.7 1.2 1.1 1.8 1.1 1.8-.3.2-.4.1-.5.1 0 0-.4-.6-1.1-1.7z"/>
  </g>
</svg>
