<svg xmlns="http://www.w3.org/2000/svg" width="841.9" height="595.3" xmlns:xlink="http://www.w3.org/1999/xlink">
  <defs>
    <path id="a" d="M0 0h841.9v595.3H0z"/>
  </defs>
  <clipPath id="b">
    <use xlink:href="#a" overflow="visible"/>
  </clipPath>
  <g clip-path="url(#b)">
    <defs>
      <path id="c" d="M0 0h841.9v595.3H0z"/>
    </defs>
    <clipPath id="d">
      <use xlink:href="#c" overflow="visible"/>
    </clipPath>
    <g opacity=".8" clip-path="url(#d)">
      <defs>
        <path id="e" d="M197.3 75.9h445.1V495H197.3z"/>
      </defs>
      <clipPath id="f">
        <use xlink:href="#e" overflow="visible"/>
      </clipPath>
      <path fill="none" stroke="#FFF" stroke-width="7.276" stroke-miterlimit="10" d="M617.9 259.1c12.9-14.4 20.8-33.4 20.8-54.2 0-10.5-2-20.6-5.7-29.8-1.1-6.2-4.1-11.7-8.4-15.9-14.6-21.4-39.1-35.4-67-35.4-5 0-9.9.5-14.7 1.4-35.3-28.6-80.3-45.7-129.3-45.7-11.6 0-23 1-34.1 2.8-7.5-1.2-15.2-1.8-23-1.8-82.2 0-148.8 66.6-148.8 148.8 0 8.7.8 17.3 2.2 25.6-1.5 9.9-2.2 20.1-2.2 30.4 0 20.6 3 40.4 8.6 59.1-9.7 13.4-15.4 29.8-15.4 47.6 0 44.8 36.3 81.1 81.1 81.1 11.7 0 22.9-2.5 33-7 29.3 16 62.9 25.2 98.7 25.2 20.8 0 40.9-3.1 59.8-8.8 86.1-.6 155.6-70.6 155.6-156.8 0-19.5-3.6-38.1-10.1-55.3-.2-3.8-.6-7.6-1.1-11.3z" clip-path="url(#f)"/>
    </g>
    <g opacity=".7" clip-path="url(#d)">
      <defs>
        <path id="g" d="M207.8 79.5h411.8v411.8H207.8z"/>
      </defs>
      <clipPath id="h">
        <use xlink:href="#g" overflow="visible"/>
      </clipPath>
      <path fill="#7C6A19" d="M619.6 285.4c0-113.7-92.2-205.9-205.9-205.9s-205.9 92.2-205.9 205.9S300 491.3 413.7 491.3s205.9-92.2 205.9-205.9" clip-path="url(#h)"/>
    </g>
    <g opacity=".8" clip-path="url(#d)">
      <defs>
        <path id="i" d="M201 311.1h162.1v162.1H201z"/>
      </defs>
      <clipPath id="j">
        <use xlink:href="#i" overflow="visible"/>
      </clipPath>
      <path fill="#7C6A19" d="M363.1 392.1c0-44.8-36.3-81.1-81.1-81.1s-81.1 36.3-81.1 81.1 36.3 81.1 81.1 81.1 81.1-36.3 81.1-81.1" clip-path="url(#j)"/>
    </g>
    <g opacity=".8" clip-path="url(#d)">
      <defs>
        <path id="k" d="M476.6 123.8h162.1v162.1H476.6z"/>
      </defs>
      <clipPath id="l">
        <use xlink:href="#k" overflow="visible"/>
      </clipPath>
      <path fill="#7C6A19" d="M638.8 204.9c0-44.8-36.3-81.1-81.1-81.1s-81.1 36.3-81.1 81.1 36.3 81.1 81.1 81.1c44.8-.1 81.1-36.4 81.1-81.1" clip-path="url(#l)"/>
    </g>
    <g opacity=".5" clip-path="url(#d)">
      <defs>
        <path id="m" d="M574.2 151.6h57.5v57.5h-57.5z"/>
      </defs>
      <clipPath id="n">
        <use xlink:href="#m" overflow="visible"/>
      </clipPath>
      <path fill="#7C6A19" d="M631.7 180.4c0-15.9-12.9-28.8-28.8-28.8s-28.8 12.9-28.8 28.8 12.9 28.8 28.8 28.8 28.8-12.9 28.8-28.8" clip-path="url(#n)"/>
    </g>
    <g opacity=".6" clip-path="url(#d)">
      <defs>
        <path id="o" d="M207.8 80.6h297.6v297.6H207.8z"/>
      </defs>
      <clipPath id="p">
        <use xlink:href="#o" overflow="visible"/>
      </clipPath>
      <path fill="#7C6A19" d="M505.4 229.3c0-82.2-66.6-148.8-148.8-148.8-82.2 0-148.8 66.6-148.8 148.8 0 82.2 66.6 148.8 148.8 148.8 82.1 0 148.8-66.6 148.8-148.8" clip-path="url(#p)"/>
    </g>
    <g opacity=".6" clip-path="url(#d)">
      <defs>
        <path id="q" d="M315.5 169h313.6v313.6H315.5z"/>
      </defs>
      <clipPath id="r">
        <use xlink:href="#q" overflow="visible"/>
      </clipPath>
      <path fill="#7C6A19" d="M629.1 325.7c0-86.6-70.2-156.8-156.8-156.8-86.6 0-156.8 70.2-156.8 156.8 0 86.6 70.2 156.8 156.8 156.8 86.6 0 156.8-70.2 156.8-156.8" clip-path="url(#r)"/>
    </g>
    <path fill="#FFF" d="M308.8 425.2c0 2.5-1 3.8-3 3.8s-2.9-1.3-2.9-3.8v-11.7c0-3.9-1.4-5.9-4.3-5.9-1.6 0-2.8.6-3.7 1.7-.8 1-1.1 2.4-1.1 4.1v11.7c0 2.6-1 3.8-3 3.8s-2.9-1.3-2.9-3.8v-11.6c0-3.9-1.5-5.9-4.5-5.9-3.1 0-4.7 1.9-4.7 5.6v11.9c0 2.6-1 3.8-2.9 3.8-2 0-3-1.3-3-3.8v-18.7c0-2.5 1-3.8 2.9-3.8 1.5 0 2.5.8 3 2.5 1.6-1.7 3.8-2.6 6.4-2.6 3.1 0 5.5 1.3 7.2 3.9 2-2.6 4.7-3.9 7.9-3.9 2.8 0 4.9.9 6.5 2.8 1.5 1.8 2.2 4 2.2 6.8v13.1zm27.4-.2c0 2.6-1 3.9-2.9 3.9-1.2 0-2-.5-2.4-1.5-.1-.4-.3-1-.5-1.7-1.8 2.1-4.1 3.2-7 3.2-3.4 0-6.2-1.4-8.3-4.1-1.9-2.5-2.9-5.5-2.9-9 0-2.7.6-5.2 1.8-7.3 1.3-2.3 3.1-4.1 5.4-5.1 1.4-.6 2.8-.9 4.2-.9 2.7 0 4.9 1 6.7 3.1.1-.3.2-.7.4-1.3.5-1.1 1.3-1.7 2.4-1.7 1.9 0 2.9 1.3 2.9 3.8V425zm-11.8-17.1c-2.1 0-3.6.8-4.7 2.4-.9 1.4-1.4 3.2-1.4 5.3 0 2.1.4 3.8 1.3 5.3 1.1 1.7 2.6 2.5 4.6 2.5 2.1 0 3.6-.8 4.7-2.5.9-1.4 1.4-3.1 1.4-5.3 0-2.1-.4-3.8-1.3-5.3-1.1-1.6-2.7-2.4-4.6-2.4m31.3-2.5c0 1-.6 1.8-1.7 2.4-1.2.5-2.3.9-3.5 1.4-1.4.6-2.3 1.4-2.8 2.4-.4.8-.6 2.1-.6 3.7v9.8c0 2.5-1 3.8-3 3.8s-3-1.3-3-3.8v-18.6c0-2.5 1-3.8 3-3.8 1.2 0 2 .5 2.4 1.6.1.5.3 1.1.6 1.8.6-1 1.5-1.8 2.5-2.5s2.1-1.1 3.1-1.1c.9 0 1.6.3 2.1.8.6.5.9 1.2.9 2.1m12.8-3c1.7 0 3.3.3 4.8.8 2 .8 3 1.8 3 3.3 0 1.7-.8 2.5-2.4 2.5-.7 0-1.5-.2-2.4-.6-.9-.4-1.9-.6-3-.6-2 0-3.6.8-4.8 2.5-1 1.5-1.6 3.3-1.6 5.4 0 2.3.5 4.1 1.5 5.5 1.1 1.6 2.8 2.4 5 2.4.8 0 1.8-.2 3.1-.7 1.3-.5 2-.7 2.3-.7.7 0 1.3.2 1.8.7.4.5.7 1.1.7 1.8 0 1.7-1.4 2.9-4.3 3.8-1.2.3-2.4.5-3.8.5-3.8 0-6.8-1.3-9-3.9-2.1-2.5-3.2-5.6-3.2-9.4 0-3.8 1.1-6.9 3.3-9.4 2.2-2.6 5.2-3.9 9-3.9m34.3 13.4c0 3.7-1.1 6.9-3.2 9.4-2.2 2.6-5.2 4-8.9 4-3.6 0-6.6-1.3-8.9-4-2.2-2.5-3.3-5.7-3.3-9.3 0-3.7 1.1-6.9 3.2-9.4 2.3-2.7 5.3-4.1 8.9-4.1 3.7 0 6.7 1.3 8.9 4 2.2 2.4 3.3 5.6 3.3 9.4m-12.1-8.1c-2.1 0-3.6.9-4.8 2.6-.9 1.5-1.4 3.3-1.4 5.4 0 2.1.5 3.9 1.4 5.4 1.1 1.7 2.7 2.6 4.7 2.6 2.1 0 3.6-.9 4.7-2.6.9-1.4 1.4-3.2 1.4-5.4 0-2.1-.5-3.9-1.4-5.4-1-1.7-2.6-2.6-4.6-2.6m37.7 17.4c0 2.5-1 3.8-3 3.8s-2.9-1.3-2.9-3.8v-11.5c0-3.9-1.7-5.9-5-5.9s-5 2-5 5.9V425c0 2.6-1 3.9-2.9 3.9-2 0-3-1.3-3-3.9v-18.4c0-2.6 1-3.9 3-3.9 1.1 0 1.9.4 2.4 1.3.2.4.3.9.5 1.4v.1c1.6-1.9 3.9-2.9 6.8-2.9 3 0 5.3.9 6.8 2.7 1.6 1.8 2.4 4.2 2.4 7.2v12.6zm27.4-.1c0 2.6-1 3.9-2.9 3.9-1.2 0-2-.5-2.4-1.5-.1-.4-.3-1-.5-1.7-1.8 2.1-4.1 3.2-7 3.2-3.4 0-6.2-1.4-8.3-4.1-1.9-2.5-2.9-5.5-2.9-9 0-2.7.6-5.2 1.8-7.3 1.3-2.3 3.1-4.1 5.4-5.1 1.4-.6 2.8-.9 4.2-.9 2.7 0 4.9 1 6.7 3.1.1-.3.2-.7.4-1.3.5-1.1 1.3-1.7 2.4-1.7 1.9 0 2.9 1.3 2.9 3.8V425zM444 407.9c-2.1 0-3.6.8-4.7 2.4-.9 1.4-1.4 3.2-1.4 5.3 0 2.1.4 3.8 1.3 5.3 1.1 1.7 2.6 2.5 4.6 2.5 2.1 0 3.6-.8 4.7-2.5.9-1.4 1.4-3.1 1.4-5.3 0-2.1-.4-3.8-1.3-5.3-1.1-1.6-2.6-2.4-4.6-2.4M349.5 394c0 3.1-1.2 4.7-3.5 4.7-1.4 0-2.4-.6-2.9-1.9-.1-.5-.3-1.2-.6-2h-.1c-2.1 2.6-5 3.9-8.5 3.9-4.1 0-7.5-1.7-10.1-5-2.3-3.1-3.5-6.8-3.5-11 0-3.3.7-6.3 2.2-8.9 1.5-2.9 3.7-4.9 6.6-6.2 1.7-.8 3.4-1.1 5.1-1.1 3.3 0 6 1.3 8.2 3.8.1-.3.3-.9.5-1.6.6-1.3 1.6-2 2.9-2 2.3 0 3.5 1.5 3.5 4.7V394zm-14.4-20.9c-2.5 0-4.4 1-5.7 3-1.1 1.7-1.7 3.9-1.7 6.5s.5 4.7 1.6 6.4c1.3 2.1 3.2 3.1 5.6 3.1 2.5 0 4.4-1 5.7-3 1.1-1.7 1.7-3.8 1.7-6.5 0-2.6-.5-4.7-1.6-6.4-1.4-2.1-3.2-3.1-5.6-3.1m28 20.8c0 3.2-1.2 4.8-3.7 4.8-2.4 0-3.7-1.6-3.7-4.8v-36c0-3.2 1.2-4.8 3.7-4.8 2.4 0 3.7 1.6 3.7 4.7v36.1zm50.2.2c0 3.1-1.2 4.7-3.6 4.7-2.4 0-3.6-1.6-3.6-4.7v-14.2c0-4.8-1.7-7.1-5.2-7.1-2 0-3.5.7-4.5 2.1-.9 1.3-1.4 2.9-1.4 5v14.3c0 3.1-1.2 4.7-3.6 4.7-2.4 0-3.6-1.6-3.6-4.7V380c0-4.8-1.8-7.2-5.5-7.2-3.8 0-5.8 2.3-5.8 6.9v14.5c0 3.1-1.2 4.7-3.6 4.7-2.4 0-3.6-1.6-3.6-4.7v-22.8c0-3.1 1.2-4.6 3.6-4.6 1.8 0 3 1 3.6 3 2-2.1 4.6-3.2 7.8-3.2 3.8 0 6.7 1.6 8.8 4.8 2.5-3.2 5.7-4.8 9.6-4.8 3.4 0 6 1.2 7.9 3.5 1.8 2.1 2.7 4.9 2.7 8.3v15.7zm33.4-13.2c0 1.3-.4 2.3-1.2 3-.8.7-1.9 1.1-3.2 1.1h-17.5c.1 2.3.9 4.1 2.4 5.5 1.5 1.4 3.4 2.1 5.7 2.1 1.9 0 4-.6 6.4-1.8 2.4-1.2 3.7-1.8 3.9-1.8 1.9 0 2.9 1 2.9 2.9 0 .6-.3 1.3-.9 2.1-1.2 1.6-3.1 2.9-5.6 3.8-2.2.8-4.5 1.2-6.8 1.2-4.6 0-8.3-1.6-11.2-4.8-2.7-3.1-4.1-6.9-4.1-11.6 0-4.5 1.4-8.3 4.2-11.5 2.8-3.2 6.4-4.7 10.8-4.7 3.9 0 7.3 1.4 10 4.3 2.8 2.8 4.2 6.3 4.2 10.2m-7.2-1c-.1-2.1-.7-3.9-2-5.4-1.2-1.5-2.9-2.2-5-2.2s-3.9.7-5.3 2.2c-1.4 1.5-2.2 3.3-2.4 5.4h14.7zm38.1 14.1c0 3.1-1.2 4.7-3.7 4.7-2.4 0-3.6-1.6-3.6-4.7v-14c0-4.8-2-7.2-6.1-7.2-4 0-6 2.4-6 7.2v13.9c0 3.2-1.2 4.8-3.6 4.8-2.5 0-3.7-1.6-3.7-4.8v-22.5c0-3.1 1.2-4.7 3.6-4.7 1.3 0 2.3.5 2.9 1.6.2.5.4 1.1.6 1.7l.1.1c2-2.3 4.7-3.5 8.3-3.5 3.6 0 6.4 1.1 8.3 3.2 1.9 2.2 2.9 5.1 2.9 8.8V394zm4.3-11.2c0-4.3 1.2-8.1 3.6-11.3 2.6-3.5 6-5.2 10.2-5.2 3.1 0 5.8 1.2 7.9 3.5h.2v-12c0-3.1 1.2-4.7 3.5-4.7 2.4 0 3.6 1.6 3.6 4.8v36.2c0 3.1-1.2 4.7-3.6 4.7-1.5 0-2.5-.7-3-2.1-.1-.3-.2-.8-.5-1.5v-.1c-1.7 2.4-4.3 3.6-7.7 3.6-4.2 0-7.6-1.6-10.3-4.9-2.6-3-3.9-6.7-3.9-11m22.2-.5c0-2.6-.6-4.7-1.8-6.4-1.4-2-3.3-3-5.8-3-2.3 0-4.2 1.1-5.5 3.2-1.1 1.8-1.7 4-1.7 6.4 0 2.5.5 4.7 1.6 6.4 1.3 2.1 3.1 3.2 5.5 3.2 2.7 0 4.7-1 6-3.1 1.1-1.6 1.7-3.9 1.7-6.7m30.7-12.3c0 1.2-.7 2.2-2.1 2.9-1.4.6-2.8 1.1-4.3 1.7-1.7.8-2.9 1.7-3.4 2.9-.5 1-.7 2.5-.7 4.5v11.9c0 3.1-1.2 4.6-3.7 4.6-2.4 0-3.6-1.5-3.6-4.7v-22.6c0-3.1 1.2-4.7 3.6-4.7 1.4 0 2.4.6 2.9 1.9.1.6.3 1.3.7 2.2h.1c.8-1.2 1.8-2.2 3-3.1 1.2-.9 2.5-1.3 3.8-1.3 1.1 0 1.9.3 2.6 1 .7.9 1.1 1.8 1.1 2.8m29.7 24c0 3.1-1.2 4.7-3.5 4.7-1.4 0-2.4-.6-2.9-1.9-.1-.5-.3-1.2-.6-2h-.1c-2.1 2.6-5 3.9-8.5 3.9-4.1 0-7.5-1.7-10.1-5-2.3-3.1-3.5-6.8-3.5-11 0-3.3.7-6.3 2.2-8.9 1.5-2.9 3.7-4.9 6.6-6.2 1.7-.8 3.4-1.1 5.1-1.1 3.3 0 6 1.3 8.2 3.8.1-.3.3-.9.5-1.6.6-1.3 1.6-2 2.9-2 2.3 0 3.5 1.5 3.5 4.7V394zm-14.4-20.9c-2.5 0-4.4 1-5.7 3-1.1 1.7-1.7 3.9-1.7 6.5s.5 4.7 1.6 6.4c1.3 2.1 3.2 3.1 5.6 3.1 2.5 0 4.4-1 5.7-3 1.1-1.7 1.7-3.8 1.7-6.5 0-2.6-.5-4.7-1.6-6.4-1.3-2.1-3.2-3.1-5.6-3.1m-75.6 46.4c0 1.4-.5 2.2-1.6 2.2-.6 0-1.1-.3-1.3-.9-.1-.2-.1-.5-.3-.9-1 1.2-2.3 1.8-3.9 1.8-1.9 0-3.4-.8-4.6-2.3-1.1-1.4-1.6-3.1-1.6-5 0-1.5.3-2.9 1-4.1.7-1.3 1.7-2.3 3-2.9.8-.4 1.6-.5 2.3-.5 1.5 0 2.8.6 3.8 1.7.1-.2.1-.4.2-.7.3-.6.7-.9 1.3-.9 1.1 0 1.6.7 1.6 2.1v10.4zm-6.6-9.6c-1.1 0-2 .5-2.6 1.4-.5.8-.8 1.8-.8 3s.2 2.1.7 2.9c.6.9 1.5 1.4 2.6 1.4s2-.5 2.6-1.4c.5-.8.8-1.8.8-3s-.2-2.2-.7-2.9c-.6-.9-1.5-1.4-2.6-1.4m13.1 9.5c0 1.5-.6 2.2-1.7 2.2s-1.7-.7-1.7-2.2v-16.5c0-1.5.6-2.2 1.7-2.2s1.7.7 1.7 2.2v16.5zm21.6-11c0 .3-.1.6-.2 1l-3.9 10.7c-.4 1-1 1.6-1.8 1.6-.9 0-1.5-.5-1.9-1.6l-4-10.8c-.1-.3-.2-.6-.2-.9 0-.5.1-.9.4-1.1.3-.3.7-.4 1.1-.4.8 0 1.3.5 1.7 1.5l2.8 8.8 2.8-9c.3-.9.8-1.3 1.6-1.3 1.1-.1 1.6.5 1.6 1.5m14.1 11.1c0 1.4-.5 2.2-1.6 2.2-.7 0-1.1-.3-1.3-.9-.1-.2-.1-.5-.3-.9-1 1.2-2.3 1.8-3.9 1.8-1.9 0-3.4-.8-4.6-2.3-1.1-1.4-1.6-3.1-1.6-5 0-1.5.3-2.9 1-4.1.7-1.3 1.7-2.3 3-2.9.8-.4 1.6-.5 2.3-.5 1.5 0 2.8.6 3.8 1.7.1-.2.1-.4.2-.7.3-.6.7-.9 1.3-.9 1.1 0 1.6.7 1.6 2.1v10.4zm-6.6-9.6c-1.1 0-2 .5-2.6 1.4-.5.8-.8 1.8-.8 3s.2 2.1.7 2.9c.6.9 1.5 1.4 2.6 1.4s2-.5 2.6-1.4c.5-.8.8-1.8.8-3s-.2-2.2-.7-2.9c-.7-.9-1.5-1.4-2.6-1.4m15.8-3.1c1 0 1.9.2 2.7.5 1.1.4 1.7 1 1.7 1.8 0 .9-.4 1.4-1.3 1.4-.4 0-.8-.1-1.3-.3-.5-.2-1.1-.3-1.7-.3-1.1 0-2 .5-2.7 1.4-.6.8-.9 1.8-.9 3 0 1.3.3 2.3.8 3.1.6.9 1.6 1.4 2.8 1.4.4 0 1-.1 1.7-.4.7-.3 1.1-.4 1.3-.4.4 0 .7.1 1 .4.2.3.4.6.4 1 0 .9-.8 1.6-2.4 2.1-.7.2-1.4.3-2.1.3-2.1 0-3.8-.7-5-2.2-1.2-1.4-1.8-3.1-1.8-5.3 0-2.1.6-3.9 1.8-5.3 1.2-1.5 2.9-2.2 5-2.2m10 12.7c0 1.4-.6 2.2-1.7 2.2s-1.7-.7-1.7-2.2v-10.4c0-1.4.6-2.2 1.7-2.2s1.7.7 1.7 2.1v10.5zm15.9-5.2c0 2.1-.6 3.8-1.8 5.3-1.2 1.5-2.9 2.2-5 2.2-2 0-3.7-.7-5-2.2-1.2-1.4-1.8-3.2-1.8-5.2 0-2.1.6-3.8 1.8-5.3 1.3-1.5 2.9-2.3 5-2.3s3.7.7 5 2.2c1.2 1.4 1.8 3.2 1.8 5.3m-6.7-4.5c-1.2 0-2 .5-2.7 1.4-.5.8-.8 1.8-.8 3s.3 2.2.8 3c.6 1 1.5 1.4 2.6 1.4 1.2 0 2-.5 2.6-1.4.5-.8.8-1.8.8-3s-.3-2.2-.8-3c-.5-.9-1.4-1.4-2.5-1.4" clip-path="url(#d)"/>
    <path fill="none" stroke="#FFF" stroke-width="2.954" stroke-miterlimit="10" d="M534.6 403.4l3.3-3.9" clip-path="url(#d)" stroke-linecap="round"/>
    <path fill="#FFF" d="M342.5 332.9s-1.9-.7-5.4-2c-3.5-1.4-8.8-3.4-14.9-6.6-6.1-3.2-12.7-8-18.1-14.4-2.8-3.2-5.4-6.7-7.8-10.5-1.3-1.9-2.4-3.9-3.6-6-.1-.1-.2-.3-.2-.4 0 0 0-.1-.1-.1 0-.1-.1-.1-.1-.2s-.1-.1-.1-.2c-.1-.3-.2-.5-.4-.8-.2-.5-.5-1.1-.7-1.6-.5-1.1-1-2.2-1.5-3.4-3.9-9.2-7.3-19.9-9.2-32.3-1.1-6.2-1.7-12.8-2.4-19.6-.1-1.7-.3-3.4-.5-5.1l-.3-5.4c-.2-3.5-.5-7.1-.3-10.9 0-1.9.1-3.8.1-5.6 0-1.9.2-3.7.4-5.6.2-3.8.6-7.4.9-11.1.4-3.9 1.2-7.7 2.8-11.2 1.6-3.4 4-6.3 7.3-7.8s7-1.6 10.8-1.1c1.8.4 3.7.7 5.5 1.3.9.3 1.8.6 2.8.9 1 .4 1.8.7 2.7 1.1 3.5 1.4 7.1 2.7 10.7 4.4 3.6 1.6 7.2 3.2 10.6 5 1.8.9 3.5 1.7 5.3 2.6l5.1 2.7 5.1 2.7c1.6 1 3.3 1.9 4.9 2.9 6.6 3.8 12.8 7.8 18.4 12.1 1.4 1.1 2.7 2.3 4.1 3.4 1.3 1.1 2.6 2.3 3.8 3.4 2.5 2.2 5.1 4.4 7.5 6.7 4.8 4.5 9.1 9.2 12.7 14.3 3.6 5.1 6.4 10.7 8.4 16.7s3.3 12.5 4 19.1c.2 1.7.2 3.3.4 5 .1.8.1 1.7.2 2.5v2.6c0 1.6-.2 3.4-.3 5.2-.3 1.7-.4 3.4-.8 5.1-1.3 6.7-3.5 12.7-6.1 17.8-2.6 5.1-5.8 9.3-9.1 12.7-3.3 3.4-6.8 6-10.4 8.1-7.1 4.1-14.4 5.8-20.8 6.3-6.4.6-11.9-.1-15.6-.8-1.9-.4-3.3-.8-4.2-1.1-1.1-.6-1.6-.8-1.6-.8m.5-1.2s.5.1 1.4.4c.9.3 2.2.6 4 1 3.5.7 8.8 1.2 15 .5 6.2-.6 13.2-2.6 20.1-6.7 6.8-4.2 13.5-10.7 18.5-20.4 2.5-4.8 4.6-10.5 5.7-16.6.3-1.5.5-3.1.7-4.6.1-1.5.3-3 .3-4.7v-1.8c0-.2 0 .1 0 0v-.4c-.1-.8-.1-1.6-.2-2.4-.1-1.6-.2-3.2-.4-4.8-.8-6.3-2-12.5-3.9-18.5-1.9-5.9-4.7-11.4-8.1-16.5-3.4-5.1-7.6-9.8-12.3-14.4-2.4-2.3-4.8-4.5-7.4-6.8-1.3-1.2-2.5-2.3-3.8-3.5-1.3-1.1-2.6-2.2-3.9-3.4-10.9-8.7-24.3-16.2-38.1-22.9-3.4-1.7-7-3.2-10.5-4.7-3.4-1.6-7.1-2.7-10.6-4.1-.9-.3-1.8-.7-2.6-.9-.9-.2-1.7-.5-2.6-.7-1.7-.6-3.4-.7-5.1-1-3.3-.3-6.6-.1-9.2 1.2-2.7 1.3-4.7 3.6-6.1 6.6-1.4 2.9-2.1 6.4-2.4 9.8-.3 3.6-.6 7.4-.8 11-.1 1.8-.3 3.6-.3 5.4 0 1.8 0 3.6-.1 5.3-.2 3.5.2 7.1.4 10.6.1 1.7.2 3.4.3 5.2.2 1.7.3 3.4.5 5.1.7 6.7 1.3 13.2 2.4 19.3 2.1 12.2 5.2 22.8 8.9 32.1.5 1.2.9 2.3 1.4 3.5.2.6.5 1.1.7 1.7.1.3.2.6.3.8 0 .1.1.1.1.2.1.1 0-.1 0 0 0 0 0 .1.1.1.1.1.1.3.2.4 1.1 2.1 2.2 4.1 3.4 6.1 2.3 3.9 4.7 7.4 7.3 10.6 5.1 6.4 11.2 11.1 17 14.4 5.8 3.3 10.9 5.2 14.4 6.6 3.3 1.2 5.2 1.8 5.3 1.9" clip-path="url(#d)"/>
    <path fill="none" stroke="#FFF" stroke-width=".455" stroke-miterlimit="10" d="M342.5 332.9s-1.9-.7-5.4-2c-3.5-1.4-8.8-3.4-14.9-6.6-6.1-3.2-12.7-8-18.1-14.4-2.8-3.2-5.4-6.7-7.8-10.5-1.3-1.9-2.4-3.9-3.6-6-.1-.1-.2-.3-.2-.4 0 0 0-.1-.1-.1 0-.1-.1-.1-.1-.2s-.1-.1-.1-.2c-.1-.3-.2-.5-.4-.8-.2-.5-.5-1.1-.7-1.6-.5-1.1-1-2.2-1.5-3.4-3.9-9.2-7.3-19.9-9.2-32.3-1.1-6.2-1.7-12.8-2.4-19.6-.1-1.7-.3-3.4-.5-5.1l-.3-5.4c-.2-3.5-.5-7.1-.3-10.9 0-1.9.1-3.8.1-5.6 0-1.9.2-3.7.4-5.6.2-3.8.6-7.4.9-11.1.4-3.9 1.2-7.7 2.8-11.2 1.6-3.4 4-6.3 7.3-7.8s7-1.6 10.8-1.1c1.8.4 3.7.7 5.5 1.3.9.3 1.8.6 2.8.9 1 .4 1.8.7 2.7 1.1 3.5 1.4 7.1 2.7 10.7 4.4 3.6 1.6 7.2 3.2 10.6 5 1.8.9 3.5 1.7 5.3 2.6l5.1 2.7 5.1 2.7c1.6 1 3.3 1.9 4.9 2.9 6.6 3.8 12.8 7.8 18.4 12.1 1.4 1.1 2.7 2.3 4.1 3.4 1.3 1.1 2.6 2.3 3.8 3.4 2.5 2.2 5.1 4.4 7.5 6.7 4.8 4.5 9.1 9.2 12.7 14.3 3.6 5.1 6.4 10.7 8.4 16.7s3.3 12.5 4 19.1c.2 1.7.2 3.3.4 5 .1.8.1 1.7.2 2.5v2.6c0 1.6-.2 3.4-.3 5.2-.3 1.7-.4 3.4-.8 5.1-1.3 6.7-3.5 12.7-6.1 17.8-2.6 5.1-5.8 9.3-9.1 12.7-3.3 3.4-6.8 6-10.4 8.1-7.1 4.1-14.4 5.8-20.8 6.3-6.4.6-11.9-.1-15.6-.8-1.9-.4-3.3-.8-4.2-1.1-1.1-.6-1.6-.8-1.6-.8zm.5-1.2s.5.1 1.4.4c.9.3 2.2.6 4 1 3.5.7 8.8 1.2 15 .5 6.2-.6 13.2-2.6 20.1-6.7 6.8-4.2 13.5-10.7 18.5-20.4 2.5-4.8 4.6-10.5 5.7-16.6.3-1.5.5-3.1.7-4.6.1-1.5.3-3 .3-4.7v-1.8c0-.2 0 .1 0 0v-.4c-.1-.8-.1-1.6-.2-2.4-.1-1.6-.2-3.2-.4-4.8-.8-6.3-2-12.5-3.9-18.5-1.9-5.9-4.7-11.4-8.1-16.5-3.4-5.1-7.6-9.8-12.3-14.4-2.4-2.3-4.8-4.5-7.4-6.8-1.3-1.2-2.5-2.3-3.8-3.5-1.3-1.1-2.6-2.2-3.9-3.4-10.9-8.7-24.3-16.2-38.1-22.9-3.4-1.7-7-3.2-10.5-4.7-3.4-1.6-7.1-2.7-10.6-4.1-.9-.3-1.8-.7-2.6-.9-.9-.2-1.7-.5-2.6-.7-1.7-.6-3.4-.7-5.1-1-3.3-.3-6.6-.1-9.2 1.2-2.7 1.3-4.7 3.6-6.1 6.6-1.4 2.9-2.1 6.4-2.4 9.8-.3 3.6-.6 7.4-.8 11-.1 1.8-.3 3.6-.3 5.4 0 1.8 0 3.6-.1 5.3-.2 3.5.2 7.1.4 10.6.1 1.7.2 3.4.3 5.2.2 1.7.3 3.4.5 5.1.7 6.7 1.3 13.2 2.4 19.3 2.1 12.2 5.2 22.8 8.9 32.1.5 1.2.9 2.3 1.4 3.5.2.6.5 1.1.7 1.7.1.3.2.6.3.8 0 .1.1.1.1.2.1.1 0-.1 0 0 0 0 0 .1.1.1.1.1.1.3.2.4 1.1 2.1 2.2 4.1 3.4 6.1 2.3 3.9 4.7 7.4 7.3 10.6 5.1 6.4 11.2 11.1 17 14.4 5.8 3.3 10.9 5.2 14.4 6.6 3.3 1.2 5.2 1.8 5.3 1.9z" clip-path="url(#d)" stroke-linecap="round" stroke-linejoin="round"/>
    <path fill="#FFF" d="M353.4 324.4c.1 0 .3.1.4.1.1 0 .1 0 .2.1-.1 0-.1.1-.1.2v.2c.1.1.2.1.1.1h-.1c-.1 0-.1 0-.2-.1-.1 0-.3-.1-.4-.1-.5-.2-1-.4-1.6-.6-1-.4-2.1-.8-3.1-1.2-2-.9-4.1-1.8-6-2.8-3.9-2-7.7-4.4-10.9-7.3-1.6-1.4-3-3-4.2-4.7-1.2-1.7-2.1-3.7-2.7-5.5-1.3-3.7-2.3-7.6-2.9-11.6-.7-4-1-8-2.2-11.6-.6-1.8-1.3-3.6-2.1-5.3-.5-.9-.9-1.9-1.3-2.6-.4-.8-.9-1.7-1.3-2.5-1.9-3.4-4-6.6-6.2-9.9-1.2-1.7-2.3-3.3-3.5-5l-3.6-5.1.1.1c-1-1-1.6-2.2-2.2-3.5-.5-1.2-.9-2.4-1.2-3.7-.3-1.3-.6-2.5-1-3.7-.4-1.2-.9-2.4-1.2-3.6-.6-2.5-1.1-4.9-1.7-7.4-.5-2.5-1-4.9-1.4-7.4-.4-2.5-.8-4.9-1.2-7.4-.4-2.5-.9-4.9-1.5-7.3-.6-2.4-1.4-4.8-2.3-7.1-.5-1.1-1-2.3-1.6-3.3-.6-1.1-1.2-2.1-1.8-3.2l.4-.4c.8 1 1.5 2 2.2 3 .7 1 1.4 2.1 2 3.2l1.8 3.3c.6 1.1 1.1 2.3 1.7 3.5 2.2 4.7 3.8 9.6 4.7 14.7.5 2.5.8 5.1 1 7.6.2 2.5.5 5 .7 7.5.1 1.2.1 2.5.2 3.8.1 1.3.4 2.4.8 3.6.4 1.1.9 2.2 1.5 3.2s1.3 1.8 2.1 2.4l.1.1c2.9 2.8 6 5.5 9 8.6 1.5 1.5 2.9 3.1 4.2 4.9 1.3 1.8 2.6 3.6 3.6 5.5.5 1 1 1.9 1.4 3 .5 1.1.8 2.1 1.1 3 .7 2.2 1.1 4.3 1.4 6.5.3 2.2.3 4.3.3 6.3s0 4 .2 5.9c.3 3.9 1 7.6 2 11.4.4 1.9 1.1 3.6 2.1 5.2 1 1.7 2.2 3.2 3.7 4.6 2.9 2.9 6.5 5.3 10.3 7.4 1.9 1 3.9 2 5.9 2.9 1 .4 2 .9 3 1.3.3.2.8.4 1.3.7.2 0 .3 0 .4.1.1 0 .1 0 .2.1h.1s.1 0 .2.1.1.2.1.3l-.2.2h-.3c-.1 0-.1 0-.2-.1-.1 0-.3-.1-.4-.1 0-.3 0-.4.1-.6" clip-path="url(#d)"/>
    <path fill="none" stroke="#FFF" stroke-width=".455" stroke-miterlimit="10" d="M353.4 324.4c.1 0 .3.1.4.1.1 0 .1 0 .2.1-.1 0-.1.1-.1.2v.2c.1.1.2.1.1.1h-.1c-.1 0-.1 0-.2-.1-.1 0-.3-.1-.4-.1-.5-.2-1-.4-1.6-.6-1-.4-2.1-.8-3.1-1.2-2-.9-4.1-1.8-6-2.8-3.9-2-7.7-4.4-10.9-7.3-1.6-1.4-3-3-4.2-4.7-1.2-1.7-2.1-3.7-2.7-5.5-1.3-3.7-2.3-7.6-2.9-11.6-.7-4-1-8-2.2-11.6-.6-1.8-1.3-3.6-2.1-5.3-.5-.9-.9-1.9-1.3-2.6-.4-.8-.9-1.7-1.3-2.5-1.9-3.4-4-6.6-6.2-9.9-1.2-1.7-2.3-3.3-3.5-5l-3.6-5.1.1.1c-1-1-1.6-2.2-2.2-3.5-.5-1.2-.9-2.4-1.2-3.7-.3-1.3-.6-2.5-1-3.7-.4-1.2-.9-2.4-1.2-3.6-.6-2.5-1.1-4.9-1.7-7.4-.5-2.5-1-4.9-1.4-7.4-.4-2.5-.8-4.9-1.2-7.4-.4-2.5-.9-4.9-1.5-7.3-.6-2.4-1.4-4.8-2.3-7.1-.5-1.1-1-2.3-1.6-3.3-.6-1.1-1.2-2.1-1.8-3.2l.4-.4c.8 1 1.5 2 2.2 3 .7 1 1.4 2.1 2 3.2l1.8 3.3c.6 1.1 1.1 2.3 1.7 3.5 2.2 4.7 3.8 9.6 4.7 14.7.5 2.5.8 5.1 1 7.6.2 2.5.5 5 .7 7.5.1 1.2.1 2.5.2 3.8.1 1.3.4 2.4.8 3.6.4 1.1.9 2.2 1.5 3.2s1.3 1.8 2.1 2.4l.1.1c2.9 2.8 6 5.5 9 8.6 1.5 1.5 2.9 3.1 4.2 4.9 1.3 1.8 2.6 3.6 3.6 5.5.5 1 1 1.9 1.4 3 .5 1.1.8 2.1 1.1 3 .7 2.2 1.1 4.3 1.4 6.5.3 2.2.3 4.3.3 6.3s0 4 .2 5.9c.3 3.9 1 7.6 2 11.4.4 1.9 1.1 3.6 2.1 5.2 1 1.7 2.2 3.2 3.7 4.6 2.9 2.9 6.5 5.3 10.3 7.4 1.9 1 3.9 2 5.9 2.9 1 .4 2 .9 3 1.3.3.2.8.4 1.3.7.2 0 .3 0 .4.1.1 0 .1 0 .2.1h.1s.1 0 .2.1.1.2.1.3l-.2.2h-.3c-.1 0-.1 0-.2-.1-.1 0-.3-.1-.4-.1 0-.3 0-.4.1-.6z" clip-path="url(#d)" stroke-linecap="round" stroke-linejoin="round"/>
    <path fill="#FFF" d="M354 315.9s-.6-.3-1.5-.7c-.5-.2-1.1-.5-1.7-.8-.7-.3-1.4-.8-2.2-1.3-.8-.5-1.7-1-2.6-1.6-.9-.6-1.7-1.3-2.7-2-1-.7-1.8-1.5-2.7-2.3-.9-.8-1.8-1.6-2.6-2.6l-2.4-2.7c-.7-1-1.4-1.9-2-2.9-.6-1-1-2-1.3-2.9-.3-1-.6-1.9-.8-2.7-.3-.8-.2-1.7-.3-2.4 0-.7-.1-1.3 0-1.9 0-1 .1-1.6.1-1.6 0-.1.1-.2.2-.2s.1 0 .1.1c0 0 .4.5.9 1.4.3.4.6 1 .9 1.6.3.6.6 1.3 1 2 .5.7.9 1.5 1.3 2.3.2.4.4.8.7 1.3.2.4.5.9.8 1.3.5.9 1 1.8 1.5 2.8.5.9 1.2 1.8 1.8 2.8.6 1 1.3 1.8 2.1 2.7.8.8 1.4 1.7 2.2 2.5.8.8 1.6 1.5 2.3 2.2.7.7 1.5 1.2 2.2 1.8.7.5 1.3 1.1 1.9 1.5.6.4 1.2.8 1.6 1.1.9.6 1.4.9 1.4.9.1.1.1.2.1.2-.1.2-.2.2-.3.1" clip-path="url(#d)"/>
    <path fill="none" stroke="#FFF" stroke-width=".455" stroke-miterlimit="10" d="M354 315.9s-.6-.3-1.5-.7c-.5-.2-1.1-.5-1.7-.8-.7-.3-1.4-.8-2.2-1.3-.8-.5-1.7-1-2.6-1.6-.9-.6-1.7-1.3-2.7-2-1-.7-1.8-1.5-2.7-2.3-.9-.8-1.8-1.6-2.6-2.6l-2.4-2.7c-.7-1-1.4-1.9-2-2.9-.6-1-1-2-1.3-2.9-.3-1-.6-1.9-.8-2.7-.3-.8-.2-1.7-.3-2.4 0-.7-.1-1.3 0-1.9 0-1 .1-1.6.1-1.6 0-.1.1-.2.2-.2s.1 0 .1.1c0 0 .4.5.9 1.4.3.4.6 1 .9 1.6.3.6.6 1.3 1 2 .5.7.9 1.5 1.3 2.3.2.4.4.8.7 1.3.2.4.5.9.8 1.3.5.9 1 1.8 1.5 2.8.5.9 1.2 1.8 1.8 2.8.6 1 1.3 1.8 2.1 2.7.8.8 1.4 1.7 2.2 2.5.8.8 1.6 1.5 2.3 2.2.7.7 1.5 1.2 2.2 1.8.7.5 1.3 1.1 1.9 1.5.6.4 1.2.8 1.6 1.1.9.6 1.4.9 1.4.9.1.1.1.2.1.2-.1.2-.2.2-.3.1z" clip-path="url(#d)" stroke-linecap="round" stroke-linejoin="round"/>
    <path fill="#FFF" d="M376.2 320.1s-.1-.1-.4-.2c-.3-.2-.7-.4-1.2-.7-1-.6-2.6-1.4-4.5-2.6-2-1.2-4.3-3-6.5-5.4-2.2-2.4-4.3-5.5-6.2-8.9-.8-1.8-2.2-3.4-3.4-5.1-1.2-1.7-2.5-3.5-3.9-5.3-2.7-3.6-5.5-7.5-7.8-11.8-1.2-2.1-2.2-4.3-3-6.7-.8-2.4-1.3-4.9-2.1-7.3-.8-2.4-1.7-4.8-2.7-7.2-1-2.4-2.9-4.2-4.6-6.1-3.4-3.9-7.1-7.5-10.2-11.8-.7-1.1-1.5-2.2-2.1-3.4-.3-.6-.6-1.2-.9-1.9-.3-.6-.5-1.1-.8-1.7-1.1-2.3-2.2-4.3-3.4-6.4-2.4-4.2-4.7-8.3-6.8-12.3-.5-1-1-2.1-1.5-3.1-.5-1.1-.9-2.1-1.3-3.2-.7-2-1.4-3.7-2.1-5.3-1.4-3-3.3-5.2-5.4-7.5-2.1-2.3-3.9-4.7-5.1-7-1.1-2.3-1.6-4.3-1.7-5.6-.1-.7 0-1.2 0-1.5v-.5c.2 0 .4-.1.6-.1 0 0 .1.1.3.4.2.3.4.7.7 1.2.7 1 1.7 2.3 3.2 3.7 1.5 1.4 3.4 2.9 5.9 4.9 2.5 2 5.6 5.1 7.4 9.2.9 1.9 1.7 4.1 2.3 6 .3.9.7 1.8 1 2.8.4 1 .8 1.9 1.2 2.9 1.7 4 3.7 8.3 5.5 12.9.9 2.2 1.9 4.8 2.6 7.1.2.6.4 1.2.6 1.9.2.6.3 1.1.5 1.7.4 1.1.9 2.2 1.5 3.3 2.3 4.4 5.6 8.4 8.8 12.5 1.6 2 3.1 4.2 4.8 6.2 1.7 2 3.4 4.1 5 6.2 1.6 2.1 3.4 4 4.9 6.1 1.5 2.1 2.7 4.3 3.6 6.5 2 4.5 3.4 9 4.7 13.3.6 2.1 1.3 4.2 2 6.2s1.4 3.9 2.5 5.5c2.1 3.2 4.5 5.9 6.7 8 2.3 2.1 4.4 3.7 6.1 5 1.8 1.4 3.2 2.6 4 3.5.5.5.7.9.9 1.1.2.3.3.4.3.4.2-.1.1 0 0 .1" clip-path="url(#d)"/>
    <path fill="none" stroke="#FFF" stroke-width=".455" stroke-miterlimit="10" d="M376.2 320.1s-.1-.1-.4-.2c-.3-.2-.7-.4-1.2-.7-1-.6-2.6-1.4-4.5-2.6-2-1.2-4.3-3-6.5-5.4-2.2-2.4-4.3-5.5-6.2-8.9-.8-1.8-2.2-3.4-3.4-5.1-1.2-1.7-2.5-3.5-3.9-5.3-2.7-3.6-5.5-7.5-7.8-11.8-1.2-2.1-2.2-4.3-3-6.7-.8-2.4-1.3-4.9-2.1-7.3-.8-2.4-1.7-4.8-2.7-7.2-1-2.4-2.9-4.2-4.6-6.1-3.4-3.9-7.1-7.5-10.2-11.8-.7-1.1-1.5-2.2-2.1-3.4-.3-.6-.6-1.2-.9-1.9-.3-.6-.5-1.1-.8-1.7-1.1-2.3-2.2-4.3-3.4-6.4-2.4-4.2-4.7-8.3-6.8-12.3-.5-1-1-2.1-1.5-3.1-.5-1.1-.9-2.1-1.3-3.2-.7-2-1.4-3.7-2.1-5.3-1.4-3-3.3-5.2-5.4-7.5-2.1-2.3-3.9-4.7-5.1-7-1.1-2.3-1.6-4.3-1.7-5.6-.1-.7 0-1.2 0-1.5v-.5c.2 0 .4-.1.6-.1 0 0 .1.1.3.4.2.3.4.7.7 1.2.7 1 1.7 2.3 3.2 3.7 1.5 1.4 3.4 2.9 5.9 4.9 2.5 2 5.6 5.1 7.4 9.2.9 1.9 1.7 4.1 2.3 6 .3.9.7 1.8 1 2.8.4 1 .8 1.9 1.2 2.9 1.7 4 3.7 8.3 5.5 12.9.9 2.2 1.9 4.8 2.6 7.1.2.6.4 1.2.6 1.9.2.6.3 1.1.5 1.7.4 1.1.9 2.2 1.5 3.3 2.3 4.4 5.6 8.4 8.8 12.5 1.6 2 3.1 4.2 4.8 6.2 1.7 2 3.4 4.1 5 6.2 1.6 2.1 3.4 4 4.9 6.1 1.5 2.1 2.7 4.3 3.6 6.5 2 4.5 3.4 9 4.7 13.3.6 2.1 1.3 4.2 2 6.2s1.4 3.9 2.5 5.5c2.1 3.2 4.5 5.9 6.7 8 2.3 2.1 4.4 3.7 6.1 5 1.8 1.4 3.2 2.6 4 3.5.5.5.7.9.9 1.1.2.3.3.4.3.4.2-.1.1 0 0 .1z" clip-path="url(#d)" stroke-linecap="round" stroke-linejoin="round"/>
    <path fill="#FFF" d="M313 238.5s-.7-.4-1.9-1.3c-.6-.4-1.3-1-2-1.7s-1.6-1.6-2.3-2.6c-.4-.5-.8-1-1.2-1.6-.3-.6-.7-1.2-1.1-1.9-.8-1.2-1.3-2.7-1.9-4.2-.4-1.6-.9-3.2-1.2-4.9-.1-.8-.3-1.7-.4-2.5-.1-.8-.2-1.7-.4-2.5-.1-.8-.3-1.6-.4-2.5-.1-.8-.3-1.6-.5-2.4-.4-1.5-1-3-1.6-4.4-1.2-2.8-2.7-5.3-4-7.4-1.3-2.1-2.5-3.7-3.4-4.9-.9-1.2-1.3-1.8-1.3-1.8l.2-.2s.5.6 1.5 1.7c.9 1.1 2.3 2.6 3.8 4.6.7 1 1.5 2.1 2.3 3.3.8 1.2 1.5 2.5 2.2 3.9.7 1.4 1.4 2.9 1.9 4.5.3.8.5 1.7.7 2.5l.6 2.4.6 2.4c.3.8.6 1.5.8 2.3.5 1.5 1.3 2.9 1.8 4.3.7 1.3 1.1 2.7 1.7 3.9.6 1.2 1.1 2.4 1.7 3.5.5 1.1 1.1 2 1.6 2.9.5.9.9 1.6 1.3 2.3.8 1.3 1.1 2 1.1 2 0 .2-.1.2-.2.3" clip-path="url(#d)"/>
    <path fill="none" stroke="#FFF" stroke-width=".455" stroke-miterlimit="10" d="M313 238.5s-.7-.4-1.9-1.3c-.6-.4-1.3-1-2-1.7s-1.6-1.6-2.3-2.6c-.4-.5-.8-1-1.2-1.6-.3-.6-.7-1.2-1.1-1.9-.8-1.2-1.3-2.7-1.9-4.2-.4-1.6-.9-3.2-1.2-4.9-.1-.8-.3-1.7-.4-2.5-.1-.8-.2-1.7-.4-2.5-.1-.8-.3-1.6-.4-2.5-.1-.8-.3-1.6-.5-2.4-.4-1.5-1-3-1.6-4.4-1.2-2.8-2.7-5.3-4-7.4-1.3-2.1-2.5-3.7-3.4-4.9-.9-1.2-1.3-1.8-1.3-1.8l.2-.2s.5.6 1.5 1.7c.9 1.1 2.3 2.6 3.8 4.6.7 1 1.5 2.1 2.3 3.3.8 1.2 1.5 2.5 2.2 3.9.7 1.4 1.4 2.9 1.9 4.5.3.8.5 1.7.7 2.5l.6 2.4.6 2.4c.3.8.6 1.5.8 2.3.5 1.5 1.3 2.9 1.8 4.3.7 1.3 1.1 2.7 1.7 3.9.6 1.2 1.1 2.4 1.7 3.5.5 1.1 1.1 2 1.6 2.9.5.9.9 1.6 1.3 2.3.8 1.3 1.1 2 1.1 2 0 .2-.1.2-.2.3z" clip-path="url(#d)" stroke-linecap="round" stroke-linejoin="round"/>
    <path fill="#FFF" d="M374.1 291.8s-1.1-.8-2.6-2.7c-1.5-1.9-3.4-4.7-4.9-8.6-.7-1.9-1.5-4-2-6.4-.3-1.2-.4-2.4-.6-3.6-.1-1.2-.3-2.4-.4-3.7-.3-2.3-1-4.8-2.5-6.9-1.4-2.1-3.4-3.8-5.6-5.2-2.2-1.5-4.4-3-6.6-4.4-1.1-.8-2.2-1.6-3.2-2.5-1-.9-1.9-1.9-2.8-2.7-1.8-1.7-3.6-3.4-5.1-5.2-1.6-1.7-2.9-3.5-4.1-5.3-1.2-1.7-2.1-3.4-2.7-5-.6-1.6-1-3-1.3-4.2-.2-1.2-.3-2.1-.3-2.8v-1c0-.1.1-.2.2-.2s.1 0 .1.1c0 0 .2.3.6.8.4.5.9 1.3 1.6 2.2.6.9 1.4 2.1 2.3 3.4.9 1.3 1.9 2.8 2.9 4.4 1.1 1.6 2.3 3.3 3.7 5.1 1.4 1.8 2.9 3.7 4.4 5.6.8 1 1.5 2 2.3 2.9.8.9 1.7 1.8 2.6 2.7 1.8 1.8 4 3.3 6.1 5 2.1 1.6 4.2 3.4 5.8 5.5 1.6 2.1 2.8 4.6 3.5 7.2.3 1.3.6 2.5.8 3.6.3 1.1.6 2.2 1 3.3.6 2.1 1.4 4.1 2 6 1.4 3.6 2.6 6.7 3.5 8.9.9 2.2 1.3 3.5 1.3 3.5 0 .1 0 .2-.1.2.2.1.1.1.1 0" clip-path="url(#d)"/>
    <path fill="none" stroke="#FFF" stroke-width=".455" stroke-miterlimit="10" d="M374.1 291.8s-1.1-.8-2.6-2.7c-1.5-1.9-3.4-4.7-4.9-8.6-.7-1.9-1.5-4-2-6.4-.3-1.2-.4-2.4-.6-3.6-.1-1.2-.3-2.4-.4-3.7-.3-2.3-1-4.8-2.5-6.9-1.4-2.1-3.4-3.8-5.6-5.2-2.2-1.5-4.4-3-6.6-4.4-1.1-.8-2.2-1.6-3.2-2.5-1-.9-1.9-1.9-2.8-2.7-1.8-1.7-3.6-3.4-5.1-5.2-1.6-1.7-2.9-3.5-4.1-5.3-1.2-1.7-2.1-3.4-2.7-5-.6-1.6-1-3-1.3-4.2-.2-1.2-.3-2.1-.3-2.8v-1c0-.1.1-.2.2-.2s.1 0 .1.1c0 0 .2.3.6.8.4.5.9 1.3 1.6 2.2.6.9 1.4 2.1 2.3 3.4.9 1.3 1.9 2.8 2.9 4.4 1.1 1.6 2.3 3.3 3.7 5.1 1.4 1.8 2.9 3.7 4.4 5.6.8 1 1.5 2 2.3 2.9.8.9 1.7 1.8 2.6 2.7 1.8 1.8 4 3.3 6.1 5 2.1 1.6 4.2 3.4 5.8 5.5 1.6 2.1 2.8 4.6 3.5 7.2.3 1.3.6 2.5.8 3.6.3 1.1.6 2.2 1 3.3.6 2.1 1.4 4.1 2 6 1.4 3.6 2.6 6.7 3.5 8.9.9 2.2 1.3 3.5 1.3 3.5 0 .1 0 .2-.1.2.2.1.1.1.1 0z" clip-path="url(#d)" stroke-linecap="round" stroke-linejoin="round"/>
    <path fill="#FFF" d="M373.1 327.9s-1.2 0-2.9-.9c-.4-.2-.9-.5-1.3-.8-.4-.4-.9-.7-1.3-1.2-.2-.2-.4-.5-.6-.7l-.2-.2c-.1-.1-.1-.2-.2-.3-.1-.1-.1-.2-.2-.4-.1-.3-.3-.5-.4-.8-.1-.3-.2-.6-.4-1-.2-.6-.3-1.2-.4-1.7-.1-.2-.1-.5-.2-.7l-.3-.6c-.2-.4-.6-.7-.8-1.1-.4-.3-.7-.6-1-.9-.7-.6-1.3-.9-1.8-1.2-.4-.3-.7-.5-.7-.5s.3.1.8.2c.3.1.6.2.9.2.4.1.8.2 1.2.4.4.2.9.4 1.4.7.4.4 1 .8 1.3 1.3.2.3.3.6.5.9l.3.9c.2.6.3 1.2.5 1.6.1.2.1.4.2.7.1.2.3.5.4.8.1.1.1.3.2.4 0 0 .1.2 0 .1 0 .1.1.1.1.2.1.2.3.4.4.6l.9 1.2 1 1c1.4 1.2 2.6 1.8 2.6 1.8" clip-path="url(#d)"/>
    <path fill="none" stroke="#FFF" stroke-width=".455" stroke-miterlimit="10" d="M373.1 327.9s-1.2 0-2.9-.9c-.4-.2-.9-.5-1.3-.8-.4-.4-.9-.7-1.3-1.2-.2-.2-.4-.5-.6-.7l-.2-.2c-.1-.1-.1-.2-.2-.3-.1-.1-.1-.2-.2-.4-.1-.3-.3-.5-.4-.8-.1-.3-.2-.6-.4-1-.2-.6-.3-1.2-.4-1.7-.1-.2-.1-.5-.2-.7l-.3-.6c-.2-.4-.6-.7-.8-1.1-.4-.3-.7-.6-1-.9-.7-.6-1.3-.9-1.8-1.2-.4-.3-.7-.5-.7-.5s.3.1.8.2c.3.1.6.2.9.2.4.1.8.2 1.2.4.4.2.9.4 1.4.7.4.4 1 .8 1.3 1.3.2.3.3.6.5.9l.3.9c.2.6.3 1.2.5 1.6.1.2.1.4.2.7.1.2.3.5.4.8.1.1.1.3.2.4 0 0 .1.2 0 .1 0 .1.1.1.1.2.1.2.3.4.4.6l.9 1.2 1 1c1.4 1.2 2.6 1.8 2.6 1.8z" clip-path="url(#d)" stroke-linecap="round" stroke-linejoin="round"/>
    <path fill="#FFF" d="M388.1 323.5s-.2-1.5-.7-3.7c-.2-1.1-.5-2.4-.8-3.7-.2-.7-.4-1.4-.5-2.1-.1-.7-.3-1.4-.6-2.1-.4-1.4-.7-2.9-1.2-4.2-.2-.6-.4-1.3-.6-1.9-.2-.6-.4-1.2-.6-1.7-.9-2-1.3-3.5-1.3-3.5s.9 1.1 2.2 3c.3.5.7 1 .9 1.6.3.6.6 1.2.9 1.9.3.7.6 1.3.8 2.1.2.7.4 1.5.7 2.2.5 1.5.6 3 .9 4.5.1.7.1 1.4.2 2.1 0 .7.1 1.3.1 1.9-.1 2.1-.4 3.6-.4 3.6" clip-path="url(#d)"/>
    <path fill="none" stroke="#FFF" stroke-width=".455" stroke-miterlimit="10" d="M388.1 323.5s-.2-1.5-.7-3.7c-.2-1.1-.5-2.4-.8-3.7-.2-.7-.4-1.4-.5-2.1-.1-.7-.3-1.4-.6-2.1-.4-1.4-.7-2.9-1.2-4.2-.2-.6-.4-1.3-.6-1.9-.2-.6-.4-1.2-.6-1.7-.9-2-1.3-3.5-1.3-3.5s.9 1.1 2.2 3c.3.5.7 1 .9 1.6.3.6.6 1.2.9 1.9.3.7.6 1.3.8 2.1.2.7.4 1.5.7 2.2.5 1.5.6 3 .9 4.5.1.7.1 1.4.2 2.1 0 .7.1 1.3.1 1.9-.1 2.1-.4 3.6-.4 3.6z" clip-path="url(#d)" stroke-linecap="round" stroke-linejoin="round"/>
    <path fill="#FFF" d="M404 299.8s-.3-.8-.8-2.2c-.3-.7-.6-1.5-.9-2.5-.4-.9-.8-2-1.2-3.1-.5-1.1-1-2.3-1.5-3.6-.3-.6-.6-1.3-.9-1.9-.3-.6-.6-1.3-1-1.9-.6-1.4-1.3-2.7-2-4-.8-1.4-1.5-2.9-2.3-4.3-.4-.7-.8-1.5-1.1-2.3-.3-.8-.7-1.6-1-2.4-.5-1.6-1-3.2-1.3-4.8-.3-1.6-.7-3.1-.9-4.5-.2-1.4-.5-2.8-.7-4-.2-1.2-.5-2.3-.7-3.3-.2-1-.5-1.8-.7-2.5-.4-1.4-.7-2.1-.7-2.1.1-.1.2-.1.3-.2 0 0 .3.7.9 2 .3.7.7 1.4 1 2.4.3 1 .7 2 1.1 3.2.3 1.2.7 2.5 1.1 3.9.4 1.4.7 2.8 1.2 4.3.4 1.5 1 2.9 1.6 4.4.3.7.7 1.3 1 2 .2.3.3.7.5 1 .2.3.4.7.6 1 .4.7.9 1.3 1.3 2 .4.6.9 1.3 1.3 1.9.9 1.3 1.8 2.7 2.5 4.1.3.7.7 1.4 1 2.1.3.7.5 1.5.7 2.2.2.7.5 1.4.6 2.1.2.7.3 1.4.5 2 .3 1.3.5 2.5.6 3.6.2 1.1.2 2.1.3 2.9.1 1.6 0 2.5 0 2.5-.2-.1-.3-.1-.4 0" clip-path="url(#d)"/>
    <path fill="none" stroke="#FFF" stroke-width=".455" stroke-miterlimit="10" d="M404 299.8s-.3-.8-.8-2.2c-.3-.7-.6-1.5-.9-2.5-.4-.9-.8-2-1.2-3.1-.5-1.1-1-2.3-1.5-3.6-.3-.6-.6-1.3-.9-1.9-.3-.6-.6-1.3-1-1.9-.6-1.4-1.3-2.7-2-4-.8-1.4-1.5-2.9-2.3-4.3-.4-.7-.8-1.5-1.1-2.3-.3-.8-.7-1.6-1-2.4-.5-1.6-1-3.2-1.3-4.8-.3-1.6-.7-3.1-.9-4.5-.2-1.4-.5-2.8-.7-4-.2-1.2-.5-2.3-.7-3.3-.2-1-.5-1.8-.7-2.5-.4-1.4-.7-2.1-.7-2.1.1-.1.2-.1.3-.2 0 0 .3.7.9 2 .3.7.7 1.4 1 2.4.3 1 .7 2 1.1 3.2.3 1.2.7 2.5 1.1 3.9.4 1.4.7 2.8 1.2 4.3.4 1.5 1 2.9 1.6 4.4.3.7.7 1.3 1 2 .2.3.3.7.5 1 .2.3.4.7.6 1 .4.7.9 1.3 1.3 2 .4.6.9 1.3 1.3 1.9.9 1.3 1.8 2.7 2.5 4.1.3.7.7 1.4 1 2.1.3.7.5 1.5.7 2.2.2.7.5 1.4.6 2.1.2.7.3 1.4.5 2 .3 1.3.5 2.5.6 3.6.2 1.1.2 2.1.3 2.9.1 1.6 0 2.5 0 2.5-.2-.1-.3-.1-.4 0z" clip-path="url(#d)" stroke-linecap="round" stroke-linejoin="round"/>
    <path fill="#FFF" d="M367.6 228.5s-1.1-.6-2.7-1.8c-.8-.6-1.8-1.4-2.8-2.3-1.1-.9-2.2-2-3.4-3.1-1.2-1.2-2.5-2.5-3.7-4-1.2-1.5-2.3-3.2-3.5-5-1.1-1.8-2.4-3.5-3.9-5.2-1.5-1.7-3-3.4-4.6-5-1.6-1.6-3.3-3.2-5-4.7-1.7-1.5-3.6-2.8-5.5-3.9-1.9-1.2-3.7-2.1-5.5-3.1-1.8-1-3.5-1.9-5-2.7-1.6-.9-3-1.8-4.2-2.6-1.2-.9-2.2-1.6-3-2.3-1.6-1.4-2.4-2.2-2.4-2.2.1-.1.1-.2.2-.3 0 0 1 .6 2.8 1.7.9.5 2 1.1 3.2 1.8 1.3.7 2.7 1.4 4.3 2.2 1.6.8 3.4 1.6 5.2 2.6 1.8 1 3.7 2.3 5.4 3.6.9.6 1.8 1.4 2.6 2.1.9.7 1.8 1.4 2.6 2.2.9.7 1.8 1.5 2.6 2.2.9.8 1.8 1.5 2.6 2.3 1.8 1.5 3.5 3 5.2 4.5 1.7 1.5 3.4 2.9 5.2 4.3 1.7 1.3 3.4 2.7 4.7 4.1 1.4 1.4 2.5 2.8 3.5 4.2 1 1.4 1.8 2.6 2.5 3.8.7 1.2 1.2 2.3 1.6 3.2.8 1.8 1.1 3 1.1 3 .1.2 0 .3-.1.4" clip-path="url(#d)"/>
    <path fill="none" stroke="#FFF" stroke-width=".455" stroke-miterlimit="10" d="M367.6 228.5s-1.1-.6-2.7-1.8c-.8-.6-1.8-1.4-2.8-2.3-1.1-.9-2.2-2-3.4-3.1-1.2-1.2-2.5-2.5-3.7-4-1.2-1.5-2.3-3.2-3.5-5-1.1-1.8-2.4-3.5-3.9-5.2-1.5-1.7-3-3.4-4.6-5-1.6-1.6-3.3-3.2-5-4.7-1.7-1.5-3.6-2.8-5.5-3.9-1.9-1.2-3.7-2.1-5.5-3.1-1.8-1-3.5-1.9-5-2.7-1.6-.9-3-1.8-4.2-2.6-1.2-.9-2.2-1.6-3-2.3-1.6-1.4-2.4-2.2-2.4-2.2.1-.1.1-.2.2-.3 0 0 1 .6 2.8 1.7.9.5 2 1.1 3.2 1.8 1.3.7 2.7 1.4 4.3 2.2 1.6.8 3.4 1.6 5.2 2.6 1.8 1 3.7 2.3 5.4 3.6.9.6 1.8 1.4 2.6 2.1.9.7 1.8 1.4 2.6 2.2.9.7 1.8 1.5 2.6 2.2.9.8 1.8 1.5 2.6 2.3 1.8 1.5 3.5 3 5.2 4.5 1.7 1.5 3.4 2.9 5.2 4.3 1.7 1.3 3.4 2.7 4.7 4.1 1.4 1.4 2.5 2.8 3.5 4.2 1 1.4 1.8 2.6 2.5 3.8.7 1.2 1.2 2.3 1.6 3.2.8 1.8 1.1 3 1.1 3 .1.2 0 .3-.1.4z" clip-path="url(#d)" stroke-linecap="round" stroke-linejoin="round"/>
    <path fill="#FFF" d="M389.9 310.7s.2-.5.4-1.7c.3-1.2.6-3 .9-5.3.5-4.7.9-11.6-.4-19.7-.6-4-1.7-8.3-3.5-12.4-1.8-4.2-4.2-8.1-7.4-11.8-3-3.8-6.3-7.6-9.8-11.4-3.6-3.7-7.2-7.4-11.1-11.1-1.9-1.9-3.7-3.8-5.5-5.8-1.8-2-3.7-3.9-5.3-6-1.7-2.2-3.2-4.4-4.6-6.6-1.3-2.3-2.5-4.5-3.8-6.5-2.5-4.1-6-7.4-9.6-10.3-1.8-1.4-3.7-2.7-5.6-3.9-1.9-1.2-3.7-2.4-5.4-3.5-3.4-2.5-6.3-4.7-8.9-6.8-2.6-2.1-4.7-4-6.5-5.6-3.5-3.2-5.4-5.2-5.4-5.2.1-.1.1-.2.2-.2 0 0 .6.3 1.7 1s2.6 1.8 4.6 3.1c1.9 1.4 4.3 3.1 6.9 5.2 2.5 2.2 5.3 4.8 8.4 7.4 3 2.8 7 4.7 11.2 7.1 4.1 2.5 8.2 5.6 11.6 9.7 3.4 4 6.2 8.1 9.4 12 3.4 4 6.7 8 10.1 12 3.3 4.1 6.5 8.3 9.6 12.5 3.1 4.1 6 8.3 9 12.1 3 3.8 5.8 7.7 7.6 12 2 4.2 3.2 8.5 4.2 12.6.9 4.1 1.4 8 1.8 11.4.3 3.5.5 6.5.5 9.1.1 2.5 0 4.5 0 5.9 0 1.4-.1 2.2-.1 2.2-1.9-.7-3.6-1.1-5.2-1.5" clip-path="url(#d)"/>
    <path fill="none" stroke="#FFF" stroke-width=".455" stroke-miterlimit="10" d="M389.9 310.7s.2-.5.4-1.7c.3-1.2.6-3 .9-5.3.5-4.7.9-11.6-.4-19.7-.6-4-1.7-8.3-3.5-12.4-1.8-4.2-4.2-8.1-7.4-11.8-3-3.8-6.3-7.6-9.8-11.4-3.6-3.7-7.2-7.4-11.1-11.1-1.9-1.9-3.7-3.8-5.5-5.8-1.8-2-3.7-3.9-5.3-6-1.7-2.2-3.2-4.4-4.6-6.6-1.3-2.3-2.5-4.5-3.8-6.5-2.5-4.1-6-7.4-9.6-10.3-1.8-1.4-3.7-2.7-5.6-3.9-1.9-1.2-3.7-2.4-5.4-3.5-3.4-2.5-6.3-4.7-8.9-6.8-2.6-2.1-4.7-4-6.5-5.6-3.5-3.2-5.4-5.2-5.4-5.2.1-.1.1-.2.2-.2 0 0 .6.3 1.7 1s2.6 1.8 4.6 3.1c1.9 1.4 4.3 3.1 6.9 5.2 2.5 2.2 5.3 4.8 8.4 7.4 3 2.8 7 4.7 11.2 7.1 4.1 2.5 8.2 5.6 11.6 9.7 3.4 4 6.2 8.1 9.4 12 3.4 4 6.7 8 10.1 12 3.3 4.1 6.5 8.3 9.6 12.5 3.1 4.1 6 8.3 9 12.1 3 3.8 5.8 7.7 7.6 12 2 4.2 3.2 8.5 4.2 12.6.9 4.1 1.4 8 1.8 11.4.3 3.5.5 6.5.5 9.1.1 2.5 0 4.5 0 5.9 0 1.4-.1 2.2-.1 2.2-1.9-.7-3.6-1.1-5.2-1.5z" clip-path="url(#d)" stroke-linecap="round" stroke-linejoin="round"/>
    <path fill="#FFF" d="M405.8 278.1s-.8-1.4-2-4.1c-.6-1.3-1.3-3-2-4.9-.7-1.9-1.5-4.2-2.2-6.7-.3-1.3-.7-2.5-1-3.9l-.9-4.2c-.3-1.1-.9-2.5-1.5-3.7-.6-1.3-1.3-2.6-2-4-2.9-5.3-6.1-10.9-9.4-16.4-1.7-2.7-3.4-5.5-5.1-8.2-.8-1.3-1.9-2.3-3.1-3.3-1.2-1-2.5-1.9-3.8-2.8-2.6-1.8-5.2-3.4-7.7-5s-5-3-7.2-4.3c-4.5-2.7-8.2-5.4-10.3-8.1-1.1-1.3-1.7-2.8-1.7-4 0-.6.1-1 .2-1.3.1-.3.2-.4.2-.4l3.9 1.5s-.1.1-.2.4c-.1.3 0 1 .7 2.1 1.3 2.1 4.6 5 8.6 8.1 2 1.6 4.3 3.2 6.8 4.8 2.5 1.6 5.1 3.1 7.8 4.9 2.6 1.8 5.4 3.5 7.5 6.3 1.8 2.6 3.7 5.2 5.5 7.9 3.5 5.4 7 10.7 9.8 16.1.7 1.3 1.4 2.7 2.1 4 .6 1.4 1.3 2.6 1.7 4.3.3 1.5.5 2.9.7 4.2.3 1.3.5 2.6.8 3.9.6 2.5 1.1 4.8 1.6 6.8s1 3.8 1.4 5.3c.8 2.9 1.3 4.6 1.3 4.6-.4 0-.5.1-.5.1" clip-path="url(#d)"/>
    <path fill="none" stroke="#FFF" stroke-width=".455" stroke-miterlimit="10" d="M405.8 278.1s-.8-1.4-2-4.1c-.6-1.3-1.3-3-2-4.9-.7-1.9-1.5-4.2-2.2-6.7-.3-1.3-.7-2.5-1-3.9l-.9-4.2c-.3-1.1-.9-2.5-1.5-3.7-.6-1.3-1.3-2.6-2-4-2.9-5.3-6.1-10.9-9.4-16.4-1.7-2.7-3.4-5.5-5.1-8.2-.8-1.3-1.9-2.3-3.1-3.3-1.2-1-2.5-1.9-3.8-2.8-2.6-1.8-5.2-3.4-7.7-5s-5-3-7.2-4.3c-4.5-2.7-8.2-5.4-10.3-8.1-1.1-1.3-1.7-2.8-1.7-4 0-.6.1-1 .2-1.3.1-.3.2-.4.2-.4l3.9 1.5s-.1.1-.2.4c-.1.3 0 1 .7 2.1 1.3 2.1 4.6 5 8.6 8.1 2 1.6 4.3 3.2 6.8 4.8 2.5 1.6 5.1 3.1 7.8 4.9 2.6 1.8 5.4 3.5 7.5 6.3 1.8 2.6 3.7 5.2 5.5 7.9 3.5 5.4 7 10.7 9.8 16.1.7 1.3 1.4 2.7 2.1 4 .6 1.4 1.3 2.6 1.7 4.3.3 1.5.5 2.9.7 4.2.3 1.3.5 2.6.8 3.9.6 2.5 1.1 4.8 1.6 6.8s1 3.8 1.4 5.3c.8 2.9 1.3 4.6 1.3 4.6-.4 0-.5.1-.5.1z" clip-path="url(#d)" stroke-linecap="round" stroke-linejoin="round"/>
    <path fill="#FFF" d="M355.7 332.1s-.5-.3-1.5-.7c-1-.5-2.4-1.2-4.3-2-1.9-.9-4.2-1.9-6.8-3.1-1.3-.6-2.7-1.3-4.1-2.1-.7-.4-1.4-.8-2.2-1.2-.7-.4-1.4-.9-2.2-1.4-.7-.5-1.5-.9-2.3-1.4-.8-.5-1.5-1-2.2-1.6-1.5-1.1-3.1-2.2-4.5-3.5-1.4-1.2-3.1-2.6-4.5-3.9l-4.2-4.2c-1.4-1.4-2.8-3-4.1-4.5-.7-.7-1.4-1.4-2-2.2-.7-.7-1.4-1.3-2.1-2-.8-.8-1.6-1.4-2.3-2.2-.7-.8-1.5-1.6-2.2-2.4-1.4-1.6-2.7-3.3-3.9-5-2.4-3.4-4.5-7-6.4-10.7-.4-.9-.9-1.9-1.3-2.8-.1-.2-.2-.5-.3-.7-.1-.3-.2-.5-.3-.8-.2-.5-.3-1-.5-1.4-.6-1.9-1.3-3.8-1.7-5.8-.4-2-.7-4.1-.9-6-.1-1-.2-1.9-.3-2.8 0-1-.1-1.9-.3-2.8l-.6-5.4c-.3-1.8-.7-3.4-1.1-5-.9-3.2-1.7-6.1-2.6-8.6-.8-2.5-1.7-4.7-2.4-6.4-.7-1.7-1.4-2.9-1.9-3.7-.5-.5-.7-.8-.7-.8l-.2-.2c-1-1.1-1-3 0-4.2 1-1.2 2.6-1.4 3.6-.3.2.2.4.6.5.9 0 0 .3.7.7 2 .3 1.2.6 2.8 1 4.8s.8 4.3 1.4 7c.6 2.7 1.2 5.7 2.1 8.8.4 1.6 1 3.2 1.6 4.8.6 1.7 1.2 3.5 1.8 5.3.2.5.3.9.5 1.4.1.5.2 1 .3 1.4.2 1 .3 1.9.5 2.9.2 2 .5 3.8.6 5.8.2 1.9.6 4 .9 6l.3 1.5c0 .2.1.5.1.7.1.2.1.5.2.7.3.9.5 1.9.8 2.9 1.4 3.7 3.5 7.3 6.3 10.3 1.4 1.5 2.9 3 4.5 4.3 1.5 1.4 3.2 2.6 4.9 3.9.9.7 1.8 1.5 2.5 2.3l2.1 2.4c1.3 1.6 2.6 3.1 3.8 4.7 2.6 3.1 4.9 6.1 7.5 8.7 1.2 1.4 2.7 2.5 4 3.7.7.6 1.3 1.2 2 1.7l2.1 1.5c.7.5 1.4 1 2 1.4.7.4 1.4.8 2.1 1.3 1.3.8 2.6 1.6 3.9 2.3 2.5 1.4 4.7 2.5 6.5 3.4 1.8.9 3.3 1.6 4.3 2.2 1 .5 1.5.8 1.5.8.1 0 .1.1.1.2.1-.2 0-.2-.1-.2" clip-path="url(#d)"/>
    <path fill="none" stroke="#FFF" stroke-width=".455" stroke-miterlimit="10" d="M355.7 332.1s-.5-.3-1.5-.7c-1-.5-2.4-1.2-4.3-2-1.9-.9-4.2-1.9-6.8-3.1-1.3-.6-2.7-1.3-4.1-2.1-.7-.4-1.4-.8-2.2-1.2-.7-.4-1.4-.9-2.2-1.4-.7-.5-1.5-.9-2.3-1.4-.8-.5-1.5-1-2.2-1.6-1.5-1.1-3.1-2.2-4.5-3.5-1.4-1.2-3.1-2.6-4.5-3.9l-4.2-4.2c-1.4-1.4-2.8-3-4.1-4.5-.7-.7-1.4-1.4-2-2.2-.7-.7-1.4-1.3-2.1-2-.8-.8-1.6-1.4-2.3-2.2-.7-.8-1.5-1.6-2.2-2.4-1.4-1.6-2.7-3.3-3.9-5-2.4-3.4-4.5-7-6.4-10.7-.4-.9-.9-1.9-1.3-2.8-.1-.2-.2-.5-.3-.7-.1-.3-.2-.5-.3-.8-.2-.5-.3-1-.5-1.4-.6-1.9-1.3-3.8-1.7-5.8-.4-2-.7-4.1-.9-6-.1-1-.2-1.9-.3-2.8 0-1-.1-1.9-.3-2.8l-.6-5.4c-.3-1.8-.7-3.4-1.1-5-.9-3.2-1.7-6.1-2.6-8.6-.8-2.5-1.7-4.7-2.4-6.4-.7-1.7-1.4-2.9-1.9-3.7-.5-.5-.7-.8-.7-.8l-.2-.2c-1-1.1-1-3 0-4.2 1-1.2 2.6-1.4 3.6-.3.2.2.4.6.5.9 0 0 .3.7.7 2 .3 1.2.6 2.8 1 4.8s.8 4.3 1.4 7c.6 2.7 1.2 5.7 2.1 8.8.4 1.6 1 3.2 1.6 4.8.6 1.7 1.2 3.5 1.8 5.3.2.5.3.9.5 1.4.1.5.2 1 .3 1.4.2 1 .3 1.9.5 2.9.2 2 .5 3.8.6 5.8.2 1.9.6 4 .9 6l.3 1.5c0 .2.1.5.1.7.1.2.1.5.2.7.3.9.5 1.9.8 2.9 1.4 3.7 3.5 7.3 6.3 10.3 1.4 1.5 2.9 3 4.5 4.3 1.5 1.4 3.2 2.6 4.9 3.9.9.7 1.8 1.5 2.5 2.3l2.1 2.4c1.3 1.6 2.6 3.1 3.8 4.7 2.6 3.1 4.9 6.1 7.5 8.7 1.2 1.4 2.7 2.5 4 3.7.7.6 1.3 1.2 2 1.7l2.1 1.5c.7.5 1.4 1 2 1.4.7.4 1.4.8 2.1 1.3 1.3.8 2.6 1.6 3.9 2.3 2.5 1.4 4.7 2.5 6.5 3.4 1.8.9 3.3 1.6 4.3 2.2 1 .5 1.5.8 1.5.8.1 0 .1.1.1.2.1-.2 0-.2-.1-.2z" clip-path="url(#d)" stroke-linecap="round" stroke-linejoin="round"/>
    <path fill="#FFF" d="M420.7 247.8s1.4-1.2 4.1-3.3c2.7-2.1 6.7-5.3 12.1-8.6 5.4-3.3 12.2-6.2 19.7-7.5 3.8-.7 7.7-1.1 11.9-1.3 2.1-.1 4.2-.1 6.4-.1h.9c.3 0 .5.1.8.1.5.1 1.1.1 1.6.2 1.1.1 2.2.3 3.3.4 9 1.2 19 3.5 29.7 7.8 5.4 2 10.8 4.6 16.5 7.2 1.4.7 2.8 1.3 4.3 2 1.4.8 2.9 1.5 4.3 2.3 2.9 1.5 5.8 2.9 8.7 4.8 1.5.9 2.9 1.8 4.4 2.7 1.5.9 2.8 1.9 4.2 2.9 2.9 1.9 5.5 3.9 8.4 5.9 2.9 2.1 5.5 4.5 7.5 7.4 1.9 2.8 3.1 6.1 2.7 9.4-.3 3.3-2 6.3-4.1 9-1.2 1.2-2.3 2.6-3.6 3.7-.7.6-1.3 1.2-2 1.8-.7.6-1.4 1.1-2.1 1.6-2.8 2.1-5.4 4.3-8.4 6.3-2.9 2.1-5.8 4.2-8.8 6-1.5 1-3 2-4.4 2.9-1.5.9-3 1.8-4.5 2.8-1.5.9-3 1.9-4.5 2.7-1.5.8-3 1.7-4.5 2.5-6 3.4-12 6.4-18.1 8.8-1.5.5-3 1.1-4.5 1.6s-3 1-4.4 1.4c-2.9 1-5.8 1.9-8.7 2.8-5.8 1.7-11.4 2.9-17.1 3.3-5.7.4-11.4.1-17-1.1-5.7-1.2-11.3-3.2-16.8-5.7-1.4-.6-2.7-1.4-4.1-2-.7-.3-1.4-.7-2-1-.1 0-.2-.1-.3-.1 0 0-.1 0-.1-.1 0 0-.3-.2-.2-.1-.2-.1-.3-.2-.5-.3-.3-.2-.6-.4-1-.6-1.3-.7-2.6-1.8-3.9-2.7-1.2-1-2.5-1.9-3.6-3-4.7-4.1-8.4-8.7-11.1-13.1-2.8-4.4-4.6-8.8-5.8-13-1.1-4.2-1.6-8.2-1.5-11.9.1-7.5 2.2-14 4.7-19.3 2.5-5.3 5.6-9.3 7.9-11.9 1.2-1.3 2.1-2.2 2.8-2.8.4-.4.7-.8.7-.8m.8 1s-.3.3-1 .9c-.6.6-1.5 1.5-2.6 2.7-2.1 2.5-5.1 6.3-7.4 11.5-2.4 5.2-4.1 11.6-4 18.9.1 7.3 2.1 15.6 7.4 24 2.6 4.2 6.1 8.4 10.4 12.2 1 1 2.2 1.8 3.3 2.7 1.2.8 2.2 1.6 3.6 2.4.3.2.6.4 1 .6.2.1.3.2.5.3.1.1-.1 0 0 0 0 0 .1 0 .1.1.1 0 .2.1.2.1.7.3 1.3.6 2 1 1.3.6 2.6 1.3 3.9 1.9 5.3 2.3 10.8 4.3 16.3 5.5 5.5 1.2 11.1 1.6 16.7 1.3 5.6-.3 11.3-1.4 17-3 2.9-.8 5.8-1.7 8.8-2.6 1.5-.4 3-.9 4.5-1.4l4.5-1.5c11.9-4.5 24-11.6 35.7-19.3 3-1.9 5.7-4 8.5-6.1 2.8-2 5.5-4.3 8.1-6.5.6-.5 1.4-1.1 1.9-1.6.6-.6 1.2-1.1 1.8-1.7 1.2-1.1 2.1-2.4 3.2-3.5 1.8-2.5 3.1-5.1 3.3-7.8.2-2.7-.7-5.4-2.3-7.8-1.6-2.4-4.1-4.6-6.6-6.4-2.7-1.9-5.5-3.9-8.3-5.7-1.4-.9-2.7-1.9-4.1-2.8-1.4-.8-2.8-1.7-4.2-2.5-2.7-1.8-5.7-3.1-8.5-4.7-1.4-.7-2.8-1.5-4.2-2.2-1.4-.7-2.8-1.3-4.2-2-5.6-2.6-11-5.1-16.3-7.1-10.5-4-20.3-6.5-29.4-7.9-1.1-.2-2.3-.3-3.4-.5-.6-.1-1.1-.2-1.7-.2-.3 0-.5-.1-.8-.1h-.2c-.1 0 .1 0 0 0h-.5c-2.2-.1-4.3-.2-6.4-.1-4.1 0-8 .3-11.7.8-7.4 1-13.9 3.6-19.2 6.7-5.3 3-9.2 6.2-11.8 8.2-2.4 2-3.8 3.1-3.9 3.2" clip-path="url(#d)"/>
    <path fill="none" stroke="#FFF" stroke-width=".455" stroke-miterlimit="10" d="M420.7 247.8s1.4-1.2 4.1-3.3c2.7-2.1 6.7-5.3 12.1-8.6 5.4-3.3 12.2-6.2 19.7-7.5 3.8-.7 7.7-1.1 11.9-1.3 2.1-.1 4.2-.1 6.4-.1h.9c.3 0 .5.1.8.1.5.1 1.1.1 1.6.2 1.1.1 2.2.3 3.3.4 9 1.2 19 3.5 29.7 7.8 5.4 2 10.8 4.6 16.5 7.2 1.4.7 2.8 1.3 4.3 2 1.4.8 2.9 1.5 4.3 2.3 2.9 1.5 5.8 2.9 8.7 4.8 1.5.9 2.9 1.8 4.4 2.7 1.5.9 2.8 1.9 4.2 2.9 2.9 1.9 5.5 3.9 8.4 5.9 2.9 2.1 5.5 4.5 7.5 7.4 1.9 2.8 3.1 6.1 2.7 9.4-.3 3.3-2 6.3-4.1 9-1.2 1.2-2.3 2.6-3.6 3.7-.7.6-1.3 1.2-2 1.8-.7.6-1.4 1.1-2.1 1.6-2.8 2.1-5.4 4.3-8.4 6.3-2.9 2.1-5.8 4.2-8.8 6-1.5 1-3 2-4.4 2.9-1.5.9-3 1.8-4.5 2.8-1.5.9-3 1.9-4.5 2.7-1.5.8-3 1.7-4.5 2.5-6 3.4-12 6.4-18.1 8.8-1.5.5-3 1.1-4.5 1.6s-3 1-4.4 1.4c-2.9 1-5.8 1.9-8.7 2.8-5.8 1.7-11.4 2.9-17.1 3.3-5.7.4-11.4.1-17-1.1-5.7-1.2-11.3-3.2-16.8-5.7-1.4-.6-2.7-1.4-4.1-2-.7-.3-1.4-.7-2-1-.1 0-.2-.1-.3-.1 0 0-.1 0-.1-.1 0 0-.3-.2-.2-.1-.2-.1-.3-.2-.5-.3-.3-.2-.6-.4-1-.6-1.3-.7-2.6-1.8-3.9-2.7-1.2-1-2.5-1.9-3.6-3-4.7-4.1-8.4-8.7-11.1-13.1-2.8-4.4-4.6-8.8-5.8-13-1.1-4.2-1.6-8.2-1.5-11.9.1-7.5 2.2-14 4.7-19.3 2.5-5.3 5.6-9.3 7.9-11.9 1.2-1.3 2.1-2.2 2.8-2.8.4-.4.7-.8.7-.8zm.8 1s-.3.3-1 .9c-.6.6-1.5 1.5-2.6 2.7-2.1 2.5-5.1 6.3-7.4 11.5-2.4 5.2-4.1 11.6-4 18.9.1 7.3 2.1 15.6 7.4 24 2.6 4.2 6.1 8.4 10.4 12.2 1 1 2.2 1.8 3.3 2.7 1.2.8 2.2 1.6 3.6 2.4.3.2.6.4 1 .6.2.1.3.2.5.3.1.1-.1 0 0 0 0 0 .1 0 .1.1.1 0 .2.1.2.1.7.3 1.3.6 2 1 1.3.6 2.6 1.3 3.9 1.9 5.3 2.3 10.8 4.3 16.3 5.5 5.5 1.2 11.1 1.6 16.7 1.3 5.6-.3 11.3-1.4 17-3 2.9-.8 5.8-1.7 8.8-2.6 1.5-.4 3-.9 4.5-1.4l4.5-1.5c11.9-4.5 24-11.6 35.7-19.3 3-1.9 5.7-4 8.5-6.1 2.8-2 5.5-4.3 8.1-6.5.6-.5 1.4-1.1 1.9-1.6.6-.6 1.2-1.1 1.8-1.7 1.2-1.1 2.1-2.4 3.2-3.5 1.8-2.5 3.1-5.1 3.3-7.8.2-2.7-.7-5.4-2.3-7.8-1.6-2.4-4.1-4.6-6.6-6.4-2.7-1.9-5.5-3.9-8.3-5.7-1.4-.9-2.7-1.9-4.1-2.8-1.4-.8-2.8-1.7-4.2-2.5-2.7-1.8-5.7-3.1-8.5-4.7-1.4-.7-2.8-1.5-4.2-2.2-1.4-.7-2.8-1.3-4.2-2-5.6-2.6-11-5.1-16.3-7.1-10.5-4-20.3-6.5-29.4-7.9-1.1-.2-2.3-.3-3.4-.5-.6-.1-1.1-.2-1.7-.2-.3 0-.5-.1-.8-.1h-.2c-.1 0 .1 0 0 0h-.5c-2.2-.1-4.3-.2-6.4-.1-4.1 0-8 .3-11.7.8-7.4 1-13.9 3.6-19.2 6.7-5.3 3-9.2 6.2-11.8 8.2-2.4 2-3.8 3.1-3.9 3.2z" clip-path="url(#d)" stroke-linecap="round" stroke-linejoin="round"/>
    <path fill="#FFF" d="M422.4 260.4l-.3.3-.1.1-.1.1.1-.1c0-.1 0-.2-.1-.2 0 0-.1-.1-.2-.1s-.2.1-.1 0l.1-.1.1-.1c.1-.1.2-.2.3-.2.4-.3.8-.6 1.2-1l2.4-1.8c1.6-1.2 3.3-2.3 5-3.4 3.4-2.2 7-4 10.8-5.2 1.9-.6 3.8-1 5.7-1.1 1.9-.2 3.8.1 5.6.5 3.5.7 7 1.7 10.4 3.1 3.4 1.3 6.8 2.9 10.2 3.7 1.7.4 3.5.6 5.1.8 1 .1 1.9.2 2.7.2.9 0 1.7.1 2.6.1 3.5.1 7.1-.1 10.7-.3 1.8-.1 3.7-.3 5.5-.4 1.9-.2 3.8-.3 5.6-.4h-.2c1.3-.3 2.5-.2 3.7-.1 1.2.1 2.3.4 3.5.7 1.1.4 2.2.7 3.4.9 1.1.2 2.3.4 3.4.7l6.6 2.1c2.2.7 4.3 1.5 6.5 2.3 2.1.8 4.2 1.6 6.4 2.4 2.1.8 4.3 1.6 6.4 2.2 2.2.6 4.4 1.2 6.6 1.5 1.1.2 2.2.3 3.4.3 1.1.1 2.2.1 3.4 0 0 .2.1.4.1.5-1.1.1-2.2.3-3.4.4-1.1.1-2.3.1-3.4.1-1.2 0-2.3 0-3.5-.1-1.2-.1-2.3-.2-3.5-.3-4.7-.5-9.3-1.5-13.7-3.1-2.2-.8-4.3-1.7-6.4-2.7-2.1-1-4.2-2-6.2-3-1-.5-2-1.1-3-1.6s-2.1-.8-3.2-1c-1.1-.2-2.1-.3-3.2-.3-1 0-2 .2-2.8.5h-.2c-3.6 1-7.1 2.2-10.9 3.1-1.9.5-3.8.8-5.8 1.1-2 .2-4 .4-6 .2-1-.1-2-.1-3-.3-1.1-.1-2-.3-2.9-.5-2-.5-3.9-1.1-5.7-1.9-1.8-.8-3.5-1.8-5.1-2.7-1.6-1-3.1-1.8-4.7-2.6-3.2-1.6-6.5-2.7-9.9-3.7-1.7-.5-3.3-.8-5.1-.8-1.7 0-3.6.3-5.4.8-3.6 1-7.2 2.6-10.6 4.6-1.7 1-3.4 2.1-5 3.2l-2.4 1.8c-.6.2-1 .5-1.4.8l-.3.3-.1.1-.1.1s-.1.1-.2.1h-.3s-.1-.1 0-.3c0-.1.1-.2.1-.2l.1-.1.1-.1.3-.3.4.4" clip-path="url(#d)"/>
    <path fill="none" stroke="#FFF" stroke-width=".455" stroke-miterlimit="10" d="M422.4 260.4l-.3.3-.1.1-.1.1.1-.1c0-.1 0-.2-.1-.2 0 0-.1-.1-.2-.1s-.2.1-.1 0l.1-.1.1-.1c.1-.1.2-.2.3-.2.4-.3.8-.6 1.2-1l2.4-1.8c1.6-1.2 3.3-2.3 5-3.4 3.4-2.2 7-4 10.8-5.2 1.9-.6 3.8-1 5.7-1.1 1.9-.2 3.8.1 5.6.5 3.5.7 7 1.7 10.4 3.1 3.4 1.3 6.8 2.9 10.2 3.7 1.7.4 3.5.6 5.1.8 1 .1 1.9.2 2.7.2.9 0 1.7.1 2.6.1 3.5.1 7.1-.1 10.7-.3 1.8-.1 3.7-.3 5.5-.4 1.9-.2 3.8-.3 5.6-.4h-.2c1.3-.3 2.5-.2 3.7-.1 1.2.1 2.3.4 3.5.7 1.1.4 2.2.7 3.4.9 1.1.2 2.3.4 3.4.7l6.6 2.1c2.2.7 4.3 1.5 6.5 2.3 2.1.8 4.2 1.6 6.4 2.4 2.1.8 4.3 1.6 6.4 2.2 2.2.6 4.4 1.2 6.6 1.5 1.1.2 2.2.3 3.4.3 1.1.1 2.2.1 3.4 0 0 .2.1.4.1.5-1.1.1-2.2.3-3.4.4-1.1.1-2.3.1-3.4.1-1.2 0-2.3 0-3.5-.1-1.2-.1-2.3-.2-3.5-.3-4.7-.5-9.3-1.5-13.7-3.1-2.2-.8-4.3-1.7-6.4-2.7-2.1-1-4.2-2-6.2-3-1-.5-2-1.1-3-1.6s-2.1-.8-3.2-1c-1.1-.2-2.1-.3-3.2-.3-1 0-2 .2-2.8.5h-.2c-3.6 1-7.1 2.2-10.9 3.1-1.9.5-3.8.8-5.8 1.1-2 .2-4 .4-6 .2-1-.1-2-.1-3-.3-1.1-.1-2-.3-2.9-.5-2-.5-3.9-1.1-5.7-1.9-1.8-.8-3.5-1.8-5.1-2.7-1.6-1-3.1-1.8-4.7-2.6-3.2-1.6-6.5-2.7-9.9-3.7-1.7-.5-3.3-.8-5.1-.8-1.7 0-3.6.3-5.4.8-3.6 1-7.2 2.6-10.6 4.6-1.7 1-3.4 2.1-5 3.2l-2.4 1.8c-.6.2-1 .5-1.4.8l-.3.3-.1.1-.1.1s-.1.1-.2.1h-.3s-.1-.1 0-.3c0-.1.1-.2.1-.2l.1-.1.1-.1.3-.3.4.4z" clip-path="url(#d)" stroke-linecap="round" stroke-linejoin="round"/>
    <path fill="#FFF" d="M428.7 264.8s.5-.3 1.3-.9c.4-.3.9-.6 1.4-1 .6-.4 1.3-.7 2-1.1.8-.4 1.6-.9 2.4-1.3.9-.4 1.8-.8 2.8-1.2 1-.4 2-.7 3.1-1 1.1-.3 2.1-.7 3.2-.8l3.3-.6c1.1-.1 2.1-.2 3.2-.2 1 0 2 .1 2.9.3.9.2 1.8.4 2.5.6.8.2 1.4.6 2 .9.6.3 1.1.6 1.5.8.8.5 1.2.8 1.2.8.1.1.1.2 0 .2l-.1.1h-1.5c-.5 0-1 0-1.7-.1-.6 0-1.3-.2-2.1-.1h-2.5c-.4 0-.9 0-1.3-.1h-1.4c-.9 0-1.9-.1-2.9-.2-1 0-2 .1-3 .1s-2 .2-3.1.4c-1 .2-2 .3-3 .6s-1.9.5-2.8.8c-.9.2-1.7.6-2.4.9-.8.3-1.5.5-2.1.8-.6.3-1.1.6-1.6.8-.9.4-1.4.7-1.4.7-.1 0-.2 0-.2-.1.2 0 .2 0 .3-.1" clip-path="url(#d)"/>
    <path fill="none" stroke="#FFF" stroke-width=".455" stroke-miterlimit="10" d="M428.7 264.8s.5-.3 1.3-.9c.4-.3.9-.6 1.4-1 .6-.4 1.3-.7 2-1.1.8-.4 1.6-.9 2.4-1.3.9-.4 1.8-.8 2.8-1.2 1-.4 2-.7 3.1-1 1.1-.3 2.1-.7 3.2-.8l3.3-.6c1.1-.1 2.1-.2 3.2-.2 1 0 2 .1 2.9.3.9.2 1.8.4 2.5.6.8.2 1.4.6 2 .9.6.3 1.1.6 1.5.8.8.5 1.2.8 1.2.8.1.1.1.2 0 .2l-.1.1h-1.5c-.5 0-1 0-1.7-.1-.6 0-1.3-.2-2.1-.1h-2.5c-.4 0-.9 0-1.3-.1h-1.4c-.9 0-1.9-.1-2.9-.2-1 0-2 .1-3 .1s-2 .2-3.1.4c-1 .2-2 .3-3 .6s-1.9.5-2.8.8c-.9.2-1.7.6-2.4.9-.8.3-1.5.5-2.1.8-.6.3-1.1.6-1.6.8-.9.4-1.4.7-1.4.7-.1 0-.2 0-.2-.1.2 0 .2 0 .3-.1z" clip-path="url(#d)" stroke-linecap="round" stroke-linejoin="round"/>
    <path fill="#FFF" d="M415.2 280.3s.1-.1.4-.2c.3-.1.6-.3 1.1-.6.9-.5 2.3-1.4 4.1-2.4 1.9-1 4.3-2 7.3-2.6 3-.6 6.3-.8 9.9-.7 1.8.2 3.7-.1 5.6-.3 1.9-.2 3.9-.4 6-.6 4.1-.5 8.4-.8 12.9-.7 2.2 0 4.4.2 6.6.8 2.2.5 4.5 1.2 6.7 1.7 2.3.5 4.6.9 6.9 1.2 2.3.4 4.6-.3 6.9-.7 4.6-.9 9.2-2.1 14-2.5 1.2-.1 2.4-.1 3.7 0 .6 0 1.2.1 1.9.2.6.1 1.1.1 1.7.2 2.3.2 4.3.3 6.6.3 4.4.1 8.7.2 12.8.4 1 .1 2.1.2 3.1.3 1.1.1 2.1.3 3.1.4 1.9.4 3.6.7 5.2.8 3.1.3 5.6-.2 8.4-.7 2.8-.6 5.6-.9 7.9-.7 2.3.2 4.1.7 5.2 1.3.6.2.9.5 1.2.7.3.2.4.3.4.3-.1.2-.1.3-.2.5h-1.7c-1.1.1-2.6.3-4.4.8-1.8.5-3.9 1.3-6.6 2.4-2.7 1-6.6 2-10.7 1.5-1.9-.2-4-.6-5.8-1-.9-.2-1.8-.3-2.7-.5-.9-.1-1.9-.3-2.9-.4-4-.5-8.3-1-12.7-1.7-2.2-.3-4.6-.7-6.8-1.2-.6-.1-1.2-.3-1.7-.4-.5-.1-1-.3-1.5-.4-1-.2-2.2-.3-3.3-.4-4.5-.2-9.2.5-13.9 1.1-2.3.3-4.7.5-7.1.9-2.4.4-4.8.8-7.1 1-2.4.3-4.7.8-7.1 1-2.3.2-4.6.1-6.8-.2-4.4-.5-8.6-1.5-12.6-2.5-2-.5-3.9-.9-5.8-1.3-1.9-.3-3.7-.7-5.4-.6-3.5.1-6.7.8-9.4 1.6s-4.9 1.7-6.8 2.5c-1.9.8-3.5 1.3-4.6 1.5-.6.1-1 .2-1.3.2h-.4c-.2-.1-.3-.2-.3-.3" clip-path="url(#d)"/>
    <path fill="none" stroke="#FFF" stroke-width=".455" stroke-miterlimit="10" d="M415.2 280.3s.1-.1.4-.2c.3-.1.6-.3 1.1-.6.9-.5 2.3-1.4 4.1-2.4 1.9-1 4.3-2 7.3-2.6 3-.6 6.3-.8 9.9-.7 1.8.2 3.7-.1 5.6-.3 1.9-.2 3.9-.4 6-.6 4.1-.5 8.4-.8 12.9-.7 2.2 0 4.4.2 6.6.8 2.2.5 4.5 1.2 6.7 1.7 2.3.5 4.6.9 6.9 1.2 2.3.4 4.6-.3 6.9-.7 4.6-.9 9.2-2.1 14-2.5 1.2-.1 2.4-.1 3.7 0 .6 0 1.2.1 1.9.2.6.1 1.1.1 1.7.2 2.3.2 4.3.3 6.6.3 4.4.1 8.7.2 12.8.4 1 .1 2.1.2 3.1.3 1.1.1 2.1.3 3.1.4 1.9.4 3.6.7 5.2.8 3.1.3 5.6-.2 8.4-.7 2.8-.6 5.6-.9 7.9-.7 2.3.2 4.1.7 5.2 1.3.6.2.9.5 1.2.7.3.2.4.3.4.3-.1.2-.1.3-.2.5h-1.7c-1.1.1-2.6.3-4.4.8-1.8.5-3.9 1.3-6.6 2.4-2.7 1-6.6 2-10.7 1.5-1.9-.2-4-.6-5.8-1-.9-.2-1.8-.3-2.7-.5-.9-.1-1.9-.3-2.9-.4-4-.5-8.3-1-12.7-1.7-2.2-.3-4.6-.7-6.8-1.2-.6-.1-1.2-.3-1.7-.4-.5-.1-1-.3-1.5-.4-1-.2-2.2-.3-3.3-.4-4.5-.2-9.2.5-13.9 1.1-2.3.3-4.7.5-7.1.9-2.4.4-4.8.8-7.1 1-2.4.3-4.7.8-7.1 1-2.3.2-4.6.1-6.8-.2-4.4-.5-8.6-1.5-12.6-2.5-2-.5-3.9-.9-5.8-1.3-1.9-.3-3.7-.7-5.4-.6-3.5.1-6.7.8-9.4 1.6s-4.9 1.7-6.8 2.5c-1.9.8-3.5 1.3-4.6 1.5-.6.1-1 .2-1.3.2h-.4c-.2-.1-.3-.2-.3-.3z" clip-path="url(#d)" stroke-linecap="round" stroke-linejoin="round"/>
    <path fill="#FFF" d="M508.6 268.5s.7-.4 1.9-.9c.6-.3 1.4-.5 2.3-.8.9-.2 2-.5 3.1-.6.6-.1 1.2-.1 1.8-.2h2c1.4-.1 2.8.2 4.2.5 1.4.4 2.9.7 4.4 1.3.7.3 1.5.5 2.2.8.7.3 1.4.6 2.2.9.7.3 1.4.5 2.1.8.7.3 1.4.5 2.1.7 1.4.4 2.8.6 4.2.8 2.8.3 5.4.4 7.6.3 2.2-.1 4.1-.3 5.4-.4 1.3-.1 2.1-.2 2.1-.2v.2s-.7.1-2 .4c-1.3.2-3.1.6-5.4.8-1.1.1-2.4.2-3.7.3-1.3.1-2.7 0-4.1-.1-1.4-.1-2.9-.3-4.5-.6-.8-.2-1.5-.3-2.3-.6-.7-.2-1.5-.5-2.2-.7-.7-.2-1.4-.4-2.2-.6-.7-.1-1.5-.3-2.2-.4-1.4-.3-2.9-.4-4.2-.6-1.4-.1-2.7-.4-3.9-.5-1.2-.1-2.4-.2-3.5-.3-1.1-.1-2.1-.1-3-.1-.9 0-1.7-.1-2.4 0h-2.1c.2 0 .1-.1.1-.2" clip-path="url(#d)"/>
    <path fill="none" stroke="#FFF" stroke-width=".455" stroke-miterlimit="10" d="M508.6 268.5s.7-.4 1.9-.9c.6-.3 1.4-.5 2.3-.8.9-.2 2-.5 3.1-.6.6-.1 1.2-.1 1.8-.2h2c1.4-.1 2.8.2 4.2.5 1.4.4 2.9.7 4.4 1.3.7.3 1.5.5 2.2.8.7.3 1.4.6 2.2.9.7.3 1.4.5 2.1.8.7.3 1.4.5 2.1.7 1.4.4 2.8.6 4.2.8 2.8.3 5.4.4 7.6.3 2.2-.1 4.1-.3 5.4-.4 1.3-.1 2.1-.2 2.1-.2v.2s-.7.1-2 .4c-1.3.2-3.1.6-5.4.8-1.1.1-2.4.2-3.7.3-1.3.1-2.7 0-4.1-.1-1.4-.1-2.9-.3-4.5-.6-.8-.2-1.5-.3-2.3-.6-.7-.2-1.5-.5-2.2-.7-.7-.2-1.4-.4-2.2-.6-.7-.1-1.5-.3-2.2-.4-1.4-.3-2.9-.4-4.2-.6-1.4-.1-2.7-.4-3.9-.5-1.2-.1-2.4-.2-3.5-.3-1.1-.1-2.1-.1-3-.1-.9 0-1.7-.1-2.4 0h-2.1c.2 0 .1-.1.1-.2z" clip-path="url(#d)" stroke-linecap="round" stroke-linejoin="round"/>
    <path fill="#FFF" d="M438.4 291.7s1.2-.5 3.3-.8c2.1-.3 5.3-.4 9 .1 1.9.3 3.9.7 5.9 1.4 1 .3 2.1.8 3.1 1.2 1 .5 2 .9 3.1 1.4 2 .8 4.2 1.4 6.5 1.2 2.3-.1 4.5-.9 6.7-1.9 2.2-1.1 4.4-2.1 6.5-3.2 1.1-.5 2.3-1 3.4-1.3 1.2-.4 2.4-.6 3.4-.9 2.2-.6 4.3-1.2 6.4-1.6 2.1-.4 4.1-.7 6-.8 1.9-.1 3.6 0 5.2.2 1.5.2 2.8.6 3.9 1 1 .4 1.8.7 2.4 1 .5.3.8.5.8.5.1 0 .1.1 0 .2l-.1.1s-.3 0-.9.1c-.6.1-1.4.1-2.5.2-1 .1-2.3.2-3.7.3-1.4.1-3 .2-4.8.3-1.8.1-3.7.3-5.7.5-2.1.3-4.2.5-6.5.8-1.2.1-2.3.2-3.4.4s-2.2.5-3.4.8c-2.3.6-4.5 1.6-6.7 2.5-2.3.9-4.6 1.7-7 2-2.4.3-4.9.1-7.3-.6-1.2-.3-2.2-.7-3.2-1-1-.3-2-.6-3-.8-2-.5-3.9-.8-5.6-1.2-3.5-.6-6.5-1-8.6-1.4-2.1-.3-3.3-.6-3.3-.6-.1 0-.1-.1-.1-.2.1.2.1.2.2.1" clip-path="url(#d)"/>
    <path fill="none" stroke="#FFF" stroke-width=".455" stroke-miterlimit="10" d="M438.4 291.7s1.2-.5 3.3-.8c2.1-.3 5.3-.4 9 .1 1.9.3 3.9.7 5.9 1.4 1 .3 2.1.8 3.1 1.2 1 .5 2 .9 3.1 1.4 2 .8 4.2 1.4 6.5 1.2 2.3-.1 4.5-.9 6.7-1.9 2.2-1.1 4.4-2.1 6.5-3.2 1.1-.5 2.3-1 3.4-1.3 1.2-.4 2.4-.6 3.4-.9 2.2-.6 4.3-1.2 6.4-1.6 2.1-.4 4.1-.7 6-.8 1.9-.1 3.6 0 5.2.2 1.5.2 2.8.6 3.9 1 1 .4 1.8.7 2.4 1 .5.3.8.5.8.5.1 0 .1.1 0 .2l-.1.1s-.3 0-.9.1c-.6.1-1.4.1-2.5.2-1 .1-2.3.2-3.7.3-1.4.1-3 .2-4.8.3-1.8.1-3.7.3-5.7.5-2.1.3-4.2.5-6.5.8-1.2.1-2.3.2-3.4.4s-2.2.5-3.4.8c-2.3.6-4.5 1.6-6.7 2.5-2.3.9-4.6 1.7-7 2-2.4.3-4.9.1-7.3-.6-1.2-.3-2.2-.7-3.2-1-1-.3-2-.6-3-.8-2-.5-3.9-.8-5.6-1.2-3.5-.6-6.5-1-8.6-1.4-2.1-.3-3.3-.6-3.3-.6-.1 0-.1-.1-.1-.2.1.2.1.2.2.1z" clip-path="url(#d)" stroke-linecap="round" stroke-linejoin="round"/>
    <path fill="#FFF" d="M410.5 274.2s.6-1 2.1-1.9c.4-.2.8-.4 1.3-.6.5-.1 1-.4 1.5-.5.3-.1.5-.1.8-.2h1.7c.3.1.6.1.9.2.6.1 1 .3 1.5.4.2.1.4.1.6.2.2 0 .4 0 .6.1.4 0 .8-.1 1.2-.1.4-.1.8-.3 1.2-.4.7-.3 1.3-.6 1.8-.8.5-.2.7-.3.7-.3s-.2.2-.5.6l-.6.6c-.3.2-.5.5-.9.7-.4.2-.8.5-1.2.7-.5.1-1 .4-1.6.4h-.9c-.3 0-.6-.1-.8-.2-.5-.1-1-.3-1.5-.4-.2-.1-.4-.1-.6-.2-.2 0-.5 0-.8-.1h-.7c-.2 0-.5 0-.7.1-.5 0-.9.1-1.3.2l-1.2.3c-1.6.6-2.6 1.2-2.6 1.2" clip-path="url(#d)"/>
    <path fill="none" stroke="#FFF" stroke-width=".455" stroke-miterlimit="10" d="M410.5 274.2s.6-1 2.1-1.9c.4-.2.8-.4 1.3-.6.5-.1 1-.4 1.5-.5.3-.1.5-.1.8-.2h1.7c.3.1.6.1.9.2.6.1 1 .3 1.5.4.2.1.4.1.6.2.2 0 .4 0 .6.1.4 0 .8-.1 1.2-.1.4-.1.8-.3 1.2-.4.7-.3 1.3-.6 1.8-.8.5-.2.7-.3.7-.3s-.2.2-.5.6l-.6.6c-.3.2-.5.5-.9.7-.4.2-.8.5-1.2.7-.5.1-1 .4-1.6.4h-.9c-.3 0-.6-.1-.8-.2-.5-.1-1-.3-1.5-.4-.2-.1-.4-.1-.6-.2-.2 0-.5 0-.8-.1h-.7c-.2 0-.5 0-.7.1-.5 0-.9.1-1.3.2l-1.2.3c-1.6.6-2.6 1.2-2.6 1.2z" clip-path="url(#d)" stroke-linecap="round" stroke-linejoin="round"/>
    <path fill="#FFF" d="M407 288.1s1.3.5 3.2 1.2c1 .4 2.1.7 3.3 1.1.6.2 1.2.4 1.9.6.6.2 1.3.4 1.9.6 1.3.3 2.6.7 3.8.9.6.1 1.2.3 1.8.4.6.1 1.1.2 1.6.3 2 .3 3.4.6 3.4.6s-1.3.2-3.4.3c-.5 0-1.1.1-1.7 0-.6-.1-1.2-.1-1.9-.2s-1.3-.1-2-.3c-.7-.2-1.4-.3-2.1-.5-1.4-.3-2.7-.9-3.9-1.4-.6-.2-1.2-.6-1.7-.8-.5-.3-1-.5-1.5-.8-1.7-1.1-2.7-2-2.7-2" clip-path="url(#d)"/>
    <path fill="none" stroke="#FFF" stroke-width=".455" stroke-miterlimit="10" d="M407 288.1s1.3.5 3.2 1.2c1 .4 2.1.7 3.3 1.1.6.2 1.2.4 1.9.6.6.2 1.3.4 1.9.6 1.3.3 2.6.7 3.8.9.6.1 1.2.3 1.8.4.6.1 1.1.2 1.6.3 2 .3 3.4.6 3.4.6s-1.3.2-3.4.3c-.5 0-1.1.1-1.7 0-.6-.1-1.2-.1-1.9-.2s-1.3-.1-2-.3c-.7-.2-1.4-.3-2.1-.5-1.4-.3-2.7-.9-3.9-1.4-.6-.2-1.2-.6-1.7-.8-.5-.3-1-.5-1.5-.8-1.7-1.1-2.7-2-2.7-2z" clip-path="url(#d)" stroke-linecap="round" stroke-linejoin="round"/>
    <path fill="#FFF" d="M418.3 311.5s.8.1 2.1.4c.7.1 1.5.3 2.4.4.9.1 1.9.3 3 .5s2.3.3 3.5.4c.6.1 1.3.1 1.9.2.6 0 1.3.1 2 .1 1.4.2 2.7.2 4.1.3 1.5.1 3 .1 4.5.2.7 0 1.5.1 2.3.2l2.4.3c1.5.4 3 .7 4.4 1.2 1.4.5 2.7.9 4 1.4 1.2.5 2.4.9 3.5 1.3s2 .7 2.9 1c.9.3 1.6.4 2.3.6 1.3.3 2 .4 2 .4v.3s-.7-.1-2-.2c-.6-.1-1.4-.1-2.3-.3-.9-.2-1.9-.3-3-.6s-2.3-.6-3.6-.9c-1.3-.4-2.6-.7-3.9-1.1-1.4-.4-2.7-.5-4.1-.8-.7 0-1.4-.1-2.1-.1-.3 0-.7-.1-1-.1h-1.1c-.7 0-1.4.1-2.2.1-.7 0-1.4.1-2.1.1-1.5.1-2.9.2-4.4 0-.7-.1-1.4-.1-2.1-.2-.7-.1-1.4-.3-2-.4-.7-.2-1.3-.3-1.9-.5l-1.8-.6c-1.2-.3-2.2-.8-3.1-1.2-.9-.4-1.7-.8-2.4-1.1-1.3-.7-2-1.1-2-1.1-.3 0-.3-.1-.2-.2" clip-path="url(#d)"/>
    <path fill="none" stroke="#FFF" stroke-width=".455" stroke-miterlimit="10" d="M418.3 311.5s.8.1 2.1.4c.7.1 1.5.3 2.4.4.9.1 1.9.3 3 .5s2.3.3 3.5.4c.6.1 1.3.1 1.9.2.6 0 1.3.1 2 .1 1.4.2 2.7.2 4.1.3 1.5.1 3 .1 4.5.2.7 0 1.5.1 2.3.2l2.4.3c1.5.4 3 .7 4.4 1.2 1.4.5 2.7.9 4 1.4 1.2.5 2.4.9 3.5 1.3s2 .7 2.9 1c.9.3 1.6.4 2.3.6 1.3.3 2 .4 2 .4v.3s-.7-.1-2-.2c-.6-.1-1.4-.1-2.3-.3-.9-.2-1.9-.3-3-.6s-2.3-.6-3.6-.9c-1.3-.4-2.6-.7-3.9-1.1-1.4-.4-2.7-.5-4.1-.8-.7 0-1.4-.1-2.1-.1-.3 0-.7-.1-1-.1h-1.1c-.7 0-1.4.1-2.2.1-.7 0-1.4.1-2.1.1-1.5.1-2.9.2-4.4 0-.7-.1-1.4-.1-2.1-.2-.7-.1-1.4-.3-2-.4-.7-.2-1.3-.3-1.9-.5l-1.8-.6c-1.2-.3-2.2-.8-3.1-1.2-.9-.4-1.7-.8-2.4-1.1-1.3-.7-2-1.1-2-1.1-.3 0-.3-.1-.2-.2z" clip-path="url(#d)" stroke-linecap="round" stroke-linejoin="round"/>
    <path fill="#FFF" d="M491.1 316.1s1-.6 2.7-1.2c.8-.3 1.9-.8 3.1-1.1 1.2-.4 2.6-.8 4-1.2 1.5-.4 3.1-.8 4.8-1 1.7-.3 3.6-.4 5.5-.4 1.9-.1 3.9-.3 5.9-.6 2-.4 4-.8 6.1-1.2 2-.5 4-1.1 6-1.8s3.8-1.5 5.6-2.5c1.8-.9 3.4-1.9 5-2.9s3.1-1.9 4.5-2.7c1.4-.8 2.8-1.5 4-2.1 1.2-.5 2.3-1 3.2-1.3 1.8-.6 2.8-.9 2.8-.9 0 .1.1.2.1.3 0 0-.9.5-2.6 1.4-.8.4-1.8 1-2.9 1.7-1.1.7-2.4 1.4-3.7 2.3-1.4.9-2.8 1.9-4.5 2.8-1.6.9-3.5 1.8-5.4 2.5-.9.4-1.9.8-2.9 1.1-1 .4-2 .7-3 1.1-1 .4-2 .7-3 1-1 .3-2 .7-3 1-2 .7-4 1.3-6 2-2 .6-3.9 1.3-5.7 2.1-1.9.7-3.6 1.4-5.4 1.8-1.7.4-3.4.6-4.9.8-1.5.1-2.9.2-4.2.2-1.2 0-2.3-.1-3.2-.2-1.8-.2-2.9-.5-2.9-.5v-.5" clip-path="url(#d)"/>
    <path fill="none" stroke="#FFF" stroke-width=".455" stroke-miterlimit="10" d="M491.1 316.1s1-.6 2.7-1.2c.8-.3 1.9-.8 3.1-1.1 1.2-.4 2.6-.8 4-1.2 1.5-.4 3.1-.8 4.8-1 1.7-.3 3.6-.4 5.5-.4 1.9-.1 3.9-.3 5.9-.6 2-.4 4-.8 6.1-1.2 2-.5 4-1.1 6-1.8s3.8-1.5 5.6-2.5c1.8-.9 3.4-1.9 5-2.9s3.1-1.9 4.5-2.7c1.4-.8 2.8-1.5 4-2.1 1.2-.5 2.3-1 3.2-1.3 1.8-.6 2.8-.9 2.8-.9 0 .1.1.2.1.3 0 0-.9.5-2.6 1.4-.8.4-1.8 1-2.9 1.7-1.1.7-2.4 1.4-3.7 2.3-1.4.9-2.8 1.9-4.5 2.8-1.6.9-3.5 1.8-5.4 2.5-.9.4-1.9.8-2.9 1.1-1 .4-2 .7-3 1.1-1 .4-2 .7-3 1-1 .3-2 .7-3 1-2 .7-4 1.3-6 2-2 .6-3.9 1.3-5.7 2.1-1.9.7-3.6 1.4-5.4 1.8-1.7.4-3.4.6-4.9.8-1.5.1-2.9.2-4.2.2-1.2 0-2.3-.1-3.2-.2-1.8-.2-2.9-.5-2.9-.5v-.5z" clip-path="url(#d)" stroke-linecap="round" stroke-linejoin="round"/>
    <path fill="#FFF" d="M416.2 295.4s.3.4 1.2 1.1c.8.8 2.1 1.8 3.8 3.2 3.4 2.6 8.7 6.1 15.7 8.8 3.5 1.4 7.3 2.5 11.4 3 4.1.5 8.3.5 12.7-.3 4.4-.6 8.9-1.4 13.5-2.5s9.2-2.2 13.9-3.5c2.3-.6 4.7-1.2 7.1-1.7 2.4-.5 4.8-1.1 7.2-1.4 2.5-.4 4.9-.5 7.3-.5 2.4 0 4.7.1 6.9.1 4.4-.1 8.6-1.3 12.5-2.8 2-.8 3.8-1.7 5.6-2.6 1.8-.9 3.6-1.8 5.3-2.6 3.5-1.5 6.6-2.8 9.5-3.9 2.8-1 5.3-1.8 7.4-2.5 4.2-1.3 6.6-1.8 6.6-1.8 0 .1.1.2.1.2s-.5.3-1.6.8c-1 .5-2.6 1.2-4.6 2.2-2 .9-4.5 1.9-7.3 3-2.9 1-6.2 2-9.7 3.1-3.6 1-6.9 3.4-10.8 5.5-3.9 2.1-8.2 3.9-13 4.6-4.7.8-9.3 1.1-13.8 1.8l-14.1 2.4c-4.8.7-9.6 1.3-14.3 1.8-4.7.5-9.3.9-13.7 1.4-4.4.6-8.7 1-12.9.4-4.2-.4-8.2-1.4-11.8-2.6-3.6-1.2-6.9-2.6-9.8-3.9-2.9-1.4-5.4-2.7-7.4-3.8-2-1.1-3.6-2.1-4.6-2.8-1-.7-1.7-1.1-1.7-1.1 1.2-.9 2.3-2 3.4-3.1" clip-path="url(#d)"/>
    <path fill="none" stroke="#FFF" stroke-width=".455" stroke-miterlimit="10" d="M416.2 295.4s.3.4 1.2 1.1c.8.8 2.1 1.8 3.8 3.2 3.4 2.6 8.7 6.1 15.7 8.8 3.5 1.4 7.3 2.5 11.4 3 4.1.5 8.3.5 12.7-.3 4.4-.6 8.9-1.4 13.5-2.5s9.2-2.2 13.9-3.5c2.3-.6 4.7-1.2 7.1-1.7 2.4-.5 4.8-1.1 7.2-1.4 2.5-.4 4.9-.5 7.3-.5 2.4 0 4.7.1 6.9.1 4.4-.1 8.6-1.3 12.5-2.8 2-.8 3.8-1.7 5.6-2.6 1.8-.9 3.6-1.8 5.3-2.6 3.5-1.5 6.6-2.8 9.5-3.9 2.8-1 5.3-1.8 7.4-2.5 4.2-1.3 6.6-1.8 6.6-1.8 0 .1.1.2.1.2s-.5.3-1.6.8c-1 .5-2.6 1.2-4.6 2.2-2 .9-4.5 1.9-7.3 3-2.9 1-6.2 2-9.7 3.1-3.6 1-6.9 3.4-10.8 5.5-3.9 2.1-8.2 3.9-13 4.6-4.7.8-9.3 1.1-13.8 1.8l-14.1 2.4c-4.8.7-9.6 1.3-14.3 1.8-4.7.5-9.3.9-13.7 1.4-4.4.6-8.7 1-12.9.4-4.2-.4-8.2-1.4-11.8-2.6-3.6-1.2-6.9-2.6-9.8-3.9-2.9-1.4-5.4-2.7-7.4-3.8-2-1.1-3.6-2.1-4.6-2.8-1-.7-1.7-1.1-1.7-1.1 1.2-.9 2.3-2 3.4-3.1z" clip-path="url(#d)" stroke-linecap="round" stroke-linejoin="round"/>
    <path fill="#FFF" d="M434.4 323s1.5 0 4.2.3c1.3.1 3 .4 4.8.7 1.9.3 4 .8 6.3 1.4 1.1.3 2.3.6 3.6 1 1.2.4 2.4.8 3.7 1.3 1 .3 2.4.4 3.6.5 1.3.1 2.7.2 4 .2 5.5.2 11.4.3 17.3.2 2.9 0 5.9-.1 8.8-.2 1.4 0 2.7-.4 4-.9 1.3-.5 2.6-1.1 3.9-1.7 2.6-1.2 5.1-2.5 7.5-3.7 2.4-1.2 4.6-2.5 6.8-3.7 4.3-2.3 8-3.9 11.2-4.4 1.5-.2 3 0 3.9.5.5.3.8.5.9.7l.3.3c-1 .8-2 1.6-3 2.3 0 0 0-.1-.3-.3-.2-.2-.8-.5-2-.4-2.3 0-6 1.3-10.4 3-2.2.9-4.5 1.9-6.9 3.1-2.4 1.2-4.9 2.6-7.5 3.9-2.6 1.2-5.3 2.6-8.4 3l-8.7.6c-5.8.3-11.7.5-17.2.2-1.4-.1-2.7-.1-4.1-.2-1.4-.1-2.6-.2-4.2-.7-1.3-.5-2.5-.9-3.7-1.4-1.2-.4-2.3-.8-3.4-1.2-2.2-.7-4.3-1.4-6.1-1.9-1.8-.6-3.4-1-4.8-1.4-2.7-.7-4.2-1.1-4.2-1.1.1.2.1.1.1 0" clip-path="url(#d)"/>
    <path fill="none" stroke="#FFF" stroke-width=".455" stroke-miterlimit="10" d="M434.4 323s1.5 0 4.2.3c1.3.1 3 .4 4.8.7 1.9.3 4 .8 6.3 1.4 1.1.3 2.3.6 3.6 1 1.2.4 2.4.8 3.7 1.3 1 .3 2.4.4 3.6.5 1.3.1 2.7.2 4 .2 5.5.2 11.4.3 17.3.2 2.9 0 5.9-.1 8.8-.2 1.4 0 2.7-.4 4-.9 1.3-.5 2.6-1.1 3.9-1.7 2.6-1.2 5.1-2.5 7.5-3.7 2.4-1.2 4.6-2.5 6.8-3.7 4.3-2.3 8-3.9 11.2-4.4 1.5-.2 3 0 3.9.5.5.3.8.5.9.7l.3.3c-1 .8-2 1.6-3 2.3 0 0 0-.1-.3-.3-.2-.2-.8-.5-2-.4-2.3 0-6 1.3-10.4 3-2.2.9-4.5 1.9-6.9 3.1-2.4 1.2-4.9 2.6-7.5 3.9-2.6 1.2-5.3 2.6-8.4 3l-8.7.6c-5.8.3-11.7.5-17.2.2-1.4-.1-2.7-.1-4.1-.2-1.4-.1-2.6-.2-4.2-.7-1.3-.5-2.5-.9-3.7-1.4-1.2-.4-2.3-.8-3.4-1.2-2.2-.7-4.3-1.4-6.1-1.9-1.8-.6-3.4-1-4.8-1.4-2.7-.7-4.2-1.1-4.2-1.1.1.2.1.1.1 0z" clip-path="url(#d)" stroke-linecap="round" stroke-linejoin="round"/>
    <path fill="#FFF" d="M415.3 258.6s.4-.3 1.3-.8c.8-.5 2.1-1.4 3.6-2.5s3.4-2.4 5.6-3.9c1.1-.8 2.3-1.5 3.5-2.2.6-.4 1.3-.8 1.9-1.2.7-.4 1.4-.7 2.1-1.1.7-.4 1.4-.7 2.2-1.1.7-.4 1.5-.7 2.3-1 1.6-.7 3.2-1.4 4.8-1.9 1.6-.5 3.4-1.3 5.2-1.7 1.7-.5 3.5-.9 5.3-1.4l5.4-1.2c.9-.2 1.8-.4 2.7-.5.9-.2 1.7-.5 2.6-.7 1-.2 1.8-.6 2.8-.8 1-.2 2-.5 2.9-.6 1.9-.4 3.8-.6 5.7-.7 3.8-.3 7.6-.3 11.3 0 .9.1 1.9.2 2.8.3.2 0 .5.1.7.1.2.1.5.1.7.2.4.1.9.2 1.3.3 1.8.4 3.6.7 5.3 1.3 1.7.6 3.6 1.4 5.2 2.1.8.4 1.6.7 2.3 1.1.8.4 1.5.8 2.3 1.1 1.5.7 3.1 1.3 4.5 2 1.5.6 3 1 4.5 1.4 2.9.8 5.6 1.4 7.9 1.9 2.4.5 4.5.9 6.2 1.1 1.7.2 3 .2 3.8.2.6-.1.9-.2.9-.2.1 0 .2 0 .2-.1 1.3-.3 2.8.6 3.3 2s-.1 2.7-1.4 3c-.3.1-.6.1-.9 0 0 0-.7-.1-1.9-.4-1-.3-2.5-.8-4.2-1.4-1.7-.6-3.8-1.3-6.2-2.2-2.4-.8-5-1.7-7.9-2.5-1.4-.4-3-.7-4.5-1-1.6-.3-3.3-.7-5-1-.4-.1-.9-.2-1.3-.3-.4-.2-.8-.3-1.2-.5-.8-.3-1.7-.7-2.5-1-1.7-.7-3.2-1.4-4.8-2.2-1.6-.7-3.4-1.3-5.1-2-.4-.2-.9-.3-1.3-.5-.2-.1-.4-.2-.6-.2-.2-.1-.4-.1-.7-.2-.9-.2-1.8-.5-2.6-.7-3.6-.6-7.3-.6-11 .2-1.8.4-3.7.9-5.5 1.5-1.8.6-3.5 1.3-5.3 2-1 .3-2 .7-3 .9-1 .2-1.9.4-2.9.6-1.9.3-3.6.6-5.5.9-3.6.6-7.1 1-10.3 1.9-1.6.3-3.2.9-4.7 1.4-.8.3-1.5.5-2.3.8-.7.3-1.4.7-2.1 1l-2.1.9c-.7.4-1.3.7-1.9 1-1.3.7-2.5 1.3-3.6 2-2.2 1.3-4.1 2.5-5.7 3.5-1.6 1-2.8 1.8-3.7 2.3-.9.5-1.3.8-1.3.8h-.2c0 .1 0 0 .1-.1" clip-path="url(#d)"/>
    <path fill="none" stroke="#FFF" stroke-width=".455" stroke-miterlimit="10" d="M415.3 258.6s.4-.3 1.3-.8c.8-.5 2.1-1.4 3.6-2.5s3.4-2.4 5.6-3.9c1.1-.8 2.3-1.5 3.5-2.2.6-.4 1.3-.8 1.9-1.2.7-.4 1.4-.7 2.1-1.1.7-.4 1.4-.7 2.2-1.1.7-.4 1.5-.7 2.3-1 1.6-.7 3.2-1.4 4.8-1.9 1.6-.5 3.4-1.3 5.2-1.7 1.7-.5 3.5-.9 5.3-1.4l5.4-1.2c.9-.2 1.8-.4 2.7-.5.9-.2 1.7-.5 2.6-.7 1-.2 1.8-.6 2.8-.8 1-.2 2-.5 2.9-.6 1.9-.4 3.8-.6 5.7-.7 3.8-.3 7.6-.3 11.3 0 .9.1 1.9.2 2.8.3.2 0 .5.1.7.1.2.1.5.1.7.2.4.1.9.2 1.3.3 1.8.4 3.6.7 5.3 1.3 1.7.6 3.6 1.4 5.2 2.1.8.4 1.6.7 2.3 1.1.8.4 1.5.8 2.3 1.1 1.5.7 3.1 1.3 4.5 2 1.5.6 3 1 4.5 1.4 2.9.8 5.6 1.4 7.9 1.9 2.4.5 4.5.9 6.2 1.1 1.7.2 3 .2 3.8.2.6-.1.9-.2.9-.2.1 0 .2 0 .2-.1 1.3-.3 2.8.6 3.3 2s-.1 2.7-1.4 3c-.3.1-.6.1-.9 0 0 0-.7-.1-1.9-.4-1-.3-2.5-.8-4.2-1.4-1.7-.6-3.8-1.3-6.2-2.2-2.4-.8-5-1.7-7.9-2.5-1.4-.4-3-.7-4.5-1-1.6-.3-3.3-.7-5-1-.4-.1-.9-.2-1.3-.3-.4-.2-.8-.3-1.2-.5-.8-.3-1.7-.7-2.5-1-1.7-.7-3.2-1.4-4.8-2.2-1.6-.7-3.4-1.3-5.1-2-.4-.2-.9-.3-1.3-.5-.2-.1-.4-.2-.6-.2-.2-.1-.4-.1-.7-.2-.9-.2-1.8-.5-2.6-.7-3.6-.6-7.3-.6-11 .2-1.8.4-3.7.9-5.5 1.5-1.8.6-3.5 1.3-5.3 2-1 .3-2 .7-3 .9-1 .2-1.9.4-2.9.6-1.9.3-3.6.6-5.5.9-3.6.6-7.1 1-10.3 1.9-1.6.3-3.2.9-4.7 1.4-.8.3-1.5.5-2.3.8-.7.3-1.4.7-2.1 1l-2.1.9c-.7.4-1.3.7-1.9 1-1.3.7-2.5 1.3-3.6 2-2.2 1.3-4.1 2.5-5.7 3.5-1.6 1-2.8 1.8-3.7 2.3-.9.5-1.3.8-1.3.8h-.2c0 .1 0 0 .1-.1z" clip-path="url(#d)" stroke-linecap="round" stroke-linejoin="round"/>
    <path fill="#7C6A19" d="M366.7 313.1s0-.1 0 0c0 0-1.6-1.9-4.5-5.6-2.9-3.7-7.2-9.1-11.6-16.3-4.4-7.2-8.4-16.4-10.2-26.6-.9-5.1-1.5-10.4-1.7-16-.1-2.8-.1-5.7-.1-8.6v-1.3c0-.4.1-.7.1-1.1.1-.7.2-1.5.3-2.2l.6-4.5c1.6-12.2 4.8-25.7 10.5-40.1 2.7-7.2 6.2-14.6 9.7-22.2.9-1.9 1.8-3.8 2.7-5.8 1-1.9 2-3.9 3.1-5.9 2.1-3.9 3.9-7.8 6.5-11.7 1.2-2 2.4-3.9 3.7-5.9 1.2-2 2.6-3.8 3.9-5.7 2.6-3.9 5.2-7.4 7.9-11.3 2.9-3.9 6.1-7.5 10-10.1 3.8-2.6 8.3-4.2 12.7-3.7 4.4.4 8.5 2.7 12.1 5.6 1.7 1.6 3.5 3.1 5 4.9l2.4 2.7c.8 1 1.4 1.9 2.2 2.8 2.8 3.7 5.8 7.3 8.5 11.4 2.8 3.9 5.6 7.8 8.1 11.9 1.3 2 2.6 4 4 6 1.3 2 2.5 4.1 3.7 6.1 1.2 2 2.5 4 3.7 6.1 1.1 2.1 2.3 4.1 3.4 6.1 4.6 8.1 8.7 16.3 11.9 24.4.7 2.1 1.5 4.1 2.2 6.1.6 2 1.3 4 1.9 6 1.3 3.9 2.6 7.9 3.8 11.7 2.3 7.8 3.9 15.5 4.5 23.1.6 7.7.1 15.3-1.5 23-1.6 7.7-4.3 15.3-7.7 22.7-.9 1.9-1.8 3.7-2.7 5.5-.5.9-.9 1.8-1.4 2.7-.1.1-.1.2-.2.3 0 .1-.1.1-.1.2 0 0-.2.4-.2.3-.1.2-.3.4-.4.7-.3.4-.5.9-.8 1.3-1 1.7-2.4 3.5-3.6 5.3-1.3 1.7-2.6 3.4-4 4.9-5.5 6.3-11.7 11.3-17.7 15-6 3.8-11.9 6.3-17.5 7.8s-11 2.1-16 2.1c-10.1-.1-18.9-2.9-26-6.3-7.2-3.4-12.6-7.6-16.1-10.7-1.7-1.6-3-2.9-3.8-3.8l-1.3-1.3" clip-path="url(#d)"/>
    <path fill="#7C6A19" d="M389.6 302.3s-.4-.6-1.2-1.7c-.4-.5-.8-1.2-1.3-2-.5-.7-1-1.7-1.5-2.7-.5-1-1.2-2.1-1.7-3.3-.5-1.2-1-2.5-1.6-3.8-.6-1.3-.9-2.7-1.4-4.2-.5-1.4-.9-2.9-1.1-4.4-.3-1.5-.6-3-.9-4.4-.1-1.5-.2-2.9-.3-4.3-.1-1.4.1-2.7.4-3.9.3-1.2.5-2.4.8-3.4.3-1.1.8-1.9 1.2-2.7.4-.8.8-1.5 1.1-2 .7-1.1 1.1-1.7 1.1-1.7.1-.1.2-.1.3 0 .1 0 .1.1.1.2 0 0 .1.8 0 2.1 0 .6 0 1.4-.1 2.3 0 .9-.2 1.8-.2 2.8v3.3c0 .6-.1 1.2-.1 1.8v1.9c0 1.3-.1 2.6-.2 3.9 0 1.3.1 2.7.2 4.1 0 1.4.3 2.8.5 4.1.3 1.4.4 2.7.8 4 .4 1.3.7 2.5 1.1 3.7.3 1.2.8 2.3 1.2 3.3.4 1 .7 2 1.1 2.8.4.8.8 1.5 1 2.1.6 1.2.9 1.9.9 1.9.1.1 0 .3-.1.3.1 0-.1 0-.1-.1m12.6 24.6s-1.3-.8-2.6-2.8c-.3-.5-.6-1.1-.9-1.7-.2-.6-.5-1.3-.6-2.1-.1-.4-.1-.7-.2-1.1v-2.3c.1-.4.2-.8.2-1.2.2-.8.5-1.4.6-2 .1-.3.2-.6.2-.9 0-.3.1-.5.1-.8.1-.5-.1-1.1-.2-1.6-.2-.6-.4-1.1-.6-1.6-.4-1-.9-1.8-1.1-2.4-.3-.6-.4-1-.4-1s.3.2.8.7c.2.2.5.5.8.9.3.3.7.7 1 1.2.3.5.7 1 1 1.7.2.7.6 1.4.6 2.2v1.2c0 .4-.1.8-.2 1.1-.2.7-.4 1.4-.5 2-.1.3-.1.6-.2.8 0 .3 0 .7-.1 1.1v.8c0 .3 0 .6.1 1 0 .6.2 1.2.3 1.8.1.6.3 1.1.4 1.6.7 2.1 1.5 3.4 1.5 3.4" clip-path="url(#d)"/>
    <path fill="#FFF" d="M366.7 313.1s0-.1 0 0c0 0-1.6-1.9-4.5-5.6-2.9-3.7-7.2-9-11.6-16.3-4.4-7.2-8.4-16.4-10.2-26.6-.9-5.1-1.5-10.4-1.7-16-.1-2.8-.1-5.7-.1-8.6v-1.3c0-.4.1-.7.1-1.1.1-.7.2-1.5.3-2.2l.6-4.5c1.7-12.2 4.8-25.7 10.5-40.1 2.7-7.2 6.2-14.6 9.7-22.2.9-1.9 1.8-3.8 2.7-5.8 1-1.9 2-3.9 3.1-5.9 2.1-3.9 3.9-7.8 6.5-11.7 1.2-2 2.4-3.9 3.7-5.9 1.2-2 2.6-3.8 3.9-5.7 2.6-3.9 5.2-7.4 7.9-11.3 2.9-3.9 6.1-7.5 10-10.1 3.8-2.6 8.3-4.2 12.7-3.7 4.4.4 8.5 2.7 12.1 5.6 1.7 1.6 3.5 3.1 5 4.9l2.4 2.7c.8 1 1.4 1.9 2.2 2.8 2.8 3.7 5.8 7.3 8.5 11.4 2.8 3.9 5.6 7.8 8.1 11.9 1.3 2 2.6 4 4 6 1.3 2 2.5 4.1 3.7 6.1 1.2 2 2.5 4 3.7 6.1 1.1 2.1 2.3 4.1 3.4 6.1 4.6 8.1 8.7 16.3 11.9 24.4.7 2.1 1.5 4.1 2.2 6.1.6 2 1.3 4 1.9 6 1.3 3.9 2.6 7.9 3.8 11.7 2.3 7.8 3.9 15.5 4.5 23.1.6 7.7.1 15.3-1.5 23-1.6 7.7-4.3 15.3-7.7 22.7-.9 1.9-1.8 3.7-2.7 5.5-.5.9-.9 1.8-1.4 2.7-.1.1-.1.2-.2.3 0 .1-.1.1-.1.2 0 0-.2.4-.2.3-.1.2-.3.4-.4.7-.3.4-.5.9-.8 1.3-1 1.7-2.4 3.5-3.6 5.3-1.3 1.7-2.6 3.4-4 4.9-5.5 6.3-11.7 11.3-17.7 15-6 3.8-11.9 6.3-17.5 7.8s-11 2.1-16 2.1c-10.1-.1-18.9-2.9-26-6.3-7.2-3.4-12.6-7.6-16.1-10.7-1.7-1.6-3-2.9-3.8-3.8l-1.3-1.3m1.3-1.1s.4.4 1.2 1.3c.7.9 2 2.1 3.6 3.6 3.3 2.9 8.5 6.8 15.5 9.9 7 3.2 15.6 5.5 25.5 5.4 9.8-.1 21-2.8 32.4-10 5.7-3.5 11.4-8.2 16.4-14 1.3-1.4 2.4-3 3.7-4.5 1.1-1.6 2.2-3 3.3-4.8.3-.4.5-.9.8-1.3.1-.2.3-.4.4-.6.1-.2 0 .1 0 0s.1-.1.1-.2c.1-.1.1-.2.2-.3.4-.9.9-1.8 1.3-2.6.9-1.8 1.8-3.5 2.6-5.3 3.2-7.2 5.7-14.6 7.4-22 1.6-7.5 2.2-15 1.8-22.5-.4-7.6-1.9-15.2-4-23-1.1-3.9-2.3-7.8-3.5-11.8-.6-2-1.2-4-1.8-6.1-.7-2-1.3-4-2-6-6.1-16-15.7-32.4-26.1-48.2-2.6-4-5.4-7.8-8.2-11.5-2.6-3.8-5.8-7.4-8.7-11-.7-.9-1.5-1.9-2.2-2.6-.8-.8-1.5-1.6-2.3-2.4-1.5-1.7-3.2-2.9-4.8-4.3-3.4-2.4-6.9-4.2-10.6-4.5-3.6-.3-7.3.9-10.5 3.2-3.3 2.2-6.2 5.5-8.7 8.8-2.5 3.6-5.3 7.5-7.7 11.1-1.2 1.9-2.6 3.7-3.7 5.6-1.1 1.9-2.3 3.8-3.4 5.6-2.4 3.6-4.2 7.7-6.3 11.5-1 1.9-2 3.8-2.9 5.6l-2.7 5.7c-3.5 7.6-6.9 14.9-9.5 22-5.4 14.2-8.7 27.4-10.7 39.6-.2 1.5-.5 3-.7 4.5-.1.7-.2 1.5-.3 2.2-.1.4-.1.7-.2 1.1v.3c0 .2 0-.1 0 0v.6c-.1 2.9-.2 5.8-.2 8.6 0 5.6.4 10.9 1.1 15.8 1.4 10 4.9 18.8 9 25.9 4.1 7.1 8.3 12.4 11.1 16 2.6 3.6 4.2 5.5 4.3 5.6" clip-path="url(#d)"/>
    <path fill="none" stroke="#FFF" stroke-width=".728" stroke-miterlimit="10" d="M366.7 313.1s0-.1 0 0c0 0-1.6-1.9-4.5-5.6-2.9-3.7-7.2-9-11.6-16.3-4.4-7.2-8.4-16.4-10.2-26.6-.9-5.1-1.5-10.4-1.7-16-.1-2.8-.1-5.7-.1-8.6v-1.3c0-.4.1-.7.1-1.1.1-.7.2-1.5.3-2.2l.6-4.5c1.7-12.2 4.8-25.7 10.5-40.1 2.7-7.2 6.2-14.6 9.7-22.2.9-1.9 1.8-3.8 2.7-5.8 1-1.9 2-3.9 3.1-5.9 2.1-3.9 3.9-7.8 6.5-11.7 1.2-2 2.4-3.9 3.7-5.9 1.2-2 2.6-3.8 3.9-5.7 2.6-3.9 5.2-7.4 7.9-11.3 2.9-3.9 6.1-7.5 10-10.1 3.8-2.6 8.3-4.2 12.7-3.7 4.4.4 8.5 2.7 12.1 5.6 1.7 1.6 3.5 3.1 5 4.9l2.4 2.7c.8 1 1.4 1.9 2.2 2.8 2.8 3.7 5.8 7.3 8.5 11.4 2.8 3.9 5.6 7.8 8.1 11.9 1.3 2 2.6 4 4 6 1.3 2 2.5 4.1 3.7 6.1 1.2 2 2.5 4 3.7 6.1 1.1 2.1 2.3 4.1 3.4 6.1 4.6 8.1 8.7 16.3 11.9 24.4.7 2.1 1.5 4.1 2.2 6.1.6 2 1.3 4 1.9 6 1.3 3.9 2.6 7.9 3.8 11.7 2.3 7.8 3.9 15.5 4.5 23.1.6 7.7.1 15.3-1.5 23-1.6 7.7-4.3 15.3-7.7 22.7-.9 1.9-1.8 3.7-2.7 5.5-.5.9-.9 1.8-1.4 2.7-.1.1-.1.2-.2.3 0 .1-.1.1-.1.2 0 0-.2.4-.2.3-.1.2-.3.4-.4.7-.3.4-.5.9-.8 1.3-1 1.7-2.4 3.5-3.6 5.3-1.3 1.7-2.6 3.4-4 4.9-5.5 6.3-11.7 11.3-17.7 15-6 3.8-11.9 6.3-17.5 7.8s-11 2.1-16 2.1c-10.1-.1-18.9-2.9-26-6.3-7.2-3.4-12.6-7.6-16.1-10.7-1.7-1.6-3-2.9-3.8-3.8l-1.3-1.3zm1.3-1.1s.4.4 1.2 1.3c.7.9 2 2.1 3.6 3.6 3.3 2.9 8.5 6.8 15.5 9.9 7 3.2 15.6 5.5 25.5 5.4 9.8-.1 21-2.8 32.4-10 5.7-3.5 11.4-8.2 16.4-14 1.3-1.4 2.4-3 3.7-4.5 1.1-1.6 2.2-3 3.3-4.8.3-.4.5-.9.8-1.3.1-.2.3-.4.4-.6.1-.2 0 .1 0 0s.1-.1.1-.2c.1-.1.1-.2.2-.3.4-.9.9-1.8 1.3-2.6.9-1.8 1.8-3.5 2.6-5.3 3.2-7.2 5.7-14.6 7.4-22 1.6-7.5 2.2-15 1.8-22.5-.4-7.6-1.9-15.2-4-23-1.1-3.9-2.3-7.8-3.5-11.8-.6-2-1.2-4-1.8-6.1-.7-2-1.3-4-2-6-6.1-16-15.7-32.4-26.1-48.2-2.6-4-5.4-7.8-8.2-11.5-2.6-3.8-5.8-7.4-8.7-11-.7-.9-1.5-1.9-2.2-2.6-.8-.8-1.5-1.6-2.3-2.4-1.5-1.7-3.2-2.9-4.8-4.3-3.4-2.4-6.9-4.2-10.6-4.5-3.6-.3-7.3.9-10.5 3.2-3.3 2.2-6.2 5.5-8.7 8.8-2.5 3.6-5.3 7.5-7.7 11.1-1.2 1.9-2.6 3.7-3.7 5.6-1.1 1.9-2.3 3.8-3.4 5.6-2.4 3.6-4.2 7.7-6.3 11.5-1 1.9-2 3.8-2.9 5.6l-2.7 5.7c-3.5 7.6-6.9 14.9-9.5 22-5.4 14.2-8.7 27.4-10.7 39.6-.2 1.5-.5 3-.7 4.5-.1.7-.2 1.5-.3 2.2-.1.4-.1.7-.2 1.1v.3c0 .2 0-.1 0 0v.6c-.1 2.9-.2 5.8-.2 8.6 0 5.6.4 10.9 1.1 15.8 1.4 10 4.9 18.8 9 25.9 4.1 7.1 8.3 12.4 11.1 16 2.6 3.6 4.2 5.5 4.3 5.6z" clip-path="url(#d)" stroke-linecap="round" stroke-linejoin="round"/>
    <path fill="#FFF" d="M383.6 310.9c.1.1.2.2.3.4l.2.2.1.1c0 .1 0-.1-.2-.1-.1 0-.3.1-.3.1-.1 0-.1.1-.1.3 0 .1.1.2.1.2l-.1-.1-.2-.2c-.1-.1-.2-.3-.3-.4-.4-.5-.9-1.1-1.3-1.6-.8-1.1-1.7-2.2-2.5-3.3-1.6-2.2-3.2-4.5-4.6-6.8-2.9-4.6-5.4-9.5-7-14.6-.8-2.5-1.3-5.1-1.5-7.7-.2-2.6.1-5.2.6-7.5 1-4.7 2.3-9.5 4.2-14.1 1.8-4.6 4-9.2 4.9-13.7.5-2.3.8-4.7 1.1-6.9.1-1.3.3-2.5.3-3.6.1-1.2.1-2.3.2-3.5.1-4.7-.1-9.5-.4-14.5l-.6-7.5c-.2-2.5-.4-5.1-.6-7.6 0 .1 0 .1.1.2-.4-1.7-.3-3.4-.1-5 .2-1.6.6-3.2 1-4.7.5-1.5.9-3 1.2-4.5.3-1.5.5-3.1.9-4.6.9-3 1.9-5.9 2.9-8.9 1-2.9 2-5.9 3.1-8.7 1.1-2.9 2.2-5.7 3.3-8.6 1.1-2.9 2.1-5.7 3-8.7.9-2.9 1.6-5.9 2-8.9.2-1.5.4-3 .4-4.5.1-1.5.1-3 .1-4.5.2-.1.5-.1.7-.2.2 1.5.4 3 .5 4.6.1 1.5.2 3.1.2 4.6 0 1.6-.1 3.1-.1 4.7-.1 1.6-.2 3.1-.4 4.7-.6 6.3-2 12.6-4.2 18.5-1.1 3-2.3 5.9-3.7 8.7-1.3 2.8-2.7 5.6-4 8.4-.7 1.4-1.5 2.7-2.2 4.1-.7 1.4-1.1 2.8-1.4 4.3-.2 1.4-.5 2.9-.4 4.3 0 1.4.2 2.7.7 3.8 0 .1 0 .1.1.2 1.3 4.8 2.9 9.6 4.1 14.7.6 2.5 1.1 5.1 1.4 7.8.2 2.7.5 5.4.3 8.1-.1 1.4-.1 2.7-.4 4.1-.2 1.4-.4 2.7-.7 3.9-.6 2.7-1.5 5.2-2.6 7.7s-2.4 4.7-3.7 6.9c-1.3 2.1-2.5 4.2-3.5 6.4-2.1 4.3-3.7 8.8-5 13.4-.7 2.3-1.1 4.4-1.1 6.8 0 2.4.4 4.8 1 7.2 1.3 4.9 3.5 9.7 6.2 14.3 1.4 2.3 2.8 4.6 4.4 6.8l2.4 3.3c.4.6.9 1.1 1.2 1.7.2.1.3.2.4.4l.2.2.1.1s.1.1.1.3v.4s-.2.1-.4 0c-.2 0-.3-.2-.3-.2l-.1-.1-.2-.2c-.1-.1-.2-.2-.3-.4.2-.2.3-.4.5-.5" clip-path="url(#d)"/>
    <path fill="none" stroke="#FFF" stroke-width=".728" stroke-miterlimit="10" d="M383.6 310.9c.1.1.2.2.3.4l.2.2.1.1c0 .1 0-.1-.2-.1-.1 0-.3.1-.3.1-.1 0-.1.1-.1.3 0 .1.1.2.1.2l-.1-.1-.2-.2c-.1-.1-.2-.3-.3-.4-.4-.5-.9-1.1-1.3-1.6-.8-1.1-1.7-2.2-2.5-3.3-1.6-2.2-3.2-4.5-4.6-6.8-2.9-4.6-5.4-9.5-7-14.6-.8-2.5-1.3-5.1-1.5-7.7-.2-2.6.1-5.2.6-7.5 1-4.7 2.3-9.5 4.2-14.1 1.8-4.6 4-9.2 4.9-13.7.5-2.3.8-4.7 1.1-6.9.1-1.3.3-2.5.3-3.6.1-1.2.1-2.3.2-3.5.1-4.7-.1-9.5-.4-14.5l-.6-7.5c-.2-2.5-.4-5.1-.6-7.6 0 .1 0 .1.1.2-.4-1.7-.3-3.4-.1-5 .2-1.6.6-3.2 1-4.7.5-1.5.9-3 1.2-4.5.3-1.5.5-3.1.9-4.6.9-3 1.9-5.9 2.9-8.9 1-2.9 2-5.9 3.1-8.7 1.1-2.9 2.2-5.7 3.3-8.6 1.1-2.9 2.1-5.7 3-8.7.9-2.9 1.6-5.9 2-8.9.2-1.5.4-3 .4-4.5.1-1.5.1-3 .1-4.5.2-.1.5-.1.7-.2.2 1.5.4 3 .5 4.6.1 1.5.2 3.1.2 4.6 0 1.6-.1 3.1-.1 4.7-.1 1.6-.2 3.1-.4 4.7-.6 6.3-2 12.6-4.2 18.5-1.1 3-2.3 5.9-3.7 8.7-1.3 2.8-2.7 5.6-4 8.4-.7 1.4-1.5 2.7-2.2 4.1-.7 1.4-1.1 2.8-1.4 4.3-.2 1.4-.5 2.9-.4 4.3 0 1.4.2 2.7.7 3.8 0 .1 0 .1.1.2 1.3 4.8 2.9 9.6 4.1 14.7.6 2.5 1.1 5.1 1.4 7.8.2 2.7.5 5.4.3 8.1-.1 1.4-.1 2.7-.4 4.1-.2 1.4-.4 2.7-.7 3.9-.6 2.7-1.5 5.2-2.6 7.7s-2.4 4.7-3.7 6.9c-1.3 2.1-2.5 4.2-3.5 6.4-2.1 4.3-3.7 8.8-5 13.4-.7 2.3-1.1 4.4-1.1 6.8 0 2.4.4 4.8 1 7.2 1.3 4.9 3.5 9.7 6.2 14.3 1.4 2.3 2.8 4.6 4.4 6.8l2.4 3.3c.4.6.9 1.1 1.2 1.7.2.1.3.2.4.4l.2.2.1.1s.1.1.1.3v.4s-.2.1-.4 0c-.2 0-.3-.2-.3-.2l-.1-.1-.2-.2c-.1-.1-.2-.2-.3-.4.2-.2.3-.4.5-.5z" clip-path="url(#d)" stroke-linecap="round" stroke-linejoin="round"/>
    <path fill="#FFF" d="M389.6 302.3s-.4-.6-1.2-1.7c-.4-.5-.8-1.2-1.3-2-.5-.7-1-1.7-1.5-2.7-.5-1-1.2-2.1-1.7-3.3-.5-1.2-1-2.5-1.6-3.8-.6-1.3-.9-2.7-1.4-4.2-.5-1.4-.9-2.9-1.1-4.4-.3-1.5-.6-3-.9-4.4-.1-1.5-.2-2.9-.3-4.3-.1-1.4.1-2.7.4-3.9.3-1.2.5-2.4.8-3.4.3-1.1.8-1.9 1.2-2.7.4-.8.8-1.5 1.1-2 .7-1.1 1.1-1.7 1.1-1.7.1-.1.2-.1.3 0 .1 0 .1.1.1.2 0 0 .1.8 0 2.1 0 .6 0 1.4-.1 2.3 0 .9-.2 1.8-.2 2.8v3.3c0 .6-.1 1.2-.1 1.8v1.9c0 1.3-.1 2.6-.2 3.9 0 1.3.1 2.7.2 4.1 0 1.4.3 2.8.5 4.1.3 1.4.4 2.7.8 4 .4 1.3.7 2.5 1.1 3.7.3 1.2.8 2.3 1.2 3.3.4 1 .7 2 1.1 2.8.4.8.8 1.5 1 2.1.6 1.2.9 1.9.9 1.9.1.1 0 .3-.1.3.1 0-.1 0-.1-.1" clip-path="url(#d)"/>
    <path fill="none" stroke="#FFF" stroke-width=".728" stroke-miterlimit="10" d="M389.6 302.3s-.4-.6-1.2-1.7c-.4-.5-.8-1.2-1.3-2-.5-.7-1-1.7-1.5-2.7-.5-1-1.2-2.1-1.7-3.3-.5-1.2-1-2.5-1.6-3.8-.6-1.3-.9-2.7-1.4-4.2-.5-1.4-.9-2.9-1.1-4.4-.3-1.5-.6-3-.9-4.4-.1-1.5-.2-2.9-.3-4.3-.1-1.4.1-2.7.4-3.9.3-1.2.5-2.4.8-3.4.3-1.1.8-1.9 1.2-2.7.4-.8.8-1.5 1.1-2 .7-1.1 1.1-1.7 1.1-1.7.1-.1.2-.1.3 0 .1 0 .1.1.1.2 0 0 .1.8 0 2.1 0 .6 0 1.4-.1 2.3 0 .9-.2 1.8-.2 2.8v3.3c0 .6-.1 1.2-.1 1.8v1.9c0 1.3-.1 2.6-.2 3.9 0 1.3.1 2.7.2 4.1 0 1.4.3 2.8.5 4.1.3 1.4.4 2.7.8 4 .4 1.3.7 2.5 1.1 3.7.3 1.2.8 2.3 1.2 3.3.4 1 .7 2 1.1 2.8.4.8.8 1.5 1 2.1.6 1.2.9 1.9.9 1.9.1.1 0 .3-.1.3.1 0-.1 0-.1-.1z" clip-path="url(#d)" stroke-linecap="round" stroke-linejoin="round"/>
    <path fill="#FFF" d="M410.5 320.6s-.1-.2-.3-.5c-.2-.3-.5-.9-.8-1.5-.7-1.2-1.9-3-3.2-5.6-1.3-2.5-2.7-5.9-3.5-9.8-.8-4-1.1-8.5-1-13.3.2-2.4-.2-4.9-.3-7.5-.2-2.6-.5-5.3-.8-8.1-.6-5.6-1.1-11.4-.9-17.3.1-3 .3-6 1-9s1.7-6 2.4-9.1c.6-3.1 1.2-6.2 1.7-9.3.5-3.2-.4-6.2-1-9.4-1.2-6.3-2.8-12.4-3.4-18.9-.1-1.6-.2-3.3-.1-4.9 0-.8.2-1.7.2-2.5.1-.7.2-1.5.2-2.2.3-3.1.4-5.9.5-8.9.1-5.9.2-11.7.5-17.3l.3-4.2.6-4.2c.5-2.6.9-4.8 1.1-7 .4-4.1-.2-7.6-1-11.3-.8-3.8-1.2-7.5-1-10.6.2-3.1 1-5.5 1.7-7 .3-.8.7-1.3.9-1.6.2-.3.3-.5.3-.5.2.1.4.2.7.2v.6c0 .4 0 1 .1 1.7.1 1.5.4 3.5 1.1 5.9.7 2.5 1.8 5.3 3.2 8.9 1.4 3.6 2.7 8.9 2 14.4-.3 2.6-.8 5.3-1.3 7.8-.2 1.2-.5 2.4-.7 3.6-.2 1.3-.4 2.6-.5 3.9-.7 5.4-1.3 11.1-2.2 17.1-.4 2.9-1 6.2-1.7 9.2-.2.8-.4 1.6-.6 2.3-.2.7-.4 1.4-.5 2.1-.3 1.4-.4 2.9-.5 4.4-.3 6.1.7 12.4 1.5 18.8.4 3.2.7 6.4 1.2 9.6.6 3.2 1.1 6.4 1.4 9.6.4 3.2 1 6.4 1.3 9.5.3 3.1.1 6.2-.2 9.2-.7 6-2 11.6-3.4 17-.7 2.7-1.2 5.3-1.7 7.8-.4 2.6-1 5-.8 7.3.2 4.7 1 9 2.1 12.6 1.1 3.6 2.3 6.6 3.4 9.2 1 2.6 1.8 4.7 2.1 6.3.2.8.2 1.4.2 1.8v.6s-.2 0-.3.1" clip-path="url(#d)"/>
    <path fill="none" stroke="#FFF" stroke-width=".728" stroke-miterlimit="10" d="M410.5 320.6s-.1-.2-.3-.5c-.2-.3-.5-.9-.8-1.5-.7-1.2-1.9-3-3.2-5.6-1.3-2.5-2.7-5.9-3.5-9.8-.8-4-1.1-8.5-1-13.3.2-2.4-.2-4.9-.3-7.5-.2-2.6-.5-5.3-.8-8.1-.6-5.6-1.1-11.4-.9-17.3.1-3 .3-6 1-9s1.7-6 2.4-9.1c.6-3.1 1.2-6.2 1.7-9.3.5-3.2-.4-6.2-1-9.4-1.2-6.3-2.8-12.4-3.4-18.9-.1-1.6-.2-3.3-.1-4.9 0-.8.2-1.7.2-2.5.1-.7.2-1.5.2-2.2.3-3.1.4-5.9.5-8.9.1-5.9.2-11.7.5-17.3l.3-4.2.6-4.2c.5-2.6.9-4.8 1.1-7 .4-4.1-.2-7.6-1-11.3-.8-3.8-1.2-7.5-1-10.6.2-3.1 1-5.5 1.7-7 .3-.8.7-1.3.9-1.6.2-.3.3-.5.3-.5.2.1.4.2.7.2v.6c0 .4 0 1 .1 1.7.1 1.5.4 3.5 1.1 5.9.7 2.5 1.8 5.3 3.2 8.9 1.4 3.6 2.7 8.9 2 14.4-.3 2.6-.8 5.3-1.3 7.8-.2 1.2-.5 2.4-.7 3.6-.2 1.3-.4 2.6-.5 3.9-.7 5.4-1.3 11.1-2.2 17.1-.4 2.9-1 6.2-1.7 9.2-.2.8-.4 1.6-.6 2.3-.2.7-.4 1.4-.5 2.1-.3 1.4-.4 2.9-.5 4.4-.3 6.1.7 12.4 1.5 18.8.4 3.2.7 6.4 1.2 9.6.6 3.2 1.1 6.4 1.4 9.6.4 3.2 1 6.4 1.3 9.5.3 3.1.1 6.2-.2 9.2-.7 6-2 11.6-3.4 17-.7 2.7-1.2 5.3-1.7 7.8-.4 2.6-1 5-.8 7.3.2 4.7 1 9 2.1 12.6 1.1 3.6 2.3 6.6 3.4 9.2 1 2.6 1.8 4.7 2.1 6.3.2.8.2 1.4.2 1.8v.6s-.2 0-.3.1z" clip-path="url(#d)" stroke-linecap="round" stroke-linejoin="round"/>
    <path fill="#FFF" d="M394.6 194.5s-.5-.9-1.2-2.6c-.4-.8-.7-1.8-1-3.1-.3-1.2-.7-2.7-.8-4.2l-.3-2.4v-2.6c-.1-1.8.3-3.7.6-5.7.5-1.9 1-3.9 1.8-5.9.4-1 .7-2 1.1-2.9.4-1 .8-1.9 1.2-2.9.4-1 .7-1.9 1.1-2.9.4-1 .6-1.9.9-2.8.5-1.9.9-3.8 1.1-5.7.4-3.7.5-7.3.4-10.3-.1-3-.4-5.5-.6-7.3-.2-1.8-.3-2.8-.3-2.8.1 0 .2 0 .3-.1 0 0 .2 1 .5 2.7.3 1.7.8 4.2 1.1 7.3.2 1.5.3 3.2.4 4.9.1 1.8 0 3.6-.1 5.6-.1 2-.4 4-.8 6-.2 1-.5 2.1-.8 3l-.9 3c-.3 1-.6 1.9-.8 2.9-.2 1-.4 2-.6 2.9-.4 1.9-.5 3.9-.8 5.7-.1 1.8-.5 3.6-.6 5.3-.2 1.7-.3 3.3-.4 4.7-.1 1.5-.1 2.8-.2 4-.1 1.2-.1 2.3 0 3.2 0 1.8-.1 2.9-.1 2.9s-.1 0-.2.1" clip-path="url(#d)"/>
    <path fill="none" stroke="#FFF" stroke-width=".728" stroke-miterlimit="10" d="M394.6 194.5s-.5-.9-1.2-2.6c-.4-.8-.7-1.8-1-3.1-.3-1.2-.7-2.7-.8-4.2l-.3-2.4v-2.6c-.1-1.8.3-3.7.6-5.7.5-1.9 1-3.9 1.8-5.9.4-1 .7-2 1.1-2.9.4-1 .8-1.9 1.2-2.9.4-1 .7-1.9 1.1-2.9.4-1 .6-1.9.9-2.8.5-1.9.9-3.8 1.1-5.7.4-3.7.5-7.3.4-10.3-.1-3-.4-5.5-.6-7.3-.2-1.8-.3-2.8-.3-2.8.1 0 .2 0 .3-.1 0 0 .2 1 .5 2.7.3 1.7.8 4.2 1.1 7.3.2 1.5.3 3.2.4 4.9.1 1.8 0 3.6-.1 5.6-.1 2-.4 4-.8 6-.2 1-.5 2.1-.8 3l-.9 3c-.3 1-.6 1.9-.8 2.9-.2 1-.4 2-.6 2.9-.4 1.9-.5 3.9-.8 5.7-.1 1.8-.5 3.6-.6 5.3-.2 1.7-.3 3.3-.4 4.7-.1 1.5-.1 2.8-.2 4-.1 1.2-.1 2.3 0 3.2 0 1.8-.1 2.9-.1 2.9s-.1 0-.2.1z" clip-path="url(#d)" stroke-linecap="round" stroke-linejoin="round"/>
    <path fill="#FFF" d="M425.9 289.3s-.6-1.6-1-4.5-.6-7.1.2-12.2c.4-2.5 1-5.2 1.9-8 .5-1.4 1-2.8 1.6-4.2.6-1.4 1.2-2.8 1.9-4.2 1.1-2.7 1.9-5.7 1.7-8.8-.2-3.1-1.3-6.1-2.6-9-1.4-2.9-2.9-5.9-4.3-8.8-.7-1.5-1.3-3-1.8-4.6-.5-1.6-.9-3.2-1.3-4.6-.8-2.9-1.6-5.9-2.2-8.7-.6-2.8-.9-5.6-1-8.1-.2-2.6-.1-4.9.3-7 .3-2.1.8-3.8 1.3-5.2.5-1.4 1-2.5 1.4-3.2.4-.7.6-1.1.6-1.1.1-.1.2-.1.3-.1.1 0 .1.1.1.2 0 0 .1.4.2 1.2.1.8.2 1.9.3 3.4.1 1.4.2 3.1.3 5.1.1 1.9.2 4.1.4 6.4.1 2.4.4 4.9.7 7.7.4 2.8.7 5.7 1.1 8.7.2 1.6.3 3.1.6 4.6.3 1.5.6 3 1 4.5.8 3 2.1 6 3.3 9.1 1.2 3 2.3 6.2 2.7 9.5.4 3.3.1 6.7-.8 9.8-.5 1.6-1 3-1.4 4.4-.4 1.4-.8 2.8-1.1 4.1-.7 2.7-1.1 5.2-1.6 7.6-.8 4.7-1.4 8.7-1.9 11.6-.5 2.8-.8 4.5-.8 4.5 0 .1-.1.2-.2.2.2-.2.1-.3.1-.3" clip-path="url(#d)"/>
    <path fill="none" stroke="#FFF" stroke-width=".728" stroke-miterlimit="10" d="M425.9 289.3s-.6-1.6-1-4.5-.6-7.1.2-12.2c.4-2.5 1-5.2 1.9-8 .5-1.4 1-2.8 1.6-4.2.6-1.4 1.2-2.8 1.9-4.2 1.1-2.7 1.9-5.7 1.7-8.8-.2-3.1-1.3-6.1-2.6-9-1.4-2.9-2.9-5.9-4.3-8.8-.7-1.5-1.3-3-1.8-4.6-.5-1.6-.9-3.2-1.3-4.6-.8-2.9-1.6-5.9-2.2-8.7-.6-2.8-.9-5.6-1-8.1-.2-2.6-.1-4.9.3-7 .3-2.1.8-3.8 1.3-5.2.5-1.4 1-2.5 1.4-3.2.4-.7.6-1.1.6-1.1.1-.1.2-.1.3-.1.1 0 .1.1.1.2 0 0 .1.4.2 1.2.1.8.2 1.9.3 3.4.1 1.4.2 3.1.3 5.1.1 1.9.2 4.1.4 6.4.1 2.4.4 4.9.7 7.7.4 2.8.7 5.7 1.1 8.7.2 1.6.3 3.1.6 4.6.3 1.5.6 3 1 4.5.8 3 2.1 6 3.3 9.1 1.2 3 2.3 6.2 2.7 9.5.4 3.3.1 6.7-.8 9.8-.5 1.6-1 3-1.4 4.4-.4 1.4-.8 2.8-1.1 4.1-.7 2.7-1.1 5.2-1.6 7.6-.8 4.7-1.4 8.7-1.9 11.6-.5 2.8-.8 4.5-.8 4.5 0 .1-.1.2-.2.2.2-.2.1-.3.1-.3z" clip-path="url(#d)" stroke-linecap="round" stroke-linejoin="round"/>
    <path fill="#FFF" d="M402.2 326.9s-1.3-.8-2.6-2.8c-.3-.5-.6-1.1-.9-1.7-.2-.6-.5-1.3-.6-2.1-.1-.4-.1-.7-.2-1.1v-2.3c.1-.4.2-.8.2-1.2.2-.8.5-1.4.6-2 .1-.3.2-.6.2-.9 0-.3.1-.5.1-.8.1-.5-.1-1.1-.2-1.6-.2-.6-.4-1.1-.6-1.6-.4-1-.9-1.8-1.1-2.4-.3-.6-.4-1-.4-1s.3.2.8.7c.2.2.5.5.8.9.3.3.7.7 1 1.2.3.5.7 1 1 1.7.2.7.6 1.4.6 2.2v1.2c0 .4-.1.8-.2 1.1-.2.7-.4 1.4-.5 2-.1.3-.1.6-.2.8 0 .3 0 .7-.1 1.1v.8c0 .3 0 .6.1 1 0 .6.2 1.2.3 1.8.1.6.3 1.1.4 1.6.7 2.1 1.5 3.4 1.5 3.4" clip-path="url(#d)"/>
    <path fill="none" stroke="#FFF" stroke-width=".728" stroke-miterlimit="10" d="M402.2 326.9s-1.3-.8-2.6-2.8c-.3-.5-.6-1.1-.9-1.7-.2-.6-.5-1.3-.6-2.1-.1-.4-.1-.7-.2-1.1v-2.3c.1-.4.2-.8.2-1.2.2-.8.5-1.4.6-2 .1-.3.2-.6.2-.9 0-.3.1-.5.1-.8.1-.5-.1-1.1-.2-1.6-.2-.6-.4-1.1-.6-1.6-.4-1-.9-1.8-1.1-2.4-.3-.6-.4-1-.4-1s.3.2.8.7c.2.2.5.5.8.9.3.3.7.7 1 1.2.3.5.7 1 1 1.7.2.7.6 1.4.6 2.2v1.2c0 .4-.1.8-.2 1.1-.2.7-.4 1.4-.5 2-.1.3-.1.6-.2.8 0 .3 0 .7-.1 1.1v.8c0 .3 0 .6.1 1 0 .6.2 1.2.3 1.8.1.6.3 1.1.4 1.6.7 2.1 1.5 3.4 1.5 3.4z" clip-path="url(#d)" stroke-linecap="round" stroke-linejoin="round"/>
    <path fill="#FFF" d="M421 331.6s.7-1.8 1.6-4.3c.5-1.3 1-2.8 1.5-4.4.2-.8.5-1.7.8-2.5.3-.8.6-1.7.8-2.6.5-1.8 1-3.5 1.3-5.2.2-.8.3-1.6.5-2.4.2-.8.3-1.5.4-2.2.4-2.7.8-4.6.8-4.6s.3 1.8.4 4.6c.1.7.1 1.5 0 2.3-.1.8-.1 1.7-.3 2.5-.1.9-.2 1.8-.4 2.7-.2.9-.5 1.8-.7 2.8-.4 1.9-1.2 3.6-1.8 5.3-.3.8-.8 1.6-1.1 2.3-.4.7-.7 1.4-1.1 2-1.5 2.4-2.7 3.7-2.7 3.7" clip-path="url(#d)"/>
    <path fill="none" stroke="#FFF" stroke-width=".728" stroke-miterlimit="10" d="M421 331.6s.7-1.8 1.6-4.3c.5-1.3 1-2.8 1.5-4.4.2-.8.5-1.7.8-2.5.3-.8.6-1.7.8-2.6.5-1.8 1-3.5 1.3-5.2.2-.8.3-1.6.5-2.4.2-.8.3-1.5.4-2.2.4-2.7.8-4.6.8-4.6s.3 1.8.4 4.6c.1.7.1 1.5 0 2.3-.1.8-.1 1.7-.3 2.5-.1.9-.2 1.8-.4 2.7-.2.9-.5 1.8-.7 2.8-.4 1.9-1.2 3.6-1.8 5.3-.3.8-.8 1.6-1.1 2.3-.4.7-.7 1.4-1.1 2-1.5 2.4-2.7 3.7-2.7 3.7z" clip-path="url(#d)" stroke-linecap="round" stroke-linejoin="round"/>
    <path fill="#FFF" d="M452.6 316.4s.2-1 .5-2.8c.1-.9.4-2 .5-3.2.2-1.2.5-2.6.6-4.1.2-1.5.4-3.1.6-4.8.1-.8.2-1.7.3-2.6 0-.9.1-1.8.2-2.7.3-1.8.3-3.7.4-5.6.1-2 .2-4 .2-6 0-1 .1-2 .3-3.1.2-1.1.3-2.1.5-3.2.5-2 .9-4.1 1.6-5.9.6-1.9 1.2-3.7 1.9-5.3.6-1.7 1.2-3.2 1.8-4.7.6-1.4.9-2.8 1.3-3.9.4-1.2.6-2.2.8-3.1.4-1.7.6-2.7.6-2.7h.5s-.1 1-.3 2.7c-.1.9-.1 1.9-.4 3.2-.3 1.2-.5 2.6-.9 4.1-.4 1.5-.8 3.1-1.3 4.8-.5 1.7-1 3.5-1.4 5.3-.5 1.8-.7 3.7-1.1 5.6-.1.9-.1 1.8-.2 2.8 0 .5-.1.9-.1 1.4 0 .5 0 1 .1 1.5.1 1 .1 1.9.2 2.9s.1 1.9.2 2.8c.2 2 .2 3.9.1 5.9-.1 1-.2 1.9-.3 2.9-.2.9-.4 1.9-.6 2.8-.2.9-.4 1.8-.6 2.6-.3.8-.5 1.7-.8 2.4-.5 1.6-1.1 3-1.6 4.2-.5 1.2-1.1 2.3-1.5 3.2-.9 1.8-1.5 2.7-1.5 2.7-.3 0-.4-.1-.6-.1" clip-path="url(#d)"/>
    <path fill="none" stroke="#FFF" stroke-width=".728" stroke-miterlimit="10" d="M452.6 316.4s.2-1 .5-2.8c.1-.9.4-2 .5-3.2.2-1.2.5-2.6.6-4.1.2-1.5.4-3.1.6-4.8.1-.8.2-1.7.3-2.6 0-.9.1-1.8.2-2.7.3-1.8.3-3.7.4-5.6.1-2 .2-4 .2-6 0-1 .1-2 .3-3.1.2-1.1.3-2.1.5-3.2.5-2 .9-4.1 1.6-5.9.6-1.9 1.2-3.7 1.9-5.3.6-1.7 1.2-3.2 1.8-4.7.6-1.4.9-2.8 1.3-3.9.4-1.2.6-2.2.8-3.1.4-1.7.6-2.7.6-2.7h.5s-.1 1-.3 2.7c-.1.9-.1 1.9-.4 3.2-.3 1.2-.5 2.6-.9 4.1-.4 1.5-.8 3.1-1.3 4.8-.5 1.7-1 3.5-1.4 5.3-.5 1.8-.7 3.7-1.1 5.6-.1.9-.1 1.8-.2 2.8 0 .5-.1.9-.1 1.4 0 .5 0 1 .1 1.5.1 1 .1 1.9.2 2.9s.1 1.9.2 2.8c.2 2 .2 3.9.1 5.9-.1 1-.2 1.9-.3 2.9-.2.9-.4 1.9-.6 2.8-.2.9-.4 1.8-.6 2.6-.3.8-.5 1.7-.8 2.4-.5 1.6-1.1 3-1.6 4.2-.5 1.2-1.1 2.3-1.5 3.2-.9 1.8-1.5 2.7-1.5 2.7-.3 0-.4-.1-.6-.1z" clip-path="url(#d)" stroke-linecap="round" stroke-linejoin="round"/>
    <path fill="#FFF" d="M458.7 218.1s-.8-1.3-1.7-3.6c-.5-1.1-1-2.5-1.5-4.2-.6-1.6-1.1-3.4-1.6-5.5-.5-2-1-4.2-1.4-6.5-.4-2.3-.5-4.8-.6-7.4-.1-2.6-.4-5.3-.9-8s-1-5.4-1.7-8.2c-.7-2.7-1.5-5.4-2.4-8.1-.9-2.6-2-5.2-3.4-7.5-1.3-2.5-2.6-4.6-3.9-6.7-1.3-2.1-2.5-4.2-3.6-6-1.1-1.9-2-3.7-2.8-5.4-.7-1.7-1.4-3.1-1.7-4.3-.8-2.4-1.2-3.8-1.2-3.8.1 0 .3-.1.4-.1 0 0 .7 1.3 1.9 3.5.6 1.1 1.4 2.4 2.2 4 .9 1.5 1.9 3.2 3.2 5 1.2 1.8 2.6 3.8 3.8 6 1.3 2.2 2.4 4.7 3.4 7.2.5 1.2 1 2.6 1.5 3.9.5 1.3 1 2.6 1.4 4 .5 1.3 1 2.7 1.4 4 .4 1.4.9 2.7 1.3 4.1l2.7 8.1c.8 2.7 1.8 5.3 2.8 7.8 1 2.5 1.9 4.9 2.4 7.3.6 2.3.8 4.6 1 6.6.1 2.1.3 3.9.2 5.6 0 1.7-.1 3.2-.2 4.4-.2 2.4-.7 3.9-.7 3.9 0-.2-.1-.1-.3-.1" clip-path="url(#d)"/>
    <path fill="none" stroke="#FFF" stroke-width=".728" stroke-miterlimit="10" d="M458.7 218.1s-.8-1.3-1.7-3.6c-.5-1.1-1-2.5-1.5-4.2-.6-1.6-1.1-3.4-1.6-5.5-.5-2-1-4.2-1.4-6.5-.4-2.3-.5-4.8-.6-7.4-.1-2.6-.4-5.3-.9-8s-1-5.4-1.7-8.2c-.7-2.7-1.5-5.4-2.4-8.1-.9-2.6-2-5.2-3.4-7.5-1.3-2.5-2.6-4.6-3.9-6.7-1.3-2.1-2.5-4.2-3.6-6-1.1-1.9-2-3.7-2.8-5.4-.7-1.7-1.4-3.1-1.7-4.3-.8-2.4-1.2-3.8-1.2-3.8.1 0 .3-.1.4-.1 0 0 .7 1.3 1.9 3.5.6 1.1 1.4 2.4 2.2 4 .9 1.5 1.9 3.2 3.2 5 1.2 1.8 2.6 3.8 3.8 6 1.3 2.2 2.4 4.7 3.4 7.2.5 1.2 1 2.6 1.5 3.9.5 1.3 1 2.6 1.4 4 .5 1.3 1 2.7 1.4 4 .4 1.4.9 2.7 1.3 4.1l2.7 8.1c.8 2.7 1.8 5.3 2.8 7.8 1 2.5 1.9 4.9 2.4 7.3.6 2.3.8 4.6 1 6.6.1 2.1.3 3.9.2 5.6 0 1.7-.1 3.2-.2 4.4-.2 2.4-.7 3.9-.7 3.9 0-.2-.1-.1-.3-.1z" clip-path="url(#d)" stroke-linecap="round" stroke-linejoin="round"/>
    <path fill="#FFF" d="M430.9 319.2s.5-.5 1.5-1.6 2.5-2.8 4.3-5.1c3.5-4.6 8.2-11.8 11.9-21.2 1.8-4.7 3.3-9.9 4.1-15.4.7-5.5.6-11.2-.4-17.1-.8-5.9-1.9-12-3.3-18.2-1.5-6.2-3-12.4-4.8-18.7-.8-3.2-1.6-6.4-2.3-9.6-.7-3.2-1.5-6.4-1.9-9.7-.5-3.4-.7-6.7-.7-9.9s.2-6.3.1-9.3c-.1-5.9-1.8-11.6-3.8-16.9-1-2.6-2.3-5.2-3.5-7.6-1.2-2.5-2.4-4.9-3.6-7.2-2.1-4.7-3.8-9-5.2-12.8-1.4-3.8-2.5-7.2-3.3-10-1.7-5.6-2.5-8.9-2.5-8.9.1 0 .2-.1.3-.1 0 0 .4.7 1.1 2.1.7 1.4 1.7 3.5 2.9 6.2s2.6 6 4.1 9.9c1.3 3.9 2.7 8.4 4.2 13.1 1.4 4.9 4.5 9.4 7.4 14.6 2.8 5.2 5.2 11.1 6.3 17.6 1.1 6.4 1.5 12.5 2.5 18.6 1.1 6.3 2.2 12.7 3.2 19 1 6.4 1.7 12.9 2.4 19.2.7 6.3 1.1 12.5 1.9 18.4.8 5.9 1.3 11.8.5 17.4-.5 5.6-1.9 11-3.5 15.9s-3.5 9.4-5.3 13.3c-1.8 3.9-3.6 7.2-5.2 9.9-1.5 2.7-2.8 4.8-3.7 6.2-.9 1.4-1.5 2.2-1.5 2.2-1.3-1.4-2.7-2.8-4.2-4.3" clip-path="url(#d)"/>
    <path fill="none" stroke="#FFF" stroke-width=".728" stroke-miterlimit="10" d="M430.9 319.2s.5-.5 1.5-1.6 2.5-2.8 4.3-5.1c3.5-4.6 8.2-11.8 11.9-21.2 1.8-4.7 3.3-9.9 4.1-15.4.7-5.5.6-11.2-.4-17.1-.8-5.9-1.9-12-3.3-18.2-1.5-6.2-3-12.4-4.8-18.7-.8-3.2-1.6-6.4-2.3-9.6-.7-3.2-1.5-6.4-1.9-9.7-.5-3.4-.7-6.7-.7-9.9s.2-6.3.1-9.3c-.1-5.9-1.8-11.6-3.8-16.9-1-2.6-2.3-5.2-3.5-7.6-1.2-2.5-2.4-4.9-3.6-7.2-2.1-4.7-3.8-9-5.2-12.8-1.4-3.8-2.5-7.2-3.3-10-1.7-5.6-2.5-8.9-2.5-8.9.1 0 .2-.1.3-.1 0 0 .4.7 1.1 2.1.7 1.4 1.7 3.5 2.9 6.2s2.6 6 4.1 9.9c1.3 3.9 2.7 8.4 4.2 13.1 1.4 4.9 4.5 9.4 7.4 14.6 2.8 5.2 5.2 11.1 6.3 17.6 1.1 6.4 1.5 12.5 2.5 18.6 1.1 6.3 2.2 12.7 3.2 19 1 6.4 1.7 12.9 2.4 19.2.7 6.3 1.1 12.5 1.9 18.4.8 5.9 1.3 11.8.5 17.4-.5 5.6-1.9 11-3.5 15.9s-3.5 9.4-5.3 13.3c-1.8 3.9-3.6 7.2-5.2 9.9-1.5 2.7-2.8 4.8-3.7 6.2-.9 1.4-1.5 2.2-1.5 2.2-1.3-1.4-2.7-2.8-4.2-4.3z" clip-path="url(#d)" stroke-linecap="round" stroke-linejoin="round"/>
    <path fill="#FFF" d="M468.1 294.6s0-2 .4-5.6c.2-1.8.5-4 .9-6.5s1-5.4 1.8-8.5c.4-1.5.8-3.2 1.4-4.8.6-1.6 1.1-3.3 1.7-5 .4-1.3.6-3.2.7-4.9.1-1.8.2-3.6.3-5.5.2-7.4.4-15.4.3-23.3l-.3-11.9c0-1.9-.6-3.6-1.2-5.4-.7-1.8-1.4-3.6-2.2-5.3-1.6-3.5-3.3-6.9-5-10.1-1.7-3.2-3.4-6.3-5-9.1-3.1-5.7-5.3-10.9-5.9-15.1-.3-2.1 0-4 .7-5.3.4-.6.7-1 1-1.3.3-.2.4-.4.4-.4 1 1.4 2.1 2.7 3.2 4.1 0 0-.2.1-.5.4-.3.3-.6 1.1-.6 2.7.1 3.1 1.7 8.2 4.1 14 1.2 2.9 2.5 6.1 4.2 9.3 1.7 3.2 3.5 6.6 5.2 10.1 1.6 3.5 3.6 7.1 4 11.3.3 3.9.6 7.8.8 11.8.4 7.9.7 15.7.3 23.2-.1 1.9-.2 3.7-.3 5.5-.2 1.9-.2 3.5-.9 5.7-.6 1.7-1.3 3.4-1.9 5-.5 1.6-1.1 3.1-1.6 4.6-.9 3-1.8 5.7-2.5 8.2-.8 2.5-1.3 4.6-1.8 6.4-1 3.6-1.5 5.7-1.5 5.7h-.2" clip-path="url(#d)"/>
    <path fill="none" stroke="#FFF" stroke-width=".728" stroke-miterlimit="10" d="M468.1 294.6s0-2 .4-5.6c.2-1.8.5-4 .9-6.5s1-5.4 1.8-8.5c.4-1.5.8-3.2 1.4-4.8.6-1.6 1.1-3.3 1.7-5 .4-1.3.6-3.2.7-4.9.1-1.8.2-3.6.3-5.5.2-7.4.4-15.4.3-23.3l-.3-11.9c0-1.9-.6-3.6-1.2-5.4-.7-1.8-1.4-3.6-2.2-5.3-1.6-3.5-3.3-6.9-5-10.1-1.7-3.2-3.4-6.3-5-9.1-3.1-5.7-5.3-10.9-5.9-15.1-.3-2.1 0-4 .7-5.3.4-.6.7-1 1-1.3.3-.2.4-.4.4-.4 1 1.4 2.1 2.7 3.2 4.1 0 0-.2.1-.5.4-.3.3-.6 1.1-.6 2.7.1 3.1 1.7 8.2 4.1 14 1.2 2.9 2.5 6.1 4.2 9.3 1.7 3.2 3.5 6.6 5.2 10.1 1.6 3.5 3.6 7.1 4 11.3.3 3.9.6 7.8.8 11.8.4 7.9.7 15.7.3 23.2-.1 1.9-.2 3.7-.3 5.5-.2 1.9-.2 3.5-.9 5.7-.6 1.7-1.3 3.4-1.9 5-.5 1.6-1.1 3.1-1.6 4.6-.9 3-1.8 5.7-2.5 8.2-.8 2.5-1.3 4.6-1.8 6.4-1 3.6-1.5 5.7-1.5 5.7h-.2z" clip-path="url(#d)" stroke-linecap="round" stroke-linejoin="round"/>
    <path fill="#FFF" d="M381.2 320.5s-.4-.6-1.1-1.7c-.7-1.1-1.9-2.8-3.3-4.8-1.4-2.1-3.3-4.6-5.2-7.6-1-1.5-2-3.1-3-4.8-.5-.9-1-1.7-1.6-2.6-.5-.9-1-1.9-1.5-2.8-.5-1-1-1.9-1.5-2.9s-.9-2-1.4-3.1c-.9-2.1-2-4.3-2.6-6.5-.7-2.2-1.7-4.7-2.3-7-.6-2.3-1.2-4.7-1.9-7.1-.6-2.4-1.1-4.9-1.6-7.4-.2-1.2-.5-2.4-.7-3.6-.3-1.2-.7-2.3-1-3.5-.3-1.3-.8-2.5-1.1-3.8-.3-1.3-.6-2.6-.8-3.9-.5-2.6-.8-5.2-1-7.7-.4-5.1-.4-10.2-.1-15.3.1-1.3.3-2.5.4-3.8 0-.3.1-.6.1-1 .1-.3.1-.7.2-1 .1-.6.3-1.2.4-1.8.6-2.4.9-4.8 1.8-7.2.9-2.4 1.9-4.8 2.8-7 .5-1.1.9-2.1 1.5-3.2.6-1 1-2.1 1.5-3.1.9-2.1 1.8-4.1 2.7-6.1.8-2.1 1.4-4.1 2-6 1.1-3.9 1.9-7.5 2.6-10.7.7-3.2 1.2-6 1.4-8.3.3-2.3.3-4 .3-5.1l-.3-1.2c0-.1 0-.2-.1-.3-.4-1.7.8-3.7 2.7-4.5 1.8-.7 3.6.2 4 2 .1.4.1.8 0 1.3 0 0-.2.9-.5 2.6-.4 1.4-1.1 3.4-1.9 5.7-.8 2.3-1.8 5.1-2.9 8.3-1.1 3.2-2.3 6.8-3.3 10.6-.5 1.9-.9 4-1.3 6.1-.5 2.2-.9 4.4-1.4 6.7-.1.6-.3 1.2-.4 1.7-.2.6-.4 1.1-.6 1.7-.4 1.1-.9 2.2-1.3 3.4-1 2.3-1.9 4.3-2.9 6.5s-1.8 4.6-2.7 6.9c-.2.6-.5 1.2-.7 1.8-.1.3-.2.5-.3.8-.1.3-.2.6-.2.9l-.9 3.6c-.8 4.8-.8 9.9.2 14.9.6 2.5 1.2 5 2 7.4.8 2.4 1.8 4.7 2.7 7.2.5 1.3.9 2.7 1.3 4 .3 1.3.5 2.6.8 3.9.5 2.5.8 4.9 1.2 7.4.8 4.9 1.4 9.6 2.5 13.9.4 2.2 1.2 4.3 1.9 6.4.4 1 .7 2.1 1.1 3.1.4 1 .9 2 1.3 2.9.4 1 .9 1.9 1.3 2.8.5.9.9 1.8 1.4 2.6.9 1.7 1.8 3.3 2.7 4.8 1.7 3 3.4 5.6 4.8 7.7 1.4 2.1 2.5 3.8 3.2 4.9.7 1.2 1.1 1.8 1.1 1.8.1.1 0 .2 0 .3-.3-.1-.4-.2-.5-.2" clip-path="url(#d)"/>
    <path fill="none" stroke="#FFF" stroke-width=".728" stroke-miterlimit="10" d="M381.2 320.5s-.4-.6-1.1-1.7c-.7-1.1-1.9-2.8-3.3-4.8-1.4-2.1-3.3-4.6-5.2-7.6-1-1.5-2-3.1-3-4.8-.5-.9-1-1.7-1.6-2.6-.5-.9-1-1.9-1.5-2.8-.5-1-1-1.9-1.5-2.9s-.9-2-1.4-3.1c-.9-2.1-2-4.3-2.6-6.5-.7-2.2-1.7-4.7-2.3-7-.6-2.3-1.2-4.7-1.9-7.1-.6-2.4-1.1-4.9-1.6-7.4-.2-1.2-.5-2.4-.7-3.6-.3-1.2-.7-2.3-1-3.5-.3-1.3-.8-2.5-1.1-3.8-.3-1.3-.6-2.6-.8-3.9-.5-2.6-.8-5.2-1-7.7-.4-5.1-.4-10.2-.1-15.3.1-1.3.3-2.5.4-3.8 0-.3.1-.6.1-1 .1-.3.1-.7.2-1 .1-.6.3-1.2.4-1.8.6-2.4.9-4.8 1.8-7.2.9-2.4 1.9-4.8 2.8-7 .5-1.1.9-2.1 1.5-3.2.6-1 1-2.1 1.5-3.1.9-2.1 1.8-4.1 2.7-6.1.8-2.1 1.4-4.1 2-6 1.1-3.9 1.9-7.5 2.6-10.7.7-3.2 1.2-6 1.4-8.3.3-2.3.3-4 .3-5.1l-.3-1.2c0-.1 0-.2-.1-.3-.4-1.7.8-3.7 2.7-4.5 1.8-.7 3.6.2 4 2 .1.4.1.8 0 1.3 0 0-.2.9-.5 2.6-.4 1.4-1.1 3.4-1.9 5.7-.8 2.3-1.8 5.1-2.9 8.3-1.1 3.2-2.3 6.8-3.3 10.6-.5 1.9-.9 4-1.3 6.1-.5 2.2-.9 4.4-1.4 6.7-.1.6-.3 1.2-.4 1.7-.2.6-.4 1.1-.6 1.7-.4 1.1-.9 2.2-1.3 3.4-1 2.3-1.9 4.3-2.9 6.5s-1.8 4.6-2.7 6.9c-.2.6-.5 1.2-.7 1.8-.1.3-.2.5-.3.8-.1.3-.2.6-.2.9l-.9 3.6c-.8 4.8-.8 9.9.2 14.9.6 2.5 1.2 5 2 7.4.8 2.4 1.8 4.7 2.7 7.2.5 1.3.9 2.7 1.3 4 .3 1.3.5 2.6.8 3.9.5 2.5.8 4.9 1.2 7.4.8 4.9 1.4 9.6 2.5 13.9.4 2.2 1.2 4.3 1.9 6.4.4 1 .7 2.1 1.1 3.1.4 1 .9 2 1.3 2.9.4 1 .9 1.9 1.3 2.8.5.9.9 1.8 1.4 2.6.9 1.7 1.8 3.3 2.7 4.8 1.7 3 3.4 5.6 4.8 7.7 1.4 2.1 2.5 3.8 3.2 4.9.7 1.2 1.1 1.8 1.1 1.8.1.1 0 .2 0 .3-.3-.1-.4-.2-.5-.2z" clip-path="url(#d)" stroke-linecap="round" stroke-linejoin="round"/>
  </g>
</svg>
