<?xml version="1.0" encoding="UTF-8" standalone="no"?>
<svg width="236px" height="285px" viewBox="0 0 236 285" version="1.1" xmlns="http://www.w3.org/2000/svg" xmlns:xlink="http://www.w3.org/1999/xlink" xmlns:sketch="http://www.bohemiancoding.com/sketch/ns">
    <!-- Generator: Sketch 3.3.3 (12072) - http://www.bohemiancoding.com/sketch -->
    <title>bg_aguaymanto</title>
    <desc>Created with Sketch.</desc>
    <defs></defs>
    <g id="Page-1" stroke="none" stroke-width="1" fill="none" fill-rule="evenodd" sketch:type="MSPage">
        <g id="bg_aguaymanto" sketch:type="MSLayerGroup" transform="translate(7.000000, 7.000000)">
            <path d="M133.021105,272.778904 C133.021105,272.778904 125.706554,254.773017 133.58481,248.58043 C141.463066,242.390566 189.857291,214.254326 205.613803,186.679068 C221.370316,159.106533 236.565846,102.409231 198.299252,66.8168323 C160.032658,31.2244339 134.709497,74.9755795 128.519633,80.6044615 C122.32977,86.2306202 100.944375,93.0767786 81.2500962,82.7612464 C61.5530941,72.4429911 34.541541,82.0096395 24.4111873,104.519721 C14.2835569,127.029803 13.1561466,204.265579 43.5444843,223.257269 C73.932822,242.251682 104.32116,249.144135 133.021105,272.778904 L133.021105,272.778904 Z" id="Stroke-3-Copy" stroke="#C1522E" stroke-width="12.1029997" stroke-linecap="round" stroke-linejoin="bevel" sketch:type="MSShapeGroup"></path>
            <path d="M152.584188,54.5840883 C152.584188,54.5840883 145.830618,52.0514999 137.39138,53.3177941 C128.949419,54.5840883 128.385714,55.9919896 124.447947,53.3177941 C120.507458,50.6463218 108.12773,49.5216347 103.062553,50.0826166 C98.0000993,50.6463218 92.3712173,58.524578 87.3060405,58.524578 C82.2408636,58.524578 73.2379203,54.5840883 66.4843512,58.524578 C59.7335053,62.4623445 50.1668569,63.0260496 46.2263672,62.4623445 C42.2886007,61.9013625 15.2770475,65.417031 4.5829887,102.981036 C-6.10834689,140.542317 4.5829887,160.941909 9.64816552,170.508557 C14.7133423,180.075206 31.5945419,211.58823 31.5945419,211.58823 M104.750945,82.3472483 C104.750945,82.3472483 88.9944327,47.8332424 110.379827,0" id="Stroke-4-Copy" stroke="#C1522E" stroke-width="12.1029997" stroke-linecap="round" sketch:type="MSShapeGroup"></path>
            <path d="M120.985571,92.1792521 C141.472305,94.2271085 151.717034,107.20322 155.812747,119.493082 C159.911183,131.785667 159.911183,159.785747 125.764811,167.296369 C91.6211618,174.809715 76.3602742,150.662982 75.2301407,138.615486 C73.1822843,116.761699 85.4748693,106.348131 85.4748693,106.348131 C85.4748693,106.348131 100.498837,90.1286724 120.985571,92.1792521 Z" id="Fill-5-Copy" fill="#C1522E" sketch:type="MSShapeGroup"></path>
        </g>
    </g>
</svg>