<?xml version="1.0" encoding="UTF-8" standalone="no"?>
<svg width="694px" height="340px" viewBox="0 0 694 340" version="1.1" xmlns="http://www.w3.org/2000/svg" xmlns:xlink="http://www.w3.org/1999/xlink" xmlns:sketch="http://www.bohemiancoding.com/sketch/ns">
    <!-- Generator: Sketch 3.2.2 (9983) - http://www.bohemiancoding.com/sketch -->
    <title>brainshake 2</title>
    <desc>Created with Sketch.</desc>
    <defs>
        <rect id="path-1" x="0" y="0" width="892" height="393"></rect>
    </defs>
    <g id="Blank-Project" stroke="none" stroke-width="1" fill="none" fill-rule="evenodd" sketch:type="MSPage">
        <g id="Producto-SuperShake-2" sketch:type="MSArtboardGroup" transform="translate(-296.000000, -206.000000)">
            <g id="brainshake-2" sketch:type="MSLayerGroup" transform="translate(212.000000, 153.000000)">
                <mask id="mask-2" sketch:name="Mask 2" fill="white">
                    <use xlink:href="#path-1"></use>
                </mask>
                <use id="Mask-2" sketch:type="MSShapeGroup" xlink:href="#path-1"></use>
                <g mask="url(#mask-2)" sketch:type="MSShapeGroup">
                    <g transform="translate(84.000000, 53.000000)">
                        <path d="M17.5906852,302.970403 C73.684654,434.124162 151.813191,523.018039 258.118282,500.424259 C288.944244,493.872759 322.411879,495.84517 344.597289,473.208848 C374.073407,484.865413 398.819267,470.517087 429.64523,463.965587 C535.950321,441.371807 560.309406,347.291649 574.082461,184.691464 C586.296814,40.539127 439.991459,-17.1481066 333.690236,5.44567315 C321.839452,7.96339835 309.582554,6.53243318 297.720167,5.10146802 C278.721782,2.81192375 260.736748,0.518512016 247.079725,14.4530187 C217.603607,2.79645386 192.985383,35.3489776 162.163288,41.9004776 C55.8581973,64.4981248 -39.2961722,169.952523 17.5906852,302.970403" id="shape" fill="#D99100"></path>
                        <path d="M0.56098487,224.387211 C0.580323617,129.839088 77.8656911,59.818482 162.163288,41.9004776 C188.375025,36.3313159 210.100174,11.9546309 234.138236,11.9546309 C238.369554,11.9546309 242.670491,12.7087882 247.079725,14.4530187 C255.604245,5.75507103 265.811235,3.38044235 276.90394,3.38044235 C283.583543,3.38044235 290.580302,4.23902145 297.720167,5.10146802 C304.8639,5.96391459 312.146872,6.82636116 319.398902,6.82636116 C324.191044,6.82636116 328.97545,6.44734877 333.690236,5.44567315 C348.573336,2.2820799 364.22225,0.69254832 380.130303,0.69254832 C473.350797,0.69254832 574.801863,55.3438152 574.801863,168.026521 C574.801863,173.448719 574.56593,178.998543 574.082461,184.691464 C573.386266,192.940785 572.65913,201.019937 571.897183,208.91345 C552.407594,204.616687 534.871218,200.582912 520.962792,200.582912 C516.116502,200.582912 511.707268,201.074081 507.812444,202.211118 C469.765394,213.345574 383.769855,271.10629 303.285859,272.94334 C299.236325,273.036159 295.264146,273.082569 291.377058,273.082569 C258.775799,273.082569 231.705421,270.015662 207.771788,266.952623 C183.838155,263.885717 163.041267,260.822678 142.994722,260.822678 C137.958913,260.822678 132.969516,261.016052 127.987855,261.453076 C95.6418671,264.280199 52.0368609,279.328538 14.3108338,294.895119 C4.8348479,270.270916 0.553249371,246.648388 0.56098487,224.387211 Z" id="Fill-15" fill="#E1A733"></path>
                        <path d="M489.158289,292.141478 L579.729375,82.1879482 L671.251928,129.777209 L693.646197,86.7090247 L578.979032,27.0880544 L545.492058,39.0076075 L444.586345,272.916267 L489.158289,292.141478" id="pajita" fill="#D99100"></path>
                    </g>
                </g>
            </g>
        </g>
    </g>
</svg>