<?xml version="1.0" encoding="UTF-8" standalone="no"?>
<svg width="736px" height="349px" viewBox="0 0 736 349" version="1.1" xmlns="http://www.w3.org/2000/svg" xmlns:xlink="http://www.w3.org/1999/xlink" xmlns:sketch="http://www.bohemiancoding.com/sketch/ns">
    <!-- Generator: Sketch 3.2.2 (9983) - http://www.bohemiancoding.com/sketch -->
    <title>bodtox 2</title>
    <desc>Created with Sketch.</desc>
    <defs>
        <rect id="path-1" x="0" y="0" width="1019" height="393"></rect>
        <path id="path-3" d="M652.838437,201.313183 C635.424552,59.237097 503.20909,-1.67221561 391.638444,12.049911 C379.021247,13.6017935 366.590451,10.5934652 354.457894,7.5809874 C335.474108,2.87139753 317.21521,-1.83819235 300.12856,10.9254186 C267.89796,-2.58508766 243.964224,30.2160647 211.609358,34.195357 C100.038711,47.9174836 -13.5409112,139.059459 3.87297399,281.135544 C21.2910014,423.21163 142.939665,490.668725 260.711212,476.183105 C275.262824,474.390556 291.612159,481.921751 307.195184,489.452945 C328.175519,499.589974 347.772353,509.727003 359.722653,497.116921 C385.238717,513.395089 416.587024,457.008643 450.739613,452.809431 C568.51116,438.323812 670.256465,343.389268 652.838437,201.313183"></path>
    </defs>
    <g id="Blank-Project" stroke="none" stroke-width="1" fill="none" fill-rule="evenodd" sketch:type="MSPage">
        <g id="Producto-SuperShake-3" sketch:type="MSArtboardGroup" transform="translate(-193.000000, -197.000000)">
            <g id="bodtox-2" sketch:type="MSLayerGroup" transform="translate(118.000000, 153.000000)">
                <mask id="mask-2" sketch:name="Mask 2" fill="white">
                    <use xlink:href="#path-1"></use>
                </mask>
                <use id="Mask-2" sketch:type="MSShapeGroup" xlink:href="#path-1"></use>
                <g mask="url(#mask-2)">
                    <g transform="translate(74.000000, 42.190426)">
                        <path d="M652.838437,201.313183 C635.424552,59.237097 503.20909,-1.67221561 391.638444,12.049911 C379.021247,13.6017935 366.590451,10.5934652 354.457894,7.5809874 C335.474108,2.87139753 317.21521,-1.83819235 300.12856,10.9254186 C267.89796,-2.58508766 243.964224,30.2160647 211.609358,34.195357 C100.038711,47.9174836 -13.5409112,139.059459 3.87297399,281.135544 C21.2910014,423.21163 142.939665,490.668725 260.711212,476.183105 C275.262824,474.390556 291.612159,481.921751 307.195184,489.452945 C328.175519,499.589974 347.772353,509.727003 359.722653,497.116921 C385.238717,513.395089 416.587024,457.008643 450.739613,452.809431 C568.51116,438.323812 670.256465,343.389268 652.838437,201.313183" id="shape" stroke="#A3BD31" stroke-width="1" fill="#A3BD31" sketch:type="MSShapeGroup"></path>
                        <g id="mascara" stroke="none" stroke-width="1" fill="none" sketch:type="MSLayerGroup" transform="translate(0.000000, 0.000000)">
                            <mask id="mask-4" sketch:name="Clip 36" fill="white">
                                <use xlink:href="#path-3"></use>
                            </mask>
                            <g id="Clip-36"></g>
                            <path d="M319.323599,307.090156 C315.260083,307.090156 311.22142,306.965674 307.199326,306.70841 C225.28282,301.413752 178.24379,279.405237 130.152637,279.405237 C95.954484,279.405237 48.4018194,291.600377 7.81636569,304.550712 C6.18018951,296.982173 4.86296414,289.181267 3.87297399,281.135544 C2.6675885,271.284825 2.08767796,261.678921 2.0959624,252.326132 C2.19951785,126.793778 107.772232,46.9672668 211.609358,34.195357 C238.496496,30.8882705 259.563817,7.68057344 284.412984,7.68057344 C289.46649,7.68057344 294.681543,8.63908909 300.12856,10.9254186 C308.346721,4.78842882 316.829984,2.68882312 325.536926,2.68882312 C334.939762,2.68882312 344.599414,5.13697997 354.457894,7.5809874 C364.316373,10.0291443 374.365394,12.4731517 384.555251,12.4731517 C386.908031,12.4731517 389.269095,12.3445197 391.638444,12.049911 C401.857296,10.7926372 412.237695,10.1660751 422.70508,10.1660751 C526.459361,10.1660751 637.019306,72.2538225 652.838437,201.313183 C654.147378,211.997935 654.78528,222.417125 654.789422,232.550004 C654.801849,249.616562 653.028979,265.873983 649.673783,281.276625 C629.729002,278.66664 610.260577,273.085673 592.279208,267.500555 C567.624725,259.849028 545.770382,252.1975 529.33406,252.1975 C526.467645,252.1975 523.766919,252.429868 521.244308,252.936097 C483.550123,260.488038 398.063024,307.086007 319.323599,307.090156" id="Fill-35" fill="#BED075" sketch:type="MSShapeGroup" mask="url(#mask-4)"></path>
                        </g>
                        <path d="M463.742036,341.198376 L608.52913,120.681685 L702.859864,193.122231 L736.888186,148.657063 L618.698275,57.8926854 L578.319933,64.7309269 L417.00953,310.409691 L463.742036,341.198376" id="pajita" stroke="none" fill="#A3BD31" sketch:type="MSShapeGroup"></path>
                    </g>
                </g>
            </g>
        </g>
    </g>
</svg>