<svg xmlns="http://www.w3.org/2000/svg" width="841.9" height="595.3" xmlns:xlink="http://www.w3.org/1999/xlink">
  <defs>
    <path id="a" d="M0 0h841.9v595.3H0z"/>
  </defs>
  <clipPath id="b">
    <use xlink:href="#a" overflow="visible"/>
  </clipPath>
  <g clip-path="url(#b)">
    <defs>
      <path id="c" d="M0 0h841.9v595.3H0z"/>
    </defs>
    <clipPath id="d">
      <use xlink:href="#c" overflow="visible"/>
    </clipPath>
    <path fill="#844913" d="M596.7 235.5c-10.3-90.2-72.3-145.6-152.4-135-23.2 3.1-53.2-30.2-67.4-16.4-16.9-9.6-38.5 30.5-61.7 33.5-80.1 10.6-127.8 80.6-117.6 170.8 10.3 90.2 65.6 136.1 148.7 125.1 24.1-3.2 50.2 8.1 67.5-5.3 19.8 8.5 42.5-9.3 66.6-12.4 83.1-11.1 126.5-70.1 116.3-160.3" clip-path="url(#d)"/>
    <path fill="#DDB306" d="M596.1 235.6c-.5-3.1-.8-6.2-1.4-9.3l-.8-4.6-.4-2.3-.5-2.3c-.7-3.1-1.3-6.1-2.2-9.1l-1.2-4.5-1.4-4.5c-.9-3-2-5.9-3.1-8.9-.5-1.5-1.2-2.9-1.7-4.4-.6-1.4-1.2-2.9-1.8-4.3-1.3-2.8-2.5-5.7-4-8.4l-2.2-4.1-2.3-4-1.2-2-1.3-2-2.5-3.9-2.7-3.8-1.4-1.9-1.5-1.8-2.9-3.6-3.1-3.5c-.5-.6-1-1.2-1.6-1.7l-1.6-1.7c-1.1-1.1-2.1-2.2-3.3-3.3-2.3-2.1-4.5-4.3-7-6.2-2.3-2-4.9-3.8-7.4-5.7-1.3-.9-2.6-1.7-3.9-2.6l-1.9-1.3c-.7-.4-1.3-.8-2-1.2l-4-2.3-4.1-2.1c-5.6-2.7-11.3-5.1-17.2-6.9-2.9-1-5.9-1.7-8.9-2.5l-4.5-.9-2.3-.5-2.3-.3-4.6-.7-4.6-.4c-.8-.1-1.5-.1-2.3-.2l-2.3-.1-4.6-.2-4.6.1h-2.3l-2.3.1-4.6.3c-1.5.1-3.1.3-4.6.5l-2.3.3-1.4.1-1.2.1-.6.1h-2.1c-.9 0-1.7-.1-2.6-.2-3.4-.4-6.6-1.2-9.7-2.2-6.2-2.1-11.9-5-17.6-7.8-5.6-2.8-11.1-5.7-16.8-7.7-2.8-1-5.6-1.7-8.2-1.6-2.6 0-4.7.9-6.5 2.6l-1.6 1.5-2-1c-2.1-1.1-4.3-1.4-6.8-.7-2.4.7-5 2-7.4 3.7-4.8 3.3-9.3 7.5-13.9 11.6s-9.3 8.4-14.6 12.1c-2.7 1.9-5.5 3.6-8.6 5l-.8.5c-.4.2-.8.3-1.2.5l-1.2.4-1.3.4-1.3.4-1.3.2-1.2.2-1.1.2c-3 .5-6.2.9-9 1.6-1.5.3-2.9.6-4.4 1l-4.4 1.2-2.2.6-2.2.7-4.3 1.4-4.2 1.6-2.1.8-2.1.9-4.1 1.8-4 2-2 1-2 1.1-3.9 2.3-3.8 2.5c-.6.4-1.3.8-1.9 1.2l-1.8 1.3-3.6 2.7-3.5 2.9c-1.2.9-2.3 2-3.4 3s-2.2 2-3.3 3.1c-2.1 2.1-4.3 4.2-6.2 6.5-2 2.2-3.9 4.6-5.8 6.9l-2.7 3.6c-.9 1.2-1.8 2.4-2.6 3.7l-2.4 3.8c-.8 1.3-1.5 2.6-2.3 3.9-1.6 2.6-2.8 5.3-4.2 8-2.5 5.5-4.9 11-6.8 16.7-2 5.7-3.5 11.6-4.8 17.4l-.8 4.4-.4 2.2-.3 2.2-.7 4.5c-.2 1.5-.3 3-.5 4.5-1.2 12-1.3 24.2-.2 36.3l.5 4.5.2 2.3v.5l.1.6.2 1.2c.4 3.1.8 6.2 1.4 9.1l.8 4.4c.3 1.5.6 3 .9 4.4.3 1.5.6 3 1 4.4l1.1 4.4c3 11.7 7.3 23 12.9 33.6 2.9 5.2 5.9 10.4 9.5 15.1l1.3 1.8c.4.6.9 1.1 1.4 1.7.9 1.1 1.9 2.3 2.8 3.4 2 2.2 3.9 4.4 6.1 6.4 2 2.1 4.3 4 6.5 5.9 2.3 1.8 4.6 3.7 7.1 5.2 2.4 1.7 4.9 3.2 7.4 4.7 2.6 1.3 5.2 2.8 7.9 4 2.6 1.3 5.4 2.3 8.1 3.4 1.4.5 2.8.9 4.2 1.4l2.1.7 2.1.6c5.7 1.6 11.5 2.6 17.4 3.4 11.8 1.4 23.8 1.4 35.7.1l4.5-.5 2.4-.3c.7-.1 1.7-.2 2.5-.2 3.4-.2 6.7-.3 10-.2 6.5.2 12.8.9 18.9 1.4 6.1.5 12 .9 17.4.4 5.5-.5 10.3-2.1 14.2-5.1l2.8-2.1 3.1 1.4c4.4 1.9 9.4 2.3 14.8 1.5 5.4-.8 10.9-2.6 16.6-4.5 5.7-2 11.5-4.2 17.5-6 3-.9 6.2-1.7 9.4-2.4 1.6-.3 3.2-.6 4.9-.8l4.5-.6c1.5-.2 3.1-.4 4.5-.7l4.3-.8c.7-.1 1.4-.2 2.2-.4l2.2-.5 4.3-1c5.7-1.5 11.4-3.1 16.9-5.3 2.8-1 5.5-2.2 8.2-3.4 1.4-.6 2.7-1.3 4-1.9 1.3-.7 2.7-1.3 3.9-2l3.9-2.1c1.3-.7 2.5-1.5 3.8-2.3l1.9-1.2c.6-.4 1.2-.8 1.8-1.3l3.6-2.6c4.7-3.6 9.1-7.4 13.2-11.7 1-1 2-2.2 3-3.3l1.5-1.6 1.4-1.7c.9-1.2 1.9-2.3 2.8-3.5l2.6-3.6c3.3-4.9 6.4-10 9-15.4l1-2c.3-.7.6-1.4.9-2l1.8-4.1 1.6-4.2.8-2.1.7-2.1 1.4-4.3 1.2-4.3.6-2.2.5-2.2 1-4.4c1.1-5.9 2-11.9 2.4-17.9.1-1.5.3-3 .4-4.5l.2-4.5c.2-3 .1-6.1.2-9.1 0-1.5 0-3-.1-4.6l-.1-4.6c-.7-2.7-1-5.8-1.1-8.8l1.2-.1c.4 3 .8 6.1 1.2 9.1l.4 4.6c.1 1.5.3 3.1.4 4.6.1 3.1.4 6.1.4 9.2l.1 4.6c0 1.5-.1 3.1-.1 4.6-.1 6.2-.7 12.3-1.5 18.5l-.8 4.6-.4 2.3-.5 2.3-1 4.6-1.2 4.5-.6 2.3c-.2.7-.5 1.5-.7 2.2l-1.4 4.4-1.7 4.4c-.3.7-.5 1.5-.8 2.2l-.9 2.1c-2.4 5.8-5.5 11.3-8.8 16.6-3.3 5.4-7.2 10.3-11.4 15.1-4.2 4.7-8.9 9-13.7 13l-3.8 2.9c-.6.5-1.3 1-1.9 1.4l-2 1.3c-1.3.9-2.6 1.8-3.9 2.6l-4.1 2.4c-5.5 3.2-11.1 6-17 8.3-5.8 2.4-11.8 4.3-17.9 6.1l-4.6 1.2-2.3.6c-.8.2-1.6.3-2.3.5l-4.7 1c-1.6.3-3 .5-4.5.8l-4.6.8c-1.4.2-2.8.5-4.1.8-2.8.6-5.6 1.4-8.3 2.3-5.6 1.8-11.2 4-17 6.1-5.8 2.1-11.9 4.2-18.6 5.4-3.3.6-6.9.8-10.5.5-3.6-.3-7.3-1.1-10.7-2.5l5.9-.8c-2.9 2.3-6.3 4.1-9.7 5.4-3.5 1.3-7 2-10.4 2.3-6.9.7-13.4.3-19.7-.1-6.3-.5-12.3-1.1-18.2-1.3-2.9-.1-5.9-.1-8.6.2-.7.1-1.3.1-2.1.2l-2.2.3-4.8.5c-12.7 1.4-25.7 1.3-38.5-.3-6.4-.9-12.8-2.1-19.1-3.9l-2.4-.7c-.8-.2-1.5-.5-2.3-.8-1.5-.5-3.1-1-4.6-1.6-3-1.2-6.1-2.4-9-3.8-3-1.3-5.8-3-8.7-4.5-2.8-1.7-5.6-3.4-8.2-5.4-2.7-1.8-5.2-4-7.8-6-2.4-2.2-4.9-4.3-7.1-6.7-2.3-2.3-4.4-4.8-6.6-7.2-1-1.3-2-2.5-3-3.8-.5-.6-1-1.3-1.5-1.9l-1.4-2c-3.8-5.2-7-10.9-10-16.6-5.8-11.5-10.2-23.6-13.2-35.9l-1.1-4.6c-.4-1.5-.6-3.1-1-4.7-.3-1.6-.6-3.1-.9-4.7l-.8-4.7c-.6-3.2-.9-6.2-1.3-9.3l-.1-1.2-.1-.6v-.7l-.2-2.4-.4-4.7c-1-12.6-.8-25.4.7-38 .2-1.6.3-3.2.6-4.7l.7-4.7.4-2.4.5-2.3 1-4.7c1.5-6.2 3.1-12.4 5.3-18.4 2-6 4.6-11.9 7.4-17.6 1.5-2.8 2.9-5.7 4.6-8.4.8-1.4 1.6-2.8 2.5-4.1l2.6-4c.8-1.4 1.8-2.6 2.8-3.9 1-1.3 1.9-2.6 2.9-3.8 2-2.5 4-5 6.2-7.3 2.1-2.4 4.4-4.6 6.7-6.9 1.1-1.1 2.4-2.1 3.6-3.2 1.2-1.1 2.4-2.1 3.6-3.1l3.7-3c1.3-1 2.6-1.9 3.9-2.8l2-1.4c.7-.4 1.3-.9 2-1.3l4-2.6 4.2-2.4 2.1-1.2 2.1-1.1 4.3-2.1 4.4-1.9 2.2-.9 2.2-.8 4.5-1.7 4.6-1.4 2.3-.7 2.3-.6 4.6-1.2c1.6-.4 3.1-.6 4.7-1 3.2-.7 6.2-1.1 9.3-1.6l1.1-.2 1.1-.2 1-.2 1-.3 1-.3 1-.3c.3-.1.7-.2 1-.4l1-.4c2.6-1.1 5.1-2.6 7.5-4.3 4.9-3.3 9.5-7.4 14.1-11.5 4.7-4.1 9.3-8.3 14.8-12 2.7-1.8 5.7-3.5 9.3-4.4.9-.3 1.8-.4 2.8-.5.5-.1 1 0 1.5 0s1 0 1.5.1l1.5.2c.5.1 1 .3 1.4.4l.7.2.7.3 1.3.6-3.6.4 1.1-.9.6-.5c.2-.1.4-.3.6-.4l1.3-.8 1.4-.6c.5-.2.9-.3 1.4-.4.5-.1.9-.3 1.4-.3.9-.1 1.9-.3 2.8-.2 3.7 0 7.1.9 10.2 2.1 6.2 2.3 11.8 5.4 17.3 8.3 5.5 2.9 11.1 5.7 16.7 7.8 2.8 1 5.7 1.8 8.6 2.1.7 0 1.5.2 2.1.2h2.1l1.2-.1h.5l.6-.1 2.4-.2c1.6-.2 3.2-.3 4.8-.5l4.8-.2 1.5-.1h7.2l4.8.2 2.4.1c.8.1 1.6.2 2.4.2l4.8.5 4.7.8 2.4.4 2.3.5c1.6.3 3.1.7 4.7 1 3.1.9 6.2 1.6 9.2 2.7 6.1 1.9 12 4.5 17.6 7.4l4.2 2.2 4.1 2.5c.7.4 1.4.8 2 1.2l2 1.3 3.9 2.7c2.5 1.9 5.1 3.8 7.5 5.9 2.5 2 4.7 4.3 7 6.4 1.1 1.1 2.2 2.3 3.3 3.4l1.6 1.7c.5.6 1 1.2 1.6 1.8l3.1 3.6 2.9 3.8 1.5 1.9 1.4 2 2.7 3.9 2.5 4 1.3 2 1.2 2.1 2.3 4.1 2.1 4.2c1.5 2.8 2.6 5.7 4 8.6.6 1.4 1.2 2.9 1.8 4.4.6 1.5 1.2 2.9 1.7 4.4 1 3 2.1 6 2.9 9l1.3 4.5 1.1 4.6c.8 3 1.4 6.1 2 9.2l.5 2.3.4 2.3.8 4.7c.5 3.1.8 6.2 1.2 9.4l-1.3.7z" clip-path="url(#d)"/>
  </g>
  <g clip-path="url(#b)">
    <defs>
      <path id="e" d="M376.9 84.1c-16.9-9.6-38.5 30.5-61.7 33.5-80.1 10.6-127.8 80.6-117.6 170.8 10.3 90.2 65.6 136.1 148.7 125.1 8.9-1.2 18.1-.4 27 .4 15.2 1.4 29.6 2.7 40.5-5.7 19.8 8.5 42.5-9.3 66.6-12.4 83.1-11 126.5-70 116.3-160.2-10.3-90.2-72.3-145.6-152.4-135-10.1 1.3-21.5-4.2-32.4-9.8-9.7-5-19-10-26.4-10-3.3 0-6.2.9-8.6 3.3"/>
    </defs>
    <clipPath id="f">
      <use xlink:href="#e" overflow="visible"/>
    </clipPath>
    <g opacity=".3" clip-path="url(#f)">
      <defs>
        <path id="g" d="M83.7-217.5h683.1v510.1H83.7z"/>
      </defs>
      <clipPath id="h">
        <use xlink:href="#g" overflow="visible"/>
      </clipPath>
      <g clip-path="url(#h)">
        <defs>
          <path id="i" d="M83.7-217.5h683.1v510.1H83.7z"/>
        </defs>
        <clipPath id="j">
          <use xlink:href="#i" overflow="visible"/>
        </clipPath>
        <path fill="#FFF" d="M764.1 241.5s-71.5 4.8-97.6 16.4c-43.8 19.4-93.4-18.6-116.9-13.5-23.5 5.1-78.3 37.7-126.8 34.3-48.5-3.4-76.4-17.4-104.9-17.4s-72.6 15.4-98.9 25.9C192.7 297.7 86.3 272 86.3 272L91-116.6l652.7-98 20.4 456.1z" clip-path="url(#j)"/>
      </g>
    </g>
  </g>
  <g clip-path="url(#b)">
    <defs>
      <path id="k" d="M0 0h841.9v595.3H0z"/>
    </defs>
    <clipPath id="l">
      <use xlink:href="#k" overflow="visible"/>
    </clipPath>
    <g opacity=".15" clip-path="url(#l)">
      <defs>
        <path id="m" d="M234.8 127.2h114.8v65.9H234.8z"/>
      </defs>
      <clipPath id="n">
        <use xlink:href="#m" overflow="visible"/>
      </clipPath>
      <path fill="#FFF" d="M348.9 139.6c-5.2-14.2-34.7-16.5-66-5.2-31.3 11.4-52.5 32.1-47.3 46.3 5.2 14.2 34.7 16.5 66 5.2 31.3-11.4 52.4-32.1 47.3-46.3" clip-path="url(#n)"/>
    </g>
    <g opacity=".15" clip-path="url(#l)">
      <defs>
        <path id="o" d="M250.6 133.1h70.1v40.3h-70.1z"/>
      </defs>
      <clipPath id="p">
        <use xlink:href="#o" overflow="visible"/>
      </clipPath>
      <path fill="#FFF" d="M320.2 140.7c-3.2-8.7-21.2-10.1-40.3-3.1-19.1 6.9-32 19.6-28.9 28.3 3.2 8.7 21.2 10.1 40.3 3.1 19.2-7 32.1-19.6 28.9-28.3" clip-path="url(#p)"/>
    </g>
    <path fill="#844913" d="M484.1 284c3.6-7.8 7.3-15.6 11-23.3 3.7-7.7 7.4-15.5 11.3-23.1l11.4-23.1c3.9-7.6 7.7-15.3 11.6-22.9 3.9-7.6 7.8-15.2 11.8-22.8l12-22.7c2-3.8 3.9-7.6 5.8-11.5 1.9-3.8 3.7-7.7 5.6-11.6 1.9-3.9 3.7-7.8 5.6-11.6 1.9-3.8 3.9-7.6 6.1-11.3 5.3-9.1 17-12.1 26.1-6.8.8.4 1.5.9 2.1 1.5l.7.6c3.5 2.8 6.9 5.8 10.3 8.8 1.7 1.5 3.3 3 5 4.6 1.6 1.6 3.3 3.1 4.9 4.7 3.2 3.2 6.4 6.4 9.5 9.7 1.6 1.6 3.1 3.3 4.6 5 1.5 1.7 3.1 3.3 4.6 5.1l4.5 5.2 4.4 5.3 4.3 5.4 4.2 5.5c5.5 7.5 10.8 15.2 15.5 23.7.5 1 .2 2.2-.8 2.7-.5.3-1.1.3-1.6.1-9.2-3.1-17.7-7-26-11.1l-6.2-3.2-6.1-3.3-6-3.4-5.9-3.5c-2-1.2-3.9-2.4-5.8-3.6-1.9-1.2-3.8-2.4-5.7-3.7-3.8-2.5-7.6-5-11.2-7.6-5.6-3.8-4.8-4-7.4-.6l-7.8 10.2c-2.6 3.4-5.1 6.9-7.6 10.4l-14.8 21c-5 7-9.9 13.9-15 20.9-5 6.9-10.1 13.8-15.2 20.7L518.5 245c-5.1 6.9-10.3 13.7-15.5 20.5-5.2 6.8-10.4 13.6-15.7 20.4-.6.8-1.8 1-2.6.3-.8-.4-1-1.4-.6-2.2" clip-path="url(#l)"/>
    <path fill="#DDB306" d="M483.8 283.9s4.2-8.9 11.7-24.5c3.8-7.8 8.3-17.2 13.6-28.1 2.6-5.4 5.4-11.2 8.4-17.3 3-6.1 6.1-12.4 9.4-19.1 6.6-13.3 13.8-27.6 21.7-42.7 1-1.9 2-3.8 2.9-5.7 1-1.9 1.9-3.9 2.9-5.8s1.9-3.9 2.9-5.9c1-1.9 1.9-4 2.9-6 1.9-4 3.9-8.1 5.8-12.2 1-2.1 2-4.1 3-6.2 1.1-2 2.2-4.1 3.3-6.1.5-1 1.1-2 1.6-3.1l.8-1.5.2-.4.2-.3.1-.2.5-.7c.3-.5.7-1 1.1-1.5l.6-.8.7-.7c.4-.5.9-.9 1.4-1.3l1.5-1.2c4.2-2.9 9.5-4.2 14.6-3.5 2.6.3 5.1 1.2 7.3 2.5l.2.1c.1 0 .3.2.3.2l.4.3.7.5.7.5c.1.1 0 0 .3.2l.2.1.4.3 2.8 2.3c1.8 1.6 3.7 3.1 5.5 4.7l1.4 1.2.7.6.3.2.2.2.3.3 2.7 2.5 1.3 1.2.7.6.7.6 2.6 2.5 1.3 1.3 1.3 1.3 2.6 2.6c1.7 1.7 3.4 3.5 5.2 5.2 1.8 1.8 3.4 3.6 5.1 5.4 6.8 7.3 13.2 14.8 19.3 22.7l2.3 2.9.6.7.3.4.3.4 1.1 1.5c1.5 2 2.9 4 4.3 6l2.1 3.1c.7 1 1.4 2.1 2 3.1l2 3.1 1.9 3.2 1.9 3.2s.2.5.2.4l.1.2c.1.3.2.8.3 1.2 0 .7 0 1.3-.3 1.9-.2.6-.6 1.1-1.1 1.6-.1.1-.3.2-.4.3-.2.1-.1.1-.6.4l-.2.1c-.1 0-.1 0-.3.1-.4.1-.9.2-1.2.2-.3 0-.7 0-1-.1-.8-.2-.9-.3-1.2-.4l-1.7-.6-3.5-1.2c-2.3-.8-4.6-1.8-6.9-2.8-2.3-1-4.5-2-6.8-3-17.9-8.2-34.4-18.2-49.8-28.7l-5.7-3.9-1.4-1c-.4-.3-.9-.6-1-.6-.1-.1.3.1.8 0 .1 0 .2-.1.3-.1.1 0 .1-.1.2-.1s.1-.1.1-.1c-.1.1-.5.6-.8 1.1-2.8 3.6-5.5 7.2-8.2 10.7-2.6 3.6-5.2 7.1-7.8 10.6l-7.5 10.5c-2.5 3.5-4.9 6.9-7.3 10.2-2.5 3.3-4.9 6.6-7.2 9.8-4.7 6.4-9.4 12.6-13.9 18.5-9 11.8-17.3 22.5-24.7 32.1-7.4 9.5-13.9 17.8-19.2 24.6-5.3 6.8-9.5 12.1-12.4 15.8-.4.5-.7.9-1 1.3l-.3.3c-.1.1-.2.2-.4.3-.2.1-.5.2-.7.2-.5.1-1-.1-1.3-.3-.4-.2-.6-.5-.8-.8-.3-.6-.3-1.2-.2-1.5-.4.1-.3-.1-.3-.1m.5.3s-.1.1-.1.4c-.1.2-.1.7.2 1.1.2.4.9.9 1.6.8.2 0 .4-.1.5-.2l.2-.2.2-.2c.3-.4.6-.8 1-1.3 2.8-3.7 6.9-9.1 12.1-16 5.2-6.9 11.4-15.4 18.4-25.2 3.5-4.9 7.2-10.1 11.2-15.6l3-4.2c1-1.4 2-2.8 3-4.3 2-2.9 4.1-5.9 6.3-8.9 2.1-3 4.3-6.1 6.5-9.3 2.2-3.2 4.4-6.4 6.7-9.7 4.6-6.6 9.3-13.3 14.1-20.3 2.4-3.5 4.9-7 7.4-10.6 2.6-3.5 5.2-7.1 7.8-10.8 2.7-3.5 5.4-7.1 8.1-10.7.4-.5.6-.9 1.3-1.6l.3-.3c.1-.1.2-.2.4-.3.2-.1.3-.2.5-.3.2-.1.5-.2.8-.3 1.1-.2 2 .1 2.4.2 1 .4 1.4.8 1.9 1.1l1.4 1 5.7 3.9c15.1 10.5 31.4 20.4 48.8 28.7l6.6 3c2.2.9 4.4 1.9 6.7 2.8l3.4 1.3 1.7.6c.2.1.7.3.5.2h-.1s-.2 0-.3.1c-.1.1.1 0 .1 0l.2-.1c-.4.2-.1.1-.2.1 0 0 0 .1-.1.1v.1s0 .2.1.3l-.1-.2c-.1-.3.1.1 0 0l-1.8-3.2-1.8-3.2-1.9-3.1c-.7-1-1.3-2.1-2-3.1l-2-3c-1.3-2-2.8-4-4.2-6l-1.1-1.5-.3-.4-.2-.3-.6-.7-2.2-3c-5.9-7.8-12.3-15.4-18.8-22.6-1.7-1.8-3.3-3.7-5-5.4-1.7-1.8-3.4-3.5-5.1-5.3L625 116l-1.2-1.3-1.3-1.3-2.6-2.6-.7-.6-.6-.6-1.3-1.2-2.7-2.5-.3-.3-.2-.2-.1-.1-.7-.6-1.4-1.2c-1.8-1.6-3.7-3.2-5.5-4.7l-2.7-2.3-.3-.3-.2-.1c.1.1-.1 0-.1-.1l-.7-.5-.7-.5-.4-.3-.1-.1-.2-.1c-1.9-1.1-4-1.8-6.2-2.1-4.3-.6-8.8.4-12.4 2.9-.5.3-.9.6-1.3 1-.4.3-.8.7-1.2 1.1l-.6.6-.5.6c-.3.4-.7.8-1 1.3l-.5.7-.1.2c-.1.2 0 0-.1.1l-.2.4-.8 1.5c-.6 1-1.1 2-1.7 3.1-1.1 2-2.2 4.1-3.3 6.1-1 2-2 4.1-3 6.1-2 4.1-4 8.1-5.9 12.1-1 2-1.9 4-2.9 6s-2 3.9-3 5.9c-1 1.9-2 3.9-3 5.8s-2 3.8-3 5.6c-8.1 14.9-15.5 29.1-22.4 42.2-3.4 6.6-6.7 12.9-9.8 18.9-3 6-5.9 11.7-8.6 17.1-5.5 10.7-10 20.2-13.8 27.9-3.7 7.8-6.6 13.9-8.6 18.1-1.8 4.2-2.8 6.5-2.8 6.5" clip-path="url(#l)"/>
  </g>
  <g clip-path="url(#b)">
    <defs>
      <path id="q" d="M549.7 244.4c-23.5 5.1-78.3 37.7-126.8 34.3-48.5-3.4-76.4-17.4-104.9-17.4s-72.6 15.4-98.9 25.9c-4.8 1.9-12.3 2.6-21.4 2.5 10.6 89.4 65.9 134.8 148.6 123.9 8.9-1.2 18.1-.4 27 .4 15.2 1.4 29.6 2.7 40.5-5.7 19.8 8.5 42.5-9.3 66.6-12.4 76.7-10.2 119.6-61.3 117.7-140-17.2-5.5-32.5-11.8-43.6-11.8-1.7-.2-3.3-.1-4.8.3"/>
    </defs>
    <clipPath id="r">
      <use xlink:href="#q" overflow="visible"/>
    </clipPath>
    <g opacity=".5" clip-path="url(#r)">
      <defs>
        <path id="s" d="M190.5 230.9h420.2v195.9H190.5z"/>
      </defs>
      <clipPath id="t">
        <use xlink:href="#s" overflow="visible"/>
      </clipPath>
      <path fill="#FFF" d="M190.5 230.9h420.2v195.9H190.5z" clip-path="url(#t)"/>
    </g>
    <g opacity=".9" clip-path="url(#r)">
      <defs>
        <path id="u" d="M531.1 232.9h63.4V295h-63.4z"/>
      </defs>
      <clipPath id="v">
        <use xlink:href="#u" overflow="visible"/>
      </clipPath>
      <path fill="#854813" d="M532.5 258.3c-3 16.4 8.1 32.1 24.8 35.3 16.7 3.1 32.8-7.6 35.8-24 3.1-16.4-8.1-32.1-24.8-35.2-16.7-3.2-32.8 7.6-35.8 23.9" clip-path="url(#v)"/>
      <path fill="none" stroke="#F5CE00" stroke-width="1.808" d="M532.5 258.3c-3 16.4 8.1 32.1 24.8 35.3 16.7 3.1 32.8-7.6 35.8-24 3.1-16.4-8.1-32.1-24.8-35.2-16.7-3.2-32.8 7.6-35.8 23.9z" clip-path="url(#v)"/>
    </g>
    <g opacity=".9" clip-path="url(#r)">
      <defs>
        <path id="w" d="M488.5 245.1h63.4v62.1h-63.4z"/>
      </defs>
      <clipPath id="x">
        <use xlink:href="#w" overflow="visible"/>
      </clipPath>
      <path fill="#854813" d="M489.9 270.5c-3 16.4 8.1 32.2 24.8 35.3 16.7 3.1 32.8-7.6 35.8-24 3-16.3-8.1-32.1-24.8-35.2-16.7-3.2-32.7 7.6-35.8 23.9" clip-path="url(#x)"/>
      <path fill="none" stroke="#F5CE00" stroke-width="1.808" d="M489.9 270.5c-3 16.4 8.1 32.2 24.8 35.3 16.7 3.1 32.8-7.6 35.8-24 3-16.3-8.1-32.1-24.8-35.2-16.7-3.2-32.7 7.6-35.8 23.9z" clip-path="url(#x)"/>
    </g>
    <g opacity=".9" clip-path="url(#r)">
      <defs>
        <path id="y" d="M482 227.4h32.4v31.9H482z"/>
      </defs>
      <clipPath id="z">
        <use xlink:href="#y" overflow="visible"/>
      </clipPath>
      <path fill="#854813" d="M483.6 238.7c-2.5 7.9 2.1 16.4 10.1 18.9 8.1 2.5 16.6-1.8 19.1-9.7 2.5-7.9-2.1-16.4-10.1-18.9-8.1-2.5-16.6 1.8-19.1 9.7" clip-path="url(#z)"/>
      <path fill="none" stroke="#F5CE00" stroke-width="1.808" d="M483.6 238.7c-2.5 7.9 2.1 16.4 10.1 18.9 8.1 2.5 16.6-1.8 19.1-9.7 2.5-7.9-2.1-16.4-10.1-18.9-8.1-2.5-16.6 1.8-19.1 9.7z" clip-path="url(#z)"/>
    </g>
    <g opacity=".9" clip-path="url(#r)">
      <defs>
        <path id="A" d="M509.9 214.8h17v16.6h-17z"/>
      </defs>
      <clipPath id="B">
        <use xlink:href="#A" overflow="visible"/>
      </clipPath>
      <path fill="#854813" d="M510.9 221.7c-.7 4 2 7.9 6.1 8.7 4.1.8 8.1-1.9 8.8-5.9.7-4-2-7.9-6.1-8.7-4.1-.8-8 1.9-8.8 5.9" clip-path="url(#B)"/>
      <path fill="none" stroke="#F5CE00" stroke-width="1.808" d="M510.9 221.7c-.7 4 2 7.9 6.1 8.7 4.1.8 8.1-1.9 8.8-5.9.7-4-2-7.9-6.1-8.7-4.1-.8-8 1.9-8.8 5.9z" clip-path="url(#B)"/>
    </g>
    <g opacity=".6" clip-path="url(#r)">
      <defs>
        <path id="C" d="M358.9 240.3h91.4v89.5h-91.4z"/>
      </defs>
      <clipPath id="D">
        <use xlink:href="#C" overflow="visible"/>
      </clipPath>
      <path fill="#854813" d="M360.5 276.9c-4.4 23.8 11.7 46.7 36.1 51.3 24.3 4.5 47.7-11.1 52.1-34.9 4.4-23.8-11.7-46.7-36.1-51.3-24.3-4.5-47.6 11.1-52.1 34.9" clip-path="url(#D)"/>
      <path fill="none" stroke="#F5CE00" stroke-width="1.808" d="M360.5 276.9c-4.4 23.8 11.7 46.7 36.1 51.3 24.3 4.5 47.7-11.1 52.1-34.9 4.4-23.8-11.7-46.7-36.1-51.3-24.3-4.5-47.6 11.1-52.1 34.9z" clip-path="url(#D)"/>
    </g>
    <g opacity=".8" clip-path="url(#r)">
      <defs>
        <path id="E" d="M227.9 254.3h32.5v31.9h-32.5z"/>
      </defs>
      <clipPath id="F">
        <use xlink:href="#E" overflow="visible"/>
      </clipPath>
      <path fill="#854813" d="M259.3 273.1c1.5-8.2-4-16-12.4-17.6-8.4-1.6-16.3 3.8-17.9 12-1.5 8.2 4 16 12.4 17.6 8.4 1.5 16.4-3.9 17.9-12" clip-path="url(#F)"/>
      <path fill="none" stroke="#F5CE00" stroke-width="1.808" d="M259.3 273.1c1.5-8.2-4-16-12.4-17.6-8.4-1.6-16.3 3.8-17.9 12-1.5 8.2 4 16 12.4 17.6 8.4 1.5 16.4-3.9 17.9-12z" clip-path="url(#F)"/>
    </g>
    <path fill="#854813" d="M186.4 385.3c-14.1.1-25.6-11.2-25.7-25.3-.1-14.1 11.2-25.6 25.3-25.7 14.1-.1 25.6 11.2 25.7 25.3 0 14.1-11.3 25.6-25.3 25.7" clip-path="url(#r)"/>
    <path fill="none" stroke="#F5CE00" stroke-width="1.808" d="M186.4 385.3c-14.1.1-25.6-11.2-25.7-25.3-.1-14.1 11.2-25.6 25.3-25.7 14.1-.1 25.6 11.2 25.7 25.3 0 14.1-11.3 25.6-25.3 25.7z" clip-path="url(#r)"/>
    <path fill="#854813" d="M391.7 422c-14.1.1-25.6-11.2-25.7-25.3-.1-14.1 11.2-25.6 25.3-25.7 14.1-.1 25.6 11.2 25.7 25.2.1 14.2-11.2 25.7-25.3 25.8" clip-path="url(#r)"/>
    <path fill="none" stroke="#F5CE00" stroke-width="1.808" d="M391.7 422c-14.1.1-25.6-11.2-25.7-25.3-.1-14.1 11.2-25.6 25.3-25.7 14.1-.1 25.6 11.2 25.7 25.2.1 14.2-11.2 25.7-25.3 25.8z" clip-path="url(#r)"/>
    <g opacity=".8" clip-path="url(#r)">
      <defs>
        <path id="G" d="M243.3 196.7h112.3v110H243.3z"/>
      </defs>
      <clipPath id="H">
        <use xlink:href="#G" overflow="visible"/>
      </clipPath>
      <path fill="#854813" d="M245.1 241.6c-5.5 29.3 14.5 57.7 44.5 63.2 30 5.6 58.8-13.7 64.2-43 5.4-29.4-14.5-57.6-44.5-63.2-30-5.6-58.8 13.7-64.2 43" clip-path="url(#H)"/>
      <path fill="none" stroke="#F5CE00" stroke-width="1.808" d="M245.1 241.6c-5.5 29.3 14.5 57.7 44.5 63.2 30 5.6 58.8-13.7 64.2-43 5.4-29.4-14.5-57.6-44.5-63.2-30-5.6-58.8 13.7-64.2 43z" clip-path="url(#H)"/>
    </g>
    <g opacity=".8" clip-path="url(#r)">
      <defs>
        <path id="I" d="M202.2 329.8h99.2v97h-99.2z"/>
      </defs>
      <clipPath id="J">
        <use xlink:href="#I" overflow="visible"/>
      </clipPath>
      <path fill="#854813" d="M203.1 378.8c.2 26.3 22.2 47.4 49.1 47.2 26.9-.2 48.5-21.7 48.3-48-.2-26.3-22.2-47.4-49.1-47.2-26.9.2-48.5 21.7-48.3 48" clip-path="url(#J)"/>
      <path fill="none" stroke="#F5CE00" stroke-width="1.808" d="M203.1 378.8c.2 26.3 22.2 47.4 49.1 47.2 26.9-.2 48.5-21.7 48.3-48-.2-26.3-22.2-47.4-49.1-47.2-26.9.2-48.5 21.7-48.3 48z" clip-path="url(#J)"/>
    </g>
    <g opacity=".8" clip-path="url(#r)">
      <defs>
        <path id="K" d="M212.9 191.8h73.4V264h-73.4z"/>
      </defs>
      <clipPath id="L">
        <use xlink:href="#K" overflow="visible"/>
      </clipPath>
      <path fill="#854813" d="M216.1 215c-7 18.1 2.3 38.5 20.8 45.7 18.5 7.2 39.1-1.7 46.1-19.7 7-18.1-2.3-38.5-20.8-45.7-18.4-7.2-39.1 1.6-46.1 19.7" clip-path="url(#L)"/>
      <path fill="none" stroke="#F5CE00" stroke-width="1.808" d="M216.1 215c-7 18.1 2.3 38.5 20.8 45.7 18.5 7.2 39.1-1.7 46.1-19.7 7-18.1-2.3-38.5-20.8-45.7-18.4-7.2-39.1 1.6-46.1 19.7z" clip-path="url(#L)"/>
    </g>
    <g opacity=".8" clip-path="url(#r)">
      <defs>
        <path id="M" d="M186.2 197.5H225v38.2h-38.8z"/>
      </defs>
      <clipPath id="N">
        <use xlink:href="#M" overflow="visible"/>
      </clipPath>
      <path fill="#854813" d="M188.3 209.8c-3.6 9.3 1.2 19.9 10.7 23.6 9.6 3.7 20.2-.9 23.8-10.2 3.6-9.3-1.2-19.9-10.7-23.6-9.5-3.6-20.1.9-23.8 10.2" clip-path="url(#N)"/>
      <path fill="none" stroke="#F5CE00" stroke-width="1.808" d="M188.3 209.8c-3.6 9.3 1.2 19.9 10.7 23.6 9.6 3.7 20.2-.9 23.8-10.2 3.6-9.3-1.2-19.9-10.7-23.6-9.5-3.6-20.1.9-23.8 10.2z" clip-path="url(#N)"/>
    </g>
    <g opacity=".1" clip-path="url(#r)">
      <defs>
        <path id="O" d="M259.8 288h61.3v60.1h-61.3z"/>
      </defs>
      <clipPath id="P">
        <use xlink:href="#O" overflow="visible"/>
      </clipPath>
      <path fill="#854813" d="M261.2 312.6c-2.9 15.8 7.8 31 24 34s31.7-7.4 34.6-23.2c2.9-15.8-7.8-31.1-24-34.1-16.2-2.9-31.7 7.5-34.6 23.3" clip-path="url(#P)"/>
      <path fill="none" stroke="#F5CE00" stroke-width="1.808" d="M261.2 312.6c-2.9 15.8 7.8 31 24 34s31.7-7.4 34.6-23.2c2.9-15.8-7.8-31.1-24-34.1-16.2-2.9-31.7 7.5-34.6 23.3z" clip-path="url(#P)"/>
    </g>
    <g opacity=".8" clip-path="url(#r)">
      <defs>
        <path id="Q" d="M423.4 257.8h46.2v45.3h-46.2z"/>
      </defs>
      <clipPath id="R">
        <use xlink:href="#Q" overflow="visible"/>
      </clipPath>
      <path fill="#854813" d="M424.7 276.4c-2.2 11.8 5.8 23.2 17.9 25.4 12.1 2.3 23.6-5.5 25.8-17.3 2.2-11.8-5.8-23.2-17.9-25.4-12.1-2.2-23.6 5.5-25.8 17.3" clip-path="url(#R)"/>
      <path fill="none" stroke="#F5CE00" stroke-width="1.808" d="M424.7 276.4c-2.2 11.8 5.8 23.2 17.9 25.4 12.1 2.3 23.6-5.5 25.8-17.3 2.2-11.8-5.8-23.2-17.9-25.4-12.1-2.2-23.6 5.5-25.8 17.3z" clip-path="url(#R)"/>
    </g>
    <g opacity=".57" clip-path="url(#r)">
      <defs>
        <path id="S" d="M217.4 278.3h81.8v80.1h-81.8z"/>
      </defs>
      <clipPath id="T">
        <use xlink:href="#S" overflow="visible"/>
      </clipPath>
      <path fill="#854813" d="M218.9 311c-3.9 21.2 10.5 41.7 32.2 45.8 21.7 4 42.5-9.9 46.5-31.2 3.9-21.2-10.5-41.7-32.2-45.7-21.7-4.1-42.5 9.9-46.5 31.1" clip-path="url(#T)"/>
      <path fill="none" stroke="#F5CE00" stroke-width="1.808" d="M218.9 311c-3.9 21.2 10.5 41.7 32.2 45.8 21.7 4 42.5-9.9 46.5-31.2 3.9-21.2-10.5-41.7-32.2-45.7-21.7-4.1-42.5 9.9-46.5 31.1z" clip-path="url(#T)"/>
    </g>
    <g opacity=".7" clip-path="url(#r)">
      <defs>
        <path id="U" d="M216.9 261.7h138.6v135.7H216.9z"/>
      </defs>
      <clipPath id="V">
        <use xlink:href="#U" overflow="visible"/>
      </clipPath>
      <path fill="#854813" d="M218.9 317c-6.7 36.3 17.9 71.4 55.1 78.3 37.2 6.9 72.8-16.9 79.5-53.3 6.7-36.3-17.9-71.4-55.1-78.3-37.1-6.9-72.7 17-79.5 53.3" clip-path="url(#V)"/>
      <path fill="none" stroke="#F5CE00" stroke-width="1.808" d="M218.9 317c-6.7 36.3 17.9 71.4 55.1 78.3 37.2 6.9 72.8-16.9 79.5-53.3 6.7-36.3-17.9-71.4-55.1-78.3-37.1-6.9-72.7 17-79.5 53.3z" clip-path="url(#V)"/>
    </g>
    <g opacity=".9" clip-path="url(#r)">
      <defs>
        <path id="W" d="M288.7 262.8h110.4v108.1H288.7z"/>
      </defs>
      <clipPath id="X">
        <use xlink:href="#W" overflow="visible"/>
      </clipPath>
      <path fill="#854813" d="M290.5 307c-5.3 28.8 14.2 56.7 43.8 62.1 29.5 5.5 57.8-13.5 63.1-42.3 5.4-28.8-14.2-56.7-43.7-62.1-29.6-5.5-57.8 13.4-63.2 42.3" clip-path="url(#X)"/>
      <path fill="none" stroke="#F5CE00" stroke-width="1.808" d="M290.5 307c-5.3 28.8 14.2 56.7 43.8 62.1 29.5 5.5 57.8-13.5 63.1-42.3 5.4-28.8-14.2-56.7-43.7-62.1-29.6-5.5-57.8 13.4-63.2 42.3z" clip-path="url(#X)"/>
    </g>
    <path fill="#854813" d="M320.4 243.5c-3.2 17.5 8.6 34.3 26.5 37.7 17.9 3.3 35-8.2 38.3-25.6 3.2-17.5-8.6-34.3-26.5-37.6-17.9-3.5-35.1 8-38.3 25.5" clip-path="url(#r)"/>
    <path fill="none" stroke="#F5CE00" stroke-width="1.808" d="M320.4 243.5c-3.2 17.5 8.6 34.3 26.5 37.7 17.9 3.3 35-8.2 38.3-25.6 3.2-17.5-8.6-34.3-26.5-37.6-17.9-3.5-35.1 8-38.3 25.5z" clip-path="url(#r)"/>
    <g opacity=".8" clip-path="url(#r)">
      <defs>
        <path id="Y" d="M360.6 262h75.1v73.5h-75.1z"/>
      </defs>
      <clipPath id="Z">
        <use xlink:href="#Y" overflow="visible"/>
      </clipPath>
      <path fill="#854813" d="M362.1 292c-3.6 19.5 9.6 38.2 29.5 41.9 19.9 3.7 39-9.1 42.6-28.5 3.6-19.4-9.6-38.2-29.5-41.9-20-3.7-39 9.1-42.6 28.5" clip-path="url(#Z)"/>
      <path fill="none" stroke="#F5CE00" stroke-width="1.808" d="M362.1 292c-3.6 19.5 9.6 38.2 29.5 41.9 19.9 3.7 39-9.1 42.6-28.5 3.6-19.4-9.6-38.2-29.5-41.9-20-3.7-39 9.1-42.6 28.5z" clip-path="url(#Z)"/>
    </g>
    <g opacity=".8" clip-path="url(#r)">
      <defs>
        <path id="aa" d="M404.1 279.6h101.6v99.5H404.1z"/>
      </defs>
      <clipPath id="ab">
        <use xlink:href="#aa" overflow="visible"/>
      </clipPath>
      <path fill="#854813" d="M405.8 320.2c-4.9 26.5 13.1 52 40.2 57.1 27.1 5 53.1-12.4 58-38.9 4.9-26.5-13.1-52-40.2-57.1-27.1-5-53 12.4-58 38.9" clip-path="url(#ab)"/>
      <path fill="none" stroke="#F5CE00" stroke-width="1.808" d="M405.8 320.2c-4.9 26.5 13.1 52 40.2 57.1 27.1 5 53.1-12.4 58-38.9 4.9-26.5-13.1-52-40.2-57.1-27.1-5-53 12.4-58 38.9z" clip-path="url(#ab)"/>
    </g>
    <g opacity=".9" clip-path="url(#r)">
      <defs>
        <path id="ac" d="M404.1 346.7h101.6v99.5H404.1z"/>
      </defs>
      <clipPath id="ad">
        <use xlink:href="#ac" overflow="visible"/>
      </clipPath>
      <path fill="#854813" d="M405.8 387.4c-4.9 26.5 13.1 52 40.2 57.1 27.1 5 53.1-12.4 58-38.9 4.9-26.5-13.1-52-40.2-57.1-27.1-5-53 12.4-58 38.9" clip-path="url(#ad)"/>
      <path fill="none" stroke="#F5CE00" stroke-width="1.808" d="M405.8 387.4c-4.9 26.5 13.1 52 40.2 57.1 27.1 5 53.1-12.4 58-38.9 4.9-26.5-13.1-52-40.2-57.1-27.1-5-53 12.4-58 38.9z" clip-path="url(#ad)"/>
    </g>
    <g opacity=".8" clip-path="url(#r)">
      <defs>
        <path id="ae" d="M467.9 324.4h101v98.9h-101z"/>
      </defs>
      <clipPath id="af">
        <use xlink:href="#ae" overflow="visible"/>
      </clipPath>
      <path fill="#854813" d="M469.6 364.8c-4.9 26.3 13 51.7 39.9 56.7 27 5 52.7-12.3 57.6-38.6 4.9-26.3-13-51.7-39.9-56.7s-52.7 12.3-57.6 38.6" clip-path="url(#af)"/>
      <path fill="none" stroke="#F5CE00" stroke-width="1.808" d="M469.6 364.8c-4.9 26.3 13 51.7 39.9 56.7 27 5 52.7-12.3 57.6-38.6 4.9-26.3-13-51.7-39.9-56.7s-52.7 12.3-57.6 38.6z" clip-path="url(#af)"/>
    </g>
    <g opacity=".8" clip-path="url(#r)">
      <defs>
        <path id="ag" d="M535.5 277.8h87.3v85.5h-87.3z"/>
      </defs>
      <clipPath id="ah">
        <use xlink:href="#ag" overflow="visible"/>
      </clipPath>
      <path fill="#854813" d="M537.1 312.7c-4.2 22.7 11.2 44.6 34.4 48.9 23.2 4.3 45.5-10.6 49.7-33.3 4.2-22.7-11.2-44.6-34.4-48.9-23.2-4.3-45.5 10.6-49.7 33.3" clip-path="url(#ah)"/>
      <path fill="none" stroke="#F5CE00" stroke-width="1.808" d="M537.1 312.7c-4.2 22.7 11.2 44.6 34.4 48.9 23.2 4.3 45.5-10.6 49.7-33.3 4.2-22.7-11.2-44.6-34.4-48.9-23.2-4.3-45.5 10.6-49.7 33.3z" clip-path="url(#ah)"/>
    </g>
    <g opacity=".9" clip-path="url(#r)">
      <defs>
        <path id="ai" d="M568.4 227.4h87.5v85.7h-87.5z"/>
      </defs>
      <clipPath id="aj">
        <use xlink:href="#ai" overflow="visible"/>
      </clipPath>
      <path fill="#854813" d="M570 262.4c-4.2 22.8 11.2 44.7 34.5 49 23.3 4.3 45.6-10.6 49.8-33.4 4.2-22.7-11.2-44.7-34.5-49-23.3-4.3-45.6 10.7-49.8 33.4" clip-path="url(#aj)"/>
      <path fill="none" stroke="#F5CE00" stroke-width="1.808" d="M570 262.4c-4.2 22.8 11.2 44.7 34.5 49 23.3 4.3 45.6-10.6 49.8-33.4 4.2-22.7-11.2-44.7-34.5-49-23.3-4.3-45.6 10.7-49.8 33.4z" clip-path="url(#aj)"/>
    </g>
    <g opacity=".9" clip-path="url(#r)">
      <defs>
        <path id="ak" d="M482.7 283.2h87.5v85.7h-87.5z"/>
      </defs>
      <clipPath id="al">
        <use xlink:href="#ak" overflow="visible"/>
      </clipPath>
      <path fill="#854813" d="M484.3 318.2c-4.2 22.8 11.2 44.7 34.5 49 23.3 4.3 45.6-10.6 49.8-33.4 4.2-22.7-11.2-44.7-34.5-49-23.3-4.3-45.6 10.7-49.8 33.4" clip-path="url(#al)"/>
      <path fill="none" stroke="#F5CE00" stroke-width="1.808" d="M484.3 318.2c-4.2 22.8 11.2 44.7 34.5 49 23.3 4.3 45.6-10.6 49.8-33.4 4.2-22.7-11.2-44.7-34.5-49-23.3-4.3-45.6 10.7-49.8 33.4z" clip-path="url(#al)"/>
    </g>
    <g opacity=".9" clip-path="url(#r)">
      <defs>
        <path id="am" d="M566.4 311.6h49.5v48.5h-49.5z"/>
      </defs>
      <clipPath id="an">
        <use xlink:href="#am" overflow="visible"/>
      </clipPath>
      <path fill="#854813" d="M567.7 331.5c-2.4 12.7 6.2 24.9 19.2 27.3 13 2.4 25.4-5.9 27.7-18.6 2.4-12.7-6.3-24.9-19.2-27.3-13-2.4-25.4 5.9-27.7 18.6" clip-path="url(#an)"/>
      <path fill="none" stroke="#F5CE00" stroke-width="1.808" d="M567.7 331.5c-2.4 12.7 6.2 24.9 19.2 27.3 13 2.4 25.4-5.9 27.7-18.6 2.4-12.7-6.3-24.9-19.2-27.3-13-2.4-25.4 5.9-27.7 18.6z" clip-path="url(#an)"/>
    </g>
    <g opacity=".9" clip-path="url(#r)">
      <defs>
        <path id="ao" d="M435.5 298.9h44.8v43.9h-44.8z"/>
      </defs>
      <clipPath id="ap">
        <use xlink:href="#ao" overflow="visible"/>
      </clipPath>
      <path fill="#854813" d="M436.8 316.9c-2.1 11.4 5.6 22.5 17.3 24.6 11.7 2.2 22.9-5.3 25-16.8 2.1-11.4-5.6-22.4-17.3-24.6-11.7-2.1-22.9 5.4-25 16.8" clip-path="url(#ap)"/>
      <path fill="none" stroke="#F5CE00" stroke-width="1.808" d="M436.8 316.9c-2.1 11.4 5.6 22.5 17.3 24.6 11.7 2.2 22.9-5.3 25-16.8 2.1-11.4-5.6-22.4-17.3-24.6-11.7-2.1-22.9 5.4-25 16.8z" clip-path="url(#ap)"/>
    </g>
    <g opacity=".9" clip-path="url(#r)">
      <defs>
        <path id="aq" d="M519.4 210.8h48.8v47.8h-48.8z"/>
      </defs>
      <clipPath id="ar">
        <use xlink:href="#aq" overflow="visible"/>
      </clipPath>
      <path fill="#854813" d="M520.6 230.4c-2.3 12.5 6.2 24.5 18.9 26.9 12.8 2.4 25-5.8 27.3-18.3 2.3-12.5-6.2-24.5-18.9-26.9-12.7-2.4-24.9 5.8-27.3 18.3" clip-path="url(#ar)"/>
      <path fill="none" stroke="#F5CE00" stroke-width="1.808" d="M520.6 230.4c-2.3 12.5 6.2 24.5 18.9 26.9 12.8 2.4 25-5.8 27.3-18.3 2.3-12.5-6.2-24.5-18.9-26.9-12.7-2.4-24.9 5.8-27.3 18.3z" clip-path="url(#ar)"/>
    </g>
    <g opacity=".9" clip-path="url(#r)">
      <defs>
        <path id="as" d="M340.7 329h101.6v99.5H340.7z"/>
      </defs>
      <clipPath id="at">
        <use xlink:href="#as" overflow="visible"/>
      </clipPath>
      <path fill="#854813" d="M342.4 369.6c-4.9 26.5 13.1 52.1 40.2 57.1s53.1-12.4 58-38.9c4.9-26.5-13.1-52-40.2-57.1-27.1-5-53.1 12.4-58 38.9" clip-path="url(#at)"/>
      <path fill="none" stroke="#F5CE00" stroke-width="1.808" d="M342.4 369.6c-4.9 26.5 13.1 52.1 40.2 57.1s53.1-12.4 58-38.9c4.9-26.5-13.1-52-40.2-57.1-27.1-5-53.1 12.4-58 38.9z" clip-path="url(#at)"/>
    </g>
    <g opacity=".6" clip-path="url(#r)">
      <defs>
        <path id="au" d="M245.7 360.4h73.4v72.2h-73.4z"/>
      </defs>
      <clipPath id="av">
        <use xlink:href="#au" overflow="visible"/>
      </clipPath>
      <path fill="#854813" d="M248.9 383.5c-7 18.1 2.3 38.5 20.8 45.7 18.5 7.2 39.2-1.7 46.2-19.7 7-18.1-2.3-38.5-20.8-45.7-18.5-7.2-39.2 1.7-46.2 19.7" clip-path="url(#av)"/>
      <path fill="none" stroke="#F5CE00" stroke-width="1.808" d="M248.9 383.5c-7 18.1 2.3 38.5 20.8 45.7 18.5 7.2 39.2-1.7 46.2-19.7 7-18.1-2.3-38.5-20.8-45.7-18.5-7.2-39.2 1.7-46.2 19.7z" clip-path="url(#av)"/>
    </g>
    <g opacity=".7" clip-path="url(#r)">
      <defs>
        <path id="aw" d="M203 330.7h76.8v75.2H203z"/>
      </defs>
      <clipPath id="ax">
        <use xlink:href="#aw" overflow="visible"/>
      </clipPath>
      <path fill="#854813" d="M204.5 361.5c-3.7 19.9 9.8 39.1 30.2 42.9 20.4 3.8 39.9-9.3 43.6-29.2 3.7-19.9-9.8-39.1-30.2-42.9-20.4-3.8-39.9 9.2-43.6 29.2" clip-path="url(#ax)"/>
      <path fill="none" stroke="#F5CE00" stroke-width="1.808" d="M204.5 361.5c-3.7 19.9 9.8 39.1 30.2 42.9 20.4 3.8 39.9-9.3 43.6-29.2 3.7-19.9-9.8-39.1-30.2-42.9-20.4-3.8-39.9 9.2-43.6 29.2z" clip-path="url(#ax)"/>
    </g>
    <g opacity=".9" clip-path="url(#r)">
      <defs>
        <path id="ay" d="M194.4 334.9h26.3v25.9h-26.3z"/>
      </defs>
      <clipPath id="az">
        <use xlink:href="#ay" overflow="visible"/>
      </clipPath>
      <path fill="#854813" d="M196.1 343.4c-2.4 6.2.8 13.2 7.1 15.6 6.3 2.4 13.4-.6 15.8-6.8 2.4-6.2-.8-13.2-7.1-15.6-6.4-2.4-13.4.7-15.8 6.8" clip-path="url(#az)"/>
      <path fill="none" stroke="#F5CE00" stroke-width="1.808" d="M196.1 343.4c-2.4 6.2.8 13.2 7.1 15.6 6.3 2.4 13.4-.6 15.8-6.8 2.4-6.2-.8-13.2-7.1-15.6-6.4-2.4-13.4.7-15.8 6.8z" clip-path="url(#az)"/>
    </g>
    <g opacity=".9" clip-path="url(#r)">
      <defs>
        <path id="aA" d="M182.4 281.7h71.8v71.7h-71.8z"/>
      </defs>
      <clipPath id="aB">
        <use xlink:href="#aA" overflow="visible"/>
      </clipPath>
      <path fill="#854813" d="M183.3 317.9c.2 19.3 16 34.8 35.3 34.7 19.3-.2 34.8-15.9 34.7-35.3-.2-19.3-16-34.8-35.3-34.7-19.3.2-34.9 16-34.7 35.3" clip-path="url(#aB)"/>
      <path fill="none" stroke="#F5CE00" stroke-width="1.808" d="M183.3 317.9c.2 19.3 16 34.8 35.3 34.7 19.3-.2 34.8-15.9 34.7-35.3-.2-19.3-16-34.8-35.3-34.7-19.3.2-34.9 16-34.7 35.3z" clip-path="url(#aB)"/>
    </g>
    <g opacity=".75" clip-path="url(#r)">
      <defs>
        <path id="aC" d="M173.6 230.6h69.6v68.2h-69.6z"/>
      </defs>
      <clipPath id="aD">
        <use xlink:href="#aC" overflow="visible"/>
      </clipPath>
      <path fill="#854813" d="M175.1 258.5c-3.3 18 8.9 35.4 27.3 38.8 18.4 3.4 36.1-8.4 39.4-26.4 3.3-18-8.9-35.4-27.3-38.8-18.4-3.5-36.1 8.4-39.4 26.4" clip-path="url(#aD)"/>
      <path fill="none" stroke="#F5CE00" stroke-width="1.808" d="M175.1 258.5c-3.3 18 8.9 35.4 27.3 38.8 18.4 3.4 36.1-8.4 39.4-26.4 3.3-18-8.9-35.4-27.3-38.8-18.4-3.5-36.1 8.4-39.4 26.4z" clip-path="url(#aD)"/>
    </g>
    <g opacity=".93" clip-path="url(#r)">
      <defs>
        <path id="aE" d="M150 247.6h59.6v63.5H150z"/>
      </defs>
      <clipPath id="aF">
        <use xlink:href="#aE" overflow="visible"/>
      </clipPath>
      <path fill="#854813" d="M151.3 273c-2.5 16.7 8.1 33 23.9 36.5 15.7 3.5 30.6-7.2 33.1-23.9s-8.2-33-23.9-36.5-30.5 7.2-33.1 23.9" clip-path="url(#aF)"/>
      <path fill="none" stroke="#F5CE00" stroke-width="1.808" d="M151.3 273c-2.5 16.7 8.1 33 23.9 36.5 15.7 3.5 30.6-7.2 33.1-23.9s-8.2-33-23.9-36.5-30.5 7.2-33.1 23.9z" clip-path="url(#aF)"/>
    </g>
    <g opacity=".8" clip-path="url(#r)">
      <defs>
        <path id="aG" d="M270.7 345.2h104.8v102.7H270.7z"/>
      </defs>
      <clipPath id="aH">
        <use xlink:href="#aG" overflow="visible"/>
      </clipPath>
      <path fill="#854813" d="M272.5 387.1c-5.1 27.4 13.5 53.7 41.5 58.9 28 5.2 54.8-12.8 59.9-40.1 5.1-27.4-13.5-53.7-41.5-58.9-28-5.2-54.8 12.8-59.9 40.1" clip-path="url(#aH)"/>
      <path fill="none" stroke="#F5CE00" stroke-width="1.808" d="M272.5 387.1c-5.1 27.4 13.5 53.7 41.5 58.9 28 5.2 54.8-12.8 59.9-40.1 5.1-27.4-13.5-53.7-41.5-58.9-28-5.2-54.8 12.8-59.9 40.1z" clip-path="url(#aH)"/>
    </g>
    <g opacity=".8" clip-path="url(#r)">
      <defs>
        <path id="aI" d="M452.9 246.7H513v58.8h-60.1z"/>
      </defs>
      <clipPath id="aJ">
        <use xlink:href="#aI" overflow="visible"/>
      </clipPath>
      <path fill="#854813" d="M454.3 270.8c-2.9 15.5 7.6 30.4 23.4 33.3 15.8 2.9 31-7.2 33.9-22.7 2.9-15.5-7.6-30.4-23.5-33.3-15.8-2.9-31 7.3-33.8 22.7" clip-path="url(#aJ)"/>
      <path fill="none" stroke="#F5CE00" stroke-width="1.808" d="M454.3 270.8c-2.9 15.5 7.6 30.4 23.4 33.3 15.8 2.9 31-7.2 33.9-22.7 2.9-15.5-7.6-30.4-23.5-33.3-15.8-2.9-31 7.3-33.8 22.7z" clip-path="url(#aJ)"/>
    </g>
    <g opacity=".8" clip-path="url(#r)">
      <defs>
        <path id="aK" d="M150.8 325.8H184V360h-33.2z"/>
      </defs>
      <clipPath id="aL">
        <use xlink:href="#aK" overflow="visible"/>
      </clipPath>
      <path fill="#854813" d="M151.9 339.4c-1.3 8.7 4.5 17.3 13.1 19.2 8.6 1.9 16.6-3.7 17.9-12.4 1.3-8.8-4.6-17.4-13.1-19.2-8.6-1.8-16.6 3.7-17.9 12.4" clip-path="url(#aL)"/>
      <path fill="none" stroke="#F5CE00" stroke-width="1.808" d="M151.9 339.4c-1.3 8.7 4.5 17.3 13.1 19.2 8.6 1.9 16.6-3.7 17.9-12.4 1.3-8.8-4.6-17.4-13.1-19.2-8.6-1.8-16.6 3.7-17.9 12.4z" clip-path="url(#aL)"/>
    </g>
  </g>
  <g clip-path="url(#b)">
    <defs>
      <path id="aM" d="M0 0h841.9v595.3H0z"/>
    </defs>
    <clipPath id="aN">
      <use xlink:href="#aM" overflow="visible"/>
    </clipPath>
    <path fill="#DDB306" d="M597.8 256.3s-1.6-.3-4.6-.9c-3-.6-7.4-1.6-12.9-2.9-2.8-.6-5.8-1.4-9.1-2.1-3.3-.7-6.8-1.4-10.5-1.9-3.6-.4-7.5-.5-10.7.4-.5.2-1.1.3-1.6.5s-1 .3-1.4.5c-.9.3-2 .7-3 1.1-2.1.8-4.2 1.6-6.4 2.5-4.4 1.8-9 3.8-13.8 5.8-4.8 2-9.8 4.1-15.1 6-10.5 3.9-22 7.1-34 9.7-6 1.3-12.2 2.4-18.4 3.4-6.2.9-12.6 1.8-19 2.2-1.6.1-3.2.1-4.8.2-1.6.1-3.2 0-4.9.1-1.6 0-3.3-.1-4.9-.1-1.6-.1-3.2-.2-4.8-.2-1.6-.1-3.2-.1-4.8-.2l-4.9-.3c-3.3-.1-6.5-.5-9.8-.7-3.3-.3-6.5-.7-9.8-1-3.2-.4-6.5-.8-9.7-1.3-6.4-1-12.8-2.2-19-3.5-12.5-2.6-24.5-5.2-35.9-5.7-1.4-.1-2.8-.1-4.2-.1H318c-.7 0-1.5.1-2.2.1-3.1 0-5.6.4-8.3.6-2.8.4-5.5.7-8.2 1.2-1.4.2-2.7.4-4.1.6-1.3.3-2.7.5-4 .8-10.6 2-20.7 4.5-29.9 6.9-9.3 2.5-17.7 4.9-25.3 7.1-3.8 1.1-7.3 2.2-10.5 3.2-1.6.5-3.2 1-4.7 1.4l-.3.1h-.2l-.2.1-.6.1c-.4.1-.7.2-1.1.3-.7.2-1.6.3-2.4.4-1.5.2-2.9.4-4.2.4-1.3.1-2.5.1-3.7.1-2.3 0-4.1-.1-5.7-.3-1.5-.1-2.7-.3-3.5-.4-.8-.1-1.2-.1-1.2-.1v-1.2s.4 0 1.2-.1c.8-.1 1.9-.2 3.4-.4s3.3-.4 5.5-.8c2.1-.4 4.6-.9 7-1.7.6-.2 1.1-.4 1.8-.7.3-.2.7-.3 1-.5l.5-.2c-.2.1 0 0 0 0h.1l.1-.1.3-.1c1.4-.7 2.9-1.4 4.4-2.1 1.6-.7 3.2-1.5 4.8-2.3 1.7-.8 3.4-1.5 5.3-2.3 7.3-3.2 15.6-6.6 24.8-9.9 9.2-3.3 19.4-6.5 30.5-9 5.5-1.3 11.4-2.3 17.4-3 3.1-.3 6.5-.6 9.3-.6.7 0 1.5 0 2.2-.1h1.3l1.2.1c1.6.1 3.2.1 4.8.3 6.4.5 12.7 1.7 18.9 3.1 6.2 1.4 12.4 3 18.5 4.7 3.1.8 6.1 1.7 9.2 2.5 3.1.9 6.1 1.7 9.2 2.5 3.1.9 6.2 1.6 9.3 2.4 3.1.7 6.2 1.5 9.3 2.2 6.3 1.3 12.5 2.5 18.9 3.3l4.8.6c1.6.1 3.1.2 4.7.3 1.6 0 3.1.1 4.7.1s3.1-.1 4.7-.2c6.3-.4 12.4-1.3 18.4-2.7 6-1.4 11.8-3.3 17.4-5.3 11.3-4.1 21.8-9.1 31.9-13.3 5.1-2.2 10-4.2 14.9-6.1 4.9-1.9 9.6-3.8 14.3-5.4 2.3-.8 4.7-1.6 7-2.3 1.2-.3 2.3-.7 3.5-1 .6-.1 1.2-.3 1.8-.4.5-.1 1.1-.2 1.6-.3 2.6-.5 5.3-.6 7.6-.4 2.4.2 4.5.6 6.6 1 4.1 1 7.7 2.2 10.9 3.4 3.3 1.2 6.2 2.5 8.8 3.6 5.2 2.3 9.2 4.2 12 5.4 1.4.6 2.4 1.1 3.2 1.5.7.3 1.1.5 1.1.5v.9z" clip-path="url(#aN)"/>
    <path fill="#FFF" d="M321.6 337.9c0 2.6-1.1 4.6-3.2 6.1-1.9 1.4-4.2 2-6.8 2-3.7 0-6.6-1-8.5-3.1-.7-.7-1-1.4-1-2.2 0-1.8.9-2.7 2.7-2.7.6 0 1.7.5 3.1 1.4 1.4.9 2.7 1.4 4 1.4.9 0 1.8-.2 2.5-.6.9-.4 1.3-1.1 1.3-1.9 0-1.1-1.1-2.1-3.3-3.1-3.5-1.6-5.6-2.5-6-2.8-2.2-1.5-3.3-3.3-3.3-5.5 0-2.4 1-4.3 2.9-5.8 1.7-1.3 3.9-1.9 6.4-1.9 1.7 0 3.5.4 5.4 1.2 2.2 1 3.4 2.2 3.4 3.7 0 .7-.2 1.3-.7 1.8-.5.5-1.1.7-1.8.7-.6 0-1.6-.4-2.9-1.1-1.4-.8-2.5-1.1-3.5-1.1-.8 0-1.5.2-2.1.6-.7.4-1.1 1-1.1 1.8s.5 1.4 1.5 1.9c1.6.7 3.3 1.5 5 2.2 2 .9 3.5 1.9 4.6 2.8.8.8 1.4 2.3 1.4 4.2" clip-path="url(#aN)"/>
    <path fill="none" stroke="#FFF" stroke-width=".376" d="M321.6 337.9c0 2.6-1.1 4.6-3.2 6.1-1.9 1.4-4.2 2-6.8 2-3.7 0-6.6-1-8.5-3.1-.7-.7-1-1.4-1-2.2 0-1.8.9-2.7 2.7-2.7.6 0 1.7.5 3.1 1.4 1.4.9 2.7 1.4 4 1.4.9 0 1.8-.2 2.5-.6.9-.4 1.3-1.1 1.3-1.9 0-1.1-1.1-2.1-3.3-3.1-3.5-1.6-5.6-2.5-6-2.8-2.2-1.5-3.3-3.3-3.3-5.5 0-2.4 1-4.3 2.9-5.8 1.7-1.3 3.9-1.9 6.4-1.9 1.7 0 3.5.4 5.4 1.2 2.2 1 3.4 2.2 3.4 3.7 0 .7-.2 1.3-.7 1.8-.5.5-1.1.7-1.8.7-.6 0-1.6-.4-2.9-1.1-1.4-.8-2.5-1.1-3.5-1.1-.8 0-1.5.2-2.1.6-.7.4-1.1 1-1.1 1.8s.5 1.4 1.5 1.9c1.6.7 3.3 1.5 5 2.2 2 .9 3.5 1.9 4.6 2.8.8.8 1.4 2.3 1.4 4.2z" clip-path="url(#aN)"/>
    <path fill="#FFF" d="M346.8 335.4c0 3.4-1 6-2.9 7.9-1.9 1.8-4.6 2.8-8 2.8-3.4 0-6.1-.9-8-2.8-1.9-1.9-2.9-4.5-2.9-7.9v-12.3c0-2.6 1-3.8 3-3.8s3 1.3 3 3.8v11.4c0 4 1.6 6 4.9 6 3.3 0 4.9-2 4.9-6v-11.4c0-2.6 1-3.8 3.1-3.8 2 0 3 1.3 3 3.8v12.3z" clip-path="url(#aN)"/>
    <path fill="none" stroke="#FFF" stroke-width=".376" d="M346.8 335.4c0 3.4-1 6-2.9 7.9-1.9 1.8-4.6 2.8-8 2.8-3.4 0-6.1-.9-8-2.8-1.9-1.9-2.9-4.5-2.9-7.9v-12.3c0-2.6 1-3.8 3-3.8s3 1.3 3 3.8v11.4c0 4 1.6 6 4.9 6 3.3 0 4.9-2 4.9-6v-11.4c0-2.6 1-3.8 3.1-3.8 2 0 3 1.3 3 3.8v12.3z" clip-path="url(#aN)"/>
    <path fill="#FFF" d="M375.9 332.6c0 3.7-1 6.8-2.9 9.3-2.1 2.8-5 4.2-8.5 4.2-2.6 0-4.7-1-6.5-2.9h-.1v9.1c0 2.7-1 4-2.9 4-2 0-3-1.3-3-4v-29.1c0-2.6 1-3.9 3-3.9 1.3 0 2.1.6 2.6 1.8.1.3.2.7.4 1.2 1.4-2 3.6-2.9 6.7-2.9 3.6 0 6.4 1.4 8.5 4.1 1.8 2.3 2.7 5.4 2.7 9.1m-6 0c0-2.1-.4-3.9-1.3-5.3-1-1.7-2.6-2.5-4.6-2.5s-3.6.8-4.7 2.3c-1 1.4-1.5 3.1-1.5 5.2v1.2c0 1.9.5 3.6 1.6 4.9 1.2 1.5 2.7 2.2 4.6 2.2 2.1 0 3.6-.9 4.7-2.6.8-1.4 1.2-3.2 1.2-5.4" clip-path="url(#aN)"/>
    <path fill="none" stroke="#FFF" stroke-width=".376" d="M375.9 332.6c0 3.7-1 6.8-2.9 9.3-2.1 2.8-5 4.2-8.5 4.2-2.6 0-4.7-1-6.5-2.9h-.1v9.1c0 2.7-1 4-2.9 4-2 0-3-1.3-3-4v-29.1c0-2.6 1-3.9 3-3.9 1.3 0 2.1.6 2.6 1.8.1.3.2.7.4 1.2 1.4-2 3.6-2.9 6.7-2.9 3.6 0 6.4 1.4 8.5 4.1 1.8 2.3 2.7 5.4 2.7 9.1zm-6 0c0-2.1-.4-3.9-1.3-5.3-1-1.7-2.6-2.5-4.6-2.5s-3.6.8-4.7 2.3c-1 1.4-1.5 3.1-1.5 5.2v1.2c0 1.9.5 3.6 1.6 4.9 1.2 1.5 2.7 2.2 4.6 2.2 2.1 0 3.6-.9 4.7-2.6.8-1.4 1.2-3.2 1.2-5.4z" clip-path="url(#aN)"/>
    <path fill="#FFF" d="M402.6 331.1c0 1-.3 1.9-1 2.4-.7.6-1.6.9-2.6.9h-14.4c.1 1.9.7 3.4 2 4.5 1.3 1.2 2.8 1.7 4.7 1.7 1.6 0 3.3-.5 5.3-1.5s3-1.5 3.2-1.5c1.6 0 2.4.8 2.4 2.4 0 .5-.2 1.1-.7 1.7-1 1.3-2.6 2.4-4.7 3.1-1.8.7-3.7 1-5.7 1-3.8 0-6.8-1.3-9.2-4-2.2-2.5-3.4-5.7-3.4-9.5 0-3.7 1.1-6.9 3.4-9.5 2.3-2.6 5.3-3.9 9-3.9 3.2 0 6 1.2 8.3 3.6 2.3 2.6 3.4 5.4 3.4 8.6m-5.9-.8c-.1-1.8-.6-3.3-1.6-4.5-1-1.2-2.4-1.8-4.2-1.8-1.7 0-3.2.6-4.4 1.8-1.2 1.2-1.8 2.7-2 4.5h12.2z" clip-path="url(#aN)"/>
    <path fill="none" stroke="#FFF" stroke-width=".376" d="M402.6 331.1c0 1-.3 1.9-1 2.4-.7.6-1.6.9-2.6.9h-14.4c.1 1.9.7 3.4 2 4.5 1.3 1.2 2.8 1.7 4.7 1.7 1.6 0 3.3-.5 5.3-1.5s3-1.5 3.2-1.5c1.6 0 2.4.8 2.4 2.4 0 .5-.2 1.1-.7 1.7-1 1.3-2.6 2.4-4.7 3.1-1.8.7-3.7 1-5.7 1-3.8 0-6.8-1.3-9.2-4-2.2-2.5-3.4-5.7-3.4-9.5 0-3.7 1.1-6.9 3.4-9.5 2.3-2.6 5.3-3.9 9-3.9 3.2 0 6 1.2 8.3 3.6 2.3 2.6 3.4 5.4 3.4 8.6zm-5.9-.8c-.1-1.8-.6-3.3-1.6-4.5-1-1.2-2.4-1.8-4.2-1.8-1.7 0-3.2.6-4.4 1.8-1.2 1.2-1.8 2.7-2 4.5h12.2z" clip-path="url(#aN)"/>
    <path fill="#FFF" d="M420.9 322.2c0 1-.6 1.8-1.7 2.4-1.2.5-2.3.9-3.5 1.4-1.4.6-2.4 1.4-2.8 2.4-.4.8-.6 2.1-.6 3.7v9.9c0 2.5-1 3.8-3 3.8s-3-1.3-3-3.8v-18.7c0-2.6 1-3.8 3-3.8 1.2 0 2 .5 2.4 1.6.1.5.3 1.1.6 1.8.6-1 1.5-1.8 2.5-2.5s2.1-1.1 3.2-1.1c.9 0 1.6.3 2.2.8s.7 1.2.7 2.1" clip-path="url(#aN)"/>
    <path fill="none" stroke="#FFF" stroke-width=".376" d="M420.9 322.2c0 1-.6 1.8-1.7 2.4-1.2.5-2.3.9-3.5 1.4-1.4.6-2.4 1.4-2.8 2.4-.4.8-.6 2.1-.6 3.7v9.9c0 2.5-1 3.8-3 3.8s-3-1.3-3-3.8v-18.7c0-2.6 1-3.8 3-3.8 1.2 0 2 .5 2.4 1.6.1.5.3 1.1.6 1.8.6-1 1.5-1.8 2.5-2.5s2.1-1.1 3.2-1.1c.9 0 1.6.3 2.2.8s.7 1.2.7 2.1z" clip-path="url(#aN)"/>
    <path fill="#FFF" d="M440.6 337.9c0 2.6-1.1 4.6-3.2 6.1-1.9 1.4-4.2 2-6.8 2-3.7 0-6.6-1-8.5-3.1-.7-.7-1-1.4-1-2.2 0-1.8.9-2.7 2.7-2.7.6 0 1.7.5 3.1 1.4 1.4.9 2.7 1.4 4 1.4.9 0 1.8-.2 2.5-.6.9-.4 1.3-1.1 1.3-1.9 0-1.1-1.1-2.1-3.3-3.1-3.5-1.6-5.6-2.5-6-2.8-2.2-1.5-3.3-3.3-3.3-5.5 0-2.4 1-4.3 2.9-5.8 1.7-1.3 3.9-1.9 6.4-1.9 1.7 0 3.5.4 5.4 1.2 2.2 1 3.4 2.2 3.4 3.7 0 .7-.2 1.3-.7 1.8-.5.5-1.1.7-1.8.7-.6 0-1.6-.4-2.9-1.1-1.4-.8-2.5-1.1-3.5-1.1-.8 0-1.5.2-2.1.6-.7.4-1.1 1-1.1 1.8s.5 1.4 1.5 1.9c1.6.7 3.3 1.5 5 2.2 2 .9 3.5 1.9 4.6 2.8.9.8 1.4 2.3 1.4 4.2" clip-path="url(#aN)"/>
    <path fill="none" stroke="#FFF" stroke-width=".376" d="M440.6 337.9c0 2.6-1.1 4.6-3.2 6.1-1.9 1.4-4.2 2-6.8 2-3.7 0-6.6-1-8.5-3.1-.7-.7-1-1.4-1-2.2 0-1.8.9-2.7 2.7-2.7.6 0 1.7.5 3.1 1.4 1.4.9 2.7 1.4 4 1.4.9 0 1.8-.2 2.5-.6.9-.4 1.3-1.1 1.3-1.9 0-1.1-1.1-2.1-3.3-3.1-3.5-1.6-5.6-2.5-6-2.8-2.2-1.5-3.3-3.3-3.3-5.5 0-2.4 1-4.3 2.9-5.8 1.7-1.3 3.9-1.9 6.4-1.9 1.7 0 3.5.4 5.4 1.2 2.2 1 3.4 2.2 3.4 3.7 0 .7-.2 1.3-.7 1.8-.5.5-1.1.7-1.8.7-.6 0-1.6-.4-2.9-1.1-1.4-.8-2.5-1.1-3.5-1.1-.8 0-1.5.2-2.1.6-.7.4-1.1 1-1.1 1.8s.5 1.4 1.5 1.9c1.6.7 3.3 1.5 5 2.2 2 .9 3.5 1.9 4.6 2.8.9.8 1.4 2.3 1.4 4.2z" clip-path="url(#aN)"/>
    <path fill="#FFF" d="M466.3 341.9c0 2.6-1 3.9-3 3.9s-3-1.3-3-3.9v-11.4c0-4-1.6-6.1-4.8-6.1-1.7 0-3.1.6-4 1.8-.9 1-1.3 2.4-1.3 4.2v11.5c0 2.6-1 3.9-3 3.9s-3-1.3-3-3.9v-29.8c0-2.6 1-3.9 3-3.9s3 1.3 3 3.9v10c1.6-1.9 3.8-2.8 6.7-2.8 3 0 5.3.9 6.9 2.7 1.6 1.7 2.3 4.1 2.3 7.1v12.8z" clip-path="url(#aN)"/>
    <path fill="none" stroke="#FFF" stroke-width=".376" d="M466.3 341.9c0 2.6-1 3.9-3 3.9s-3-1.3-3-3.9v-11.4c0-4-1.6-6.1-4.8-6.1-1.7 0-3.1.6-4 1.8-.9 1-1.3 2.4-1.3 4.2v11.5c0 2.6-1 3.9-3 3.9s-3-1.3-3-3.9v-29.8c0-2.6 1-3.9 3-3.9s3 1.3 3 3.9v10c1.6-1.9 3.8-2.8 6.7-2.8 3 0 5.3.9 6.9 2.7 1.6 1.7 2.3 4.1 2.3 7.1v12.8z" clip-path="url(#aN)"/>
    <path fill="#FFF" d="M494.2 341.9c0 2.6-1 3.9-2.9 3.9-1.2 0-2-.5-2.4-1.5-.1-.4-.3-1-.5-1.7-1.8 2.2-4.1 3.2-7 3.2-3.4 0-6.2-1.4-8.3-4.2-1.9-2.6-2.9-5.6-2.9-9.1 0-2.7.6-5.2 1.8-7.4 1.3-2.4 3.1-4.1 5.5-5.1 1.4-.6 2.8-.9 4.2-.9 2.7 0 5 1 6.8 3.1.1-.3.2-.7.4-1.3.5-1.1 1.3-1.7 2.4-1.7 1.9 0 2.9 1.3 2.9 3.8v18.9zm-11.9-17.2c-2.1 0-3.6.8-4.7 2.5-.9 1.4-1.4 3.2-1.4 5.4 0 2.1.4 3.9 1.3 5.3 1.1 1.7 2.6 2.5 4.6 2.5 2.1 0 3.6-.8 4.7-2.5.9-1.4 1.4-3.2 1.4-5.3 0-2.1-.4-3.9-1.3-5.3-1.1-1.8-2.6-2.6-4.6-2.6" clip-path="url(#aN)"/>
    <path fill="none" stroke="#FFF" stroke-width=".376" d="M494.2 341.9c0 2.6-1 3.9-2.9 3.9-1.2 0-2-.5-2.4-1.5-.1-.4-.3-1-.5-1.7-1.8 2.2-4.1 3.2-7 3.2-3.4 0-6.2-1.4-8.3-4.2-1.9-2.6-2.9-5.6-2.9-9.1 0-2.7.6-5.2 1.8-7.4 1.3-2.4 3.1-4.1 5.5-5.1 1.4-.6 2.8-.9 4.2-.9 2.7 0 5 1 6.8 3.1.1-.3.2-.7.4-1.3.5-1.1 1.3-1.7 2.4-1.7 1.9 0 2.9 1.3 2.9 3.8v18.9zm-11.9-17.2c-2.1 0-3.6.8-4.7 2.5-.9 1.4-1.4 3.2-1.4 5.4 0 2.1.4 3.9 1.3 5.3 1.1 1.7 2.6 2.5 4.6 2.5 2.1 0 3.6-.8 4.7-2.5.9-1.4 1.4-3.2 1.4-5.3 0-2.1-.4-3.9-1.3-5.3-1.1-1.8-2.6-2.6-4.6-2.6z" clip-path="url(#aN)"/>
    <path fill="#FFF" d="M520.6 343.4c0 .7-.3 1.3-.8 1.7-.5.4-1.2.7-1.9.7-1.1 0-2.1-.6-3.1-1.7l-9.3-10.8v8.6c0 2.6-1 3.9-3 3.9s-3-1.3-3-3.9V312c0-2.6 1-3.8 3-3.8s3 1.3 3 3.9v16.2l8.2-7.6c1-.9 1.9-1.4 2.8-1.4.7 0 1.3.2 1.8.7.5.5.7 1.1.7 1.8 0 1-.5 1.8-1.4 2.6l-7.5 6.4 9.3 9.8c.8.7 1.2 1.7 1.2 2.8" clip-path="url(#aN)"/>
    <path fill="none" stroke="#FFF" stroke-width=".376" d="M520.6 343.4c0 .7-.3 1.3-.8 1.7-.5.4-1.2.7-1.9.7-1.1 0-2.1-.6-3.1-1.7l-9.3-10.8v8.6c0 2.6-1 3.9-3 3.9s-3-1.3-3-3.9V312c0-2.6 1-3.8 3-3.8s3 1.3 3 3.9v16.2l8.2-7.6c1-.9 1.9-1.4 2.8-1.4.7 0 1.3.2 1.8.7.5.5.7 1.1.7 1.8 0 1-.5 1.8-1.4 2.6l-7.5 6.4 9.3 9.8c.8.7 1.2 1.7 1.2 2.8z" clip-path="url(#aN)"/>
    <path fill="#FFF" d="M545.3 331.1c0 1-.3 1.9-1 2.4-.7.6-1.6.9-2.6.9h-14.4c.1 1.9.7 3.4 2 4.5 1.3 1.2 2.8 1.7 4.7 1.7 1.6 0 3.3-.5 5.3-1.5s3-1.5 3.2-1.5c1.6 0 2.4.8 2.4 2.4 0 .5-.2 1.1-.7 1.7-1 1.3-2.6 2.4-4.7 3.1-1.8.7-3.7 1-5.7 1-3.8 0-6.8-1.3-9.2-4-2.2-2.5-3.4-5.7-3.4-9.5 0-3.7 1.1-6.9 3.4-9.5 2.3-2.6 5.3-3.9 9-3.9 3.2 0 6 1.2 8.3 3.6 2.3 2.6 3.4 5.4 3.4 8.6m-5.9-.8c-.1-1.8-.6-3.3-1.6-4.5-1-1.2-2.4-1.8-4.2-1.8s-3.2.6-4.4 1.8c-1.2 1.2-1.8 2.7-2 4.5h12.2z" clip-path="url(#aN)"/>
    <path fill="none" stroke="#FFF" stroke-width=".376" d="M545.3 331.1c0 1-.3 1.9-1 2.4-.7.6-1.6.9-2.6.9h-14.4c.1 1.9.7 3.4 2 4.5 1.3 1.2 2.8 1.7 4.7 1.7 1.6 0 3.3-.5 5.3-1.5s3-1.5 3.2-1.5c1.6 0 2.4.8 2.4 2.4 0 .5-.2 1.1-.7 1.7-1 1.3-2.6 2.4-4.7 3.1-1.8.7-3.7 1-5.7 1-3.8 0-6.8-1.3-9.2-4-2.2-2.5-3.4-5.7-3.4-9.5 0-3.7 1.1-6.9 3.4-9.5 2.3-2.6 5.3-3.9 9-3.9 3.2 0 6 1.2 8.3 3.6 2.3 2.6 3.4 5.4 3.4 8.6zm-5.9-.8c-.1-1.8-.6-3.3-1.6-4.5-1-1.2-2.4-1.8-4.2-1.8s-3.2.6-4.4 1.8c-1.2 1.2-1.8 2.7-2 4.5h12.2z" clip-path="url(#aN)"/>
    <path fill="#DDB306" d="M556.2 140l-4.3-4.4-1.1-1.1-1.1-1-2.3-2.1-2.3-2.1-2.4-1.9c-1.6-1.3-3.1-2.6-4.8-3.8-1.7-1.2-3.3-2.4-5-3.5l-5.2-3.2c-.8-.6-1.8-1-2.7-1.5l-2.7-1.5c-1.8-1-3.6-1.8-5.5-2.7l-2.8-1.3c-.9-.4-1.9-.8-2.8-1.1l-2.8-1.1c-.9-.4-1.9-.8-2.9-1l-5.8-1.9c-2-.5-3.9-1-5.9-1.5-2-.6-4-.8-6-1.2l-3-.6c-1-.2-2-.3-3-.4-2-.2-4-.6-6.1-.7l-6.1-.4c-2-.1-4.1-.1-6.1-.1h-3l-3 .2-3 .2c-1 .1-2 .1-3 .2l-6.1.7-1.6.2-1.5.1c-.5.1-1.1 0-1.6 0h-1.6c-2.1-.1-4.1-.5-6.2-1-4-1-7.9-2.5-11.7-4.1-3.8-1.7-7.4-3.5-11-5.4-3.6-1.8-7.3-3.7-11-5.4-1.8-.8-3.7-1.6-5.6-2.2-1.9-.6-3.8-1.1-5.8-1.4-1.9-.2-3.9-.2-5.7.2-1.8.5-3.5 1.4-4.8 2.7l-.5.5-.6-.4c-2.5-1.4-5.4-1.7-8.3-.9-2.8.7-5.5 2.2-8 3.9-5 3.4-9.6 7.6-14.2 11.8-4.6 4.1-9.3 8.3-14.4 11.9-2.6 1.8-5.3 3.5-8.2 4.8-.7.3-1.5.7-2.2.9l-1.1.4-1.2.3-1.2.3-1.2.2c-.8.2-1.5.3-2.3.4-3.1.5-6.2.9-9.1 1.6-1.5.3-3 .6-4.5 1l-4.5 1.2-2.2.6-2.2.7-4.4 1.4-4.3 1.6-2.2.8-2.1.9-4.2 1.9-4.1 2.1-2.1 1-2 1.1-4 2.3-3.9 2.5c-.6.4-1.3.8-1.9 1.3l-1.9 1.4c-1.2.9-2.5 1.8-3.7 2.7L247 148c-1.2.9-2.3 2-3.5 3-1.1 1-2.3 2-3.4 3.1-2.2 2.2-4.4 4.3-6.3 6.6-2.1 2.2-4 4.7-5.9 7.1-1 1.2-1.8 2.5-2.7 3.7-.9 1.2-1.8 2.5-2.6 3.8l-2.5 3.9c-.8 1.3-1.5 2.6-2.3 4-1.6 2.6-2.9 5.4-4.3 8.1-2.6 5.5-5 11.2-7 17-2 5.8-3.6 11.7-4.9 17.7l-.9 4.5-.4 2.3-.3 2.3-.7 4.6c-.2 1.5-.3 3.1-.5 4.6-1.3 12.2-1.4 24.6-.3 36.8l.4 4.6.2 2.3c.1.7.2 1.5.3 2.3.4 3.1.8 6.2 1.3 9.2l.8 4.5.9 4.5c.3 1.5.6 3 1 4.5l1.1 4.5c3 11.9 7.4 23.4 13 34.3 2.9 5.4 6 10.6 9.6 15.5l1.3 1.9c.5.6.9 1.2 1.4 1.8 1 1.2 1.9 2.4 2.9 3.5 2 2.2 4 4.6 6.2 6.6 2.1 2.2 4.5 4.1 6.7 6.1 2.4 1.9 4.7 3.8 7.3 5.5 2.4 1.8 5.1 3.3 7.7 4.9 2.7 1.4 5.3 2.9 8.1 4.1 2.7 1.3 5.6 2.4 8.4 3.5 1.4.5 2.9 1 4.3 1.4.7.2 1.4.5 2.2.7l2.2.6c5.8 1.7 11.8 2.7 17.9 3.5 12.1 1.5 24.4 1.5 36.5.1l4.6-.5c1.6-.2 3.1-.4 4.8-.5 3.2-.2 6.4-.3 9.6-.2 6.3.2 12.6.9 18.7 1.4 6.1.5 12.2.9 18.1.3 5.9-.6 11.4-2.4 15.9-5.8l1.2-.9 1.4.6c5.1 2.2 10.8 2.5 16.6 1.6 5.7-.9 11.5-2.7 17.2-4.7 5.7-2 11.5-4.2 17.4-6 3-.9 6-1.7 9.1-2.3 1.5-.3 3.1-.6 4.7-.8l4.5-.7c1.5-.2 3-.4 4.5-.7l4.4-.8c.7-.1 1.5-.3 2.2-.4l2.2-.5 4.4-1c5.8-1.6 11.6-3.3 17.2-5.5 2.8-1 5.6-2.3 8.3-3.5 1.4-.6 2.7-1.3 4-2 1.3-.7 2.7-1.3 4-2.1l3.9-2.2c1.3-.8 2.5-1.6 3.8-2.4l1.9-1.2c.6-.4 1.2-.9 1.8-1.3l3.7-2.6c4.7-3.7 9.2-7.7 13.4-12 1-1.1 2-2.2 3-3.4l1.5-1.7 1.4-1.8c.9-1.2 1.9-2.3 2.8-3.6l2.6-3.7c3.3-5 6.4-10.2 8.9-15.7l1-2 .9-2.1 1.7-4.2 1.5-4.3.8-2.1.7-2.2 1.3-4.3 1.1-4.4.6-2.2.5-2.2.9-4.5c1-6 1.8-12 2.2-18.1l.3-4.5.1-4.6c.1-3 0-6.1 0-9.1 0-1.5-.1-3-.1-4.6l-.2-4.6c-.2-3-.5-6.1-.7-9.1l.5-.1c.3 3 .7 6.1 1 9.1l.3 4.6c.1 1.5.3 3 .3 4.6.1 3.1.3 6.1.2 9.2v4.6c0 1.5-.1 3.1-.2 4.6-.2 6.1-.9 12.2-1.8 18.3l-.8 4.3-.4 2.3-.5 2.2-1 4.5-1.2 4.4-.6 2.2-.7 2.2-1.5 4.4-1.7 4.3-.9 2.1-1 2.1c-2.5 5.7-5.5 11.1-8.8 16.3l-2.6 3.8c-.9 1.3-1.9 2.5-2.8 3.7l-1.4 1.8-1.5 1.8c-1 1.2-2 2.4-3 3.5-4.2 4.6-8.8 8.8-13.6 12.7-4.9 3.8-10 7.3-15.4 10.3-1.3.8-2.7 1.5-4.1 2.2-1.4.7-2.7 1.5-4.1 2.1-2.8 1.3-5.6 2.6-8.5 3.7-5.7 2.4-11.7 4.2-17.6 5.8l-4.5 1.1-2.3.6c-.8.2-1.5.3-2.3.5l-4.6.9c-1.5.3-3 .5-4.5.8l-4.6.7c-1.5.2-2.9.5-4.3.8-2.9.6-5.8 1.4-8.6 2.3-5.7 1.8-11.4 4-17.1 6.1-5.8 2.1-11.7 4.1-18 5.1-3.2.5-6.4.7-9.7.4-3.3-.3-6.6-1-9.7-2.3l2.6-.3c-2.7 2.1-5.7 3.7-8.9 4.8-3.2 1.1-6.4 1.8-9.7 2.1-6.5.7-12.9.3-19.1-.2-6.2-.5-12.3-1.1-18.4-1.3-3-.1-6.1-.1-9 .1-1.4.1-3 .3-4.5.5l-4.7.5c-12.5 1.3-25.2 1.3-37.7-.3-6.2-.9-12.5-2-18.6-3.8l-2.3-.6c-.8-.2-1.5-.5-2.3-.7l-4.5-1.5c-2.9-1.2-5.9-2.3-8.7-3.7-2.9-1.3-5.6-2.9-8.4-4.4-2.7-1.7-5.4-3.3-8-5.2-2.6-1.8-5.1-3.8-7.5-5.8-2.3-2.1-4.8-4.2-7-6.5-2.3-2.2-4.3-4.6-6.4-7-1-1.2-2-2.5-3-3.7-.5-.6-1-1.2-1.5-1.9l-1.4-1.9c-3.7-5.1-6.9-10.6-9.9-16.1-5.7-11.2-10.1-23.1-13.1-35.2l-1.1-4.6c-.4-1.5-.6-3.1-1-4.6-.3-1.5-.6-3.1-.9-4.6l-.8-4.6c-.6-3.1-.9-6.2-1.3-9.2-.1-.8-.2-1.5-.3-2.3l-.2-2.3-.4-4.7c-1-12.5-.8-25 .5-37.5.2-1.6.3-3.1.6-4.7l.7-4.6.4-2.3.5-2.3.9-4.6c1.4-6.1 3-12.2 5.1-18.1 2-6 4.5-11.7 7.2-17.4 1.5-2.8 2.8-5.6 4.5-8.3.8-1.3 1.6-2.7 2.4-4l2.6-3.9c.8-1.3 1.8-2.6 2.7-3.8.9-1.3 1.8-2.6 2.8-3.8 2-2.4 3.9-4.9 6.1-7.2 2.1-2.4 4.3-4.5 6.5-6.8 1.1-1.1 2.3-2.1 3.5-3.2 1.2-1 2.3-2.1 3.6-3.1l3.7-2.9c1.2-.9 2.5-1.8 3.8-2.8l1.9-1.4c.6-.4 1.3-.9 2-1.3l4-2.5 4.1-2.3 2-1.2 2.1-1.1 4.2-2.1 4.3-1.9 2.2-.9 2.2-.8 4.4-1.6 4.5-1.4 2.2-.7 2.3-.6 4.5-1.2c1.5-.4 3.1-.6 4.6-1 3.1-.7 6.1-1.1 9.2-1.6.7-.1 1.6-.2 2.3-.4l1.1-.2 1.1-.3 1.1-.3 1.1-.4c.7-.2 1.4-.5 2.1-.8 2.7-1.2 5.4-2.8 7.9-4.5 5-3.5 9.7-7.6 14.3-11.6 4.7-4.1 9.3-8.3 14.5-11.8 2.6-1.7 5.5-3.3 8.7-4.1.8-.2 1.6-.3 2.4-.4.4-.1.8 0 1.3 0 .4 0 .8 0 1.3.1l1.3.2 1.2.4.6.2.6.3 1.1.5-1.2.1c1.6-1.5 3.6-2.6 5.7-3.2 2.1-.5 4.3-.5 6.4-.2 4.2.7 8.1 2.2 11.8 3.9 3.8 1.7 7.4 3.6 11 5.5 3.6 1.9 7.2 3.8 10.9 5.4 3.7 1.7 7.5 3.2 11.4 4.1 1.9.5 3.9.8 5.9 1 .5.1 1 0 1.5.1h1.5l1.5-.1c.4 0 1-.1 1.5-.1l6.1-.6c1-.1 2-.2 3.1-.2l3.1-.1 3.1-.1h3.1c2 .1 4.1 0 6.1.1l6.1.4c2 .2 4.1.5 6.1.8 1 .1 2 .2 3 .4l3 .6c2 .4 4 .7 6 1.3 2 .5 4 1 5.9 1.6l5.8 1.9c1 .3 1.9.7 2.9 1.1l2.9 1.1c.9.4 1.9.7 2.8 1.2l2.8 1.3c1.9.9 3.7 1.7 5.5 2.8l2.7 1.5 2.7 1.5 5.2 3.3c1.7 1.2 3.3 2.4 5 3.6 1.7 1.2 3.2 2.5 4.8 3.8l2.4 1.9 2.3 2.1 2.3 2.1 1.1 1 1.1 1.1 4.2 4.4-.6.2z" clip-path="url(#aN)"/>
    <path d="M400.5 174.8c3.8 0 7.3.6 10.5 1.9 4.3 1.7 6.5 4 6.5 7.1 0 3.6-1.7 5.5-5.2 5.5-1.5 0-3.2-.4-5.2-1.3-1.9-.9-4.1-1.3-6.5-1.3-4.4 0-7.9 1.9-10.5 5.6-2.3 3.2-3.4 7.1-3.4 11.7 0 4.9 1.1 8.9 3.3 12 2.5 3.6 6.1 5.3 10.9 5.3 1.7 0 4-.5 6.7-1.6 2.8-1.1 4.5-1.6 5.1-1.6 1.6 0 2.9.5 3.8 1.6 1 1.1 1.4 2.4 1.4 4 0 3.6-3.2 6.4-9.5 8.4-2.5.8-5.3 1.1-8.4 1.1-8.3 0-14.8-2.9-19.6-8.6-4.6-5.4-6.9-12.2-6.9-20.6 0-8.3 2.4-15.1 7.1-20.5 5.2-5.9 11.7-8.7 19.9-8.7m73.4 29.3c0 8.2-2.3 15-7 20.5-4.9 5.8-11.3 8.7-19.4 8.7-7.9 0-14.4-2.9-19.4-8.8-4.7-5.6-7.1-12.4-7.1-20.4 0-8.2 2.3-15 7-20.5 5-5.9 11.5-8.9 19.5-8.9 8.1 0 14.6 2.9 19.5 8.8 4.6 5.4 6.9 12.3 6.9 20.6m-26.4-17.6c-4.5 0-8 1.9-10.4 5.6-2 3.2-3 7.1-3 11.9 0 4.7 1 8.6 3.1 11.8 2.4 3.7 5.9 5.6 10.3 5.6 4.5 0 7.9-1.9 10.3-5.6 2-3.1 3-7 3-11.8 0-4.7-1-8.6-3-11.8-2.4-3.8-5.9-5.7-10.3-5.7m-176.4-13.7c5.1 0 9.9.9 14.2 2.6 5.9 2.3 8.8 5.7 8.8 10 0 5.1-2.3 7.7-7 7.7-2.1 0-4.4-.6-7-1.8-2.6-1.2-5.6-1.8-8.8-1.8-6 0-10.7 2.6-14.2 7.8-3.1 4.5-4.6 10.1-4.6 16.5 0 7 1.5 12.6 4.5 17 3.4 5 8.3 7.5 14.7 7.5 2.3 0 5.4-.8 9.1-2.3 3.7-1.5 6-2.3 6.9-2.3 2.1 0 3.9.8 5.2 2.3 1.3 1.5 2 3.4 2 5.6 0 5.1-4.3 9.1-12.8 11.8-3.4 1.1-7.2 1.6-11.3 1.6-11.2 0-20-4-26.5-12.1-6.2-7.6-9.4-17.3-9.4-29.1 0-11.6 3.2-21.3 9.6-28.9 6.7-8.1 15.6-12.1 26.6-12.1m99.4 41.3c0 11.5-3.2 21.2-9.5 28.9-6.6 8.1-15.4 12.2-26.3 12.2-10.7 0-19.5-4.1-26.3-12.4-6.4-7.9-9.6-17.5-9.6-28.8 0-11.5 3.2-21.2 9.5-28.9 6.8-8.3 15.6-12.5 26.4-12.5 11 0 19.8 4.1 26.4 12.4 6.3 7.7 9.4 17.4 9.4 29.1m-35.7-24.8c-6.1 0-10.8 2.6-14.1 7.9-2.7 4.5-4.1 10.1-4.1 16.8 0 6.6 1.4 12.2 4.2 16.6 3.3 5.3 7.9 7.9 13.9 7.9 6.1 0 10.7-2.6 13.9-7.9 2.7-4.4 4.1-9.9 4.1-16.6 0-6.6-1.4-12.2-4.1-16.6-3.2-5.4-7.8-8.1-13.8-8.1m68.2 48c4.2 0 8.1.7 11.6 2.1 4.8 1.8 7.2 4.4 7.2 7.9 0 4-1.9 6-5.7 6-1.7 0-3.6-.5-5.7-1.4-2.1-.9-4.5-1.4-7.2-1.4-4.9 0-8.7 2-11.5 6.1-2.5 3.6-3.8 7.9-3.8 13 0 5.5 1.2 9.9 3.7 13.3 2.7 3.9 6.7 5.9 12 5.9 1.9 0 4.4-.6 7.4-1.8 3-1.2 4.9-1.8 5.6-1.8 1.8 0 3.2.6 4.2 1.8 1.1 1.2 1.6 2.6 1.6 4.4 0 4-3.5 7.1-10.5 9.2-2.8.8-5.9 1.3-9.2 1.3-9.1 0-16.3-3.2-21.7-9.5-5.1-5.9-7.6-13.5-7.6-22.8 0-9.1 2.6-16.7 7.9-22.7 5.5-6.4 12.8-9.6 21.7-9.6m80.5 54.7c0 6.2-2.3 9.3-7 9.3-2.8 0-4.7-1.2-5.7-3.7-.2-1-.6-2.3-1.1-4h-.1c-4.3 5.2-9.9 7.8-16.9 7.8-8.2 0-14.9-3.3-19.9-10-4.6-6.1-7-13.4-7-21.8 0-6.6 1.4-12.5 4.3-17.7 3-5.7 7.4-9.8 13.1-12.4 3.3-1.5 6.7-2.3 10.1-2.3 6.5 0 11.9 2.5 16.3 7.5.2-.7.6-1.7 1-3.1 1.1-2.7 3.1-4 5.8-4 4.6 0 7 3.1 7 9.2V292zm-28.6-41.4c-5 0-8.7 2-11.3 5.9-2.2 3.4-3.3 7.7-3.3 12.9 0 5.1 1.1 9.3 3.2 12.7 2.6 4.1 6.3 6.1 11.1 6.1 5 0 8.7-2 11.3-6 2.2-3.3 3.3-7.6 3.3-12.8 0-5.1-1.1-9.3-3.2-12.7-2.6-4-6.3-6.1-11.1-6.1m94.2 19.1c0 9-2.6 16.6-7.7 22.7-5.4 6.4-12.5 9.6-21.4 9.6-8.7 0-15.9-3.2-21.4-9.7-5.2-6.2-7.9-13.7-7.9-22.6 0-9 2.6-16.6 7.8-22.7 5.5-6.5 12.7-9.8 21.5-9.8 9 0 16.1 3.2 21.5 9.7 5.1 6.1 7.6 13.7 7.6 22.8M520 250.3c-5 0-8.8 2.1-11.5 6.2-2.2 3.5-3.3 7.9-3.3 13.1 0 5.2 1.1 9.5 3.4 13 2.7 4.1 6.5 6.2 11.4 6.2 5 0 8.8-2.1 11.4-6.2 2.2-3.4 3.3-7.8 3.3-13s-1.1-9.5-3.3-13c-2.8-4.2-6.5-6.3-11.4-6.3" clip-path="url(#aN)"/>
  </g>
</svg>
