<?xml version="1.0" encoding="UTF-8" standalone="no"?>
<svg width="485px" height="336px" viewBox="0 0 485 336" version="1.1" xmlns="http://www.w3.org/2000/svg" xmlns:xlink="http://www.w3.org/1999/xlink" xmlns:sketch="http://www.bohemiancoding.com/sketch/ns">
    <!-- Generator: Sketch 3.4.2 (15855) - http://www.bohemiancoding.com/sketch -->
    <title>cococao</title>
    <desc>Created with Sketch.</desc>
    <defs>
        <path id="path-1" d="M248.3,20.5 C225.1,23.6 195.1,-9.7 180.9,4.1 C164,-5.5 142.4,34.6 119.2,37.6 C39.1,48.2 -8.6,118.2 1.6,208.4 C11.9,298.6 67.2,344.5 150.3,333.5 C174.4,330.3 200.5,341.6 217.8,328.2 C237.6,336.7 260.3,318.9 284.4,315.8 C367.5,304.7 410.9,245.7 400.7,155.5 C390.4,65.3 328.4,9.9 248.3,20.5 Z"></path>
    </defs>
    <g id="Page-1" stroke="none" stroke-width="1" fill="none" fill-rule="evenodd" sketch:type="MSPage">
        <g id="cococao" sketch:type="MSLayerGroup">
            <g id="circulos-+-fondosup">
                <mask id="mask-2" sketch:name="Mask" fill="white">
                    <use xlink:href="#path-1"></use>
                </mask>
                <use id="Mask" fill="#844913" sketch:type="MSShapeGroup" xlink:href="#path-1"></use>
                <g mask="url(#mask-2)">
                    <g transform="translate(-20.000000, -58.000000)">
                        <g id="circulos" stroke-width="1" fill="none" sketch:type="MSLayerGroup" transform="translate(33.000000, 172.000000)">
                            <path d="M61.9890275,43.7638481 C67.2982613,14.9563384 95.6252193,-4.01967757 125.134119,1.4886503 C154.666358,7.00133497 174.21687,34.7484897 168.910873,63.636691 C163.601739,92.4436616 135.274781,111.419678 105.765881,105.91135 C76.2497711,100.500058 56.581972,72.568734 61.9884821,43.7667799 L61.9890275,43.7638481 Z" id="Shape" stroke="#F5CE00" sketch:type="MSShapeGroup"></path>
                            <path d="M20.0039739,180.793126 C19.8077142,154.984975 41.0138361,133.900205 67.406721,133.703975 C93.8299045,133.50752 115.39999,154.228151 115.596026,180.006874 C115.792286,205.815025 94.5861639,226.899795 68.193279,227.096025 C41.7700955,227.29248 20.2000098,206.571849 20.0039739,180.793126 L20.0039739,180.793126 Z" id="Shape" stroke="#F5CE00" sketch:type="MSShapeGroup"></path>
                            <path d="M78.089147,114.763198 C80.8955254,99.4732745 95.9098281,89.3738334 111.640705,92.1898545 C127.321564,95.0937338 137.725024,109.904423 134.910853,125.236802 C132.101497,140.542947 117.075179,150.620478 101.364609,147.711113 C85.6622735,144.803273 75.2779057,130.079616 78.089147,114.763198 L78.089147,114.763198 Z" id="Shape" stroke="#F5CE00" sketch:type="MSShapeGroup"></path>
                            <path d="M135.510745,45.3373933 C132.219888,63.3342681 144.35127,80.5969407 162.731307,84.0881208 C181.092789,87.4732119 198.689405,75.6891966 202.088168,57.7684456 C205.382556,39.7523672 193.234544,22.4977488 174.863897,19.1109816 C156.502683,15.5207465 138.805569,27.3188224 135.510745,45.3373933 L135.510745,45.3373933 Z" id="Shape" stroke="#F5CE00" sketch:type="MSShapeGroup"></path>
                            <path d="M177.211023,93.8358811 C173.522049,113.817821 187.035323,132.99591 207.434752,136.788768 C227.812253,140.57755 247.395226,127.469336 251.088826,107.564937 C254.783354,87.6555375 241.237136,68.3989696 220.865248,64.6112318 C200.414116,60.8277719 180.909598,73.9046644 177.211174,93.8350632 L177.211023,93.8358811 Z" id="Shape" stroke="#F5CE00" sketch:type="MSShapeGroup"></path>
                            <path d="M220.911069,122.035632 C215.922935,149.012274 234.229443,174.993675 261.832809,180.188405 C289.437322,185.281494 315.900026,167.545182 320.888931,140.564368 C325.877065,113.587726 307.570557,87.6063246 279.967191,82.4115951 C252.39011,77.3235669 226.006904,95.027673 220.911674,122.032391 L220.911069,122.035632 Z" id="Shape" stroke="#F5CE00" sketch:type="MSShapeGroup"></path>
                            <path d="M220.911069,189.235632 C215.922935,216.212274 234.229443,242.193675 261.832809,247.388405 C289.437322,252.481494 315.900026,234.745182 320.888931,207.764368 C325.877065,180.787726 307.570557,154.806325 279.967191,149.611595 C252.39011,144.523567 226.006904,162.227673 220.911674,189.232391 L220.911069,189.235632 Z" id="Shape" stroke="#F5CE00" sketch:type="MSShapeGroup"></path>
                            <path d="M284.711293,166.634423 C279.720791,193.420176 297.938209,219.296474 325.3348,224.388777 C352.790462,229.473159 378.99083,211.89092 383.988707,185.065577 C388.979209,158.279824 370.761791,132.403526 343.3652,127.311223 C315.982983,122.221591 289.704296,139.835244 284.711293,166.634423 L284.711293,166.634423 Z" id="Shape" stroke="#F5CE00" sketch:type="MSShapeGroup"></path>
                            <path d="M352.211087,114.535532 C347.919035,137.733052 363.651104,160.099127 387.335254,164.488862 C411.038149,168.882071 433.800157,153.644171 438.088913,130.464468 C442.380965,107.266948 426.648896,84.9008732 402.964746,80.5111385 C379.261851,76.1179295 356.499843,91.3558295 352.211087,114.535532 L352.211087,114.535532 Z" id="Shape" stroke="#F5CE00" sketch:type="MSShapeGroup"></path>
                            <path d="M299.410958,120.036229 C295.118384,143.338774 310.856794,165.700562 334.635938,170.088988 C358.444719,174.482883 381.201699,159.237916 385.489042,135.963771 C389.786973,112.734476 374.015678,90.2943575 350.264062,85.911012 C326.49542,81.5245243 303.705941,96.8228708 299.411087,120.035532 L299.410958,120.036229 Z" id="Shape" stroke="#F5CE00" sketch:type="MSShapeGroup"></path>
                            <path d="M251.910958,118.736229 C249.712206,130.672315 257.791244,142.209182 269.940296,144.389781 C282.131721,146.682217 293.800363,138.8494 295.989294,126.862393 C298.182626,114.955742 290.137942,103.500112 277.967055,101.21157 C265.764773,99.021385 254.100264,106.851429 251.910958,118.736229 L251.910958,118.736229 Z" id="Shape" stroke="#F5CE00" sketch:type="MSShapeGroup"></path>
                            <path d="M337.487784,32.5704546 C339.795033,20.5535329 351.528075,12.6819987 363.732136,14.988278 C375.975593,17.302002 384.115023,28.8576167 381.910925,40.8364102 C379.700698,52.8485122 367.97012,60.7183941 355.666597,58.4114835 C343.424407,56.097998 335.284977,44.5423833 337.489075,32.5635898 L337.487784,32.5704546 Z" id="Shape" stroke="#F5CE00" sketch:type="MSShapeGroup"></path>
                            <path d="M159.288931,171.764368 C164.094498,145.775077 189.60668,128.675841 216.235979,133.588996 C242.867128,138.600767 260.51614,163.649022 255.711069,189.635632 C250.905502,215.624923 225.39332,232.724159 198.764021,227.811004 C172.160182,222.902547 154.478855,197.778049 159.288931,171.764368 L159.288931,171.764368 Z" id="Shape" stroke="#F5CE00" sketch:type="MSShapeGroup"></path>
                            <path d="M64.0568573,185.173923 C56.877664,203.737265 66.4056772,224.660909 85.3721288,232.042447 C104.302589,239.409977 125.548183,230.327407 132.742532,211.827651 C139.922336,193.262735 130.394323,172.339091 111.427871,164.957553 C92.4974107,157.590023 71.251817,166.672593 64.0574678,185.172349 L64.0568573,185.173923 Z" id="Shape" stroke="#F5CE00" sketch:type="MSShapeGroup"></path>
                            <path d="M21.3889164,163.66445 C24.99274,144.184322 43.9967486,131.474827 63.9344554,135.188713 C83.8419899,138.896979 97.0202655,157.624003 93.4112318,177.034752 C89.8003671,196.455348 70.7625888,209.217599 50.8655446,205.511287 C30.9580101,201.803021 17.7797345,183.075997 21.3887682,163.665248 L21.3889164,163.66445 Z" id="Shape" stroke="#F5CE00" sketch:type="MSShapeGroup"></path>
                            <path d="M0.203951466,119.890633 C0.00938200694,101.11468 15.1836848,85.6990363 34.0093674,85.5039515 C52.8186999,85.4065059 68.2013214,100.518201 68.3960485,119.309367 C68.4933278,138.183914 53.4165479,153.500961 34.5906326,153.696049 C15.7813001,153.793494 0.398678582,138.681799 0.203951466,119.890633 L0.203951466,119.890633 Z" id="Shape" stroke="#F5CE00" sketch:type="MSShapeGroup"></path>
                            <path d="M87.611264,188.934578 C82.4239304,216.803782 101.321312,243.593415 129.834937,248.888803 C158.297457,254.174699 185.591862,235.883985 190.788627,208.066007 C195.97607,180.196218 177.078688,153.406585 148.565063,148.111197 C120.102543,142.825301 92.8081383,161.116015 87.6113732,188.933993 L87.611264,188.934578 Z" id="Shape" stroke="#F5CE00" sketch:type="MSShapeGroup"></path>
                            <path d="M269.411419,72.6337493 C266.420722,88.6185079 277.237005,103.997412 293.536802,106.989147 C309.853185,109.983926 325.50176,99.5302959 328.488581,83.5662507 C331.482659,67.5634192 320.644421,52.1986227 304.262205,49.2106712 C287.973478,46.2209677 272.300393,56.7443249 269.410582,72.6382876 L269.411419,72.6337493 Z" id="Shape" stroke="#F5CE00" sketch:type="MSShapeGroup"></path>
                        </g>
                        <path d="M476.050781,231.972656 C432.250781,251.372656 397.1,217.3 373.6,222.4 C350.1,227.5 295.3,260.1 246.8,256.7 C198.3,253.3 170.4,239.3 141.9,239.3 C113.4,239.3 69.3,254.7 43,265.2 C16.7,275.7 0.9609375,260.230469 0.9609375,260.230469 L24.8710938,106.246094 L282.5,0 C282.5,0 502.150781,220.372656 476.050781,231.972656 Z" id="fondosup" fill="#A97F5A" sketch:type="MSShapeGroup"></path>
                    </g>
                </g>
            </g>
            <path d="M308.653357,187.063129 L397.871795,61.7856242 C397.871795,61.7856242 451.807291,97.7283759 479.727054,104.695272 C507.646817,111.662167 415.923953,16.6437815 405.961842,13.0017041 C395.99973,9.35962666 384.647815,6.9524411 376.062998,24.7658988 C367.478182,42.5793564 293,193 293,193 L308.653357,187.063129 Z" id="canya" stroke="#844913" stroke-width="5" stroke-linecap="round" stroke-linejoin="round" fill="#F5CE00" sketch:type="MSShapeGroup"></path>
        </g>
    </g>
</svg>