<?xml version="1.0" encoding="UTF-8" standalone="no"?>
<svg width="289px" height="364px" viewBox="0 0 289 364" version="1.1" xmlns="http://www.w3.org/2000/svg" xmlns:xlink="http://www.w3.org/1999/xlink" xmlns:sketch="http://www.bohemiancoding.com/sketch/ns">
    <!-- Generator: Sketch 3.2.2 (9983) - http://www.bohemiancoding.com/sketch -->
    <title>bg_cardomariano</title>
    <desc>Created with Sketch.</desc>
    <defs></defs>
    <g id="Blank-Project" stroke="none" stroke-width="1" fill="none" fill-rule="evenodd" sketch:type="MSPage">
        <g id="Pagina-Producto-12" sketch:type="MSArtboardGroup" transform="translate(-460.000000, -121.000000)" stroke="#A678AF" stroke-width="10.6540003" stroke-linecap="round" stroke-linejoin="round">
            <g id="bg_amaranto-2" sketch:type="MSLayerGroup" transform="translate(0.000000, 26.000000)">
                <g id="bg_cardomariano" transform="translate(466.000000, 97.000000)" sketch:type="MSShapeGroup">
                    <path d="M116.382255,217.878285 C120.837053,229.955133 128.480833,247.16043 140.093186,262.464289 C148.187879,273.134073 149.559631,275.573346 149.787804,276.065003 C149.247252,274.894261 149.342324,272.422391 151.26006,270.830616 C153.180512,269.236125 155.625218,269.600114 156.676442,270.347108 C156.279856,270.064608 155.185171,269.029683 154.055174,267.880671 C152.794792,260.405304 151.406742,248.32574 152.479697,243.496087 C153.099022,240.706406 153.726497,236.468916 154.381135,231.992388 C155.100965,227.051365 156.252693,219.171263 157.244157,216.06377 C157.814588,216.128962 158.65937,216.300092 159.281412,216.53913 C161.239893,217.28884 163.478157,216.73199 164.84176,215.140215 C164.86349,215.113051 164.887937,215.085888 164.909668,215.056008 C166.898029,216.294659 168.780453,217.655545 170.141339,219.016432 C175.717985,224.593078 218.934953,253.187988 223.84338,256.428582 C225.956692,257.824781 228.781686,257.403748 230.397908,255.456132 C232.016847,253.5058 231.905477,250.653643 230.142572,248.833695 C223.712995,242.194961 216.042051,233.576014 214.871309,231.229096 C213.094823,227.67884 203.022634,217.033504 195.661353,209.49566 C196.959763,210.036212 198.255457,210.576764 199.551152,211.117315 C201.740522,212.027289 204.266718,211.266714 205.584143,209.297367 C206.901567,207.328021 206.646231,204.70132 204.97025,203.025339 C203.897295,201.952384 202.824341,200.87943 201.751387,199.806476 C201.835593,199.504962 201.892637,199.189867 201.9198,198.869338 C202.052901,197.277563 201.406412,195.718384 200.192208,194.680742 C196.286111,191.355942 192.366432,186.91201 191.969847,185.36098 C191.815015,184.58139 191.690064,183.815382 191.586843,183.084687 C195.813468,183.454109 201.982276,184.285309 208.075026,186.159584 C219.317957,189.620201 238.701759,195.196847 244.60165,196.180162 L271.515146,200.667555 C273.968001,201.075006 276.347514,199.60275 277.075494,197.225953 C277.806189,194.846439 276.659894,192.295796 274.399899,191.258154 C272.656009,190.45955 270.914835,189.663662 269.173661,188.865058 C270.132529,188.085469 270.800748,186.955471 270.971878,185.657061 C271.284257,183.299278 269.877193,181.050148 267.619914,180.297722 C260.538416,177.934506 251.897739,174.647735 250.327694,173.517738 C248.382795,171.896083 245.234557,171.206132 239.380844,170.029957 C234.472418,169.046642 227.749477,167.696621 224.97881,165.716409 C220.170888,162.282956 214.496454,159.395486 211.617134,158.012869 C211.261293,157.119193 210.902736,156.225518 210.546896,155.331842 C211.516629,153.683023 212.975304,151.308942 214.401382,149.407504 C215.362966,148.263925 220.564757,146.096286 225.092896,144.966289 C227.233372,144.43117 228.762671,142.54603 228.846878,140.340362 C228.931084,138.13741 227.551184,136.1409 225.456886,135.442801 C224.362201,135.078811 223.270232,134.714822 222.175547,134.348116 C223.186025,131.482377 224.196504,128.616638 225.209699,125.7509 C234.779364,120.967425 244.34903,116.181234 253.918696,111.397759 C256.091768,110.308507 257.159289,107.809474 256.436743,105.487004 C255.716913,103.167249 253.421605,101.708575 251.014928,102.042685 C251.012212,102.042685 234.92333,104.278232 231.345911,104.723712 C229.740554,104.924721 227.795654,105.484287 225.945827,106.130776 C224.862007,95.748925 223.31641,85.0166659 221.368794,81.901024 C221.080862,81.3767704 220.798363,80.4613638 220.396344,79.312352 C217.910893,72.2362865 212.744415,57.5110076 194.669889,48.6747538 C173.737773,38.4395848 163.366787,34.5036083 153.340776,36.6142044 C151.933712,36.2502148 150.822729,32.63205 150.803715,29.3452787 C150.790133,27.0907165 149.260834,25.1240864 147.079613,24.5618041 C144.898392,23.9995217 142.611234,24.969255 141.511116,26.9358852 C139.666721,30.2253728 137.825043,33.5148605 135.983364,36.8043482 C133.272457,38.1326384 129.575518,39.8656633 128.122276,40.3518882 C127.204153,40.5121522 123.260028,40.0395091 120.003136,39.3169626 C118.329871,38.9448241 116.64574,39.4663613 115.48043,40.5882097 C116.403986,37.817543 117.330258,35.0468762 118.253813,32.2734932 C119.014388,29.9917676 118.028357,27.4954512 115.917761,26.3464394 C113.804448,25.1974276 111.172315,25.7271139 109.670179,27.6041048 C107.844799,29.8858304 106.022135,32.1648396 104.196754,34.4465651 C99.8777735,23.7930799 92.5844008,5.82720745 91.6418308,3.62968843 C90.6530831,1.32351582 88.0019353,-0.0156397779 85.5898254,0.690608608 C80.7031299,2.1248361 80.6542357,2.14385048 89.5393837,55.4574546 C88.2735693,58.0434102 85.9592477,63.4136143 84.9080241,69.9002341 C81.6402671,68.3166079 77.1257102,65.2145477 72.6926434,59.167975 C68.8435897,53.9200062 64.858719,47.9467747 61.2242561,42.5005131 C53.2056206,30.4915742 49.9107002,25.7868734 47.0992884,24.0294014 C45.3798452,22.9564471 39.3984646,16.1981934 34.886624,10.5590716 C33.3274449,8.60873955 30.5594945,8.1225147 28.4271676,9.42364154 C26.2948407,10.7274847 25.4609244,13.4112286 26.4822682,15.6902378 C26.5990708,15.9482901 38.1299339,41.6937601 42.5059575,53.5098389 C44.1683576,57.9972325 46.7352988,63.5304169 49.3538505,68.7974001 C44.1846556,65.209115 39.0127444,61.6181136 33.8435494,58.0271122 C33.6099442,57.8668481 33.3654736,57.7255985 33.1101377,57.6060795 C22.6223491,52.7112349 10.1054547,46.2083171 8.16598793,44.2389706 C8.41589121,44.4915902 9.06238012,45.4558909 9.06238012,46.8520897 C9.06238012,48.9137917 7.78841668,50.7609028 5.86253166,51.4915983 C3.93664664,52.2250101 1.758142,51.6898911 0.389106668,50.1497264 L21.9215334,74.3713297 C30.1058657,82.7675364 38.2929143,91.1664595 46.4772465,99.5653827 C45.3391001,99.9456702 44.3612177,100.733409 43.7473249,101.803647 C43.4023497,102.406674 35.3755652,116.705488 40.8489902,128.747023 C42.9188412,133.305041 46.3984727,138.639933 49.7640179,143.800979 C52.2060075,147.546811 55.6774899,152.870838 56.9596024,155.790903 C55.9328259,156.795949 54.4334062,158.113374 52.5781461,159.305847 C52.3228101,158.621329 52.0647578,157.934095 51.8067055,157.246861 C51.0461303,155.217755 49.0550531,153.916629 46.8901302,154.033431 C44.7252073,154.15295 42.8862451,155.660519 42.3511262,157.762966 C41.6883392,160.359787 41.0255523,162.956608 40.3627653,165.553429 C33.7946553,167.457583 27.2265453,169.364454 20.6584353,171.268608 C18.5532719,171.879785 17.0973137,173.800237 17.0782993,175.99504 C17.0592849,178.187126 18.4853634,180.132025 20.5823778,180.778514 C21.0957661,180.936062 33.2866998,184.633001 45.7465511,183.674133 C53.7325905,183.06024 60.8684156,181.272888 64.9673726,180.066833 C68.4198406,185.200716 71.0302433,190.720319 70.6798355,192.458776 C69.2483243,194.53406 64.7853778,197.10915 61.30303,198.798714 C58.7360887,196.03348 54.6561461,191.220125 52.5917278,186.5779 C51.5649513,184.266295 48.9626976,183.098269 46.5533041,183.864277 C44.1439105,184.630284 42.693385,187.088572 43.1904752,189.56859 C43.4865563,191.043563 46.1893145,204.160769 50.2067813,210.185611 L51.1058898,211.532915 C46.4500831,214.792523 41.7942765,218.049415 37.1357535,221.309023 C35.2424645,222.634597 34.5144854,225.092884 35.3837142,227.236076 C36.0247704,228.822419 37.4128201,229.922537 39.0127444,230.243065 C33.2921324,236.966006 27.5715205,243.691664 21.8481922,250.417322 C20.2020902,252.354072 20.2835804,255.225243 22.0410524,257.061489 C23.7985243,258.900451 26.6615466,259.112326 28.6716382,257.553147 C30.3829324,256.224856 32.0969429,254.896566 33.808237,253.568276 C29.7663232,261.524436 0.964970736,318.855507 0.0414151547,334.072443 C-0.895722127,349.56373 14.2994835,355.12951 22.4675178,355.9091 C24.2304224,356.074796 25.9471492,355.292491 26.9766421,353.85283 C27.7317846,352.796174 45.5183785,327.754236 50.1796179,309.109279 C54.4985984,291.833357 71.4730067,244.501133 78.2013808,234.407214 C82.4850489,227.98307 87.064798,223.666806 89.7458255,221.433974 C96.1210754,225.220552 107.078791,232.972986 109.767967,240.499964 C108.909604,238.096004 110.015154,235.431274 112.32676,234.342022 C114.638365,233.252769 117.398166,234.094835 118.704726,236.289638 C115.828122,231.465418 112.065991,224.984231 108.915037,219.290782 C109.284459,219.160398 109.63215,218.989268 109.955395,218.78011 C110.811042,219.331527 111.832386,219.616743 112.886326,219.567849 C114.252645,219.49994 115.507594,218.877898 116.382255,217.878285 L116.382255,217.878285 Z" id="Stroke-155"></path>
                    <path d="M99.418042,179.282285 C98.8394616,178.785195 85.018724,167.15926 65.1921587,169.142188" id="Stroke-157"></path>
                    <path d="M133.480963,189.794128 C133.095242,189.614849 127.143742,187.028894 118.880635,192.980394 C108.009843,200.80617 81.8840854,224.253616 81.6206005,224.489938 C79.8631285,226.068131 77.2391441,226.190367 75.3431388,224.780586 C73.4471336,223.370806 72.8087937,220.822879 73.8138394,218.685119 C74.9438369,216.283875 84.9861456,195.06926 89.7424569,189.36223 C93.2709825,185.127456 94.6590322,176.720384 94.0695864,173.778587 C93.6241067,171.537607 91.15767,168.468143 90.0358216,167.332713 C89.7777693,167.071944 89.5414477,166.773147 89.3458713,166.463484 L84.861194,159.286914 C83.5519182,157.195332 83.9810999,154.457261 85.8662398,152.865486 C87.7513797,151.273711 90.5220465,151.309023 92.3664413,152.946976 C93.1188674,153.617912 93.8712936,154.286132 94.6264361,154.954352 C94.7758348,154.449112 94.9279498,153.943873 95.0800649,153.435918 C95.7618662,151.167774 97.9512362,149.695517 100.309019,149.92369 C102.666802,150.149146 104.535644,152.012555 104.771966,154.367622 C104.915932,155.799133 105.059898,157.230644 105.201148,158.662156 C107.037393,158.846867 109.028471,159.381986 110.712601,160.620637 C112.741707,162.114624 113.980358,164.382767 114.200382,167.009468 C114.341631,168.723479 114.194949,170.130543 113.939613,171.282271 C114.423122,171.154603 114.939226,171.062247 115.487927,171.005204 C120.624526,170.491816 130.78907,176.264038 138.413836,181.196912 C140.641235,182.639288 141.339334,185.578368 140.000179,187.870959 L133.480963,189.794128 L133.480963,189.794128 Z" id="Stroke-159"></path>
                    <path d="M41.7610103,169.513334 C36.844435,172.134602 34.2611957,171.996069 33.7423748,171.740733 C33.9868454,171.860252 34.5083827,172.463279 34.4812193,173.47919 C34.4486232,174.641784 33.6907644,175.739185 32.5960794,176.211828 C33.4327121,175.850555 36.0512638,176.059713 38.3601527,176.244424 C40.5549554,176.41827 43.0567045,176.61113 45.8898471,176.61113 C50.9639701,176.61113 52.5910577,175.942911 55.9538866,174.027891 C57.7439546,173.009264 60.1940932,171.613065 65.2817979,169.507901 C70.4808726,167.35656 74.7645407,166.088029 77.891048,165.159041 C82.6663736,163.746544 85.5484103,162.890897 87.0288155,160.052322 C87.7540783,158.661556 87.903477,157.061632 87.4552809,155.521467 C89.6473672,155.391083 91.5162091,153.821038 92.002434,151.64525 L92.0295974,151.520298 C92.6353412,152.025538 93.241085,152.530777 93.8468288,153.036016 C95.6912236,154.573464 98.3722512,154.568032 100.21393,153.025151 C102.052892,151.48227 102.525535,148.844703 101.333062,146.761271 C101.058711,146.277762 100.781645,145.794254 100.507294,145.313461 C100.694722,145.337909 100.854986,145.362356 100.993519,145.386803 C101.031548,146.074037 101.031548,147.04377 101.031548,147.877686 C101.031548,156.227715 107.409514,159.120617 117.063386,163.499357 L118.296605,164.056207 C128.224827,168.570764 133.244623,170.40701 133.453782,170.483067 C135.689329,171.295253 138.188362,170.409726 139.407999,168.367039 C140.630352,166.327067 140.233766,163.705799 138.459996,162.119457 L125.462309,150.469075 C125.378103,149.651456 126.934566,146.155527 128.789826,143.697239 C130.028477,142.053854 130.128981,139.80744 129.03158,138.06355 C127.936895,136.31966 125.880626,135.4287 123.859669,135.833435 C123.854236,135.836151 123.395175,135.920358 122.615585,135.999132 C122.618302,135.923074 122.621018,135.8443 122.621018,135.765527 C122.621018,133.951012 121.738207,132.144645 120.260518,130.933158 C118.758382,129.702656 116.799901,129.14309 114.420388,129.268041 C113.828225,127.393767 113.298539,123.900554 113.198035,120.806643 C113.113828,118.258716 111.114602,116.191581 108.572108,116.020452 C106.026897,115.849322 103.766902,117.633957 103.343153,120.149288 C103.343153,120.149288 102.976447,122.325077 102.248468,129.257176 C102.134382,129.189268 102.017579,129.124075 101.89806,129.067032 C102.044743,128.295592 102.00943,127.486122 101.770392,126.7011 C101.137485,124.609518 99.2088839,123.178007 97.0249465,123.178007 C96.9434563,123.167142 96.253506,123.093801 94.3656497,122.800436 C95.0338694,121.021233 96.2806694,118.546648 97.611676,116.468648 C98.7471061,114.697594 98.6438852,112.402287 97.3509073,110.742603 C96.0606459,109.082919 93.8631268,108.4147 91.866617,109.080203 C91.7987085,109.101934 90.8398405,109.425178 89.3295555,110.044504 C89.3132574,109.047607 89.3404208,107.977369 89.413762,106.988621 C89.2399163,109.289361 87.5014587,111.166352 85.2197331,111.51676 C82.9380076,111.869884 80.7160415,110.598637 79.8576781,108.455445 C79.4638088,107.47213 80.3466193,106.809343 80.3574846,106.801194 C80.3547683,106.80391 80.0695526,106.96689 79.2790977,107.080977 C79.4855395,107.080977 80.631835,107.290135 81.5336598,108.395685 C82.4354847,109.498519 82.413754,110.65568 82.3349801,110.976208 C82.5006768,110.294407 83.6795684,108.368522 84.7579553,107.013068 C86.3959083,104.954083 86.1432887,101.971541 84.1793749,100.219502 C82.2154612,98.4674628 79.2274872,98.548953 77.3667944,100.409646 C77.211963,100.518299 76.7284545,100.336305 75.9434322,99.2416197 C76.0683839,97.6715752 81.2158481,92.0161554 86.4773985,88.2051305 C84.2717305,89.8023384 81.1886847,89.3242625 79.5724624,87.1294598 C77.9562401,84.9373735 78.4098689,81.848895 80.5910899,80.2136583 C80.6209696,80.1892113 77.3341983,82.4519225 68.8076072,84.7771095 C63.8231234,86.1379958 56.5840774,79.2982518 53.8595885,75.7724425 C52.4389427,73.9361967 49.9317609,73.3250202 47.8265974,74.3110516 C45.7241503,75.2943667 44.5805712,77.6032557 45.0803777,79.8713995 C45.4470836,81.5202179 54.3023519,120.469816 80.5910899,140.185012" id="Stroke-161"></path>
                    <path d="M128.993551,107.558139 C128.939225,107.588019 123.422338,110.684646 117.783216,111.437072 C115.504207,111.741303 114.515459,111.287674 114.200364,111.083948 C112.546113,107.319101 110.394772,101.237216 110.394772,98.4149388 C110.590348,95.4459792 116.794469,81.4052181 122.430874,70.1324073 C123.479381,68.0326765 122.914383,65.4820333 121.072704,64.0233587 C119.231026,62.5646842 116.617907,62.5972803 114.814257,64.1021326 C111.856163,66.5658529 108.895352,69.0322896 105.937258,71.4987263 C106.054061,66.8890974 106.94502,60.9185822 109.897682,54.828548" id="Stroke-163"></path>
                    <path d="M126.753784,111.871687 C116.361067,134.737837 119.6913,138.073502 121.481368,139.86357 C124.366121,142.745607 128.628058,142.57991 132.278819,141.626475 C131.352547,142.984645 131.398725,144.486781 131.474783,145.116971 C132.113123,150.288883 137.227991,150.288883 147.419698,150.288883 C148.324239,150.288883 149.215199,150.038979 149.989356,149.571769 C153.430958,147.488336 156.446096,145.619494 159.029335,143.96796 C158.073183,145.79334 156.877994,147.409562 155.430185,148.373863 L147.357222,153.754933 C145.303669,155.123968 144.567541,157.79413 145.632346,160.024245 C146.697152,162.251644 149.234213,163.357194 151.591996,162.621066 C154.702206,161.648616 157.815131,160.676167 160.92534,159.703717 C161.099186,160.396384 161.270316,161.08905 161.444161,161.779001 C161.876059,163.514742 163.209782,164.881061 164.934658,165.359137 C166.656818,165.837213 168.503929,165.350988 169.767027,164.085173 C170.888875,162.963325 172.010724,161.844193 173.129856,160.722344 C175.259466,163.237675 177.38636,165.753006 179.513255,168.268337 C180.743757,169.721579 182.699521,170.343621 184.543916,169.868261 C186.385595,169.392902 187.795375,167.901631 188.17023,166.035505 C188.735229,163.205079 189.300227,160.377369 189.865226,157.549659 C192.252889,158.079346 194.640552,158.609032 197.028215,159.141435 C198.829148,159.540737 200.678975,158.905113 201.855151,157.546943 C202.148515,157.620284 202.439164,157.690909 202.732528,157.76425" id="Stroke-165"></path>
                    <path d="M188.872549,195.876204 C183.752248,195.403561 168.896585,193.043062 161.736313,187.833122 C151.78636,180.596792 148.983097,179.904125 142.336213,178.966988 L141.575638,178.858335 C141.187201,178.804008 140.80963,178.755114 140.445641,178.708936 C141.208932,176.432643 141.801094,173.936327 141.801094,171.660034 C141.643547,173.827673 140.260929,174.7132 138.144901,175.207574 C136.026155,175.699231 134.198059,175.150531 133.100657,173.27354 L133.448349,173.944476 C134.836399,176.67983 137.723868,182.373278 143.707965,183.294118 C147.233774,183.837386 149.963696,183.313132 151.984653,182.46835 C154.668397,184.587095 158.854276,186.939446 164.200033,186.939446 C172.688596,186.939446 176.790269,181.422559 177.876805,178.162952 C178.583053,176.046923 177.789882,173.721736 175.940055,172.474936 C174.087511,171.230852 171.634656,171.374818 169.93966,172.825344 C169.146488,173.507145 165.19693,177.163338 165.425103,182.332533 C165.522891,184.543634 166.446447,187.759781 170.284635,190.500568 C176.874476,195.207985 192.851987,202.552968 193.528356,202.862631" id="Stroke-167"></path>
                    <path d="M252.798893,181.82559 C238.347965,177.281153 221.047596,170.392515 218.29866,167.184517 C213.564079,161.659482 211.890814,158.084778 211.874516,158.049466" id="Stroke-169"></path>
                </g>
            </g>
        </g>
    </g>
</svg>