<svg xmlns="http://www.w3.org/2000/svg" xmlns:xlink="http://www.w3.org/1999/xlink" xmlns:sketch="http://www.bohemiancoding.com/sketch/ns" width="431px" height="328px" viewBox="0 0 431 328" version="1.1">
    <!-- Generator: Sketch 3.2.2 (9983) - http://www.bohemiancoding.com/sketch -->
    <title>Stroke 181</title>
    <desc>Created with Sketch.</desc>
    <defs>
        <rect id="path-1" x="0" y="0" width="554" height="345"/>
    </defs>
    <g id="Blank-Project" stroke="none" stroke-width="1" fill="none" fill-rule="evenodd" sketch:type="MSPage">
        <g id="Pagina-Producto-19" sketch:type="MSArtboardGroup" transform="translate(-328.000000, -218.000000)">
            <g id="Stroke-181" sketch:type="MSLayerGroup" transform="translate(304.000000, 201.000000)">
                <mask id="mask-2" sketch:name="Mask" fill="white">
                    <use xlink:href="#path-1"/>
                </mask>
                <use id="Mask" sketch:type="MSShapeGroup" xlink:href="#path-1"/>
                <g id="Group" mask="url(#mask-2)" fill="#23904D" sketch:type="MSShapeGroup">
                    <g>
                        <path d="M302 184.4 L301.7 189.8 C301.8 189.8 303 189.8 304.9 189.8 C310.4 189.8 322.2 189.5 335.9 186.6 C349.6 183.8 365.3 178.5 378.3 168.2 C393.1 156.4 405.3 140.8 413.8 128 C422.4 115.2 427.3 105.3 427.4 105.2 C428.6 102.7 427.8 99.7 425.5 98.2 C423.1 96.7 420.1 97.2 418.4 99.4 L418.3 99.5 C417.6 100.3 410.8 108.8 400.5 117.3 C390.3 125.9 376.7 134.5 363.1 136.2 C346.9 138.3 332.5 142.5 321 148 C315.2 150.8 310.2 153.9 306 157.3 C301.8 160.7 298.5 164.4 296.3 168.6 C293.9 173.1 292.8 176.6 292.7 179.9 C292.7 181.6 293 183.2 293.7 184.5 C294.3 185.9 295.3 187.1 296.3 187.8 C297.7 188.9 299 189.3 300 189.6 C301 189.8 301.7 189.8 302 189.8 L302 184.4 L301.7 189.8 L302 184.4 L302 179 L302 180.8 L302.4 179 L302 179 L302 180.8 L302.4 179 L302.1 180.2 L302.8 179.3 L302.4 179 L302.1 180.2 L302.8 179.3 L301.8 180.6 L303.3 179.9 L302.8 179.3 L301.8 180.6 L303.3 179.9 L302.5 180.3 L303.4 180.1 L303.3 179.9 L302.5 180.3 L303.4 180.1 L303.4 179.9 C303.4 179.4 303.8 177.3 305.7 173.7 C307 171.2 309.4 168.4 312.8 165.7 C317.8 161.6 325 157.6 333.9 154.3 C342.7 151 353.1 148.4 364.5 146.9 C381.9 144.6 397.2 134.2 408.4 124.7 C419.6 115.2 426.6 106.3 426.8 106.1 L422.5 102.8 L417.7 100.4 L417.7 100.4 C417.2 101.4 412.3 111.1 404.2 123.1 C396 135.1 384.7 149.4 371.6 159.7 C360.6 168.5 346.5 173.4 333.8 176.1 C321 178.7 309.9 179.1 304.9 179 C304 179 303.4 179 302.9 179 L302.4 179 L302.2 179 L302 179 L302 184.4 " id="Fill-2"/>
                        <path d="M290.8 100.7 L286.7 104.2 C287 104.5 288.4 106.1 290.9 107.6 C293.4 109.1 297.2 110.6 302 110.6 C303.6 110.6 305.3 110.5 307.1 110.1 C312.7 109 317.8 107.1 321.9 105.6 C324 104.8 325.9 104.1 327.4 103.7 C328.8 103.2 330 103.1 330.4 103.1 C330.5 103 331.9 103.2 333.5 103.6 C335.9 104.2 339.3 105.2 342.8 106 C346.3 106.8 350.1 107.6 353.9 107.6 C355.6 107.6 357.3 107.4 359 107 C367.2 104.9 382.4 100.9 382.4 100.8 C384.7 100.2 386.4 98.1 386.4 95.7 C386.4 93.3 384.9 91.2 382.6 90.5 C382.5 90.5 380.7 89.9 377.7 89 C373.2 87.6 366.3 85.4 359.7 83.2 C356.4 82.1 353.2 81 350.4 80 C347.5 79 345.2 78.1 343.7 77.4 C341.2 76.3 338.4 75.6 335.3 75.1 C332.1 74.6 328.7 74.4 325 74.4 C319.5 74.4 313.7 74.9 308.2 76.3 C302.5 77.7 297.2 79.8 292.7 83.1 C289.6 85.5 287.4 87.7 285.8 90 C284.3 92.2 283.4 94.6 283.4 97 C283.4 99.8 284.6 102 285.7 103.3 C286.8 104.6 287.9 105.2 288.2 105.4 L290.8 100.7 L286.7 104.2 L290.8 100.7 L293.5 96 L292.8 97.3 L293.9 96.3 C293.8 96.3 293.9 96.3 293.5 96 L292.8 97.3 L293.9 96.3 L293.1 97 L294.1 97 L293.9 96.3 L293.1 97 L294.1 97 L293.7 97 L294.1 97.1 L294.1 97 L293.7 97 L294.1 97.1 C294.1 97.1 294.2 96.6 295 95.7 C295.6 94.8 297 93.4 299.1 91.8 C301.9 89.6 306.1 87.9 310.7 86.8 C315.2 85.7 320.3 85.2 325 85.2 C328.1 85.2 331.1 85.4 333.6 85.8 C336.1 86.2 338.2 86.8 339.3 87.3 C341.9 88.5 345.6 89.8 349.8 91.3 C362.3 95.6 379.5 100.8 379.5 100.8 L381 95.6 L379.6 90.4 C379.6 90.4 375.9 91.4 371.1 92.7 C366.2 94 360.4 95.5 356.4 96.5 C355.8 96.7 355 96.8 353.9 96.8 C350.8 96.8 346.3 95.8 342.1 94.7 C339.9 94.1 337.9 93.6 336 93.1 C334 92.7 332.3 92.3 330.4 92.3 C328.2 92.3 326.3 92.7 324.3 93.3 C321.4 94.2 318.3 95.4 315.1 96.6 C311.8 97.7 308.4 98.8 305 99.5 C303.9 99.7 302.9 99.8 302 99.8 C299.4 99.8 297.6 99.1 296.4 98.3 C295.8 98 295.4 97.6 295.1 97.4 L294.9 97.2 L294.9 97.2 L293.2 98.8 L294.9 97.3 L294.9 97.2 L293.2 98.8 L294.9 97.3 C294.5 96.8 294.1 96.4 293.5 96 L290.8 100.7 " id="Fill-3"/>
                        <path d="M237.1 106.9 L242.1 104.8 C242.1 104.7 237 92.4 229.8 77.9 C226 70.4 221.3 62.8 215.2 56.4 C209.2 49.9 201.9 44.4 193.3 41.5 C186 39.1 178 35.6 171.3 32.4 C167.9 30.9 164.8 29.4 162.2 28.1 C159.6 26.9 157.6 25.9 156.1 25.3 C153.7 24.4 149.6 22.6 146.3 21.1 C142.8 19.5 140.1 18.3 140.1 18.3 C137.6 17.2 134.8 18 133.3 20.3 C131.9 22.6 132.4 25.6 134.4 27.3 C134.4 27.3 144.3 35.7 155 44.7 C160.3 49.2 165.8 53.8 170.4 57.5 C172.7 59.4 174.8 61.1 176.5 62.4 C178.1 63.7 179.5 64.7 180.5 65.4 C180.6 65.5 181.3 66.1 182.1 67 C183.5 68.6 185.4 71.2 187.3 74.1 C190.2 78.5 193.3 83.9 195.8 88.6 C197 91 198.1 93.2 199 95.1 C199.8 96.9 200.4 98.5 200.6 99.2 C201.3 101.7 202.6 104.1 204.2 106.5 C206.5 110.1 209.7 113.7 213.2 116.6 C216.8 119.4 220.7 121.8 225.4 122.4 C225.9 122.5 226.5 122.5 227 122.5 C229.8 122.5 232.4 121.6 234.4 120.2 C236.3 118.9 237.7 117.3 238.8 115.8 C241.3 112.1 242.2 108.6 242.3 108.3 C242.6 107.1 242.6 105.9 242.1 104.8 L237.1 106.9 L232 105.4 L234.2 106 L232 105.4 L232 105.4 L234.2 106 L232 105.4 C232 105.4 231.3 107.8 230 109.6 C229.5 110.3 228.9 111 228.4 111.3 C227.8 111.6 227.6 111.7 227 111.7 L226.7 111.7 C225.7 111.6 224.2 111 222.5 110 C220 108.5 217.2 105.9 215.1 103.2 C212.9 100.6 211.3 97.7 210.9 96.2 C210.5 94.9 210 93.6 209.4 92.1 C207.1 86.8 203.2 79.3 199 72.4 C196.8 69 194.7 65.8 192.7 63 C191.6 61.7 190.7 60.4 189.7 59.3 C188.6 58.2 187.7 57.3 186.4 56.4 C185.9 56.1 184.7 55.2 183.1 53.9 C177.3 49.4 166.9 40.7 157.9 33.1 C153.4 29.3 149.3 25.8 146.2 23.2 C143.2 20.7 141.3 19.1 141.3 19.1 L137.8 23.2 L135.6 28.1 C135.6 28.1 138.5 29.4 141.9 30.9 C145.3 32.5 149.4 34.3 152.1 35.3 C153 35.7 155.1 36.7 157.6 37.9 C165.3 41.6 178 47.8 189.9 51.8 C196.4 54 202.3 58.2 207.4 63.7 C212.5 69.2 216.9 76 220.2 82.7 C223.7 89.8 226.7 96.4 228.9 101.2 C229.9 103.5 230.8 105.5 231.3 106.9 C231.6 107.5 231.8 108.1 232 108.4 C232.1 108.8 232.2 108.9 232.2 108.9 L237.1 106.9 L232 105.4 L237.1 106.9 " id="Fill-4"/>
                        <path d="M238.1 163 L233.3 160.7 L235.9 161.9 L233.3 160.6 L233.3 160.7 L235.9 161.9 L233.3 160.6 L233.3 160.6 C233.2 160.9 232.3 162.4 230.1 163.8 C227.9 165.2 224.4 166.6 218.5 166.6 C208.8 166.7 192.8 162.6 168 147.2 C137.7 128.3 124.7 119.2 114.1 113.8 C108.7 111.1 104 109.3 98.5 108 C92.9 106.7 86.7 105.8 77.8 104.6 C61.5 102.2 50 101.6 42.1 101.6 C32.7 101.6 28.7 102.5 28.2 102.6 L29.4 107.9 L30.8 113.1 L31.3 113 C33.6 112.4 44.8 109.5 59.6 106.8 C74.4 104.1 92.9 101.6 109.6 101.6 C120 101.6 129.7 102.6 137.4 104.9 C173.6 115.7 205.7 139.8 215.6 147.8 C220.3 151.6 225 156.3 228.4 160 C230.1 161.9 231.6 163.5 232.5 164.6 C233 165.2 233.4 165.6 233.7 165.9 L233.9 166.3 L234 166.4 L238.1 163 L233.3 160.7 L238.1 163 L242.3 159.6 C242.2 159.4 233 148 222.3 139.4 C211.8 131 179.1 106.2 140.4 94.5 C131.2 91.8 120.6 90.8 109.6 90.8 C90.6 90.8 70.4 93.8 54.7 96.7 C39.1 99.7 28.2 102.6 28.1 102.7 C25.2 103.4 23.5 106.4 24.3 109.2 C25 112.1 27.9 113.8 30.8 113.1 L30 110.2 L30.7 113.1 L30.7 113.1 L30 110.2 L30.7 113.1 C30.7 113.1 30.9 113.1 31.3 113 C32.6 112.8 36 112.4 42.1 112.4 C49.3 112.4 60.4 113 76.3 115.3 C85.2 116.5 91.2 117.4 96.1 118.6 C99.7 119.4 102.6 120.4 105.9 121.8 C115.5 126 128.2 135.1 162.4 156.3 C188.2 172.3 205.9 177.4 218.5 177.4 C227.2 177.5 233.5 174.8 237.4 171.8 C241.2 168.9 242.8 165.8 243 165.2 C243.9 163.4 243.6 161.2 242.3 159.6 L238.1 163 " id="Fill-5"/>
                        <path d="M306 197.7 L309.7 201.6 L307.6 199.4 L309.7 201.6 L309.7 201.6 L307.6 199.4 L309.7 201.6 L310 201.4 C311.6 200.1 318.8 194.8 331.1 194.8 C337 194.8 344.1 196 352.6 199.6 C367 205.6 380.3 218.3 391.1 230.7 C396.4 236.9 401.3 243 405.4 248.1 C407.4 250.6 409.3 253 411.1 255 C412.9 257 414.5 258.7 416.2 260 C418.4 261.9 421.5 264.7 424.6 267.9 C429.3 272.6 434.4 278.2 438.3 282.5 C440.2 284.7 441.9 286.6 443 287.9 C444.2 289.2 444.9 290 444.9 290 L448.9 286.4 L449.2 281 L449.1 283 L449.2 281 L449.2 281 L449.1 283 L449.2 281 C449 281 432.5 279.8 411.9 261.9 C401.3 252.8 392.8 241 383.1 230.8 C378.2 225.7 373 221 366.9 217.3 C360.9 213.7 353.9 211.2 346 210.6 C331.8 209.6 322.5 208.8 317 207.6 C314.2 207 312.5 206.2 311.6 205.6 C310.6 205 310.4 204.6 310 203.7 C309.3 202.2 309.3 201.4 309.3 201.2 L309.2 201.2 L307.3 200.9 L308.5 202.4 C308.9 202.1 309.3 201.4 309.3 201.2 L307.3 200.9 L308.5 202.4 L306.6 200 L307.3 202.9 C307.8 202.8 308.1 202.7 308.5 202.4 L306.6 200 L307.3 202.9 C308.2 202.7 309.1 202.2 309.7 201.6 L306 197.7 L304.7 192.4 C304.2 192.6 302.8 193 301.3 194.4 C300.5 195.1 299.8 196.1 299.3 197.3 C298.8 198.5 298.5 199.8 298.6 201.2 C298.5 203.4 299.1 205.5 300.1 208 C301.2 210.6 303.2 213 305.7 214.7 C307.6 215.9 309.8 216.8 312.1 217.5 C315.7 218.5 320 219.2 325.3 219.8 C330.7 220.3 337.2 220.8 345.2 221.4 C351.4 221.9 356.6 223.7 361.5 226.6 C368.8 231 375.3 237.9 382.2 245.8 C388.9 253.6 396.1 262.4 404.9 270.1 C428.2 290.4 447.8 291.8 448.6 291.8 C450.7 291.9 452.8 290.8 453.7 288.8 C454.6 286.9 454.4 284.5 453 282.9 C452.9 282.9 448.1 277.2 442 270.5 C438.9 267.2 435.5 263.6 432.2 260.2 C428.8 256.9 425.7 253.9 422.9 251.6 C422 250.9 420.7 249.6 419.1 247.8 C416.4 244.7 412.9 240.2 408.8 235.2 C402.6 227.5 395.2 218.5 386.5 210.3 C377.8 202 367.9 194.4 356.8 189.6 C347.1 185.5 338.5 184 331.1 184 C322 184 314.9 186.3 310.1 188.7 C305.2 191 302.7 193.4 302.4 193.7 L306 197.7 L304.7 192.4 L306 197.7 " id="Fill-6"/>
                        <path d="M275.6 327.2 L280.8 328.7 L280.9 328.4 C281.2 327.1 283.1 320.5 286 313.6 C287.4 310.1 289.1 306.5 290.9 303.5 C292.7 300.5 294.7 298 296.2 296.8 C298.3 295 301.5 293.1 305.1 290.9 C310.4 287.6 316.8 283.8 322.5 278.8 C328.1 273.9 333.3 267.6 335.5 259.3 L330.3 257.9 L325 257.7 L325 257.7 C325 258.4 324.6 266.1 322.2 274.8 C320.9 279.2 319.3 283.8 316.9 287.9 C314.5 292.1 311.6 295.7 308 298.4 C298.9 305 290.1 311.1 283.6 315.5 C280.3 317.7 277.6 319.5 275.7 320.8 C273.8 322 272.8 322.7 272.7 322.7 L275.6 327.2 L280.8 328.7 L275.6 327.2 L278.5 331.8 C278.6 331.8 295.9 320.5 314.3 307.1 C319.6 303.2 323.6 298.1 326.5 292.8 C330.9 284.7 333.1 276.2 334.4 269.5 C335.5 262.9 335.7 258.2 335.7 258 C335.8 255.3 333.9 252.9 331.2 252.5 C328.5 252.1 325.9 253.8 325.2 256.4 C324.2 260.1 322.3 263.4 319.7 266.4 C315.9 270.9 310.5 274.8 305 278.3 C299.5 281.8 293.9 284.8 289.5 288.3 C286.1 291.1 283.6 294.8 281.3 298.7 C277.8 304.7 275.2 311.3 273.4 316.6 C271.5 321.9 270.5 325.8 270.5 325.8 C269.9 328 270.7 330.3 272.5 331.6 C274.3 332.9 276.7 333 278.6 331.8 L275.6 327.2 " id="Fill-7"/>
                        <path d="M310.3 210.1 L310.4 210 C311.2 209.8 320.3 207.9 331.3 207.9 C336.4 207.9 341.9 208.3 347.2 209.5 C352.5 210.6 357.6 212.6 361.8 215.4 C366.5 218.6 372.5 224.1 379 230.8 C388.7 240.8 399.8 253.3 411.3 264.3 C417 269.9 422.9 275.1 428.9 279.4 C434.9 283.8 440.9 287.3 447.2 289.5 C449.9 290.5 453 289 454 286.2 C454.9 283.3 453.5 280.3 450.7 279.3 C444.2 277.1 437.1 272.5 429.8 266.4 C418.7 257.4 407.5 245.3 396.9 234.1 C391.6 228.4 386.6 223 381.7 218.3 C376.8 213.5 372.3 209.4 367.8 206.4 C362.1 202.6 355.8 200.3 349.5 198.9 C343.2 197.5 337 197.1 331.3 197.1 C318.2 197.1 308.1 199.5 307.9 199.6 C305 200.2 303.2 203.1 303.9 206 C304.5 208.9 307.4 210.7 310.3 210.1 " id="Fill-8"/>
                        <path d="M310.5 186.3 L309 185.3 L310.5 186.3 L310.5 186.3 L309 185.3 L310.5 186.3 C310.6 186.3 313.3 182.2 317.5 177.9 C321.7 173.7 327.6 169.4 333.4 168.3 C341.4 166.6 354.3 163 367.5 157.5 C380.6 152 394.1 144.7 403.2 135 C419.6 117.4 425 107.9 425.2 107.4 C426.6 104.8 425.7 101.5 423.1 100.1 C420.5 98.6 417.3 99.6 415.9 102.2 L417.4 103.1 L415.8 102.2 L415.8 102.2 L417.4 103.1 L415.8 102.2 C415.8 102.3 410.8 111.1 395.4 127.6 C388.2 135.4 375.8 142.4 363.4 147.5 C351 152.7 338.5 156.2 331.3 157.7 C322 159.6 314.8 165.4 309.7 170.5 C304.6 175.6 301.7 180.2 301.6 180.4 C299.9 182.9 300.7 186.3 303.1 187.9 C305.6 189.5 308.9 188.8 310.6 186.3 " id="Fill-9"/>
                        <path d="M294.6 102.3 L294.6 102.3 C294.9 102.1 298.6 99.9 303.7 97.9 C308.6 95.8 315 93.9 320.2 93.9 C326.3 93.9 330.5 94.8 334.4 95.9 C338.3 96.9 342.1 98.3 346.9 98.9 C349.2 99.2 352.4 99.4 356 99.6 C366.7 100 381 100 381 100 C384 100 386.4 97.6 386.4 94.6 C386.4 91.6 384 89.2 381 89.2 C381 89.2 379.5 89.2 377 89.2 C373.2 89.2 367.5 89.1 361.9 89 C356.3 88.8 350.9 88.6 348.3 88.2 C344.9 87.8 341.7 86.7 337.2 85.4 C332.8 84.2 327.4 83.1 320.2 83.1 C312.4 83.1 304.9 85.7 299 88.1 C293.2 90.5 289.3 93 289.1 93 C286.5 94.6 285.8 97.9 287.3 100.4 C288.8 103 292.1 103.8 294.6 102.3 " id="Fill-10"/>
                        <path d="M232.8 103 L230.7 105.2 L232.8 103 L232.8 103 L230.7 105.2 L232.8 103 C232.8 103 232.7 102.9 232.4 102.6 C230.3 100.3 221.5 89.8 214.8 71.3 C213.5 67.7 211.4 64.4 208.9 61.3 C204.3 55.9 198.4 50.9 191.8 46.3 C182.1 39.4 171.2 33.4 162.7 29.1 C154.2 24.9 148.1 22.3 148 22.3 C145.3 21.1 142.2 22.4 141 25.2 C139.9 27.9 141.2 31.1 143.9 32.2 C143.9 32.2 144.1 32.3 144.5 32.5 C147.4 33.8 161.2 39.9 174.9 48.1 C181.8 52.2 188.6 56.9 194.1 61.6 C199.5 66.3 203.5 71.2 204.8 75 C213.2 98.4 224.9 110.3 225.3 110.7 C227.3 112.8 230.8 112.8 232.8 110.7 C234.9 108.6 234.9 105.1 232.8 103 " id="Fill-11"/>
                        <path d="M234 161 L233.9 161 C233 160.6 212.6 152.5 185.6 133.1 C156.4 112.1 128.2 103.6 106.2 100.5 C93 98.6 77.9 98.2 67.8 98.2 C61.1 98.2 56.7 98.4 56.6 98.4 C53.6 98.5 51.4 101 51.5 104 C51.5 107 54.1 109.3 57 109.2 C57 109.2 57.3 109.2 57.8 109.2 C59.2 109.1 62.9 109 67.8 109 C77.6 109 92.4 109.4 104.7 111.2 C125.3 114.1 151.8 122 179.3 141.9 C208.2 162.6 229.9 171 230.2 171.1 C232.9 172.1 236.1 170.7 237.1 168 C238.1 165.2 236.8 162.1 234 161 " id="Fill-12"/>
                        <path d="M226 282.4 L223.1 277.8 L224.8 280.4 L223.2 277.7 L223.1 277.8 L224.8 280.4 L223.2 277.7 L223.2 277.8 C222.8 278 218.8 280.2 210.4 280.2 C199.9 280.2 182.4 276.7 157 260.4 C138.7 248.8 123.1 242.1 109.9 238.3 C96.7 234.5 85.9 233.6 77.6 233.6 C71.2 233.6 66.1 234.1 62.9 234.1 C57.5 234.1 51.2 232.1 46.4 230 C44 228.9 42 227.8 40.6 227 C39.8 226.6 39.3 226.3 39 226.1 L38.5 225.8 L38.4 225.8 L38.4 225.8 L35.5 230.3 L35.3 235.7 C35.3 235.7 36.8 235.8 39.4 235.8 C47.2 235.8 65 235.2 85.4 230.5 C95.2 228.2 107.2 227 118.7 227.1 C127.5 227.1 136.2 227.7 143.4 228.9 C150.6 230.1 156.5 232 159.4 233.9 C165.8 237.9 175.2 244 183.6 249.9 C187.7 252.9 191.7 255.8 194.9 258.4 C198.1 260.9 200.6 263.2 201.7 264.4 C204.9 268.2 210 273.6 214.3 278.1 C218.6 282.6 222.2 286.2 222.2 286.2 L226 282.4 L223.1 277.8 L226 282.4 L229.8 278.5 C229.8 278.5 228.9 277.7 227.5 276.2 C225.4 274.1 222.1 270.6 218.7 267.1 C215.3 263.6 212 259.9 209.8 257.4 C207.8 255.1 205 252.7 201.6 249.9 C191.2 241.6 175 230.9 165 224.7 C159.9 221.6 153.2 219.7 145.2 218.3 C137.2 216.9 128.1 216.3 118.7 216.3 C106.5 216.3 93.9 217.4 83 220 C63.8 224.4 46.7 225 39.4 225 C38.2 225 37.3 225 36.7 224.9 L36 224.9 L35.8 224.9 C33.3 224.8 31.2 226.3 30.4 228.7 C29.7 231 30.6 233.5 32.6 234.9 C32.8 235 36.6 237.4 42.1 239.9 C47.7 242.3 55.1 244.9 62.9 244.9 C67 244.9 71.7 244.4 77.6 244.4 C85.2 244.4 94.8 245.2 106.9 248.7 C119 252.1 133.7 258.4 151.2 269.6 C177.9 286.6 197.5 291 210.4 291 C222.1 291 228.2 287.4 228.9 286.9 C230.2 286 231.2 284.6 231.3 282.9 C231.5 281.3 231 279.7 229.8 278.5 L226 282.4 " id="Fill-13"/>
                        <path d="M75.3 241.8 C75.3 241.8 75.6 241.8 76.1 241.8 C77.5 241.7 81.2 241.6 86.2 241.6 C92.8 241.6 101.8 241.8 111 242.7 C120.2 243.6 129.7 245.2 137.2 247.7 C160.7 255.6 176.3 267.4 191.2 274.9 C205.5 282.2 213.8 285.3 214 285.4 C216.7 286.4 219.9 285 220.9 282.2 C221.9 279.4 220.5 276.3 217.8 275.3 L217.7 275.2 C216.9 274.9 209.1 271.9 196 265.3 C182.5 258.5 165.7 245.9 140.6 237.4 C131.8 234.5 121.7 232.9 112 232 C102.3 231 93.1 230.8 86.2 230.8 C79.3 230.8 74.9 231 74.8 231 C71.8 231.2 69.6 233.7 69.7 236.7 C69.8 239.7 72.4 242 75.3 241.8 " id="Fill-14"/>
                        <path d="M278.8 325.5 C278.8 325.5 282.4 322.9 287.1 319.3 C291.8 315.7 297.8 311 302.5 306.8 C307.4 302.4 313.1 296.2 317.6 291 C322 285.8 325.4 281.7 325.4 281.7 C327.3 279.4 326.9 276 324.6 274.1 C322.3 272.2 319 272.6 317.1 274.9 C317.1 274.9 316.9 275.1 316.5 275.6 C315.2 277.1 311.8 281.3 307.8 285.8 C303.8 290.4 299.1 295.4 295.4 298.7 C291 302.6 285.3 307.2 280.7 310.7 C278.3 312.5 276.3 314 274.9 315 C274.1 315.6 273.6 316 273.2 316.3 C272.7 316.6 272.5 316.7 272.5 316.7 C270.1 318.5 269.6 321.8 271.3 324.3 C273 326.7 276.4 327.3 278.8 325.5 " id="Fill-15"/>
                        <path d="M256.1 267 L256.1 298.7 L261.5 298.7 L266.5 297 C266.4 296.6 264.8 291.6 260.4 285.4 C256 279.4 248.9 272.1 238 268.1 C234 266.6 229.9 264 225.9 260.4 C219.9 255 214.3 247.5 209.5 239.3 C204.6 231.1 200.5 222.3 197.6 214.2 C193.4 202.6 187.5 190.4 182.6 181.1 C177.7 171.8 173.9 165.4 173.9 165.3 C172.4 162.8 169.3 162 166.8 163.3 C164.2 164.6 163.2 167.7 164.4 170.3 C164.4 170.3 164.8 171.1 165.4 172.5 C167.6 177.6 173.2 190.3 178.3 202.8 C180.9 209.1 183.3 215.3 185.2 220.4 C186.1 223 186.8 225.3 187.4 227.1 C187.9 228.9 188.2 230.4 188.3 230.9 C188.5 232.9 189.1 234.9 189.9 237.1 C191.2 241 193.4 245.5 195.9 250.4 C199.7 257.6 204.4 265.4 208.6 271.9 C210.7 275.1 212.8 278 214.6 280.3 C215.5 281.5 216.4 282.5 217.3 283.4 C218.1 284.3 218.9 285.1 220 285.8 C221 286.5 222.2 287.1 223.5 287.9 C228 290.4 234.8 293.8 240.6 297.5 C243.5 299.4 246.2 301.3 248.1 303.1 C250 304.9 251.1 306.6 251.3 307.4 C251.5 308.2 251.9 309.7 252.1 311.5 C253 317.7 253.6 327.7 253.8 335.9 C253.9 340 254 343.7 254.1 346.4 C254.1 349.1 254.1 350.7 254.1 350.7 C254.1 353.7 256.5 356.1 259.5 356.1 C262.4 356.1 264.8 353.7 264.8 350.7 C264.8 350.7 264.8 342 264.4 331.9 C264.2 326.9 264 321.5 263.5 316.6 C263.3 314.2 263 311.9 262.7 309.9 C262.4 307.8 262 305.9 261.5 304.3 C260.9 302.2 259.9 300.3 258.6 298.7 C256.4 295.8 253.6 293.4 250.5 291.2 C245.8 287.8 240.6 284.8 236 282.4 C233.7 281.1 231.6 280 229.8 279 C228 278.1 226.6 277.3 226 276.8 L225.9 276.8 C225.7 276.7 224.8 275.8 223.7 274.5 C221.8 272.1 219.3 268.5 216.6 264.4 C212.5 258.2 208.1 250.7 204.7 244 C203 240.7 201.6 237.6 200.6 235.1 C199.5 232.5 199 230.4 198.9 229.8 C198.7 227.8 198.2 225.7 197.4 223.1 C196 218.7 193.9 213 191.5 206.8 C184.2 188.3 174.2 165.9 174.2 165.9 L169.3 168.1 L164.7 170.9 L164.8 171.1 C166.4 173.9 180.2 197.5 187.5 217.9 C191.7 229.5 198 242.4 205.8 253.5 C213.6 264.5 223 274 234.3 278.2 C242.6 281.3 248.2 286.9 251.7 291.8 C253.4 294.2 254.6 296.4 255.4 298 C255.7 298.8 256 299.5 256.2 299.9 L256.3 300.3 L256.4 300.4 L257.5 300 L256.4 300.4 L256.4 300.4 L257.5 300 L256.4 300.4 C257.2 302.9 259.8 304.4 262.3 304 C264.9 303.6 266.8 301.3 266.8 298.7 L266.8 267 C266.8 264.1 264.4 261.6 261.5 261.6 C258.5 261.6 256.1 264.1 256.1 267 " id="Fill-16"/>
                        <path d="M283 347.7 L283 287.5 C283 284.5 280.6 282.1 277.7 282.1 C274.7 282.1 272.3 284.5 272.3 287.5 L272.3 347.7 C272.3 350.6 274.7 353.1 277.7 353.1 C280.6 353.1 283.1 350.6 283.1 347.7 " id="Fill-17"/>
                        <path d="M264.5 73.2 L264.5 78.6 C267.2 78.6 269.7 77.7 271.9 76.4 C275.1 74.4 277.8 71.4 279.8 67.7 C281.8 64 283 59.6 283.1 54.8 C283 48.4 280.9 42.7 277.7 38.3 C276 36.1 274.1 34.3 272 32.9 C269.8 31.5 267.3 30.6 264.5 30.6 C261.7 30.6 259.2 31.6 257.2 33 C254.1 35.3 252 38.5 250.5 42.2 C249 45.9 248.3 50.1 248.3 54.6 C248.3 60.6 249.7 66.1 252.2 70.5 C253.5 72.7 255.1 74.6 257.2 76.1 C259.2 77.6 261.8 78.6 264.5 78.6 L264.5 67.8 C264.2 67.8 264 67.7 263.4 67.3 C262.6 66.8 261.4 65.3 260.5 63 C259.6 60.7 259 57.8 259 54.6 C259 50.3 260.1 46.5 261.4 44.2 C262.1 43 262.9 42.2 263.4 41.8 C264 41.4 264.3 41.4 264.5 41.4 C264.7 41.4 265.4 41.5 266.2 42 C267.5 42.8 269.2 44.6 270.4 46.9 C271.5 49.1 272.3 51.9 272.3 54.8 C272.3 58.7 271 62.2 269.1 64.5 C268.2 65.7 267.2 66.6 266.3 67.1 C265.5 67.7 264.8 67.8 264.5 67.8 L264.5 73.2 " id="Fill-18"/>
                        <path d="M256.1 44.1 C256.1 44.2 255.8 47.6 255.8 52.2 C255.8 55.6 256 59.7 256.7 63.7 C257 65.7 257.6 67.7 258.3 69.6 C259.1 71.5 260.1 73.3 261.7 75 C263.8 77.1 267.2 77.1 269.3 75 C271.4 72.9 271.4 69.4 269.3 67.3 C269.1 67.1 268.7 66.5 268.3 65.5 C267.6 64 267.2 61.8 266.9 59.4 C266.6 57 266.5 54.5 266.5 52.2 C266.5 50.2 266.6 48.4 266.7 47.1 C266.7 46.5 266.7 46 266.8 45.6 L266.8 45.3 L266.8 45.2 C267.1 42.2 265 39.5 262 39.2 C259 38.9 256.4 41.1 256.1 44.1 " id="Fill-19"/>
                        <path d="M278.2 89.8 L278.2 95.1 C280.9 95.1 283.4 94.3 285.6 93 C288.8 91 291.5 88 293.5 84.3 C295.4 80.6 296.7 76.2 296.7 71.4 C296.7 65 294.5 59.2 291.3 54.9 C289.7 52.7 287.8 50.9 285.6 49.5 C283.5 48.1 281 47.1 278.2 47.1 C275.4 47.1 272.9 48.1 270.8 49.6 C267.7 51.9 265.7 55.1 264.2 58.7 C262.7 62.4 262 66.6 262 71.1 C261.9 77.1 263.3 82.6 265.9 87 C267.1 89.2 268.8 91.2 270.8 92.7 C272.8 94.2 275.4 95.2 278.2 95.1 L278.2 84.4 C277.9 84.3 277.7 84.3 277.1 83.9 C276.2 83.3 275 81.8 274.2 79.5 C273.2 77.3 272.7 74.4 272.7 71.1 C272.6 66.9 273.7 63.1 275.1 60.7 C275.8 59.6 276.5 58.8 277.1 58.4 C277.6 58 277.9 57.9 278.2 57.9 C278.4 57.9 279.1 58 279.9 58.6 C281.2 59.4 282.9 61.1 284 63.4 C285.2 65.7 286 68.5 286 71.4 C286 75.2 284.6 78.7 282.8 81.1 C281.9 82.3 280.9 83.2 280 83.7 C279.1 84.2 278.5 84.4 278.2 84.4 L278.2 89.8 " id="Fill-20"/>
                        <path d="M269.8 60.6 C269.8 60.8 269.5 64.2 269.5 68.8 C269.4 72.2 269.7 76.3 270.4 80.3 C270.7 82.3 271.3 84.2 272 86.1 C272.8 88 273.8 89.9 275.4 91.5 C277.5 93.6 280.9 93.6 283 91.5 C285.1 89.4 285.1 86 283 83.9 C282.8 83.7 282.3 83.1 282 82.1 C281.3 80.6 280.9 78.4 280.6 76 C280.3 73.6 280.2 71 280.2 68.8 C280.2 66.7 280.3 64.9 280.3 63.7 C280.4 63 280.4 62.5 280.4 62.2 L280.5 61.8 L280.5 61.7 C280.8 58.8 278.6 56.1 275.7 55.8 C272.7 55.5 270.1 57.7 269.8 60.6 " id="Fill-21"/>
                        <path d="M262 132.6 L262 138 C264.7 138 267.2 137.1 269.3 135.8 C272.6 133.8 275.3 130.8 277.3 127.1 C279.2 123.5 280.5 119 280.5 114.2 C280.5 107.8 278.3 102.1 275.1 97.7 C273.5 95.6 271.6 93.7 269.4 92.3 C267.2 91 264.8 90 262 90 C259.2 90 256.7 91 254.6 92.5 C251.5 94.7 249.5 97.9 248 101.6 C246.5 105.3 245.8 109.5 245.7 114 C245.7 120 247.1 125.5 249.7 129.9 C250.9 132.1 252.6 134 254.6 135.5 C256.6 137 259.2 138 262 138 L262 127.2 C261.7 127.2 261.4 127.2 260.9 126.8 C260 126.2 258.8 124.7 257.9 122.4 C257 120.1 256.5 117.2 256.5 114 C256.4 109.7 257.5 105.9 258.9 103.6 C259.6 102.4 260.3 101.6 260.9 101.2 C261.4 100.8 261.7 100.8 262 100.8 C262.2 100.8 262.8 100.9 263.7 101.5 C265 102.3 266.7 104 267.8 106.3 C269 108.6 269.8 111.3 269.8 114.2 C269.8 118.1 268.4 121.6 266.6 124 C265.6 125.2 264.7 126 263.8 126.6 C262.9 127.1 262.3 127.2 262 127.2 L262 132.6 " id="Fill-22"/>
                        <path d="M253.6 103.5 C253.6 103.6 253.3 107 253.3 111.6 C253.2 115.1 253.4 119.1 254.2 123.1 C254.5 125.1 255 127.1 255.8 129 C256.5 130.9 257.6 132.8 259.2 134.4 C261.3 136.5 264.7 136.5 266.8 134.4 C268.9 132.3 268.9 128.9 266.8 126.7 C266.5 126.5 266.1 125.9 265.7 124.9 C265.1 123.5 264.6 121.2 264.4 118.8 C264.1 116.4 264 113.9 264 111.6 C264 109.6 264.1 107.8 264.1 106.5 C264.1 105.9 264.2 105.4 264.2 105.1 L264.2 104.7 L264.3 104.6 C264.5 101.6 262.4 99 259.5 98.7 C256.5 98.4 253.9 100.5 253.6 103.5 " id="Fill-23"/>
                        <path d="M291.4 150.8 L296.5 152.6 C297.4 150 297.4 147.4 296.9 144.9 C296 141.1 294.1 137.6 291.3 134.5 C288.5 131.4 284.8 128.8 280.3 127.2 C274.2 125.1 268.1 125.3 263 127 C260.4 127.8 258.1 129 256.1 130.6 C254.1 132.2 252.4 134.3 251.5 137 C250.5 139.6 250.7 142.4 251.4 144.8 C252.5 148.4 254.8 151.5 257.8 154.1 C260.8 156.7 264.5 158.8 268.7 160.2 L270.4 155.1 L267.9 159.9 C268 159.9 268.3 160.1 268.7 160.2 L270.4 155.1 L267.9 159.9 L270.4 155.1 L267.7 159.8 L267.9 159.9 L270.4 155.1 L267.7 159.8 L270.4 155.1 L267.7 159.8 L267.7 159.8 L270.4 155.1 L267.7 159.8 C267.8 159.8 268.1 160 268.8 160.3 C269.2 160.4 270 160.6 270.7 160.5 C271.8 160.5 272.8 160.1 273.4 159.7 C273.9 159.3 274.3 159 274.5 158.7 L270.4 155.1 L268.7 160.2 C274.3 162.2 280 162.7 284.9 161.7 C287.4 161.2 289.7 160.3 291.8 158.8 C293.8 157.3 295.7 155.2 296.5 152.6 L286.4 149.1 C286.3 149.3 286.2 149.6 285.6 150 C284.8 150.6 283 151.3 280.6 151.4 C278.1 151.5 275.2 151.1 272.2 150 C270.1 149.3 267.9 149.9 266.5 151.6 L270.4 155.1 L267.7 150.5 C267 150.9 266.7 151.3 266.5 151.6 L270.4 155.1 L267.7 150.5 L270.4 155.1 L270.1 149.8 C269.1 149.8 268.3 150.1 267.8 150.5 L270.4 155.1 L270.1 149.8 L270.4 155.1 L272 150 C271.4 149.8 270.8 149.7 270.1 149.8 L270.4 155.1 L272 150 L270.4 155.1 L273.1 150.5 C273.1 150.5 272.7 150.2 272 150 L270.4 155.1 L273.1 150.5 L273.1 150.4 C273 150.4 272.7 150.2 272.2 150 C268.2 148.7 265 146.4 263.2 144.3 C262.3 143.3 261.9 142.3 261.7 141.7 C261.4 141 261.5 140.7 261.6 140.5 C261.6 140.3 262 139.7 262.8 139 C263.9 138.1 266.1 137.1 268.7 136.7 C271.2 136.3 274 136.5 276.8 137.4 C280.4 138.7 283.2 141.1 284.9 143.6 C285.6 144.9 286.2 146.1 286.4 147.1 C286.6 148.1 286.5 148.8 286.4 149.1 L291.4 150.8 " id="Fill-24"/>
                        <path d="M261.4 149.3 C261.5 149.4 264.6 150.8 268.9 152.3 C272.1 153.4 276 154.6 280 155.2 C282 155.5 284 155.7 286.1 155.5 C288.1 155.4 290.2 155.1 292.2 154.1 C294.9 152.8 296 149.5 294.7 146.8 C293.4 144.2 290.2 143 287.5 144.4 C287.2 144.5 286.5 144.7 285.5 144.8 C283.9 144.9 281.7 144.6 279.3 144.1 C276.9 143.6 274.5 142.8 272.4 142.1 C270.5 141.4 268.9 140.8 267.7 140.3 C267.1 140.1 266.6 139.9 266.3 139.7 L266 139.6 L265.9 139.5 C263.2 138.3 260 139.5 258.8 142.2 C257.5 144.9 258.7 148.1 261.4 149.3 " id="Fill-25"/>
                        <path d="M311 116.9 L316.2 115.3 C315.4 112.7 313.8 110.6 312 108.9 C309.1 106.4 305.5 104.6 301.4 103.8 C297.3 103 292.8 103 288.2 104.4 C282.1 106.3 277.3 110.1 274.1 114.5 C272.5 116.7 271.3 119 270.6 121.5 C269.9 124 269.8 126.7 270.6 129.4 C271.4 132 273.1 134.2 275.1 135.7 C278.1 138.1 281.8 139.1 285.7 139.5 C289.6 139.8 293.9 139.3 298.1 138 L296.5 132.8 L297.2 138.2 C297.4 138.2 297.7 138.1 298.1 138 L296.5 132.8 L297.2 138.2 L296.5 132.8 L297.1 138.2 L297.2 138.2 L296.5 132.8 L297.1 138.2 L296.5 132.8 L297.1 138.2 L297.1 138.2 L296.5 132.8 L297.1 138.2 C297.1 138.2 297.5 138.2 298.2 138 C298.6 137.8 299.3 137.5 299.9 137.1 C300.7 136.4 301.3 135.5 301.5 134.9 C301.8 134.2 301.9 133.8 301.9 133.5 L296.5 132.8 L298.1 138 C303.8 136.2 308.7 133.3 312.1 129.6 C313.8 127.7 315.2 125.6 316 123.2 C316.8 120.8 317 118 316.2 115.3 L311 116.9 L305.9 118.5 C306 118.7 306 119 305.8 119.7 C305.5 120.7 304.5 122.3 302.6 123.8 C300.6 125.3 298.1 126.7 295 127.7 C292.9 128.3 291.5 130.1 291.2 132.2 L296.5 132.8 L291.7 130.6 C291.3 131.3 291.3 131.9 291.2 132.2 L296.5 132.8 L291.7 130.6 L296.5 132.8 L293.1 128.7 C292.4 129.3 292 130 291.7 130.6 L296.5 132.8 L293.1 128.7 L296.5 132.8 L294.8 127.8 C294.3 127.9 293.7 128.2 293.2 128.7 L296.5 132.8 L294.8 127.8 L296.5 132.8 L296 127.5 C296 127.5 295.5 127.5 294.8 127.8 L296.5 132.8 L296 127.5 L296 127.5 C295.9 127.5 295.6 127.5 295 127.7 C290.9 128.9 287 129 284.4 128.4 C283.1 128.1 282.1 127.6 281.6 127.2 C281 126.7 280.9 126.5 280.9 126.2 C280.8 126 280.7 125.4 281 124.4 C281.3 122.9 282.5 120.8 284.4 119 C286.1 117.2 288.6 115.6 291.3 114.8 C295 113.6 298.7 113.9 301.5 115 C302.9 115.5 304 116.3 304.8 116.9 C305.5 117.6 305.9 118.2 305.9 118.5 L311 116.9 " id="Fill-26"/>
                        <path d="M285.8 133.5 C286 133.5 289.3 132.8 293.7 131.5 C296.9 130.5 300.8 129.1 304.3 127.2 C306.1 126.3 307.9 125.2 309.4 123.9 C311 122.6 312.5 121.1 313.6 119.1 C314.9 116.4 314 113.2 311.3 111.8 C308.7 110.4 305.5 111.4 304.1 114 C303.9 114.3 303.5 114.9 302.7 115.5 C301.4 116.6 299.5 117.7 297.3 118.7 C295.1 119.6 292.7 120.5 290.5 121.1 C288.6 121.7 286.9 122.2 285.7 122.5 C285 122.6 284.6 122.7 284.2 122.8 L283.8 122.9 L283.7 122.9 C280.8 123.5 279 126.3 279.6 129.3 C280.1 132.2 283 134.1 285.9 133.5 " id="Fill-27"/>
                        <path d="M319.1 139.4 L324.3 137.8 C323.5 135.2 321.9 133.1 320.1 131.4 C317.2 128.8 313.6 127.1 309.5 126.2 C305.4 125.4 300.9 125.5 296.3 126.9 C290.2 128.8 285.4 132.6 282.2 136.9 C280.6 139.1 279.4 141.5 278.7 144 C278 146.5 277.9 149.1 278.7 151.8 C279.5 154.5 281.2 156.7 283.2 158.2 C286.2 160.5 289.9 161.6 293.8 161.9 C297.7 162.2 302 161.8 306.2 160.5 L304.7 155.3 L305.3 160.6 C305.5 160.6 305.8 160.6 306.2 160.5 L304.7 155.3 L305.3 160.6 L304.7 155.3 L305.2 160.7 L305.3 160.6 L304.7 155.3 L305.2 160.7 L304.7 155.3 L305.2 160.7 L305.2 160.7 L304.7 155.3 L305.2 160.7 C305.2 160.7 305.6 160.6 306.3 160.4 C306.8 160.3 307.4 160 308 159.5 C308.9 158.8 309.4 157.9 309.7 157.2 C309.9 156.6 310 156.1 310 155.8 L304.7 155.3 L302.3 160.1 C302.3 160.1 302.5 160.2 302.9 160.4 C303.1 160.5 303.5 160.6 304 160.7 C304.5 160.7 305.3 160.7 306.2 160.5 C311.9 158.7 316.8 155.8 320.2 152 C321.9 150.1 323.3 148 324.1 145.6 C324.9 143.2 325.1 140.4 324.3 137.8 L319.1 139.4 L314 141 C314.1 141.2 314.1 141.5 313.9 142.1 C313.6 143.1 312.6 144.7 310.7 146.2 C308.8 147.8 306.2 149.2 303.1 150.1 L304.7 155.3 L305.3 149.9 C304.8 149.9 304 149.8 303.1 150.1 L304.7 155.3 L305.3 149.9 L304.7 155.3 L306.7 150.3 C306.5 150.2 306.1 150 305.3 149.9 L304.7 155.3 L306.7 150.3 L304.7 155.3 L307 150.4 L306.7 150.3 L304.7 155.3 L307 150.4 C305.4 149.7 303.6 149.7 302.1 150.6 C300.5 151.4 299.5 153 299.3 154.8 L304.7 155.3 L299.8 153.1 C299.4 153.9 299.4 154.4 299.3 154.8 L304.7 155.3 L299.8 153.1 L304.7 155.3 L301.2 151.1 C300.5 151.8 300 152.5 299.8 153.1 L304.7 155.3 L301.2 151.1 L304.7 155.3 L302.9 150.2 C302.4 150.4 301.8 150.7 301.2 151.1 L304.7 155.3 L302.9 150.2 L304.7 155.3 L304.1 149.9 C304.1 149.9 303.6 149.9 302.9 150.2 L304.7 155.3 L304.1 149.9 L304.1 149.9 C304 149.9 303.7 150 303.1 150.1 C299 151.4 295.1 151.5 292.5 150.8 C291.2 150.5 290.2 150 289.7 149.6 C289.1 149.2 289 148.9 289 148.7 C288.9 148.5 288.8 147.8 289.1 146.8 C289.4 145.3 290.6 143.2 292.5 141.4 C294.2 139.6 296.7 138.1 299.4 137.2 C303.1 136.1 306.8 136.4 309.6 137.5 C311 138 312.1 138.7 312.9 139.4 C313.6 140.1 314 140.7 314 141 L319.1 139.4 " id="Fill-28"/>
                        <path d="M293.9 155.9 C294.1 155.9 297.4 155.3 301.8 153.9 C305 152.9 308.9 151.5 312.4 149.7 C314.2 148.7 316 147.7 317.5 146.4 C319.1 145.1 320.6 143.5 321.7 141.5 C323 138.9 322.1 135.6 319.5 134.2 C316.8 132.8 313.6 133.8 312.2 136.5 C312 136.7 311.6 137.3 310.8 138 C309.5 139 307.6 140.1 305.4 141.1 C303.2 142.1 300.8 142.9 298.6 143.6 C296.7 144.2 295 144.6 293.8 144.9 C293.1 145.1 292.7 145.2 292.4 145.3 L291.9 145.3 L291.8 145.4 C288.9 145.9 287.1 148.8 287.7 151.7 C288.2 154.6 291.1 156.5 294 155.9 " id="Fill-29"/>
                        <path d="M228 116.5 L224.4 112.4 C222.4 114.2 221.1 116.5 220.4 119 C219.2 122.6 219.1 126.6 220 130.7 C220.9 134.8 222.8 139 226 142.6 C230.1 147.4 235.5 150.3 240.8 151.5 C243.4 152.1 246.1 152.2 248.6 151.8 C251.1 151.4 253.6 150.5 255.8 148.7 C257.8 146.9 259.1 144.4 259.7 141.9 C260.5 138.2 260 134.4 258.8 130.7 C257.4 126.9 255.3 123.2 252.4 119.8 L248.3 123.4 L252.6 120.2 L252.3 119.8 L248.3 123.4 L252.6 120.2 L248.3 123.4 L252.6 120.2 L252.6 120.2 L248.3 123.4 L252.6 120.2 L252.6 120.2 C252.5 120 252 119.2 251 118.7 C249.9 118.1 248.7 117.9 248 118 L248.3 123.4 L253.5 122 C253.5 122 253.5 121.8 253.3 121.4 C253.2 121.1 252.9 120.5 252.4 119.8 C248.4 115.3 243.8 112.1 239.1 110.4 C236.6 109.6 234.2 109.2 231.6 109.4 C229.1 109.7 226.6 110.6 224.5 112.4 L228 116.5 L231.5 120.6 C231.7 120.4 232 120.3 232.6 120.2 C233.6 120.1 235.5 120.4 237.7 121.5 C239.8 122.7 242.2 124.5 244.3 126.9 L248.3 123.4 L243.3 125.3 C243.4 125.7 243.7 126.2 244.3 126.9 L248.3 123.4 L243.3 125.3 L248.3 123.4 L243.1 124.8 C243.1 124.8 243.2 124.9 243.3 125.3 L248.3 123.4 L243.1 124.8 C243.8 127.2 246.1 128.9 248.6 128.8 L248.3 123.4 L246.6 128.5 C247.4 128.7 248.1 128.8 248.6 128.8 L248.3 123.4 L246.6 128.5 L248.3 123.4 L244.2 126.8 C244.5 127.2 245.5 128.1 246.6 128.5 L248.3 123.4 L244.2 126.8 L248.3 123.4 L243.9 126.5 L244.2 126.8 L248.3 123.4 L243.9 126.5 L244.2 126.9 C247 130.1 248.7 133.7 249.2 136.4 C249.4 137.7 249.4 138.8 249.3 139.5 C249.1 140.1 248.9 140.3 248.7 140.5 C248.5 140.7 248 141 247 141.2 C245.4 141.4 243.1 141.2 240.7 140.2 C238.3 139.3 236 137.7 234.1 135.5 C231.5 132.6 230.3 129.1 230.1 126.1 C230 124.6 230.2 123.2 230.6 122.3 C230.8 121.3 231.3 120.8 231.5 120.6 L228 116.5 " id="Fill-30"/>
                        <path d="M253.2 132.9 C253.2 132.8 251.2 130 248.3 126.6 C246 124 243.2 121 240.1 118.5 C238.5 117.2 236.8 116.1 235 115.2 C233.2 114.2 231.2 113.5 228.9 113.3 C225.9 113.1 223.4 115.4 223.2 118.3 C223 121.3 225.2 123.9 228.2 124.1 C228.5 124.1 229.2 124.3 230.2 124.8 C231.5 125.5 233.4 126.9 235.2 128.5 C236.9 130.1 238.7 132 240.2 133.7 C241.5 135.2 242.6 136.6 243.4 137.6 C243.7 138.1 244 138.5 244.2 138.8 L244.4 139.1 L244.5 139.2 C246.2 141.6 249.6 142.2 252 140.5 C254.4 138.8 255 135.4 253.3 132.9 " id="Fill-31"/>
                        <path d="M250.9 153.9 L251.1 148.5 C247.9 148.4 245 149.5 242.5 151.2 C238.6 153.7 235.5 157.5 233.1 162.2 C230.7 166.9 229.1 172.6 228.9 178.8 C228.6 187 230.8 194.6 234.2 200.4 C235.9 203.3 238 205.8 240.4 207.7 C242.8 209.6 245.7 211 249 211.2 C252.2 211.3 255.3 210 257.6 208.2 C261.1 205.4 263.6 201.4 265.4 196.6 C267.1 191.9 268.2 186.4 268.5 180.5 C268.7 172.6 267.4 165.3 264.8 159.6 C263.4 156.7 261.8 154.1 259.5 152.1 C257.3 150.1 254.4 148.6 251.1 148.5 L250.9 153.9 L250.7 159.3 C251.1 159.3 251.5 159.4 252.4 160.2 C253.6 161.2 255.2 163.7 256.2 167.3 C257.3 170.8 257.9 175.3 257.7 180.1 C257.5 186.5 256 192.2 253.9 195.9 C252.9 197.7 251.9 199 251 199.6 C250.1 200.3 249.7 200.4 249.3 200.4 C249 200.4 248.2 200.2 247 199.2 C245.3 197.9 243.3 195.2 241.8 191.6 C240.3 188 239.5 183.7 239.6 179.1 C239.8 173.1 241.9 167.7 244.4 164.1 C245.7 162.3 247.1 161 248.3 160.2 C249.4 159.5 250.4 159.3 250.8 159.3 L250.9 153.9 " id="Fill-32"/>
                        <path d="M258.5 194.4 C258.5 194.3 259.1 189.6 259.3 183.4 C259.5 178.7 259.5 173.2 258.8 167.9 C258.5 165.2 258.1 162.6 257.3 160.2 C256.5 157.7 255.6 155.4 254 153.3 C252.1 151 248.8 150.6 246.5 152.4 C244.1 154.2 243.7 157.6 245.5 160 C245.9 160.5 246.6 161.7 247.1 163.3 C247.8 165.7 248.3 169.1 248.5 172.6 C248.7 176.1 248.7 179.8 248.6 183 C248.5 185.9 248.3 188.5 248.2 190.3 C248.1 191.2 248 191.9 248 192.4 L247.9 192.9 L247.9 193.1 C247.5 196.1 249.7 198.8 252.6 199.1 C255.5 199.5 258.2 197.3 258.5 194.4 " id="Fill-33"/>
                        <path d="M271.8 243.1 L270.2 237.9 C267.3 238.9 265.1 240.8 263.4 243.1 C260.9 246.5 259.4 250.8 258.8 255.6 C258.1 260.4 258.6 265.7 260.3 271.1 C262.6 278.3 266.8 284.1 271.6 288 C273.9 290 276.5 291.5 279.2 292.4 C281.9 293.3 284.9 293.6 287.8 292.6 C290.8 291.7 293.1 289.6 294.5 287.2 C296.7 283.6 297.6 279.4 297.7 274.8 C297.7 270.1 296.9 265.1 295.3 260 C293 253.1 289.7 247.3 285.7 243.2 C283.6 241.1 281.4 239.4 278.8 238.4 C276.2 237.3 273.1 237 270.2 237.9 L273.5 248.2 C273.6 248.2 273.9 248.1 274.8 248.4 C276 248.9 278.1 250.5 280 253.1 C281.9 255.7 283.8 259.2 285.1 263.3 C286.8 268.7 287.3 274 286.7 277.6 C286.4 279.4 285.9 280.7 285.4 281.5 C284.9 282.2 284.7 282.3 284.5 282.4 C284.4 282.4 283.7 282.5 282.6 282.1 C280.8 281.6 278.3 279.9 276 277.4 C273.7 274.9 271.7 271.6 270.5 267.8 C268.8 262.7 268.9 257.6 270 253.9 C270.5 252 271.3 250.5 272 249.6 C272.7 248.6 273.3 248.3 273.5 248.2 L271.8 243.1 " id="Fill-34"/>
                        <path d="M291.1 274.8 C291.1 274.7 290.2 270.6 288.5 265.3 C287.1 261.2 285.4 256.5 283.3 252.2 C282.2 250 281 248 279.6 246.1 C278.2 244.2 276.6 242.5 274.5 241.2 C272 239.6 268.7 240.4 267.1 242.9 C265.5 245.4 266.3 248.8 268.9 250.3 C269.3 250.6 270.1 251.4 271 252.6 C272.3 254.3 273.8 257 275 259.9 C276.2 262.7 277.4 265.8 278.3 268.6 C279 271.1 279.7 273.3 280.1 274.8 C280.3 275.6 280.5 276.2 280.6 276.7 L280.7 277.1 L280.7 277.3 C281.4 280.2 284.3 282 287.2 281.3 C290 280.6 291.9 277.7 291.2 274.8 " id="Fill-35"/>
                        <path d="M268.1 188.6 L267.1 183.3 C263.8 183.9 261.1 185.7 258.9 187.9 C255.5 191.3 253.1 196 251.6 201.4 C250.1 206.8 249.8 213 250.9 219.5 C252.4 228.1 256.3 235.5 261.1 240.8 C263.5 243.4 266.2 245.5 269.1 247 C272 248.4 275.2 249.2 278.6 248.6 C281.9 248 284.8 246.1 286.7 243.7 C289.7 240 291.4 235.3 292.3 230.1 C293.1 224.8 293 218.8 291.9 212.6 C290.4 204.3 287.5 197.1 283.5 191.7 C281.5 189 279.2 186.7 276.5 185.1 C273.8 183.6 270.5 182.7 267.2 183.3 L268.1 188.6 L269 193.9 C269.5 193.9 270.1 193.9 271.2 194.5 C272.7 195.4 275 197.7 276.9 201.3 C278.8 204.8 280.5 209.3 281.4 214.5 C282.5 221.3 282.2 227.7 280.9 232 C280.2 234.2 279.3 235.8 278.5 236.7 C277.7 237.7 277.2 237.9 276.7 238 C276.3 238.1 275.3 238 273.8 237.3 C271.7 236.2 268.9 233.8 266.5 230.3 C264.2 226.9 262.3 222.5 261.4 217.6 C260.3 211.2 261.3 205 263.2 200.6 C264.1 198.4 265.3 196.7 266.4 195.6 C267.5 194.4 268.5 194 269 193.9 L268.1 188.6 " id="Fill-36"/>
                        <path d="M284.6 229.3 C284.6 229.2 284.2 224.2 283 217.7 C282.1 212.8 280.9 207 279.1 201.6 C278.1 198.9 277.1 196.3 275.8 193.9 C274.5 191.6 273 189.4 270.9 187.6 C268.6 185.7 265.2 186 263.3 188.3 C261.4 190.6 261.7 194 264 195.9 C264.6 196.4 265.6 197.5 266.4 199.1 C267.7 201.6 269 205 270 208.6 C271 212.3 271.8 216.1 272.4 219.5 C273 222.6 273.4 225.3 273.6 227.2 C273.7 228.2 273.8 229 273.9 229.5 L273.9 230.1 L273.9 230.3 C274.2 233.3 276.8 235.4 279.8 235.2 C282.7 234.9 284.9 232.3 284.6 229.3 " id="Fill-37"/>
                        <path d="M287.8 218.1 L285.3 213.3 C282.4 214.9 280.3 217.4 278.8 220.2 C276.5 224.5 275.5 229.6 275.7 235.2 C275.9 240.8 277.3 246.9 280.3 252.7 C284.2 260.5 290.1 266.4 296.3 270.1 C299.3 271.9 302.5 273.1 305.7 273.6 C308.8 274.2 312.2 274 315.2 272.4 C318.2 270.9 320.4 268.2 321.6 265.3 C323.4 260.9 323.6 256 322.9 250.6 C322.1 245.3 320.4 239.7 317.5 234 C313.7 226.5 308.8 220.5 303.4 216.5 C300.7 214.5 297.9 213 294.8 212.3 C291.7 211.6 288.4 211.8 285.4 213.3 L290.2 222.9 C290.6 222.7 291.2 222.6 292.4 222.9 C294.2 223.2 297.1 224.8 299.9 227.6 C302.7 230.4 305.6 234.3 308 238.9 C311.1 245.1 312.6 251.3 312.6 255.9 C312.6 258.1 312.2 259.9 311.7 261.1 C311.2 262.2 310.8 262.6 310.4 262.8 C310 263 309 263.2 307.4 263 C305 262.6 301.6 261.1 298.4 258.5 C295.1 255.9 292.1 252.2 289.8 247.8 C286.8 242 286 235.8 286.6 231 C286.8 228.7 287.5 226.6 288.2 225.3 C288.9 223.9 289.8 223.2 290.2 222.9 L287.8 218.1 " id="Fill-38"/>
                        <path d="M315.4 252.2 C315.3 252.1 313.5 247.5 310.5 241.5 C308.2 237.1 305.4 231.9 302.1 227.3 C300.4 225 298.6 222.8 296.7 220.9 C294.8 219.1 292.7 217.4 290.2 216.3 C287.4 215.2 284.3 216.5 283.1 219.2 C282 222 283.3 225.1 286 226.3 C286.7 226.6 287.9 227.4 289.2 228.7 C291.2 230.6 293.4 233.5 295.4 236.7 C297.4 239.9 299.4 243.3 300.9 246.4 C302.3 249.2 303.5 251.7 304.3 253.5 C304.6 254.3 305 255.1 305.2 255.5 L305.4 256.1 L305.4 256.3 C306.6 259 309.7 260.4 312.5 259.2 C315.2 258.1 316.5 254.9 315.4 252.2 " id="Fill-39"/>
                        <path d="M272.5 160.1 L269.3 155.8 C266.8 157.7 265.2 160.4 264.3 163.2 C262.9 167.5 262.9 172.3 264 177.3 C265 182.3 267.2 187.5 270.8 192.3 C275.6 198.7 281.8 203 287.9 205.3 C290.9 206.5 294 207.1 297 207 C299.9 207 303 206.3 305.6 204.3 C308.1 202.4 309.7 199.6 310.3 196.7 C311.3 192.4 310.7 187.9 309.2 183.2 C307.7 178.6 305.2 173.8 301.8 169.2 C297.2 163.1 291.8 158.5 286.3 155.7 C283.6 154.4 280.8 153.5 277.9 153.3 C274.9 153.2 271.8 153.9 269.3 155.8 L272.5 160.1 L275.7 164.4 C275.9 164.3 276.3 164.1 277.3 164.1 C278.8 164.2 281.5 165.1 284.4 167.1 C287.3 169.1 290.4 172 293.2 175.7 C296.9 180.6 299.1 185.8 299.8 189.8 C300.1 191.7 300.1 193.3 299.9 194.3 C299.6 195.3 299.4 195.6 299.1 195.7 C298.9 195.9 298.2 196.2 296.9 196.2 C294.8 196.3 291.7 195.5 288.5 193.7 C285.2 192 282 189.3 279.4 185.8 C275.9 181.2 274.2 175.9 274 171.7 C273.8 169.6 274.1 167.8 274.5 166.6 C274.9 165.3 275.5 164.6 275.7 164.4 L272.5 160.1 " id="Fill-40"/>
                        <path d="M302.7 185.7 C302.6 185.6 300.3 181.8 296.7 177 C294 173.4 290.6 169.2 287 165.6 C285.1 163.8 283.2 162.2 281.2 160.8 C279.1 159.4 277 158.2 274.5 157.6 C271.6 157 268.7 158.8 268 161.7 C267.4 164.6 269.2 167.5 272.1 168.2 C272.7 168.3 273.8 168.8 275.1 169.7 C277.1 171.1 279.5 173.3 281.8 175.7 C284 178.2 286.3 181 288.1 183.5 C289.8 185.7 291.2 187.7 292.2 189.1 C292.6 189.9 293 190.4 293.3 190.8 L293.5 191.3 L293.6 191.4 C295.2 194 298.5 194.7 301 193.1 C303.5 191.5 304.3 188.2 302.7 185.7 " id="Fill-41"/>
                        <path d="M242.7 202.9 L243.6 197.6 C240.7 197.2 238 197.8 235.7 199 C232.1 200.8 229.1 203.7 226.6 207.4 C224.1 211.1 222.2 215.7 221.4 220.9 C220.3 227.8 221.3 234.4 223.6 239.7 C224.7 242.3 226.2 244.7 228.1 246.6 C229.9 248.5 232.3 250.1 235.3 250.6 C238.2 251 241 250.2 243.3 248.8 C246.6 246.8 249.1 243.6 251.1 239.8 C253.1 236 254.5 231.5 255.3 226.6 C256.3 220 256 213.8 254.4 208.7 C253.5 206.1 252.4 203.7 250.7 201.7 C248.9 199.7 246.5 198.1 243.6 197.6 L241.9 208.3 C241.9 208.3 242.1 208.2 242.6 208.8 C243.3 209.6 244.3 211.7 244.8 214.6 C245.3 217.5 245.3 221.1 244.7 224.9 C243.9 230 242.1 234.4 240.2 237.1 C239.3 238.4 238.3 239.2 237.7 239.6 C237.1 240 237 239.9 237 239.9 L236.6 239.8 C236.2 239.5 235.6 239 234.9 238 C233.8 236.5 232.8 234.2 232.2 231.5 C231.6 228.8 231.5 225.7 232 222.6 C232.7 217.8 234.8 213.8 237.2 211.3 C238.3 210 239.5 209.1 240.4 208.7 C241.3 208.2 241.9 208.2 241.9 208.3 L242.7 202.9 " id="Fill-42"/>
                        <path d="M246 238.1 C246.1 238 247.1 233.9 248 228.4 C248.6 224.2 249.2 219.2 249.2 214.4 C249.2 212 249.1 209.6 248.7 207.3 C248.3 205 247.7 202.7 246.4 200.6 C244.8 198 241.6 197.2 239 198.7 C236.5 200.3 235.7 203.6 237.2 206.2 C237.5 206.6 237.9 207.7 238.1 209.1 C238.5 211.3 238.6 214.3 238.4 217.4 C238.2 220.6 237.8 223.8 237.4 226.7 C237 229.2 236.5 231.5 236.2 233.1 C236 233.9 235.9 234.5 235.8 234.9 L235.7 235.4 L235.6 235.6 C234.9 238.5 236.7 241.4 239.6 242.1 C242.4 242.8 245.4 241 246.1 238.1 " id="Fill-43"/>
                        <path d="M248.1 90 L249.1 95.3 C251.5 94.8 253.5 93.7 255.1 92.2 C257.5 90 259.3 87.1 260.3 83.7 C261.3 80.3 261.7 76.5 260.9 72.5 C259.9 67.2 257.2 62.9 253.9 59.8 C252.1 58.3 250.3 57 248.2 56.2 C246.2 55.4 243.9 55 241.4 55.5 C239 56 237 57.3 235.5 58.9 C233.2 61.3 232 64.4 231.4 67.6 C230.7 70.9 230.8 74.4 231.5 78.1 C232.4 83 234.4 87.2 237.2 90.5 C238.6 92.1 240.3 93.5 242.3 94.4 C244.3 95.4 246.7 95.8 249.1 95.3 L247.1 84.7 L247.1 84.7 L247.1 84.7 L247.1 84.7 L247.1 84.7 L247.1 84.7 C247 84.7 246.8 84.6 246.3 84.3 C245.7 83.9 244.7 82.9 243.9 81.5 C243.1 80 242.4 78.1 242 76 C241.3 72.9 241.6 69.9 242.3 68.1 C242.6 67.1 243 66.5 243.3 66.3 L243.5 66.1 L243.5 66.1 L243.5 66.1 L243.5 66.1 L243.5 66.1 L243.5 66.1 L243.4 66 L243.5 66.1 L243.5 66.1 L243.4 66 L243.5 66.1 C243.5 66.1 243.9 66.1 244.5 66.4 C245.5 66.8 246.9 67.8 248 69.3 C249.1 70.7 250 72.6 250.4 74.6 C250.9 77.4 250.4 80.1 249.5 82 C248.9 83 248.4 83.7 247.9 84.2 C247.4 84.6 247.1 84.7 247.1 84.7 L248.1 90 " id="Fill-44"/>
                        <path d="M236 68.5 C236 68.7 236.3 71.4 237 75.1 C237.5 77.8 238.3 81 239.5 84.2 C240.1 85.7 240.9 87.3 241.8 88.7 C242.7 90.2 243.9 91.6 245.6 92.7 C248 94.4 251.4 93.7 253 91.3 C254.7 88.8 254 85.4 251.6 83.8 C251.5 83.8 251.2 83.5 250.8 82.8 C250.1 81.9 249.5 80.3 248.9 78.5 C248.3 76.7 247.9 74.8 247.5 73 C247.2 71.5 247 70.1 246.9 69.1 C246.8 68.6 246.8 68.2 246.8 67.9 L246.7 67.6 L246.7 67.5 C246.4 64.6 243.8 62.4 240.9 62.7 C237.9 62.9 235.8 65.6 236.1 68.5 " id="Fill-45"/>
                        <path d="M228.7 246.2 C228.7 246.3 228.7 247.3 228.7 248.8 C228.7 251.1 228.8 254.7 229.7 258.6 C230.5 262.5 232 266.8 235.1 270.6 C236.5 272.3 238.4 273.5 240.2 274.2 C242.1 274.9 244 275.2 245.7 275.2 C250.2 275.1 254.2 273.7 257.2 272.3 C260.1 271 262.2 269.6 262.4 269.5 C264.8 267.9 265.6 264.6 264 262.1 C262.3 259.6 259 258.9 256.6 260.5 L257.3 261.6 L256.5 260.5 L256.5 260.5 L257.3 261.6 L256.5 260.5 C256.5 260.5 254.8 261.6 252.6 262.6 C250.3 263.6 247.5 264.4 245.7 264.4 C245 264.4 244.4 264.3 244.1 264.1 C243.7 264 243.5 263.8 243.3 263.5 C241.8 261.9 240.7 259.2 240.2 256.3 C239.5 253.5 239.4 250.6 239.4 248.8 C239.4 248.2 239.4 247.8 239.4 247.5 L239.4 247.1 L239.4 247.1 L238.8 247 L239.4 247.1 L239.4 247.1 L238.8 247 L239.4 247.1 C239.7 244.1 237.5 241.5 234.5 241.3 C231.6 241 229 243.3 228.8 246.2 " id="Fill-46"/>
                    </g>
                </g>
            </g>
        </g>
    </g>
</svg>
