<?xml version="1.0" encoding="UTF-8" standalone="no"?>
<svg width="263px" height="272px" viewBox="0 0 263 272" version="1.1" xmlns="http://www.w3.org/2000/svg" xmlns:xlink="http://www.w3.org/1999/xlink" xmlns:sketch="http://www.bohemiancoding.com/sketch/ns">
    <!-- Generator: Sketch 3.2.2 (9983) - http://www.bohemiancoding.com/sketch -->
    <title>coco</title>
    <desc>Created with Sketch.</desc>
    <defs></defs>
    <g id="Blank-Project" stroke="none" stroke-width="1" fill="none" fill-rule="evenodd" sketch:type="MSPage">
        <g id="Pagina-Producto-16" sketch:type="MSArtboardGroup" transform="translate(-447.000000, -229.000000)">
            <g id="coco" sketch:type="MSLayerGroup" transform="translate(449.000000, 231.000000)">
                <g transform="translate(0.000000, 0.162348)" sketch:type="MSShapeGroup">
                    <path d="M223.804875,231.727756 C223.804875,231.727756 253.193905,199.243274 257.391852,185.869297 C261.589798,172.495321 258.440487,95.1079059 237.44735,69.312101 C216.457617,43.5162962 157.68296,3.39098922 128.297334,0.524413518 C98.9083038,-2.34216218 74.7692599,4.34651445 18.0952789,76.9563029 C18.0952789,76.9563029 4.44939911,103.704257 1.30008802,138.099789 C-1.84922307,172.495321 0.251452543,203.065375 12.8452922,222.172503 C25.4391319,241.283008 47.4809049,256.568035 78.9672065,265.167762 C110.453508,273.764113 171.32884,259.434611 223.804875,231.727756 L223.804875,231.727756 Z" id="Stroke-6" stroke="#814D23" stroke-width="3.48" fill="#814D23"></path>
                    <path d="M106.976672,11.7391304 C106.976672,11.7391304 159.748629,18.417672 170.30439,35.5862459 C180.860151,52.7581928 191.412488,109.99127 175.580558,143.377232 C159.748629,176.766566 147.08377,186.305412 139.69508,200.613682 C132.30639,214.921951 120.69608,234.954202 95.3663626,239.723626 C70.0366452,244.493049 38.3727865,242.58393 22.5408571,218.736815 C6.70892772,194.889699 1.42933535,172.948329 2.48388428,159.594619 C3.54185707,146.240909 1.42933535,112.854948 14.0941941,109.036711 C26.7624767,105.221847 20.4283354,86.1441544 27.8170256,70.881326 C35.2057158,55.6184975 46.8160256,35.5862459 64.7570528,28.9110774 C82.7015039,22.2325358 84.8106018,14.5994351 106.976672,11.7391304 L106.976672,11.7391304 Z" id="Stroke-4" fill="#966B47"></path>
                </g>
            </g>
        </g>
    </g>
</svg>