<?xml version="1.0" encoding="UTF-8" standalone="no"?>
<svg xmlns:sketch="http://www.bohemiancoding.com/sketch/ns" xmlns="http://www.w3.org/2000/svg" height="415px" width="425px" version="1.1" xmlns:xlink="http://www.w3.org/1999/xlink" viewBox="0 0 425 415"><!-- Generator: Sketch 3.2.2 (9983) - http://www.bohemiancoding.com/sketch -->
 <title>bg_cacaocriollo</title>
 <desc>Created with Sketch.</desc>
 <g id="Blank-Project" fill-rule="evenodd" sketch:type="MSPage" fill="none">
  <g id="Pagina-Producto-25" stroke-linejoin="round" transform="translate(-419 -116)" sketch:type="MSArtboardGroup" stroke="#3C1C1C" stroke-linecap="round" stroke-width="17.697">
   <g id="bg_camucamu" transform="translate(0 62)" sketch:type="MSLayerGroup">
    <g id="bg_cacaocriollo" sketch:type="MSShapeGroup" transform="translate(427.82 63)">
     <path id="Stroke-186" d="m406.56 113.7s-67.1-19.176-143.79-54.328c-76.69-35.149-234.87-59.116-234.87-59.116"/>
     <path id="Stroke-188" d="m212.25 7.9485s-119.83-28.758-190.13 115.04c-70.301 143.79 51.124 244.13 47.929 273.85 0 0 8.311-51.77 26.525-62.95 18.216-11.19 37.386-46.34 37.386-46.34s-76.692-158.17 44.74-239.66c121.43-81.484 35.15-23.965 35.15-23.965"/>
     <path id="Stroke-190" d="m102.53 317.09s-12.78-22.36-20.77-30.35l-7.986-7.99s-30.358 22.37-33.553 36.75-20.772-35.15 19.172-55.92c39.943-20.78 63.907 25.56 63.907 25.56s-3.19-55.92-28.759-60.71c-25.562-4.8-68.701 27.16-71.896 41.54-3.196 14.38-1.6 14.38-1.6 14.38s-22.367-28.76-6.391-49.53c15.977-20.77 59.12-46.34 76.692-43.14 17.574 3.19 17.574 7.99 17.574 7.99s7.03-25.57-6.39-30.36c-13.421-4.79-74.774 12.78-85.318 33.55s-15.339 31-15.339 31c0.0002 0-11.185-48.57 23.967-74.14 35.148-25.56 81.8-31.95 87.24-31.95 5.43 0 23-41.544 23-41.544s-28.75-7.986-60.711 6.39c-31.953 14.384-51.129 41.544-59.115 54.324l-7.9902 12.78s35.152-87.871 83.082-100.66c47.934-12.778 100.65-19.168 100.65-19.168s-78.28 33.553-102.25 172.56c-23.967 139-20.771 169.36-20.771 169.36"/>
     <path id="Stroke-192" d="m228.24 29.64s15.97 1.599 30.35 47.933c14.38 46.337 22.37 170.96 15.98 204.52-6.39 33.55-33.55 68.7-41.54 76.69-7.99 7.98-9.59 7.98-9.59 7.98s64.55-31.95 84.68-110.24-1.59-183.74-67.1-236.47c0 0.004 92.67 62.314 75.09 220.49-3.83 93.31-99.06 134.21-99.06 134.21s-52.72-15.97-78.29-79.88"/>
    </g>
   </g>
  </g>
 </g>
</svg>
