<?xml version="1.0" encoding="UTF-8" standalone="no"?>
<svg width="591px" height="426px" viewBox="0 0 591 426" version="1.1" xmlns="http://www.w3.org/2000/svg" xmlns:xlink="http://www.w3.org/1999/xlink" xmlns:sketch="http://www.bohemiancoding.com/sketch/ns">
    <!-- Generator: Sketch 3.2.2 (9983) - http://www.bohemiancoding.com/sketch -->
    <title>bg_camucao</title>
    <desc>Created with Sketch.</desc>
    <defs>
        <path id="path-1" d="M499.44493,170.460032 C484.94093,52.958624 395.266698,-9.676608 302.346791,1.673952 C293.126047,2.800448 284.163442,2.146464 275.424558,1.49248 C258.631721,0.235872 242.671814,-1.020736 227.328,10.36064 C200.48493,-0.811872 179.365674,16.69504 152.422791,19.988928 C59.5063256,31.336064 -12.2736744,113.690112 2.23032558,231.19152 C16.7308837,348.692928 82.1468837,437.2136 190.035442,424.038048 C200.433302,422.767744 211.605581,423.069056 222.526605,423.373792 C244.461581,423.97984 265.377767,424.589312 276.956186,412.454656 C298.206233,425.917824 332.831349,406.596192 364.114419,402.775008 C471.999535,389.596032 513.945488,287.96144 499.44493,170.460032"></path>
    </defs>
    <g id="Blank-Project" stroke="none" stroke-width="1" fill="none" fill-rule="evenodd" sketch:type="MSPage">
        <g id="Producto-SuperShake-8" sketch:type="MSArtboardGroup" transform="translate(-324.000000, -120.000000)">
            <g id="macuchino-3" sketch:type="MSLayerGroup" transform="translate(301.000000, 98.000000)">
                <g id="bg_camucao" transform="translate(23.000000, 22.000000)">
                    <path d="M499.44493,170.460032 C484.94093,52.958624 395.266698,-9.676608 302.346791,1.673952 C293.126047,2.800448 284.163442,2.146464 275.424558,1.49248 C258.631721,0.235872 242.671814,-1.020736 227.328,10.36064 C200.48493,-0.811872 179.365674,16.69504 152.422791,19.988928 C59.5063256,31.336064 -12.2736744,113.690112 2.23032558,231.19152 C16.7308837,348.692928 82.1468837,437.2136 190.035442,424.038048 C200.433302,422.767744 211.605581,423.069056 222.526605,423.373792 C244.461581,423.97984 265.377767,424.589312 276.956186,412.454656 C298.206233,425.917824 332.831349,406.596192 364.114419,402.775008 C471.999535,389.596032 513.945488,287.96144 499.44493,170.460032" id="Fill-1" fill="#8B3716" sketch:type="MSShapeGroup"></path>
                    <g id="Group-4">
                        <mask id="mask-2" sketch:name="Clip 3" fill="white">
                            <use xlink:href="#path-1"></use>
                        </mask>
                        <g id="Clip-3"></g>
                        <path d="M138.428186,271.550208 C135.044837,271.550208 131.68214,271.447488 128.336651,271.231776 C73.8003721,267.732448 37.8329302,255.3992 5.13525581,250.591904 C4.00632558,244.223264 3.03916279,237.755328 2.23032558,231.19152 C0.970604651,220.981152 0.361395349,211.034432 0.361395349,201.375328 C0.364837209,99.911936 67.5843721,30.349952 152.422791,19.988928 C172.991349,17.475712 190.162791,6.67984 209.079256,6.67984 C214.944186,6.67984 220.977767,7.717312 227.328,10.36064 C237.832558,2.567616 248.626233,0.701536 259.781302,0.701536 C264.916558,0.701536 270.130977,1.09872 275.424558,1.49248 C280.721581,1.889664 286.101209,2.286848 291.570326,2.286848 C295.122326,2.286848 298.715628,2.119072 302.346791,1.673952 C309.550605,0.793984 316.723442,0.359136 323.854977,0.359136 C408.707163,0.359136 486.066419,62.066464 499.44493,170.460032 C501.286326,185.374976 502.215628,200.036544 502.21907,214.29408 C502.21907,221.600896 501.97814,228.798144 501.485953,235.872128 C489.456651,238.292896 478.731814,241.08688 470.905023,244.274624 C458.201116,249.451712 445.153023,251.468448 432.16,251.468448 C409.140837,251.468448 386.276558,245.140896 365.74586,238.80992 C345.215163,232.482368 327.011163,226.151392 313.322884,226.151392 C310.937674,226.151392 308.69014,226.343136 306.587163,226.760864 C275.197395,233.00624 204.002512,271.546784 138.428186,271.550208" id="Fill-2" fill="#9C5631" sketch:type="MSShapeGroup" mask="url(#mask-2)"></path>
                    </g>
                    <path d="M363.58093,283.506816 L484.159628,101.134304 L562.716651,161.044032 L591.05693,124.266848 L492.630047,49.20592 L459.00307,54.858944 L324.663814,258.042528 L363.58093,283.506816" id="Fill-5" fill="#8B3716" sketch:type="MSShapeGroup"></path>
                </g>
            </g>
        </g>
    </g>
</svg>