<?xml version="1.0" encoding="UTF-8" standalone="no"?>
<svg width="440px" height="344px" viewBox="0 0 440 344" version="1.1" xmlns="http://www.w3.org/2000/svg" xmlns:xlink="http://www.w3.org/1999/xlink" xmlns:sketch="http://www.bohemiancoding.com/sketch/ns">
    <!-- Generator: Sketch 3.2.2 (9983) - http://www.bohemiancoding.com/sketch -->
    <title>camucamu</title>
    <desc>Created with Sketch.</desc>
    <defs>
        <rect id="path-1" x="0" y="0" width="554" height="345"></rect>
    </defs>
    <g id="Blank-Project" stroke="none" stroke-width="1" fill="none" fill-rule="evenodd" sketch:type="MSPage">
        <g id="Pagina-Producto-21" sketch:type="MSArtboardGroup" transform="translate(-391.000000, -202.000000)">
            <g id="bg_camucamu" sketch:type="MSLayerGroup" transform="translate(0.000000, 62.000000)">
                <g id="camucamu" transform="translate(304.000000, 139.000000)">
                    <mask id="mask-2" sketch:name="Mask" fill="white">
                        <use xlink:href="#path-1"></use>
                    </mask>
                    <use id="Mask" sketch:type="MSShapeGroup" xlink:href="#path-1"></use>
                    <path d="M288.442196,287.836006 C306.430668,295.27948 327.051775,286.744344 334.502493,268.776965 C341.956818,250.805984 333.413375,230.201324 315.424904,222.75785 C297.436432,215.314376 276.815325,223.849511 269.361001,241.820493 C261.910283,259.791475 270.453725,280.392532 288.442196,287.836006" id="Fill-4" fill="#65333C" sketch:type="MSShapeGroup" mask="url(#mask-2)"></path>
                    <path d="M288.442196,287.836006 C306.430668,295.27948 327.051775,286.744344 334.502493,268.776965 C341.956818,250.805984 333.413375,230.201324 315.424904,222.75785 C297.436432,215.314376 276.815325,223.849511 269.361001,241.820493 C261.910283,259.791475 270.453725,280.392532 288.442196,287.836006 L288.442196,287.836006 Z" id="Stroke-6" sketch:type="MSShapeGroup" mask="url(#mask-2)"></path>
                    <path d="M31.2225593,428.91866 C23.5626729,416.668993 142.042075,293.242792 142.042075,293.242792 C142.042075,293.242792 176.32764,248.650403 279.761352,202.519599 C383.198671,156.388795 523.024056,35.0486409 523.024056,35.0486409" id="Stroke-8" stroke="#65333C" stroke-width="10" sketch:type="MSShapeGroup" mask="url(#mask-2)"></path>
                    <path d="M457.072578,161.647145 C475.061049,169.090619 495.682156,160.555483 503.132874,142.588105 C510.587199,124.617123 502.043757,104.012463 484.055285,96.5689891 C466.066813,89.1255152 445.445707,97.6606506 437.994988,115.631632 C430.540664,133.602614 439.084106,154.203671 457.072578,161.647145" id="Fill-10" fill="#65333C" sketch:type="MSShapeGroup" mask="url(#mask-2)"></path>
                    <path d="M457.072578,161.647145 C475.061049,169.090619 495.682156,160.555483 503.132874,142.588105 C510.587199,124.617123 502.043757,104.012463 484.055285,96.5689891 C466.066813,89.1255152 445.445707,97.6606506 437.994988,115.631632 C430.540664,133.602614 439.084106,154.203671 457.072578,161.647145 L457.072578,161.647145 Z" id="Stroke-12" sketch:type="MSShapeGroup" mask="url(#mask-2)"></path>
                    <path d="M368.137834,204.023426 C386.126305,211.4669 406.747412,202.931764 414.19813,184.964385 C421.652455,166.993404 413.109013,146.388744 395.120541,138.94527 C377.132069,131.501796 356.510963,140.036931 349.056638,158.007913 C341.60592,175.978895 350.149362,196.579952 368.137834,204.023426" id="Fill-14" fill="#65333C" sketch:type="MSShapeGroup" mask="url(#mask-2)"></path>
                    <path d="M368.137834,204.023426 C386.126305,211.4669 406.747412,202.931764 414.19813,184.964385 C421.652455,166.993404 413.109013,146.388744 395.120541,138.94527 C377.132069,131.501796 356.510963,140.036931 349.056638,158.007913 C341.60592,175.978895 350.149362,196.579952 368.137834,204.023426 L368.137834,204.023426 Z" id="Stroke-16" sketch:type="MSShapeGroup" mask="url(#mask-2)"></path>
                    <path d="M272.167101,210.712464 C290.155573,218.155938 310.77668,209.620803 318.227398,191.653424 C325.681723,173.682442 317.138281,153.077782 299.149809,145.634309 C281.161337,138.190835 260.54023,146.72597 253.089512,164.696952 C245.635188,182.667933 254.17863,203.26899 272.167101,210.712464" id="Fill-18" fill="#65333C" sketch:type="MSShapeGroup" mask="url(#mask-2)"></path>
                    <path d="M272.167101,210.712464 C290.155573,218.155938 310.77668,209.620803 318.227398,191.653424 C325.681723,173.682442 317.138281,153.077782 299.149809,145.634309 C281.161337,138.190835 260.54023,146.72597 253.089512,164.696952 C245.635188,182.667933 254.17863,203.26899 272.167101,210.712464 L272.167101,210.712464 Z" id="Stroke-20" sketch:type="MSShapeGroup" mask="url(#mask-2)"></path>
                    <path d="M162.208782,266.582113 C180.197254,274.025587 200.81836,265.490452 208.269079,247.523073 C215.723403,229.552091 207.179961,208.947431 189.191489,201.503958 C171.203018,194.060484 150.581911,202.595619 143.131193,220.566601 C135.676868,238.537582 144.22031,259.138639 162.208782,266.582113" id="Fill-22" fill="#65333C" sketch:type="MSShapeGroup" mask="url(#mask-2)"></path>
                    <path d="M162.208782,266.582113 C180.197254,274.025587 200.81836,265.490452 208.269079,247.523073 C215.723403,229.552091 207.179961,208.947431 189.191489,201.503958 C171.203018,194.060484 150.581911,202.595619 143.131193,220.566601 C135.676868,238.537582 144.22031,259.138639 162.208782,266.582113 L162.208782,266.582113 Z" id="Stroke-24" sketch:type="MSShapeGroup" mask="url(#mask-2)"></path>
                    <path d="M409.382211,72.1445948 C391.299974,59.5886864 295.832689,18.7036224 295.832689,18.7036224 L264.266311,0.941605668 C264.266311,0.941605668 268.247721,29.1122362 282.344941,40.7494196 C296.442162,52.386603 387.383479,158.259752 420.796307,113.559277 C420.796307,113.559277 427.464448,84.7005032 409.382211,72.1445948 Z" id="Stroke-26" fill="#65333C" sketch:type="MSShapeGroup" mask="url(#mask-2)"></path>
                </g>
            </g>
        </g>
    </g>
</svg>