<?xml version="1.0" encoding="UTF-8" standalone="no"?>
<svg width="431px" height="328px" viewBox="0 0 431 328" version="1.1" xmlns="http://www.w3.org/2000/svg" xmlns:xlink="http://www.w3.org/1999/xlink" xmlns:sketch="http://www.bohemiancoding.com/sketch/ns">
    <!-- Generator: Sketch 3.2.2 (9983) - http://www.bohemiancoding.com/sketch -->
    <title>Stroke 181</title>
    <desc>Created with Sketch.</desc>
    <defs>
        <rect id="path-1" x="0" y="0" width="554" height="345"></rect>
    </defs>
    <g id="Blank-Project" stroke="none" stroke-width="1" fill="none" fill-rule="evenodd" sketch:type="MSPage">
        <g id="Pagina-Producto-19" sketch:type="MSArtboardGroup" transform="translate(-328.000000, -218.000000)">
            <g id="Stroke-181" sketch:type="MSLayerGroup" transform="translate(304.000000, 201.000000)">
                <mask id="mask-2" sketch:name="Mask" fill="white">
                    <use xlink:href="#path-1"></use>
                </mask>
                <use id="Mask" sketch:type="MSShapeGroup" xlink:href="#path-1"></use>
                <g id="Group" mask="url(#mask-2)" fill="#23904D" sketch:type="MSShapeGroup">
                    <g transform="translate(23.370898, 17.528081)">
                        <path d="M278.604207,166.900287 L278.361165,172.292389 C278.432648,172.295989 279.569224,172.346382 281.549298,172.346382 C286.992713,172.346382 298.815968,171.972031 312.526369,169.131998 C326.226047,166.273968 341.88078,160.986251 354.862056,150.738377 C369.748349,138.942702 381.889702,123.255931 390.446193,110.481183 C398.984813,97.7064349 403.892107,87.8329118 403.96359,87.6889304 C405.193094,85.2088512 404.371042,82.2068394 402.051425,80.7202316 C399.731809,79.2300244 396.679493,79.7447578 394.971054,81.9152771 L394.917442,81.9800687 C394.249078,82.8223598 387.368859,91.2704672 377.118225,99.8373593 C366.885463,108.443846 353.257267,116.985542 339.721999,118.691721 C323.513275,120.801048 309.088046,125.001705 297.572167,130.523391 C291.814228,133.287833 286.781839,136.387033 282.603669,139.795792 C278.436222,143.20815 275.094401,146.930069 272.871286,151.076733 C270.490909,155.572551 269.350758,159.074899 269.322165,162.433264 C269.318591,164.053055 269.63669,165.651248 270.30148,167.044268 C270.955547,168.444487 271.945584,169.574741 272.949917,170.341441 C274.318813,171.385306 275.644819,171.828049 276.627707,172.058419 C277.617744,172.281591 278.314701,172.295989 278.604207,172.299588 L278.604207,166.900287 L278.361165,172.292389 L278.604207,166.900287 L278.604207,161.500985 L278.604207,163.322349 L279.011659,161.529781 L278.604207,161.500985 L278.604207,163.322349 L279.011659,161.529781 L278.743598,162.706829 L279.462,161.763751 L279.011659,161.529781 L278.743598,162.706829 L279.462,161.763751 L278.411203,163.145972 L279.976676,162.393669 L279.462,161.760151 L278.411203,163.145972 L279.976676,162.393669 L279.143902,162.793218 L280.051733,162.602442 L279.976676,162.393669 L279.143902,162.793218 L280.051733,162.602442 L280.044585,162.433264 C280.012418,161.886135 280.37698,159.769609 282.31059,156.195271 C283.633022,153.707993 285.991954,150.925552 289.358794,148.182707 C294.394757,144.06124 301.635964,140.051359 310.460516,136.768583 C319.285067,133.475009 329.689389,130.879745 341.090895,129.400336 C358.525549,127.075037 373.837165,116.747972 385.031371,107.248801 C396.204132,97.7100345 403.223743,88.8083856 403.366709,88.6320085 L399.167094,85.2736428 L394.374173,82.8583551 L394.331283,82.9411444 C393.827329,83.9454145 388.902165,93.6029656 380.77457,105.603814 C372.661273,117.601062 361.299082,131.927209 348.239175,142.247075 C337.216527,150.993944 323.066507,155.932505 310.36044,158.556566 C297.668669,161.191425 286.492334,161.551378 281.549298,161.547779 C280.648615,161.547779 279.955232,161.53698 279.497742,161.526182 L278.98664,161.511783 L278.847248,161.504584 L278.604207,161.500985 L278.604207,166.900287" id="Fill-2"></path>
                        <path d="M267.460038,83.2327067 L263.342629,86.6882598 C263.624986,87.0230165 264.954566,88.5708164 267.492206,90.1114171 C270.015548,91.6448188 273.818433,93.1350261 278.625652,93.127827 C280.223292,93.127827 281.924583,92.965848 283.708079,92.6094941 C289.308756,91.4756407 294.376886,89.5750865 298.547907,88.0524834 C300.624483,87.2893821 302.479461,86.6198687 303.969878,86.1807255 C305.453146,85.7307837 306.593296,85.5544065 306.972155,85.5688046 C307.175881,85.5472074 308.494739,85.7307837 310.103102,86.130332 C312.565684,86.709857 315.875338,87.6709327 319.410162,88.5024252 C322.962857,89.3303181 326.737149,90.0574241 330.525737,90.0682227 C332.212731,90.0646232 333.914022,89.9206418 335.626035,89.4922972 C343.81439,87.4297639 358.997336,83.3514914 359.011632,83.3478918 C361.327675,82.7251724 362.953909,80.6266437 362.98965,78.2149556 C363.028966,75.799668 361.467067,73.6507459 359.168895,72.9596353 C359.16532,72.9560357 357.288897,72.3909088 354.311638,71.469428 C349.843964,70.0908063 342.924429,67.920287 336.301547,65.7281705 C332.991894,64.6303124 329.753723,63.5288549 326.951597,62.5209852 C324.15662,61.5167151 321.769095,60.5952343 320.296549,59.9329199 C317.830392,58.8386614 315.028267,58.1223541 311.879449,57.6148197 C308.73778,57.1144844 305.270865,56.8553179 301.63239,56.8553179 C296.174679,56.8553179 290.345256,57.4384425 284.751727,58.795467 C279.165347,60.1632901 273.78984,62.2798164 269.307869,65.6489807 C266.18407,68.0174744 263.978826,70.2131904 262.434798,72.4736981 C260.901492,74.7126086 260.03655,77.1494934 260.043698,79.5215867 C260.029402,82.3112259 261.244609,84.5465368 262.34187,85.8135729 C263.449853,87.120204 264.450613,87.7069281 264.800878,87.9193006 L267.460038,83.2327067 L263.342629,86.6882598 L267.460038,83.2327067 L270.119199,78.5425133 L269.422241,79.7771536 L270.523076,78.8340756 C270.440871,78.7548858 270.473038,78.7548858 270.119199,78.5425133 L269.422241,79.7771536 L270.523076,78.8340756 L269.718895,79.5215867 L270.766118,79.5215867 L270.523076,78.8340756 L269.718895,79.5215867 L270.766118,79.5215867 L270.36224,79.5215867 L270.762544,79.5935773 L270.766118,79.5215867 L270.36224,79.5215867 L270.762544,79.5935773 C270.75897,79.5899778 270.841175,79.1364365 271.552429,78.2005575 C272.256534,77.2718776 273.571818,75.9256517 275.741321,74.2878635 C278.557743,72.1461405 282.66443,70.4039658 287.271496,69.2917096 C291.871414,68.1722544 296.946693,67.6503219 301.63239,67.6539214 C304.752614,67.6539214 307.704854,67.8806921 310.203178,68.2802404 C312.697927,68.6725897 314.756632,69.2629133 315.939672,69.799244 C318.523775,70.9546946 322.183695,72.3009205 326.390457,73.765931 C338.949985,78.1249673 356.055819,83.2902993 356.087986,83.3010979 L357.62844,78.1285668 L356.248822,72.9128413 C356.241674,72.9164409 352.45666,73.9315096 347.653016,75.2057448 C342.852946,76.4763805 337.034246,78.0061826 333.027635,79.0140523 C332.423606,79.1688323 331.562238,79.2696192 330.525737,79.2696192 C327.391217,79.2912164 322.862781,78.304944 318.652445,77.1926878 C316.536554,76.6419591 314.477849,76.0732326 312.569258,75.6196913 C310.6285,75.173349 308.941506,74.7917983 306.972155,74.7702011 C304.816949,74.7881988 302.919081,75.2489392 300.949729,75.8176657 C298.018935,76.6923525 294.945174,77.9053957 291.678411,79.0680453 C288.422369,80.2306949 285.001917,81.335752 281.606484,82.0196636 C280.494927,82.2428347 279.508464,82.3292236 278.625652,82.3292236 C275.99151,82.3220245 274.208015,81.5661222 273.010678,80.8498149 C272.417371,80.493461 271.988474,80.1443061 271.745432,79.921135 L271.516687,79.7015634 L271.505965,79.6871652 L269.786804,81.281759 L271.577448,79.7771536 L271.505965,79.6871652 L269.786804,81.281759 L271.577448,79.7771536 C271.169996,79.2840174 270.67319,78.8628718 270.119199,78.5425133 L267.460038,83.2327067" id="Fill-3"></path>
                        <path d="M213.76216,89.3555149 L218.712344,87.2785835 C218.683751,87.2065928 213.583453,74.8745876 206.403006,60.411658 C202.671604,52.9030291 197.86796,45.3440066 191.84196,38.8576455 C185.823109,32.3820829 178.531863,26.9431863 169.868148,24.0311629 C162.601921,21.594278 154.635164,18.0955305 147.883613,14.9423383 C144.502477,13.3693417 141.421568,11.8791344 138.844613,10.6480936 C136.253362,9.40625422 134.226825,8.44517851 132.675648,7.81525998 C130.295271,6.8577838 126.24577,5.07601423 122.857486,3.55701067 C119.462053,2.03800711 116.699243,0.774570506 116.695668,0.770970971 C114.265253,-0.341285187 111.373774,0.526202626 109.947692,2.79750889 C108.518036,5.06881516 108.975526,8.07082693 111.012786,9.80940209 C111.019934,9.81300162 120.902431,18.2359123 131.560516,27.1807556 C136.889559,31.6513774 142.408031,36.255182 146.997227,40.0094965 C149.295399,41.8884535 151.354103,43.5514384 153.055394,44.8940648 C154.774555,46.2474898 156.06482,47.2373618 157.094172,47.9320719 C157.20497,47.9896645 157.891205,48.5763886 158.68109,49.4834713 C160.100024,51.0852641 161.980021,53.6517322 163.913631,56.6033505 C166.826555,61.0415766 169.92176,66.3940843 172.409361,71.1346713 C173.653162,73.5067645 174.746849,75.7276773 175.586772,77.5850371 C176.426695,79.4243992 177.012854,80.9685995 177.202283,81.6525111 C177.938556,84.2117801 179.189505,86.6342668 180.765701,89.0495545 C183.138929,92.649089 186.262728,96.1658342 189.811849,99.0598599 C193.385989,101.91789 197.324691,104.282784 201.953202,104.916303 C202.52149,104.988293 203.089778,105.020689 203.647344,105.020689 C206.470915,105.035087 209.040721,104.066812 210.967183,102.745783 C212.915089,101.421155 214.319726,99.8049635 215.402691,98.2607632 C217.94033,94.5640413 218.826717,91.0976896 218.937515,90.7737315 C219.248465,89.6146814 219.169834,88.3872401 218.712344,87.2785835 L213.76216,89.3555149 L208.59038,87.9336988 L210.817069,88.5456196 L208.597528,87.908502 L208.59038,87.9336988 L210.817069,88.5456196 L208.597528,87.908502 C208.608251,87.9300992 207.854107,90.3309887 206.624603,92.0587653 C206.084908,92.8398643 205.484452,93.4553847 204.991221,93.7793428 C204.476545,94.1105 204.172743,94.2112869 203.647344,94.2220855 L203.282782,94.2004883 C202.324913,94.0925023 200.788032,93.538174 199.118909,92.4979085 C196.59914,90.9573077 193.829182,88.4160364 191.663253,85.7487813 C189.483028,83.1139221 187.917555,80.2342945 187.510103,78.6864946 C187.14554,77.415859 186.638012,76.0948298 185.991093,74.5758263 C183.739385,69.3205059 179.764941,61.8154765 175.568901,54.9367661 C173.470881,51.5064097 171.329971,48.2524305 169.289137,45.5239833 C168.263359,44.1561602 167.2626,42.9215199 166.261841,41.830861 C165.250359,40.7366025 164.278193,39.7899249 163.041541,38.9476338 C162.548309,38.6200762 161.275916,37.6661995 159.667553,36.3955639 C153.970374,31.8997453 143.490995,23.156476 134.494885,15.5794559 C129.991469,11.7891461 125.852615,8.286799 122.839615,5.72752997 C119.823041,3.17186048 117.943043,1.57006763 117.939469,1.56286856 L114.476127,5.68433556 L112.256587,10.6012997 C112.267309,10.6048992 115.062286,11.8863335 118.504183,13.4269343 C121.953228,14.9711346 126.009877,16.7601032 128.694056,17.8399635 C129.676945,18.2323128 131.707056,19.1825899 134.241121,20.3992326 C141.929096,24.0743573 154.602996,30.2835543 166.476289,34.2754381 C173.009817,36.463955 178.889277,40.7222043 184.014594,46.2366912 C189.136336,51.7367799 193.450323,58.4643099 196.810015,65.2386338 C200.312672,72.2901219 203.322098,78.8592723 205.452285,83.6502527 C206.513805,86.0475427 207.360876,88.0020899 207.936312,89.3519154 C208.225818,90.0250283 208.447414,90.5505603 208.593954,90.9033147 C208.744068,91.2560691 208.815551,91.4288468 208.815551,91.4324463 L213.76216,89.3555149 L208.59038,87.9336988 L213.76216,89.3555149" id="Fill-4"></path>
                        <path d="M214.777216,145.472258 L209.909237,143.21175 L212.575546,144.44999 L209.969998,143.085766 L209.909237,143.21175 L212.575546,144.44999 L209.969998,143.085766 L209.944979,143.125361 C209.780568,143.409724 208.876311,144.867536 206.69966,146.267755 C204.508712,147.660775 200.995333,149.114987 195.051538,149.129385 C185.46212,149.158181 169.414232,145.058311 144.645443,129.652304 C114.293846,110.81234 101.294699,101.705518 90.683078,96.2702207 C85.3790544,93.5561716 80.6075776,91.8175965 75.0855314,90.5361622 C69.556337,89.2439293 63.3123145,88.3476452 54.4448734,87.0698105 C38.1146281,84.7193145 26.5630079,84.0641992 18.7284932,84.0641992 C9.32850519,84.0641992 5.27900466,85.0072772 4.76790265,85.1368605 L6.06888958,90.3741832 L7.45565587,95.5899086 L7.91314578,95.4675245 C10.2649298,94.8520041 21.4162464,92.0011727 36.2096115,89.3123205 C50.9994025,86.6234682 69.4562611,84.1109931 86.236848,84.1145927 C96.5947055,84.1073936 106.309218,85.086467 113.961451,87.3865695 C150.249694,98.2139693 182.349045,122.348848 192.177929,130.303819 C196.927961,134.126525 201.599362,138.816718 205.030536,142.524239 C206.749698,144.377999 208.161483,145.986991 209.137223,147.124444 C209.62688,147.69317 210.005739,148.143112 210.259503,148.445473 L210.54186,148.787429 L210.62764,148.891815 L214.777216,145.472258 L209.909237,143.21175 L214.777216,145.472258 L218.926792,142.0527 C218.794549,141.912318 209.605436,130.537789 198.875868,121.87011 C188.442953,113.501192 155.700257,88.6572052 117.017341,77.0379078 C107.83895,74.2986621 97.2487731,73.3231883 86.236848,73.3159892 C67.2367202,73.3231883 46.9534761,76.2892047 31.3237623,79.2372234 C15.7083449,82.1888417 4.77505093,85.1332609 4.68212329,85.1584577 C1.84068206,85.9251585 0.142965597,88.8551796 0.87923842,91.7276081 C1.61551124,94.5964371 4.51413872,96.3314127 7.36987651,95.6115058 L6.65504853,92.7390773 L7.31983855,95.625904 L7.36987651,95.6115058 L6.65504853,92.7390773 L7.31983855,95.625904 C7.31983855,95.625904 7.50569383,95.57911 7.93816476,95.5107189 C9.23557755,95.2947468 12.6238622,94.8628027 18.7284932,94.8628027 C25.9661265,94.8628027 37.0245154,95.471124 52.9294381,97.7604279 C61.7933051,99.0346631 67.8336015,99.9201486 72.6586904,101.054002 C76.2828683,101.907092 79.2351079,102.871767 82.4768528,104.300782 C92.162772,108.533835 104.779486,117.557868 139.016172,138.845515 C164.789295,154.831047 182.474139,159.899192 195.051538,159.927988 C203.865367,159.953185 210.109389,157.278731 213.980183,154.312714 C217.868847,151.357497 219.380708,148.305091 219.645195,147.736365 C220.502988,145.861007 220.224205,143.654493 218.926792,142.0527 L214.777216,145.472258" id="Fill-5"></path>
                        <path d="M282.657281,180.164571 L286.331497,184.095263 L284.254922,181.87435 L286.29933,184.127659 L286.331497,184.095263 L284.254922,181.87435 L286.29933,184.127659 L286.624577,183.854094 C288.243662,182.551062 295.427683,177.306541 307.694132,177.306541 C313.595037,177.31014 320.743316,178.508785 329.214028,182.083123 C343.603515,188.115943 356.885019,200.800702 367.661051,213.1903 C373.058002,219.3779 377.850924,225.461113 381.979056,230.583251 C384.044908,233.146119 385.946351,235.467819 387.711976,237.476359 C389.484749,239.4849 391.089538,241.169482 392.780106,242.540904 C395.035389,244.35147 398.055537,247.195102 401.204354,250.369892 C405.94009,255.135676 411.022517,260.682558 414.904033,265.016398 C416.844791,267.183318 418.485321,269.051476 419.639768,270.372505 C420.794215,271.697134 421.451857,272.460235 421.451857,272.463835 L425.51208,268.932691 L425.808733,263.544188 L425.701509,265.495136 L425.837327,263.544188 L425.808733,263.544188 L425.701509,265.495136 L425.837327,263.544188 C425.594285,263.511792 409.071036,262.327546 388.487564,244.441459 C377.943852,235.302241 369.440973,223.506566 359.722886,213.283888 C354.851334,208.183348 349.633089,203.464358 343.549903,199.832428 C337.481014,196.196898 330.511441,193.70602 322.551831,193.144493 C308.408959,192.136623 299.091177,191.337526 293.583427,190.07409 C290.827765,189.458569 289.112178,188.735063 288.197198,188.123142 C287.278644,187.482425 286.996287,187.118872 286.570965,186.20099 C285.941916,184.728781 285.870433,183.918886 285.874007,183.746108 L285.870433,183.742508 L283.947546,183.368157 L285.130586,184.858364 C285.509445,184.599198 285.863285,183.947682 285.870433,183.742508 L283.947546,183.368157 L285.130586,184.858364 L283.22557,182.457475 L283.958268,185.401894 C284.4515,185.272311 284.744579,185.153526 285.130586,184.858364 L283.22557,182.457475 L283.958268,185.401894 C284.837507,185.182322 285.670281,184.721582 286.331497,184.095263 L282.657281,180.164571 L281.356294,174.927248 C280.802303,175.078429 279.40124,175.477977 277.88223,176.906992 C277.138809,177.6197 276.409685,178.605973 275.912879,179.797419 C275.408926,180.988865 275.148013,182.349489 275.151588,183.746108 C275.158736,185.851836 275.687709,188.029554 276.717061,190.45564 C277.810748,193.108497 279.808692,195.548982 282.342757,197.172372 C284.237051,198.410611 286.36009,199.281699 288.744042,199.972809 C292.32533,201.005876 296.560686,201.66819 301.932618,202.258514 C307.297402,202.845238 313.795188,203.341974 321.786965,203.9143 C328.013117,204.37504 333.199194,206.218002 338.085043,209.122826 C345.394159,213.463865 351.941984,220.38217 358.754294,228.275949 C365.577328,236.148131 372.661273,244.930995 381.48225,252.612402 C404.814236,272.924575 424.361207,274.295998 425.211852,274.324794 C427.35991,274.443579 429.372151,273.259332 430.322872,271.315583 C431.270019,269.371835 430.973366,267.046535 429.568729,265.405148 C429.54371,265.376351 424.70075,259.728682 418.556804,253.026348 C415.486617,249.675182 412.08761,246.05765 408.785105,242.73168 C405.475451,239.40211 402.287319,236.374902 399.478045,234.107195 C398.638122,233.437682 397.294245,232.095055 395.73592,230.313286 C392.980258,227.18529 389.466879,222.718268 385.378063,217.650123 C379.234116,210.040707 371.767738,201.045471 363.096874,192.759342 C354.422437,184.476813 344.53994,176.856599 333.36003,172.123211 C323.688408,168.03414 315.05686,166.507937 307.694132,166.507937 C298.626539,166.507937 291.531871,168.815239 286.710356,171.180133 C281.878119,173.545027 279.286867,175.945917 278.983066,176.233879 L282.657281,180.164571 L281.356294,174.927248 L282.657281,180.164571" id="Fill-6"></path>
                        <path d="M252.262796,309.747813 L257.441724,311.151631 L257.509633,310.899664 C257.877769,309.557038 259.747044,303.034681 262.613505,296.08758 C264.039587,292.617628 265.719432,289.043291 267.517225,286.012482 C269.30072,282.981674 271.255775,280.519593 272.835545,279.270554 C274.962158,277.549977 278.11455,275.570233 281.688689,273.388915 C287.060622,270.091741 293.397572,266.305031 299.07688,261.330474 C304.738318,256.373915 309.86006,250.063931 312.136787,241.810199 L306.972155,240.363186 L301.61452,240.190408 L301.61452,240.233603 C301.589501,240.903116 301.207068,248.552127 298.780227,257.288197 C297.572167,261.654433 295.853006,266.283434 293.511944,270.433697 C291.167309,274.59116 288.218643,278.241088 284.583743,280.883146 C275.534021,287.466694 266.709469,293.557107 260.161645,297.998932 C256.884158,300.219845 254.178534,302.026811 252.291389,303.27585 C250.404243,304.528488 249.353446,305.212399 249.349871,305.215999 L252.262796,309.747813 L257.441724,311.151631 L252.262796,309.747813 L255.17572,314.279627 C255.218609,314.250831 272.492427,302.995086 290.863507,289.637214 C296.228291,285.728119 300.174141,280.602382 303.112084,275.267872 C307.515425,267.24451 309.749262,258.674018 310.96447,252.047275 C312.168955,245.420532 312.322643,240.730339 312.329791,240.539563 C312.419144,237.803917 310.467664,235.439023 307.783485,235.028676 C305.095732,234.614729 302.533073,236.281314 301.807523,238.919773 C300.785319,242.616495 298.898173,245.852476 296.335515,248.868886 C292.500463,253.389901 287.114234,257.280998 281.606484,260.768947 C276.088012,264.285692 270.537373,267.323699 266.137607,270.840445 C262.75647,273.590489 260.175941,277.254815 257.881343,281.214303 C254.475188,287.153535 251.837473,293.848669 249.986068,299.129186 C248.141812,304.406104 247.11246,308.250407 247.087441,308.343994 C246.50843,310.500116 247.312612,312.796619 249.10683,314.110449 C250.897474,315.427878 253.313593,315.49267 255.17572,314.279627 L252.262796,309.747813" id="Fill-7"></path>
                        <path d="M286.924804,192.561368 L286.989139,192.54697 C287.864803,192.341796 296.885932,190.37645 307.869264,190.38365 C312.991007,190.38365 318.530924,190.808395 323.834947,191.981843 C329.142545,193.148092 334.189231,195.059445 338.446031,197.921075 C343.153174,201.063468 349.100542,206.61755 355.576884,213.280288 C365.327138,223.283395 376.389101,235.77378 387.901405,246.838749 C393.662919,252.371233 399.545953,257.558162 405.514767,261.920798 C411.487155,266.276235 417.538174,269.828975 423.764325,271.995895 C426.562877,272.971369 429.615192,271.473963 430.58021,268.651928 C431.545228,265.833492 430.058386,262.75949 427.259834,261.787615 C420.862124,259.5847 413.674528,254.966497 406.358264,248.937277 C395.36421,239.902446 384.069927,227.800811 373.526215,216.552265 C368.24721,210.926193 363.150486,205.512493 358.296804,200.764707 C353.435974,196.016921 348.850353,191.935049 344.3934,188.936637 C338.72124,185.131929 332.405735,182.821028 326.125971,181.431607 C319.842633,180.049386 313.573592,179.588646 307.869264,179.585046 C294.83795,179.592245 284.71956,181.996734 284.46937,182.050727 C281.585039,182.734639 279.801544,185.639463 280.477056,188.544287 C281.156143,191.445512 284.044048,193.245279 286.924804,192.561368" id="Fill-8"></path>
                        <path d="M287.157124,168.811639 L285.580928,167.782172 L287.153549,168.818838 L287.157124,168.811639 L285.580928,167.782172 L287.153549,168.818838 C287.185717,168.761246 289.855599,164.686573 294.123122,160.439122 C298.376349,156.155676 304.227216,151.890228 310.04949,150.767173 C318.066286,149.147382 330.929615,145.511853 344.111043,140.000965 C357.278175,134.450483 370.709792,127.175824 379.770237,117.54347 C396.247022,99.9129496 401.586787,90.3741832 401.829829,89.9350399 C403.266633,87.328977 402.333782,84.042602 399.746105,82.5919896 C397.158428,81.1449767 393.895238,82.0844552 392.45486,84.6905182 L394.056074,85.5868023 L392.462008,84.67612 L392.45486,84.6905182 L394.056074,85.5868023 L392.462008,84.67612 C392.386951,84.8129024 387.408174,93.6137642 371.960741,110.142827 C364.812462,117.853029 352.406622,124.864923 339.993634,130.030255 C327.594943,135.227982 315.128343,138.737529 307.947895,140.177342 C298.669428,142.099494 291.438943,147.912742 286.338645,153.006083 C281.24907,158.13902 278.293257,162.742824 278.157439,162.947998 C276.549076,165.449674 277.26033,168.793642 279.744357,170.413432 C282.231959,172.033223 285.548761,171.316915 287.157124,168.811639" id="Fill-9"></path>
                        <path d="M271.230756,84.8021038 L271.248627,84.7913052 C271.548855,84.6113284 275.248089,82.4336101 280.269756,80.3602782 C285.273552,78.2653491 291.649817,76.3575958 296.843043,76.3863921 C302.883339,76.3971907 307.057935,77.2862757 311.007359,78.3661361 C314.935339,79.4279988 318.741798,80.8318172 323.531145,81.4473376 C325.875781,81.7388999 329.031747,81.9260757 332.623757,82.0736566 C343.339029,82.5092003 357.592699,82.5092003 357.62844,82.5092003 C360.591402,82.5092003 362.98965,80.0903131 362.98965,77.1098985 C362.98965,74.129484 360.591402,71.7105968 357.62844,71.7105968 C357.624866,71.7105968 356.066541,71.7105968 353.57894,71.6961987 C349.851112,71.6710019 344.057431,71.6098098 338.478199,71.4622289 C332.927559,71.3218471 327.455551,71.0662801 324.860726,70.7315234 C321.543924,70.3283756 318.259289,69.180124 313.827356,67.9454837 C309.420441,66.7288411 303.969878,65.5805896 296.843043,65.5877886 C289.033547,65.6201844 281.463519,68.1722544 275.648393,70.5983406 C269.851138,73.0460241 265.865972,75.4541127 265.715858,75.5405015 C263.174645,77.0739032 262.352592,80.392674 263.875176,82.9483435 C265.39776,85.5076125 268.693117,86.3355055 271.230756,84.8021038" id="Fill-10"></path>
                        <path d="M209.448173,85.5364088 L207.292967,87.7105276 L209.458896,85.5472074 L209.448173,85.5364088 L207.292967,87.7105276 L209.458896,85.5472074 C209.458896,85.5472074 209.312356,85.3960269 209.015702,85.0684693 C206.942701,82.7827649 198.128872,72.3477144 191.448805,53.838908 C190.14067,50.2393735 188.035501,46.9457995 185.465695,43.817804 C180.951556,38.3573102 174.950575,33.3575568 168.449214,28.7501526 C158.702535,21.857044 147.815705,15.9178121 139.319974,11.6487642 C130.824243,7.38691537 124.726761,4.82044728 124.64813,4.78445193 C121.917487,3.63620043 118.775818,4.93203285 117.635667,7.68567674 C116.491942,10.4357211 117.782207,13.5997119 120.51285,14.7479634 C120.51285,14.7479634 120.698705,14.8271532 121.09186,14.9963313 C124.040526,16.2705665 137.783094,22.3573793 151.522088,30.6039129 C158.388011,34.7181808 165.246785,39.3831775 170.683052,44.127364 C176.144338,48.8463537 180.054447,53.7345215 181.36973,57.5284309 C189.826145,80.9326042 201.474267,92.7714731 201.867423,93.1710215 C203.961869,95.2803487 207.357302,95.2803487 209.448173,93.1710215 C211.542619,91.0616942 211.542619,87.645736 209.448173,85.5364088" id="Fill-11"></path>
                        <path d="M210.606195,143.488914 L210.574027,143.474516 C209.616158,143.103764 189.1828,135.004811 162.169451,115.570925 C133.02234,94.5964371 104.768763,86.1411306 82.8128219,82.9879384 C69.5849301,81.0909837 54.4770406,80.7346298 44.4158368,80.7310302 C37.7143244,80.7310302 33.2752426,80.8966088 33.2252047,80.8966088 C30.2658168,81.0081944 27.9569224,83.5134704 28.0677208,86.493885 C28.174945,89.4742995 30.6625464,91.7995988 33.6219342,91.6880132 C33.6255084,91.6880132 33.872124,91.6808142 34.3689295,91.6628165 C35.8700682,91.6196221 39.5192651,91.5296337 44.4158368,91.5296337 C54.1946836,91.5260342 68.995197,91.9039853 81.2973866,93.6785558 C101.895155,96.6481718 128.350939,104.520354 155.939725,124.357388 C184.790182,145.108705 206.467341,153.452426 206.789013,153.578409 C209.555398,154.640272 212.654177,153.243653 213.708548,150.457613 C214.762919,147.667974 213.372579,144.550777 210.606195,143.488914" id="Fill-12"></path>
                        <path d="M202.617992,264.850819 L199.740809,260.297408 L201.395636,262.91427 L199.81944,260.247015 L199.740809,260.297408 L201.395636,262.91427 L199.81944,260.247015 L199.794421,260.261413 C199.40484,260.470186 195.362488,262.662302 187.016871,262.669501 C176.519622,262.665902 159.009911,259.156356 133.551312,242.944052 C115.283883,231.303158 99.6720399,224.572028 86.4834636,220.77092 C73.3056097,216.969811 62.5474486,216.116722 54.2125543,216.123921 C47.7791024,216.12752 42.7395652,216.609858 39.5049685,216.599059 C34.1509069,216.627856 27.84255,214.608517 23.0424801,212.463194 C20.6370839,211.401331 18.59625,210.32867 17.1773165,209.533173 C16.4696367,209.133625 15.9156451,208.806067 15.5510828,208.586496 L15.147205,208.338128 L15.0578515,208.280535 L15.0471291,208.273336 L12.1485016,212.815949 L11.9054601,218.208051 C11.9769429,218.211651 13.4494885,218.280042 16.0443141,218.280042 C23.8216426,218.272843 41.6494525,217.696917 61.9863086,212.974328 C71.8402124,210.677825 83.7957104,209.547571 95.3258858,209.55477 C104.175456,209.551171 112.789133,210.213485 120.008896,211.444526 C127.210788,212.643171 133.079526,214.547325 135.981727,216.393886 C142.465217,220.410966 151.783,226.497779 160.153636,232.411814 C164.338953,235.367032 168.291952,238.286255 171.508678,240.852723 C174.714682,243.393994 177.238024,245.686898 178.285247,246.939536 C181.498399,250.711848 186.577252,256.075154 190.923406,260.578172 C195.255264,265.07399 198.815107,268.659127 198.829404,268.669925 L202.617992,264.850819 L199.740809,260.297408 L202.617992,264.850819 L206.410154,261.035313 C206.40658,261.031713 205.53449,260.153427 204.119131,258.713613 C201.996092,256.550293 198.664993,253.134334 195.308876,249.61039 C191.963481,246.090045 188.571622,242.432918 186.427138,239.913244 C184.432768,237.591544 181.637791,235.169058 178.163727,232.383018 C167.805869,224.136485 151.640034,213.42427 141.600275,207.197075 C136.528571,204.097876 129.77702,202.182924 121.795966,200.797103 C113.832782,199.443678 104.704429,198.756167 95.3258858,198.756167 C83.1059014,198.759766 70.4999099,199.918816 59.5737642,202.452889 C40.3949294,206.912712 23.271225,207.485038 16.0443141,207.481438 C14.8362548,207.481438 13.9069784,207.463441 13.2850781,207.449043 L12.5916949,207.427445 L12.3915431,207.420246 C9.96470209,207.308661 7.77732846,208.845662 7.04105564,211.17816 C6.30478282,213.507059 7.20546608,216.033932 9.24987411,217.358561 C9.41071041,217.459348 13.1599832,219.885434 18.7320673,222.351115 C24.3148739,224.795199 31.6883245,227.368866 39.5049685,227.397663 C43.6188036,227.386864 48.2973527,226.915325 54.2125543,226.922524 C61.8290465,226.926124 71.4113156,227.664028 83.5347982,231.151977 C95.6511325,234.647125 110.297958,240.906716 127.818392,252.068872 C154.531514,269.09467 174.085633,273.471704 187.016871,273.468105 C198.690012,273.478903 204.794643,269.875769 205.498749,269.40783 C206.871219,268.525944 207.771902,267.071732 207.947035,265.441143 C208.125742,263.810554 207.561028,262.194363 206.410154,261.035313 L202.617992,264.850819" id="Fill-13"></path>
                        <path d="M51.9358272,224.330859 C51.9358272,224.330859 52.1752945,224.316461 52.6721,224.294864 C54.1625163,224.233672 57.8295839,224.111288 62.8047867,224.111288 C69.4383904,224.107688 78.4059074,224.334459 87.6236143,225.219944 C96.8341728,226.094631 106.316366,227.664028 113.793467,230.180103 C137.27914,238.052285 152.933873,249.898353 167.802295,257.439378 C182.166763,264.670842 190.444471,267.806037 190.605308,267.867229 C193.37884,268.914694 196.466897,267.500077 197.506972,264.706838 C198.547047,261.917199 197.14241,258.803601 194.368877,257.756137 L194.304543,257.73094 C193.514658,257.428579 185.723033,254.390572 172.595217,247.778227 C159.09569,241.032699 142.3294,228.391134 117.185326,219.935828 C108.450128,217.013006 98.3424599,215.407613 88.6422441,214.468135 C78.9491767,213.539455 69.6778577,213.312684 62.8047867,213.312684 C55.9317156,213.312684 51.4568924,213.543055 51.3854096,213.546654 C48.4295959,213.697834 46.1564429,216.235506 46.3065568,219.212321 C46.4602448,222.192736 48.9800135,224.48204 51.9358272,224.330859" id="Fill-14"></path>
                        <path d="M255.379446,308.020036 C255.408039,307.998439 258.985753,305.424772 263.728636,301.80724 C268.478668,298.189708 274.372425,293.549908 279.126031,289.295258 C284.026177,284.900226 289.651873,278.698228 294.162438,273.511299 C298.66228,268.331569 301.98623,264.210102 302.014823,264.177706 C303.884098,261.863206 303.533833,258.461645 301.235661,256.579089 C298.937489,254.700132 295.559926,255.052886 293.694225,257.367387 C293.694225,257.367387 293.501222,257.604956 293.133085,258.058498 C291.839247,259.638693 288.44024,263.752961 284.40861,268.32437 C280.391277,272.88498 275.687709,277.931528 272.00277,281.225102 C267.638745,285.130597 261.88438,289.676809 257.259443,293.197153 C254.946975,294.960925 252.909715,296.476329 251.458614,297.545391 C250.729489,298.081722 250.150479,298.502867 249.753749,298.794429 C249.353446,299.082392 249.146145,299.229973 249.146145,299.233573 C246.737175,300.964949 246.179609,304.337713 247.898771,306.763799 C249.621506,309.189885 252.970475,309.751412 255.379446,308.020036" id="Fill-15"></path>
                        <path d="M232.719398,249.549198 L232.719398,281.178308 L238.080608,281.178308 L243.166609,279.472128 C243.041515,279.115774 241.350946,274.054829 236.983347,267.946419 C232.630045,261.852407 225.485339,254.63894 214.605657,250.603862 C210.613343,249.128053 206.524527,246.471596 202.546509,242.868462 C196.570547,237.476359 190.905536,229.992927 186.059002,221.818384 C181.201746,213.647441 177.148671,204.788987 174.225025,196.686434 C170.02541,185.070737 164.113783,172.929507 159.235082,163.613912 C154.359955,154.309115 150.51418,147.85515 150.482013,147.797557 C149.016616,145.339075 145.92141,144.460788 143.398068,145.789017 C140.874725,147.120844 139.823928,150.180449 140.996246,152.793711 C140.996246,152.79731 141.35366,153.596407 141.989857,155.029022 C144.216546,160.050372 149.806501,172.785525 154.931817,185.319105 C157.490901,191.578695 159.935613,197.798691 161.765573,202.924428 C162.684127,205.483697 163.445419,207.7766 163.985114,209.615962 C164.524809,211.437327 164.832185,212.895138 164.864352,213.352279 C165.082375,215.418412 165.668534,217.380158 166.465567,219.615469 C167.86663,223.481369 169.996817,228.020382 172.52016,232.854557 C176.3016,240.086022 180.951556,247.904211 185.226227,254.354577 C187.363563,257.583359 189.404397,260.466586 191.241505,262.802684 C192.163633,263.972533 193.032149,265.005599 193.882794,265.909082 C194.744162,266.819765 195.526898,267.586465 196.606289,268.32437 C197.61777,269.001082 198.750773,269.648999 200.066056,270.376105 C204.61951,272.877781 211.39608,276.250545 217.236224,279.99766 C220.145574,281.85502 222.797586,283.809567 224.702603,285.620133 C226.636212,287.416301 227.687009,289.097284 227.880013,289.871183 C228.144499,290.74947 228.451875,292.221679 228.716362,293.99265 C229.670657,300.248641 230.192482,310.201354 230.439097,318.415492 C230.564192,322.533359 230.628527,326.24448 230.660694,328.918934 C230.692861,331.593388 230.692861,333.209579 230.692861,333.216778 C230.692861,336.197192 233.091109,338.61608 236.054071,338.61608 C239.013459,338.61608 241.415281,336.197192 241.415281,333.216778 C241.415281,333.173583 241.415281,324.451911 241.029274,314.387613 C240.83627,309.351864 240.550339,303.981359 240.11072,299.147184 C239.889123,296.724697 239.628211,294.438993 239.317261,292.365661 C238.999162,290.288729 238.641748,288.442168 238.148517,286.768385 C237.515894,284.659058 236.4508,282.848492 235.199852,281.207104 C232.994607,278.349074 230.171037,275.937385 227.086554,273.673278 C222.458043,270.304114 217.193335,267.338098 212.589842,264.850819 C210.29167,263.612579 208.161483,262.496724 206.399432,261.546447 C204.648103,260.606968 203.225596,259.797073 202.553658,259.339932 L202.550083,259.336332 C202.349932,259.20315 201.409933,258.281669 200.348413,256.967839 C198.436248,254.646139 195.870016,251.035806 193.178688,246.889142 C189.129188,240.661947 184.73657,233.167717 181.341137,226.533774 C179.643421,223.222203 178.19232,220.119404 177.166542,217.563735 C176.133615,215.040461 175.568901,212.923935 175.53316,212.279618 C175.315137,210.260279 174.76472,208.201345 173.985557,205.620479 C172.62381,201.167855 170.511493,195.458993 168.088226,189.289391 C160.832722,170.82018 150.785815,148.39508 150.771518,148.355485 L145.882095,150.572798 L141.285751,153.351639 L141.446587,153.621604 C143.069247,156.35365 156.815389,180.02059 164.14595,200.375957 C168.356287,212.016852 174.593161,224.87079 182.420527,235.968154 C190.269339,247.025924 199.633585,256.4927 210.8957,260.736551 C219.266336,263.83935 224.784808,269.382633 228.283891,274.260002 C230.024497,276.689688 231.23613,278.932198 231.993848,280.526792 C232.369133,281.322289 232.637193,281.955807 232.79803,282.369754 L232.969588,282.816096 L232.998181,282.898885 L234.116887,282.510135 L232.994607,282.884487 L232.998181,282.898885 L234.116887,282.510135 L232.994607,282.884487 C233.823808,285.389763 236.350725,286.930364 238.938402,286.509218 C241.526079,286.084473 243.441818,283.816766 243.441818,281.178308 L243.441818,249.549198 C243.441818,246.565184 241.039996,244.149896 238.080608,244.149896 C235.117646,244.149896 232.719398,246.565184 232.719398,249.549198" id="Fill-16"></path>
                        <path d="M259.650543,330.153574 L259.650543,269.954959 C259.650543,266.970945 257.248721,264.555657 254.289333,264.555657 C251.329945,264.555657 248.928123,266.970945 248.928123,269.954959 L248.928123,330.153574 C248.928123,333.137588 251.329945,335.552876 254.289333,335.552876 C257.248721,335.552876 259.650543,333.137588 259.650543,330.153574" id="Fill-17"></path>
                        <path d="M241.118627,55.6818697 L241.118627,61.0811714 C243.827825,61.0739724 246.304704,60.1956859 248.474207,58.8854554 C251.730249,56.8949128 254.42515,53.8965006 256.41952,50.2177763 C258.399594,46.5354525 259.646969,42.1224232 259.650543,37.3170447 C259.636246,30.9026742 257.463169,25.1542176 254.253591,20.8095795 C252.634506,18.6318611 250.743786,16.7888995 248.574283,15.4030787 C246.408354,14.0316561 243.902882,13.0777794 241.118627,13.0705803 C238.366539,13.0597817 235.789585,14.0604523 233.755899,15.5470601 C230.682139,17.7967691 228.584119,21.0075539 227.118721,24.6754796 C225.66762,28.3614029 224.884884,32.5764578 224.88131,37.0758759 C224.895606,43.0762999 226.253779,48.5691895 228.805715,52.9714202 C230.09598,55.1671363 231.704343,57.1144844 233.755899,58.6046917 C235.789585,60.0912994 238.366539,61.09197 241.118627,61.0811714 L241.118627,50.2825679 C240.864863,50.2753689 240.582506,50.2321745 240.014218,49.8362257 C239.181443,49.2638997 237.962662,47.7520952 237.079849,45.4843885 C236.186314,43.2274803 235.600155,40.2830611 235.603729,37.0758759 C235.589433,32.7996289 236.665249,28.9913214 238.048441,26.6588231 C238.727528,25.4853748 239.4638,24.7078754 240.014218,24.3155261 C240.582506,23.9195773 240.864863,23.8763829 241.118627,23.8691838 C241.340224,23.8583852 241.979995,23.9771699 242.848511,24.5350977 C244.149498,25.3413934 245.78288,27.0727695 246.962346,29.3548744 C248.159683,31.6333797 248.931697,34.4158199 248.928123,37.3170447 C248.938845,41.1757457 247.552079,44.6744932 245.718545,47.0465864 C244.810714,48.2344328 243.80638,49.1163188 242.945013,49.6310522 C242.083645,50.1601838 241.411707,50.289767 241.118627,50.2825679 L241.118627,55.6818697" id="Fill-18"></path>
                        <path d="M232.744417,26.5760338 C232.733695,26.6948184 232.394152,30.1071771 232.394152,34.6893845 C232.397726,38.1305395 232.576433,42.2124116 233.305557,46.1970963 C233.673694,48.1912384 234.177648,50.1637833 234.938939,52.0679371 C235.710954,53.9648917 236.736732,55.8294506 238.341521,57.4600397 C240.435967,59.5693669 243.827825,59.5693669 245.922271,57.4600397 C248.016717,55.3507125 248.016717,51.9311547 245.922271,49.8254271 C245.704249,49.6166541 245.268204,49.0011337 244.878622,48.0112617 C244.274593,46.5354525 243.777787,44.3037412 243.502579,41.9136502 C243.213073,39.5199598 243.116571,36.9570912 243.116571,34.6893845 C243.116571,32.6700457 243.191628,30.8774775 243.270259,29.6104413 C243.306001,28.9733237 243.345316,28.4693889 243.370335,28.1310327 L243.406077,27.7530815 L243.413225,27.6522946 C243.709879,24.6826786 241.558246,22.0370208 238.613155,21.7418589 C235.668064,21.4430976 233.041071,23.6100173 232.744417,26.5760338" id="Fill-19"></path>
                        <path d="M254.796861,72.250527 L254.796861,77.6498287 C257.506059,77.6426296 259.982938,76.7607437 262.152441,75.4505131 C265.408482,73.4635701 268.103384,70.4651579 270.097754,66.7828341 C272.077827,63.1005103 273.325202,58.6910805 273.328776,53.8821024 C273.31448,47.467732 271.141403,41.7192754 267.928251,37.3746373 C266.31274,35.2005184 264.42202,33.3539572 262.248942,31.9681364 C260.086588,30.5967138 257.581116,29.6464367 254.796861,29.6356381 C252.044773,29.628439 249.467818,30.6255101 247.434132,32.1121178 C244.360372,34.3654264 242.258778,37.5726116 240.793381,41.2441368 C239.345854,44.9264606 238.559543,49.1415155 238.555969,53.6409336 C238.57384,59.6413576 239.932013,65.1342473 242.483949,69.5400775 C243.774213,71.7357935 245.382576,73.6795422 247.434132,75.173349 C249.467818,76.6563572 252.044773,77.6570278 254.796861,77.6498287 L254.796861,66.8512252 C254.543097,66.8404266 254.257166,66.7972322 253.688877,66.4012834 C252.859677,65.8289574 251.637321,64.3207525 250.758083,62.0494462 C249.860973,59.7925381 249.274815,56.8517184 249.278389,53.6409336 C249.264092,49.3646867 250.339908,45.5563792 251.7231,43.2238808 C252.405761,42.0540321 253.142034,41.2729331 253.688877,40.8805838 C254.257166,40.4846351 254.543097,40.4414406 254.796861,40.4342416 C255.014883,40.4270425 255.658228,40.5458271 256.526744,41.1001555 C257.827731,41.9100507 259.461113,43.6378273 260.640579,45.9199321 C261.834342,48.202037 262.609931,50.9808776 262.606356,53.8821024 C262.617079,57.744403 261.226738,61.239551 259.393205,63.6152437 C258.488947,64.7994906 257.48104,65.6813765 256.623246,66.1997095 C255.761878,66.7252415 255.08994,66.8584243 254.796861,66.8512252 L254.796861,72.250527" id="Fill-20"></path>
                        <path d="M246.422651,43.1410915 C246.411928,43.2598761 246.072385,46.6758344 246.072385,51.2544423 C246.075959,54.6955972 246.254666,58.7810689 246.980217,62.762154 C247.348353,64.7562962 247.852307,66.7324406 248.617173,68.6365943 C249.389187,70.533549 250.411391,72.3981079 252.019754,74.0250975 C254.110626,76.1344247 257.506059,76.1344247 259.600505,74.0250975 C261.694951,71.9193698 261.694951,68.499812 259.600505,66.3904848 C259.382482,66.1817118 258.946437,65.5697909 258.553282,64.5763194 C257.949252,63.1005103 257.456021,60.8723984 257.177238,58.4823075 C256.891307,56.0850176 256.791231,53.5257485 256.794805,51.2544423 C256.794805,49.2351034 256.869862,47.4461348 256.944919,46.1754991 C256.984234,45.541981 257.019976,45.0380462 257.048569,44.6996899 L257.080736,44.3181393 L257.091459,44.2173523 C257.384538,41.2513359 255.23648,38.605678 252.291389,38.3069167 C249.342723,38.0117549 246.71573,40.1750751 246.422651,43.1410915" id="Fill-21"></path>
                        <path d="M238.584562,115.102985 L238.584562,120.502287 C241.29376,120.495088 243.774213,119.616801 245.943716,118.306571 C249.196183,116.316028 251.891085,113.317616 253.885455,109.638892 C255.865529,105.956568 257.116478,101.543539 257.116478,96.7381601 C257.102181,90.3237897 254.929104,84.5753331 251.719526,80.2270954 C250.100441,78.0529766 248.213295,76.2100149 246.040218,74.8241941 C243.874289,73.4527715 241.368817,72.4988949 238.584562,72.4916958 C235.836048,72.4808972 233.259094,73.4815678 231.225408,74.9681755 C228.151648,77.2178846 226.050053,80.4286693 224.584656,84.096595 C223.133555,87.7789188 222.350819,91.9975732 222.347244,96.4969913 C222.361541,102.497415 223.719714,107.990305 226.275224,112.392536 C227.561915,114.588252 229.170277,116.5356 231.225408,118.025807 C233.259094,119.512415 235.836048,120.509486 238.584562,120.502287 L238.584562,109.703683 C238.334372,109.696484 238.048441,109.65329 237.480153,109.257341 C236.647378,108.681416 235.428596,107.173211 234.549358,104.905504 C233.652249,102.648596 233.06609,99.7041766 233.069664,96.4969913 C233.055368,92.2207443 234.131184,88.4088373 235.514376,86.0799385 C236.193462,84.9064903 236.929735,84.1289908 237.480153,83.7366415 C238.048441,83.3406928 238.334372,83.2974983 238.584562,83.2902993 C238.806159,83.2795007 239.449504,83.3982853 240.314446,83.9562131 C241.615433,84.7625089 243.252389,86.493885 244.431855,88.7759898 C245.625618,91.0544952 246.397632,93.8369353 246.394058,96.7381601 C246.40478,100.596861 245.018014,104.095609 243.18448,106.467702 C242.276649,107.651949 241.272315,108.537434 240.414522,109.052168 C239.54958,109.581299 238.881216,109.710882 238.584562,109.703683 L238.584562,115.102985" id="Fill-22"></path>
                        <path d="M230.210352,85.9971492 C230.19963,86.1159338 229.863661,89.5282925 229.860086,94.1105 C229.863661,97.5516549 230.042368,101.633527 230.771492,105.614612 C231.139629,107.608754 231.643582,109.584899 232.408448,111.489053 C233.176888,113.386007 234.202666,115.250566 235.807455,116.881155 C237.901901,118.990482 241.297334,118.990482 243.388206,116.881155 C245.482652,114.771828 245.482652,111.35227 243.388206,109.246543 C243.170184,109.03777 242.737713,108.422249 242.344557,107.432377 C241.740528,105.952968 241.247296,103.724857 240.968513,101.334766 C240.682582,98.9410753 240.582506,96.3782067 240.582506,94.1105 C240.582506,92.0911611 240.661137,90.2985929 240.736194,89.0315568 C240.771936,88.3944392 240.811251,87.8905044 240.839844,87.5521481 L240.872012,87.174197 L240.87916,87.0698105 C241.175813,84.1037941 239.027755,81.4581362 236.07909,81.1629744 C233.133999,80.864213 230.507006,83.0311328 230.210352,85.9971492" id="Fill-23"></path>
                        <path d="M268.071216,133.338227 L273.139347,135.0948 C274.015011,132.513933 273.99714,129.868276 273.471742,127.373798 C272.663986,123.630282 270.726802,120.084741 267.921102,116.989141 C265.108254,113.90434 261.373278,111.27668 256.862714,109.710882 C250.83314,107.637551 244.732083,107.835525 239.606766,109.476913 C237.036959,110.308405 234.68875,111.50705 232.680083,113.126841 C230.689287,114.739432 228.977274,116.816364 228.062294,119.465621 C227.161611,122.082483 227.258113,124.861323 227.990811,127.28021 C229.105943,130.940937 231.436282,133.986143 234.402818,136.574208 C237.387225,139.155075 241.093608,141.2752 245.314667,142.743811 L247.058848,137.639671 L244.485467,142.373058 C244.624858,142.448649 244.892919,142.59623 245.314667,142.743811 L247.058848,137.639671 L244.485467,142.373058 L247.058848,137.639671 L244.371095,142.308267 L244.485467,142.373058 L247.058848,137.639671 L244.371095,142.308267 L247.058848,137.64327 L244.363946,142.304667 L244.371095,142.308267 L247.058848,137.64327 L244.363946,142.304667 C244.388965,142.311866 244.692767,142.524239 245.353983,142.754609 C245.84364,142.927387 246.554894,143.067769 247.291167,143.031773 C248.417021,142.992178 249.399909,142.556635 249.964624,142.175084 C250.550782,141.789934 250.85101,141.462376 251.069033,141.224807 L247.062422,137.636071 L245.314667,142.743811 C250.95466,144.68036 256.555338,145.177096 261.519818,144.180025 C264.000271,143.668891 266.348481,142.769007 268.417908,141.300397 C270.476613,139.846185 272.25296,137.71886 273.139347,135.0948 L263.003086,131.581654 C262.913732,131.819223 262.777915,132.07479 262.220349,132.488737 C261.412594,133.093459 259.600505,133.762972 257.180812,133.863759 C254.771842,133.978944 251.816028,133.579396 248.806602,132.531931 C246.755046,131.822823 244.492615,132.420346 243.052237,134.050935 L247.058848,137.636071 L244.378243,132.963875 C243.64197,133.403019 243.295278,133.788169 243.052237,134.050935 L247.058848,137.636071 L244.378243,132.963875 L247.062422,137.636071 L246.690711,132.251167 C245.757861,132.31236 244.921512,132.639917 244.378243,132.963875 L247.062422,137.636071 L246.690711,132.251167 L247.062422,137.636071 L248.581431,132.45994 C248.077478,132.30516 247.384095,132.200774 246.690711,132.251167 L247.062422,137.636071 L248.581431,132.45994 L247.062422,137.636071 L249.753749,132.967475 C249.714434,132.953077 249.349871,132.69751 248.581431,132.45994 L247.062422,137.636071 L249.753749,132.967475 L249.721582,132.949477 C249.628654,132.899084 249.342723,132.722706 248.806602,132.531931 C244.785695,131.153309 241.561821,128.889202 239.821214,126.812271 C238.941976,125.782804 238.452319,124.828927 238.262889,124.177412 C238.07346,123.507898 238.127072,123.223535 238.202129,122.978767 C238.266464,122.766394 238.584562,122.194068 239.392318,121.549751 C240.571784,120.574278 242.730564,119.580806 245.253907,119.199255 C247.784398,118.803307 250.647284,118.972485 253.370779,119.922762 C256.998531,121.168201 259.82925,123.630282 261.462632,126.146357 C262.277536,127.395395 262.781489,128.640834 262.985215,129.627107 C263.199664,130.620578 263.103162,131.30089 263.003086,131.581654 L268.071216,133.338227" id="Fill-24"></path>
                        <path d="M238.016274,131.833621 C238.127072,131.884015 241.222277,133.320229 245.518393,134.810436 C248.75299,135.926292 252.645228,137.085342 256.619672,137.690064 C258.610468,137.988825 260.629857,138.150805 262.667117,138.042818 C264.697228,137.927633 266.784526,137.560481 268.836082,136.55981 C271.495242,135.253179 272.603226,132.020797 271.305813,129.342744 C270.004826,126.66109 266.795248,125.548834 264.136088,126.855465 C263.868028,126.995847 263.149626,127.20822 262.09168,127.262213 C260.508336,127.355801 258.253054,127.100234 255.919141,126.5855 C253.578079,126.077966 251.140516,125.340061 249.010328,124.602157 C247.116034,123.943442 245.457633,123.288327 244.292463,122.802389 C243.709879,122.557621 243.248815,122.359647 242.937864,122.222864 L242.594747,122.068084 L242.501819,122.02489 C239.810492,120.779451 236.625933,121.963698 235.389281,124.674147 C234.152629,127.380997 235.328521,130.588183 238.016274,131.833621" id="Fill-25"></path>
                        <path d="M287.664651,99.4234129 L292.789968,97.8468168 C291.992935,95.2371543 290.431036,93.1098294 288.554612,91.40365 C285.713171,88.8515801 282.078271,87.1310026 278.000177,86.285112 C273.925658,85.4536195 269.372203,85.5436079 264.804452,86.9474263 C258.717692,88.8335824 253.896177,92.6094941 250.708045,96.9721299 C249.117552,99.1642464 247.916641,101.525541 247.237555,104.023618 C246.565616,106.507297 246.394058,109.199749 247.198239,111.885001 C247.995272,114.534259 249.696563,116.726375 251.70523,118.248978 C254.739674,120.55268 258.403168,121.63614 262.316851,121.974496 C266.237683,122.294855 270.469464,121.816117 274.744136,120.505886 L273.175088,115.340554 L273.854175,120.696662 C274.011437,120.675065 274.315239,120.63547 274.744136,120.502287 L273.175088,115.340554 L273.854175,120.696662 L273.175088,115.340554 L273.72908,120.71106 L273.854175,120.696662 L273.175088,115.340554 L273.72908,120.71106 L273.175088,115.347753 L273.721932,120.71106 L273.72908,120.71106 L273.175088,115.347753 L273.721932,120.71106 C273.743376,120.703861 274.118661,120.693062 274.783451,120.491488 C275.273108,120.340308 275.916453,120.041546 276.484742,119.588005 C277.356832,118.907693 277.900101,118.00061 278.143143,117.374291 C278.396907,116.726375 278.461241,116.283632 278.500557,115.963274 L273.175088,115.340554 L274.744136,120.502287 C280.434166,118.734915 285.255681,115.819292 288.69043,112.075777 C290.398868,110.19322 291.774912,108.073094 292.589816,105.661406 C293.408294,103.267716 293.601298,100.492475 292.789968,97.8468168 L287.664651,99.4234129 L282.535761,101.003609 C282.603669,101.248377 282.646559,101.53634 282.435685,102.198654 C282.131883,103.166929 281.056067,104.78312 279.158198,106.294924 C277.278201,107.817527 274.654782,109.242943 271.609615,110.175222 C269.565207,110.805141 268.096235,112.579711 267.84962,114.717835 L273.175088,115.340554 L268.310684,113.072848 C267.963992,113.846748 267.899658,114.361481 267.84962,114.717835 L273.175088,115.340554 L268.310684,113.072848 L273.175088,115.340554 L269.75821,111.179493 C269.050531,111.766217 268.568022,112.500522 268.310684,113.072848 L273.175088,115.340554 L269.75821,111.179493 L273.175088,115.340554 L271.384444,110.250813 C270.891213,110.42359 270.283609,110.740349 269.75821,111.179493 L273.175088,115.340554 L271.384444,110.250813 L273.175088,115.340554 L272.628245,109.970049 C272.585355,109.980848 272.135013,109.991646 271.384444,110.250813 L273.175088,115.340554 L272.628245,109.970049 L272.592503,109.973648 C272.485279,109.988047 272.152884,110.013243 271.606041,110.178822 C267.549392,111.442259 263.617838,111.517849 261.001568,110.869933 C259.689858,110.556773 258.735563,110.074435 258.203016,109.660489 C257.659747,109.228545 257.534652,108.965779 257.452447,108.72461 C257.380964,108.515837 257.305907,107.864321 257.581116,106.863651 C257.967123,105.377043 259.132292,103.296512 260.955104,101.493145 C262.770767,99.6753803 265.186885,98.1167819 267.938973,97.2744908 C271.602467,96.1334383 275.330295,96.4465978 278.121698,97.5192591 C279.508464,98.0483907 280.641466,98.757499 281.384888,99.4342115 C282.135457,100.110924 282.45713,100.715646 282.535761,101.003609 L287.664651,99.4234129" id="Fill-26"></path>
                        <path d="M262.474113,115.999269 C262.588486,115.974072 265.930307,115.304559 270.280035,113.965532 C273.546799,112.954063 277.371128,111.589839 280.93812,109.725281 C282.72519,108.785802 284.455074,107.723939 286.038418,106.431707 C287.614613,105.135874 289.087159,103.602472 290.162975,101.579534 C291.553316,98.9482743 290.559705,95.6762975 287.947008,94.2760785 C285.330738,92.8794592 282.085419,93.8765302 280.695079,96.5113895 C280.562835,96.7813546 280.105345,97.3788773 279.279719,98.0483907 C278.053789,99.0598599 276.080864,100.190114 273.89349,101.154789 C271.702543,102.130263 269.30072,102.976153 267.145514,103.638468 C265.226201,104.228791 263.503466,104.678733 262.277536,104.977495 C261.662783,105.125076 261.173126,105.236661 260.844305,105.308652 L260.476169,105.387842 L260.376093,105.409439 C257.470317,105.992563 255.586746,108.836196 256.165756,111.762617 C256.744767,114.685439 259.568337,116.582394 262.474113,115.999269" id="Fill-27"></path>
                        <path d="M295.767227,121.87011 L300.896117,120.293514 C300.09551,117.687451 298.537185,115.556526 296.657187,113.850347 C293.81932,111.298277 290.18442,109.5777 286.106326,108.735409 C282.031807,107.903916 277.474778,107.990305 272.910602,109.394123 C266.823842,111.283879 262.002327,115.056191 258.814194,119.418827 C257.220128,121.610944 256.022791,123.972238 255.34013,126.470315 C254.671766,128.953994 254.500207,131.646446 255.304389,134.331698 C256.101422,136.984555 257.802712,139.173072 259.807805,140.695675 C262.845824,142.999377 266.509317,144.082837 270.419426,144.421194 C274.340258,144.741552 278.575614,144.262814 282.846711,142.952584 L281.281238,137.787252 L281.960324,143.143359 C282.117586,143.121762 282.417814,143.082167 282.846711,142.952584 L281.281238,137.787252 L281.960324,143.143359 L281.281238,137.787252 L281.831655,143.157757 L281.960324,143.143359 L281.281238,137.787252 L281.831655,143.157757 L281.281238,137.794451 L281.824507,143.161357 L281.831655,143.157757 L281.281238,137.794451 L281.824507,143.161357 C281.845952,143.150558 282.217662,143.143359 282.886026,142.938185 C283.382832,142.787005 284.040474,142.481045 284.61591,142.016705 C285.502297,141.314795 286.041992,140.382516 286.277885,139.741799 C286.528075,139.079484 286.581687,138.636742 286.617428,138.316383 L281.281238,137.787252 L278.908009,142.628625 C278.915157,142.628625 279.054548,142.718614 279.533483,142.891391 C279.776525,142.974181 280.116068,143.082167 280.645041,143.150558 C281.170439,143.21175 281.924583,143.229748 282.846711,142.952584 C288.540316,141.181613 293.36183,138.269589 296.793005,134.522474 C298.505018,132.639917 299.881062,130.519791 300.695966,128.108103 C301.514444,125.714413 301.707447,122.939172 300.896117,120.293514 L295.767227,121.87011 L290.64191,123.450306 C290.706244,123.695074 290.749134,123.983037 290.53826,124.645351 C290.238032,125.613626 289.162216,127.229817 287.264348,128.741621 C285.38435,130.264224 282.760931,131.68964 279.71219,132.625519 L281.281238,137.787252 L281.91386,132.427545 C281.392036,132.366353 280.634318,132.344755 279.71219,132.625519 L281.281238,137.787252 L281.91386,132.427545 L281.281238,137.787252 L283.325646,132.798297 C283.082604,132.704709 282.707319,132.531931 281.91386,132.427545 L281.281238,137.787252 L283.325646,132.798297 L281.281238,137.783652 L283.654466,132.945878 L283.325646,132.798297 L281.281238,137.783652 L283.654466,132.945878 C282.078271,132.161179 280.21257,132.207973 278.67569,133.068262 C277.142383,133.928551 276.116605,135.497948 275.945047,137.25812 L281.281238,137.787252 L276.381092,135.591535 C276.041548,136.383433 275.987936,136.901766 275.945047,137.25812 L281.281238,137.787252 L276.381092,135.591535 L281.281238,137.787252 L277.839341,133.647787 C277.117365,134.252509 276.631281,135.01201 276.381092,135.591535 L281.281238,137.787252 L277.839341,133.647787 L281.281238,137.787252 L279.487019,132.701109 C278.990214,132.873887 278.368313,133.197845 277.839341,133.647787 L281.281238,137.787252 L279.487019,132.701109 L281.281238,137.787252 L280.734394,132.416746 C280.695079,132.427545 280.248311,132.438343 279.487019,132.701109 L281.281238,137.787252 L280.734394,132.416746 L280.698653,132.420346 C280.591429,132.434744 280.255459,132.45994 279.71219,132.625519 C275.655541,133.888956 271.723987,133.968145 269.104143,133.31663 C267.796008,133.00347 266.838138,132.521133 266.309165,132.107186 C265.765896,131.675242 265.640801,131.416075 265.558596,131.174907 C265.487113,130.966134 265.412056,130.311018 265.687265,129.313947 C266.073272,127.82374 267.238442,125.743209 269.061253,123.939842 C270.873342,122.122077 273.289461,120.563479 276.045123,119.721188 C279.708616,118.580135 283.436444,118.896894 286.224273,119.965956 C287.614613,120.495088 288.747616,121.204196 289.487463,121.880909 C290.241606,122.557621 290.563279,123.165942 290.64191,123.450306 L295.767227,121.87011" id="Fill-28"></path>
                        <path d="M270.576688,138.445966 C270.694635,138.424369 274.036456,137.751256 278.38261,136.412229 C281.649374,135.40436 285.477278,134.036537 289.044269,132.171978 C290.831339,131.232499 292.557649,130.170637 294.144567,128.878404 C295.720763,127.582571 297.189734,126.04917 298.269125,124.026231 C299.659465,121.394971 298.665854,118.126594 296.053158,116.726375 C293.436887,115.326156 290.191568,116.326827 288.801228,118.958087 C288.668985,119.228052 288.211495,119.825574 287.385868,120.495088 C286.159938,121.506557 284.187013,122.636811 281.99964,123.601486 C279.808692,124.57696 277.403296,125.422851 275.248089,126.085165 C273.33235,126.675489 271.609615,127.12543 270.380111,127.424192 C269.768933,127.571773 269.279276,127.683358 268.950455,127.755349 L268.578744,127.834539 L268.478668,127.856136 C265.576467,128.43926 263.692895,131.286492 264.271906,134.209314 C264.850916,137.132136 267.674487,139.029091 270.576688,138.445966" id="Fill-29"></path>
                        <path d="M204.594491,99.0130659 L201.077538,94.9347934 C199.036704,96.7309611 197.739291,99.0346631 196.956554,101.45715 C195.794959,105.107078 195.716328,109.149355 196.609863,113.245625 C197.510546,117.334697 199.444156,121.488559 202.571528,125.11689 C206.763994,129.947465 212.146649,132.84869 217.400635,134.00774 C220.03835,134.583666 222.665343,134.724048 225.21013,134.335298 C227.737047,133.939349 230.249668,133.00347 232.354836,131.171307 C234.434986,129.360741 235.732398,126.905859 236.297112,124.440178 C237.151332,120.71106 236.643804,116.899153 235.360688,113.162836 C234.056127,109.42292 231.90092,105.722598 228.9737,102.324638 L224.927773,105.86658 L229.238186,102.659394 L228.9737,102.324638 L224.927773,105.86658 L229.238186,102.659394 L224.927773,105.86658 L229.277502,102.713387 L229.238186,102.659394 L224.927773,105.86658 L229.277502,102.713387 L229.231038,102.652195 C229.098795,102.475818 228.57697,101.748712 227.565489,101.169187 C226.557581,100.575264 225.338799,100.413285 224.609675,100.478076 L224.924199,105.86658 L230.099554,104.459162 C230.099554,104.455562 230.063812,104.289984 229.931569,103.93003 C229.792178,103.577276 229.541988,102.994151 228.970126,102.324638 C225.052868,97.8072219 220.445802,94.5568422 215.65288,92.9226536 C213.251058,92.1163578 210.767031,91.7096105 208.247262,91.9399807 C205.745364,92.1631518 203.150539,93.1134289 201.077538,94.9347934 L204.594491,99.0130659 L208.111445,103.087739 C208.308023,102.92576 208.551064,102.77098 209.240873,102.69539 C210.241632,102.576605 212.143075,102.907762 214.287559,104.041616 C216.432043,105.150272 218.790975,106.986035 220.878273,109.408522 L224.924199,105.86658 L219.920403,107.803129 C220.059795,108.155884 220.309985,108.742608 220.878273,109.408522 L224.924199,105.86658 L219.920403,107.803129 L224.920625,105.870179 L219.748845,107.277597 C219.752419,107.277597 219.78816,107.443176 219.920403,107.803129 L224.920625,105.870179 L219.748845,107.277597 C220.413635,109.746878 222.704658,111.409863 225.242298,111.258682 L224.924199,105.870179 L223.240779,110.992317 C224.005645,111.247884 224.720473,111.291078 225.242298,111.258682 L224.924199,105.870179 L223.240779,110.992317 L224.924199,105.86658 L220.803216,109.322133 C221.114166,109.73248 222.068461,110.628764 223.240779,110.992317 L224.924199,105.86658 L220.803216,109.322133 L224.924199,105.870179 L220.574471,109.019772 L220.803216,109.322133 L224.924199,105.870179 L220.574471,109.019772 L220.878273,109.412121 C223.676824,112.626505 225.345948,116.215241 225.821308,118.886096 C226.071498,120.221523 226.025034,121.294184 225.864198,121.952899 C225.692639,122.629612 225.506784,122.849183 225.320929,123.021961 C225.160092,123.173141 224.598953,123.507898 223.580323,123.662678 C222.072036,123.911046 219.713103,123.687875 217.3363,122.744797 C214.948775,121.812517 212.554101,120.225123 210.666955,118.033006 C208.143612,115.124582 206.910534,111.568242 206.749698,108.56623 C206.663918,107.072424 206.8462,105.744195 207.15715,104.786719 C207.464526,103.818444 207.886274,103.274915 208.111445,103.087739 L204.594491,99.0130659" id="Fill-30"></path>
                        <path d="M229.877957,115.444941 C229.806474,115.347753 227.840697,112.547316 224.856291,109.091763 C222.611731,106.496498 219.816753,103.534081 216.675084,101.007208 C215.095314,99.747371 213.429765,98.5883209 211.610528,97.6560414 C209.794865,96.7345606 207.807643,96.0038551 205.53449,95.834677 C202.578676,95.625904 200.019592,97.868414 199.812292,100.845229 C199.604992,103.818444 201.831681,106.399311 204.787495,106.608084 C205.087723,106.618882 205.813273,106.79526 206.756846,107.284796 C208.17578,108.001104 209.998591,109.358128 211.76779,110.977919 C213.540564,112.59411 215.284744,114.462268 216.764438,116.175646 C218.079721,117.69825 219.187705,119.102068 219.959719,120.109938 C220.342152,120.613872 220.64238,121.02062 220.842531,121.294184 L221.064128,121.600145 L221.124889,121.682934 C222.833327,124.11622 226.182297,124.695745 228.598415,122.971568 C231.014534,121.25099 231.586396,117.878226 229.877957,115.444941" id="Fill-31"></path>
                        <path d="M227.547618,136.412229 L227.733473,131.016527 C224.520321,130.91574 221.589527,132.020797 219.055462,133.672984 C215.245428,136.185459 212.085889,140.004565 209.684067,144.716355 C207.300115,149.428146 205.72392,155.072216 205.505897,161.259816 C205.234262,169.517148 207.389469,177.072571 210.809921,182.893018 C212.53623,185.801442 214.580638,188.299519 216.993183,190.221671 C219.395005,192.125824 222.261465,193.533242 225.560396,193.662825 C228.82716,193.788809 231.854457,192.518174 234.18837,190.671612 C237.716046,187.867575 240.157184,183.857694 241.969273,179.142303 C243.759917,174.416115 244.842881,168.912426 245.050181,162.987593 C245.311093,155.083015 244.010106,147.833552 241.372391,142.059899 C240.035663,139.176672 238.359391,136.628201 236.129128,134.608863 C233.931032,132.600322 231.000237,131.120914 227.733473,131.016527 L227.547618,136.412229 L227.358189,141.807932 C227.694158,141.829529 228.144499,141.923117 228.977274,142.650223 C230.196056,143.708486 231.793696,146.249757 232.837345,149.795299 C233.906013,153.326442 234.506468,157.797064 234.33491,162.609641 C234.12761,169.027611 232.554988,174.747272 230.542747,178.390001 C229.549136,180.214965 228.459024,181.4892 227.608378,182.144315 C226.72914,182.810229 226.27165,182.871421 225.935681,182.871421 C225.635453,182.875021 224.774085,182.655449 223.633935,181.744767 C221.925496,180.412939 219.856069,177.670094 218.412116,174.102955 C216.950293,170.539416 216.060332,166.187579 216.221169,161.637767 C216.42132,155.572551 218.476451,150.198446 221.046257,146.61331 C222.318651,144.824341 223.708992,143.499713 224.888458,142.733012 C226.078646,141.951913 226.968607,141.782735 227.358189,141.807932 L227.547618,136.412229" id="Fill-32"></path>
                        <path d="M235.149814,176.885395 C235.160536,176.784608 235.710954,172.126811 235.928976,165.899616 C236.086238,161.223821 236.068368,155.676938 235.439319,150.378423 C235.12122,147.729166 234.653008,145.133901 233.920309,142.682618 C233.176888,140.238535 232.194,137.902437 230.582063,135.811107 C228.755677,133.464211 225.388837,133.050264 223.054924,134.889626 C220.724585,136.725389 220.313559,140.11975 222.139944,142.466646 C222.572415,143.006577 223.180019,144.187224 223.658954,145.810614 C224.395227,148.2403 224.88131,151.587867 225.10648,155.090214 C225.335225,158.59976 225.324503,162.278484 225.213705,165.521665 C225.113629,168.408491 224.931348,170.956962 224.77766,172.767528 C224.699028,173.67461 224.63112,174.394517 224.581082,174.884054 L224.520321,175.438382 L224.502451,175.603961 C224.148611,178.566378 226.250205,181.251631 229.188148,181.607984 C232.129665,181.960739 234.795974,179.844213 235.146239,176.885395" id="Fill-33"></path>
                        <path d="M248.456336,225.579898 L246.797936,220.446962 C243.917179,221.400838 241.697638,223.326589 240.00707,225.572699 C237.483727,228.974259 235.957569,233.268504 235.357114,238.073882 C234.770955,242.875661 235.167684,248.21737 236.901142,253.595075 C239.227907,260.765348 243.413225,266.564198 248.170405,270.494889 C250.557931,272.456636 253.102718,273.96844 255.811916,274.871923 C258.49967,275.761008 261.466206,276.084966 264.43989,275.12749 C267.381407,274.177213 269.65456,272.064286 271.109235,269.695793 C273.310905,266.110656 274.157977,261.874004 274.250904,257.255801 C274.318813,252.633999 273.543225,247.591051 271.891972,242.461715 C269.672431,235.626199 266.327036,229.834548 262.252517,225.691483 C260.204534,223.625351 257.952826,221.947968 255.365149,220.893304 C252.806065,219.83864 249.732304,219.475087 246.797936,220.446962 L250.114737,230.716434 C250.264851,230.676839 250.532912,230.594049 251.372835,230.914408 C252.595191,231.375148 254.668192,232.962543 256.591079,235.583004 C258.535411,238.181868 260.383241,241.72741 261.694951,245.798483 C263.457002,251.219382 263.864454,256.474702 263.289017,260.070637 C263.017383,261.866805 262.499132,263.216631 262.03092,263.950936 C261.537689,264.706838 261.273202,264.800426 261.126663,264.858018 C261.015864,264.908412 260.340352,265.012798 259.171608,264.616849 C257.434576,264.062521 254.904085,262.439131 252.648803,259.923056 C250.372075,257.41778 248.327667,254.077412 247.098163,250.258306 C245.443337,245.172164 245.546987,240.089621 246.590635,236.371302 C247.105312,234.513942 247.852307,233.023735 248.567135,232.077058 C249.285537,231.112382 249.911011,230.770427 250.114737,230.716434 L248.456336,225.579898" id="Fill-34"></path>
                        <path d="M267.778137,257.331392 C267.753118,257.230605 266.795248,253.109138 265.065365,247.75303 C263.764378,243.73235 262.048791,239.024159 259.879288,234.701118 C258.789175,232.537798 257.588264,230.464466 256.194349,228.585509 C254.789712,226.710152 253.209943,224.996773 251.122645,223.672145 C248.610025,222.095548 245.303945,222.865849 243.738472,225.396322 C242.169424,227.926794 242.937864,231.259963 245.450485,232.836559 C245.900826,233.106524 246.737175,233.866026 247.609265,235.057472 C248.938845,236.832043 250.361353,239.4813 251.608728,242.350129 C252.866825,245.222558 253.974809,248.321757 254.868344,251.089799 C255.661803,253.55188 256.287277,255.751196 256.709026,257.324193 C256.9199,258.112491 257.077162,258.742409 257.184386,259.167154 L257.302333,259.649492 L257.338074,259.793473 C258.013587,262.698298 260.897918,264.498065 263.782248,263.817753 C266.663005,263.137441 268.453649,260.232616 267.778137,257.331392" id="Fill-35"></path>
                        <path d="M244.692767,171.12254 L243.763491,165.806028 C240.475282,166.399951 237.716046,168.170922 235.464338,170.42783 C232.093924,173.843789 229.652786,178.497987 228.194537,183.911687 C226.757733,189.325386 226.353855,195.530984 227.483283,201.999347 C229.009441,210.627432 232.905254,217.992079 237.71962,223.261798 C240.142887,225.893057 242.802047,228.020382 245.700675,229.467395 C248.585006,230.892811 251.819602,231.699106 255.197164,231.112382 C258.542559,230.529258 261.351833,228.58191 263.342629,226.177421 C266.352055,222.534692 268.01403,217.848098 268.857527,212.553183 C269.679579,207.251068 269.597374,201.290239 268.51441,195.081042 C267.049012,186.798513 264.103921,179.55265 260.111607,174.164147 C258.099366,171.471695 255.811916,169.218387 253.091996,167.638191 C250.404243,166.065195 247.105312,165.201306 243.763491,165.806028 L244.692767,171.12254 L245.625618,176.439053 C246.083108,176.367062 246.669267,176.395859 247.755805,177.00418 C249.353446,177.889665 251.615876,180.243761 253.517319,183.760506 C255.440206,187.259254 257.062865,191.841461 257.952826,196.9564 C259.160886,203.766719 258.785601,210.159492 257.459595,214.496931 C256.812676,216.663851 255.933437,218.287241 255.147126,219.215921 C254.332223,220.162598 253.788953,220.389369 253.335037,220.479357 C252.916863,220.569346 251.894659,220.508154 250.447132,219.781048 C248.288352,218.733583 245.475504,216.2823 243.148739,212.830347 C240.804103,209.381993 238.891938,204.979762 238.044867,200.12399 C236.901142,193.659226 237.873308,187.504022 239.79977,183.105391 C240.750491,180.909675 241.937105,179.1711 243.041515,178.066043 C244.153072,176.942988 245.114516,176.518243 245.625618,176.439053 L244.692767,171.12254" id="Fill-36"></path>
                        <path d="M261.216016,211.811678 C261.205294,211.710891 260.754952,206.721937 259.611227,200.170784 C258.746285,195.25382 257.502485,189.469368 255.686822,184.095263 C254.771842,181.406411 253.71747,178.814746 252.420058,176.439053 C251.119071,174.070559 249.596487,171.885642 247.498467,170.103872 C245.225314,168.18892 241.844178,168.487681 239.946309,170.776985 C238.044867,173.06269 238.341521,176.467849 240.614674,178.382802 C241.236574,178.893935 242.155128,180.027789 243.027218,181.647579 C244.356798,184.066467 245.611321,187.482425 246.626377,191.114355 C247.645007,194.753484 248.449188,198.615785 249.049644,202.046141 C249.585765,205.098547 249.961049,207.808996 250.196943,209.745546 C250.318463,210.71382 250.404243,211.48772 250.457855,212.013252 L250.518615,212.607176 L250.536486,212.790752 C250.804546,215.760368 253.413669,217.948885 256.362334,217.67892 C259.310999,217.408955 261.484076,214.781294 261.216016,211.811678" id="Fill-37"></path>
                        <path d="M264.386278,200.638723 L261.952289,195.826146 C258.982179,197.363147 256.855565,199.868423 255.358001,202.690458 C253.124163,206.952307 252.144849,212.121238 252.319982,217.725714 C252.516559,223.326589 253.935493,229.381006 256.891307,235.233849 C260.855028,243.034041 266.720191,248.933678 272.853416,252.55121 C275.93075,254.354577 279.093864,255.603615 282.285571,256.136346 C285.459407,256.65108 288.783357,256.471103 291.846395,254.916104 C294.873692,253.371904 296.996731,250.683051 298.201216,247.796225 C300.024027,243.42639 300.249198,238.455433 299.523648,233.14252 C298.76593,227.833206 296.960989,222.153141 294.119548,216.534268 C290.316663,209.047236 285.395073,202.98562 280.012418,199.004535 C277.306794,197.024791 274.465353,195.545382 271.405889,194.832674 C268.378592,194.119966 264.972437,194.267547 261.952289,195.826146 L266.820267,205.447701 C267.234868,205.246127 267.803156,205.098547 269.021938,205.361313 C270.805433,205.735664 273.650449,207.323059 276.49189,210.123497 C279.344054,212.905937 282.228385,216.807832 284.565872,221.436834 C287.700393,227.595637 289.194383,233.819232 289.183661,238.358245 C289.197957,240.622353 288.826247,242.432918 288.343738,243.552374 C287.839784,244.697026 287.385868,245.074977 286.978417,245.294548 C286.603132,245.503321 285.605947,245.74449 284.01188,245.478125 C281.642226,245.110972 278.246793,243.595568 275.01577,240.978706 C271.774025,238.372643 268.664524,234.726315 266.444983,230.331283 C263.474872,224.485639 262.617079,218.312438 263.181793,213.539455 C263.457002,211.156563 264.08605,209.148023 264.822323,207.765802 C265.558596,206.361983 266.355629,205.674472 266.820267,205.447701 L264.386278,200.638723" id="Fill-38"></path>
                        <path d="M292.000083,234.68672 C291.960768,234.593132 290.08077,229.953332 287.082067,224.024899 C284.830358,219.575874 281.960324,214.410542 278.661393,209.806738 C277.01014,207.503036 275.248089,205.336116 273.318054,203.44636 C271.384444,201.567403 269.293572,199.926016 266.770229,198.835357 C264.043161,197.676306 260.897918,198.957741 259.74347,201.704186 C258.589023,204.45063 259.864991,207.618221 262.59206,208.78087 C263.335481,209.086831 264.54354,209.903925 265.848101,211.192558 C267.821027,213.11471 270.015548,216.012335 272.034938,219.187125 C274.068623,222.365514 275.959343,225.824666 277.528391,228.927465 C278.925879,231.688308 280.073178,234.171987 280.863063,235.953756 C281.256219,236.842841 281.563595,237.555549 281.770895,238.041486 L281.99964,238.595815 L282.071122,238.764993 C283.189828,241.525836 286.317201,242.850464 289.058566,241.72381 C291.799931,240.597156 293.115215,237.447563 292.000083,234.68672" id="Fill-39"></path>
                        <path d="M249.113978,142.632225 L245.890104,138.319983 C243.381058,140.238535 241.837029,142.891391 240.92205,145.706227 C239.567451,149.953678 239.50669,154.769855 240.550339,159.791206 C241.608284,164.801758 243.834974,170.013884 247.412688,174.801265 C252.202035,181.17604 258.392445,185.538676 264.489928,187.820781 C267.549392,188.951035 270.605282,189.577354 273.600411,189.544958 C276.574095,189.501764 279.60854,188.799854 282.199791,186.848907 C284.76245,184.915957 286.285033,182.072324 286.928379,179.232292 C287.893396,174.927248 287.300089,170.406233 285.809673,165.744836 C284.297812,161.094237 281.785191,156.296058 278.364739,151.71745 C273.786266,145.623438 268.432204,140.97284 262.9459,138.240793 C260.193812,136.890967 257.380964,135.998283 254.460892,135.843503 C251.576561,135.681524 248.438466,136.372634 245.890104,138.319983 L249.113978,142.632225 L252.341427,146.944467 C252.563023,146.789687 252.902567,146.595312 253.928345,146.627708 C255.425909,146.670903 258.120811,147.581585 261.015864,149.582926 C263.92164,151.55907 267.045438,154.525087 269.8011,158.21461 C273.489612,163.120775 275.744895,168.3401 276.420407,172.256394 C276.774247,174.207342 276.720635,175.801935 276.488316,176.777409 C276.238126,177.77808 275.955769,178.055244 275.744895,178.224422 C275.566188,178.379202 274.837063,178.735556 273.461019,178.746355 C271.427334,178.793148 268.253498,178.015649 265.054642,176.237479 C261.84149,174.477307 258.578301,171.781255 255.976327,168.300505 C252.498689,163.675104 250.818843,158.430582 250.586524,154.226326 C250.461429,152.127797 250.70447,150.310032 251.119071,149.050195 C251.530097,147.765161 252.07694,147.131643 252.341427,146.944467 L249.113978,142.632225" id="Fill-40"></path>
                        <path d="M279.326183,168.178121 C279.272571,168.091732 276.881471,164.265427 273.289461,159.463648 C270.590985,155.864114 267.234868,151.71745 263.564226,148.125115 C261.727118,146.328947 259.807805,144.665962 257.770545,143.269343 C255.729711,141.883522 253.570931,140.724472 251.069033,140.134148 C248.184702,139.468234 245.307519,141.2824 244.642729,144.187224 C243.981513,147.095648 245.78288,149.993273 248.667211,150.659187 C249.281963,150.78877 250.425688,151.289105 251.748119,152.203387 C253.742489,153.560412 256.112144,155.759727 258.381723,158.236207 C260.65845,160.716286 262.86012,163.46993 264.725821,165.964408 C266.387796,168.181721 267.781711,170.193861 268.753877,171.644473 C269.243534,172.367979 269.622393,172.947504 269.879731,173.343453 L270.165662,173.793395 L270.251442,173.930177 C271.831212,176.453451 275.140865,177.209353 277.646337,175.621959 C280.151809,174.034564 280.902379,170.701395 279.326183,168.178121" id="Fill-41"></path>
                        <path d="M219.366412,185.43429 L220.206335,180.09978 C217.339874,179.657037 214.644973,180.33015 212.286041,181.492799 C208.73692,183.26377 205.684604,186.186592 203.179132,189.91571 C200.691531,193.648427 198.793662,198.234234 197.975184,203.417564 C196.902942,210.335869 197.921572,216.897821 200.201873,222.181937 C201.352746,224.827595 202.821718,227.170892 204.698141,229.096643 C206.567417,230.997197 208.929923,232.570194 211.878589,233.056131 C214.791513,233.53127 217.632954,232.714175 219.856069,231.346352 C223.230057,229.269421 225.692639,226.10183 227.697732,222.31872 C229.681379,218.52481 231.139629,214.036191 231.918791,209.112028 C232.937421,202.539278 232.6086,196.348078 230.982366,191.175547 C230.153166,188.587482 228.995145,186.222588 227.268835,184.210448 C225.574693,182.219905 223.122833,180.55692 220.206335,180.09978 L218.526489,190.7652 C218.530063,190.775999 218.680177,190.743603 219.176982,191.294332 C219.902533,192.08263 220.917588,194.181158 221.392949,197.075184 C221.889754,199.962011 221.932644,203.590342 221.328615,207.423846 C220.53873,212.531585 218.719492,216.944615 216.821624,219.568675 C215.885199,220.889704 214.945201,221.731995 214.334023,222.091949 C213.690677,222.459101 213.562008,222.383511 213.55486,222.39071 L213.233188,222.250328 C212.850755,222.037956 212.160946,221.451232 211.471137,220.468559 C210.420339,219.007148 209.383839,216.714244 208.808402,214.018193 C208.222243,211.322142 208.07213,208.233741 208.565361,205.105746 C209.305208,200.343562 211.446118,196.301284 213.765734,193.767212 C214.916607,192.500176 216.096074,191.629088 217.003905,191.189945 C217.922459,190.732804 218.469303,190.747203 218.526489,190.7652 L219.366412,185.43429" id="Fill-42"></path>
                        <path d="M222.676065,220.637737 C222.69751,220.54055 223.701843,216.433481 224.573934,210.879399 C225.228001,206.707538 225.817734,201.736581 225.835605,196.898807 C225.839179,194.472721 225.703362,192.07903 225.306632,189.768129 C224.902754,187.460828 224.266558,185.211118 223.00846,183.080194 C221.478728,180.528124 218.183371,179.703831 215.649306,181.240832 C213.111667,182.781433 212.293189,186.096604 213.822921,188.652273 C214.101704,189.095016 214.502007,190.156879 214.741475,191.611091 C215.123908,193.799608 215.198965,196.805219 215.016683,199.926016 C214.841551,203.057611 214.437673,206.322388 213.983757,209.191217 C213.583453,211.743287 213.147408,213.989397 212.815013,215.580391 C212.647029,216.375888 212.507637,217.009406 212.407561,217.434151 L212.296763,217.920088 L212.261022,218.06407 C211.556916,220.958096 213.315393,223.880918 216.189001,224.593625 C219.066184,225.306333 221.968386,223.535362 222.676065,220.637737" id="Fill-43"></path>
                        <path d="M224.706177,72.513293 L225.728381,77.8118078 C228.090887,77.3438683 230.067387,76.163221 231.686472,74.6982104 C234.109739,72.4772976 235.853919,69.5544756 236.915439,66.1925104 C237.962662,62.8341447 238.291483,58.997041 237.526617,55.0339535 C236.49369,49.7498368 233.798789,45.380002 230.453394,42.3059995 C228.769974,40.7689983 226.904273,39.541557 224.841994,38.7280622 C222.794012,37.9289656 220.481543,37.5186186 218.04398,37.9865581 C215.63501,38.4508981 213.55486,39.7683277 212.06087,41.3845187 C209.802013,43.8322021 208.583232,46.8594106 207.957757,50.1169894 C207.350153,53.3817671 207.378746,56.9417068 208.082852,60.6024333 C209.037147,65.4798026 210.995776,69.745251 213.822921,72.9920311 C215.249002,74.6082221 216.914552,75.9832442 218.919644,76.9191232 C220.906866,77.8550022 223.326559,78.2905459 225.728381,77.8118078 L223.683973,67.2111787 L223.687547,67.2255768 L223.687547,67.2075791 L223.683973,67.2111787 L223.687547,67.2255768 L223.687547,67.2075791 C223.637509,67.2003801 223.369448,67.1427875 222.936977,66.8368271 C222.286484,66.3904848 221.346485,65.3970133 220.535155,63.9500004 C219.716677,62.5065871 219.008998,60.6348292 218.60512,58.5434996 C217.976071,55.3543121 218.247706,52.370298 218.905348,50.552533 C219.223446,49.6382513 219.616601,49.0443281 219.863217,48.7887611 L220.095536,48.5907867 L220.084814,48.5727891 L220.088388,48.5871872 L220.095536,48.5907867 L220.084814,48.5727891 L220.088388,48.5871872 L220.066943,48.4828007 L220.08124,48.5907867 L220.088388,48.5871872 L220.066943,48.4828007 L220.08124,48.5907867 C220.084814,48.5799881 220.492266,48.5799881 221.132037,48.8643514 C222.09348,49.2746983 223.458802,50.2933666 224.577508,51.7547776 C225.71051,53.212589 226.614767,55.0663493 227.004349,57.0928872 C227.551192,59.8753274 227.025794,62.6037745 226.050053,64.5403241 C225.571119,65.5013998 224.988534,66.2429039 224.506025,66.6784476 C224.019942,67.1211903 223.687547,67.2147782 223.683973,67.2111787 L224.706177,72.513293" id="Fill-44"></path>
                        <path d="M212.650603,51.0420697 C212.661325,51.1608544 212.915089,53.9216973 213.619195,57.5716253 C214.151742,60.3144706 214.920182,63.5468526 216.131815,66.6568504 C216.746567,68.2154488 217.464969,69.75245 218.408542,71.213861 C219.355689,72.6644734 220.524433,74.08269 222.193556,75.2309415 C224.64899,76.897526 227.980089,76.2460103 229.63849,73.7731301 C231.293317,71.3002499 230.646397,67.9454837 228.190963,66.2788992 C228.151648,66.2609016 227.797808,65.9585407 227.39393,65.3214231 C226.775604,64.378345 226.071498,62.7801517 225.510358,61.0019817 C224.94207,59.2238116 224.481006,57.2656649 224.145037,55.5126916 C223.844809,53.9540931 223.637509,52.5538742 223.505266,51.5640022 C223.440931,51.0672665 223.394467,50.6749172 223.365874,50.4121512 L223.333707,50.1205889 L223.326559,50.0449987 C223.054924,47.0753827 220.442228,44.8940648 217.493562,45.1676294 C214.544897,45.4411941 212.378968,48.0724538 212.650603,51.0420697" id="Fill-45"></path>
                        <path d="M205.377228,228.725891 C205.37008,228.837477 205.298597,229.798552 205.298597,231.324755 C205.302171,233.614059 205.448711,237.1596 206.270763,241.072294 C207.110686,244.97419 208.576083,249.329626 211.721326,253.062344 C213.150982,254.754125 214.973794,255.985166 216.828772,256.694274 C218.694473,257.41778 220.560174,257.666148 222.315077,257.666148 C226.814919,257.630153 230.750047,256.150744 233.770196,254.815317 C236.772473,253.458293 238.79901,252.144462 238.952698,252.047275 C241.443874,250.434684 242.162276,247.094316 240.561061,244.58544 C238.959847,242.080164 235.643045,241.353058 233.155443,242.965649 L233.891716,244.1211 L233.162592,242.96205 L233.155443,242.965649 L233.891716,244.1211 L233.162592,242.96205 C233.094683,243.005244 231.407689,244.067107 229.170277,245.056979 C226.954311,246.064849 224.134314,246.899941 222.315077,246.867545 C221.582378,246.867545 221.039109,246.759559 220.685269,246.619177 C220.327855,246.471596 220.131278,246.342013 219.859643,246.032453 C218.444284,244.409063 217.347023,241.684215 216.760864,238.829784 C216.156834,235.989752 216.017443,233.099325 216.021017,231.324755 C216.021017,230.730832 216.035313,230.262892 216.04961,229.953332 L216.067481,229.618576 L216.071055,229.550184 L215.467025,229.50699 L216.071055,229.553784 L216.071055,229.550184 L215.467025,229.50699 L216.071055,229.553784 C216.296225,226.580568 214.087407,223.985304 211.135167,223.758533 C208.182928,223.528163 205.605973,225.752676 205.380802,228.725891" id="Fill-46"></path>
                    </g>
                </g>
            </g>
        </g>
    </g>
</svg>