<?xml version="1.0" encoding="UTF-8" standalone="no"?>
<svg width="418px" height="390px" viewBox="0 0 418 390" version="1.1" xmlns="http://www.w3.org/2000/svg" xmlns:xlink="http://www.w3.org/1999/xlink" xmlns:sketch="http://www.bohemiancoding.com/sketch/ns">
    <!-- Generator: Sketch 3.2.2 (9983) - http://www.bohemiancoding.com/sketch -->
    <title>bg_chlorella</title>
    <desc>Created with Sketch.</desc>
    <defs></defs>
    <g id="Blank-Project" stroke="none" stroke-width="1" fill="none" fill-rule="evenodd" sketch:type="MSPage">
        <g id="Pagina-Producto-27" sketch:type="MSArtboardGroup" transform="translate(-412.000000, -111.000000)" stroke="#000000" stroke-opacity="0.518710371" stroke-width="7.64000034" stroke-linecap="round" stroke-linejoin="round">
            <g id="bg_amaranto-2" sketch:type="MSLayerGroup" transform="translate(0.000000, 26.000000)">
                <g id="bg_chlorella" transform="translate(416.000000, 88.000000)" sketch:type="MSShapeGroup">
                    <path d="M51.8780327,69.8097891 C51.1894644,71.3238516 35.1307866,107.238363 41.2645842,136.701308 C47.1094997,164.760879 71.4507829,209.609545 168.7803,194.694251 C272.516668,178.798571 286.351349,123.837706 287.483134,100.948876 C288.421011,82.013212 285.369942,55.2067945 265.504352,35.0061172 C247.352269,16.5527391 218.927063,7.80042997 181.008322,8.99823921 C85.4872862,12.0145047 54.8776576,61.2630446 53.6192397,63.3582224" id="Stroke-204"></path>
                    <path d="M37.8728082,143.297677 C37.3267023,143.760198 -16.3776635,190.375929 5.56154542,250.131984 C25.8743087,305.456539 46.2108156,330.009652 69.5588193,327.39661 C79.3887246,326.29763 90.9677516,317.513695 99.7727191,304.480107 C114.141635,283.208122 118.217642,256.093358 110.959974,230.089433 C96.8641118,179.58774 76.4445018,160.466277 75.5818128,159.675643" id="Stroke-206"></path>
                    <path d="M170.716112,366.025283 C169.742619,365.657638 146.200708,356.403277 137.186005,322.975307 C128.701578,291.508107 141.147251,236.009612 210.217769,212.089006 C276.284705,189.204129 339.284742,197.861562 349.395615,220.572499 C360.574955,245.683009 367.990915,297.592029 340.297808,329.980317 C313.095405,361.791442 265.50505,378.600303 219.054395,372.804962 L173.802798,367.155888" id="Stroke-208"></path>
                    <path d="M273.350923,60.2811951 C273.857455,60.3642115 324.194169,68.7330636 344.499017,85.9253818 C365.623025,103.801598 381.804378,136.304527 383.122156,154.291431 C384.491377,173.005718 368.962976,204.551982 361.974404,208.686993 C355.17974,210.070601 320.276453,183.12187 304.550187,159.489845 C290.078382,137.747433 282.923604,118.444124 282.852373,118.250419" id="Stroke-210"></path>
                    <path d="M34.425656,86.478139 C33.0326904,88.5140194 0.297997699,136.750549 0.297997699,171.198436 C0.297997699,268.529331 32.0631546,329.479242 94.7109931,352.360166 C174.573038,381.530576 316.493285,415.492224 369.734648,315.232032 C417.799877,224.720348 416.778897,183.955302 396.861862,131.773513 C377.969766,82.2680174 330.806798,30.9875503 291.732529,17.4558637 C253.778172,4.31158733 193.473049,-6.24336541 148.435145,7.27250853 C104.335119,20.5116609 59.2378566,50.456892 38.7707591,80.1016825" id="Stroke-212"></path>
                    <path d="M191.220282,81.253418 C191.022418,82.3168196 186.558596,107.455001 198.572925,120.480682 C203.962752,126.323462 211.521174,128.802097 221.034496,127.84543 C242.510702,125.687002 259.954431,115.934542 266.555189,102.390996 C270.540178,94.2198019 270.053432,85.4833054 265.182009,77.7904447 C257.140799,65.088923 241.909194,54.790926 228.145744,52.7471393 C220.381543,51.5928148 213.776828,53.1345495 209.047868,57.2102635" id="Stroke-214"></path>
                    <path d="M278.59992,318.051474 C274.322091,312.615871 268.10519,301.633976 269.628746,295.308911 C269.937415,294.028085 270.713043,292.154285 273.859088,290.703473 C289.355831,283.556149 311.184235,278.903273 320.891465,283.481039 C323.360813,284.647223 324.801266,286.303599 325.430475,288.699218 C329.68456,304.958589 329.546055,317.328045 325.034746,323.530562 C322.688074,326.760298 319.007795,328.475972 313.77626,328.784319 C293.154828,329.993988 286.5976,324.578151 286.534284,324.522806" id="Stroke-216"></path>
                    <path d="M342.990542,91.9065216 C336.93589,93.2308322 306.480596,100.60744 301.708106,115.641329 C300.536748,119.333586 300.35867,125.065677 306.160056,131.398648 C310.794041,136.462654 314.739458,142.024758 318.221872,146.930637 C325.297504,156.908427 330.885196,164.787087 339.322136,165.293092 C344.403294,165.601439 349.35782,163.012115 354.470637,157.382807 C368.455695,141.989179 378.736732,113.641027 374.114618,103.220482 C372.745396,100.129107 370.022782,98.2869313 366.837164,98.2869313" id="Stroke-218"></path>
                    <path d="M146.717682,194.688833 C146.923461,195.851064 151.957132,223.203018 173.25526,229.982697" id="Stroke-220"></path>
                    <path d="M117.065717,319.60492 C116.907426,319.660264 101.141587,325.040523 87.4928984,317.798323 L71.5291955,309.330642" id="Stroke-222"></path>
                    <path d="M261.479056,202.595165 C263.129246,203.520205 301.882974,225.744904 296.829517,266.861781" id="Stroke-224"></path>
                    <path d="M210.034302,80.4149553 C212.990397,94.140347 218.336694,110.798988 227.007114,112.206315 C229.227153,112.566053 233.473324,112.281425 236.987396,106.335864 C239.456744,102.169227 242.230804,98.7536915 244.684323,95.7413792 C248.855305,90.6180763 252.456438,86.1905306 251.138661,80.956539 C249.975218,76.3392413 245.487652,73.9910608 242.214974,72.6272186 C227.430544,66.4681863 216.528213,68.4843008 216.069168,68.5712705" id="Stroke-226"></path>
                    <path d="M326.31667,110.395733 C324.262837,112.921806 314.183623,125.990972 317.571062,135.470664 C318.572256,138.277411 321.093049,141.890605 327.400967,143.18329 C335.762719,144.895011 344.231316,142.242437 350.630252,135.909465 C356.775922,129.825543 359.882394,121.484363 358.548787,114.653293 C357.543636,109.522083 354.666687,106.901134 352.430819,105.608449 C346.490928,102.177101 339.106628,104.537141 338.287469,104.817816" id="Stroke-228"></path>
                    <path d="M281.908278,294.74385 C281.223667,295.550296 275.303563,302.875513 278.014306,311.082285 C280.03648,317.197832 286.083218,321.475158 295.980397,323.795666 C310.784614,327.266546 320.582861,326.21105 325.929158,320.56593 C328.659688,317.680119 331.342729,312.295907 328.6122,303.00992 C324.421431,288.754804 308.588319,282.299284 307.919537,282.030469 C306.490956,281.461213 304.884297,281.548183 303.530904,282.271612 L292.957028,287.889061" id="Stroke-230"></path>
                    <path d="M66,91.9065216 L66,102.552397" id="Stroke-233"></path>
                    <path d="M95.2729281,103.766019 L100.840833,116.388478" id="Stroke-234"></path>
                    <path d="M111.102083,68.1875267 L117.235881,82.2252185" id="Stroke-235"></path>
                    <path d="M138.803104,84.00019 L147.762406,94.3614376" id="Stroke-236"></path>
                    <path d="M134.845816,107.719185 L145.502794,118.930363" id="Stroke-237"></path>
                    <path d="M103.187506,146 L114.410377,146" id="Stroke-238"></path>
                    <path d="M135.89054,151.204009 L130.888527,164.39177" id="Stroke-239"></path>
                    <path d="M170.461415,119.578682 L178.854824,132.201141" id="Stroke-240"></path>
                    <path d="M178,87.9533558 L178,106.224888" id="Stroke-241"></path>
                    <path d="M206.836813,32.6090343 L202.119725,55.1183605" id="Stroke-242"></path>
                    <path d="M166.504126,52.3748634 L172.072031,64.9973219" id="Stroke-243"></path>
                    <path d="M134.845816,40.515366 L142.673333,51.7265442" id="Stroke-244"></path>
                    <path d="M182.333281,253.98632 L190.72669,265.197499" id="Stroke-245"></path>
                    <path d="M224.929537,257.939486 L217.94888,270.561945" id="Stroke-246"></path>
                    <path d="M228,281.658481 L228,291.458379" id="Stroke-247"></path>
                    <path d="M248,238.173657 L248,247.973555" id="Stroke-248"></path>
                    <path d="M210.034302,230.267325 L215.602208,244.301064" id="Stroke-249"></path>
                    <path d="M103.187506,198.641999 L110.168163,209.853177" id="Stroke-250"></path>
                    <path d="M133,202.595165 L133,213.806343" id="Stroke-251"></path>
                    <path d="M115.059372,214.454662 L120.627277,225.66584" id="Stroke-252"></path>
                    <path d="M122.040029,246.079989 L115.059372,255.879887" id="Stroke-253"></path>
                    <path d="M138.803104,143.297677 L145.783762,153.097575" id="Stroke-254"></path>
                    <path d="M165,155.157175 L165,167.214331" id="Stroke-255"></path>
                    <path d="M200,143.297677 L200,157.331416" id="Stroke-256"></path>
                    <path d="M47.7854629,198.641999 L59.0083338,211.264457" id="Stroke-257"></path>
                    <path d="M35.9135966,242.126823 L44.3070061,254.183979" id="Stroke-259"></path>
                    <path d="M63.6146179,257.939486 L77.6669503,263.501591" id="Stroke-260"></path>
                    <path d="M59.0083338,273.752149 L47.7854629,282.136814" id="Stroke-261"></path>
                    <path d="M59.6573292,309.330642 L74.2715966,317.150004" id="Stroke-262"></path>
                    <path d="M83.8798937,253.98632 L75.4864842,268.024012" id="Stroke-263"></path>
                    <path d="M43.8281741,174.923004 L69.7563301,193.194536" id="Stroke-264"></path>
                    <path d="M236.801403,226.31416 L229.820746,237.525338" id="Stroke-265"></path>
                    <path d="M258.000599,206.54833 L249.60719,216.348229" id="Stroke-266"></path>
                    <path d="M144,277.705315 L144,290.327774" id="Stroke-267"></path>
                    <path d="M171.221214,317.236974 L166.504126,328.448152" id="Stroke-268"></path>
                    <path d="M190.247858,321.668472 L202.883481,313.283808" id="Stroke-269"></path>
                    <path d="M202.119725,317.236974 L216.172057,323.364381" id="Stroke-270"></path>
                    <path d="M335.452655,222.360994 L324.795676,235.833383" id="Stroke-271"></path>
                    <path d="M328.752965,256 L340.541728,256" id="Stroke-272"></path>
                    <path d="M273.350923,155.157175 L280.33158,168.629564" id="Stroke-273"></path>
                    <path d="M248,159.110341 L248,171.732799" id="Stroke-274"></path>
                    <path d="M221,170.969838 L221,180.769736" id="Stroke-275"></path>
                    <path d="M194.205147,194.688833 L206.84077,204.488731" id="Stroke-276"></path>
                    <path d="M154.63226,174.923004 L160.200165,183.307669" id="Stroke-277"></path>
                    <path d="M66,151.204009 L66,162.415187" id="Stroke-278"></path>
                    <path d="M298.701314,91.9065216 L293.137366,109.332077" id="Stroke-279"></path>
                    <path d="M285.222789,68.1875267 L296.44566,80.8099852" id="Stroke-280"></path>
                    <path d="M251.217806,52.3748634 L245.649901,63.5860417" id="Stroke-281"></path>
                    <path d="M325.559433,206.54833 L312.92381,216.909578" id="Stroke-282"></path>
                    <path d="M264,257.939486 L264,269.150664" id="Stroke-283"></path>
                    <path d="M153.983264,292 L142.760393,292" id="Stroke-284"></path>
                    <path d="M158.589548,307 L173.203816,307" id="Stroke-285"></path>
                    <path d="M229.820746,321.190139 L263.667437,326.752244" id="Stroke-286"></path>
                    <path d="M198.162436,340.955968 L207.972555,354.99366" id="Stroke-287"></path>
                    <path d="M166.140055,333.049637 L150.674971,341.434302" id="Stroke-288"></path>
                    <path d="M148.613223,313.283808 L138.803104,323.083706" id="Stroke-289"></path>
                    <path d="M74,218.407828 L74,228.769076" id="Stroke-290"></path>
                    <path d="M109,234.220491 L109,246.84295" id="Stroke-291"></path>
                    <path d="M145.783762,222.360994 L138.803104,233.572172" id="Stroke-292"></path>
                    <path d="M174.418703,202.595165 L180.552501,213.806343" id="Stroke-293"></path>
                    <path d="M142.760393,119.578682 L148.328299,129.37858" id="Stroke-294"></path>
                    <path d="M55.7000404,135.391346 L67.4888036,144.341313" id="Stroke-295"></path>
                    <path d="M41.7664267,210.501496 L31.9563078,223.123955" id="Stroke-296"></path>
                    <path d="M374.804753,143.297677 L362.109771,154.884406 C360.732634,156.141513 360.131127,158.042986 360.53477,159.865395 C360.938414,161.687805 362.287849,163.158382 364.072586,163.715779 C366.336155,164.423395 368.599725,165.131012 370.863294,165.838629 C368.979624,169.522979 367.095955,173.203377 365.212285,176.883774" id="Stroke-297"></path>
                    <path d="M353.260455,159.110341 L340.624832,167.495005" id="Stroke-299"></path>
                    <path d="M313.687567,139.344512 L301.051944,146.317896" id="Stroke-300"></path>
                    <path d="M319.904468,151.204009 L312.92381,161.565257" id="Stroke-301"></path>
                    <path d="M320.838388,174.923004 L330.648507,186.134182" id="Stroke-302"></path>
                    <path d="M286.833405,238.173657 L281.2655,250.796116" id="Stroke-303"></path>
                    <path d="M301.051944,68.1875267 L308.032601,82.2252185" id="Stroke-304"></path>
                    <path d="M324,76.0938584 L324,90.1315502" id="Stroke-305"></path>
                    <path d="M256,72.1406925 L256,86.7397339" id="Stroke-306"></path>
                    <path d="M200.057977,56.3280292 L190.247858,67.5392075" id="Stroke-307"></path>
                    <path d="M187.901186,72.1406925 L182.333281,81.9405906" id="Stroke-308"></path>
                    <path d="M107.144794,269.798984 L114.125452,279.033579" id="Stroke-309"></path>
                    <path d="M103.187506,297.471144 L108.189519,304.444529" id="Stroke-310"></path>
                    <path d="M165,340.955968 L165,347.929353" id="Stroke-311"></path>
                    <path d="M237.735324,340.955968 L250.370947,346.518073" id="Stroke-312"></path>
                    <path d="M271.289175,333.049637 L261.479056,344.260815" id="Stroke-313"></path>
                    <path d="M225.863457,356.768632 L235.107684,370.80237" id="Stroke-314"></path>
                    <path d="M170.461415,360.721798 L191.581465,367.695182" id="Stroke-315"></path>
                    <path d="M200,317.236974 L200,330.709363" id="Stroke-316"></path>
                    <path d="M202.119725,289.564813 L211.929844,299.92606" id="Stroke-317"></path>
                    <path d="M171.221214,265.845818 L166.504126,280.444859" id="Stroke-318"></path>
                    <path d="M63.6146179,230.267325 L74.2715966,238.65199" id="Stroke-319"></path>
                    <path d="M66,190.735667 L66,201.946845" id="Stroke-320"></path>
                    <path d="M85,167.016672 L85,176.81657" id="Stroke-322"></path>
                    <path d="M248.958195,111.672351 L237.735324,121.472249" id="Stroke-323"></path>
                    <path d="M352.496698,190.735667 L358.064603,205.619337" id="Stroke-324"></path>
                    <path d="M337.146375,265.845818 L328.752965,275.645716" id="Stroke-325"></path>
                    <path d="M249.60719,352.815466 L255.175095,368.264438" id="Stroke-326"></path>
                    <path d="M206.077013,367 L222.95485,367" id="Stroke-327"></path>
                    <path d="M317.92978,333.049637 L301.051944,347.083375" id="Stroke-328"></path>
                    <path d="M210.382544,152.350032 L217.466091,149.317954 C215.064016,150.345777 212.274128,149.444455 210.92865,147.206963 L213.96389,152.259109" id="Stroke-329"></path>
                    <path d="M168.766508,102.114386 L173.420279,103.126397 C171.172539,102.636204 169.506521,100.734732 169.324486,98.4418954 L169.728129,103.497994" id="Stroke-331"></path>
                    <path d="M160.702741,92.9185321 L154.63226,91.9065216" id="Stroke-334"></path>
                    <path d="M146.199277,85.7079576 L142.760393,80.0470242" id="Stroke-335"></path>
                    <path d="M154,28.6558685 L154,36.7440458" id="Stroke-336"></path>
                </g>
            </g>
        </g>
    </g>
</svg>