<?xml version="1.0" encoding="UTF-8" standalone="no"?>
<svg width="396px" height="339px" viewBox="0 0 396 339" version="1.1" xmlns="http://www.w3.org/2000/svg" xmlns:xlink="http://www.w3.org/1999/xlink" xmlns:sketch="http://www.bohemiancoding.com/sketch/ns">
    <!-- Generator: Sketch 3.2.2 (9983) - http://www.bohemiancoding.com/sketch -->
    <title>chia</title>
    <desc>Created with Sketch.</desc>
    <defs>
        <rect id="path-1" x="0.5" y="0.91796875" width="554" height="345"></rect>
    </defs>
    <g id="Blank-Project" stroke="none" stroke-width="1" fill="none" fill-rule="evenodd" sketch:type="MSPage">
        <g id="Pagina-Producto-15" sketch:type="MSArtboardGroup" transform="translate(-402.000000, -207.000000)">
            <g id="chia" sketch:type="MSLayerGroup" transform="translate(322.500000, 200.000000)">
                <mask id="mask-2" sketch:name="Mask" fill="white">
                    <use xlink:href="#path-1"></use>
                </mask>
                <use id="Mask" sketch:type="MSShapeGroup" xlink:href="#path-1"></use>
                <g mask="url(#mask-2)" fill="#8B7E74" sketch:type="MSShapeGroup">
                    <g transform="translate(80.066841, 7.000000)">
                        <path d="M230.903774,244.848868 C230.903774,244.848868 247.751574,238.410742 266.701076,219.100719 C285.654851,199.786342 294.074479,178.330276 296.180454,163.307983 C298.286429,148.28569 296.180454,131.121708 283.548876,124.683583 C270.913026,118.245457 226.691824,122.537541 209.848297,135.413792 C193.000497,148.28569 165.627095,171.892151 163.52112,195.494258 C161.415145,219.100719 174.046723,240.556784 188.788547,246.99491 C203.530372,253.433035 230.903774,244.848868 230.903774,244.848868 L230.903774,244.848868 Z" id="Stroke-4"></path>
                        <path d="M168.551166,329.973051 C168.551166,329.973051 143.108414,302.043025 149.465876,282.703835 C155.827639,263.369004 181.274693,254.773809 208.838034,250.476211 C236.401374,246.178613 274.567654,239.732217 291.532357,246.178613 C308.492758,252.62501 336.0604,289.150232 300.014708,319.229057 C263.969016,349.307882 227.919023,345.014643 204.596858,342.865844 C181.274693,340.717045 168.551166,329.973051 168.551166,329.973051 L168.551166,329.973051 Z" id="Stroke-6"></path>
                        <path d="M302.210742,232.117406 C302.210742,232.117406 338.427429,267.990505 363.990878,236.338275 C389.558649,204.686044 398.081239,187.802571 393.819944,149.819038 C389.558649,111.835504 374.644116,92.8458783 342.688724,99.1728998 C310.733332,105.504202 308.602685,122.387675 302.210742,139.266867 C295.818799,156.15034 287.296209,204.686044 302.210742,232.117406 L302.210742,232.117406 Z" id="Stroke-8"></path>
                        <path d="M146.237023,139.335722 C146.237023,139.335722 124.88413,107.297251 137.694133,75.2587813 C150.508468,43.2159782 169.725639,6.9051344 182.539974,2.63709369 C195.35431,-1.63528006 229.521538,-5.90765381 233.792983,34.6755638 C238.064428,75.2587813 223.114371,105.161065 214.57148,122.246227 C206.02859,139.335722 173.997084,154.28903 146.237023,139.335722 L146.237023,139.335722 Z" id="Stroke-10"></path>
                        <path d="M64.5522272,223.293933 C64.5522272,223.293933 110.880137,187.507541 121.410179,170.664877 C131.935948,153.826483 138.253973,111.724092 112.986146,96.9867603 C87.7140464,82.2536993 49.8101693,103.30276 28.7543584,122.250757 C7.69427575,141.194484 -7.04351032,172.77021 3.48653103,189.612875 C14.0123006,206.451269 45.5981528,233.820599 64.5522272,223.293933 L64.5522272,223.293933 Z" id="Stroke-12"></path>
                    </g>
                </g>
            </g>
        </g>
    </g>
</svg>