<?xml version="1.0" encoding="UTF-8" standalone="no"?>
<svg width="778px" height="401px" viewBox="0 0 778 401" version="1.1" xmlns="http://www.w3.org/2000/svg" xmlns:xlink="http://www.w3.org/1999/xlink" xmlns:sketch="http://www.bohemiancoding.com/sketch/ns">
    <!-- Generator: Sketch 3.2.2 (9983) - http://www.bohemiancoding.com/sketch -->
    <title>bg_delifiber</title>
    <desc>Created with Sketch.</desc>
    <defs>
        <path id="path-1" d="M651.609359,235.604611 C634.965402,99.8708743 534.284542,16.454828 404.397013,32.4196425 C387.980278,34.4409481 369.474855,26.0625925 351.908905,17.6886119 C329.178041,6.85143861 308.020247,-3.98573472 294.994352,7.70021198 C267.587974,-6.80768741 232.477922,53.5558493 194.816001,58.1847268 C64.928471,74.1539164 -12.6064095,179.484941 4.03754676,315.214303 C20.6858727,450.948039 110.530027,520.01369 245.363989,503.436359 C259.818755,501.66006 274.706117,502.854468 289.152144,504.044501 C313.788171,506.083307 337.130784,508.122113 354.805976,495.425514 C386.879128,508.174614 423.828799,481.49513 462.928332,476.691248 C597.766662,460.113916 668.253315,371.333972 651.609359,235.604611"></path>
    </defs>
    <g id="Blank-Project" stroke="none" stroke-width="1" fill="none" fill-rule="evenodd" sketch:type="MSPage">
        <g id="Producto-SuperShake-7" sketch:type="MSArtboardGroup" transform="translate(-263.000000, -145.000000)">
            <g id="macuchino-3" sketch:type="MSLayerGroup" transform="translate(223.000000, 118.000000)">
                <g id="bg_delifiber" transform="translate(39.000000, 25.000000)">
                    <path d="M651.609359,235.604611 C634.965402,99.8708743 534.284542,16.454828 404.397013,32.4196425 C387.980278,34.4409481 369.474855,26.0625925 351.908905,17.6886119 C329.178041,6.85143861 308.020247,-3.98573472 294.994352,7.70021198 C267.587974,-6.80768741 232.477922,53.5558493 194.816001,58.1847268 C64.928471,74.1539164 -12.6064095,179.484941 4.03754676,315.214303 C20.6858727,450.948039 110.530027,520.01369 245.363989,503.436359 C259.818755,501.66006 274.706117,502.854468 289.152144,504.044501 C313.788171,506.083307 337.130784,508.122113 354.805976,495.425514 C386.879128,508.174614 423.828799,481.49513 462.928332,476.691248 C597.766662,460.113916 668.253315,371.333972 651.609359,235.604611" id="shape" fill="#F0D700" sketch:type="MSShapeGroup"></path>
                    <g id="mascara">
                        <mask id="mask-2" sketch:name="Clip 10" fill="white">
                            <use xlink:href="#path-1"></use>
                        </mask>
                        <g id="Clip-10"></g>
                        <path d="M7.61628138,337.886177 C6.18740931,330.5491 4.99449777,322.993267 4.03754676,315.214303 C2.5431301,303.020842 1.80903069,291.072388 1.80466105,279.408317 C1.74785574,161.280065 76.5954081,72.7188769 194.816001,58.1847268 C228.457854,54.0502379 260.054716,5.45577519 285.953568,5.45577519 C289.047273,5.45577519 292.066694,6.15141934 294.994352,7.70021198 C298.983833,4.11698834 303.738001,2.65132299 309.064591,2.65132299 C321.129165,2.65132299 336.143246,10.172155 351.908905,17.6886119 C367.678933,25.2050689 384.200539,32.7259009 399.293274,32.7259009 C401.014912,32.7259009 402.719071,32.6296483 404.397013,32.4196425 C415.041454,31.1114815 425.476153,30.4727139 435.701109,30.4727139 C550.207508,30.4727139 636.32873,110.996806 651.609359,235.604611 C653.217386,248.725597 654.01266,261.409071 654.01703,273.633158 C654.01703,278.082655 653.912158,282.462151 653.702416,286.79352 C650.298467,285.787242 646.938214,284.759089 643.630397,283.735311 C619.938213,276.380733 598.933356,269.030531 583.13711,269.030531 C580.379868,269.030531 577.788671,269.253662 575.363522,269.739301 C539.139211,276.99325 456.976883,321.759483 381.303469,321.763858 C377.401381,321.763858 373.516771,321.641354 369.65401,321.391973 C290.926218,316.308083 245.722299,295.167501 199.500254,295.167501 C153.278209,295.167501 81.6641897,318.342514 38.9990312,334.106073 C31.7760173,336.774896 20.8213315,337.886177 7.61628138,337.886177" id="Fill-9" fill="#F3DF5C" sketch:type="MSShapeGroup" mask="url(#mask-2)"></path>
                    </g>
                    <path d="M611.666485,293.605583 L656.07076,140.100107 L753.955051,191.065885 L778.757124,143.31582 L651.775405,77.2033753 L613.558539,93.5925765 L560.030457,278.629545 L611.666485,293.605583" id="pajita" fill="#F0D700" sketch:type="MSShapeGroup"></path>
                </g>
            </g>
        </g>
    </g>
</svg>