<?xml version="1.0" encoding="UTF-8" standalone="no"?>
<svg width="481px" height="215px" viewBox="0 0 481 215" version="1.1" xmlns="http://www.w3.org/2000/svg" xmlns:xlink="http://www.w3.org/1999/xlink" xmlns:sketch="http://www.bohemiancoding.com/sketch/ns">
    <!-- Generator: Sketch 3.2.2 (9983) - http://www.bohemiancoding.com/sketch -->
    <title>Stroke 181</title>
    <desc>Created with Sketch.</desc>
    <defs>
        <rect id="path-1" x="0" y="0" width="554" height="345"></rect>
    </defs>
    <g id="Blank-Project" stroke="none" stroke-width="1" fill="none" fill-rule="evenodd" sketch:type="MSPage">
        <g id="Pagina-Producto-14" sketch:type="MSArtboardGroup" transform="translate(-377.000000, -331.000000)">
            <g id="Stroke-181" sketch:type="MSLayerGroup" transform="translate(304.000000, 201.000000)">
                <mask id="mask-2" sketch:name="Mask" fill="white">
                    <use xlink:href="#path-1"></use>
                </mask>
                <use id="Mask" sketch:type="MSShapeGroup" xlink:href="#path-1"></use>
                <g id="fresa" mask="url(#mask-2)">
                    <g transform="translate(236.000000, 130.000000)">
                        <path d="M315.991488,202.335486 C314.368892,196.029768 313.315067,191.088114 312.418823,186.875274 C309.84089,174.778439 308.663953,169.255704 298.832352,154.238689 C289.306064,139.689495 283.258878,122.609149 278.841674,110.140521 C276.948235,104.797527 275.315791,100.183346 274.050215,97.7457592 C272.981616,95.6824278 271.627401,92.1984016 269.75366,87.379858 C263.78034,72.0230586 253.786233,46.3200557 240.054491,33.9302185 C220.945285,16.689829 210.522753,11.573358 198.753392,13.6563871 C189.517645,15.2912941 185.772625,15.384858 183.992448,15.0401487 C179.333948,16.3278842 159.111823,22.3652214 137.968831,35.2573493 C135.038802,40.3048784 130.070064,45.3647185 126.391523,49.112201 C125.096401,50.4270208 123.50089,52.0545412 123.07739,52.6430092 C121.708401,55.6887621 115.13184,58.3725702 110.337919,59.9730063 C115.048125,64.5994976 116.894782,72.0649162 114.769895,79.8331865 C112.302762,88.8596458 111.411442,102.423957 112.159953,106.156666 L113.851491,114.609431 L106.969616,109.419093 C106.949919,109.406782 103.547145,106.939649 99.8636802,107.451788 C99.048689,107.56505 97.9579302,107.816195 96.6898924,108.099349 C91.4724709,109.263974 82.7882587,111.204195 76.8198634,107.94423 C76.5022384,111.883765 76.1624535,115.719887 75.8374419,118.750867 C75.2342006,124.399175 77.1596483,134.639503 78.5655698,142.117233 C80.2669564,151.158466 80.7101541,153.84966 79.6538663,155.757873 C78.6886802,157.501117 78.3070378,159.441338 78.3045756,159.461035 L77.1030174,165.705198 C76.1550669,164.71539 75.2095785,163.728044 74.2616279,162.738236 C76.4554564,174.436192 81.5965494,192.740256 92.9005523,199.875739 C107.915105,209.352782 108.885215,209.537448 159.722451,219.231166 C169.955392,221.183698 182.182724,223.51541 196.921509,226.383884 C245.82591,235.895399 290.377125,238.724477 297.53723,234.898204 L299.580863,233.829605 C309.217951,228.836245 321.20891,222.621628 315.991488,202.335486 L315.991488,202.335486 L315.991488,202.335486 Z" id="Stroke-507" fill="#E23805" sketch:type="MSShapeGroup"></path>
                        <path d="M93.1344622,41.5656919 C85.767532,32.4530552 74.1040465,20.838814 59.9167965,13.0927035 C37.8307791,1.03526453 23.1067674,0.907229651 23.1067674,0.907229651 L23.8528169,6.3191657 L20.0930233,12.6470436 C20.0930233,12.6470436 24.1310465,14.2819506 33.512064,15.1658837 C42.8930814,16.0473547 47.0862238,16.8352616 64.2946047,27.09775 C74.1828372,32.9972035 83.4998372,46.2685116 89.684907,56.5457733 C90.4358808,51.8774244 91.7383895,46.5615145 93.1344622,41.5656919 L93.1344622,41.5656919 Z" id="Stroke-509" fill="#E23805" sketch:type="MSShapeGroup"></path>
                        <path d="M184.957634,0.907229651 C184.957634,0.907229651 167.298669,16.2123227 152.520488,20.5285756 C146.766305,22.2078023 143.737788,23.5866395 142.159512,24.650314 C144.402584,27.4990901 143.289666,31.4558605 140.741279,35.56775 C146.458529,32.403811 189.31082,8.35048837 184.957634,0.907229651 L184.957634,0.907229651 Z" id="Stroke-511" fill="#E23805" sketch:type="MSShapeGroup"></path>
                        <path d="M114.54974,21.2295904 C114.54974,21.2295904 127.301522,13.9389887 136.374763,21.7663521 C145.448004,29.5961777 120.85792,48.7373928 120.385176,51.2833172 C119.914894,53.8292416 95.356818,63.3185963 96.4574256,57.3772852 C97.5555709,51.4359742 106.914428,45.9206253 113.951423,38.6768056 L115.990132,51.3448724 L114.54974,21.2295904 L114.54974,21.2295904 Z" id="Stroke-513" fill="#E23805" sketch:type="MSShapeGroup"></path>
                        <path d="M65.222363,78.4814115 C67.8150694,73.9509464 77.668831,58.2125046 88.2661799,60.1674988 C93.1068834,61.0612807 97.1916886,63.8115685 99.7646973,67.9136092 C102.815375,72.7740104 103.568811,79.2003767 101.830491,85.5405656 C99.2500956,94.9609784 98.3169182,109.113757 99.0999008,113.011435 C99.3756682,114.395196 98.7699648,115.806042 97.5782555,116.557016 C96.3840839,117.30799 94.8525898,117.243973 93.7248979,116.396973 C93.7052002,116.382199 90.1325345,113.801804 86.2644037,114.338566 C85.4050927,114.456752 84.2552409,114.720208 82.9182613,115.020598 C75.5439444,116.67274 61.8171276,119.748039 57.0798369,109.394449 C51.8968863,98.0633621 57.4688659,91.309522 57.7077002,91.0263679 C58.6556508,89.9109871 60.2142293,89.5293447 61.5709066,90.0784174 C62.9275839,90.62749 63.7819706,91.9841674 63.6884066,93.4442575 C63.6736334,93.6609319 62.2898717,115.121548 61.1080113,126.144859 C60.4752235,132.04185 62.4893107,142.727839 63.9617119,150.53058 C65.739427,159.95838 66.2023223,162.765298 65.1017148,164.749839 C64.0897467,166.571874 63.6908688,168.598272 63.6859444,168.61797 C63.4471101,169.86631 62.528706,170.88074 61.3099124,171.240223 C60.0911188,171.599705 58.7738369,171.254996 57.8948281,170.336592 C54.6299386,166.931356 43.9144037,155.354048 43.0772526,149.375804 C42.3459764,144.148534 41.9126276,116.431444 45.8521624,105.632194 C46.635145,103.480223 47.3097903,101.72713 47.8908717,100.294124 C45.47052,101.008164 42.3484386,102.465792 38.8865723,105.378586 C34.0581799,109.443694 30.800677,112.83908 28.1833485,115.567208 C25.7531479,118.100821 23.8326246,120.100135 21.6757293,121.577461 C20.3609095,122.47863 18.79002,123.204981 17.1255665,123.975653 C13.225427,125.782914 10.4776014,127.213458 10.6671915,129.185688 C11.1374735,134.110106 12.119895,135.873048 12.1297438,135.890284 C12.9496595,137.323289 12.6566566,139.197031 11.3836944,140.250856 C10.1131944,141.304682 8.30347057,141.351464 7.04774383,140.280403 C6.80398511,140.073577 1.08919732,135.104839 0.453947318,126.319676 C-0.0902009376,118.805013 3.15745313,110.97765 10.1107322,103.05426 C23.8744822,87.3724493 34.1295839,88.2957778 41.6171624,88.9728854 C44.1606246,89.2018708 46.3569153,89.4013098 48.0927729,88.8202284 C54.8146043,86.5746935 63.163956,80.1237051 65.222363,78.4814115 L65.222363,78.4814115 Z" id="Stroke-515" fill="#E23805" sketch:type="MSShapeGroup"></path>
                        <g id="Group" stroke-width="1" fill="none" sketch:type="MSLayerGroup" transform="translate(91.000000, 13.000000)">
                            <path d="M64.503857,110.724475 C66.8380314,112.315062 69.5046041,112.401239 70.4599413,110.914065 C71.4128163,109.429353 70.2949733,106.935135 67.9607989,105.344548 C65.6266244,103.75396 62.9600518,103.667783 62.0071768,105.154957 C61.0518395,106.63967 62.1696826,109.133888 64.503857,110.724475 L64.503857,110.724475 Z" id="Stroke-385" fill="#E86038" sketch:type="MSShapeGroup"></path>
                            <path d="M143.294555,130.422149 C145.628729,132.012736 148.295302,132.098914 149.250639,130.614202 C150.203514,129.127027 149.085671,126.632809 146.751497,125.042222 C144.417322,123.451635 141.750749,123.365457 140.797874,124.852632 C139.842537,126.337344 140.96038,128.831562 143.294555,130.422149 L143.294555,130.422149 Z" id="Stroke-387" fill="#E86038" sketch:type="MSShapeGroup"></path>
                            <path d="M110.552129,22.1592555 C113.287643,22.5482846 115.685835,21.3811974 115.907434,19.5493137 C116.129033,17.7198922 114.092786,15.9200172 111.357271,15.5285259 C108.621757,15.1394968 106.226027,16.306584 106.001966,18.1384677 C105.780367,19.9678893 107.816614,21.7702265 110.552129,22.1592555 L110.552129,22.1592555 Z" id="Stroke-389" fill="#E86038" sketch:type="MSShapeGroup"></path>
                            <path d="M7.09473401,113.073964 C9.11620785,115.063429 11.7483096,115.661746 12.976952,114.410944 C14.2031323,113.160142 13.5604956,110.532964 11.5390218,108.545961 C9.51754796,106.556496 6.88544622,105.958179 5.65680378,107.208982 C4.43062355,108.459784 5.07326017,111.084499 7.09473401,113.073964 L7.09473401,113.073964 Z" id="Stroke-391" fill="#E86038" sketch:type="MSShapeGroup"></path>
                            <path d="M125.421352,44.1587135 C127.504382,46.0816989 130.151257,46.588914 131.330655,45.2913297 C132.512515,43.9962076 131.778777,41.3862658 129.695748,39.4657425 C127.610257,37.5427571 124.965844,37.0355419 123.783983,38.330664 C122.604585,39.6282483 123.338323,42.235728 125.421352,44.1587135 L125.421352,44.1587135 Z" id="Stroke-393" fill="#E86038" sketch:type="MSShapeGroup"></path>
                            <path d="M68.7905385,31.8476669 C70.8735675,33.7706524 73.5204425,34.2778675 74.6998408,32.9802832 C75.8817013,31.6851611 75.1479629,29.0752193 73.0649338,27.154696 C70.9794425,25.2317105 68.3350298,24.7244954 67.1531693,26.0196175 C65.973771,27.3172018 66.7075094,29.9246815 68.7905385,31.8476669 L68.7905385,31.8476669 Z" id="Stroke-395" fill="#E86038" sketch:type="MSShapeGroup"></path>
                            <path d="M133.445717,179.666335 C135.779892,181.256923 138.446465,181.3431 139.401802,179.858388 C140.354677,178.371213 139.236834,175.876995 136.902659,174.286408 C134.568485,172.695821 131.901912,172.609643 130.949037,174.096818 C129.9937,175.58153 131.111543,178.075748 133.445717,179.666335 L133.445717,179.666335 Z" id="Stroke-397" fill="#E86038" sketch:type="MSShapeGroup"></path>
                            <path d="M126.05909,199.36401 C128.393264,200.954597 131.059837,201.040774 132.015174,199.556062 C132.968049,198.068888 131.850206,195.57467 129.516031,193.984082 C127.181857,192.393495 124.515284,192.307318 123.562409,193.794492 C122.607072,195.279204 123.724915,197.773423 126.05909,199.36401 L126.05909,199.36401 Z" id="Stroke-399" fill="#E86038" sketch:type="MSShapeGroup"></path>
                            <path d="M113.110306,100.789527 C115.193335,102.712513 117.84021,103.219728 119.019608,101.922144 C120.201469,100.627022 119.46773,98.0170797 117.384701,96.0965565 C115.29921,94.173571 112.654797,93.6663559 111.472937,94.961478 C110.293538,96.2590623 111.027277,98.8665419 113.110306,100.789527 L113.110306,100.789527 Z" id="Stroke-401" fill="#E86038" sketch:type="MSShapeGroup"></path>
                            <path d="M135.907927,105.800056 C138.242101,107.390643 140.908674,107.476821 141.864011,105.989646 C142.816886,104.504934 141.699043,102.010716 139.364869,100.420129 C137.030694,98.8295417 134.364122,98.7433644 133.411247,100.230539 C132.455909,101.715251 133.573752,104.209469 135.907927,105.800056 L135.907927,105.800056 Z" id="Stroke-403" fill="#E86038" sketch:type="MSShapeGroup"></path>
                            <path d="M2.31088732,162.34476 C4.39391639,164.267745 7.04079139,164.774961 8.22018964,163.477376 C9.40205011,162.182254 8.66831174,159.572312 6.58528267,157.651789 C4.49979139,155.728804 1.8553786,155.221588 0.673518131,156.516711 C-0.505880125,157.814295 0.227858247,160.421775 2.31088732,162.34476 L2.31088732,162.34476 Z" id="Stroke-405" fill="#E86038" sketch:type="MSShapeGroup"></path>
                            <path d="M26.9329803,169.731388 C29.0160094,171.654373 31.6628844,172.161588 32.8422827,170.864004 C34.0241431,169.568882 33.2904048,166.95894 31.2073757,165.038417 C29.1218844,163.115431 26.4774716,162.608216 25.2956112,163.903338 C24.1162129,165.200923 24.8499513,167.808402 26.9329803,169.731388 L26.9329803,169.731388 Z" id="Stroke-407" fill="#E86038" sketch:type="MSShapeGroup"></path>
                            <path d="M44.8061826,115.648893 C47.140357,117.239481 49.8069297,117.325658 50.7622669,115.840946 C51.7151419,114.353771 50.5972989,111.859553 48.2631244,110.268966 C45.92895,108.678379 43.2623773,108.592202 42.3095023,110.079376 C41.3541651,111.564088 42.4720082,114.058306 44.8061826,115.648893 L44.8061826,115.648893 Z" id="Stroke-409" fill="#E86038" sketch:type="MSShapeGroup"></path>
                            <path d="M121.134671,123.035521 C123.468845,124.626109 126.135418,124.712286 127.090755,123.227574 C128.04363,121.740399 126.925787,119.246181 124.591613,117.655594 C122.257438,116.065007 119.590866,115.978829 118.637991,117.466004 C117.682654,118.950716 118.800497,121.444934 121.134671,123.035521 L121.134671,123.035521 Z" id="Stroke-411" fill="#E86038" sketch:type="MSShapeGroup"></path>
                            <path d="M162.258524,152.656349 C164.994039,153.045378 167.39223,151.87829 167.613829,150.046407 C167.835428,148.216985 165.799181,146.41711 163.063667,146.025619 C160.328152,145.63659 157.932422,146.803677 157.708361,148.635561 C157.486762,150.464982 159.52301,152.267319 162.258524,152.656349 L162.258524,152.656349 Z" id="Stroke-413" fill="#E86038" sketch:type="MSShapeGroup"></path>
                            <path d="M100.799259,34.3098762 C102.882288,36.2328617 105.529163,36.7400768 106.708562,35.4424925 C107.890422,34.1473704 107.156684,31.5374286 105.073655,29.6169053 C102.988163,27.6939199 100.343751,27.1867047 99.1618902,28.4818268 C97.982492,29.7794111 98.7162303,32.3868908 100.799259,34.3098762 L100.799259,34.3098762 Z" id="Stroke-415" fill="#E86038" sketch:type="MSShapeGroup"></path>
                            <path d="M36.7818175,132.798248 C38.8648466,134.721234 41.5117216,135.228449 42.6911199,133.930865 C43.8729803,132.635743 43.139242,130.025801 41.0562129,128.105277 C38.9707216,126.182292 36.3263088,125.675077 35.1444484,126.970199 C33.9650501,128.267783 34.6987885,130.875263 36.7818175,132.798248 L36.7818175,132.798248 Z" id="Stroke-417" fill="#E86038" sketch:type="MSShapeGroup"></path>
                            <path d="M118.672462,145.195405 C121.006636,146.785992 123.673209,146.87217 124.628546,145.384995 C125.581421,143.900283 124.463578,141.406065 122.129404,139.815478 C119.795229,138.224891 117.128656,138.138713 116.175781,139.625888 C115.220444,141.1106 116.338287,143.604818 118.672462,145.195405 L118.672462,145.195405 Z" id="Stroke-419" fill="#E86038" sketch:type="MSShapeGroup"></path>
                            <path d="M96.5125779,157.506452 C98.8467523,159.097039 101.513325,159.183216 102.468662,157.696042 C103.421537,156.211329 102.303694,153.717111 99.9695198,152.126524 C97.6353454,150.535937 94.9687727,150.44976 94.0158977,151.936934 C93.0605605,153.421646 94.1784035,155.915864 96.5125779,157.506452 L96.5125779,157.506452 Z" id="Stroke-421" fill="#E86038" sketch:type="MSShapeGroup"></path>
                            <path d="M110.648097,58.9319693 C112.731126,60.8549547 115.378001,61.3621699 116.557399,60.0645855 C117.739259,58.7694635 117.005521,56.1595216 114.922492,54.2389983 C112.837001,52.3160129 110.192588,51.8087978 109.010727,53.1039199 C107.831329,54.4015042 108.565068,57.0089838 110.648097,58.9319693 L110.648097,58.9319693 Z" id="Stroke-423" fill="#E86038" sketch:type="MSShapeGroup"></path>
                            <path d="M68.7905385,51.5453414 C70.8735675,53.4683268 73.5204425,53.9755419 74.6998408,52.6779576 C75.8817013,51.3828355 75.1479629,48.7728937 73.0649338,46.8523704 C70.9794425,44.929385 68.3350298,44.4221699 67.1531693,45.7172919 C65.973771,47.0148762 66.7075094,49.6223559 68.7905385,51.5453414 L68.7905385,51.5453414 Z" id="Stroke-425" fill="#E86038" sketch:type="MSShapeGroup"></path>
                            <path d="M123.59688,159.968661 C125.931055,161.559248 128.597627,161.645425 129.552965,160.160713 C130.50584,158.673539 129.387997,156.179321 127.053822,154.588734 C124.719648,152.998146 122.053075,152.911969 121.1002,154.399143 C120.144863,155.883856 121.262706,158.378074 123.59688,159.968661 L123.59688,159.968661 Z" id="Stroke-427" fill="#E86038" sketch:type="MSShapeGroup"></path>
                            <path d="M100.799259,81.091853 C102.882288,83.0148385 105.529163,83.5220536 106.708562,82.2244693 C107.890422,80.9293472 107.156684,78.3194053 105.073655,76.3988821 C102.988163,74.4758966 100.343751,73.9686815 99.1618902,75.2638036 C97.982492,76.5613879 98.7162303,79.1688675 100.799259,81.091853 L100.799259,81.091853 Z" id="Stroke-429" fill="#E86038" sketch:type="MSShapeGroup"></path>
                            <path d="M96.5125779,130.422149 C98.8467523,132.012736 101.513325,132.098914 102.468662,130.611739 C103.421537,129.127027 102.303694,126.632809 99.9695198,125.042222 C97.6353454,123.451635 94.9687727,123.365457 94.0158977,124.852632 C93.0605605,126.337344 94.1784035,128.831562 96.5125779,130.422149 L96.5125779,130.422149 Z" id="Stroke-431" fill="#E86038" sketch:type="MSShapeGroup"></path>
                            <path d="M81.7393221,137.808777 C84.0734965,139.399364 86.7400692,139.485542 87.6954064,137.998367 C88.6482814,136.513655 87.5304384,134.019437 85.196264,132.42885 C82.8620895,130.838263 80.1955169,130.752085 79.2426419,132.23926 C78.2873047,133.723972 79.4051477,136.21819 81.7393221,137.808777 L81.7393221,137.808777 Z" id="Stroke-433" fill="#E86038" sketch:type="MSShapeGroup"></path>
                            <path d="M73.7149571,81.091853 C75.7979862,83.0148385 78.4448612,83.5220536 79.6242594,82.2244693 C80.8061199,80.9293472 80.0723815,78.3194053 77.9893524,76.3988821 C75.9038612,74.4758966 73.2594484,73.9686815 72.0775879,75.2638036 C70.8981896,76.5613879 71.631928,79.1688675 73.7149571,81.091853 L73.7149571,81.091853 Z" id="Stroke-435" fill="#E86038" sketch:type="MSShapeGroup"></path>
                            <path d="M162.354492,61.3941786 C164.437521,63.317164 167.084396,63.8243792 168.263794,62.5267949 C169.445655,61.2316728 168.711916,58.6217309 166.628887,56.7012076 C164.543396,54.7782222 161.898983,54.2710071 160.717123,55.5661292 C159.537725,56.8637135 160.271463,59.4711931 162.354492,61.3941786 L162.354492,61.3941786 Z" id="Stroke-437" fill="#E86038" sketch:type="MSShapeGroup"></path>
                            <path d="M54.0172827,88.4784809 C56.1003117,90.4014664 58.7471867,90.9086815 59.926585,89.6110972 C61.1084455,88.3159751 60.3747071,85.7060332 58.291678,83.78551 C56.2061867,81.8625245 53.5617739,81.3553094 52.3799135,82.6504315 C51.2005152,83.9480158 51.9342536,86.5554954 54.0172827,88.4784809 L54.0172827,88.4784809 Z" id="Stroke-439" fill="#E86038" sketch:type="MSShapeGroup"></path>
                            <path d="M91.5881593,108.262266 C93.9223337,109.852853 96.5889064,109.93903 97.5442436,108.451856 C98.4971186,106.967143 97.3792756,104.472925 95.0451012,102.882338 C92.7109268,101.291751 90.0443541,101.205574 89.0914791,102.692748 C88.1361419,104.17746 89.2539849,106.671678 91.5881593,108.262266 L91.5881593,108.262266 Z" id="Stroke-441" fill="#E86038" sketch:type="MSShapeGroup"></path>
                            <path d="M79.2771128,167.355289 C81.6112872,168.945876 84.2778599,169.032053 85.2331971,167.544879 C86.1860721,166.060167 85.0682291,163.565949 82.7340547,161.975361 C80.3998802,160.384774 77.7333076,160.298597 76.7804326,161.785771 C75.8250954,163.270484 76.9429384,165.764702 79.2771128,167.355289 L79.2771128,167.355289 Z" id="Stroke-443" fill="#E86038" sketch:type="MSShapeGroup"></path>
                            <path d="M57.1172291,177.204126 C59.4514035,178.794713 62.1179762,178.880891 63.0733134,177.393716 C64.0261884,175.909004 62.9083454,173.414786 60.5741709,171.824199 C58.2399965,170.233611 55.5734239,170.147434 54.6205489,171.634609 C53.6652116,173.119321 54.7830547,175.613539 57.1172291,177.204126 L57.1172291,177.204126 Z" id="Stroke-445" fill="#E86038" sketch:type="MSShapeGroup"></path>
                            <path d="M155.605601,113.186684 C157.939776,114.777271 160.606348,114.863449 161.561685,113.378736 C162.51456,111.891562 161.396717,109.397344 159.062543,107.806757 C156.728369,106.21617 154.061796,106.129992 153.108921,107.617167 C152.153584,109.101879 153.271427,111.596097 155.605601,113.186684 L155.605601,113.186684 Z" id="Stroke-447" fill="#E86038" sketch:type="MSShapeGroup"></path>
                            <path d="M186.880617,201.900535 C189.616132,202.289564 192.014324,201.122476 192.235922,199.290593 C192.457521,197.461171 190.421274,195.661296 187.68576,195.269805 C184.950245,194.880776 182.554515,196.047863 182.330454,197.879747 C182.108855,199.709168 184.145103,201.511506 186.880617,201.900535 L186.880617,201.900535 Z" id="Stroke-449" fill="#E86038" sketch:type="MSShapeGroup"></path>
                            <path d="M162.992229,135.346568 C165.326404,136.937155 167.992976,137.023332 168.948313,135.53862 C169.901188,134.051446 168.783345,131.557228 166.449171,129.966641 C164.114997,128.376053 161.448424,128.289876 160.495549,129.77705 C159.540212,131.261763 160.658055,133.755981 162.992229,135.346568 L162.992229,135.346568 Z" id="Stroke-451" fill="#E86038" sketch:type="MSShapeGroup"></path>
                            <path d="M179.493989,147.73193 C182.229504,148.120959 184.627696,146.953872 184.849294,145.121988 C185.070893,143.292567 183.034646,141.492692 180.299132,141.1012 C177.566079,140.712171 175.167887,141.879258 174.943826,143.711142 C174.722228,145.540564 176.758475,147.342901 179.493989,147.73193 L179.493989,147.73193 Z" id="Stroke-453" fill="#E86038" sketch:type="MSShapeGroup"></path>
                            <path d="M165.454438,100.875638 C167.788613,102.466225 170.455185,102.552402 171.410523,101.065228 C172.363398,99.5805155 171.245555,97.0862975 168.91138,95.4957103 C166.577206,93.9051231 163.910633,93.8189458 162.957758,95.3061202 C162.002421,96.7908324 163.120264,99.2850504 165.454438,100.875638 L165.454438,100.875638 Z" id="Stroke-455" fill="#E86038" sketch:type="MSShapeGroup"></path>
                            <path d="M100.703292,196.976116 C103.438806,197.365145 105.836998,196.198058 106.058597,194.366174 C106.280196,192.536753 104.243949,190.736878 101.508434,190.345386 C98.7729194,189.956357 96.3771898,191.123444 96.1531287,192.955328 C95.9315299,194.78475 97.967777,196.587087 100.703292,196.976116 L100.703292,196.976116 Z" id="Stroke-457" fill="#E86038" sketch:type="MSShapeGroup"></path>
                            <path d="M142.656818,51.5453414 C144.739847,53.4683268 147.386722,53.9755419 148.56612,52.6779576 C149.74798,51.3828355 149.014242,48.7728937 146.931213,46.8523704 C144.845722,44.929385 142.201309,44.4221699 141.019448,45.7172919 C139.84005,47.0148762 140.573788,49.6223559 142.656818,51.5453414 L142.656818,51.5453414 Z" id="Stroke-459" sketch:type="MSShapeGroup"></path>
                            <path d="M160.53002,184.590754 C162.864194,186.181341 165.530767,186.267518 166.486104,184.782806 C167.438979,183.295632 166.321136,180.801414 163.986962,179.210827 C161.652787,177.620239 158.986215,177.534062 158.03334,179.021236 C157.078002,180.505949 158.195845,183.000167 160.53002,184.590754 L160.53002,184.590754 Z" id="Stroke-461" sketch:type="MSShapeGroup"></path>
                            <path d="M167.916648,167.355289 C170.250822,168.945876 172.917395,169.032053 173.872732,167.544879 C174.825607,166.060167 173.707764,163.565949 171.37359,161.975361 C169.039415,160.384774 166.372842,160.298597 165.419967,161.785771 C164.46463,163.270484 165.582473,165.764702 167.916648,167.355289 L167.916648,167.355289 Z" id="Stroke-463" sketch:type="MSShapeGroup"></path>
                            <path d="M150.681183,169.817498 C153.015357,171.408085 155.68193,171.494263 156.637267,170.007088 C157.590142,168.522376 156.472299,166.028158 154.138124,164.437571 C151.80395,162.846984 149.137377,162.760806 148.184502,164.247981 C147.229165,165.732693 148.347008,168.226911 150.681183,169.817498 L150.681183,169.817498 Z" id="Stroke-467" sketch:type="MSShapeGroup"></path>
                            <path d="M125.421352,81.091853 C127.504382,83.0148385 130.151257,83.5220536 131.330655,82.2244693 C132.512515,80.9293472 131.778777,78.3194053 129.695748,76.3988821 C127.610257,74.4758966 124.965844,73.9686815 123.783983,75.2638036 C122.604585,76.5613879 123.338323,79.1688675 125.421352,81.091853 L125.421352,81.091853 Z" id="Stroke-469" sketch:type="MSShapeGroup"></path>
                            <path d="M140.832345,191.977382 C143.16652,193.567969 145.833092,193.654146 146.78843,192.169434 C147.741305,190.68226 146.623462,188.188042 144.289287,186.597454 C141.955113,185.006867 139.28854,184.92069 138.335665,186.407864 C137.380328,187.892577 138.498171,190.386795 140.832345,191.977382 L140.832345,191.977382 Z" id="Stroke-471" sketch:type="MSShapeGroup"></path>
                            <path d="M150.043445,90.9406902 C152.126475,92.8636757 154.77335,93.3708908 155.952748,92.0733065 C157.134608,90.7781844 156.40087,88.1682425 154.317841,86.2477193 C152.23235,84.3247338 149.587937,83.8175187 148.406076,85.1126408 C147.226678,86.4102251 147.960416,89.0177047 150.043445,90.9406902 L150.043445,90.9406902 Z" id="Stroke-473" sketch:type="MSShapeGroup"></path>
                            <path d="M183.856969,187.118191 C186.508768,187.957804 189.054693,187.219141 189.539748,185.466048 C190.024803,183.710493 188.269248,181.607766 185.614986,180.768153 C182.963187,179.928539 180.419725,180.667202 179.932207,182.422757 C179.447152,184.17585 181.205169,186.278577 183.856969,187.118191 L183.856969,187.118191 Z" id="Stroke-475" sketch:type="MSShapeGroup"></path>
                            <path d="M89.5816882,6.789732 C90.8817347,9.2790256 93.2429934,10.6775605 94.8557405,9.90935118 C96.4684876,9.14114188 96.719633,6.50165351 95.4195865,4.0098977 C94.11954,1.52060409 91.7582812,0.124531417 90.1455341,0.89027851 C88.532787,1.65848781 88.2816417,4.30043839 89.5816882,6.789732 L89.5816882,6.789732 Z" id="Stroke-479" sketch:type="MSShapeGroup"></path>
                            <path d="M141.836543,29.1818898 C143.505921,31.4643578 146.029685,32.5009479 147.475002,31.4939043 C148.922781,30.4868607 148.740578,27.8202881 147.073662,25.53782 C145.404284,23.2528898 142.878057,22.2187619 141.43274,23.2258055 C139.987423,24.2328491 140.167165,26.8994218 141.836543,29.1818898 L141.836543,29.1818898 Z" id="Stroke-483" fill="#E86038" sketch:type="MSShapeGroup"></path>
                            <path d="M181.231892,110.434797 C182.901269,112.717265 185.425034,113.753855 186.870351,112.746811 C188.31813,111.739768 188.135926,109.073195 186.469011,106.790727 C184.799633,104.505797 182.273406,103.471669 180.828089,104.478712 C179.382772,105.485756 179.562514,108.152329 181.231892,110.434797 L181.231892,110.434797 Z" id="Stroke-487" fill="#E86038" sketch:type="MSShapeGroup"></path>
                            <path d="M131.439246,11.7141506 C132.739293,14.2034442 135.100552,15.6019791 136.713299,14.8337698 C138.326046,14.0655605 138.577191,11.4260721 137.277145,8.9343163 C135.977098,6.4450227 133.615839,5.04895002 132.003092,5.81469711 C130.390345,6.58290642 130.1392,9.224857 131.439246,11.7141506 L131.439246,11.7141506 Z" id="Stroke-489" fill="#E86038" sketch:type="MSShapeGroup"></path>
                            <path d="M171.383054,83.3504945 C173.052432,85.6329625 175.576197,86.6695526 177.021514,85.662509 C178.469293,84.6554654 178.287089,81.9888927 176.620173,79.7064247 C174.950796,77.4214945 172.424569,76.3873665 170.979252,77.3944102 C169.533935,78.4014538 169.713676,81.0680264 171.383054,83.3504945 L171.383054,83.3504945 Z" id="Stroke-491" fill="#E86038" sketch:type="MSShapeGroup"></path>
                            <path d="M69.7818626,204.318089 C72.2317609,205.704313 74.8835603,205.549194 75.7059382,203.970917 C76.5258539,202.392641 75.2085719,199.989525 72.7586737,198.603301 C70.3087754,197.217077 67.656976,197.372196 66.8345981,198.950473 C66.0122202,200.528749 67.3319644,202.931865 69.7818626,204.318089 L69.7818626,204.318089 Z" id="Stroke-499" fill="#E86038" sketch:type="MSShapeGroup"></path>
                            <path d="M21.1882869,144.905727 C22.8576648,147.188195 25.3814293,148.224785 26.8267462,147.217742 C28.2745252,146.210698 28.0923217,143.544125 26.425406,141.261657 C24.7560281,138.976727 22.2298014,137.942599 20.7844845,138.949643 C19.3391677,139.956686 19.5189089,142.623259 21.1882869,144.905727 L21.1882869,144.905727 Z" id="Stroke-501" fill="#E86038" sketch:type="MSShapeGroup"></path>
                            <path d="M32.9508743,63.420546 C34.2509208,65.9098396 36.6121795,67.3083744 38.2249266,66.5401651 C39.8376737,65.7719558 40.088819,63.1324675 38.7887725,60.6407116 C37.488726,58.151418 35.1274673,56.7553454 33.5147202,57.5210925 C31.9019731,58.2893018 31.6508277,60.9312523 32.9508743,63.420546 L32.9508743,63.420546 Z" id="Stroke-503" fill="#E86038" sketch:type="MSShapeGroup"></path>
                            <path d="M15.7154091,186.531011 C17.0154556,189.020305 19.3767144,190.41884 20.9894615,189.65063 C22.6022086,188.882421 22.8533539,186.242933 21.5533074,183.751177 C20.2532609,181.261883 17.8920022,179.86581 16.2792551,180.631558 C14.666508,181.399767 14.4153626,184.041717 15.7154091,186.531011 L15.7154091,186.531011 Z" id="Stroke-505" fill="#E86038" sketch:type="MSShapeGroup"></path>
                        </g>
                    </g>
                </g>
                <g id="fresa-2" mask="url(#mask-2)">
                    <g transform="translate(168.500000, 211.000000) scale(-1, 1) translate(-168.500000, -211.000000) translate(73.000000, 140.000000)">
                        <path d="M189.79363,121.230544 C188.819052,117.452435 188.186094,114.491613 187.647783,111.967464 C186.099402,104.719571 185.3925,101.410591 179.487356,92.4130544 C173.765592,83.6958154 170.133477,73.4620216 167.480377,65.9913669 C166.343123,62.7900792 165.362629,60.0254649 164.602488,58.5649696 C163.960656,57.328712 163.147276,55.2412364 162.021852,52.3541765 C158.434104,43.1530562 152.431354,27.7529448 144.183672,20.329498 C132.70613,9.99981313 126.446056,6.93424827 119.377038,8.18230788 C113.829781,9.1618724 111.580413,9.21793181 110.511187,9.01139712 C107.713157,9.78295171 95.5671639,13.4002592 82.8680717,21.1246565 C81.1082115,24.1489145 78.1238434,27.1805486 75.9144055,29.4258757 C75.1365177,30.213658 74.1782072,31.1887968 73.9238409,31.541381 C73.1015869,33.3662625 69.151514,34.9742826 66.2721461,35.9331936 C69.1012323,38.7051842 70.2103879,43.1781354 68.9341195,47.8325421 C67.4522876,53.2408004 66.9169352,61.3679404 67.3665129,63.604416 L68.3824995,68.6689416 L64.2490463,65.5591193 C64.2372153,65.5517431 62.1934112,64.0735448 59.9810155,64.3803963 C59.4915081,64.4482577 58.8363669,64.598733 58.0747467,64.7683865 C54.9410124,65.4661787 49.7250233,66.6286739 46.1402324,64.6754459 C45.9494576,67.0358423 45.745373,69.3342783 45.5501616,71.1503083 C45.1878375,74.5345267 46.344317,80.6700822 47.1887542,85.1504097 C48.2106562,90.5675195 48.4768535,92.1799653 47.8424165,93.3232823 C47.2626979,94.3677577 47.0334724,95.530253 47.0319935,95.5420549 L46.3103029,99.2832833 C45.7409364,98.6902337 45.1730487,98.0986593 44.6036822,97.5056097 C45.921359,104.514512 49.0092482,115.481504 55.7987594,119.756772 C64.8169339,125.435 65.3996103,125.545644 95.9339247,131.353694 C102.080126,132.523566 109.424215,133.920626 118.276755,135.639289 C147.650153,141.338171 174.408902,143.033231 178.709468,140.740696 L179.936934,140.100439 C185.725247,137.108636 192.927364,133.385111 189.79363,121.230544 L189.79363,121.230544 L189.79363,121.230544 Z" id="Stroke-507" fill="#E23805" sketch:type="MSShapeGroup"></path>
                        <path d="M55.9392525,24.9043386 C51.514461,19.4444466 44.5090342,12.4857029 35.9877614,7.8445734 C22.7222604,0.62028508 13.878593,0.543572196 13.878593,0.543572196 L14.3266919,3.78616679 L12.0684511,7.57755355 C12.0684511,7.57755355 14.4938047,8.55711807 20.1283151,9.08673202 C25.7628256,9.61487072 28.2813483,10.08695 38.6171996,16.2357827 C44.5563582,19.7704764 50.1524179,27.7220618 53.8673498,33.879746 C54.3184064,31.0826762 55.1007308,27.8976163 55.9392525,24.9043386 L55.9392525,24.9043386 Z" id="Stroke-509" fill="#E23805" sketch:type="MSShapeGroup"></path>
                        <path d="M111.090906,0.543572196 C111.090906,0.543572196 100.48442,9.71371232 91.6082179,12.2998217 C88.152089,13.3059406 86.3330738,14.1320794 85.3851155,14.7693864 C86.7323698,16.4762481 86.0639187,18.8469712 84.533284,21.310635 C87.9672297,19.4149416 113.705555,5.0032462 111.090906,0.543572196 L111.090906,0.543572196 Z" id="Stroke-511" fill="#E23805" sketch:type="MSShapeGroup"></path>
                        <path d="M68.8018876,12.719839 C68.8018876,12.719839 76.4609768,8.35163036 81.910628,13.041443 C87.3602792,17.7327309 72.5907631,29.2013071 72.3068193,30.7267133 C72.0243543,32.2521194 57.2740637,37.9377243 57.9351204,34.3779515 C58.5946983,30.8181786 64.2158989,27.5136236 68.4425212,23.1734447 L69.667029,30.7635944 L68.8018876,12.719839 L68.8018876,12.719839 Z" id="Stroke-513" fill="#E23805" sketch:type="MSShapeGroup"></path>
                        <path d="M39.1744382,47.0226179 C40.7316926,44.308162 46.6501469,34.8783783 53.0152212,36.049725 C55.9226878,36.5852399 58.37614,38.2330917 59.9215635,40.6908545 C61.7538885,43.6029936 62.206424,47.4533902 61.1623389,51.2521532 C59.6124788,56.8964512 59.0519855,65.3761754 59.5222675,67.7114926 C59.6879014,68.5405818 59.3240983,69.3858988 58.6083232,69.8358494 C57.8910693,70.2857999 56.9712096,70.2474435 56.2938852,69.7399583 C56.2820542,69.7311068 54.1362078,68.1850471 51.8128966,68.5066511 C51.2967695,68.577463 50.6061353,68.7353145 49.8031066,68.9152948 C45.3738786,69.905186 37.1291552,71.7477705 34.2838014,65.5443536 C31.1707713,58.7552634 34.5174635,54.7086588 34.6609143,54.5390053 C35.2302808,53.870718 36.1664082,53.6420546 36.9812678,53.9710349 C37.7961275,54.3000151 38.3092968,55.1128766 38.2530996,55.9876986 C38.2442263,56.1175204 37.4130991,68.9757799 36.7032395,75.5804642 C36.3231688,79.1136826 37.5328879,85.5162579 38.4172546,90.1913181 C39.4850017,95.8400418 39.7630301,97.5218242 39.1019733,98.7108739 C38.4941561,99.8025573 38.2545784,101.016686 38.2516207,101.028488 C38.1081699,101.776439 37.5565499,102.384241 36.8245072,102.599627 C36.0924645,102.815013 35.3012668,102.608479 34.7733087,102.058211 C32.8123216,100.017943 26.3762613,93.0813284 25.8734441,89.4994269 C25.4342185,86.3674759 25.1739367,69.7606117 27.5401353,63.290175 C28.0104173,62.0008085 28.4156288,60.9504321 28.7646431,60.0918379 C27.3109098,60.5196597 25.4356974,61.3930064 23.3564004,63.1382245 C20.4563282,65.5738586 18.4997777,67.6082252 16.9277345,69.2427998 C15.4680857,70.7608297 14.3145639,71.9587309 13.0190701,72.8438796 C12.2293513,73.3838202 11.2858296,73.8190183 10.2861107,74.2807709 C7.94357406,75.3636028 6.29315052,76.2207217 6.40702383,77.4023952 C6.68948879,80.3528907 7.27955957,81.4091681 7.28547507,81.4194948 C7.77794016,82.278089 7.60195413,83.4007526 6.8373762,84.0321586 C6.07427715,84.6635647 4.98730465,84.6915944 4.23307884,84.0498616 C4.0866703,83.9259408 0.654203421,80.9488908 0.272653892,75.6852068 C-0.0541772927,71.1827506 1.8964577,66.4929379 6.07279827,61.7455906 C14.3397047,52.3497376 20.4992155,52.9029555 24.9964718,53.3086486 C26.5241488,53.4458467 27.8433045,53.5653417 28.8859108,53.2171833 C32.9232372,51.8717573 37.9380994,48.0066081 39.1744382,47.0226179 L39.1744382,47.0226179 Z" id="Stroke-515" fill="#E23805" sketch:type="MSShapeGroup"></path>
                        <g id="Group" stroke-width="1" fill="none" sketch:type="MSLayerGroup" transform="translate(54.657233, 7.789030)">
                            <path d="M38.7428827,66.3412465 C40.1448553,67.2942566 41.746476,67.3458903 42.3202792,66.4548406 C42.8926035,65.5652662 42.2211946,64.0708402 40.819222,63.1178301 C39.4172493,62.1648201 37.8156286,62.1131864 37.2433043,63.0042361 C36.6695011,63.8938105 37.34091,65.3882365 38.7428827,66.3412465 L38.7428827,66.3412465 Z" id="Stroke-385" fill="#E86038" sketch:type="MSShapeGroup"></path>
                            <path d="M86.0668552,78.1432287 C87.4688278,79.0962387 89.0704485,79.1478724 89.6442517,78.258298 C90.216576,77.3672483 89.5451671,75.8728223 88.1431945,74.9198123 C86.7412218,73.9668022 85.1396011,73.9151686 84.5672768,74.8062182 C83.9934736,75.6957926 84.6648825,77.1902186 86.0668552,78.1432287 L86.0668552,78.1432287 Z" id="Stroke-387" fill="#E86038" sketch:type="MSShapeGroup"></path>
                            <path d="M66.4008069,13.2768535 C68.0438361,13.5099427 69.4842595,12.8106752 69.6173581,11.7130909 C69.7504568,10.6169818 68.5274279,9.53857568 66.8843987,9.30401129 C65.2413696,9.07092214 63.802425,9.77018958 63.6678475,10.8677739 C63.5347488,11.963883 64.7577777,13.0437644 66.4008069,13.2768535 L66.4008069,13.2768535 Z" id="Stroke-389" fill="#E86038" sketch:type="MSShapeGroup"></path>
                            <path d="M4.2613025,67.7489575 C5.47545817,68.9409577 7.05637463,69.2994429 7.79433283,68.5500171 C8.53081215,67.8005912 8.144826,66.2265018 6.93067033,65.0359769 C5.71651466,63.8439767 4.1355982,63.4854915 3.39764001,64.2349173 C2.66116068,64.9843432 3.04714683,66.5569573 4.2613025,67.7489575 L4.2613025,67.7489575 Z" id="Stroke-391" fill="#E86038" sketch:type="MSShapeGroup"></path>
                            <path d="M75.3316928,26.4579633 C76.5828203,27.6101318 78.17261,27.9140329 78.8809908,27.1365773 C79.5908503,26.360597 79.1501458,24.7968344 77.8990183,23.6461411 C76.6464119,22.4939726 75.0581011,22.1900715 74.3482415,22.9660519 C73.6398608,23.7435074 74.0805653,25.3057948 75.3316928,26.4579633 L75.3316928,26.4579633 Z" id="Stroke-393" fill="#E86038" sketch:type="MSShapeGroup"></path>
                            <path d="M41.3175876,19.0817245 C42.5687151,20.233893 44.1585048,20.537794 44.8668855,19.7603385 C45.5767451,18.9843581 45.1360406,17.4205955 43.8849131,16.2699023 C42.6323067,15.1177337 41.0439959,14.8138327 40.3341363,15.589813 C39.6257556,16.3672686 40.0664601,17.929556 41.3175876,19.0817245 L41.3175876,19.0817245 Z" id="Stroke-395" fill="#E86038" sketch:type="MSShapeGroup"></path>
                            <path d="M80.1513586,107.648184 C81.5533313,108.601194 83.154952,108.652828 83.7287551,107.763253 C84.3010794,106.872204 83.6296706,105.377778 82.2276979,104.424768 C80.8257252,103.471758 79.2241045,103.420124 78.6517802,104.311174 C78.0779771,105.200748 78.7493859,106.695174 80.1513586,107.648184 L80.1513586,107.648184 Z" id="Stroke-397" fill="#E86038" sketch:type="MSShapeGroup"></path>
                            <path d="M75.7147362,119.450166 C77.1167089,120.403176 78.7183296,120.45481 79.2921327,119.565235 C79.864457,118.674186 79.1930482,117.17976 77.7910755,116.22675 C76.3891028,115.27374 74.7874821,115.222106 74.2151578,116.113156 C73.6413546,117.00273 74.3127635,118.497156 75.7147362,119.450166 L75.7147362,119.450166 Z" id="Stroke-399" fill="#E86038" sketch:type="MSShapeGroup"></path>
                            <path d="M67.9373221,60.388662 C69.1884496,61.5408305 70.7782393,61.8447315 71.48662,61.067276 C72.1964796,60.2912956 71.7557751,58.727533 70.5046476,57.5768397 C69.2520412,56.4246712 67.6637304,56.1207702 66.9538708,56.8967505 C66.2454901,57.6742061 66.6861946,59.2364935 67.9373221,60.388662 L67.9373221,60.388662 Z" id="Stroke-401" fill="#E86038" sketch:type="MSShapeGroup"></path>
                            <path d="M81.6302327,63.390751 C83.0322054,64.343761 84.6338261,64.3953947 85.2076293,63.5043451 C85.7799536,62.6147707 85.1085447,61.1203447 83.706572,60.1673346 C82.3045993,59.2143246 80.7029787,59.1626909 80.1306544,60.0537405 C79.5568512,60.9433149 80.2282601,62.4377409 81.6302327,63.390751 L81.6302327,63.390751 Z" id="Stroke-403" fill="#E86038" sketch:type="MSShapeGroup"></path>
                            <path d="M1.38798578,97.2698562 C2.6391133,98.4220247 4.228903,98.7259257 4.93728372,97.9484702 C5.6471433,97.1724898 5.20643881,95.6087272 3.95531129,94.4580339 C2.70270489,93.3058654 1.11439406,93.0019644 0.404534475,93.7779447 C-0.303846239,94.5554003 0.136858255,96.1176877 1.38798578,97.2698562 L1.38798578,97.2698562 Z" id="Stroke-405" fill="#E86038" sketch:type="MSShapeGroup"></path>
                            <path d="M16.1767272,101.695599 C17.4278547,102.847768 19.0176444,103.151669 19.7260251,102.374213 C20.4358847,101.598233 19.9951802,100.03447 18.7440527,98.8837772 C17.4914463,97.7316087 15.9031355,97.4277077 15.1932759,98.203688 C14.4848952,98.9811436 14.9255997,100.543431 16.1767272,101.695599 L16.1767272,101.695599 Z" id="Stroke-407" fill="#E86038" sketch:type="MSShapeGroup"></path>
                            <path d="M26.9118895,69.2917421 C28.3138622,70.2447521 29.9154829,70.2963858 30.4892861,69.4068114 C31.0616104,68.5157617 30.3902015,67.0213357 28.9882288,66.0683257 C27.5862561,65.1153156 25.9846354,65.063682 25.4123112,65.9547316 C24.838508,66.844306 25.5099168,68.338732 26.9118895,69.2917421 L26.9118895,69.2917421 Z" id="Stroke-409" fill="#E86038" sketch:type="MSShapeGroup"></path>
                            <path d="M72.7569879,73.7174854 C74.1589606,74.6704954 75.7605813,74.7221291 76.3343844,73.8325547 C76.9067087,72.941505 76.2352999,71.447079 74.8333272,70.494069 C73.4313545,69.5410589 71.8297338,69.4894253 71.2574095,70.3804749 C70.6836063,71.2700493 71.3550152,72.7644753 72.7569879,73.7174854 L72.7569879,73.7174854 Z" id="Stroke-411" fill="#E86038" sketch:type="MSShapeGroup"></path>
                            <path d="M97.4571638,91.4649852 C99.100193,91.6980744 100.540616,90.9988069 100.673715,89.9012226 C100.806814,88.8051135 99.5837849,87.7267074 97.9407557,87.492143 C96.2977265,87.2590538 94.858782,87.9583213 94.7242044,89.0559056 C94.5911058,90.1520147 95.8141347,91.2318961 97.4571638,91.4649852 L97.4571638,91.4649852 Z" id="Stroke-413" fill="#E86038" sketch:type="MSShapeGroup"></path>
                            <path d="M60.5429514,20.5569723 C61.7940789,21.7091408 63.3838686,22.0130418 64.0922493,21.2355862 C64.8021089,20.4596059 64.3614044,18.8958433 63.1102769,17.74515 C61.8576705,16.5929815 60.2693597,16.2890805 59.5595001,17.0650608 C58.8511194,17.8425164 59.2918239,19.4048038 60.5429514,20.5569723 L60.5429514,20.5569723 Z" id="Stroke-415" fill="#E86038" sketch:type="MSShapeGroup"></path>
                            <path d="M22.0922237,79.566883 C23.3433513,80.7190515 24.933141,81.0229525 25.6415217,80.2454969 C26.3513813,79.4695166 25.9106768,77.905754 24.6595493,76.7550607 C23.4069429,75.6028922 21.818632,75.2989912 21.1087724,76.0749715 C20.4003917,76.8524271 20.8410962,78.4147145 22.0922237,79.566883 L22.0922237,79.566883 Z" id="Stroke-417" fill="#E86038" sketch:type="MSShapeGroup"></path>
                            <path d="M71.2781138,86.9947153 C72.6800864,87.9477253 74.2817071,87.999359 74.8555103,87.1083093 C75.4278346,86.2187349 74.7564257,84.724309 73.354453,83.7712989 C71.9524804,82.8182888 70.3508597,82.7666552 69.7785354,83.6577048 C69.2047322,84.5472792 69.8761411,86.0417052 71.2781138,86.9947153 L71.2781138,86.9947153 Z" id="Stroke-419" fill="#E86038" sketch:type="MSShapeGroup"></path>
                            <path d="M57.9682465,94.3709541 C59.3702192,95.3239642 60.9718399,95.3755978 61.545643,94.4845482 C62.1179673,93.5949738 61.4465585,92.1005478 60.0445858,91.1475377 C58.6426131,90.1945277 57.0409924,90.142894 56.4686681,91.0339437 C55.8948649,91.9235181 56.5662738,93.417944 57.9682465,94.3709541 L57.9682465,94.3709541 Z" id="Stroke-421" fill="#E86038" sketch:type="MSShapeGroup"></path>
                            <path d="M66.458448,35.3094499 C67.7095755,36.4616184 69.2993652,36.7655195 70.0077459,35.9880639 C70.7176055,35.2120836 70.276901,33.648321 69.0257735,32.4976277 C67.7731671,31.3454592 66.1848563,31.0415582 65.4749967,31.8175385 C64.766616,32.5949941 65.2073204,34.1572814 66.458448,35.3094499 L66.458448,35.3094499 Z" id="Stroke-423" fill="#E86038" sketch:type="MSShapeGroup"></path>
                            <path d="M41.3175876,30.8837066 C42.5687151,32.0358751 44.1585048,32.3397762 44.8668855,31.5623206 C45.5767451,30.7863403 45.1360406,29.2225777 43.8849131,28.0718844 C42.6323067,26.9197159 41.0439959,26.6158148 40.3341363,27.3917952 C39.6257556,28.1692507 40.0664601,29.7315381 41.3175876,30.8837066 L41.3175876,30.8837066 Z" id="Stroke-425" fill="#E86038" sketch:type="MSShapeGroup"></path>
                            <path d="M74.235862,95.8462019 C75.6378347,96.7992119 77.2394554,96.8508456 77.8132586,95.9612712 C78.3855829,95.0702215 77.714174,93.5757956 76.3122013,92.6227855 C74.9102286,91.6697754 73.3086079,91.6181418 72.7362837,92.5091914 C72.1624805,93.3987658 72.8338893,94.8931918 74.235862,95.8462019 L74.235862,95.8462019 Z" id="Stroke-427" fill="#E86038" sketch:type="MSShapeGroup"></path>
                            <path d="M60.5429514,48.5866799 C61.7940789,49.7388484 63.3838686,50.0427494 64.0922493,49.2652938 C64.8021089,48.4893135 64.3614044,46.9255509 63.1102769,45.7748576 C61.8576705,44.6226891 60.2693597,44.3187881 59.5595001,45.0947684 C58.8511194,45.872224 59.2918239,47.4345113 60.5429514,48.5866799 L60.5429514,48.5866799 Z" id="Stroke-429" fill="#E86038" sketch:type="MSShapeGroup"></path>
                            <path d="M57.9682465,78.1432287 C59.3702192,79.0962387 60.9718399,79.1478724 61.545643,78.2568227 C62.1179673,77.3672483 61.4465585,75.8728223 60.0445858,74.9198123 C58.6426131,73.9668022 57.0409924,73.9151686 56.4686681,74.8062182 C55.8948649,75.6957926 56.5662738,77.1902186 57.9682465,78.1432287 L57.9682465,78.1432287 Z" id="Stroke-431" fill="#E86038" sketch:type="MSShapeGroup"></path>
                            <path d="M49.0950016,82.568972 C50.4969743,83.521982 52.098595,83.5736157 52.6723982,82.682566 C53.2447225,81.7929916 52.5733136,80.2985657 51.1713409,79.3455556 C49.7693683,78.3925455 48.1677476,78.3409119 47.5954233,79.2319615 C47.0216201,80.1215359 47.693029,81.6159619 49.0950016,82.568972 L49.0950016,82.568972 Z" id="Stroke-433" fill="#E86038" sketch:type="MSShapeGroup"></path>
                            <path d="M44.2753359,48.5866799 C45.5264634,49.7388484 47.1162531,50.0427494 47.8246338,49.2652938 C48.5344934,48.4893135 48.0937889,46.9255509 46.8426614,45.7748576 C45.590055,44.6226891 44.0017441,44.3187881 43.2918846,45.0947684 C42.5835038,45.872224 43.0242083,47.4345113 44.2753359,48.5866799 L44.2753359,48.5866799 Z" id="Stroke-435" fill="#E86038" sketch:type="MSShapeGroup"></path>
                            <path d="M97.5148049,36.7846977 C98.7659324,37.9368662 100.355722,38.2407673 101.064103,37.4633117 C101.773962,36.6873314 101.333258,35.1235687 100.08213,33.9728755 C98.829524,32.820707 97.2412132,32.5168059 96.5313536,33.2927862 C95.8229729,34.0702418 96.2636774,35.6325292 97.5148049,36.7846977 L97.5148049,36.7846977 Z" id="Stroke-437" fill="#E86038" sketch:type="MSShapeGroup"></path>
                            <path d="M32.4443427,53.0124232 C33.6954703,54.1645917 35.28526,54.4684927 35.9936407,53.6910371 C36.7035003,52.9150568 36.2627958,51.3512942 35.0116682,50.2006009 C33.7590618,49.0484324 32.170751,48.7445314 31.4608914,49.5205117 C30.7525107,50.2979673 31.1932152,51.8602546 32.4443427,53.0124232 L32.4443427,53.0124232 Z" id="Stroke-439" fill="#E86038" sketch:type="MSShapeGroup"></path>
                            <path d="M55.0104982,64.8659988 C56.4124709,65.8190088 58.0140916,65.8706425 58.5878948,64.9795928 C59.160219,64.0900184 58.4888102,62.5955924 57.0868375,61.6425824 C55.6848648,60.6895723 54.0832441,60.6379387 53.5109198,61.5289883 C52.9371167,62.4185627 53.6085255,63.9129887 55.0104982,64.8659988 L55.0104982,64.8659988 Z" id="Stroke-441" fill="#E86038" sketch:type="MSShapeGroup"></path>
                            <path d="M47.6161275,100.271945 C49.0181002,101.224955 50.6197209,101.276589 51.193524,100.385539 C51.7658483,99.4959649 51.0944395,98.0015389 49.6924668,97.0485288 C48.2904941,96.0955187 46.6888734,96.0438851 46.1165491,96.9349347 C45.542746,97.8245091 46.2141548,99.3189351 47.6161275,100.271945 L47.6161275,100.271945 Z" id="Stroke-443" fill="#E86038" sketch:type="MSShapeGroup"></path>
                            <path d="M34.3062602,106.172936 C35.7082329,107.125946 37.3098536,107.17758 37.8836568,106.28653 C38.4559811,105.396956 37.7845722,103.90253 36.3825995,102.94952 C34.9806268,101.99651 33.3790061,101.944876 32.8066819,102.835926 C32.2328787,103.7255 32.9042875,105.219926 34.3062602,106.172936 L34.3062602,106.172936 Z" id="Stroke-445" fill="#E86038" sketch:type="MSShapeGroup"></path>
                            <path d="M93.4612259,67.8164943 C94.8631985,68.7695043 96.4648192,68.821138 97.0386224,67.9315636 C97.6109467,67.040514 96.9395378,65.546088 95.5375652,64.5930779 C94.1355925,63.6400679 92.5339718,63.5884342 91.9616475,64.4794838 C91.3878443,65.3690582 92.0592532,66.8634842 93.4612259,67.8164943 L93.4612259,67.8164943 Z" id="Stroke-447" fill="#E86038" sketch:type="MSShapeGroup"></path>
                            <path d="M112.245905,120.969941 C113.888934,121.20303 115.329358,120.503762 115.462457,119.406178 C115.595555,118.310069 114.372526,117.231663 112.729497,116.997098 C111.086468,116.764009 109.647523,117.463277 109.512946,118.560861 C109.379847,119.65697 110.602876,120.736851 112.245905,120.969941 L112.245905,120.969941 Z" id="Stroke-449" fill="#E86038" sketch:type="MSShapeGroup"></path>
                            <path d="M97.8978483,81.0937242 C99.299821,82.0467343 100.901442,82.0983679 101.475245,81.2087935 C102.047569,80.3177439 101.37616,78.8233179 99.9741876,77.8703078 C98.5722149,76.9172978 96.9705942,76.8656641 96.3982699,77.7567137 C95.8244667,78.6462882 96.4958756,80.1407141 97.8978483,81.0937242 L97.8978483,81.0937242 Z" id="Stroke-451" fill="#E86038" sketch:type="MSShapeGroup"></path>
                            <path d="M107.809283,88.5144897 C109.452312,88.7475788 110.892735,88.0483114 111.025834,86.950727 C111.158933,85.8546179 109.935904,84.7762118 108.292875,84.5416474 C106.651324,84.3085583 105.210901,85.0078257 105.076323,86.1054101 C104.943225,87.2015192 106.166254,88.2814005 107.809283,88.5144897 L107.809283,88.5144897 Z" id="Stroke-453" fill="#E86038" sketch:type="MSShapeGroup"></path>
                            <path d="M99.3767224,60.4402555 C100.778695,61.3932655 102.380316,61.4448992 102.954119,60.5538495 C103.526443,59.6642751 102.855034,58.1698491 101.453062,57.2168391 C100.051089,56.263829 98.4494683,56.2121953 97.877144,57.103245 C97.3033409,57.9928194 97.9747497,59.4872454 99.3767224,60.4402555 L99.3767224,60.4402555 Z" id="Stroke-455" fill="#E86038" sketch:type="MSShapeGroup"></path>
                            <path d="M60.4853103,118.019445 C62.1283395,118.252534 63.5687629,117.553267 63.7018616,116.455682 C63.8349603,115.359573 62.6119313,114.281167 60.9689022,114.046603 C59.325873,113.813514 57.8869285,114.512781 57.7523509,115.610365 C57.6192522,116.706475 58.8422812,117.786356 60.4853103,118.019445 L60.4853103,118.019445 Z" id="Stroke-457" fill="#E86038" sketch:type="MSShapeGroup"></path>
                            <path d="M85.6838118,30.8837066 C86.9349393,32.0358751 88.524729,32.3397762 89.2331097,31.5623206 C89.9429693,30.7863403 89.5022648,29.2225777 88.2511373,28.0718844 C86.9985309,26.9197159 85.4102201,26.6158148 84.7003605,27.3917952 C83.9919798,28.1692507 84.4326843,29.7315381 85.6838118,30.8837066 L85.6838118,30.8837066 Z" id="Stroke-459" sketch:type="MSShapeGroup"></path>
                            <path d="M96.4189741,110.59868 C97.8209468,111.55169 99.4225675,111.603323 99.9963707,110.713749 C100.568695,109.822699 99.8972861,108.328273 98.4953134,107.375263 C97.0933408,106.422253 95.4917201,106.370619 94.9193958,107.261669 C94.3455926,108.151244 95.0170015,109.645669 96.4189741,110.59868 L96.4189741,110.59868 Z" id="Stroke-461" sketch:type="MSShapeGroup"></path>
                            <path d="M100.855597,100.271945 C102.257569,101.224955 103.85919,101.276589 104.432993,100.385539 C105.005317,99.4959649 104.333909,98.0015389 102.931936,97.0485288 C101.529963,96.0955187 99.9283425,96.0438851 99.3560182,96.9349347 C98.782215,97.8245091 99.4536239,99.3189351 100.855597,100.271945 L100.855597,100.271945 Z" id="Stroke-463" sketch:type="MSShapeGroup"></path>
                            <path d="M90.5034776,101.747193 C91.9054503,102.700203 93.507071,102.751837 94.0808741,101.860787 C94.6531984,100.971213 93.9817896,99.4767866 92.5798169,98.5237766 C91.1778442,97.5707665 89.5762235,97.5191328 89.0038992,98.4101825 C88.430096,99.2997569 89.1015049,100.794183 90.5034776,101.747193 L90.5034776,101.747193 Z" id="Stroke-467" sketch:type="MSShapeGroup"></path>
                            <path d="M75.3316928,48.5866799 C76.5828203,49.7388484 78.17261,50.0427494 78.8809908,49.2652938 C79.5908503,48.4893135 79.1501458,46.9255509 77.8990183,45.7748576 C76.6464119,44.6226891 75.0581011,44.3187881 74.3482415,45.0947684 C73.6398608,45.872224 74.0805653,47.4345113 75.3316928,48.5866799 L75.3316928,48.5866799 Z" id="Stroke-469" sketch:type="MSShapeGroup"></path>
                            <path d="M84.587981,115.024423 C85.9899537,115.977433 87.5915744,116.029067 88.1653776,115.139492 C88.7377019,114.248443 88.066293,112.754017 86.6643203,111.801006 C85.2623476,110.847996 83.6607269,110.796363 83.0884026,111.687412 C82.5145995,112.576987 83.1860083,114.071413 84.587981,115.024423 L84.587981,115.024423 Z" id="Stroke-471" sketch:type="MSShapeGroup"></path>
                            <path d="M90.1204342,54.4876709 C91.3715617,55.6398394 92.9613514,55.9437405 93.6697322,55.1662849 C94.3795917,54.3903046 93.9388873,52.8265419 92.6877597,51.6758487 C91.4351533,50.5236802 89.8468425,50.2197791 89.1369829,50.9957595 C88.4286022,51.773215 88.8693067,53.3355024 90.1204342,54.4876709 L90.1204342,54.4876709 Z" id="Stroke-473" sketch:type="MSShapeGroup"></path>
                            <path d="M110.429815,112.113009 C112.022562,112.616068 113.551718,112.173494 113.843056,111.123117 C114.134394,110.071266 113.079957,108.811404 111.485731,108.308345 C109.892983,107.805285 108.365306,108.24786 108.072489,109.299711 C107.781151,110.350088 108.837067,111.609949 110.429815,112.113009 L110.429815,112.113009 Z" id="Stroke-475" sketch:type="MSShapeGroup"></path>
                            <path d="M53.8053536,4.06810947 C54.5861992,5.55958496 56.0044395,6.39752569 56.973102,5.93724839 C57.9417646,5.47697109 58.0926097,3.89550548 57.3117642,2.40255474 C56.5309187,0.911079245 55.1126783,0.0746137605 54.1440158,0.533415816 C53.1753532,0.99369312 53.0245081,2.57663397 53.8053536,4.06810947 L53.8053536,4.06810947 Z" id="Stroke-479" sketch:type="MSShapeGroup"></path>
                            <path d="M85.191131,17.4845078 C86.1938076,18.8520625 87.7096536,19.4731418 88.5777528,18.8697655 C89.4473308,18.2663891 89.3378941,16.6686958 88.3366963,15.3011411 C87.3340196,13.9321112 85.8166947,13.3125071 84.9485956,13.9158835 C84.0804965,14.5192598 84.1884543,16.1169531 85.191131,17.4845078 L85.191131,17.4845078 Z" id="Stroke-483" fill="#E86038" sketch:type="MSShapeGroup"></path>
                            <path d="M108.853117,66.1676841 C109.855794,67.5352388 111.37164,68.1563181 112.239739,67.5529418 C113.109317,66.9495655 112.99988,65.3518721 111.998683,63.9843175 C110.996006,62.6152875 109.478681,61.9956835 108.610582,62.5990598 C107.742483,63.2024361 107.850441,64.8001295 108.853117,66.1676841 L108.853117,66.1676841 Z" id="Stroke-487" fill="#E86038" sketch:type="MSShapeGroup"></path>
                            <path d="M78.946214,7.018605 C79.7270595,8.5100805 81.1452998,9.34802123 82.1139624,8.88774392 C83.082625,8.42746662 83.2334701,6.84600101 82.4526246,5.35305027 C81.671779,3.86157478 80.2535387,3.0251093 79.2848762,3.48391135 C78.3162136,3.94418865 78.1653685,5.52712951 78.946214,7.018605 L78.946214,7.018605 Z" id="Stroke-489" fill="#E86038" sketch:type="MSShapeGroup"></path>
                            <path d="M102.937621,49.9399587 C103.940297,51.3075134 105.456143,51.9285927 106.324242,51.3252164 C107.19382,50.72184 107.084384,49.1241467 106.083186,47.756592 C105.080509,46.3875621 103.563184,45.767958 102.695085,46.3713344 C101.826986,46.9747107 101.934944,48.572404 102.937621,49.9399587 L102.937621,49.9399587 Z" id="Stroke-491" fill="#E86038" sketch:type="MSShapeGroup"></path>
                            <path d="M101.458747,128.12809 C102.461423,129.495645 103.977269,130.116724 104.845368,129.513348 C105.714946,128.909972 105.60551,127.312278 104.604312,125.944724 C103.601635,124.575694 102.08431,123.95609 101.216211,124.559466 C100.348112,125.162842 100.45607,126.760536 101.458747,128.12809 L101.458747,128.12809 Z" id="Stroke-497" fill="#E86038" sketch:type="MSShapeGroup"></path>
                            <path d="M41.9130055,122.418433 C43.3844853,123.248997 44.9772327,123.156057 45.4711767,122.210423 C45.9636418,121.264789 45.1724441,119.824947 43.7009644,118.994383 C42.2294846,118.163818 40.6367371,118.256759 40.1427932,119.202393 C39.6488492,120.148027 40.4415258,121.587869 41.9130055,122.418433 L41.9130055,122.418433 Z" id="Stroke-499" fill="#E86038" sketch:type="MSShapeGroup"></path>
                            <path d="M12.7262981,86.8211529 C13.7289747,88.1887076 15.2448207,88.8097869 16.1129199,88.2064105 C16.9824979,87.6030342 16.8730612,86.0053409 15.8718634,84.6377862 C14.8691867,83.2687563 13.3518618,82.6491522 12.4837627,83.2525285 C11.6156636,83.8559049 11.7236214,85.4535982 12.7262981,86.8211529 L12.7262981,86.8211529 Z" id="Stroke-501" fill="#E86038" sketch:type="MSShapeGroup"></path>
                            <path d="M19.7912484,37.9988081 C20.5720939,39.4902836 21.9903342,40.3282243 22.9589968,39.867947 C23.9276593,39.4076697 24.0785045,37.8262041 23.297659,36.3332534 C22.5168134,34.8417779 21.0985731,34.0053124 20.1299106,34.4641145 C19.161248,34.9243918 19.0104028,36.5073326 19.7912484,37.9988081 L19.7912484,37.9988081 Z" id="Stroke-503" fill="#E86038" sketch:type="MSShapeGroup"></path>
                            <path d="M9.43912939,111.761197 C10.2199749,113.252672 11.6382152,114.090613 12.6068778,113.630335 C13.5755404,113.170058 13.7263855,111.588593 12.94554,110.095642 C12.1646944,108.604166 10.7464541,107.767701 9.77779157,108.226503 C8.809129,108.68678 8.65828384,110.269721 9.43912939,111.761197 L9.43912939,111.761197 Z" id="Stroke-505" fill="#E86038" sketch:type="MSShapeGroup"></path>
                        </g>
                    </g>
                </g>
            </g>
        </g>
    </g>
</svg>