<?xml version="1.0" encoding="UTF-8" standalone="no"?>
<svg xmlns:sketch="http://www.bohemiancoding.com/sketch/ns" xmlns="http://www.w3.org/2000/svg" height="215px" width="481px" version="1.1" xmlns:xlink="http://www.w3.org/1999/xlink" viewBox="0 0 481 215"><!-- Generator: Sketch 3.2.2 (9983) - http://www.bohemiancoding.com/sketch -->
 <title>Stroke 181</title>
 <desc>Created with Sketch.</desc>
 <defs>
  <rect id="path-1" y="0" x="0" height="345" width="554"/>
 </defs>
 <g id="Blank-Project" fill-rule="evenodd" sketch:type="MSPage" fill="none">
  <g id="Pagina-Producto-14" transform="translate(-377 -331)" sketch:type="MSArtboardGroup">
   <g id="Stroke-181" transform="translate(304 201)" sketch:type="MSLayerGroup">
    <mask id="mask-2" sketch:name="Mask" fill="white">
     <use xlink:href="#path-1"/>
    </mask>
    <use id="Mask" xlink:href="#path-1" sketch:type="MSShapeGroup"/>
    <g id="fresa" mask="url(#mask-2)">
     <g transform="translate(236 130)">
      <path id="Stroke-507" sketch:type="MSShapeGroup" fill="#E23805" d="m315.99 202.34c-1.62-6.31-2.67-11.25-3.57-15.46-2.58-12.1-3.76-17.62-13.59-32.64-9.52-14.55-15.57-31.63-19.99-44.1-1.89-5.34-3.52-9.96-4.79-12.394-1.07-2.064-2.42-5.548-4.3-10.366-5.97-15.357-15.96-41.06-29.7-53.45-19.1-17.24-29.53-22.357-41.3-20.274-9.23 1.635-12.98 1.729-14.76 1.384-4.66 1.288-24.88 7.325-46.02 20.217-2.93 5.048-7.9 10.108-11.58 13.855-1.29 1.315-2.89 2.943-3.31 3.531-1.37 3.046-7.95 5.73-12.74 7.33 4.71 4.626 6.55 12.092 4.43 19.86-2.47 9.027-3.36 22.587-2.61 26.327l1.69 8.45-6.88-5.19c-0.02-0.01-3.42-2.48-7.106-1.97-0.815 0.12-1.906 0.37-3.174 0.65-5.218 1.16-13.902 3.1-19.87-0.16-0.318 3.94-0.658 7.78-0.983 10.81-0.603 5.65 1.323 15.89 2.729 23.37 1.701 9.04 2.144 11.73 1.088 13.64-0.965 1.74-1.347 3.68-1.349 3.7l-1.202 6.25c-0.948-0.99-1.893-1.98-2.841-2.97 2.193 11.7 7.335 30 18.639 37.14 15.019 9.47 15.989 9.66 66.819 19.35 10.24 1.95 22.46 4.29 37.2 7.15 48.91 9.52 93.46 12.34 100.62 8.52l2.04-1.07c9.64-4.99 21.63-11.21 16.41-31.49z"/>
      <path id="Stroke-509" sketch:type="MSShapeGroup" fill="#E23805" d="m93.134 41.566c-7.366-9.113-19.03-20.727-33.217-28.473-22.086-12.058-36.81-12.186-36.81-12.186l0.746 5.4122-3.76 6.3278s4.038 1.635 13.419 2.519c9.381 0.881 13.574 1.669 30.783 11.932 9.888 5.899 19.205 19.171 25.39 29.448 0.751-4.669 2.053-9.984 3.449-14.98z"/>
      <path id="Stroke-511" sketch:type="MSShapeGroup" fill="#E23805" d="m184.96 0.90723s-17.66 15.305-32.44 19.622c-5.75 1.679-8.78 3.058-10.36 4.121 2.24 2.849 1.13 6.806-1.42 10.918 5.72-3.164 48.57-27.218 44.22-34.661v0.00023z"/>
      <path id="Stroke-513" sketch:type="MSShapeGroup" fill="#E23805" d="m114.55 21.23s12.75-7.291 21.82 0.536c9.08 7.83-15.51 26.971-15.98 29.517-0.48 2.546-25.033 12.036-23.933 6.094 1.099-5.941 10.453-11.456 17.493-18.7l2.04 12.668-1.44-30.115z"/>
      <path id="Stroke-515" sketch:type="MSShapeGroup" fill="#E23805" d="m65.222 78.481c2.593-4.53 12.447-20.268 23.044-18.314 4.841 0.894 8.926 3.645 11.499 7.747 3.055 4.86 3.805 11.286 2.065 17.627-2.58 9.42-3.513 23.569-2.73 27.469 0.276 1.39-0.33 2.8-1.522 3.55-1.194 0.75-2.725 0.68-3.853-0.16-0.02-0.02-3.592-2.6-7.461-2.06-0.859 0.12-2.009 0.38-3.346 0.68-7.374 1.65-21.101 4.73-25.838-5.63-5.183-11.327 0.389-18.08 0.628-18.364 0.948-1.115 2.506-1.497 3.863-0.948s2.211 1.906 2.117 3.366c-0.014 0.217-1.398 21.676-2.58 32.696-0.633 5.9 1.381 16.59 2.854 24.39 1.777 9.43 2.24 12.24 1.14 14.22-1.012 1.82-1.411 3.85-1.416 3.87-0.239 1.25-1.157 2.26-2.376 2.62s-2.536 0.01-3.415-0.9c-3.265-3.41-13.981-14.99-14.818-20.96-0.731-5.23-1.164-32.95 2.775-43.75 0.783-2.15 1.458-3.9 2.039-5.34-2.42 0.72-5.543 2.18-9.004 5.09-4.829 4.06-8.086 7.46-10.704 10.19-2.43 2.53-4.35 4.53-6.507 6.01-1.315 0.9-2.886 1.62-4.55 2.4-3.901 1.8-6.648 3.23-6.459 5.21 0.47 4.92 1.453 6.68 1.463 6.7 0.82 1.43 0.527 3.31-0.746 4.36-1.271 1.05-3.0805 1.1-4.3363 0.03-0.2437-0.21-5.9585-5.18-6.5938-13.96-0.5441-7.51 2.7036-15.34 9.6571-23.27 13.763-15.678 24.019-14.754 31.506-14.077 2.544 0.229 4.74 0.428 6.476-0.153 6.722-2.245 15.071-8.696 17.129-10.339z"/>
      <g id="Group" sketch:type="MSLayerGroup" transform="translate(91 13)" fill="none">
       <path id="Stroke-385" sketch:type="MSShapeGroup" fill="#E86038" d="m64.504 110.72c2.334 1.6 5.001 1.68 5.956 0.19 0.953-1.48-0.165-3.97-2.499-5.57-2.334-1.59-5.001-1.67-5.954-0.19-0.955 1.49 0.163 3.98 2.497 5.57z"/>
       <path id="Stroke-387" sketch:type="MSShapeGroup" fill="#E86038" d="m143.29 130.42c2.34 1.59 5.01 1.68 5.96 0.19 0.95-1.48-0.16-3.98-2.5-5.57-2.33-1.59-5-1.67-5.95-0.19-0.96 1.49 0.16 3.98 2.49 5.57z"/>
       <path id="Stroke-389" sketch:type="MSShapeGroup" fill="#E86038" d="m110.55 22.159c2.74 0.389 5.14-0.778 5.36-2.61 0.22-1.829-1.82-3.629-4.55-4.02-2.74-0.39-5.13 0.778-5.36 2.609-0.22 1.83 1.82 3.632 4.55 4.021z"/>
       <path id="Stroke-391" sketch:type="MSShapeGroup" fill="#E86038" d="m7.0947 113.07c2.0215 1.99 4.6533 2.59 5.8823 1.34 1.226-1.25 0.583-3.88-1.438-5.86-2.0215-1.99-4.6536-2.59-5.8822-1.34-1.2262 1.25-0.5835 3.87 1.4379 5.86z"/>
       <path id="Stroke-393" sketch:type="MSShapeGroup" fill="#E86038" d="m125.42 44.159c2.08 1.923 4.73 2.43 5.91 1.132 1.18-1.295 0.45-3.905-1.63-5.825-2.09-1.923-4.73-2.43-5.92-1.135-1.18 1.297-0.44 3.905 1.64 5.828z"/>
       <path id="Stroke-395" sketch:type="MSShapeGroup" fill="#E86038" d="m68.791 31.848c2.083 1.923 4.729 2.43 5.909 1.132 1.182-1.295 0.448-3.905-1.635-5.825-2.086-1.923-4.73-2.431-5.912-1.135-1.179 1.297-0.445 3.905 1.638 5.828z"/>
       <path id="Stroke-397" sketch:type="MSShapeGroup" fill="#E86038" d="m133.45 179.67c2.33 1.59 5 1.67 5.95 0.19 0.95-1.49-0.16-3.98-2.5-5.57-2.33-1.59-5-1.68-5.95-0.19-0.96 1.48 0.16 3.98 2.5 5.57z"/>
       <path id="Stroke-399" sketch:type="MSShapeGroup" fill="#E86038" d="m126.06 199.36c2.33 1.59 5 1.68 5.96 0.2 0.95-1.49-0.17-3.99-2.5-5.58-2.34-1.59-5-1.67-5.96-0.19-0.95 1.49 0.16 3.98 2.5 5.57z"/>
       <path id="Stroke-401" sketch:type="MSShapeGroup" fill="#E86038" d="m113.11 100.79c2.08 1.92 4.73 2.43 5.91 1.13 1.18-1.29 0.45-3.903-1.64-5.823-2.08-1.923-4.73-2.431-5.91-1.136-1.18 1.298-0.44 3.906 1.64 5.829z"/>
       <path id="Stroke-403" sketch:type="MSShapeGroup" fill="#E86038" d="m135.91 105.8c2.33 1.59 5 1.68 5.95 0.19 0.96-1.49-0.16-3.98-2.5-5.57-2.33-1.59-5-1.677-5.95-0.19-0.95 1.49 0.16 3.98 2.5 5.57z"/>
       <path id="Stroke-405" sketch:type="MSShapeGroup" fill="#E86038" d="m2.3109 162.34c2.083 1.93 4.7299 2.43 5.9093 1.14 1.1819-1.3 0.4481-3.91-1.6349-5.83-2.0855-1.92-4.7299-2.43-5.9118-1.13-1.1794 1.29-0.44564 3.9 1.6374 5.82z"/>
       <path id="Stroke-407" sketch:type="MSShapeGroup" fill="#E86038" d="m26.933 169.73c2.083 1.92 4.73 2.43 5.909 1.13 1.182-1.29 0.448-3.9-1.635-5.82-2.085-1.92-4.73-2.43-5.911-1.14-1.18 1.3-0.446 3.91 1.637 5.83z"/>
       <path id="Stroke-409" sketch:type="MSShapeGroup" fill="#E86038" d="m44.806 115.65c2.334 1.59 5.001 1.68 5.956 0.19 0.953-1.49-0.165-3.98-2.499-5.57s-5.001-1.68-5.953-0.19c-0.956 1.48 0.162 3.98 2.496 5.57z"/>
       <path id="Stroke-411" sketch:type="MSShapeGroup" fill="#E86038" d="m121.13 123.04c2.34 1.59 5.01 1.67 5.96 0.19 0.95-1.49-0.16-3.98-2.5-5.57-2.33-1.59-5-1.68-5.95-0.19-0.96 1.48 0.16 3.97 2.49 5.57z"/>
       <path id="Stroke-413" sketch:type="MSShapeGroup" fill="#E86038" d="m162.26 152.66c2.73 0.39 5.13-0.78 5.35-2.61 0.23-1.83-1.81-3.63-4.55-4.02-2.73-0.39-5.13 0.77-5.35 2.61-0.22 1.82 1.81 3.63 4.55 4.02z"/>
       <path id="Stroke-415" sketch:type="MSShapeGroup" fill="#E86038" d="m100.8 34.31c2.08 1.923 4.73 2.43 5.91 1.132 1.18-1.295 0.45-3.905-1.64-5.825-2.08-1.923-4.73-2.43-5.908-1.135-1.18 1.297-0.446 3.905 1.638 5.828z"/>
       <path id="Stroke-417" sketch:type="MSShapeGroup" fill="#E86038" d="m36.782 132.8c2.083 1.92 4.73 2.43 5.909 1.13 1.182-1.29 0.448-3.9-1.635-5.82-2.085-1.93-4.73-2.43-5.912-1.14-1.179 1.3-0.445 3.91 1.638 5.83z"/>
       <path id="Stroke-419" sketch:type="MSShapeGroup" fill="#E86038" d="m118.67 145.2c2.34 1.59 5 1.67 5.96 0.18 0.95-1.48-0.17-3.97-2.5-5.56-2.33-1.6-5-1.68-5.95-0.19-0.96 1.48 0.16 3.97 2.49 5.57z"/>
       <path id="Stroke-421" sketch:type="MSShapeGroup" fill="#E86038" d="m96.513 157.51c2.334 1.59 4.997 1.67 5.957 0.19 0.95-1.49-0.17-3.98-2.5-5.57-2.335-1.59-5.001-1.68-5.954-0.19-0.955 1.48 0.162 3.98 2.497 5.57z"/>
       <path id="Stroke-423" sketch:type="MSShapeGroup" fill="#E86038" d="m110.65 58.932c2.08 1.923 4.73 2.43 5.91 1.133 1.18-1.296 0.45-3.905-1.64-5.826-2.08-1.923-4.73-2.43-5.91-1.135-1.18 1.298-0.44 3.905 1.64 5.828z"/>
       <path id="Stroke-425" sketch:type="MSShapeGroup" fill="#E86038" d="m68.791 51.545c2.083 1.923 4.729 2.431 5.909 1.133 1.182-1.295 0.448-3.905-1.635-5.826-2.086-1.923-4.73-2.43-5.912-1.135-1.179 1.298-0.445 3.905 1.638 5.828z"/>
       <path id="Stroke-427" sketch:type="MSShapeGroup" fill="#E86038" d="m123.6 159.97c2.33 1.59 5 1.68 5.95 0.19 0.96-1.49-0.16-3.98-2.5-5.57-2.33-1.59-5-1.68-5.95-0.19-0.96 1.48 0.16 3.98 2.5 5.57z"/>
       <path id="Stroke-429" sketch:type="MSShapeGroup" fill="#E86038" d="m100.8 81.092c2.08 1.923 4.73 2.43 5.91 1.132 1.18-1.295 0.45-3.905-1.64-5.825-2.08-1.923-4.73-2.43-5.908-1.135-1.18 1.297-0.446 3.905 1.638 5.828z"/>
       <path id="Stroke-431" sketch:type="MSShapeGroup" fill="#E86038" d="m96.513 130.42c2.334 1.59 4.997 1.68 5.957 0.19 0.95-1.48-0.17-3.98-2.5-5.57-2.335-1.59-5.001-1.67-5.954-0.19-0.955 1.49 0.162 3.98 2.497 5.57z"/>
       <path id="Stroke-433" sketch:type="MSShapeGroup" fill="#E86038" d="m81.739 137.81c2.334 1.59 5.001 1.68 5.956 0.19 0.953-1.49-0.165-3.98-2.499-5.57s-5-1.68-5.953-0.19c-0.956 1.48 0.162 3.98 2.496 5.57z"/>
       <path id="Stroke-435" sketch:type="MSShapeGroup" fill="#E86038" d="m73.715 81.092c2.083 1.923 4.73 2.43 5.909 1.132 1.182-1.295 0.448-3.905-1.635-5.825-2.085-1.923-4.73-2.43-5.911-1.135-1.18 1.297-0.446 3.905 1.637 5.828z"/>
       <path id="Stroke-437" sketch:type="MSShapeGroup" fill="#E86038" d="m162.35 61.394c2.09 1.923 4.73 2.43 5.91 1.133 1.19-1.295 0.45-3.905-1.63-5.826-2.09-1.923-4.73-2.43-5.91-1.135-1.18 1.298-0.45 3.905 1.63 5.828z"/>
       <path id="Stroke-439" sketch:type="MSShapeGroup" fill="#E86038" d="m54.017 88.478c2.083 1.923 4.73 2.431 5.91 1.133 1.181-1.295 0.448-3.905-1.635-5.825-2.086-1.923-4.73-2.431-5.912-1.136-1.179 1.298-0.446 3.905 1.637 5.828z"/>
       <path id="Stroke-441" sketch:type="MSShapeGroup" fill="#E86038" d="m91.588 108.26c2.334 1.59 5.001 1.68 5.956 0.19 0.953-1.48-0.165-3.98-2.499-5.57s-5.001-1.67-5.954-0.19c-0.955 1.49 0.163 3.98 2.497 5.57z"/>
       <path id="Stroke-443" sketch:type="MSShapeGroup" fill="#E86038" d="m79.277 167.36c2.334 1.59 5.001 1.67 5.956 0.18 0.953-1.48-0.165-3.97-2.499-5.56-2.334-1.6-5.001-1.68-5.954-0.19-0.955 1.48 0.163 3.97 2.497 5.57z"/>
       <path id="Stroke-445" sketch:type="MSShapeGroup" fill="#E86038" d="m57.117 177.2c2.334 1.59 5.001 1.68 5.956 0.19 0.953-1.48-0.165-3.98-2.499-5.57s-5.001-1.67-5.953-0.19c-0.956 1.49 0.162 3.98 2.496 5.57z"/>
       <path id="Stroke-447" sketch:type="MSShapeGroup" fill="#E86038" d="m155.61 113.19c2.33 1.59 5 1.67 5.95 0.19 0.95-1.49-0.16-3.98-2.5-5.57-2.33-1.59-5-1.68-5.95-0.19-0.96 1.48 0.16 3.98 2.5 5.57z"/>
       <path id="Stroke-449" sketch:type="MSShapeGroup" fill="#E86038" d="m186.88 201.9c2.74 0.39 5.13-0.78 5.36-2.61 0.22-1.83-1.82-3.63-4.55-4.02-2.74-0.39-5.14 0.78-5.36 2.61s1.82 3.63 4.55 4.02z"/>
       <path id="Stroke-451" sketch:type="MSShapeGroup" fill="#E86038" d="m162.99 135.35c2.34 1.59 5 1.67 5.96 0.19 0.95-1.49-0.17-3.98-2.5-5.57-2.34-1.59-5-1.68-5.95-0.19-0.96 1.48 0.16 3.98 2.49 5.57z"/>
       <path id="Stroke-453" sketch:type="MSShapeGroup" fill="#E86038" d="m179.49 147.73c2.74 0.39 5.14-0.78 5.36-2.61s-1.82-3.63-4.55-4.02-5.13 0.78-5.36 2.61c-0.22 1.83 1.82 3.63 4.55 4.02z"/>
       <path id="Stroke-455" sketch:type="MSShapeGroup" fill="#E86038" d="m165.45 100.88c2.34 1.59 5.01 1.67 5.96 0.19 0.95-1.489-0.16-3.984-2.5-5.574-2.33-1.591-5-1.677-5.95-0.19-0.96 1.485 0.16 3.979 2.49 5.574z"/>
       <path id="Stroke-457" sketch:type="MSShapeGroup" fill="#E86038" d="m100.7 196.98c2.74 0.39 5.14-0.78 5.36-2.61s-1.82-3.63-4.55-4.02c-2.737-0.39-5.133 0.77-5.357 2.61-0.221 1.82 1.815 3.63 4.547 4.02z"/>
       <path id="Stroke-459" sketch:type="MSShapeGroup" d="m142.66 51.545c2.08 1.923 4.73 2.431 5.91 1.133 1.18-1.295 0.44-3.905-1.64-5.826-2.08-1.923-4.73-2.43-5.91-1.135-1.18 1.298-0.45 3.905 1.64 5.828z"/>
       <path id="Stroke-461" sketch:type="MSShapeGroup" d="m160.53 184.59c2.33 1.59 5 1.68 5.96 0.19 0.95-1.48-0.17-3.98-2.5-5.57-2.34-1.59-5-1.68-5.96-0.19-0.95 1.49 0.17 3.98 2.5 5.57z"/>
       <path id="Stroke-463" sketch:type="MSShapeGroup" d="m167.92 167.36c2.33 1.59 5 1.67 5.95 0.18 0.96-1.48-0.16-3.97-2.5-5.56-2.33-1.6-5-1.68-5.95-0.19-0.96 1.48 0.16 3.97 2.5 5.57z"/>
       <path id="Stroke-467" sketch:type="MSShapeGroup" d="m150.68 169.82c2.34 1.59 5 1.67 5.96 0.19 0.95-1.49-0.17-3.98-2.5-5.57-2.34-1.59-5-1.68-5.96-0.19-0.95 1.48 0.17 3.98 2.5 5.57z"/>
       <path id="Stroke-469" sketch:type="MSShapeGroup" d="m125.42 81.092c2.08 1.923 4.73 2.43 5.91 1.132 1.18-1.295 0.45-3.905-1.63-5.825-2.09-1.923-4.73-2.43-5.92-1.135-1.18 1.297-0.44 3.905 1.64 5.828z"/>
       <path id="Stroke-471" sketch:type="MSShapeGroup" d="m140.83 191.98c2.34 1.59 5 1.67 5.96 0.19 0.95-1.49-0.17-3.98-2.5-5.57s-5-1.68-5.95-0.19c-0.96 1.48 0.16 3.98 2.49 5.57z"/>
       <path id="Stroke-473" sketch:type="MSShapeGroup" d="m150.04 90.941c2.09 1.923 4.73 2.43 5.91 1.132 1.18-1.295 0.45-3.905-1.63-5.825-2.09-1.923-4.73-2.43-5.91-1.135-1.18 1.297-0.45 3.905 1.63 5.828z"/>
       <path id="Stroke-475" sketch:type="MSShapeGroup" d="m183.86 187.12c2.65 0.84 5.19 0.1 5.68-1.65 0.48-1.76-1.27-3.86-3.93-4.7-2.65-0.84-5.19-0.1-5.68 1.65-0.48 1.76 1.28 3.86 3.93 4.7z"/>
       <path id="Stroke-479" sketch:type="MSShapeGroup" d="m89.582 6.7897c1.3 2.4893 3.661 3.8883 5.274 3.1197 1.612-0.7683 1.864-3.4077 0.564-5.8995-1.3-2.4893-3.662-3.8854-5.274-3.1196-1.613 0.7682-1.864 3.4101-0.564 5.8994z"/>
       <path id="Stroke-483" sketch:type="MSShapeGroup" fill="#E86038" d="m141.84 29.182c1.67 2.282 4.19 3.319 5.64 2.312 1.44-1.007 1.26-3.674-0.41-5.956-1.67-2.285-4.19-3.319-5.64-2.312-1.44 1.007-1.26 3.673 0.41 5.956z"/>
       <path id="Stroke-487" sketch:type="MSShapeGroup" fill="#E86038" d="m181.23 110.43c1.67 2.29 4.2 3.32 5.64 2.32 1.45-1.01 1.27-3.68-0.4-5.96s-4.2-3.32-5.64-2.31c-1.45 1.01-1.27 3.67 0.4 5.95z"/>
       <path id="Stroke-489" sketch:type="MSShapeGroup" fill="#E86038" d="m131.44 11.714c1.3 2.489 3.66 3.888 5.27 3.12 1.62-0.768 1.87-3.408 0.57-5.8997-1.3-2.4893-3.66-3.8853-5.28-3.1196-1.61 0.7682-1.86 3.4102-0.56 5.8993z"/>
       <path id="Stroke-491" sketch:type="MSShapeGroup" fill="#E86038" d="m171.38 83.35c1.67 2.283 4.2 3.32 5.64 2.313 1.45-1.008 1.27-3.674-0.4-5.957-1.67-2.285-4.2-3.319-5.64-2.312-1.45 1.007-1.27 3.674 0.4 5.956z"/>
       <path id="Stroke-499" sketch:type="MSShapeGroup" fill="#E86038" d="m69.782 204.32c2.45 1.38 5.102 1.23 5.924-0.35 0.82-1.58-0.497-3.98-2.947-5.37-2.45-1.38-5.102-1.23-5.924 0.35-0.823 1.58 0.497 3.98 2.947 5.37z"/>
       <path id="Stroke-501" sketch:type="MSShapeGroup" fill="#E86038" d="m21.188 144.91c1.67 2.28 4.193 3.31 5.639 2.31 1.448-1.01 1.265-3.68-0.402-5.96-1.669-2.28-4.195-3.32-5.641-2.31-1.445 1.01-1.265 3.67 0.404 5.96z"/>
       <path id="Stroke-503" sketch:type="MSShapeGroup" fill="#E86038" d="m32.951 63.421c1.3 2.489 3.661 3.887 5.274 3.119s1.864-3.408 0.564-5.899c-1.3-2.49-3.662-3.886-5.274-3.12-1.613 0.768-1.864 3.41-0.564 5.9z"/>
       <path id="Stroke-505" sketch:type="MSShapeGroup" fill="#E86038" d="m15.715 186.53c1.3 2.49 3.662 3.89 5.274 3.12 1.613-0.77 1.864-3.41 0.564-5.9s-3.661-3.88-5.274-3.12c-1.612 0.77-1.864 3.41-0.564 5.9z"/>
      </g>
     </g>
    </g>
    <g id="fresa-2" mask="url(#mask-2)">
     <g transform="translate(168.5 211) scale(-1 1) translate(-95.5 -71)">
      <path id="Stroke-507" sketch:type="MSShapeGroup" fill="#E23805" d="m189.79 121.23c-0.97-3.78-1.6-6.74-2.14-9.26-1.55-7.25-2.26-10.56-8.16-19.557-5.72-8.717-9.36-18.951-12.01-26.422-1.14-3.201-2.12-5.966-2.88-7.426-0.64-1.236-1.45-3.324-2.58-6.211-3.59-9.201-9.59-24.601-17.84-32.025-11.47-10.329-17.73-13.395-24.8-12.147-5.55 0.9799-7.8 1.0359-8.87 0.8294-2.8 0.7716-14.943 4.3886-27.642 12.114-1.76 3.024-4.744 6.056-6.954 8.301-0.777 0.788-1.736 1.763-1.99 2.115-0.822 1.825-4.772 3.433-7.652 4.392 2.829 2.772 3.938 7.245 2.662 11.9-1.482 5.408-2.017 13.535-1.567 15.771l1.015 5.065-4.133-3.11c-0.012-0.007-2.056-1.485-4.268-1.179-0.489 0.068-1.145 0.219-1.906 0.388-3.134 0.698-8.35 1.861-11.935-0.093-0.191 2.361-0.395 4.659-0.59 6.475-0.362 3.385 0.794 9.52 1.639 14 1.022 5.418 1.288 7.03 0.653 8.173-0.579 1.045-0.809 2.207-0.81 2.219l-0.722 3.741c-0.569-0.593-1.137-1.184-1.706-1.777 1.317 7.004 4.405 17.974 11.195 22.254 9.018 5.68 9.601 5.79 40.135 11.59 6.146 1.17 13.486 2.57 22.346 4.29 29.37 5.7 56.13 7.39 60.43 5.1l1.23-0.64c5.79-2.99 12.99-6.71 9.85-18.87z"/>
      <path id="Stroke-509" sketch:type="MSShapeGroup" fill="#E23805" d="m55.939 24.904c-4.425-5.46-11.43-12.418-19.951-17.059-13.266-7.2247-22.109-7.3014-22.109-7.3014l0.448 3.2426-2.259 3.7914s2.426 0.9795 8.06 1.5091c5.635 0.5282 8.153 1.0003 18.489 7.1493 5.939 3.534 11.535 11.486 15.25 17.644 0.451-2.797 1.234-5.982 2.072-8.976z"/>
      <path id="Stroke-511" sketch:type="MSShapeGroup" fill="#E23805" d="m111.09 0.54357s-10.61 9.1701-19.482 11.756c-3.456 1.006-5.275 1.832-6.223 2.469 1.347 1.707 0.679 4.078-0.852 6.542 3.434-1.896 29.177-16.308 26.557-20.767v-0.00043z"/>
      <path id="Stroke-513" sketch:type="MSShapeGroup" fill="#E23805" d="m68.802 12.72s7.659-4.3684 13.109 0.321c5.449 4.692-9.32 16.16-9.604 17.686-0.283 1.525-15.033 7.211-14.372 3.651 0.66-3.56 6.281-6.864 10.508-11.205l1.224 7.591-0.865-18.044z"/>
      <path id="Stroke-515" sketch:type="MSShapeGroup" fill="#E23805" d="m39.174 47.023c1.558-2.715 7.476-12.145 13.841-10.973 2.908 0.535 5.361 2.183 6.907 4.641 1.832 2.912 2.284 6.762 1.24 10.561-1.55 5.644-2.11 14.124-1.64 16.459 0.166 0.83-0.198 1.675-0.914 2.125-0.717 0.45-1.637 0.411-2.314-0.096-0.012-0.009-2.158-1.555-4.481-1.233-0.516 0.07-1.207 0.228-2.01 0.408-4.429 0.99-12.674 2.833-15.519-3.371-3.113-6.789 0.233-10.835 0.377-11.005 0.569-0.668 1.505-0.897 2.32-0.568s1.328 1.142 1.272 2.017c-0.009 0.13-0.84 12.988-1.55 19.592-0.38 3.534 0.83 9.936 1.714 14.611 1.068 5.649 1.346 7.331 0.685 8.52-0.608 1.092-0.847 2.309-0.85 2.319-0.144 0.75-0.695 1.35-1.427 1.57-0.733 0.22-1.524 0.01-2.052-0.54-1.961-2.04-8.397-8.979-8.9-12.561-0.439-3.132-0.699-19.738 1.667-26.209 0.47-1.289 0.876-2.34 1.225-3.198-1.454 0.428-3.329 1.301-5.409 3.046-2.9 2.436-4.856 4.47-6.428 6.105-1.46 1.518-2.613 2.716-3.909 3.601-0.79 0.54-1.733 0.975-2.733 1.437-2.3424 1.083-3.9928 1.94-3.879 3.121 0.2825 2.951 0.8726 4.007 0.8785 4.017 0.4924 0.859 0.3165 1.982-0.4481 2.613-0.7631 0.632-1.8501 0.66-2.6043 0.018-0.1464-0.124-3.5789-3.101-3.9604-8.365-0.32688-4.502 1.6238-9.192 5.8001-13.939 8.2672-9.396 14.426-8.843 18.923-8.437 1.528 0.137 2.847 0.256 3.89-0.092 4.037-1.345 9.052-5.21 10.288-6.194z"/>
      <g id="Group" sketch:type="MSLayerGroup" transform="translate(54.657 7.789)" fill="none">
       <path id="Stroke-385" sketch:type="MSShapeGroup" fill="#E86038" d="m38.743 66.341c1.402 0.953 3.003 1.005 3.577 0.114 0.573-0.89-0.099-2.384-1.501-3.337s-3.003-1.005-3.576-0.114c-0.573 0.89 0.098 2.384 1.5 3.337z"/>
       <path id="Stroke-387" sketch:type="MSShapeGroup" fill="#E86038" d="m86.067 78.143c1.402 0.953 3.003 1.005 3.577 0.115 0.573-0.891-0.099-2.385-1.501-3.338s-3.003-1.005-3.576-0.114c-0.574 0.89 0.098 2.384 1.5 3.337z"/>
       <path id="Stroke-389" sketch:type="MSShapeGroup" fill="#E86038" d="m66.401 13.277c1.643 0.233 3.083-0.466 3.216-1.564 0.133-1.096-1.09-2.1744-2.733-2.409-1.643-0.2331-3.082 0.4662-3.216 1.564-0.133 1.096 1.09 2.176 2.733 2.409z"/>
       <path id="Stroke-391" sketch:type="MSShapeGroup" fill="#E86038" d="m4.2613 67.749c1.2142 1.192 2.7951 1.55 3.533 0.801 0.7365-0.749 0.3505-2.323-0.8636-3.514-1.2142-1.192-2.7951-1.551-3.5331-0.801-0.7364 0.749-0.3505 2.322 0.8637 3.514z"/>
       <path id="Stroke-393" sketch:type="MSShapeGroup" fill="#E86038" d="m75.332 26.458c1.251 1.152 2.841 1.456 3.549 0.679 0.71-0.776 0.269-2.34-0.982-3.491-1.253-1.152-2.841-1.456-3.551-0.68-0.708 0.778-0.267 2.34 0.984 3.492z"/>
       <path id="Stroke-395" sketch:type="MSShapeGroup" fill="#E86038" d="m41.318 19.082c1.251 1.152 2.841 1.456 3.549 0.678 0.71-0.776 0.269-2.339-0.982-3.49-1.253-1.152-2.841-1.456-3.551-0.68-0.708 0.777-0.268 2.34 0.984 3.492z"/>
       <path id="Stroke-397" sketch:type="MSShapeGroup" fill="#E86038" d="m80.151 107.65c1.402 0.95 3.004 1 3.578 0.11 0.572-0.89-0.099-2.38-1.501-3.34-1.402-0.95-3.004-1-3.576-0.11-0.574 0.89 0.097 2.39 1.499 3.34z"/>
       <path id="Stroke-399" sketch:type="MSShapeGroup" fill="#E86038" d="m75.715 119.45c1.402 0.95 3.003 1 3.577 0.12 0.572-0.9-0.099-2.39-1.501-3.34-1.402-0.96-3.004-1.01-3.576-0.12-0.574 0.89 0.098 2.39 1.5 3.34z"/>
       <path id="Stroke-401" sketch:type="MSShapeGroup" fill="#E86038" d="m67.937 60.389c1.251 1.152 2.841 1.456 3.55 0.678 0.709-0.776 0.269-2.339-0.982-3.49-1.253-1.152-2.841-1.456-3.551-0.68-0.709 0.777-0.268 2.339 0.983 3.492z"/>
       <path id="Stroke-403" sketch:type="MSShapeGroup" fill="#E86038" d="m81.63 63.391c1.402 0.953 3.004 1.004 3.578 0.113 0.572-0.889-0.099-2.384-1.501-3.337s-3.004-1.004-3.576-0.113c-0.574 0.889 0.097 2.384 1.499 3.337z"/>
       <path id="Stroke-405" sketch:type="MSShapeGroup" fill="#E86038" d="m1.388 97.27c1.2511 1.152 2.8409 1.456 3.5493 0.678 0.7098-0.776 0.2691-2.339-0.982-3.49-1.2526-1.152-2.8409-1.456-3.5508-0.68-0.70835 0.777-0.26764 2.34 0.9835 3.492z"/>
       <path id="Stroke-407" sketch:type="MSShapeGroup" fill="#E86038" d="m16.177 101.7c1.251 1.15 2.841 1.45 3.549 0.67 0.71-0.77 0.269-2.34-0.982-3.486-1.253-1.152-2.841-1.456-3.551-0.68-0.708 0.777-0.267 2.336 0.984 3.496z"/>
       <path id="Stroke-409" sketch:type="MSShapeGroup" fill="#E86038" d="m26.912 69.292c1.402 0.953 3.003 1.004 3.577 0.115 0.573-0.891-0.099-2.386-1.501-3.339s-3.003-1.004-3.576-0.113c-0.573 0.889 0.098 2.384 1.5 3.337z"/>
       <path id="Stroke-411" sketch:type="MSShapeGroup" fill="#E86038" d="m72.757 73.717c1.402 0.953 3.004 1.005 3.577 0.116 0.573-0.891-0.099-2.386-1.501-3.339s-3.003-1.005-3.576-0.114c-0.573 0.89 0.098 2.384 1.5 3.337z"/>
       <path id="Stroke-413" sketch:type="MSShapeGroup" fill="#E86038" d="m97.457 91.465c1.643 0.233 3.083-0.466 3.213-1.564 0.14-1.096-1.086-2.174-2.729-2.409-1.643-0.233-3.082 0.466-3.217 1.564-0.133 1.096 1.09 2.176 2.733 2.409z"/>
       <path id="Stroke-415" sketch:type="MSShapeGroup" fill="#E86038" d="m60.543 20.557c1.251 1.152 2.841 1.456 3.549 0.679 0.71-0.776 0.269-2.34-0.982-3.491-1.252-1.152-2.841-1.456-3.55-0.68-0.709 0.778-0.268 2.34 0.983 3.492z"/>
       <path id="Stroke-417" sketch:type="MSShapeGroup" fill="#E86038" d="m22.092 79.567c1.251 1.152 2.841 1.456 3.55 0.678 0.709-0.775 0.269-2.339-0.982-3.49-1.253-1.152-2.841-1.456-3.551-0.68-0.709 0.777-0.268 2.34 0.983 3.492z"/>
       <path id="Stroke-419" sketch:type="MSShapeGroup" fill="#E86038" d="m71.278 86.995c1.402 0.953 3.004 1.004 3.578 0.113 0.572-0.889-0.1-2.384-1.502-3.337s-3.003-1.004-3.575-0.113c-0.574 0.889 0.097 2.384 1.499 3.337z"/>
       <path id="Stroke-421" sketch:type="MSShapeGroup" fill="#E86038" d="m57.968 94.371c1.402 0.953 3.004 1.005 3.578 0.114 0.572-0.89-0.099-2.384-1.501-3.337s-3.004-1.005-3.576-0.114c-0.574 0.89 0.097 2.384 1.499 3.337z"/>
       <path id="Stroke-423" sketch:type="MSShapeGroup" fill="#E86038" d="m66.458 35.309c1.252 1.153 2.841 1.457 3.55 0.679 0.71-0.776 0.269-2.34-0.982-3.49-1.253-1.153-2.841-1.456-3.551-0.68-0.708 0.777-0.268 2.339 0.983 3.491z"/>
       <path id="Stroke-425" sketch:type="MSShapeGroup" fill="#E86038" d="m41.318 30.884c1.251 1.152 2.841 1.456 3.549 0.678 0.71-0.776 0.269-2.339-0.982-3.49-1.253-1.152-2.841-1.456-3.551-0.68-0.708 0.777-0.268 2.34 0.984 3.492z"/>
       <path id="Stroke-427" sketch:type="MSShapeGroup" fill="#E86038" d="m74.236 95.846c1.402 0.953 3.003 1.005 3.577 0.115 0.573-0.891-0.099-2.385-1.501-3.338s-3.003-1.005-3.576-0.114c-0.574 0.89 0.098 2.384 1.5 3.337z"/>
       <path id="Stroke-429" sketch:type="MSShapeGroup" fill="#E86038" d="m60.543 48.587c1.251 1.152 2.841 1.456 3.549 0.678 0.71-0.776 0.269-2.339-0.982-3.49-1.252-1.152-2.841-1.456-3.55-0.68-0.709 0.777-0.268 2.34 0.983 3.492z"/>
       <path id="Stroke-431" sketch:type="MSShapeGroup" fill="#E86038" d="m57.968 78.143c1.402 0.953 3.004 1.005 3.578 0.114 0.572-0.89-0.099-2.384-1.501-3.337s-3.004-1.005-3.576-0.114c-0.574 0.89 0.097 2.384 1.499 3.337z"/>
       <path id="Stroke-433" sketch:type="MSShapeGroup" fill="#E86038" d="m49.095 82.569c1.402 0.953 3.004 1.005 3.577 0.114 0.573-0.89-0.099-2.384-1.501-3.337s-3.003-1.005-3.576-0.114c-0.573 0.89 0.098 2.384 1.5 3.337z"/>
       <path id="Stroke-435" sketch:type="MSShapeGroup" fill="#E86038" d="m44.275 48.587c1.251 1.152 2.841 1.456 3.55 0.678 0.709-0.776 0.269-2.339-0.982-3.49-1.253-1.152-2.841-1.456-3.551-0.68-0.708 0.777-0.268 2.34 0.983 3.492z"/>
       <path id="Stroke-437" sketch:type="MSShapeGroup" fill="#E86038" d="m97.515 36.785c1.251 1.152 2.845 1.456 3.545 0.678 0.71-0.776 0.27-2.339-0.98-3.49-1.25-1.152-2.839-1.456-3.549-0.68-0.708 0.777-0.267 2.34 0.984 3.492z"/>
       <path id="Stroke-439" sketch:type="MSShapeGroup" fill="#E86038" d="m32.444 53.012c1.251 1.153 2.841 1.456 3.55 0.679 0.71-0.776 0.269-2.34-0.982-3.49-1.253-1.153-2.841-1.456-3.551-0.68-0.708 0.777-0.268 2.339 0.983 3.491z"/>
       <path id="Stroke-441" sketch:type="MSShapeGroup" fill="#E86038" d="m55.01 64.866c1.402 0.953 3.004 1.005 3.578 0.114 0.572-0.89-0.099-2.384-1.501-3.337s-3.004-1.005-3.576-0.114c-0.574 0.89 0.098 2.384 1.499 3.337z"/>
       <path id="Stroke-443" sketch:type="MSShapeGroup" fill="#E86038" d="m47.616 100.27c1.402 0.95 3.004 1.01 3.578 0.12 0.572-0.894-0.1-2.388-1.502-3.341s-3.003-1.005-3.575-0.114c-0.574 0.89 0.097 2.384 1.499 3.335z"/>
       <path id="Stroke-445" sketch:type="MSShapeGroup" fill="#E86038" d="m34.306 106.17c1.402 0.96 3.004 1.01 3.578 0.12 0.572-0.89-0.099-2.39-1.501-3.34s-3.004-1.01-3.576-0.11c-0.574 0.89 0.097 2.38 1.499 3.33z"/>
       <path id="Stroke-447" sketch:type="MSShapeGroup" fill="#E86038" d="m93.461 67.816c1.402 0.954 3.004 1.005 3.578 0.116 0.572-0.891-0.099-2.386-1.501-3.339s-3.004-1.005-3.576-0.114c-0.574 0.89 0.097 2.384 1.499 3.337z"/>
       <path id="Stroke-449" sketch:type="MSShapeGroup" fill="#E86038" d="m112.25 120.97c1.64 0.23 3.08-0.47 3.21-1.56 0.14-1.1-1.09-2.18-2.73-2.41-1.64-0.24-3.08 0.46-3.22 1.56-0.13 1.1 1.09 2.18 2.74 2.41z"/>
       <path id="Stroke-451" sketch:type="MSShapeGroup" fill="#E86038" d="m97.898 81.094c1.402 0.953 3.002 1.004 3.582 0.115 0.57-0.891-0.1-2.386-1.506-3.339-1.402-0.953-3.003-1.004-3.576-0.113-0.574 0.889 0.098 2.384 1.5 3.337z"/>
       <path id="Stroke-453" sketch:type="MSShapeGroup" fill="#E86038" d="m107.81 88.514c1.64 0.234 3.08-0.466 3.22-1.563 0.13-1.096-1.09-2.175-2.74-2.409-1.64-0.233-3.08 0.466-3.21 1.563-0.14 1.097 1.09 2.176 2.73 2.409z"/>
       <path id="Stroke-455" sketch:type="MSShapeGroup" fill="#E86038" d="m99.377 60.44c1.403 0.953 3.003 1.005 3.573 0.114 0.58-0.89-0.09-2.384-1.5-3.337-1.4-0.953-3.001-1.005-3.573-0.114-0.574 0.89 0.098 2.384 1.5 3.337z"/>
       <path id="Stroke-457" sketch:type="MSShapeGroup" fill="#E86038" d="m60.485 118.02c1.643 0.23 3.084-0.47 3.217-1.56 0.133-1.1-1.09-2.18-2.733-2.41-1.643-0.24-3.082 0.46-3.217 1.56-0.133 1.1 1.09 2.18 2.733 2.41z"/>
       <path id="Stroke-459" sketch:type="MSShapeGroup" d="m85.684 30.884c1.251 1.152 2.841 1.456 3.549 0.678 0.71-0.776 0.269-2.339-0.982-3.49-1.252-1.152-2.841-1.456-3.551-0.68-0.708 0.777-0.267 2.34 0.984 3.492z"/>
       <path id="Stroke-461" sketch:type="MSShapeGroup" d="m96.419 110.6c1.402 0.95 3.004 1 3.577 0.11 0.574-0.89-0.099-2.38-1.501-3.33-1.402-0.96-3.003-1.01-3.576-0.12s0.098 2.39 1.5 3.34z"/>
       <path id="Stroke-463" sketch:type="MSShapeGroup" d="m100.86 100.27c1.4 0.95 3 1.01 3.57 0.12 0.58-0.894-0.1-2.388-1.5-3.341s-3.002-1.005-3.574-0.114c-0.574 0.89 0.098 2.384 1.504 3.335z"/>
       <path id="Stroke-467" sketch:type="MSShapeGroup" d="m90.503 101.75c1.402 0.95 3.004 1 3.578 0.11 0.572-0.89-0.099-2.383-1.501-3.336s-3.004-1.005-3.576-0.114c-0.574 0.89 0.098 2.38 1.499 3.34z"/>
       <path id="Stroke-469" sketch:type="MSShapeGroup" d="m75.332 48.587c1.251 1.152 2.841 1.456 3.549 0.678 0.71-0.776 0.269-2.339-0.982-3.49-1.253-1.152-2.841-1.456-3.551-0.68-0.708 0.777-0.267 2.34 0.984 3.492z"/>
       <path id="Stroke-471" sketch:type="MSShapeGroup" d="m84.588 115.02c1.402 0.96 3.004 1.01 3.577 0.12s-0.099-2.39-1.501-3.34-3.003-1-3.576-0.11 0.098 2.38 1.5 3.33z"/>
       <path id="Stroke-473" sketch:type="MSShapeGroup" d="m90.12 54.488c1.252 1.152 2.841 1.456 3.55 0.678 0.71-0.776 0.269-2.339-0.982-3.49-1.253-1.152-2.841-1.456-3.551-0.68-0.708 0.777-0.268 2.34 0.983 3.492z"/>
       <path id="Stroke-475" sketch:type="MSShapeGroup" d="m110.43 112.11c1.59 0.51 3.12 0.06 3.41-0.99s-0.76-2.31-2.35-2.81c-1.6-0.5-3.12-0.06-3.42 0.99-0.29 1.05 0.77 2.31 2.36 2.81z"/>
       <path id="Stroke-479" sketch:type="MSShapeGroup" d="m53.805 4.0681c0.781 1.4915 2.199 2.3294 3.168 1.8691 0.969-0.4602 1.12-2.0417 0.339-3.5346-0.781-1.4915-2.199-2.328-3.168-1.8692-0.969 0.46029-1.119 2.0432-0.339 3.5347z"/>
       <path id="Stroke-483" sketch:type="MSShapeGroup" fill="#E86038" d="m85.191 17.485c1.003 1.367 2.519 1.988 3.387 1.385 0.869-0.604 0.76-2.201-0.241-3.569-1.003-1.369-2.52-1.988-3.388-1.385-0.869 0.603-0.761 2.201 0.242 3.569z"/>
       <path id="Stroke-487" sketch:type="MSShapeGroup" fill="#E86038" d="m108.85 66.168c1.01 1.367 2.52 1.988 3.39 1.385s0.76-2.201-0.24-3.569c-1-1.369-2.52-1.988-3.39-1.385s-0.76 2.201 0.24 3.569z"/>
       <path id="Stroke-489" sketch:type="MSShapeGroup" fill="#E86038" d="m78.946 7.0186c0.781 1.4915 2.199 2.3294 3.168 1.8691 0.969-0.4602 1.119-2.0417 0.339-3.5346-0.781-1.4915-2.199-2.328-3.168-1.8692-0.969 0.4603-1.12 2.0432-0.339 3.5347z"/>
       <path id="Stroke-491" sketch:type="MSShapeGroup" fill="#E86038" d="m102.94 49.94c1 1.368 2.52 1.989 3.38 1.385 0.87-0.603 0.76-2.201-0.24-3.568-1-1.369-2.52-1.989-3.38-1.386-0.87 0.604-0.77 2.201 0.24 3.569z"/>
       <path id="Stroke-497" sketch:type="MSShapeGroup" fill="#E86038" d="m101.46 128.13c1 1.37 2.52 1.99 3.39 1.38 0.86-0.6 0.76-2.2-0.25-3.57-1-1.36-2.52-1.98-3.38-1.38-0.87 0.6-0.76 2.2 0.24 3.57z"/>
       <path id="Stroke-499" sketch:type="MSShapeGroup" fill="#E86038" d="m41.913 122.42c1.471 0.83 3.064 0.74 3.558-0.21 0.493-0.95-0.299-2.39-1.77-3.22-1.472-0.83-3.064-0.73-3.558 0.21-0.494 0.95 0.299 2.39 1.77 3.22z"/>
       <path id="Stroke-501" sketch:type="MSShapeGroup" fill="#E86038" d="m12.726 86.821c1.003 1.368 2.519 1.989 3.387 1.385 0.869-0.603 0.76-2.201-0.241-3.568-1.003-1.369-2.52-1.989-3.388-1.385-0.868 0.603-0.76 2.201 0.242 3.568z"/>
       <path id="Stroke-503" sketch:type="MSShapeGroup" fill="#E86038" d="m19.791 37.999c0.781 1.491 2.199 2.329 3.168 1.869s1.12-2.042 0.339-3.535c-0.781-1.491-2.199-2.328-3.168-1.869-0.969 0.46-1.12 2.043-0.339 3.535z"/>
       <path id="Stroke-505" sketch:type="MSShapeGroup" fill="#E86038" d="m9.4391 111.76c0.7809 1.49 2.1989 2.33 3.1679 1.87s1.119-2.04 0.339-3.53c-0.781-1.5-2.2-2.33-3.1682-1.87-0.9687 0.46-1.1195 2.04-0.3387 3.53z"/>
      </g>
     </g>
    </g>
   </g>
  </g>
 </g>
</svg>
