<?xml version="1.0" encoding="UTF-8" standalone="no"?>
<svg width="311px" height="408px" viewBox="0 0 311 408" version="1.1" xmlns="http://www.w3.org/2000/svg" xmlns:xlink="http://www.w3.org/1999/xlink" xmlns:sketch="http://www.bohemiancoding.com/sketch/ns">
    <!-- Generator: Sketch 3.2.2 (9983) - http://www.bohemiancoding.com/sketch -->
    <title>bg_goji</title>
    <desc>Created with Sketch.</desc>
    <defs></defs>
    <g id="Blank-Project" stroke="none" stroke-width="1" fill="none" fill-rule="evenodd" sketch:type="MSPage">
        <g id="Pagina-Producto-26" sketch:type="MSArtboardGroup" transform="translate(-435.000000, -122.000000)" stroke="#E6190B" stroke-width="8" stroke-linecap="round" stroke-linejoin="round">
            <g id="bg_camucamu" sketch:type="MSLayerGroup" transform="translate(0.000000, 62.000000)">
                <g id="bg_goji" transform="translate(439.000000, 64.000000)" sketch:type="MSShapeGroup">
                    <path d="M54.5802786,252.986885 C54.5802786,252.986885 38.1236741,288.07187 48.1869592,323.792707 C58.2502442,359.513544 66.1397664,368.361404 72.0573206,374.674046 C77.9748748,380.986688 92.805667,399.650936 108.51253,399.650936 C124.219394,399.650936 132.200787,393.46612 141.57011,377.574715 C150.939433,361.68331 160.310399,333.623844 156.820892,314.286051 C153.331385,294.948258 150.649049,275.117187 140.675997,259.992738 C130.702945,244.86829 126.485026,243.719494 126.485026,243.719494 C126.485026,243.719494 113.992048,241.202303 111.25229,237.68053 C108.512532,234.158758 111.470486,245.269795 111.470486,245.269795 C111.470486,245.269795 90.0265351,240.017453 79.1068699,232.280698 C68.3496218,244.684745 61.3000727,253.352337 48.6988185,253.352337 C58.4881273,237.68053 61.4296781,238.480263 61.4296779,221.915313 C61.4296777,205.350362 63.2802463,196.713907 66.166017,191.82374 C69.0517876,186.933572 71.1697699,177.410529 68.6678933,160.078622 C66.1660168,142.746715 50.9890609,112.496179 38.8619327,99.5808275 C26.7348046,86.665476 24.1410562,80.864138 24.1410562,80.864138 C24.1410562,80.864138 46.1313191,93.8335698 52.7608813,102.445443 C59.3904436,111.057316 83.4111291,135.449156 87.1325612,152.507384 C90.8539934,169.565612 90.7122952,187.099091 95.9719775,193.337987 C101.23166,199.576884 103.815565,213.680363 107.643026,219.627553 C111.470486,225.574744 132.573198,242.469092 132.573198,242.469092" id="Path-7521"></path>
                    <path d="M33.5317057,66.6393885 C33.5317057,66.6393885 58.4274262,63.1176158 78.2061945,70.6888535 C97.9849627,78.2600911 95.7209696,87.4914314 122.167033,104.421831 C128.998386,123.943167 125.858326,124.052971 136.997828,134.141397 C148.13733,144.229823 153.10499,155.778417 151.388949,165.794742 C155.426404,163.22183 161.124119,148.498891 159.188241,135.473738 C166.675824,135.473736 180.518993,132.409192 185.578525,128.505578 C190.638058,124.601963 184.666366,123.251597 184.666366,123.251597 L201.12133,116.281798 L175.607113,114.731497 C175.607113,114.731497 163.753961,105.498519 153.342874,101.704707 C142.931787,97.9108953 136.540108,96.7620983 136.540108,96.7620983 C136.540108,96.7620983 110.660043,76.9851076 95.7390159,69.7055758 C80.8179893,62.426044 66.4071814,58.3208596 54.4260646,58.3208598 C42.4449478,58.32086 39.9611178,61.2592211 39.9611178,61.2592211 C39.9611178,61.2592211 75.9586072,45.0400567 82.5701231,48.7617625 C89.181639,52.4834683 126.092928,72.6062451 165.196026,66.9327329 C204.299123,61.2592208 237.77833,52.2114268 302.687667,73.2994555 C272.75046,48.7617625 249.316492,30.5694864 209.849187,24.2207919 C170.381882,17.8720974 159.399875,16.7249389 134.723992,18.6210259 C110.048108,20.5171129 66.5810824,36.6969453 48.4264831,48.9780836 C30.2718838,61.2592219 36.6455164,56.2215621 36.6455164,56.2215621 L66.3071064,0.0846039407 L58.3257106,0.687680881 L0.00820287334,111.391631 L0.44623631,126.899557 L30.6377319,68.7386862" id="Path-7522"></path>
                    <path d="M153.269048,159.301831 C153.269048,159.301831 158.126789,191.230496 190.8743,212.484041 C223.621811,233.737587 239.820846,237.111868 265.938794,234.211199 C292.056743,231.31053 294.268238,211.313941 292.386499,204.199928 C290.504759,197.085914 274.814303,159.721364 261.117145,149.085578 C247.419987,138.449792 235.476604,128.579323 213.412515,120.5525 C191.348426,112.525677 174.643172,121.793441 171.277636,123.307316 C153.269048,131.407885 153.269048,159.301831 153.269048,159.301831 Z" id="Path-7523"></path>
                    <path d="M99.9339654,245.764711 C99.9339654,245.764711 120.179477,278.074395 123.6132,300.734027 C127.046923,323.39366 130.610251,348.945768 125.852584,369.242257 C121.094918,389.538746 118.940023,391.90107 118.940023,391.90107" id="Path-7524"></path>
                    <path d="M277.640193,223.785179 C277.640193,223.785179 245.349582,217.883874 223.168192,203.671416 C200.986803,189.458957 186.516934,174.776164 181.275298,168.801933 C176.033662,162.827702 162.600637,142.922886 162.600637,142.922886" id="Path-7525"></path>
                    <path d="M37.8152461,59.4286859 C37.8152461,59.4286859 86.1072021,36.07912 135.455688,30.8218623 C184.804174,25.5646047 231.66883,40.4153743 231.66883,40.4153743 C231.66883,40.4153743 272.870222,55.8528322 291.828703,67.4915624" id="Path-7526"></path>
                </g>
            </g>
        </g>
    </g>
</svg>