<?xml version="1.0" encoding="UTF-8" standalone="no"?>
<svg width="503px" height="359px" viewBox="0 0 503 359" version="1.1" xmlns="http://www.w3.org/2000/svg" xmlns:xlink="http://www.w3.org/1999/xlink" xmlns:sketch="http://www.bohemiancoding.com/sketch/ns">
    <!-- Generator: Sketch 3.2.2 (9983) - http://www.bohemiancoding.com/sketch -->
    <title>bg_graviola</title>
    <desc>Created with Sketch.</desc>
    <defs></defs>
    <g id="Blank-Project" stroke="none" stroke-width="1" fill="none" fill-rule="evenodd" sketch:type="MSPage">
        <g id="Pagina-Producto-23" sketch:type="MSArtboardGroup" transform="translate(-358.000000, -178.000000)" stroke="#7F744B" stroke-width="11.2089996" stroke-linecap="round" stroke-linejoin="round">
            <g id="bg_camucamu" sketch:type="MSLayerGroup" transform="translate(0.000000, 62.000000)">
                <g id="bg_graviola" transform="translate(363.500000, 121.500000)" sketch:type="MSShapeGroup">
                    <path d="M406.476837,227.338911 C406.476837,227.338911 321.580549,160.805088 251.587035,124.876489 C181.59352,88.9478903 77.7994186,26.4057624 77.7994186,26.4057624 L139.009866,53.0192914 C139.009866,53.0192914 232.689221,-18.8379062 331.959625,5.11560829 C431.226683,29.0691228 443.737116,51.6876112 467.687285,57.0109862 L491.640799,62.3343612 C491.640799,62.3343612 407.808517,61.002681 361.233169,64.9943757 C314.661166,68.9894164 253.447372,84.9561955 202.883674,72.9811112 C152.316631,61.002681 145.132919,53.0192914 145.132919,53.0192914 C145.132919,53.0192914 206.875369,14.4306781 274.740872,30.3974571 C274.740872,30.3974571 345.26639,49.0275967 365.224863,54.3509717 C385.186683,59.6743467 386.515017,57.0109862 386.515017,57.0109862" id="Stroke-194"></path>
                    <path d="M241.344273,170.917309 C241.344273,162.134242 241.344273,161.602239 237.352578,150.955489 C233.360883,140.312085 228.037508,136.320391 218.722439,120.350266 C209.407369,104.383487 218.722439,112.102548 198.763965,102.255475 C178.802145,92.4084022 181.46216,89.2130389 168.155395,85.753347 C154.848631,82.2936551 156.712314,84.4216668 145.536907,85.753347 C134.358154,87.0850272 125.575087,84.4216668 121.583392,85.753347 C117.591697,87.0850272 106.944947,93.7367365 90.9781683,93.7367365 C75.0080433,93.7367365 72.6157032,91.076722 61.1692759,97.7284313 C49.7261945,104.383487 55.0495695,111.035196 41.7428049,112.366876 C28.4360404,113.698556 20.4526509,105.183164 17.7892904,113.698556 C15.1292759,122.213949 5.44615376,132.268469 7.94221771,138.980405" id="Stroke-196"></path>
                    <path d="M10.7867739,137.41009 C9.91348614,140.906587 13.4334047,158.094631 10.2012361,160.677689 C3.54952684,166.001064 -1.77384816,171.324439 2.2178466,177.979494 C6.20954137,184.631203 15.5246111,197.670294 14.1962768,205.125026 C12.8645966,212.576413 14.4606053,225.883177 18.984303,229.874872 C23.5080007,233.866567 32.2910675,244.513317 32.2910675,244.513317 C32.2910675,244.513317 38.1464454,252.496706 47.4615152,260.480096 C56.776585,268.463485 58.1082652,278.842561 59.4365995,291.617323 C60.7682797,304.392084 79.3984193,320.358863 79.3984193,328.345599 C79.3984193,336.328988 82.0584338,340.320683 94.036864,341.652363 C106.011948,342.980698 112.663658,337.660669 117.987033,342.980698 C123.310408,348.304073 133.957158,349.635753 139.277187,342.980698 C144.600562,336.328988 153.915631,333.668974 160.570687,333.668974 C167.222396,333.668974 169.885756,329.409605 177.869146,318.230852 C185.852536,307.055445 201.819315,299.068709 201.819315,299.068709 C201.819315,299.068709 207.14269,283.10193 211.134384,272.45518 C215.126079,261.811776 219.653123,260.480096 225.772829,253.825041 C231.892536,247.173331 235.087899,208.584718 235.134742,219.980956" id="Stroke-198"></path>
                    <path d="M245.032269,178.795314 C242.854069,173.886835 247.692284,154.8418 235.258807,202.260323 C235.590054,206.278785 234.756917,213.629794 235.181851,218.785872" id="Stroke-200"></path>
                    <path d="M26.6203985,126.315565 L24.7567154,140.154332 L29.280413,155.589108 C29.280413,155.589108 29.280413,126.315565 42.5871776,123.65555 C55.8939421,120.99219 55.0976107,146.277385 59.8889828,154.260774 C64.677009,162.244164 71.0643898,142.282344 81.1791369,130.30726 C91.290538,118.332175 100.073605,141.750341 104.597303,147.605719 C109.121,153.461097 122.427765,130.30726 127.75114,120.99219 C133.074515,111.67712 137.598212,132.967274 147.71296,142.282344 C157.824361,151.597414 161.284053,132.967274 164.479416,123.65555 C167.671433,114.340481 182.577553,105.025411 184.43789,130.30726 C186.301573,155.589108 194.284962,156.65646 198.276657,140.154332 C202.268352,123.65555 216.906797,146.277385 218.238477,162.244164 C219.570157,178.210943 223.561852,214.139542 212.915102,191.517707 C202.268352,168.895873 188.961587,156.920789 187.633253,166.235858 C186.301573,175.550928 188.961587,216.802902 175.654823,195.509402 C162.348058,174.219248 163.679739,160.648155 159.688044,160.116152 C155.696349,159.584149 139.72957,167.035536 133.074515,176.882608 C126.422805,186.729681 114.976378,188.857693 113.116041,175.550928 C111.252358,162.244164 101.137611,151.597414 98.4775962,171.559233 C95.8142357,191.517707 73.1957473,192.849388 71.8640671,180.874303 C70.5323869,168.895873 71.3320642,144.413701 58.0252997,168.895873 C44.7185351,193.38139 37.2671485,203.496138 31.9437735,188.857693 C26.6203985,174.219248 6.65857874,154.260774 17.3053287,186.197678 C27.9520787,218.131236 41.2588433,231.438001 47.9105526,218.131236 C54.5656078,204.824472 71.8640671,191.517707 73.1957473,210.147847 C74.5240817,228.777986 71.3320642,254.059835 91.290538,235.433042 C111.252358,216.802902 106.992989,192.849388 115.776055,204.824472 C124.559122,216.802902 115.776055,247.408126 127.75114,231.438001 C139.72957,215.471222 134.406195,190.985704 146.381279,202.164457 C158.356364,213.34321 150.904977,243.416431 167.671433,234.101361 C184.43789,224.786292 176.986503,188.32569 188.961587,207.487832 C200.940018,226.649975 212.915102,235.165367 215.578462,226.649975 C218.238477,218.131236 250.175381,233.569358 224.890186,250.06814 C199.608337,266.570268 184.969893,251.399821 184.969893,251.399821 C184.969893,251.399821 199.608337,247.408126 172.994808,263.374905 C146.381279,279.34503 138.662218,266.038265 137.865887,258.05153 C137.06621,250.06814 131.210832,236.761376 124.559122,252.731501 C117.904067,268.69828 110.45268,284.665059 99.8092764,268.69828 C89.1625264,252.731501 83.0394741,226.117972 77.1874421,234.101361 C71.3320642,242.084751 70.5323869,256.723196 66.5406921,262.043225 C62.5489973,267.3666 49.2422328,260.71489 45.250538,251.399821 C41.2588433,242.084751 58.0252997,304.626879 71.3320642,293.980129 C84.6388287,283.336725 85.1708317,255.391515 89.1625264,275.349989 C93.1542212,295.311809 86.5025119,319.265324 101.137611,307.286893 C115.776055,295.311809 129.347149,274.021655 131.210832,288.656754 C133.074515,303.295199 139.72957,316.601963 146.381279,297.971824 C153.036335,279.34503 157.028029,270.02996 162.348058,282.005045 C167.671433,293.980129 170.866797,309.418251 180.978198,291.320114 C191.092945,273.221978 192.956628,250.06814 196.948323,267.3666 C200.940018,284.665059 182.309878,330.708405 163.679739,321.925338 C145.049599,313.142271 130.946503,309.950254 127.75114,320.593658 C124.559122,331.240408 107.792666,323.257018 107.792666,323.257018 C107.792666,323.257018 99.8092764,308.086571 95.8142357,313.941949 C91.822541,319.797326 97.145916,337.892117 86.5025119,329.908728 C75.8557619,321.925338 66.5406921,313.142271 66.5406921,313.142271" id="Stroke-202"></path>
                </g>
            </g>
        </g>
    </g>
</svg>