<?xml version="1.0" encoding="UTF-8" standalone="no"?>
<svg width="410px" height="244px" viewBox="0 0 410 244" version="1.1" xmlns="http://www.w3.org/2000/svg" xmlns:xlink="http://www.w3.org/1999/xlink" xmlns:sketch="http://www.bohemiancoding.com/sketch/ns">
    <!-- Generator: Sketch 3.3.3 (12072) - http://www.bohemiancoding.com/sketch -->
    <title>bg_gojicaotrailmix</title>
    <desc>Created with Sketch.</desc>
    <defs></defs>
    <g id="Page-1" stroke="none" stroke-width="1" fill="none" fill-rule="evenodd" sketch:type="MSPage">
        <g id="bg_gojicaotrailmix" sketch:type="MSLayerGroup" transform="translate(4.000000, 4.000000)" stroke="#E6190B" stroke-linecap="round" stroke-linejoin="round">
            <path d="M26.6569527,165.746434 C26.6569527,165.746434 18.618626,182.49827 23.5328629,199.553026 C28.4489247,216.607782 32.302942,220.832238 35.1934549,223.846839 C38.0839678,226.859614 45.3284984,235.772029 53.0000365,235.772029 C60.6715746,235.772029 64.5712124,232.817648 69.1478579,225.230051 C73.7245034,217.64428 78.3011488,204.24646 76.5967681,195.014702 C74.8923874,185.781119 73.5821675,176.313959 68.7099014,169.091326 C63.83946,161.870518 61.7792396,161.323073 61.7792396,161.323073 C61.7792396,161.323073 55.6770457,160.120517 54.3376287,158.439859 C53.0000365,156.757376 54.445293,162.062124 54.445293,162.062124 C54.445293,162.062124 43.9708332,159.554823 38.6368879,155.86139 C33.3814099,161.782927 29.9379768,165.921616 23.7828631,165.921616 C28.5657131,158.439859 30.0018455,158.821246 30.0018455,150.912482 C30.0018455,143.003717 30.9051308,138.879627 32.3157157,136.545684 C33.7244758,134.209915 34.759148,129.664292 33.5383443,121.388739 C32.3157157,113.113186 24.901477,98.6715698 18.9781153,92.5036824 C13.0547535,86.3376197 11.7883293,83.5675448 11.7883293,83.5675448 C11.7883293,83.5675448 22.5292126,89.7609797 25.7682659,93.8722964 C29.0054944,97.9836131 40.7390792,109.629607 42.5565987,117.773773 C44.3741182,125.917939 44.3047751,134.290208 46.8741199,137.268312 C49.4434647,140.246416 50.7062393,146.979997 52.5748537,149.819415 C54.445293,152.658833 64.7536943,160.726357 64.7536943,160.726357 L26.6569527,165.746434 Z M16.3740989,76.7773942 C16.3740989,76.7773942 28.5346912,75.0949112 38.1971066,78.7098772 C47.8576972,82.3248432 46.751857,86.7336054 59.6697491,94.8157278 C63.0073427,104.136902 61.4726701,104.187997 66.9142797,109.005519 C72.3558893,113.821215 74.7810734,119.335818 73.9434816,124.118668 C75.9161107,122.88874 78.6989593,115.859538 77.7537032,109.640555 C81.41064,109.640555 88.1715936,108.178876 90.644223,106.313911 C93.1150277,104.450771 90.1989673,103.80661 90.1989673,103.80661 L98.2354691,100.47814 L85.7737817,99.7390888 C85.7737817,99.7390888 79.9836318,95.3303266 74.8978618,93.5182816 C69.8120919,91.7080614 66.689827,91.1587909 66.689827,91.1587909 C66.689827,91.1587909 54.0493073,81.7171786 46.7609811,78.2408988 C39.4726549,74.764619 32.4325041,72.8047637 26.5803103,72.8047637 C20.7281165,72.8047637 19.514612,74.2080493 19.514612,74.2080493 C19.514612,74.2080493 37.0985657,66.4653433 40.3284949,68.2408919 C43.5584242,70.0182654 61.5876337,79.6259363 80.6880118,76.9179052 C99.7883899,74.2080493 116.140591,69.8887033 147.846817,79.9562285 C133.224544,68.2408919 121.777456,59.5547546 102.498246,56.5237306 C83.2208603,53.4927066 77.8558931,52.9452609 65.802965,53.8503711 C53.750037,54.7554812 32.5182706,62.4817639 23.6496513,68.3449066 C14.7828569,74.2080493 17.8959977,71.8029382 17.8959977,71.8029382 L32.3850588,45 L28.4854211,45.2883214 L0,98.1441972 L0.213503797,105.547487 L14.9616891,77.7792197 L16.3740989,76.7773942 Z M74.8613654,121.018301 C74.8613654,121.018301 77.2354547,136.262837 93.2299912,146.408829 C109.226353,156.556646 117.138767,158.167961 129.896075,156.782924 C142.653383,155.397886 143.733676,145.850434 142.815792,142.454447 C141.896083,139.058459 134.231844,121.219031 127.542059,116.14056 C120.850448,111.062089 115.016503,106.350407 104.239123,102.518288 C93.4617432,98.6843436 85.3029785,103.109529 83.6588168,103.832157 C74.8613654,107.700773 74.8613654,121.018301 74.8613654,121.018301 L74.8613654,121.018301 Z M48.8102526,162.299351 C48.8102526,162.299351 58.6989456,177.724544 60.375954,188.543895 C62.0529625,199.363245 63.7938396,211.562159 61.4708453,221.251946 C59.1460262,230.943559 58.0931057,232.071297 58.0931057,232.071297 L48.8102526,162.299351 Z M135.611407,151.804818 C135.611407,151.804818 119.839499,148.987298 109.00555,142.202622 C98.1697757,135.416121 91.1022526,128.406992 88.5420318,125.552975 C85.9818111,122.700783 79.4197627,113.197127 79.4197627,113.197127 L135.611407,151.804818 Z M18.467166,73.3339611 C18.467166,73.3339611 42.0565983,62.1861432 66.1606295,59.6770174 C90.2664856,57.1660668 113.157012,64.2573125 113.157012,64.2573125 C113.157012,64.2573125 133.282939,71.6277556 142.542069,77.1843287 L18.467166,73.3339611 Z" id="Stroke-6-Copy" stroke-width="7.18299961" sketch:type="MSShapeGroup" transform="translate(73.923409, 140.386015) scale(-1, 1) translate(-73.923409, -140.386015) "></path>
            <g id="CACAO-BLANCO-Copy" transform="translate(133.000000, 0.000000)" stroke-width="7" sketch:type="MSShapeGroup">
                <path d="M55.4984035,101.721022 C55.4984035,101.721022 62.7432025,85.3073231 74.4902604,80.6891322 C86.2373182,76.0709412 99.4265931,68.5475629 115.859321,66.7004599 C132.292049,64.8533569 164.818379,63.8523735 176.836228,63.8523735 C188.854078,63.8523735 199.725603,63.7667233 209.924036,66.9894213 C220.12247,70.2121192 234.919197,77.2458199 245.483589,78.9674761 C256.047981,80.6891322 263.311807,76.5363938 267.718908,78.612763 C272.126008,80.6891322 266.180671,87.1172251 262.062532,89.9852101 C257.944392,92.8531951 236.192704,111.726526 228.186569,120.628094 C220.180433,129.529661 207.705785,137.984814 184.035173,147.385571 C160.364562,156.786329 129.531346,155.072465 114.117766,153.061845 C98.7041864,151.051226 76.7007284,144.087604 67.1762499,135.523447 C57.6517714,126.95929 53.3606083,122.322929 53.3606084,117.357812 C53.3606085,112.392695 52.7636522,109.958151 52.7636522,109.958151 L45.01793,105.811469 C45.01793,105.811469 47.1427476,99.3652106 48.9526496,99.3652079 C50.7625516,99.3652052 55.4984035,101.721022 55.4984035,101.721022 Z" id="Path-424-Copy"></path>
                <path d="M243.384726,82.836444 C243.384726,82.836444 226.174221,78.2294994 217.533929,74.8130074 C208.893638,71.3965154 199.254093,67.9428206 188.064195,67.9428208 C176.874296,67.942821 157.922237,73.3024494 144.211277,73.3024488 C130.500318,73.3024481 117.819761,70.540878 106.207665,72.6769426 C94.5955686,74.8130071 79.9917727,82.1226925 70.8990068,87.8673135 C61.8062409,93.6119345 59.2168347,110.198665 60.8917725,116.404413 C62.5667103,122.61016 65.6561737,126.460953 73.8050585,132.058506 C81.9539434,137.656059 97.7326214,147.710006 130.885313,145.872417 C164.038004,144.034829 189.407779,140.639967 199.384732,135.17479 C209.361686,129.709613 221.540458,117.675324 235.992852,104.792318 C250.445245,91.9093121 255.660386,88.6070204 255.660394,85.721732 C255.660401,82.8364436 243.384726,82.836444 243.384726,82.836444 Z" id="Path-425-Copy"></path>
                <path d="M154.574955,64.1283576 C154.574955,64.1283576 162.431418,60.3580165 168.434719,49.1888812 C174.438021,38.019746 177.440104,28.8811246 186.705903,18.873891 C195.971702,8.86665746 198.347411,3.52779275 197.0393,1.63224037 C195.731189,-0.263312016 184.851012,-0.4752743 179.06746,1.34327899 C173.283907,3.16183228 156.246432,4.99941907 147.211631,3.17134903 C138.176829,1.34327899 119.618413,1.0629691 106.966405,4.80648977 C94.314397,8.55001044 65.183804,17.285469 47.7405691,26.7043984 C30.2973342,36.1233277 22.4555835,41.8558386 18.0017714,48.1394496 C13.5479592,54.4230607 6.57222414,62.3288365 3.96465048,67.1122731 C1.35707682,71.8957097 -1.53945819,76.5805161 1.21259614,84.0952428 C3.96465048,91.6099695 8.85363451,101.990951 11.5373419,103.828537 C14.2210494,105.666122 15.6528779,109.350813 32.4524358,109.350813 C49.2519936,109.350814 51.0800629,108.580826 51.0800629,108.580826" id="Path-426-Copy"></path>
                <path d="M154.407115,8.48512385 C154.407115,8.48512385 137.504605,6.60860506 114.385099,14.593975 C91.2655929,22.579345 75.7776109,29.611315 56.3903771,41.0131775 C37.0031433,52.41504 28.084274,61.7284236 21.869009,69.56931 C15.6537439,77.4101964 15.653744,78.0547421 15.6537439,80.1717702 C15.6537438,82.2887982 22.5723791,86.7910623 20.5219645,91.0631918 C18.4715499,95.3353212 12.1792861,99.5105537 12.1792861,99.5105537 C12.1792861,99.5105537 3.66444206,98.2413746 6.41649643,90.5051675 C9.1685508,82.7689605 13.7581918,81.374334 13.7581918,81.374334 C13.7581918,81.374334 9.61150956,81.5196768 8.70655862,79.709778" id="Path-427-Copy"></path>
                <path d="M154.998952,117.066879 C154.998952,117.066879 159.604142,112.24832 164.176709,111.899984 C168.749275,111.551648 175.911209,113.204928 177.336124,114.98081 C178.761039,116.756691 179.328531,121.961209 175.812023,125.346434 C172.295514,128.731659 162.33979,132.423914 157.64962,129.220223 C152.959451,126.016533 153.152562,124.068062 153.456698,121.192186 C153.760834,118.31631 154.998952,117.066879 154.998952,117.066879 Z" id="Path-428-Copy"></path>
                <path d="M154.463031,94.5131813 C154.463031,94.5131813 158.348397,92.0845645 163.284032,93.559204 C168.219668,95.0338435 173.816458,99.9310677 175.451847,102.687236 C177.087237,105.443404 177.365064,108.59395 176.408456,110.709485 C175.451847,112.825021 174.424467,113.158887 174.424467,113.158887 C174.424467,113.158887 169.985815,111.889986 168.417777,111.889986 C166.84974,111.889986 162.911492,112.045211 162.911492,112.045211 C162.911492,112.045211 155.775605,107.899646 154.002617,104.74568 C152.229629,101.591714 151.878663,99.3004321 152.229629,97.9226111 C152.580596,96.54479 154.463031,94.5131813 154.463031,94.5131813 Z" id="Path-429-Copy"></path>
                <path d="M108.564777,144.604621 C108.564777,144.604621 108.213547,137.006215 110.504566,132.512577 C112.795585,128.018938 116.897213,122.553432 119.433962,121.456332 C121.970711,120.359232 124.683205,120.005371 127.442005,122.389788 C130.200804,124.774205 129.358115,127.152308 129.358115,129.335195 C129.358115,131.518083 127.705098,133.48076 127.705098,136.228247 C127.705098,138.975734 127.886633,140.611386 127.886633,140.611386 C127.886633,140.611386 125.71269,145.538602 124.925514,145.81643" id="Path-430-Copy"></path>
                <path d="M125.802668,121.170086 C125.802668,121.170086 123.541116,117.86984 125.530367,114.458569 C127.519617,111.047297 132.060612,102.829306 135.334286,101.919266 C138.607959,101.009225 140.138113,101.389658 141.817438,102.463343 C143.496763,103.537028 144.854328,105.698868 144.854327,109.078305 C144.854326,112.457742 142.964,120.254784 139.666911,123.668949 C136.369822,127.083114 134.535534,127.759002 132.739131,127.290958 C130.942728,126.822914 129.333384,125.444831 129.333384,125.444831" id="Path-431-Copy"></path>
                <path d="M110.290145,87.0415867 C110.290145,87.0415867 104.371328,93.5597302 104.655206,101.362823 C104.939084,109.165915 105.425018,112.612441 107.663155,114.531446 C109.901292,116.45045 114.421503,113.928961 116.378919,110.06096 C118.336336,106.192958 120.597888,98.2814707 119.480267,93.7231113 C118.362645,89.1647519 116.592551,86.2391513 115.103442,85.5193273 C113.614332,84.7995032 110.290145,87.0415867 110.290145,87.0415867 Z" id="Path-432-Copy"></path>
                <path d="M169.610118,96.6926486 C169.610118,96.6926486 172.793287,94.7465453 170.99399,90.3960299 C169.194693,86.0455144 163.686039,79.5152686 160.183738,77.3473775 C156.681436,75.1794864 153.217283,73.9803059 150.320885,75.3141903 C147.424488,76.6480748 146.578905,78.0816714 145.97037,81.3000955 C145.361835,84.5185196 146.172689,87.0286948 147.061945,88.4625552 C147.951202,89.8964155 153.755835,95.1717046 153.755835,95.1717046" id="Path-433-Copy"></path>
                <path d="M141.769555,120.813594 C141.769555,120.813594 145.924066,119.835939 148.961218,121.817033 C151.99837,123.798128 154.871352,126.650588 154.871352,126.650588 C154.871352,126.650588 162.741007,132.235276 163.177216,134.4621 C163.613426,136.688924 164.21933,143.871643 157.0424,143.11972 C149.86547,142.367798 145.193192,136.376106 145.193192,136.376106 C145.193192,136.376106 136.349038,130.95822 138.004949,125.60979" id="Path-434-Copy"></path>
                <path d="M223.488263,115.835074 C223.488263,115.835074 225.477776,108.956493 224.77558,103.017418 C224.073383,97.0783438 223.242796,94.512129 220.591866,94.1172255 C217.940935,93.722322 214.892469,93.9035935 212.095258,99.9715839 C209.298047,106.039574 205.316126,114.018151 206.275891,117.36207 C207.235657,120.705988 206.931258,119.749381 206.931258,119.749381" id="Path-435-Copy"></path>
                <path d="M211.931351,126.083622 C211.931351,126.083622 209.300941,120.729667 203.753876,116.800365 C198.206811,112.871062 194.040461,109.495045 188.897245,112.631384 C183.754028,115.767722 185.857462,120.02747 187.817772,122.414782 C189.778082,124.802093 195.597449,128.76323 199.675663,129.953991 C203.753877,131.144753 205.331122,131.425737 205.331122,131.425737" id="Path-436-Copy"></path>
                <path d="M188.343959,88.5643724 C188.343959,88.5643724 195.380397,86.4135823 197.273355,82.6016194 C199.166314,78.7896566 196.451451,75.9840266 193.364837,74.9598033 C190.278223,73.93558 183.867685,71.7558497 177.952026,72.715615 C172.036367,73.6753804 169.982395,77.7654332 169.982395,77.7654332" id="Path-437-Copy"></path>
                <path d="M159.830403,77.1511097 C159.830403,77.1511097 162.852559,76.5015317 165.983109,76.5015317 C169.11366,76.5015317 171.126326,77.7625392 171.781692,80.044876 C172.437058,82.3272128 172.480995,83.9628656 171.784586,84.8463339 C171.088177,85.7298021 168.779794,85.8468788 168.779794,85.8468788" id="Path-438-Copy"></path>
                <path d="M171.901926,94.202994 C171.901926,94.202994 177.194316,93.199292 181.820028,96.5639958 C186.445739,99.9286996 187.694644,102.640931 187.273431,104.648072 C186.852219,106.655214 184.909148,112.132033 182.26755,113.36673 C179.625951,114.601428 176.977527,114.232571 176.977527,114.232571" id="Path-439-Copy"></path>
                <path d="M169.557499,87.2026 C169.557499,87.2026 174.098231,84.1394014 180.274353,85.400409 C186.450475,86.6614165 191.260088,89.6833092 192.696842,91.2605554 C194.133596,92.8378016 194.060456,95.5850244 192.009379,97.4721948 C189.958301,99.3593652 185.432039,99.6224587 185.432039,99.6224587" id="Path-440-Copy"></path>
                <path d="M62.1784846,119.008246 C62.1784846,119.008246 62.0645651,114.821375 64.9112376,112.340402 C67.7579102,109.85943 73.5625446,104.76015 76.9796033,103.943771 C80.396662,103.127391 83.3456794,103.036887 86.7103825,106.565235 C90.0750855,110.093583 90.7067748,111.667672 89.770687,114.564069 C88.8345993,117.460466 83.7939899,121.348463 81.0846525,122.931498 C78.375315,124.514532 70.9384485,125.728971 67.7521221,125.061503 C64.5657958,124.394036 64.6331477,123.723935 64.6331477,123.723935" id="Path-441-Copy"></path>
                <path d="M122.879962,120.015631 C122.879962,120.015631 125.240964,115.735625 122.692639,114.240464 C120.144315,112.745303 117.941169,111.952339 115.817215,112.537459 C113.69326,113.12258 113.669845,113.936328 111.723742,114.603533 C109.777638,115.270739 108.350093,115.083416 108.350093,115.083416 C108.350093,115.083416 101.03004,117.449943 101.03004,121.792039 C101.03004,126.134135 100.432818,127.845296 103.227134,129.501471 C106.021451,131.157645 109.997322,131.444416 110.860532,131.093187" id="Path-442-Copy"></path>
                <path d="M119.940943,93.8315059 C119.940943,93.8315059 123.612677,88.006614 126.813474,87.2867899 C130.01427,86.5669659 132.041933,87.3749263 133.259004,89.9229876 C134.476075,92.471049 135.482407,94.7152371 134.970427,97.2811889 C134.458447,99.8471407 132.35212,103.855109 131.649923,104.876438 C130.947727,105.897766 127.094195,111.29829 124.218319,111.626103 C121.342443,111.953917 118.662309,111.541388 118.17085,108.597896" id="Path-443-Copy"></path>
                <path d="M130.408648,145.516766 C130.408648,145.516766 126.154951,139.434306 128.281799,133.963275 C130.408648,128.492244 132.825426,129.45464 134.928859,129.45464 C137.032292,129.45464 138.761606,130.528588 138.761606,130.528588" id="Path-444-Copy"></path>
                <path d="M107.498459,90.4786413 C107.498459,90.4786413 100.391775,83.553492 96.6937315,82.2895905 C92.9956882,81.0256889 87.9929637,79.8278238 85.0173753,83.1059698 C82.0417869,86.3841159 83.4548625,90.9119567 87.0008378,93.8609724 C90.5468131,96.809988 95.2456648,99.9957888 97.6740182,100.458307 C100.102372,100.920825 104.122442,100.484616 104.122442,100.484616" id="Path-445-Copy"></path>
                <path d="M88.1389806,139.611631 C88.1389806,139.611631 87.378114,135.372404 90.3213419,133.458924 C93.2645698,131.545445 95.0875456,131.214736 98.6158932,130.936909 C102.144241,130.659082 105.818869,130.939803 105.818869,130.939803" id="Path-446-Copy"></path>
                <path d="M69.8387173,107.658126 C69.8387173,107.658126 68.2559463,104.334202 73.7446046,100.969761 C79.2332629,97.6053202 80.8455007,96.5547875 85.0584179,96.5547875 C89.2713351,96.5547875 90.462097,96.4145587 90.462097,96.4145587 L95.7255472,99.8110968 C95.7255472,99.8110968 97.3348909,102.10422 96.9192027,103.09924" id="Path-447-Copy"></path>
                <path d="M100.784311,122.318226 C100.784311,122.318226 93.467678,119.445508 93.1017149,113.476967 C92.7357517,107.508426 95.8284167,102.999791 97.9289559,101.879275 C100.029495,100.75876 99.4856806,100.919773 99.4856806,100.919773" id="Path-448-Copy"></path>
                <path d="M141.166544,84.5195717 C141.166544,84.5195717 140.599051,74.0865957 127.919256,74.0865957 C115.239461,74.0865957 117.483386,77.9514404 117.483386,79.9556873 C117.483386,81.9599342 120.733907,86.9542397 122.509789,87.6096058 C124.285671,88.2649719 125.265958,87.8232378 125.265958,87.8232378" id="Path-449-Copy"></path>
                <path d="M145.585201,85.4911763 C145.585201,85.4911763 141.12708,82.9044402 137.258815,84.9265774 C133.39055,86.9487147 133.440538,89.6485807 134.561054,92.7501913 C135.681569,95.8518018 136.380345,99.5114339 139.85055,101.51568 C143.320755,103.519926 145.898283,104.479693 149.429524,103.874051" id="Path-450-Copy"></path>
                <path d="M163.623949,137.344816 C163.623949,137.344816 165.232767,132.213176 170.136305,129.293363 C175.039843,126.373551 176.990945,125.557435 180.466937,126.420382 C183.94293,127.283329 184.61908,132.053215 182.822414,135.124043 C181.025748,138.194872 180.984969,139.93392 178.272737,140.893686" id="Path-451-Copy"></path>
                <path d="M207.535847,110.196716 C207.535847,110.196716 207.530059,94.0069893 206.154868,90.4954793 C204.779678,86.9839692 203.144289,84.6200734 200.598858,84.6200734 C198.053428,84.6200734 195.151242,85.5795757 194.214892,89.6493703 C193.278542,93.7191649 195.408548,103.499669 195.408548,103.499669 L197.579596,112.340929" id="Path-452-Copy"></path>
                <path id="Path-453-Copy" d=""></path>
                <path d="M79.345867,123.842854 C79.345867,123.842854 77.0345899,125.437727 77.0345899,128.729028 C77.0345899,132.020328 77.4584336,133.146895 79.0706711,134.241101 C80.6829086,135.335308 84.2901846,135.165612 87.3767985,134.703357 C90.4634124,134.241101 97.5316846,129.928998 98.274924,128.998436 C99.0181633,128.067874 100.463863,125.537176 99.3693933,122.833627 C98.274924,120.130077 93.0030548,116.762742 91.7683566,116.762742 C90.5336584,116.762742 88.3626102,117.163434 88.3626102,117.163434" id="Path-454-Copy"></path>
                <path d="M145.713854,120.129025 C145.713854,120.129025 142.97847,113.315427 146.012465,109.040683 C149.04646,104.765938 149.648944,104.528891 150.948101,103.972974 C152.247257,103.417057 153.043115,103.346811 153.043115,103.346811" id="Path-455-Copy"></path>
                <path d="M216.240824,94.5081826 C216.240824,94.5081826 215.611767,90.2458035 213.037133,87.2320665 C210.4625,84.2183295 210.266495,84.2183295 207.81762,84.2183295 C205.368745,84.2183295 204.482119,86.4333144 204.482119,86.4333144" id="Path-456-Copy"></path>
                <path d="M185.388892,119.75438 C185.388892,119.75438 184.248118,118.908534 181.012067,119.87435 C177.776016,120.840167 177.082501,123.376389 177.849156,125.424572" id="Path-457-Copy"></path>
                <path d="M183.752976,118.970887 C183.752976,118.970887 182.087594,116.469656 182.476972,114.272299 C182.866351,112.074941 184.036591,111.726868 184.036591,111.726868" id="Path-458-Copy"></path>
                <path d="M183.173381,135.71995 C183.173381,135.71995 185.484658,138.315369 187.635185,138.759997" id="Path-459-Copy"></path>
                <path d="M102.542565,85.7079654 C102.542565,85.7079654 101.374956,80.0935483 104.27451,78.8764774 C107.174064,77.6594065 108.622131,77.7059741 111.10021,79.3416269 C113.578289,80.9772797 115.515183,82.5276903 115.515183,83.738973 C115.515183,84.9502557 115.83721,85.6908643 115.83721,85.6908643" id="Path-460-Copy"></path>
            </g>
        </g>
    </g>
</svg>