<?xml version="1.0" encoding="UTF-8" standalone="no"?>
<svg width="568px" height="329px" viewBox="0 0 568 329" version="1.1" xmlns="http://www.w3.org/2000/svg" xmlns:xlink="http://www.w3.org/1999/xlink" xmlns:sketch="http://www.bohemiancoding.com/sketch/ns">
    <!-- Generator: Sketch 3.2.2 (9983) - http://www.bohemiancoding.com/sketch -->
    <title>gymtonic 2</title>
    <desc>Created with Sketch.</desc>
    <defs>
        <path id="path-1" d="M453.944162,207.337606 C438.590033,82.00766 340.946134,-6.48723468 263.311049,3.06588488 C255.850887,3.98311131 248.31473,3.14840352 240.959061,2.31052194 C226.12423,0.6220636 212.027183,-1.06639474 200.78311,11.6541711 C179.875023,-2.72946273 160.55333,15.7134535 138.043018,18.4841755 C60.4079332,28.0372951 -12.9777722,137.580791 2.37635643,262.913911 C17.7273186,388.243857 97.1862802,457.413521 183.446782,446.79718 C191.917043,445.753002 200.441133,446.476627 208.753071,447.203426 C224.987474,448.618938 240.414431,450.03445 253.04541,438.285065 C275.866034,450.891375 297.619563,432.743621 322.634539,429.668215 C408.895041,419.048701 469.298291,332.670726 453.944162,207.337606"></path>
    </defs>
    <g id="Blank-Project" stroke="none" stroke-width="1" fill="none" fill-rule="evenodd" sketch:type="MSPage">
        <g id="Producto-SuperShake" sketch:type="MSArtboardGroup" transform="translate(-371.000000, -217.000000)">
            <g id="gymtonic-2" sketch:type="MSLayerGroup" transform="translate(212.000000, 153.000000)">
                <g transform="translate(159.030871, 63.000000)" id="Gymtonic">
                    <g transform="translate(0.133560, 0.227586)">
                        <path d="M453.944162,207.337606 C438.590033,82.00766 340.946134,-6.48723468 263.311049,3.06588488 C255.850887,3.98311131 248.31473,3.14840352 240.959061,2.31052194 C226.12423,0.6220636 212.027183,-1.06639474 200.78311,11.6541711 C179.875023,-2.72946273 160.55333,15.7134535 138.043018,18.4841755 C60.4079332,28.0372951 -12.9777722,137.580791 2.37635643,262.913911 C17.7273186,388.243857 97.1862802,457.413521 183.446782,446.79718 C191.917043,445.753002 200.441133,446.476627 208.753071,447.203426 C224.987474,448.618938 240.414431,450.03445 253.04541,438.285065 C275.866034,450.891375 297.619563,432.743621 322.634539,429.668215 C408.895041,419.048701 469.298291,332.670726 453.944162,207.337606" id="Fill-1" fill="#C00310" sketch:type="MSShapeGroup"></path>
                        <g id="mascara">
                            <mask id="mask-2" sketch:name="Clip 3" fill="white">
                                <use xlink:href="#path-1"></use>
                            </mask>
                            <g id="Clip-3"></g>
                            <path d="M235.123288,255.198418 C231.89984,255.198418 228.69539,255.10003 225.506772,254.893734 C160.505833,250.691631 123.182856,233.219895 85.0239358,233.219895 C61.4940265,233.219895 29.9909896,240.500579 1.03694698,249.139645 C0.552479731,242.436593 0.321328691,235.797016 0.324495144,229.220915 C0.387824196,118.509463 67.4564567,27.1708494 138.043018,18.4841755 C154.366081,16.475164 169.010925,6.22698358 183.798258,6.22698358 C189.406046,6.22698358 195.035998,7.69962394 200.78311,11.6541711 C208.179943,3.28805046 216.80536,1.15526097 226.067234,1.15526097 C230.886575,1.15526097 235.880071,1.73289146 240.959061,2.31052194 C246.038051,2.88815243 251.202535,3.46578291 256.370185,3.46578291 C258.684862,3.46578291 261.002706,3.35152633 263.311049,3.06588488 C267.155123,2.5929896 271.043527,2.36130264 274.973094,2.36130264 C350.407495,2.36130264 439.349982,88.212427 453.944162,207.337606 C454.675612,213.304339 455.236075,219.191726 455.628715,224.977553 C454.31147,224.574481 453.003725,224.171409 451.70548,223.768337 C432.143136,217.693696 414.800475,211.61588 401.757857,211.61588 C399.484344,211.61588 397.343822,211.799961 395.342624,212.203032 C365.435479,218.198329 297.600565,255.195244 235.123288,255.198418" id="Fill-2" fill="#CE6E4B" sketch:type="MSShapeGroup" mask="url(#mask-2)"></path>
                        </g>
                        <path d="M380.783275,302.913235 L463.592343,110.505155 L547.265853,154.116257 L567.740135,114.646956 L462.905223,60.0069208 L432.291959,70.9311193 L340.034196,285.295505 L380.783275,302.913235" id="pajita" fill="#C00310" sketch:type="MSShapeGroup"></path>
                    </g>
                </g>
            </g>
        </g>
    </g>
</svg>