<svg xmlns="http://www.w3.org/2000/svg" width="282" height="227" viewBox="0 0 282 227">
  <title>
    Harina Arroz
  </title>
  <g fill="none" fill-rule="evenodd" opacity=".5">
    <path fill="#FFF" d="M131.6 209.9c8.7 3.7 19.5 5.4 29.1-.4 10.1-6 17.7-22.9 22-39.4-10.8-5.1-23.2-4-32.2 5.1-8.7 8.7-14.7 23.3-18.9 34.7zM.5 129.6c8.2-1.5 20-1.5 31.7 2.7 12.3 4.4 23.9 13.6 31.3 22.3-9.3 2.7-22.9.3-35.2-6.2-11.6-6.1-21.6-14.1-27.8-18.8zm58.3-3.8c1.2 7.7 4.9 16.9 12.2 23.6 7.7 7.1 19.1 10.6 28 9.8-.8-9.4-4.1-19.6-11.7-25.1-7.1-5.1-18.5-7.1-28.5-8.3zm44 2.2c.8 9.3 4.2 20.2 10.9 26.3 7.1 6.4 17.6 6.6 26.5 3.4-.7-12.3-3.6-24.6-10.6-29-6.5-4.4-17.1-2.6-26.8-.7zm104.9 97.7c12.4-3.3 20.8-22.3 26.4-39.3-12.8-9.4-28.4-14.2-39.2-6.6-10.3 7.1-16.8 23.9-21.6 37.4 9.5 5.6 22.7 11.9 34.4 8.5zM92.4 196.8c9.1 4.9 19.7 7.6 28 3.1 8.8-4.6 15.1-17.8 18.5-30.5-8.4-1.4-19.1.4-27.8 6-8.1 5.6-14.5 14.3-18.7 21.4zm-43.3-24.1c9.6 6.8 21.2 13.1 29.9 12.7 9.3-.3 15.5-8.3 18.7-17-8.6-3-20.1-5.3-29.3-4.4-8.7 1-15.2 5-19.3 8.7zm95.2-55.5c-.4 11.5 2.2 25.2 9 32.4 7.2 7.7 19.4 8.1 31.2 6.5-.1-16.6-2.2-32.5-10.1-39.2-7.5-6.4-19.8-4.4-30.1.3z"/>
    <path fill="#FFF" d="M63.3 154.6c1.8.7 4.4 1.8 7.7 2.9 3.3 1.2 7.2 2.5 11.5 3.7 4.3 1.2 9.1 2.4 14.1 3.3 5 .9 10.3 1.5 15.6 1.8 5.4.3 10.8.3 16.4 0 5.6-.3 11.2-.7 16.9-1.2 5.8-.5 11.7-.9 17.8-.9 6.1-.1 12.4.2 18.9 1.1 6.5.9 13.2 2.2 20 4.1 6.8 1.9 13.6 4.1 20.3 6.6 6.7 2.5 13.2 5.1 19.2 7.6s11.6 4.8 16.5 6.6c4.9 1.9 9 3.3 12.4 4.4 3.4 1.1 5.9 1.7 7.6 2.1 1.7.4 2.6.5 2.6.5s-.9-.3-2.5-.8c-1.7-.6-4.1-1.5-7.5-2.8-3.3-1.3-7.4-3.1-12.2-5.3-4.8-2.2-10.3-4.9-16.3-7.7s-12.5-5.8-19.2-8.5c-6.7-2.7-13.6-5.3-20.4-7.3-6.8-2-13.5-3.6-20.1-4.4-6.5-.9-12.9-1.2-19-1.1-6.1.1-12.1.7-17.8 1.3-5.8.6-11.4 1.4-17 1.9s-11.1.9-16.4.9c-5.4 0-10.7-.3-15.7-1-5-.6-9.8-1.5-14.2-2.5-4.4-1-8.3-2.1-11.6-3.1-3.3-1-5.9-1.9-7.7-2.5-1.8-.6-2.8-1-2.8-1 .1.2 1.1.6 2.9 1.3"/>
    <path fill="#039999" d="M139.8 136c5.6 7.5 14.3 14.3 26.5 13.6 12.8-.6 30.1-12.2 44-25-6.6-9.8-18.5-14.7-32.3-10.8-13 3.6-27.3 13.9-38.2 22.2m59.1 50.7c13.2 2.9 32.4-10.2 47.9-22.8-5.8-14.6-16.9-26.4-31.4-24.7-13.7 1.5-29.9 13.6-42.4 23.4 5.2 9.6 13.3 21.6 25.9 24.1m-86.4-81.3c5.2 8.8 13.1 16.3 23.4 16.3 10.8.1 24.5-8.8 35.3-18.7-6.7-5.3-17.5-8.8-28.8-7.8-10.7.9-21.8 5.8-29.9 10.2M88.1 62.9c4.6 10.7 11.1 22 19.3 25.8 8.6 4.2 19.1-.1 27.3-6.4-5.9-6.8-14.9-14.4-23.8-18-8.5-3.3-16.8-2.8-22.8-1.4m23.9-9.6c1.2 1.5 2.9 3.7 5.1 6.3 2.2 2.6 5 5.7 8.1 8.9 3.2 3.2 6.7 6.6 10.7 9.8 4 3.2 8.3 6.3 13 9.1 4.7 2.8 9.6 5.4 14.8 7.8 5.2 2.4 10.5 4.7 16 7s11.1 4.8 16.6 7.7c5.6 2.9 11.1 6.2 16.4 10.1 5.3 3.9 10.6 8.3 15.6 13.3 5 4.9 9.8 10.3 14.3 15.7 4.5 5.5 8.8 11 12.7 16.1 3.9 5.2 7.6 9.9 10.8 13.9 3.3 4 6.1 7.4 8.5 9.9 2.4 2.6 4.3 4.4 5.6 5.5 1.3 1.2 2 1.7 2 1.7s-.6-.6-1.8-1.9c-1.2-1.3-2.8-3.3-5-6.1s-4.8-6.3-7.8-10.7c-3-4.3-6.3-9.4-10-14.7-3.7-5.4-7.7-11.2-12.1-16.9-4.4-5.7-9-11.3-13.9-16.3-4.9-5.1-10.1-9.7-15.5-13.6-5.4-3.9-10.9-7.2-16.5-10.1-5.6-2.8-11.3-5.2-16.9-7.4-5.6-2.2-11.2-4.2-16.5-6.4-5.3-2.2-10.5-4.5-15.4-7.1-4.8-2.6-9.4-5.4-13.6-8.4-4.2-3-8-6.1-11.3-9.1-3.3-3-6.2-5.9-8.6-8.4-2.3-2.5-4.2-4.5-5.5-6-1.3-1.4-1.9-2.2-1.9-2.2.3.2 1 1 2.1 2.5"/>
    <path fill="#FFF" d="M70.7.4c.7.1 1.5.3 2.2.4.7.1 1.5.3 2.2.5l2.2.7c.7.2 1.4.5 2.1.8l2.1.9 2 1c1.4.6 2.7 1.4 4 2.2 1.3.7 2.5 1.7 3.8 2.6 1.3.9 2.4 1.9 3.5 2.9 1.2 1 2.2 2.2 3.2 3.3l.8.9.2.2.1.1v.1l.1.1.3.5 1.3 1.8c.4.6.8 1.2 1.2 1.9l1.1 2.1 1.1 2 .9 2.1c.6 1.4 1.3 2.7 1.7 4.2l.8 2.1c.3.7.5 1.4.8 2.1.5 1.4 1 2.8 1.4 4.2.4 1.4.9 2.9 1.3 4.3.4 1.5.8 2.9 1.2 4.4l1 4.4.4 1.8-1.9-.4c-.8-.1-1.5-.2-2.3-.4-.7-.2-1.5-.3-2.2-.6-1.5-.4-2.9-1-4.3-1.6-1.4-.6-2.7-1.4-4-2.2-1.3-.8-2.5-1.7-3.8-2.6-1.2-.9-2.4-1.9-3.5-2.9l-1.6-1.6-1.6-1.6c-1-1.1-2-2.3-2.9-3.5-.5-.6-.9-1.2-1.3-1.8-.4-.6-.9-1.2-1.3-1.9s-.8-1.3-1.2-2l-1-1.9-1-1.9-1-2c-.6-1.4-1.3-2.7-1.8-4.1-.6-1.4-1.1-2.7-1.6-4.1l-1.5-4.2c-.5-1.4-.9-2.8-1.3-4.2-.4-1.4-.8-2.8-1.2-4.3-.4-1.4-.7-2.9-1-4.3l-.1-.4.4-.1zm.5.7c1.3 2.4 2.4 4.9 3.6 7.3l1.9 3.9c.6 1.3 1.3 2.6 2 3.9.6 1.3 1.3 2.6 2 3.8.6 1.3 1.4 2.5 2.1 3.8l1 1.8 1.1 1.9 1.1 1.9c.3.5.8 1.2 1.1 1.7.4.6.8 1.2 1.2 1.7.4.6.8 1.1 1.2 1.7.8 1.1 1.7 2.2 2.6 3.3l1.4 1.6 1.4 1.5c1 1 2 2 3.1 2.9 2.1 1.8 4.4 3.5 6.8 4.9 1.2.7 2.4 1.4 3.7 1.9.6.3 1.3.5 1.9.8.6.2 1.3.4 2 .7l-1.5 1.4-.4-4.4c-.2-1.4-.5-2.9-.7-4.3-.3-1.4-.7-2.8-1.1-4.3-.4-1.4-1-2.8-1.5-4.1-.2-.7-.6-1.4-.9-2l-1-2c-.6-1.3-1.4-2.5-2.2-3.8l-1.2-1.8-1.3-1.7-1.3-1.7c-.4-.6-1-1.1-1.4-1.7L96.5 20l-.4-.4-.1-.1v-.1c.1.1 0 0 0 .1l-.2-.2-.7-.8c-1-1-1.9-2.1-3-3.1s-2-2-3.2-2.9c-1.1-.9-2.2-1.9-3.4-2.7C84.3 9 83.2 8 82 7.3l-1.8-1.2c-.6-.4-1.2-.8-1.9-1.1-1.2-.8-2.5-1.5-3.8-2.2l-1-.5-1-.5c-.4-.2-.9-.4-1.3-.7zm69 134.9c1.2 1.2 2.3 2.3 3.5 3.3 1.3 1.1 2.6 2.1 4 3 1.4.9 2.8 1.7 4.3 2.4s3 1.2 4.5 1.7c1.6.4 3.1.8 4.7.9 1.6.2 3.2.2 4.8.1l2.5-.3c.8-.2 1.5-.3 2.3-.4l2.4-.6 2.4-.7c1.6-.5 3.2-1 4.7-1.7.8-.3 1.6-.6 2.3-1 .8-.3 1.6-.7 2.3-1l2.3-1.1 2.3-1.2c.7-.4 1.5-.9 2.2-1.3.7-.4 1.5-.9 2.2-1.4 1.4-1 2.8-1.9 4.2-3 1.4-1 2.7-2.1 4-3.2 1.3-1.1 2.6-2.3 3.8-3.5l3.6-3.6-.2 1.7c-.5-.6-1-1.3-1.6-1.8-.6-.6-1.1-1.2-1.7-1.7-.6-.5-1.2-1.1-1.8-1.5-.3-.2-.6-.5-.9-.7l-1-.6c-.6-.4-1.4-.8-2-1.2-.7-.4-1.4-.7-2.1-1-.7-.3-1.5-.6-2.2-.8-.8-.2-1.5-.5-2.3-.6-.8-.1-1.5-.3-2.3-.4l-1.2-.1h-3.6c-.8 0-1.6.1-2.3.2-.8.1-1.5.2-2.3.4-.8.1-1.5.3-2.3.5l-.6.1-.3.1-.2.1-1.2.4c-.8.3-1.6.5-2.4.8l-1.2.4-1.1.5-2.2.9c-1.5.6-3 1.4-4.4 2-.7.4-1.5.7-2.2 1.1l-2.2 1.2c-1.5.8-2.9 1.5-4.4 2.4-1.4.9-2.9 1.6-4.3 2.5l-4.3 2.6-4.3 2.6c-1.4.9-2.8 1.7-4.2 2.5zm-.5-.2c1.2-1.2 2.5-2.3 3.7-3.5l3.9-3.3c1.3-1.1 2.6-2.1 4-3.2 1.3-1.1 2.7-2.1 4.1-3 1.4-1 2.8-2 4.3-2.9l2.2-1.4c.7-.5 1.5-.9 2.2-1.3 1.5-.8 3-1.7 4.6-2.4l2.4-1.1 1.2-.6 1.2-.4c.8-.3 1.6-.6 2.4-.8l1.2-.4h.1l.2-.1h.1l.3-.1.7-.2c.9-.2 1.7-.4 2.6-.6.9-.2 1.8-.3 2.7-.3.9-.1 1.8-.1 2.7-.1h1.4c.5 0 .9.1 1.4.1.5 0 .9.1 1.4.1l1.3.2c.9.1 1.8.4 2.7.6.9.2 1.7.5 2.6.8.9.3 1.7.7 2.5 1.1 1.6.8 3.2 1.7 4.6 2.9l1.1.8c.3.3.7.6 1 .9.7.6 1.3 1.3 1.9 1.9.6.6 1.1 1.4 1.7 2.1.5.7 1 1.5 1.5 2.2l.7 1-.9.7c-1.4 1.1-2.7 2.2-4.1 3.2l-4.1 3.2-2.1 1.6c-.7.5-1.4 1.1-2.1 1.6l-2.1 1.5-2.1 1.5c-1.4 1-2.8 2.1-4.2 3l-2.1 1.5-2.2 1.4c-.7.5-1.5.9-2.2 1.4-.7.5-1.5.9-2.3 1.3-1.5.9-3.1 1.6-4.8 2.3-.8.3-1.7.6-2.5.9-.9.3-1.7.5-2.6.8-.9.2-1.9.4-2.8.5l-1.3.1h-1.3c-1.8 0-3.7 0-5.5-.3-.5-.1-.9-.1-1.4-.2l-1.3-.3c-.9-.2-1.8-.5-2.6-.8-1.7-.6-3.4-1.4-4.9-2.4-.8-.4-1.5-1-2.3-1.5-.7-.6-1.4-1.1-2.1-1.7-1.4-1.2-2.5-2.5-3.7-3.9-1.1-1.4-2.1-2.9-2.9-4.3l-.1-.2v.1zm-14-110.3c-.3 1.1-.6 2.2-.8 3.2-.2 1.2-.6 2.3-.8 3.5l-.3 1.8-.2.9-.1.9c-.1 1.2-.3 2.3-.3 3.5 0 1.2-.2 2.3-.1 3.5 0 1.2 0 2.3.1 3.4s.2 2.3.4 3.4c.1.6.2 1.1.3 1.7l.1.4v.1l.1.2.2.9c.1.6.3 1.1.4 1.7.1.5.3 1.1.5 1.6.2.6.4 1.1.6 1.6.2.5.4 1.1.7 1.6.5 1.1 1 2.1 1.7 3.1.6 1 1.3 2 2.1 2.9.4.4.8.9 1.2 1.3.4.4.8.8 1.3 1.2l1.4 1.2c.5.4 1 .7 1.4 1.1l1.5 1c.5.3 1 .6 1.6.8l1.6.7 1.7.6-1.5.5c.5-1.1 1-2.2 1.4-3.4.4-1.1.8-2.3 1.2-3.4.7-2.3 1.4-4.6 1.8-6.9.4-2.3.6-4.6.5-6.8-.1-1.1-.2-2.2-.4-3.3l-.4-1.6-.5-1.5-.4-.9c-.1-.3-.2-.6-.4-.8-.3-.5-.5-.9-.8-1.4-.6-1-1.2-1.9-1.9-2.9-.3-.5-.7-1-1.1-1.4-.4-.5-.7-.9-1.1-1.4l-2.4-2.7c-3.2-3.2-6.8-6.4-10.3-9.9zm0-.6l3.3 1.8c1.1.6 2.2 1.3 3.2 1.9 1.1.7 2.1 1.4 3.1 2.1 1 .7 2.1 1.5 3 2.3 1 .8 2 1.6 2.9 2.5.5.4.9.9 1.4 1.4.5.5.9 1 1.3 1.5.9 1 1.7 2.1 2.4 3.2.4.5.7 1.2 1.1 1.8.2.3.3.6.5.9l.4.8v.3l.1.2.2.5.4 1c.2.7.4 1.4.5 2l.3 2.1c0 .7.1 1.4.1 2.1 0 2.7-.4 5.4-1 7.9-.7 2.5-1.5 5-2.7 7.3-.6 1.2-1.2 2.3-1.8 3.4-.7 1.1-1.3 2.2-2 3.2l-.7 1-.9-.5-1.7-.9-1.6-1-1.5-1.1-1.5-1.1c-.5-.4-1-.8-1.4-1.2l-1.4-1.2c-.9-.8-1.8-1.7-2.7-2.6-.9-.9-1.7-1.8-2.5-2.8-.8-1-1.6-1.9-2.3-3-.4-.5-.7-1-1.1-1.6-.4-.5-.7-1.1-1-1.7-.3-.6-.6-1.1-.9-1.8-.3-.6-.6-1.2-.7-1.8l-.3-.9-.1-.2v-.3l-.1-.5c-.2-.6-.3-1.3-.4-1.9-.3-1.3-.4-2.6-.4-3.8-.1-1.3 0-2.6 0-3.8 0-1.3.3-2.5.5-3.8.2-1.3.6-2.5.9-3.7.3-1.2.8-2.4 1.2-3.6.4-1.2 1.1-2.3 1.6-3.4.6-1.1 1.3-2.1 2-3.1l.1-.2.2.3zm38.5 23.6l-1.1 3.3c-.4 1.2-.8 2.3-1.1 3.5-.3 1.2-.7 2.3-1 3.5-.3 1.2-.6 2.3-.8 3.5-.1.6-.2 1.2-.3 1.7-.1.6-.2 1.2-.3 1.7-.2 1.2-.3 2.3-.3 3.5 0 .6-.1 1.1 0 1.7v1.7c0 .6 0 1.1.1 1.7 0 .6.1 1.1.2 1.7l.1.4v.3l.2.9c.1.3.1.6.2.9l.3.7c.3 1 .8 2.1 1.4 3 .3.5.6 1 .9 1.4.3.5.7.9 1.1 1.3l1.2 1.2c.4.4.9.8 1.4 1.1.5.3 1 .7 1.5 1 .5.3 1 .6 1.6.9.5.2 1.1.5 1.6.7.6.2 1.1.4 1.7.6 1.2.3 2.3.6 3.5.9l1.8.3 1.8.2-1.1.5c.6-1.1 1.1-2.3 1.6-3.4s1-2.3 1.5-3.5l1.4-3.5c.2-.6.4-1.2.7-1.7.2-.6.4-1.2.6-1.7.4-1.2.7-2.3 1.1-3.5l.4-1.8.3-1.8.2-1.7.1-1.7c0-.5 0-1.1-.1-1.7-.1-.5-.1-1.1-.2-1.6-.1-.2-.1-.5-.2-.8-.1-.2-.2-.5-.2-.7l-.1-.4-.1-.2.1.1v-.1l-.1-.1-.4-.9c-.2-.3-.3-.4-.4-.6-.1-.2-.2-.4-.4-.6-.4-.4-.7-.9-1.1-1.2l-.6-.6-.7-.6c-.4-.4-.9-.7-1.4-1.1-1-.7-2-1.4-3-2l-3.3-1.8-3.4-1.6c-2.3-.9-4.6-1.9-6.9-3zm-.1-.5c1.3.2 2.6.4 3.8.6 1.3.2 2.6.5 3.8.8l1.9.5 1.9.6 1.9.6 1.9.7c1.2.5 2.5 1.1 3.7 1.8.6.4 1.2.7 1.8 1.1l.9.6.8.7c.6.4 1.1 1 1.6 1.5.3.3.5.6.7.9.2.3.5.7.7.9l.5.8.1.1v.1l.1.2.1.3.2.5c.1.4.3.7.4 1.1l.3 1.1c.2.7.2 1.5.3 2.2.1.7 0 1.5.1 2.2-.1.7-.1 1.4-.2 2.1l-.4 2.1-.5 2-.6 1.9c-.4 1.3-.9 2.5-1.4 3.8-.5 1.2-1.1 2.4-1.7 3.6-.6 1.2-1.2 2.3-1.9 3.5-1.3 2.2-2.8 4.4-4.3 6.5l-.5.7-.6-.2-1.8-.4-1.8-.5-1.8-.6-1.8-.6-1.7-.7-1.7-.8-1.7-.9-1.6-.9-1.6-1c-.5-.4-1-.7-1.5-1.1-1-.8-2-1.7-2.8-2.7-.4-.5-.9-1-1.2-1.6-.4-.6-.8-1.1-1.1-1.7l-.5-.9c-.2-.3-.2-.6-.4-.9l-.3-.9-.3-1.1c-.2-.6-.3-1.3-.4-2-.1-.7-.2-1.3-.2-2-.1-1.3 0-2.6.1-3.9.1-1.3.3-2.6.6-3.8.3-1.3.6-2.5 1-3.7l.6-1.8c.2-.6.5-1.2.7-1.8.5-1.2 1-2.3 1.6-3.4.6-1.1 1.2-2.2 1.9-3.2l1.1-1.5c.4-.5.8-1 1.1-1.5l.1-.1v.1zm34.8 138.5l1.7.2.8.1h2.5c.6 0 1.1-.2 1.7-.2 1.1-.1 2.2-.4 3.3-.7.5-.1 1.1-.3 1.6-.5l1.6-.6c1-.4 2-.9 3.1-1.4 1-.5 2-1.1 3-1.6l2.9-1.7c1-.6 1.9-1.2 2.8-1.8.9-.6 1.9-1.2 2.8-1.9l2.8-1.9c.9-.6 1.8-1.3 2.8-1.9l2.8-1.9 5.5-3.9 5.5-3.9-.4 1.6-.9-2.7-1.1-2.6-1.2-2.5-1.4-2.5c-.5-.8-1-1.6-1.6-2.4l-1.8-2.2c-.6-.7-1.3-1.4-1.9-2.1-.7-.6-1.4-1.3-2.1-1.9-.7-.6-1.5-1.2-2.3-1.6-.8-.5-1.6-1-2.4-1.4l-1.3-.6-1.3-.5c-.9-.4-1.8-.5-2.6-.7l-.7-.1-.7-.1-1.4-.2c-.9-.1-1.8 0-2.7 0-.9.1-1.8.2-2.6.3-.9.2-1.9.4-2.8.6-.9.3-1.7.4-2.6.8-.9.3-1.7.6-2.6.9-1.7.7-3.4 1.5-5.1 2.3-.8.4-1.7.9-2.5 1.3l-2.4 1.4-4.8 3c-1.6 1-3.1 2.1-4.7 3.2s-3.1 2.2-4.6 3.3L179 161l-4.6 3.4.6-2.9c.7 1.3 1.3 2.7 2 4l1.1 2c.4.6.7 1.3 1.1 1.9.4.6.7 1.3 1.1 1.9.4.6.8 1.3 1.2 1.9.4.6.8 1.2 1.3 1.8.5.6.9 1.2 1.4 1.8.5.6.9 1.2 1.5 1.7.5.5 1 1.1 1.6 1.6.6.5 1.1 1 1.7 1.5.6.4 1.2.9 1.8 1.4.6.4 1.3.8 1.9 1.2.7.3 1.3.7 2 1 .7.3 1.4.6 2.1.8l2.1.5zm0 .4l-2.2-.5-2.2-.7-2.1-.9c-.7-.3-1.4-.7-2.1-1l-2-1.2c-.7-.4-1.3-.9-1.9-1.3-.6-.5-1.2-.9-1.9-1.4l-1.8-1.5c-.6-.5-1.1-1.1-1.7-1.6-.6-.5-1.1-1.1-1.6-1.7-.5-.6-1-1.2-1.6-1.8l-1.5-1.8c-.5-.6-.9-1.3-1.4-1.9-.5-.6-.9-1.3-1.3-1.9-.8-1.3-1.6-2.6-2.4-4l-.9-1.6 1.5-1.2 4.5-3.6c1.5-1.2 3-2.4 4.6-3.5 1.6-1.1 3.1-2.3 4.7-3.4s3.3-2.1 4.9-3.2c1.7-1 3.4-2 5.1-2.9l2.6-1.3c.9-.4 1.8-.8 2.7-1.3 1.8-.8 3.6-1.5 5.5-2.2 1.9-.6 3.8-1.1 5.9-1.5 1-.2 1.9-.2 2.9-.3h3.1c1 .1 2 .2 3 .4l1.5.3.7.2.7.2c1 .3 1.9.6 2.8 1.1l1.4.6 1.3.7c1.7 1 3.3 2.2 4.8 3.4.8.6 1.4 1.3 2.2 2 .7.7 1.3 1.4 2 2.1l1.9 2.2c.6.8 1.2 1.6 1.8 2.3l1.6 2.4 1.5 2.5 1.4 2.6 1.3 2.6.4.8-.8.8c-1.7 1.6-3.4 3.1-5.1 4.6-.9.8-1.8 1.5-2.7 2.2l-2.7 2.1c-.9.7-1.8 1.4-2.8 2-.9.7-1.9 1.3-2.9 1.9-1 .6-1.9 1.2-3 1.8-1 .5-2 1.1-3.1 1.6-1 .5-2.1 1-3.1 1.5-1.1.5-2.1.9-3.2 1.3l-3.3 1.2c-1.1.3-2.2.7-3.3 1l-1.7.4c-.6.1-1.1.3-1.7.3-1.1.2-2.3.4-3.4.4-.6 0-1.1.1-1.7.1h-2.6l-.8-.1-1.8-.3zm-86-81.4c.9 1.1 1.8 2.1 2.7 3.1.5.5 1 1.1 1.5 1.6l1.5 1.5c1 1 2.1 1.9 3.2 2.8 1.1.8 2.3 1.6 3.5 2.3l.9.5c.3.2.6.3.9.4.6.3 1.2.5 1.9.8.6.2 1.3.4 1.9.6.7.1 1.3.3 2 .4.7.1 1.3.2 2 .2l1 .1h2.1l1-.1c.3 0 .6 0 1-.1l1-.1c.7-.1 1.4-.2 2.1-.4l1-.2 1-.3 2.1-.6c.7-.2 1.4-.4 2-.7 1.4-.5 2.7-1.1 4-1.7 1.3-.7 2.6-1.4 3.8-2.2 1.2-.8 2.4-1.6 3.6-2.5 1.2-.9 2.3-1.8 3.4-2.8 1.1-1 2.2-1.9 3.2-3 1.1-1 2.1-2.1 3.1-3.1l.1 2.4-1.6-.9c-.5-.3-1-.7-1.6-.9-.6-.3-1.1-.5-1.7-.8l-.8-.4-.9-.3c-1.2-.4-2.3-1-3.5-1.3-1.2-.3-2.4-.7-3.6-.9-1.2-.2-2.4-.6-3.6-.7-1.2-.1-2.4-.3-3.7-.4l-1.8-.1-.9-.1h-3.8.1-.2l-.5.1c-1.3.2-2.6.2-3.8.5l-3.6.6c-1.2.3-2.5.6-3.7.8l-3.7 1-3.7 1.1-3.7 1.2-3.7 1.3c-1.2.5-2.4.9-3.5 1.3zm-.5-.3c1.1-.8 2.1-1.5 3.2-2.3 1.1-.7 2.2-1.4 3.4-2.1 1.2-.6 2.3-1.3 3.5-1.9 1.2-.6 2.4-1.2 3.6-1.7l3.7-1.5c1.3-.4 2.5-.8 3.8-1.3 1.3-.4 2.7-.7 4-1 1.3-.3 2.6-.5 3.9-.7l.5-.1h.7l1-.1 2.1-.1h1l1 .1 2 .1c1.4 0 2.7.4 4.1.6 1.4.2 2.7.6 4 .9 1.3.3 2.6.8 3.9 1.3 1.3.4 2.5 1.1 3.7 1.7l.9.4.9.5c.6.4 1.2.7 1.7 1.1 1.2.7 2.2 1.7 3.3 2.5l1.6 1.2-1.5 1.1-3.6 2.7c-1.2.9-2.4 1.7-3.6 2.6-1.2.8-2.4 1.7-3.7 2.5l-1.9 1.2c-.6.4-1.2.8-1.9 1.2-1.2.8-2.5 1.6-3.8 2.4-1.3.8-2.5 1.6-3.9 2.3-1.3.7-2.6 1.5-4 2.1l-1 .5-1.1.4c-.7.3-1.4.5-2.2.7l-1.1.3c-.4.1-.8.2-1.2.2l-1.2.2-1.1.1h-2.4c-.8 0-1.6-.1-2.4-.2-.8-.1-1.6-.4-2.4-.5-.8-.3-1.5-.5-2.3-.8-.7-.3-1.5-.6-2.2-1-.3-.2-.7-.4-1-.6l-1-.7c-.7-.4-1.3-.9-1.9-1.4-.6-.5-1.2-1-1.7-1.6-1.1-1.1-2.1-2.2-3-3.5-.9-1.2-1.7-2.5-2.5-3.8-.8-1.3-1.4-2.7-1.9-4.1l-.1-.2.1.3zm124 12.47l.192 2.586c.19.863.287 1.726.48 2.588.19.863.478 1.725.67 2.492.287.767.575 1.63.958 2.396.383.767.67 1.533 1.15 2.3.48.767.863 1.533 1.246 2.204.48.67.96 1.438 1.438 2.11.48.67.958 1.436 1.533 2.107.575.67 1.054 1.342 1.63 2.013l1.63 1.917c.574.67 1.15 1.246 1.724 1.916l1.726 1.82c1.15 1.246 2.396 2.396 3.642 3.642.575.575 1.246 1.15 1.82 1.725l1.917 1.725-2.587.288c1.15-1.342 2.3-2.78 3.45-4.12 1.15-1.343 2.3-2.685 3.45-4.122 1.15-1.342 2.205-2.78 3.355-4.217 1.054-1.437 2.108-2.874 3.066-4.408.862-1.533 1.82-3.067 2.587-4.696.383-.767.67-1.63 1.054-2.396.385-.862.576-1.63.864-2.492.287-.862.48-1.725.67-2.587.097-.862.288-1.724.384-2.587 0-.862.096-1.725.096-2.588-.096-.862 0-1.725-.192-2.587l-.19-1.246-.097-.575-.096-.67c-.193-.864-.384-1.822-.672-2.59-.192-.765-.48-1.628-.767-2.395l-.478-1.246c-.192-.383-.383-.766-.48-1.15l-.478-1.15-.575-1.15-.576-1.15-.67-1.15-.672-1.15-.67-1.054c-.48-.767-.96-1.438-1.534-2.11-.48-.67-1.055-1.34-1.63-2.01-.575-.672-1.15-1.247-1.725-1.918-.575-.67-1.246-1.246-1.82-1.82-.576-.576-1.247-1.15-1.917-1.726-1.342-1.054-2.684-2.11-4.026-3.067-.67-.478-1.437-.862-2.204-1.34-.767-.384-1.438-.767-2.204-1.15l2.587-.48-1.63 1.82c-.48.576-1.054 1.247-1.533 1.822-1.055 1.246-2.013 2.588-2.97 3.93l-1.44 2.012c-.478.67-.957 1.342-1.34 2.013-.384.67-.863 1.34-1.342 2.108l-1.246 2.108-1.15 2.205-1.056 2.3-.958 2.3-.767 2.396c-.288.767-.48 1.63-.672 2.396-.19.863-.287 1.63-.48 2.492-.095.862-.19 1.63-.286 2.492l-.192 2.875zm-.5-1.47v-2.7l.1-2.7.3-2.7c.1-.9.3-1.8.4-2.6l.5-2.6.6-2.6.7-2.6.9-2.6 1-2.5c.3-.8.7-1.7 1.1-2.5l1.2-2.4c.4-.8.9-1.6 1.3-2.4.5-.8 1-1.5 1.5-2.3.5-.8 1.1-1.5 1.6-2.2.5-.7 1.1-1.4 1.7-2.2l1.8-2.1 1.1-1.3 1.6.8c.9.4 1.8.8 2.7 1.3.9.5 1.7 1 2.6 1.6 1.7 1.1 3.3 2.3 4.7 3.6.7.7 1.5 1.3 2.1 2 .7.7 1.4 1.4 2 2.1.7.7 1.3 1.5 1.9 2.3.6.8 1.2 1.5 1.7 2.4.6.8 1.1 1.6 1.6 2.5l.8 1.3.7 1.3.7 1.3.6 1.3.6 1.3.5 1.4c.2.5.3.9.5 1.4l.4 1.4c.3.9.5 1.9.6 2.9.2 1 .3 1.9.4 2.9l.1.7v2.3c0 1-.1 2-.2 2.9-.1 1-.3 1.9-.4 2.9-.2.9-.4 1.9-.7 2.8l-.9 2.7c-.4.9-.7 1.8-1.1 2.7-.4.9-.7 1.8-1.2 2.6-.4.8-.8 1.7-1.3 2.5s-.9 1.7-1.4 2.5c-.5.8-.9 1.6-1.4 2.5l-1.5 2.4-3 4.8c-2 3.2-4.1 6.3-6.3 9.4l-1.1 1.6-1.6-1.3-2.2-1.8c-.7-.6-1.4-1.2-2.1-1.9-.7-.6-1.3-1.3-2-2s-1.3-1.4-1.9-2.1c-.6-.7-1.2-1.4-1.8-2.2-.6-.7-1.1-1.5-1.7-2.3-.6-.8-1.1-1.6-1.6-2.3-.5-.8-.9-1.6-1.4-2.4-.5-.8-.9-1.7-1.3-2.5s-.8-1.7-1.1-2.6c-.4-.9-.7-1.7-1-2.6l-.9-2.7c-.3-.9-.4-1.8-.7-2.7-.2-.9-.4-1.8-.5-2.7l-.4-2.7.1-2.6zM88.5 63.1c.7 1 1.3 2 1.9 3l2.1 3.3c.7 1.1 1.4 2.2 2.1 3.2.7 1.1 1.4 2.1 2.2 3.1.7 1 1.5 2 2.3 3 .8 1 1.6 1.9 2.4 2.8.8.9 1.7 1.8 2.6 2.6.4.4.9.8 1.3 1.2.5.4.9.7 1.4 1.1.5.3 1 .7 1.5.9l.9.5.4.2.4.2c.5.2 1 .5 1.6.6l.9.3c.3.1.6.1.9.2.3 0 .6.1.9.1l.9.1c.6.1 1.2 0 1.9 0 1.3-.1 2.5-.3 3.7-.7l1.8-.6c.6-.2 1.2-.5 1.8-.7l1.7-.9 1.6-1 1.6-1.1 1.5-1.1 1.5-1.2 1.4-1.3-.2 2.4c-.8-.7-1.6-1.5-2.4-2.2l-2.4-2.2c-.8-.7-1.6-1.4-2.5-2.1-.8-.7-1.7-1.3-2.5-2l-1.3-1-1.3-.9-2.7-1.8c-.9-.5-1.8-1.2-2.7-1.7-.9-.5-1.8-1.1-2.8-1.6l-2.8-1.4c.1 0-.1-.1.1 0h-.1l-.2-.1-.4-.1-.8-.3-1.6-.6c-1-.3-2-.6-2.9-.9-1-.2-2.1-.5-3.1-.7-1.1-.1-2.1-.4-3.2-.5-1.1-.1-2.1-.2-3.2-.2l-1.6-.1h-1.6c-1 .1-2 .2-3 .2zm-.5-.4c1.1-.4 2.1-.8 3.2-1.1l1.7-.4c.6-.1 1.1-.2 1.7-.3 1.1-.2 2.3-.3 3.4-.4 1.2-.1 2.3-.1 3.5-.1 1.2.1 2.3.2 3.5.3 1.2.2 2.4.4 3.5.7l1.6.4.8.2.4.1.2.1h.1l.2.1 3.2 1.4c1 .5 2.1 1.1 3.1 1.6s2 1.2 2.9 1.9c1 .6 1.9 1.3 2.8 2l1.4 1.1 1.3 1.1c.9.8 1.7 1.5 2.5 2.3.8.8 1.7 1.6 2.4 2.4.8.8 1.6 1.7 2.3 2.5l2.1 2.7 1.1 1.5-1.4.9-1.7 1.1-1.7 1-1.8.9-1.8.9c-1.2.5-2.5 1-3.7 1.5l-1.9.6c-.6.2-1.3.4-1.9.6-1.3.3-2.6.6-3.9.8-.7.1-1.3.2-2 .2s-1.4.1-2 .1h-1l-1-.1c-.7 0-1.4-.2-2.1-.4l-.5-.1-.5-.1-.9-.3c-.7-.2-1.3-.5-2-.8-.6-.3-1.2-.7-1.9-1-.6-.4-1.2-.8-1.7-1.2-1.1-.9-2.1-1.8-3-2.9-.9-1-1.8-2.1-2.5-3.2l-1.1-1.7-1-1.7c-.7-1.2-1.3-2.3-1.9-3.5-.6-1.2-1.1-2.4-1.6-3.6-1-2.4-1.8-5-2.4-7.5l-.1-.2.1-.4zm120.2-4.1l-1.9 3.8c-.7 1.3-1.3 2.6-1.9 3.9-.3.6-.6 1.3-.9 2-.3.7-.6 1.3-.9 2-.6 1.3-1.1 2.6-1.5 4-.5 1.3-.9 2.7-1.3 4l-.5 2-.5 2-.4 2-.2 2c0 .7-.1 1.3-.1 2v2l.1 1v.3l.1.5.2 1.1c.1.4.2.6.2.9l.3.9.4.9c.2.6.6 1.2.8 1.8.3.6.7 1.2 1.1 1.8.4.6.8 1.1 1.3 1.7.5.5.9 1 1.4 1.5.5.5 1 1 1.6 1.4 1.1.9 2.3 1.7 3.5 2.5 1.2.8 2.5 1.4 3.8 2.1 1.3.6 2.6 1.2 4 1.7 1.3.5 2.7.9 4.1 1.4l-1.2.4 2.4-4.2c.8-1.4 1.5-2.8 2.2-4.2.7-1.4 1.5-2.8 2.2-4.2l2.1-4.2c.6-1.4 1.3-2.8 1.9-4.3.3-.7.6-1.4.8-2.2.3-.7.5-1.4.7-2.2.5-1.5.8-2.9 1.2-4.4.3-1.5.5-2.9.6-4.3 0-.7.1-1.4 0-2.1l-.1-1c-.1-.3-.1-.6-.2-1l-.1-.5v-.2c0-.1.1.1 0 .1l-.1-.3-.4-1.1c0-.1-.1-.2-.1-.3l-.1-.2-.2-.4c-.2-.3-.2-.5-.4-.8-.4-.6-.7-1.2-1.2-1.7-.4-.6-.9-1-1.4-1.5-.5-.5-1.1-.9-1.7-1.4-.6-.4-1.2-.9-1.8-1.2-.6-.4-1.3-.8-2-1.1l-1-.5-1.1-.5c-1.4-.6-2.9-1.1-4.4-1.6-1.5-.5-3-.9-4.6-1.2l-2.3-.5-2.5-.4zm-.1-.5c.8 0 1.6-.1 2.4-.1h2.4c1.6.1 3.3.2 4.9.4 1.6.2 3.3.5 4.9 1l1.2.3 1.2.4c.8.3 1.6.6 2.4 1 .8.3 1.5.8 2.3 1.2.7.5 1.5.9 2.2 1.5.7.6 1.4 1.1 2 1.8.7.6 1.2 1.4 1.8 2.1.3.3.5.8.8 1.3l.4.7.3.6.4 1.1.1.3.1.2v.3l.2.7c.1.5.2.9.3 1.4l.2 1.4c.1.9.1 1.8.1 2.7 0 .9-.2 1.8-.2 2.6-.1.9-.3 1.7-.5 2.5-.4 1.7-.9 3.3-1.5 4.8-.3.8-.6 1.6-.9 2.3-.3.8-.7 1.5-1 2.3-.7 1.5-1.4 3-2.2 4.4-.8 1.4-1.6 2.9-2.4 4.2-.8 1.4-1.8 2.7-2.7 4.1-1.9 2.7-3.8 5.2-5.7 7.8l-.5.7-.7-.3-2-.9c-.7-.3-1.3-.6-2-.9-1.3-.6-2.7-1.3-4-1.9-2.6-1.3-5.2-2.8-7.6-4.5-.6-.4-1.2-.9-1.8-1.3-.6-.5-1.2-1-1.7-1.4-.5-.5-1.1-1-1.6-1.6-.5-.6-1.1-1.1-1.5-1.8-.5-.6-.9-1.3-1.3-2l-.6-1c-.2-.4-.3-.8-.5-1.1-.1-.4-.3-.8-.5-1.2l-.3-1-.1-.5V92l-.2-1.2c-.1-.8-.1-1.6-.2-2.4 0-.8 0-1.6.1-2.4.1-.8.2-1.5.3-2.3l.5-2.3.6-2.2.7-2.2.8-2.1.9-2.1c.6-1.4 1.3-2.7 2.1-4 .4-.7.7-1.3 1.1-1.9.4-.6.8-1.3 1.2-1.9.8-1.2 1.7-2.4 2.6-3.6l1.4-1.7c.5-.5 1-1.1 1.5-1.6l.1-.1-.3.1z"/>
    <path fill="#FFF" d="M112 53.3c1.2 1.5 2.9 3.7 5.1 6.3 2.2 2.6 5 5.7 8.1 8.9 3.2 3.2 6.7 6.6 10.7 9.8 4 3.2 8.3 6.3 13 9.1 4.7 2.8 9.6 5.4 14.8 7.8 5.2 2.4 10.5 4.7 16 7s11.1 4.8 16.6 7.7c5.6 2.9 11.1 6.2 16.4 10.1 5.3 3.9 10.6 8.3 15.6 13.3 5 4.9 9.8 10.3 14.3 15.7 4.5 5.5 8.8 11 12.7 16.1 3.9 5.2 7.6 9.9 10.8 13.9 3.3 4 6.1 7.4 8.5 9.9 2.4 2.6 4.3 4.4 5.6 5.5 1.3 1.2 2 1.7 2 1.7s-.6-.6-1.8-1.9c-1.2-1.3-2.8-3.3-5-6.1s-4.8-6.3-7.8-10.7c-3-4.3-6.3-9.4-10-14.7-3.7-5.4-7.7-11.2-12.1-16.9-4.4-5.7-9-11.3-13.9-16.3-4.9-5.1-10.1-9.7-15.5-13.6-5.4-3.9-10.9-7.2-16.5-10.1-5.6-2.8-11.3-5.2-16.9-7.4-5.6-2.2-11.2-4.2-16.5-6.4-5.3-2.2-10.5-4.5-15.4-7.1-4.8-2.6-9.4-5.4-13.6-8.4-4.2-3-8-6.1-11.3-9.1-3.3-3-6.2-5.9-8.6-8.4-2.3-2.5-4.2-4.5-5.5-6-1.3-1.4-1.9-2.2-1.9-2.2.3.2 1 1 2.1 2.5"/>
  </g>
</svg>
