<?xml version="1.0" encoding="UTF-8" standalone="no"?>
<svg width="488px" height="397px" viewBox="0 0 488 397" version="1.1" xmlns="http://www.w3.org/2000/svg" xmlns:xlink="http://www.w3.org/1999/xlink" xmlns:sketch="http://www.bohemiancoding.com/sketch/ns">
    <!-- Generator: Sketch 3.2.2 (9983) - http://www.bohemiancoding.com/sketch -->
    <title>bg_lucuma</title>
    <desc>Created with Sketch.</desc>
    <defs></defs>
    <g id="Blank-Project" stroke="none" stroke-width="1" fill="none" fill-rule="evenodd" sketch:type="MSPage">
        <g id="Pagina-Producto-24" sketch:type="MSArtboardGroup" transform="translate(-317.000000, -132.000000)" stroke="#F5B105" stroke-width="12.3909998" stroke-linecap="round" stroke-linejoin="round">
            <g id="Stroke-182" sketch:type="MSLayerGroup" transform="translate(304.000000, 118.000000)">
                <g id="bg_lucuma" transform="translate(20.000000, 20.000000)" sketch:type="MSShapeGroup">
                    <path d="M288.295659,236.466736 C287.780849,236.491419 236.8711,239.340503 227.467006,271.015408 C215.527651,311.219935 213.15459,339.033767 236.345712,362.217837 C260.897906,386.766505 346.659571,391.805294 386.782998,371.054229 C400.975528,363.716427 410.742809,351.678341 415.813332,335.27495 C422.220246,314.545042 418.754095,293.434315 414.24422,285.063368 C405.436037,268.70229 381.716001,247.683242 348.584819,237.602139 C317.530506,228.155732 290.421894,236.068288 290.150384,236.149388 C289.550948,236.329219 288.923304,236.435002 288.295659,236.466736 L288.295659,236.466736 Z" id="Stroke-337"></path>
                    <path d="M310.652432,0.247532828 C309.96837,1.8025404 293.903484,38.8794217 293.903484,88.2200589 C293.903484,135.885801 277.817442,167.737011 269.203194,174.196816 C258.198253,182.451402 239.774411,196.270166 239.774411,216.964813 C239.774411,220.095985 241.660871,222.91686 244.552269,224.115732 C247.447192,225.314604 250.775825,224.651699 252.990212,222.437311 C252.993738,222.437311 257.729283,217.916859 265.733517,215.631949 C267.154533,215.226449 268.882319,214.856209 270.793462,214.443656 C279.457076,212.564247 295.127039,209.165093 302.464841,197.158742 C307.136916,207.250423 313.64256,216.478212 322.676413,221.70741 C329.756811,225.804731 341.558648,229.11926 357.588273,221.640414 C360.472618,220.293446 362.239191,217.317423 362.038204,214.140412 C361.840742,210.959875 359.714508,208.230678 356.685593,207.253949 L323.036075,196.42884" id="Stroke-339"></path>
                    <path d="M342.27485,182.714 C342.109124,182.022885 338.06822,165.658282 325.360176,153.955175 C316.150018,145.471392 307.447617,137.45658 320.317861,85.4325847 C328.032955,54.2442809 331.890503,38.2005519 333.801646,30.0905351 C342.95186,32.3789703 352.102075,34.6638794 361.25229,36.9523145 C362.736775,37.3225544 364.305887,37.2449804 365.74806,36.7266445 C366.259343,36.5432876 417.260771,18.5919417 447.941317,36.1589433 C463.297458,44.9565486 471.474471,53.7188928 473.664175,63.7435789 C476.157124,75.1504938 471.118335,89.8049417 458.262195,108.482663 C452.556975,103.606075 444.104927,98.2287809 432.422976,95.1117135 C408.159922,88.6413305 393.184599,78.412131 387.909562,64.7026765 C384.683186,56.3105721 382.024511,49.0468179 380.071055,43.5813718 C398.410271,45.982642 435.296743,57.4988659 449.277707,110.422015" id="Stroke-341"></path>
                    <path d="M290.422082,39.0345699 C285.929838,39.8667281 246.293012,47.8533316 237.724603,71.841351 C233.659016,83.2271094 234.611062,92.5888897 235.376224,100.113575 C236.148439,107.726412 236.363531,111.238402 233.338142,114.697501 C229.875517,118.653779 218.807107,123.63615 206.511617,128.075503 C211.716132,117.186923 213.584962,103.036707 206.850122,86.1996069 C205.644197,83.1812702 202.682278,81.2383923 199.434745,81.3335968 C196.187213,81.4288013 193.345181,83.5444579 192.319087,86.6262643 C191.97353,87.6382534 183.680156,111.164354 160.224577,117.366754 C159.149118,103.777187 154.928383,78.3011557 138.468575,70.8963577 C118.041911,61.70383 98.6378145,69.2179369 80.7957774,93.234165 C73.4473969,103.128386 68.8952092,111.453494 66.0990165,117.691155 C59.572216,110.607231 51.5961907,99.5035606 52.3119879,88.0931195 C53.0912547,75.5790109 53.8070518,72.9132837 53.888152,72.6488266 C53.327503,74.5141305 50.7181932,77.2327492 46.8994331,77.1445968 C43.415652,77.0634966 40.8451293,75.3145539 39.9988666,71.9330295 C39.4064828,69.5529158 39.9706579,67.0352845 41.5291916,65.1417719 C40.0059188,66.9929714 4.5404626,110.991576 30.8274954,150.423888" id="Stroke-343"></path>
                    <path d="M18.6883495,141.291304 C15.8815784,143.16366 1.7913057,153.100194 0.162250149,164.905557 C-0.486551198,169.598789 0.818103684,174.00288 3.93869712,177.64181 L5.46902203,179.418961 C12.6904631,187.804013 13.8011828,189.091038 13.2158512,196.894285 C12.2073882,210.33223 17.1192375,221.978919 17.3308032,222.469046 C18.9457544,226.241967 23.2299589,228.093167 27.087506,226.696833 C27.9302426,226.390063 28.8188183,226.093871 29.7073941,225.818836 C28.1100734,230.836468 27.3308065,236.43238 30.8851096,240.94578 C32.8879311,243.49162 36.8829959,246.298391 44.5381466,245.226459 C47.5494311,244.806854 51.3364564,244.055795 55.5184042,243.223637 C77.2990885,238.879489 89.0762434,238.325892 90.5219421,241.584003 C91.8583318,244.591762 92.9408427,248.558618 93.9845666,252.398535 C96.502198,261.636902 99.1044555,271.192617 107.066376,274.753972 C111.428155,276.707428 116.297691,276.365397 121.540993,273.745509 C136.357642,266.333659 141.265965,264.225055 151.784304,262.123503 C160.035365,260.47329 163.864703,254.47893 166.660896,250.106573 C169.767385,245.244089 171.643267,242.306853 178.656668,241.76736 C182.944399,241.439434 184.115062,242.550153 184.746233,243.146063 C185.127051,243.509251 185.454978,243.875965 185.758222,244.210944 C187.253286,245.854104 190.035375,248.918279 194.749763,248.833653 C199.933121,248.741975 204.055126,244.976106 210.306891,237.585412 C219.890815,226.259598 224.718038,216.203177 227.912679,209.549437 C229.22086,206.830818 230.84639,203.442242 231.660918,202.684131 C232.11931,202.507827 233.356969,202.063539 234.760355,201.534625 C241.974743,198.81248 251.85486,195.081872 254.062195,186.26311 C254.897879,182.927425 254.823831,177.726436 249.721573,171.894276 C237.362612,157.768742 206.488131,161.178476 200.423248,162.007108" id="Stroke-345"></path>
                    <path d="M36.7003004,149.729247 C35.2828105,153.449277 23.3963467,186.474676 42.4196253,199.789208 C57.1551733,210.103034 64.2355706,209.267349 77.6065201,206.569887 C79.3519367,206.220804 81.2525015,205.83646 83.3575798,205.455641 C86.8202044,204.824471 86.8202044,204.824471 88.9464393,210.420382 C90.5966514,214.76453 92.8568778,220.713051 98.9922818,223.780753 C111.63333,230.099514 136.982422,216.400638 145.025443,208.696122 C146.083271,208.85127 147.560704,209.172145 148.653794,209.408393 C155.067759,210.790622 172.811066,214.616434 177.296257,195.187655 C178.177781,191.361843 179.1263,188.086101 179.954933,185.226439 C183.329405,173.537436 186.245485,163.442228 171.122066,153.357598 C167.567763,150.988063 163.819525,147.980305 159.852669,144.799768 C149.066347,136.13968 137.91331,127.186927 125.86112,127.186927 C114.577619,127.186927 110.776489,135.44504 109.133329,139.189752 C104.912594,137.335026 101.136147,135.307522 97.7793054,133.505688 C91.1996135,129.976067 86.0021505,127.186927 80.5084957,127.186927 C72.1481261,127.186927 69.9901564,135.434461 68.6996059,140.360415 C67.1410723,146.32304 66.2172356,148.170714 64.7574325,148.272971 C53.9323231,149.027555 44.8526303,154.401322 41.6297802,161.961269 C39.1685664,167.726433 40.2933904,174.080455 44.7186388,179.387226 C54.1086278,190.656624 74.1791564,198.971154 89.0804308,193.382295 C96.9295167,190.438006 103.170704,183.234195 108.678463,176.876647 C110.318097,174.979609 112.613584,172.331512 114.143909,170.917548 C116.397083,171.989481 117.945039,173.629114 117.962669,173.646745" id="Stroke-347"></path>
                </g>
            </g>
        </g>
    </g>
</svg>