<?xml version="1.0" encoding="UTF-8" standalone="no"?>
<svg width="497px" height="309px" viewBox="0 0 497 309" version="1.1" xmlns="http://www.w3.org/2000/svg" xmlns:xlink="http://www.w3.org/1999/xlink" xmlns:sketch="http://www.bohemiancoding.com/sketch/ns">
    <!-- Generator: Sketch 3.2.2 (9983) - http://www.bohemiancoding.com/sketch -->
    <title>Stroke 181</title>
    <desc>Created with Sketch.</desc>
    <defs>
        <rect id="path-1" x="0" y="0" width="554" height="345"></rect>
    </defs>
    <g id="Blank-Project" stroke="none" stroke-width="1" fill="none" fill-rule="evenodd" sketch:type="MSPage">
        <g id="Pagina-Producto-18" sketch:type="MSArtboardGroup" transform="translate(-361.000000, -237.000000)">
            <g id="Stroke-181" sketch:type="MSLayerGroup" transform="translate(304.000000, 201.000000)">
                <mask id="mask-2" sketch:name="Mask" fill="white">
                    <use xlink:href="#path-1"></use>
                </mask>
                <use id="Mask" sketch:type="MSShapeGroup" xlink:href="#path-1"></use>
                <g id="linodorado" mask="url(#mask-2)" fill="#FEFEFE" sketch:type="MSShapeGroup" opacity="0.257054571">
                    <g transform="translate(57.500000, 36.500000)">
                        <path d="M313.050735,145.564022 C313.050735,145.564022 275.939064,176.333042 235.206221,176.333042 C194.476935,176.333042 161.88995,164.571032 163.700535,147.374383 C165.511121,130.177733 180.899321,113.888042 227.060364,118.412166 C273.224964,122.93629 297.662535,138.322578 307.618978,138.322578 C317.575421,138.322578 309.429564,151.898506 313.050735,145.564022 L313.050735,145.564022 Z" id="Stroke-133"></path>
                        <path d="M156.2549,8.11063336 C156.2549,8.11063336 136.9823,40.3983653 107.031157,51.0008911 C77.0835713,61.6069736 50.0635142,61.4362519 46.9154428,48.3226952 C43.7673713,35.2091385 50.8389713,19.2253241 85.9586428,10.5327468 C121.081871,1.84372614 143.054343,6.79465397 150.374943,4.20181892 C157.6991,1.60898387 155.241114,13.7124375 156.2549,8.11063336 L156.2549,8.11063336 Z" id="Stroke-135"></path>
                        <path d="M181.414286,22.0320619 C181.414286,22.0320619 207.655329,0.275721649 236.453957,0.275721649 C265.256143,0.275721649 288.295757,8.59484536 287.015186,20.7516495 C285.734614,32.9120103 274.856871,44.4286082 242.216529,41.231134 C209.576186,38.0301031 192.295586,27.1501546 185.256,27.1501546 C178.212857,27.1501546 183.975429,17.5506186 181.414286,22.0320619 L181.414286,22.0320619 Z" id="Stroke-137"></path>
                        <path d="M99.6,263.223744 C99.6,263.223744 131.5965,213.646888 179.144829,198.65895 C226.693157,183.667455 269.058729,185.410238 273.2775,206.149362 C277.492714,226.888486 265.526486,251.568434 209.974586,263.273537 C154.422686,274.982197 120.227871,266.012197 108.606686,269.675599 C96.9819429,273.342558 101.495957,254.495599 99.6,263.223744 L99.6,263.223744 Z" id="Stroke-139"></path>
                        <path d="M0,185.216547 C0,185.216547 32.7363857,147.999228 74.0988429,141.447785 C115.4613,134.899898 150.4458,141.604279 151.374214,159.359331 C152.299071,177.114382 139.294157,196.128506 91.6889143,198.95964 C44.0836714,201.787218 16.7897143,190.096341 6.68031429,191.696857 C-3.43264286,193.297372 2.65718571,178.199176 0,185.216547 L0,185.216547 Z" id="Stroke-141"></path>
                        <path d="M313.028571,205.102577 C313.028571,205.102577 358.453286,167.44067 408.306643,167.44067 C458.163557,167.44067 498.046243,181.838196 495.830143,202.886753 C493.6176,223.935309 474.782529,243.874175 418.277314,238.336392 C361.775657,232.798608 331.863643,213.965876 319.676871,213.965876 C307.4901,213.965876 317.460771,197.348969 313.028571,205.102577 L313.028571,205.102577 Z" id="Stroke-143"></path>
                        <path d="M416.537809,298.525757 C416.537809,298.525757 365.208238,341.085242 308.873767,341.085242 C252.535738,341.085242 207.466738,324.813334 209.970967,301.029675 C212.475195,277.246015 233.757581,254.714314 297.604738,260.974108 C361.451895,267.233901 395.255424,288.513644 409.025124,288.513644 C422.798381,288.513644 411.529352,307.289468 416.537809,298.525757 L416.537809,298.525757 Z" id="Stroke-145"></path>
                        <path d="M64.0285714,93.1234021 C64.0285714,93.1234021 98.7960857,64.2963402 136.953557,64.2963402 C175.114586,64.2963402 205.641986,75.3185567 203.945229,91.4268557 C202.248471,107.538711 187.834929,122.800515 144.587186,118.557371 C101.339443,114.317784 78.4456714,99.9060309 69.1152857,99.9060309 C59.7884571,99.9060309 67.4220857,87.187268 64.0285714,93.1234021 L64.0285714,93.1234021 Z" id="Stroke-147"></path>
                        <path d="M273.9,84.078104 C273.9,84.078104 306.625714,51.1679494 345.6618,47.4085164 C384.697886,43.6490834 417.010971,51.9184133 416.865129,68.5637741 C416.715729,85.2126917 403.472486,102.242176 358.816114,102.163929 C314.156186,102.085681 289.316657,89.598104 279.772843,90.5192896 C270.232586,91.4369185 276.784843,77.6724855 273.9,84.078104 L273.9,84.078104 Z" id="Stroke-149"></path>
                    </g>
                </g>
            </g>
        </g>
    </g>
</svg>