<?xml version="1.0" encoding="UTF-8" standalone="no"?>
<svg width="839px" height="575px" viewBox="0 0 839 575" version="1.1" xmlns="http://www.w3.org/2000/svg" xmlns:xlink="http://www.w3.org/1999/xlink">
    <!-- Generator: Sketch 3.7.1 (28215) - http://www.bohemiancoding.com/sketch -->
    <title>Group</title>
    <desc>Created with Sketch.</desc>
    <defs></defs>
    <g id="Page-1" stroke="none" stroke-width="1" fill="none" fill-rule="evenodd">
        <g id="Group" fill="#AA841C">
            <path d="M394.01,2.554 C393.892,1.714 393.55,0.264 394.37,0.028 C395.226,-0.217 395.76,1.178 396.284,1.9 C397.794,3.976 398.992,6.26 400.444,8.38 C404.974,14.994 409.306,21.762 414.224,28.094 C420.289,35.907 427.018,43.182 433.359,50.774 C439.682,58.344 446.309,65.681 452.217,73.578 C455.249,77.628 462.55,91.325 467.717,96.438 C473.427,102.088 476.377,102.976 484.009,104.988 C484.699,105.168 485.866,105.625 486.149,104.97 C487.489,101.854 487.509,98.32 488.299,95.022 C488.849,96.149 489.414,97.272 489.985,98.397 C483.4,92.77 477.101,86.819 470.635,81.057 C468.512,79.164 465.492,77.157 464.469,74.265 C464.451,74.199 464.424,74.125 464.405,74.062 C460.65,63.002 456.86,49.215 445.47,43.212 C440.28,40.477 436.607,42.947 431.922,38.7 C425.626,32.992 420.742,25.875 414.677,19.922 C405.107,10.529 403.151,12.572 394.057,2.61 C394.047,2.59 394.027,2.567 394.009,2.554 M394.119,1.841 C403.177,5.881 409.112,8.871 416.345,15.814 C423.285,22.474 422.847,26.237 430.485,32.297 C438.775,38.875 450.505,42.411 455.997,52.277 C458.909,57.511 462.541,70.137 466.087,75.092 C471.889,83.2 478.315,85.656 486.117,91.284 C487.694,92.422 491.743,95.834 491.39,98.399 C491.07,100.599 491.125,103.409 490.84,106.079 C489.512,117.225 472.112,106.555 469.087,104.422 C457.782,96.452 456.631,81.004 445.823,72.598 C445.598,72.428 445.477,72.378 445.32,72.176 C425.62,52.186 406.98,26.726 393.846,1.318 C393.896,1.088 393.943,0.865 393.988,0.64 C394.044,1.04 394.08,1.442 394.12,1.843 M376.71,31.235 C375.303,29.393 373.893,27.531 372.226,25.921 C369.963,23.737 366.242,26.115 364.7,27.789 C361.66,31.089 359.087,34.789 356.315,38.319 C348.375,48.427 340.97,59.344 330.831,67.485 C331.795,65.105 332.755,62.725 333.708,60.338 C334.712,62.985 335.846,65.604 337.296,68.038 C338.854,70.65 340.556,73.232 342.69,75.403 C348.463,81.281 359.17,81.273 363.955,74.093 C370.159,64.776 372.338,57.783 374.935,47.007 C376.593,40.123 377.805,33.137 379.209,26.197 C379.561,24.442 379.875,22.68 380.209,20.923 C380.372,20.06 380.535,19.197 380.701,18.335 C380.767,17.985 380.881,16.933 380.904,17.289 C380.944,17.949 381.302,19.639 380.756,19.266 C380.206,17.586 379.446,15.902 378.869,13.916 C379.225,13.318 379.566,12.722 379.909,12.126 C379.252,16.772 377.745,26.266 376.936,30.889 C376.876,31.251 376.949,31.539 376.709,31.236 M376.765,30.13 C377.5,22.97 378.365,15.825 379.235,8.683 C381.549,14.563 382.61,16.705 381.715,22.485 C379.045,39.533 378.063,58.455 368.113,73.407 C362.158,82.357 349.118,84.924 340.125,79.123 C333.938,75.133 331.215,70.69 328.155,64.191 C340.091,53.954 348.443,40.597 358.419,28.621 C360.149,26.541 368.579,15.288 373.027,21.898 C374.71,24.398 375.717,27.305 376.765,30.13 M631.65,486.158 C609.507,488.193 586.007,494.47 570.643,511.736 C561.533,521.974 554.507,533.984 545.093,543.944 C543.053,545.852 541.019,547.764 538.969,549.668 C536.614,551.465 534.235,553.258 531.847,555.058 C530.471,553.116 529.115,551.181 527.759,549.25 C537.799,549.128 547.913,549.12 557.979,548.61 C584.204,547.648 612.139,546.51 636.157,534.356 C643.397,530.693 651.11,524.433 651.755,515.639 C651.403,513.057 651.047,509.869 649.837,506.977 C649.353,505.224 646.609,499.52 645.667,498.049 C641.144,489.353 635.117,481.451 630.537,472.759 C630.202,472.163 633.102,473.589 632.417,473.593 C627.411,473.633 622.407,473.243 617.413,472.865 C618.107,471.941 618.773,471.008 619.468,470.079 C623.423,474.692 628.922,481.136 632.393,486.099 C632.14,486.123 631.893,486.144 631.647,486.157 M630.444,485.39 C624.079,480.25 617.954,474.776 612.006,469.158 C618.731,469.012 625.519,468.058 632.183,468.963 C636.433,469.54 640.239,475.265 642.383,478.173 C646.7,484.027 658.115,498.803 659.491,506.436 C660.615,509.899 660.744,513.121 660.283,516.879 C655.488,529.455 644.976,534.733 632.456,539.077 C609.989,548.117 582.773,551.857 559.076,554.205 C544.824,555.778 530.446,556.092 516.132,556.685 C521.416,552.411 524.819,549.619 529.916,545.411 C531.664,543.615 533.43,541.838 535.166,540.045 C544.87,528.82 553.241,516.448 563.382,505.617 C580.408,487.435 606.92,483.98 630.442,485.39 M578.905,158.222 C578.812,159.467 578.701,160.707 578.585,161.954 C576.767,171.017 581.802,180.069 587.235,186.806 C599.225,201.679 614.061,214.056 625.337,229.538 C623.467,228.892 621.612,228.24 619.769,227.592 C630.849,206.235 625.229,185.827 606.674,171.18 C594.292,163.337 580.878,157.482 567.994,150.54 C567.204,150.095 568.617,150.29 568.426,150.606 C567.834,151.728 567.449,153.409 566.681,154.729 C565.973,153.791 565.249,152.849 564.519,151.909 C568.919,153.745 574.699,156.037 578.904,158.221 M578.139,158.417 C573.076,157.163 568.081,155.663 563.104,154.111 C563.652,151.824 563.476,149.317 564.48,147.189 C564.793,146.527 567.29,146.949 566.614,146.671 C593.876,159.091 633.904,178.251 629.994,215.281 C629.854,222.255 627.256,228.953 624.246,235.149 C617.992,226.785 610.642,219.296 603.646,211.541 C591.436,198.009 567.262,179.701 578.14,158.417 M286.294,170.59 C293.424,184.44 300.314,198.278 308.324,211.683 C311.946,194.505 341.859,173.968 345.544,146.933 C346.457,140.233 345.722,135.023 344.762,128.405 C344.142,124.985 342.958,121.895 341.917,118.573 C342.369,118.619 342.809,118.661 343.262,118.709 C326.812,138.486 307.787,156.349 286.294,170.589 M285.818,170.233 C304.902,151.29 325.004,133.345 343.924,114.246 C348.804,138.852 345.336,165.819 330.924,186.81 C322.529,199.036 312.588,210.134 303.946,222.187 C295.016,206.242 288.154,189.035 285.53,170.89 C285.458,170.42 285.542,170.504 285.818,170.234" id="Shape"></path>
            <path d="M429.603,87.892 C440.253,110.502 457.995,129.324 478.998,142.805 C491.865,151.72 497.53,154.122 511.531,161.008 C514.031,162.238 520.457,165.604 523.517,165.243 C530.147,164.465 531.681,160.365 537.049,157.406 C537.349,158.411 537.645,159.416 537.949,160.424 C530.183,152.541 523.576,141.328 511.977,138.298 C508.302,137.338 504.404,137.6 500.67,136.915 C493.352,134.419 492.217,133.891 485.313,130.149 C482.788,128.541 480.263,127.079 477.806,125.179 C468.766,118.664 459.066,108.966 451.13,101.221 C448.167,98.331 443.587,93.057 439.74,91.171 C436.55,89.606 432.91,89.187 429.603,87.891 M428.773,86.975 C432.253,86.789 435.795,86.481 439.226,87.085 C450.581,89.085 456.721,100.648 464.216,107.742 C473.956,116.962 487.55,127.71 499.748,133.547 C505.092,135.399 511.088,134.765 516.444,136.587 C518.856,137.407 520.63,139.527 522.48,141.281 C528.914,147.381 534.71,154.146 541.265,160.116 C536.785,163.966 533.903,169.322 527.963,171.461 C516.418,175.621 503.623,165.745 495.208,160.064 C467.91,141.64 440.953,119.334 428.986,87.498 C428.91,87.328 428.836,87.152 428.773,86.974 M569.924,309.623 C572.42,312.701 574.894,315.78 577.374,318.876 C576.804,318.661 576.214,318.439 575.649,318.223 C581.865,315.736 609.471,305.187 615.944,302.866 C629.131,297.96 641.972,293.176 654.654,288.638 C665.614,284.838 671.867,284.068 682.204,278.563 C685.734,276.683 692.044,271.9 689.289,266.817 C687.629,263.751 685.627,260.819 683.212,258.305 C680.049,255.011 676.33,252.289 672.692,249.532 C668.832,246.607 664.752,243.982 660.738,241.272 C661.871,241.039 663.016,240.802 664.145,240.572 C666.098,247.522 667.898,254.525 669.367,261.594 C651.885,255.454 634.287,249.442 616.734,243.494 C617.179,243.361 617.616,243.224 618.06,243.086 C617.767,245.389 617.513,247.724 617.218,250.076 C616.891,249.454 616.548,248.821 616.208,248.186 C629.966,258.656 644.025,268.686 658.068,278.766 C629.954,291.686 599.878,301.85 569.922,309.623 M569.05,309.048 C595.086,296.254 622.15,284.596 649.36,274.585 C649.697,276.098 650.05,277.62 650.405,279.14 C637.7,269.544 625.521,259.196 613.311,248.988 C616.641,235.598 635.547,247.978 641.215,250.012 C649.678,253.048 658.295,255.642 666.918,258.185 C666.391,258.471 665.882,258.755 665.352,259.038 C662.912,251.074 660.189,243.196 657.375,235.355 C663.815,239.343 670.515,242.982 676.49,247.635 C682.435,252.267 687.74,257.685 692.988,263.095 C698.865,269.148 698.403,275.233 692.208,281.445 C684.248,289.422 671.551,292.315 661.358,295.81 C648.228,300.193 634.533,304.372 620.476,308.47 C589.008,318.08 582.763,331.944 568.943,309.508 C568.733,309.128 568.62,309.205 569.05,309.048 M302.453,526.14 C307.411,521.336 312.43,516.59 317.321,511.844 C317.428,512.577 317.547,513.312 317.669,514.048 C297.757,508.332 277.682,501.605 258.279,494.354 C261.623,490.651 264.942,486.921 268.226,483.162 C304.866,482.828 341.398,482.83 378.036,483.436 C375.988,484.501 373.943,485.562 371.883,486.62 C372.948,484.663 374.018,482.703 375.069,480.75 C376.229,482.458 377.405,484.16 378.592,485.857 C361.422,483.15 344.585,480.372 328.199,477.32 C311.765,474.385 295.923,470.93 280.244,467.802 C264.657,464.489 249.2,461.557 233.904,458.799 C218.659,455.971 203.289,453.766 188.254,451.399 C189.724,449.759 191.184,448.122 192.644,446.475 C220.754,461.845 232.674,489.363 255.831,510.057 C258.154,511.767 260.666,513.34 263.097,515.021 C265.88,516.378 268.537,517.921 271.507,519.181 C281.565,522.357 281.044,523.071 291.431,524.737 C295.121,525.147 298.771,525.67 302.454,526.139 M302.464,527.034 C290.547,526.929 290.887,526.941 278.792,525.58 C274.978,524.97 271.469,523.96 267.848,523.062 C264.428,521.977 261.283,520.579 258.006,519.338 C255.074,517.815 252.206,516.222 249.476,514.561 C231.411,501.199 220.469,482.189 205.379,466.121 C196.264,456.414 185.209,449.673 174.615,441.841 C193.112,446.609 219.412,453.126 235.577,456.201 C250.695,459.134 266.277,461.811 282.409,464.004 C298.435,466.384 314.949,468.341 331.509,470.702 C350.251,473.232 368.981,475.852 387.709,478.49 C385.577,482.967 383.404,487.423 381.225,491.877 C343.825,492.364 306.43,491.987 269.055,490.583 C270.805,489.855 272.549,489.14 274.305,488.419 C272.525,490.279 270.727,492.121 268.933,493.987 C268.646,492.427 268.383,490.855 268.115,489.289 C286.121,496.949 304.105,504.609 322.162,512.154 C315.865,517.136 309.542,522.086 303.08,526.848 C302.748,527.114 302.902,527.053 302.465,527.038 M259.63,268.42 C259.057,261.178 258.856,253.86 259.032,246.45 C259.116,239.077 259.517,231.646 260.189,224.162 C260.659,224.908 253.409,224.377 254.849,223.427 C244.489,238.073 226.902,250.933 223.821,269.537 C222.013,284.747 229.788,301.193 244.099,307.637 C248.889,309.793 254.119,310.795 259.189,312.167 C260.537,312.53 261.942,312.623 263.319,312.835 C264.369,312.995 267.425,312.813 266.472,313.282 C265.038,313.832 268.365,310.862 269.318,309.657 C270.478,308.191 271.624,306.712 272.814,305.271 C272.584,307.173 269.956,305.213 269.826,305.125 C268.294,304.085 266.818,302.963 265.312,301.889 C260.766,298.649 255.835,295.893 251.668,292.179 C262.576,279.573 273.364,266.859 284.052,254.069 C283.825,255.855 280.202,256.724 279.155,257.243 C276.589,258.511 273.929,259.643 271.563,261.253 C268.905,263.06 266.735,265.506 264.169,267.439 C262.932,268.372 259.704,269.969 259.629,268.422 M260.475,267.464 C267.815,261.087 275.31,254.891 282.682,248.554 C284.882,250.427 287.062,252.322 289.269,254.189 C279.809,267.406 269.602,280.296 258.866,292.505 C259.108,290.835 261.378,292.65 261.476,292.723 C262.776,293.701 264.046,294.723 265.296,295.768 C269.27,299.092 273.434,302.212 277.146,305.828 C276.224,306.768 268.976,314.528 267.446,315.81 C267.62,317.36 264.288,316.3 262.763,315.964 C261.097,315.596 259.423,315.266 257.769,314.836 C247.367,312.121 237.402,310.211 228.429,303.726 C222.223,299.779 217.424,293.043 216.283,285.706 C209.203,258.281 238.956,236.326 252.679,217.552 C262.949,218.712 267.467,214.336 266.513,221.112 C265.411,228.855 264.376,236.627 263.346,244.459 C262.428,252.054 261.466,259.726 260.476,267.466 M556.078,316.283 C556.183,312.711 556.368,309.183 556.478,305.656 C556.888,306.238 557.275,306.824 557.67,307.416 C514.996,291.149 474.18,269.23 437.362,242.216 C438.535,241.976 439.746,241.719 440.926,241.466 C434.561,251.56 425.794,262.942 418.796,272.548 C418.606,271.838 418.406,271.14 418.216,270.438 C428.23,274.595 438.746,278.333 449.746,281.438 C485.583,291.942 521.012,303.368 556.078,316.283 M556.491,317.209 C506.598,308.106 462.906,289.465 415.785,272.414 C423.797,260.374 430.629,247.989 437.51,235.294 C466.148,253.724 495.87,270.444 525.617,287.031 C534.867,292.187 544.852,295.903 554.407,300.471 C556.62,301.529 560.557,303.043 559.672,306.714 C558.844,310.132 558.018,313.574 556.986,316.971 C556.81,317.369 556.786,317.276 556.491,317.208 M548.368,360.29 C547.038,365.24 545.26,370.12 542.838,374.638 C540.324,379.334 537.112,383.664 533.666,387.728 C517.09,407.276 492.374,384.625 478.944,373.418 C472.777,368.27 466.319,360.625 457.344,360.742 C458.566,359.107 459.758,357.472 460.938,355.838 C461.943,358.281 462.662,360.805 463.873,363.23 C473.789,379.467 486.727,390.594 502.983,400.346 C532.076,415.774 562.656,419.396 594.831,415.314 C594.179,416.996 593.515,418.692 592.857,420.374 C580.701,406.454 568.34,390.544 557.75,375 C554.573,370.108 551.322,365.257 548.368,360.29 M548.605,359.03 C553.125,363.714 557.35,368.54 561.837,373.304 C576.29,389.191 590.459,405.331 604.691,421.416 C579.306,425.091 555.301,422.966 530.918,414.56 C523.922,412.378 517.183,409.87 510.591,407.256 C488.446,397.683 469.326,386.716 455.796,366.236 C455.503,365.678 451.322,355.756 450.298,353.333 C474.508,350.79 480.06,365.297 499.695,379.62 C513.605,389.766 526.303,389.135 536.725,375.42 C540.838,370.005 544.448,364.222 548.071,358.47 C548.241,358.658 548.409,358.843 548.606,359.03 M763.67,464.182 C765.11,473.322 764.843,475.382 764.45,483.335 C763.628,488.787 761.962,494.173 759.57,499.14 C752.81,513.175 734.957,517.117 721,513.855 C709.17,511.088 694.708,502.162 682.212,509.207 C682.639,507.154 683.062,505.1 683.462,503.054 C685.344,504.75 687.004,506.658 689.049,508.24 C704.703,518.09 720.634,521.485 738.999,522.338 C772.179,521.808 800.817,509.661 827.377,490.715 C827.48,492.54 827.555,494.382 827.637,496.213 C810.987,489.633 793.807,481.573 777.987,472.758 C773.152,469.941 768.304,467.188 763.667,464.182 M763.375,462.947 C769.327,464.922 775.045,467.175 780.969,469.237 C800.274,476.417 819.469,483.883 838.666,491.343 C817.804,506.793 795.471,516.846 769.748,521.369 C762.6,522.836 755.548,523.901 748.603,524.795 C725.281,526.987 703.736,526.897 683.007,514.882 C682.214,514.308 674.942,507.816 672.907,506.025 C684.132,498.375 698.47,499.122 711.205,501.245 C722.015,503.048 733.732,510.69 745.053,505.651 C755.953,500.801 758.978,486.988 760.718,476.741 C761.232,473.711 760.625,470.595 760.675,467.523 C760.687,466.837 760.422,461.896 763.375,462.946 M480.785,418.992 C477.933,427.038 470.785,443.769 467.548,451.322 C462.798,461.499 457.863,472.799 459.068,484.392 C459.934,492.699 466.718,498.762 473.131,503.182 C490.318,515.025 511.244,519.738 530.909,525.392 C529.909,526.008 528.917,526.629 527.922,527.242 C523.932,518.026 519.505,508.932 514.238,500.024 C499.788,474.944 498.001,472.656 488.34,445.624 C485.293,436.849 482.824,427.976 480.787,418.992 M481.375,417.222 C486.685,425.982 491.57,434.858 496.135,443.842 C509.57,470.695 508.953,470.715 519.46,498.879 C521.668,505.033 528.527,519.999 533.9,529.243 C523.82,526.967 513.714,524.801 503.696,522.263 C480.921,516.871 443.24,506.573 447.256,475.669 C447.676,472.435 448.79,469.285 450.184,466.336 C457.346,448.229 469.608,432.073 480.908,416.452 C481.055,416.706 481.214,416.965 481.375,417.222 M64.61,477.747 C67.11,479.859 69.55,482.027 72.034,484.181 L69.957,484.207 C98.189,469.087 126.452,454.083 154.559,438.721 C167.999,431.321 181.127,424.044 193.957,416.901 C206.807,409.795 219.293,402.703 231.401,395.614 C231.254,397.604 231.105,399.599 230.971,401.594 C224.144,400.342 217.388,399.094 210.704,397.82 C190.808,393.75 172.904,389.636 152.348,386.472 C153.064,385.705 153.773,384.938 154.488,384.177 C162.313,390.727 169.448,394.927 174.673,404.107 C181.033,415.282 170.155,426.743 161.773,432.353 C144.143,444.148 127.657,448.583 108.13,456.098 C104.572,457.684 100.994,459.278 97.395,460.871 C93.795,462.721 90.167,464.586 86.515,466.437 C79.33,470.252 72.095,474.127 64.607,477.747 M63.159,477.827 C70.482,473.247 77.699,468.669 84.815,464.094 C88.465,461.934 92.079,459.779 95.679,457.607 C99.479,455.647 103.279,453.692 107.115,451.787 C124.71,443.731 153.301,436.771 165.907,420.637 C177.257,406.834 157.337,391.05 147.962,382.824 C169.868,387.014 191.946,389.781 214.09,392.242 C223.584,393.448 233.085,394.584 242.583,395.739 C227.641,405.029 212.575,414.127 197.361,422.969 C184.594,430.315 171.381,437.555 157.728,444.653 C128.835,459.825 99.226,473.831 69.28,486.813 C69.12,486.583 68.965,486.363 68.802,486.133 C66.889,483.486 65.026,480.815 63.332,478.093 C63.272,478.003 63.218,477.919 63.16,477.829 M249.5,388.51 C260.315,386.43 271.013,384.737 281.57,383.236 C292.04,381.614 302.563,380.376 313.057,378.929 C318.314,378.079 323.614,377.054 328.867,376.172 C343.73,374.429 359.095,365.74 372.639,360.22 C371.824,361.907 371.003,363.604 370.177,365.296 C368.477,361.346 366.907,357.348 365.433,353.328 C366.407,353.834 367.395,354.342 368.379,354.844 C344.433,355.818 328.749,356.024 305.009,360.036 C283.559,363.393 262.799,365.786 240.991,366.786 C242.419,365.226 243.826,363.666 245.233,362.108 C246.651,369.91 248.63,380.622 249.499,388.51 M248.579,389.213 C246.406,385.393 244.725,381.383 242.949,377.448 C240.634,371.855 238.966,366.914 237.234,361.375 C260.168,358.362 282.624,356.447 305.674,355.801 C316.164,355.624 326.73,355.355 337.064,353.554 C346.708,351.874 360.089,340.562 370.442,348.584 C375.548,352.54 376.525,359.654 379.35,364.856 C356.952,375.57 337.495,384.103 312.703,387.286 C307.253,387.702 301.801,388.112 296.353,388.516 C285.213,389.063 275.758,389.236 264.613,389.483 C259.39,389.459 254.133,389.573 248.956,389.413 C248.611,389.398 248.746,389.478 248.579,389.213 M406.786,465.726 C409.408,463.812 417.938,457.879 420.468,456.198 C419.978,456.836 419.488,457.491 418.98,458.143 C417.987,436.48 415.874,413.868 421.633,392.553 C423.18,386.831 429.563,379.276 425.308,372.873 C425.568,373.138 425.808,373.658 426.17,373.575 C423.26,372.121 418.894,372.545 415.864,372.869 C410.547,373.435 405.184,373.769 399.937,374.806 C389.392,376.893 381.765,385.566 374.729,392.839 C372.279,395.372 368.145,399.539 369.897,403.699 C369.584,402.519 371.573,405.499 372.205,406.544 C374.031,409.571 375.482,412.814 377.245,415.878 C379.621,419.998 382.319,423.931 384.619,428.096 C387.065,432.186 389.609,436.351 392.377,440.468 C397.5,448.618 402.592,456.92 406.785,465.724 M405.891,466.879 C397.297,459.956 390.244,452.429 383.546,444.813 C377.566,437.651 370.306,428.893 367.096,420.173 C365.271,415.633 363.816,410.981 362.493,406.356 C362.31,405.752 362.376,405.906 362.223,405.381 L362.223,405.264 C362.223,399.49 367.255,393.872 371.336,390.644 C384.426,380.294 398.639,369.784 415.289,366.007 C424.317,363.959 437.351,368.042 436.719,379.424 C436.031,386.539 434.247,393.304 433.673,400.457 C432.857,418.897 429.94,440.277 425.529,458.194 C425.412,458.687 425.297,459.166 425.173,459.652 C418.963,462.368 412.613,464.738 406.303,467.206 C406.167,467.103 406.033,466.988 405.891,466.88 M413.992,482.634 C411.39,485.107 408.627,487.47 405.882,489.877 C406.147,489.381 406.406,488.857 406.659,488.343 C409.813,496.573 412.509,504.9 415.099,513.263 C418.239,523.766 421.809,533.977 423.359,544.896 C424.186,550.702 422.416,558.23 424.481,563.963 C425.711,565.8 425.353,565.913 426.753,567.511 C426.263,566.981 428.169,567.071 428.889,567.138 C430.663,567.304 432.349,568.11 434.129,568.198 C438.789,568.436 448.354,567.676 452.903,566.546 C460.873,565.566 465.79,557.552 469.35,551.434 C470.48,549.489 471.6,545.042 470.278,542.832 C470.172,542.557 469.461,541.758 469.335,541.654 C449.21,523.939 428.101,505.796 413.992,482.636 M414.616,481.612 C427.836,491.086 448.686,509.18 459.852,521.052 C465.774,526.917 473.017,532.937 475.208,541.466 C476.816,547.728 472.808,554.046 468.936,558.464 C460.096,568.558 446.674,573.111 433.656,574.208 C424.306,574.718 417.868,574.694 413.188,566.746 C410.936,561.658 411.444,557.114 411.073,552.913 C410.376,540.833 405.665,526.109 404.18,515.067 C403.12,506.461 402.278,497.837 402.027,489.117 C401.971,485.03 411.769,479.467 414.617,481.613 M462.752,183.314 C452.768,181.516 444.072,179.657 436.218,172.984 C436.081,172.866 435.942,172.744 435.8,172.63 C429.085,165.48 432.3,154.36 432.665,146.03 C432.945,139.62 433.185,133.197 433.025,126.782 C434.493,128.342 435.991,129.886 437.523,131.445 C429.99,141.305 426.127,152.558 425.186,165.03 C424.998,167.148 424.68,169.208 424.556,171.398 C424.226,175.716 424.008,180.138 423.716,184.581 C423.59,186.821 423.492,189.053 423.27,191.293 C422.733,200.535 420.726,208.711 416.565,216.955 C415.338,218.707 413.935,220.31 412.555,222.01 C411.865,220.597 411.189,219.194 410.515,217.79 C427.168,205.257 444.191,192.92 462.752,183.314 M464.167,183.49 C446.337,204.46 421.44,217.623 397.372,229.96 C403.087,224.807 408.982,219.813 414.247,214.2 C417.685,208.82 420.131,203.883 420.773,197.372 C421.96,188.752 421.393,179.684 421.463,170.602 C420.92,149.688 427.046,135.115 437.589,117.922 C438.309,128.735 438.814,137.192 438.086,148.559 C437.93,151.727 437.756,154.891 437.53,158.059 C437.206,165.869 442.716,171.731 448.822,175.853 C451.378,177.579 454.434,178.42 457.305,179.543 C459.763,180.503 465.885,181.488 464.167,183.489 M154.743,263.07 C151.708,264.633 148.727,266.05 145.731,267.506 C117.286,283.262 91.316,300.316 73.828,328.306 C70.782,334.186 68.38,339.613 66.366,345.851 C65.098,349.694 72.199,349.699 73.616,349.967 C78.53,350.899 83.541,351.457 88.333,352.892 C87.763,353.038 87.193,353.194 86.611,353.347 C91.505,350.562 96.336,347.745 101.101,344.852 C100.661,345.396 100.235,345.942 99.801,346.484 C100.118,342.186 100.308,337.991 100.419,333.856 C100.299,320.116 101.529,307.188 104.932,293.844 C121.475,283.244 138.012,272.506 154.855,262.382 C154.815,262.615 154.782,262.846 154.745,263.072 M154.941,262.962 C140.951,274.494 123.911,286.768 108.856,296.822 C110.099,295.322 111.34,293.812 112.576,292.302 C109.484,309.802 103.861,327.247 102.893,345.047 C102.871,345.337 102.867,345.633 102.845,345.924 C87.57,355.394 86.518,354.217 68.93,355.468 C66.008,355.676 58.614,356.595 57.48,351.984 C55.52,344.016 61.4,336.994 64.576,330.454 C77.136,309.028 96.3,290.81 117.962,278.587 C129.874,271.181 142.726,265.867 156.152,261.957 C155.754,262.292 155.342,262.624 154.939,262.962 M194.647,317.588 C179.447,339.983 162.077,361.385 143.679,381.16 C142.576,379.305 141.499,377.44 140.445,375.59 C174.578,364.693 209.305,355.608 241.962,340.7 C241.352,342.282 240.738,343.862 240.126,345.45 C223.609,339.745 206.546,330.712 194.646,317.588 M195.071,316.533 C214.301,322.113 231.811,332.366 248.205,343.57 C207.022,356.32 167.687,373.85 127.085,388.338 C144.572,369.418 162.865,351.234 179.831,331.845 C183.361,327.809 186.043,313.779 195.071,316.533 M561.202,220.944 C564.582,219.784 572.38,217.634 575.806,216.771 C575.62,217.714 575.401,218.663 575.213,219.604 C567.301,207.864 561.775,195.646 551.823,185.642 C551.819,185.638 551.848,185.658 551.843,185.652 C552.119,185.85 552.603,186.178 552.813,186.482 C549.979,185.364 546.729,185.877 543.683,186.002 C534.848,186.364 525.963,186.579 517.226,187.944 C504.026,189.55 490.879,190.136 477.798,192.721 C478.018,192.488 478.202,192.251 478.405,192.014 C478.055,194.244 477.689,196.478 477.29,198.709 C476.792,197.954 476.303,197.194 475.814,196.434 C492.184,197.889 508.587,198.924 524.967,200.274 C529.257,200.627 539.829,201.441 543.792,203.626 C551.857,208.073 555.022,214.604 561.202,220.946 M561.069,221.752 C554.572,217.318 548.434,212.614 542.456,207.817 C543.141,208.145 543.826,208.489 544.502,208.824 C519.815,208.334 499.102,203.177 474.406,199.17 C474.75,197.587 474.453,191.32 476.283,190.043 C479.053,188.113 492.087,185.49 495.18,184.703 C516.374,179.308 516.775,177.835 538.702,176.183 C544.282,175.763 550.619,176.671 555.162,180.347 C554.882,180.067 555.732,180.894 556.007,181.18 C557.243,182.472 558.551,183.7 559.689,185.077 C561.694,187.507 563.844,189.867 565.421,192.591 C570.961,202.157 575.821,212.099 580.991,221.868 C574.518,222.046 567.984,222.2 561.513,221.918 C561.213,221.918 561.363,221.925 561.068,221.754 M172.21,519.042 C174.515,514.332 173.53,513.786 177.04,509.732 C185.304,500.188 201.157,506.236 211.046,506.652 C216.8,507.12 224.226,505.842 228.694,510.772 C231.864,514.27 228.342,519.802 226.529,522.672 C216.639,538.329 203.929,551.87 192.301,566.189 C192.157,566.356 192.014,566.535 191.876,566.716 C187.699,567.429 183.586,568.496 179.446,569.408 C180.059,562.036 179.812,554.581 180.934,547.272 C182.101,540.302 183.87,533.269 185.964,526.192 C186.302,526.74 186.637,527.279 186.971,527.824 C181.761,525.232 176.774,522.508 172.286,519.397 C172.036,519.213 172.054,519.327 172.21,519.039 M173.25,518.897 C179.317,520.241 185.252,522.121 191.222,523.843 C192.385,524.178 192.332,524.349 192.242,525.47 C191.642,532.38 190.792,539.313 189.384,546.325 C187.886,553.345 185.164,560.495 183.249,567.565 C182.625,567.253 182.009,566.933 181.379,566.618 C184.581,566.133 187.775,565.578 190.957,564.978 C190.544,565.214 190.127,565.442 189.705,565.668 C198.113,555.78 205.921,544.448 212.002,532.96 C213.478,530.387 215.03,527.85 216.33,525.185 C217.626,522.527 218.706,519.768 219.774,517.01 C220.094,516.183 220.462,514.8 219.016,514.51 C215.266,513.753 211.443,513.425 207.636,513.053 C198.044,512.115 188.406,511.668 178.83,510.579 C179.805,510.129 180.78,509.685 181.75,509.245 C179.056,512.485 176.22,515.701 173.25,518.899 M562.643,335.995 C561.94,338.06 561.148,340.073 560.331,342.082 C560.189,341.522 560.039,340.965 559.886,340.402 C568.374,346.325 576.768,352.496 585.349,358.682 C593.926,365.136 602.593,371.162 611.113,377.7 C609.58,377.17 608.043,376.652 606.536,376.128 C628.303,376.4 650.304,377.818 672.018,379.202 C671.361,379.572 670.711,379.932 670.078,380.297 C671.432,376.897 672.744,373.5 673.748,370.027 C674.274,370.611 674.804,371.191 675.328,371.777 C665.208,368.769 655.225,366.091 645.311,363.935 C616.918,357.395 588.797,349.115 562.644,335.995 M562.409,335.065 C590.959,340.879 618.529,350.395 645.886,360.193 C655.613,363.813 665.709,366.353 675.626,369.417 C676.783,369.775 677.528,369.48 677.226,371.169 C676.542,374.745 676.026,378.399 675.474,382.061 C675.434,382.401 675.398,382.735 675.337,383.067 C656.937,384.107 638.547,385.252 620.142,386.153 C616.78,386.317 609.355,386.371 606.195,384.651 C601.193,381.929 596.678,378.361 592.258,374.771 C587.838,371.179 584.045,366.871 579.738,363.151 C571.805,356.096 564.085,348.781 556.788,341.076 C558.515,339.116 559.982,334.564 562.41,335.066 M372.984,256.643 C375.522,251.698 378.088,246.876 380.641,242.127 C380.604,243.152 380.555,244.172 380.511,245.2 C375.188,238.278 370.451,231.12 366.301,223.702 C362.051,216.385 358.688,208.524 355.595,200.697 C356.641,201.057 357.685,201.409 358.745,201.761 C347.423,207.836 335.363,212.281 323.965,218.187 C324.177,217.447 324.395,216.697 324.609,215.955 C331.974,222.853 340.919,227.65 348.713,234.025 C356.653,240.859 364.936,248.035 372.985,256.645 M372.835,257.633 C362.168,253.138 352.945,247.043 344.575,240.543 C336.083,233.58 329.613,224.663 321.911,216.899 C335.021,209.954 346.876,201.129 359.524,193.409 C363.518,201.749 367.968,209.862 372.022,218.172 C376.335,226.672 380.599,235.197 384.89,243.709 C381.208,248.447 377.39,253.092 373.32,257.505 C373.105,257.739 373.194,257.772 372.837,257.635" id="Shape"></path>
            <path d="M185.458,289.544 C173.55,265.219 200.628,244.868 217.995,233.434 C220.771,231.607 223.78,230.156 226.711,228.589 C225.731,231.289 224.751,234.003 223.786,236.709 C210.533,235.521 209.7,235.707 196.75,233.469 C197.548,233.035 198.346,232.593 199.14,232.159 C181.04,249.799 163.522,268.131 145.365,285.687 C145.759,283.957 146.155,282.225 146.567,280.492 C159.327,281.448 173.751,284.879 185.457,289.542 M186.07,290.799 C170.127,291.869 152.867,290.604 137.228,286.824 C155.383,270.929 167.644,260.871 184.658,243.719 C189.14,239.203 192.656,232.075 198.542,228.869 C200.824,227.626 203.625,227.604 206.224,227.549 C217.328,227.316 228.434,228.027 239.541,228.007 C221.941,238.582 201.537,248.19 190.236,266.452 C188.034,270.01 187.156,278.436 186.766,282.389 C186.47,285.162 186.853,287.967 186.77,290.753 C186.535,290.77 186.303,290.783 186.07,290.799 M415.322,182.91 C396.282,173.978 379.192,161.71 364.458,146.75 C365.416,146.475 366.368,146.198 367.318,145.93 C362.678,152.434 357.712,158.91 352.288,165.125 C352.348,163.638 352.408,162.165 352.466,160.683 C359.116,166.516 365.639,171.677 373.429,176.093 C382.939,181.237 393.089,185.128 402.625,190.223 C397.657,195.643 397.681,195.551 391.295,201.66 C390.51,199.64 389.747,197.62 388.995,195.607 C397.112,191.204 406.635,186.249 415.321,182.911 M367.864,215.684 C382.37,202.517 396.157,192.638 396.33,194.764 C387.637,190.194 380.016,183.817 372.51,178.674 C364.608,173.48 356.437,169.232 348.21,164.66 C354.262,155.962 360.287,147.24 366.066,138.355 C371.846,143.775 377.429,149.421 383.5,154.511 C393.667,163.041 397.19,163.489 408.306,170.551 C410.963,172.239 421.828,178.341 416.353,183.321 C402.263,196.456 384.359,206.184 367.864,215.684 Z M608.625,330.032 C612.67,324.28 621.14,325.95 626.235,328.879 C636.49,334.772 645.049,346.754 658.202,346.759 C667.969,346.762 671.389,334.809 677.352,329.802 C679.465,328.429 681.736,327.268 683.902,326.002 C686.226,324.94 688.53,323.882 690.832,322.826 C700.184,319.102 709.777,316.276 719.072,312.424 C719.328,313.234 719.589,314.024 719.854,314.834 C716.332,312.209 712.719,309.654 709.166,307.099 C709.804,307.266 710.454,307.435 711.091,307.603 C702.761,309.396 694.723,311.567 687.081,314.315 C661.314,322.975 635.174,328.465 608.061,330.818 C608.235,330.554 608.441,330.29 608.626,330.03 M608.764,329.948 C632.767,319.995 658.142,314.432 683.701,310.432 C693.681,309.037 704.653,304.494 714.721,308.762 C718.139,310.214 721.174,312.442 724.351,314.368 C713.751,321.098 702.731,326.675 691.688,332.596 C689.851,333.876 687.842,335.074 686.076,336.41 C678.333,344.224 664.713,358.262 651.374,352.958 C638.208,347.722 626.444,319.788 609.454,330.638 C609.214,330.408 609.001,330.178 608.764,329.948 M437.967,300.774 C417.89,295.298 398.752,286.734 380.949,276.014 C382.769,274.888 384.589,273.759 386.399,272.63 C383.622,289.997 378.189,306.946 376.392,324.46 L374.552,323.007 C380.068,320.797 385.246,317.807 390.742,315.557 C405.999,309.31 421.654,303.575 437.966,300.774 M439.699,301.221 C419.029,314.491 395.959,319.495 372.919,326.481 C377.545,306.877 377.632,286.308 379.912,266.347 C400.842,277.242 419.87,288.705 440.278,300.853 C440.082,300.978 439.878,301.106 439.698,301.223 M164.44,331.713 C152.493,327.188 141.976,320.181 132.99,311.163 C134.94,310.279 136.894,309.393 138.83,308.513 C133.707,315.393 128.297,322.263 122.563,329.103 C116.928,335.963 111.388,342.831 106.651,349.763 C106.417,349.37 106.181,348.973 105.955,348.576 C125.327,342.126 144.091,334.704 164.44,331.713 M165.53,332.093 C146.09,341.163 125.873,345.756 105.195,350.793 C105.14,350.809 105.085,350.819 105.03,350.833 C103.47,351.203 104.188,350.037 104.496,349.598 C109.402,342.648 114.689,335.963 119.354,328.85 C123.887,321.803 128.637,314.893 133.502,308.07 C134.312,306.937 136.72,304.77 138.406,305.075 C141.192,305.579 144.286,308.725 146.256,310.425 C151.843,315.247 157.509,319.982 163.021,324.891 C164.459,326.171 168.723,329.651 165.696,331.989 C165.651,332.032 165.58,332.072 165.53,332.094 M700.46,420.275 C676.663,417.001 653.604,411.388 630.68,404.475 C632.277,403.542 633.86,402.633 635.458,401.705 C637.135,408.172 638.388,414.659 639.198,421.155 C640.128,427.647 641.232,434.151 643.505,440.658 C642.685,440.328 641.877,439.988 641.049,439.656 C660.774,431.952 679.389,423.936 700.459,420.276 M702.443,420.533 C683.993,431.703 663.267,436.05 642.8,441.68 C642.757,441.696 642.704,441.713 642.647,441.73 C641.902,441.928 640.961,441.65 640.543,441.1 C640.433,440.966 640.373,440.817 640.345,440.682 C639.305,434.154 636.993,427.662 634.412,421.167 C633.112,418.047 619.967,400.004 632.358,398.621 C633.64,398.481 634.965,398.683 636.208,399.031 C640.651,400.269 644.938,402.013 649.35,403.361 C655.12,405.128 660.99,406.563 666.747,408.371 C678.613,412.098 690.442,415.956 702.217,419.968 C702.409,420.034 702.62,420.432 702.444,420.534 M334.98,109.9 C328.308,104.437 324.007,96.784 321.24,88.747 C322.218,87.912 323.188,87.077 324.144,86.247 C323.162,88.477 306.23,124.444 305.3,126.633 C305.212,126.237 305.123,125.835 305.03,125.438 C314.732,119.678 323.792,112.66 334.98,109.9 M335.506,110.308 C326.159,118.518 315.696,122.812 304.491,127.631 C304.461,127.644 304.436,127.654 304.407,127.671 C304.023,127.827 304.062,126.825 304.217,126.441 C307.021,119.568 310.367,112.926 313.213,106.071 C316.453,98.276 318.343,89.891 323.507,83.024 C324.875,81.206 326.043,85.511 326.119,85.699 C327.439,88.897 328.594,92.169 330.099,95.283 C332.985,101.243 334.202,100.753 336.646,106.953 C337.119,108.149 336.459,109.596 335.506,110.309" id="Shape"></path>
            <path d="M653.486,472.203 C657.623,473.046 661.68,473.985 665.731,474.908 C669.808,475.618 673.901,476.045 677.914,476.692 C681.904,476.97 685.884,477.152 689.774,477.292 C703.952,476.325 714.494,473.515 725.224,463.492 C728.154,458.378 731.316,454.755 732.364,448.732 C736.062,427.5 731.104,405.978 724.344,385.924 C725.861,386.399 727.387,386.874 728.894,387.349 C708.784,411.104 736.974,450.961 707.872,470.172 C704.932,472.114 701.459,473.175 698.064,474.116 C692.064,475.776 681.974,476.676 675.778,476.149 C668.258,475.511 660.746,474.555 653.34,473.097 C653.395,472.791 653.45,472.5 653.488,472.202 M653.298,472.142 C659.175,471.907 665.075,471.994 670.928,471.412 C676.89,470.819 682.848,469.962 688.688,468.622 C712.601,463.142 714.225,433.72 716.366,414.185 C717.626,401.07 719.801,391.883 726.609,380.968 C733.595,395.134 740.243,408.978 744.354,424.288 C747.748,441.46 746.699,455.578 736.596,470.128 C724.076,482.82 707.701,484.062 690.946,483.786 C686.463,483.194 682.028,482.52 677.706,481.623 C673.4,480.433 669.124,479.313 665.049,477.9 C660.435,476.087 655.829,474.247 651.299,472.235 C651.959,472.205 652.616,472.177 653.299,472.142 M251.028,402.372 C255.316,411.93 259.506,419.197 267.148,426.412 C274.265,429.777 277.828,430.415 285.748,430.984 C296.67,429.994 306.566,427.116 316.881,423.497 C327.289,419.324 337.847,415.357 347.771,410.077 C347.901,410.962 348.044,411.842 348.178,412.73 C339.788,411.644 331.363,410.93 322.728,410.89 C298.51,410.574 296.414,411.002 272.781,407.275 C265.293,405.97 257.951,404.478 251.029,402.372 M250.364,401.238 C258.997,400.644 267.28,400.773 275.551,401.058 C301.881,402.305 327.228,408.742 353.541,409.973 C331.465,423.475 310.166,437.743 283.635,440.02 C273.811,439.586 267.222,438.486 259.32,432.753 C250.942,423.003 252.272,420.561 249.63,408.519 C249.378,407.369 246.83,401.501 250.363,401.237 M94.133,377.475 C85.911,387.818 74.428,398.75 70.956,411.881 C67.198,425.229 87.093,429.233 96.316,430.116 C107.682,431.851 114.182,432.65 125.791,432.923 C124.981,433.733 124.169,434.546 123.353,435.355 C120.475,430.363 117.259,425.673 113.4,421.448 C109.698,417.136 105.846,412.988 103.26,408.186 C97.932,399.188 94.624,387.904 94.133,377.476 M95.083,376.102 C101.747,383.197 108.259,393.65 112.453,402.682 C114.958,407.532 116.523,413.042 118.563,418.359 C120.793,424.785 124.437,430.273 128.53,435.626 C111.003,436.069 93.256,438.571 75.802,435.426 C70.409,434.454 60.23,432.643 59.552,425.108 C59.316,424.04 59.092,422.968 58.876,421.908 C58.612,417.845 60.326,414.322 61.899,410.73 C70.655,397.252 81.849,386.428 94.247,376.275 L94.807,375.81 C94.901,375.906 94.997,376.004 95.082,376.103 M762.59,400.246 C761.99,406.136 761.2,411.984 760.8,417.896 C760.464,421.511 760.65,425.169 760.957,428.788 C761.077,430.225 761.497,431.646 762.072,432.968 C766.642,443.498 780.749,439.558 788.962,437.11 C791.774,436.272 794.594,435.44 797.334,434.386 C797.17,435.166 797.001,435.954 796.832,436.741 C792.449,432.461 786.694,429.096 781.988,425.233 C773.768,418.483 767.158,409.837 762.588,400.247 M762.638,399.017 C769.346,403.354 775.154,408.987 780.468,414.89 C786.77,421.885 792.06,430.027 799.674,435.778 C795.999,437.415 792.571,439.558 788.976,441.362 C780.468,445.628 767.831,451.788 759.684,443.339 C758.379,441.986 757.904,440.059 757.304,438.367 C754.699,429.744 756.987,420.557 758.719,412.077 C759.194,409.743 759.962,407.477 760.469,405.149 C760.786,403.699 760.859,402.202 761.186,400.755 C761.352,400.018 762.078,398.505 762.636,399.015 M559.85,163.464 C555.777,153.968 553.798,148.194 548.495,139.217 C537.945,121.355 516.34,111.817 497.012,107.397 C496.875,106.714 496.719,106.023 496.582,105.332 C508.955,118.567 513.837,121.152 527.227,133.272 C538.213,143.215 549.251,153.109 559.85,163.464 M560.452,164.698 C534.972,148.26 514.819,126.252 493.96,104.591 C498.317,105.231 506.852,105.298 511.15,106.491 C526.96,110.871 540.67,121.403 549.956,134.801 C554.094,140.771 556.561,146.921 558.871,153.751 C559.529,155.694 559.979,157.701 560.428,159.701 C560.711,160.961 561.058,162.229 561.066,163.518 C561.068,163.961 560.831,164.931 560.453,164.698 M416.73,318.788 C418.266,327.281 418.792,333.632 419.297,342.264 C417.949,341.036 416.624,339.799 415.297,338.572 C435.334,336.334 455.277,336.637 475.367,337.685 C474.744,338.385 474.112,339.081 473.489,339.785 C473.324,334.36 473.612,326.815 471.594,321.422 C471.559,321.272 471.764,321.022 471.621,320.958 C471.493,320.911 472.344,321.128 471.755,321.128 C453.453,322.566 434.77,323.193 416.728,318.788 M416.251,317.866 C432.026,314.189 448.436,315.953 464.371,316.782 C466.101,316.874 471.471,317.104 473.025,318.235 C475.783,321.823 475.17,326.305 475.9,330.372 C476.558,334.037 477.32,337.69 478.302,341.28 C455.764,344.466 433.645,346.482 410.852,345.812 C412.004,337.729 413.467,329.692 414.767,321.63 C414.879,320.926 414.997,318.12 416.25,317.866 M369.575,90.937 C371.795,96.043 373.949,101.593 376.192,107.342 C375.385,107.122 374.564,106.908 373.76,106.692 C380.83,96.572 388.4,86.874 395.937,77.105 C395.897,78.097 395.869,79.088 395.837,80.078 C394.682,76.672 392.431,69.454 390.901,66.053 C390.758,65.767 390.847,65.153 390.529,65.17 L390.744,65.005 C390.519,65.365 390.329,65.76 390.118,66.125 C385.018,75.428 378.461,84.831 369.576,90.937 M369.192,90.461 C375.085,80.061 381.926,70.681 390.195,62.115 C390.281,62.045 390.371,61.985 390.462,61.925 L390.472,61.925 C391.252,62.12 391.509,63.49 391.722,64.025 C393.489,68.483 395.504,72.847 397.072,77.381 C397.345,78.169 397.492,79.099 397.208,79.884 C397.1,80.154 397.118,80.086 396.998,80.35 C391.298,92.125 384.348,103.21 375.328,112.754 C375.233,112.854 375.138,112.952 375.046,113.052 C373.906,114.238 373.073,113.052 372.831,112.117 C371.086,105.414 369.761,97.967 369.071,91.077 C369.051,90.877 369.101,90.619 369.191,90.461 M605.948,250.378 C600.698,246.48 595.615,242.5 590.678,238.441 C591.748,238.758 592.82,239.078 593.888,239.391 C573.671,254.203 550.498,264.009 526.968,272.161 C526.634,270.897 526.301,269.628 525.978,268.368 C538.898,274.501 538.478,275.238 551.87,280.348 C552.828,280.714 553.87,280.856 554.895,280.903 C555.503,280.933 557.255,280.346 556.691,280.57 C570.481,268.834 589.339,257.098 605.949,250.378 M607.035,250.896 C595.303,267.174 577.635,276.523 559.487,283.599 C559.37,283.642 559.25,283.686 559.127,283.729 C551.529,286.609 544.465,279.739 538.303,277.075 C532.545,274.587 526.6,272.535 520.643,270.568 C543.597,256.954 566.546,243.768 591.711,234.506 C596.441,239.431 609.513,247.376 607.035,250.894 M424.44,85.19 C425.047,85.9 425.812,86.375 425.3,87.11 C412.63,105.46 393.27,120.056 373.697,130.34 C373.7,128.67 373.704,126.993 373.714,125.32 C390.637,128.226 410.424,126.255 419.622,109.754 C421.502,104.064 422.884,98.004 423.525,92.042 C423.703,90.4 423.455,88.736 423.537,87.088 C423.571,86.388 423.999,84.648 424.441,85.19 M424.621,86.316 C424.935,90.719 425.271,96.036 424.947,100.43 C424.73,104.017 424.733,103.91 424.219,107.526 C423.941,109.926 423.239,111.978 422.649,114.156 C420.083,119.914 417.524,123.216 412.363,126.746 C405.355,129.273 397.725,128.689 390.453,129.202 C382.395,129.769 374.341,130.409 366.303,131.212 C385.273,115.712 403.726,98.49 424.893,85.948 C424.869,86.388 424.828,86.661 424.62,86.316 M391.87,15.744 C390.995,23.152 389.95,29.499 388.46,36.816 C388.36,35.29 388.272,33.766 388.19,32.232 C396.744,43.698 405.117,55.452 414.405,66.334 C414.081,66.57 413.76,66.808 413.431,67.049 C414.375,62.284 415.037,57.362 415.433,52.273 C415.579,52.855 415.728,53.436 415.87,54.023 C409.628,46.448 407.258,45.541 401.882,37.245 C397.819,30.973 394.085,22.875 391.869,15.743 M391.885,14.77 C401.402,27.306 399.861,28.423 408.877,41.305 C411.455,44.987 416.967,48.275 416.455,53.615 C416.007,58.608 415.56,63.805 415.123,69.168 C415.078,69.642 415.043,70.118 415.001,70.595 C402.944,60.44 393.236,50.151 386.079,36.023 C387.272,32.028 388.499,28.037 389.412,23.971 C389.912,21.756 389.908,19.454 390.312,17.218 C390.482,16.263 391.36,13.954 391.885,14.772 M291.82,98.88 C289.427,104.142 286.913,109.353 284.687,114.69 C282.082,120.935 279.081,128.105 280.415,135.107 C281.145,138.927 282.592,143.42 286.602,144.984 C293.042,147.494 295.432,147.654 302.282,148.104 C301.735,149.082 301.195,150.061 300.637,151.046 C298.36,142.126 295.207,136.654 292.481,127.892 C289.579,118.552 290.281,108.362 291.821,98.88 M292.545,97.22 C298.437,114.722 295.713,134.04 303.901,150.778 C293.667,153.04 278.303,157.748 273.985,144.338 C273.851,143.611 273.865,142.733 273.809,141.932 C272.487,130.432 279.945,120.305 284.477,110.585 C286.031,107.252 287.18,103.743 288.695,100.393 C289.285,99.09 289.909,97.773 290.785,96.643 C291.595,95.603 292.282,96.596 292.545,97.221 M224.237,193.396 C221.982,199.109 219.637,204.861 217.242,210.642 C216.932,209.936 216.628,209.235 216.326,208.529 C228.353,203.749 240.418,199.555 252.704,195.575 C269.297,190.865 269.161,190.745 285.896,186.781 C285.206,187.648 284.513,188.521 283.826,189.393 C285.282,184.445 286.732,179.503 287.996,174.639 C288.186,174.959 288.374,175.284 288.562,175.604 C266.646,181.501 247.368,192.22 224.237,193.394 M224.317,192.592 C240.162,185.252 257.42,181.772 274.019,176.699 C277.526,175.627 280.891,174.129 284.366,172.951 C285.154,172.684 290.704,170.464 289.849,173.987 C288.683,178.825 287.784,183.577 286.963,188.323 C286.848,188.951 286.743,189.581 286.63,190.207 C274.25,195.394 262.397,199.892 249.738,204.322 C237.183,208.22 224.638,211.624 211.708,214.16 C215.575,207.145 217.686,195.554 224.316,192.593 M736.847,331.123 C737.587,331.068 738.392,330.56 738.164,331.483 C736.882,335.103 735.672,338.483 733.209,341.456 C733.001,341.7 732.807,341.956 732.566,342.166 C732.496,342.231 732.416,342.301 732.336,342.358 C725.299,347.914 717.744,352.7 709.912,357.048 C710.054,356.932 710.192,356.801 710.335,356.673 C703.805,362.516 690.623,353.295 688.765,364.806 C688.649,365.456 690.587,366.726 690.893,366.956 C692.356,368.056 693.853,369.111 695.281,370.256 C694.633,370.126 693.996,370.012 693.361,369.881 C696.421,368.735 699.447,367.497 702.481,366.281 C703.535,365.857 704.495,365.083 705.624,364.963 C706.528,364.867 707.386,365.417 708.261,365.667 C712.806,366.972 719.241,370.211 723.716,366.353 C727.584,363.018 722.796,357.993 725.734,354.29 C726.658,353.123 728.074,352.454 729.257,351.548 C730.244,350.792 731.307,350.128 732.237,349.302 C732.522,349.047 733.035,347.994 732.867,348.339 L732.867,348.313 C735.132,342.958 735.22,336.648 736.847,331.123 M737.392,331.51 C738.454,338.325 738.382,340.69 737.719,347.516 C737.467,349.426 737.511,349.9 736.752,351.41 C736.002,352.376 730.972,355.855 730.232,356.835 C727.476,360.485 729.265,369.243 722.99,369.521 C721.05,369.608 719.067,369.774 717.163,369.393 C713.523,368.663 710.026,367.345 706.493,366.216 C705.623,366.004 704.528,367.116 703.913,367.438 C701.093,368.912 698.221,370.288 695.375,371.712 C695.105,371.849 694.845,372.232 694.563,372.122 C689.435,370.172 679.898,361.878 686.8,356.692 C691.676,353.022 698.64,356.515 704.035,354.355 C711.777,351.255 716.415,347.515 723.497,343.255 C726.557,341.415 729.29,340.603 731.861,337.985 C733.929,335.879 735.536,333.363 737.465,331.131 C737.64,331.267 737.807,331.416 737.978,331.558 C737.773,331.536 737.588,331.528 737.394,331.512 M379.495,537.32 C369.423,536.274 360.771,535.386 350.721,537.517 C328.497,542.227 310.481,557.107 288.941,563.653 C289.494,561.233 290.053,558.798 290.603,556.376 C295.633,557.846 300.663,559.374 305.87,560.74 C310.998,562.245 316.39,563.45 321.994,564.424 C342.716,567.276 367.1,566.858 377.292,545.547 C379.036,542.477 382.1,532.667 385.522,528.674 C385.522,528.674 386.98,530.424 386.482,531.159 C384.749,530.389 381.792,529.472 379.337,528.399 C380.95,527.693 382.562,526.977 384.167,526.266 C383.157,529.804 382.025,533.346 380.439,536.912 C380.372,537.067 380.294,537.225 380.222,537.394 C379.978,537.364 379.739,537.342 379.494,537.318 M379.07,536.09 C378.394,532.897 377.99,529.693 377.754,526.486 C377.684,525.418 377.611,524.36 377.528,523.292 C383.688,524.572 395.508,523.546 393.206,531.798 C389.67,543.118 387.196,552.245 377.486,559.641 C365.638,566.709 352.544,567.621 339.044,568.425 C332.679,568.581 326.421,568.455 320.11,568.313 C303.995,567.477 288.792,564.89 273.136,561.185 C281.076,558.333 288.986,555.385 296.808,552.222 C322.132,541.975 351.158,523.979 379.071,536.09 M130.442,513.815 C126.018,510.182 121.878,506.448 118.035,502.597 C114.085,498.827 110.489,494.9 107.045,490.955 C108.007,491.153 108.982,491.358 109.952,491.57 C105.074,492.682 100.168,493.858 95.262,494.923 C96.722,493.928 98.174,492.939 99.632,491.937 C96.712,497.923 86.982,509.21 86.065,517.085 C84.371,519.949 89.441,524.765 90.621,526.333 C101.151,533.896 110.999,536.845 123.973,538.231 C149.553,539.111 154.086,546.107 163.113,530.441 C163.416,531.045 163.706,531.635 164.013,532.228 C153.843,531.118 143.658,530.078 133.543,528.531 C139.513,518.767 145.757,509.006 152.337,499.641 C152.703,500.361 153.063,501.081 153.424,501.788 C151.409,501.37 149.398,500.942 147.394,500.515 C148.324,500.228 149.261,499.947 150.19,499.662 C144.102,504.444 137.705,509.132 131.09,513.747 C130.717,513.979 130.822,514.137 130.442,513.817 M130.965,513.079 C143.327,501.207 142.142,496.359 158.339,498.119 C153.391,507.811 147.659,517.559 141.745,526.694 C141.265,525.774 140.778,524.844 140.313,523.914 C149.653,525.502 158.873,527.716 168.166,529.564 C166.441,531.901 164.906,534.408 163.076,536.662 C158.116,543.129 147.8,540.199 141.471,539.972 C122.363,539.286 100.611,542.039 83.671,530.47 C81.926,528.485 80.206,526.477 78.501,524.456 C78.086,524.006 77.993,523.349 77.831,522.78 C74.885,512.71 91.661,492.713 93.279,489.893 C100.763,488.445 110.619,486.093 116.864,492.433 C119.09,494.693 120.694,497.496 122.432,500.15 C125.345,504.355 128.187,508.683 130.964,513.08 M255.374,157.145 C253.972,156.707 250.189,155.655 249.164,154.372 C247.374,152.132 247.649,149.462 249.014,147.154 C256.472,134.551 257.694,135.394 266.187,123.53 C266.227,124.45 266.277,125.377 266.339,126.298 C246.519,140.882 236.667,164.553 217.316,179.358 C217.59,178.532 217.856,177.7 218.14,176.868 C230.288,169.775 242.512,162.912 255.374,157.145 M255.888,157.252 C240.575,167.967 224.44,176.152 207.554,183.908 C213.796,179.804 218.911,177.042 224.506,172.018 C234.222,163.293 240.042,151.291 248.132,141.26 C255.612,131.985 263.067,125.663 272.344,118.28 C268.078,124.42 263.631,130.433 259.164,136.427 C256.032,140.63 253.858,142.317 251.329,146.97 C249.791,149.798 252.579,152.825 254.142,154.73 C254.79,155.52 256.722,156.66 255.887,157.252 M526.15,321.954 C519.408,326.671 511.335,334.501 514.042,343.66 C514.648,345.708 515.294,347.77 516.279,349.664 C517.243,351.52 518.511,353.216 519.849,354.824 C520.111,355.141 520.573,355.256 520.979,355.322 C524.951,355.96 528.973,356.256 532.937,356.928 C532.677,357.004 532.437,357.094 532.189,357.168 C533.319,356.046 534.423,354.9 535.463,353.728 C535.507,353.983 535.53,354.243 535.543,354.502 C528.543,347.467 520.553,341.882 513.986,334.409 C517.699,329.921 521.494,325.541 525.836,321.639 C525.934,321.739 526.042,321.849 526.149,321.953 M526.215,321.897 C524.102,326.791 521.299,331.317 518.168,335.707 C518.073,334.985 517.972,334.274 517.891,333.565 C525.281,340.641 524.894,341.218 531.746,348.781 C533.306,350.503 535.094,352.013 536.606,353.777 C536.776,353.977 536.868,354.359 536.696,354.559 C535.666,355.742 534.661,356.959 533.701,358.193 C533.621,358.283 533.559,358.369 533.486,358.459 C533.308,358.454 533.122,358.449 532.956,358.439 C528.09,358.232 521.44,359.939 517.002,356.875 C516.719,356.589 516.672,356.615 516.459,356.362 C512.699,352.152 509.394,347.417 508.709,341.652 C507.959,335.536 511.207,329.355 516.241,325.97 C518.101,324.72 520.131,323.733 522.137,322.736 C523.134,322.241 524.15,321.729 525.24,321.503 C525.585,321.433 526.35,321.573 526.216,321.898 M512.733,424.698 C516.808,433.168 521.886,438.82 528.683,445.088 C530.898,446.5 532.811,448.116 535.259,449.31 C550.281,458.48 568.876,457.88 585.665,458.336 C588.612,458.416 598.535,458.106 601.2,456.164 C604.988,453.406 609.365,443.194 611.827,439.586 C611.965,440.056 612.097,440.526 612.257,441.006 C609.43,438.552 606.623,436.128 603.727,433.758 C604.247,433.878 604.781,434.002 605.297,434.118 C589.06,437.33 573.219,442.3 557.153,446.285 C546.36,448.963 534.413,451.228 525.947,441.868 C521.102,436.512 517.464,430.156 512.733,424.698 M511.355,421.924 C521.95,429.079 532.078,437.234 542.047,445.181 C540.697,444.861 539.337,444.551 537.972,444.236 C552.446,441.021 589.286,433.334 604.136,432.196 C607.276,431.956 617.592,435.093 615.266,440.856 C611.536,448.904 613.128,452.606 607.21,459.718 C605.38,461.92 599.672,462.975 597.152,463.18 C587.302,463.98 577.442,465.352 567.567,465.03 C554.535,463.856 541.101,461.528 530.091,453.846 C527.404,452.311 525.401,450.271 523.197,448.456 C516.117,440.389 512.087,433.026 510.625,422.18 C510.583,421.902 510.54,421.628 510.495,421.348 C510.785,421.541 511.075,421.738 511.355,421.924 M159.89,256.206 C163.22,253.066 166.548,250.002 169.882,247.003 C169.46,247.646 169.045,248.291 168.632,248.929 C167.792,239.315 169.116,229.742 171.085,220.354 C171.581,220.586 172.077,220.819 172.58,221.044 C163.78,224.664 154.79,228.271 145.876,231.354 C146.264,230.874 146.653,230.407 147.049,229.934 C150.222,233.087 152.439,237.214 154.639,241.569 C156.694,245.983 158.695,250.629 159.889,256.205 M159.416,256.828 C155.182,253.856 152.25,249.908 149.841,245.698 C147.553,241.392 145.767,236.842 145.405,231.308 C145.327,230.183 145.767,230.278 146.575,229.892 C156.45,225.16 166.255,220.284 176.191,215.692 C176.124,216.19 176.059,216.682 175.998,217.179 C174.475,229.299 174.005,234.731 171.816,246.903 C171.748,247.281 171.681,247.658 171.62,248.029 C167.708,250.997 163.777,253.944 159.747,256.749 C159.554,256.877 159.581,256.965 159.414,256.829 M208.56,204.65 C205.574,206.388 202.388,208.74 198.728,208.768 C197.244,208.78 194.762,208.504 194.618,206.493 C193.87,202.963 196.561,198.428 198.061,195.495 C198.746,195.515 199.437,195.53 200.121,195.547 C195.755,200.221 191.311,204.867 186.691,209.421 C186.875,209.061 187.057,208.686 187.241,208.321 C187.469,210.629 187.911,213.601 188.806,215.769 C189.712,217.959 191.013,219.972 191.931,222.159 C191.261,222.355 190.601,222.563 189.931,222.769 C195.196,217.351 202.915,209.796 208.561,204.652 M209.255,204.242 C203.032,211.817 196.212,218.879 189.287,225.804 C189.19,225.434 189.09,225.08 189.004,224.724 C187.01,217.3 188.339,217.009 185.417,209.89 C185.121,209.25 185.657,209.122 185.967,208.78 C191.687,202.43 197.37,196.05 203.071,189.682 C201.361,193.435 199.813,197.262 198.336,201.112 C197.898,202.258 197.324,204.472 198.663,205.406 C200.553,206.723 203.081,205.889 205.016,205.313 C206.033,205.011 206.98,204.493 208.006,204.231 C208.41,204.129 209.512,203.914 209.256,204.243 M315.933,86.197 C312.693,81.622 311.015,75.847 310.27,70.357 C310.563,70.255 310.86,70.147 311.156,70.041 C308.75,72.751 306.301,75.424 303.809,78.019 C304.094,77.399 304.369,76.769 304.659,76.149 C305.139,78.219 305.902,81.015 307.024,82.859 C308.351,85.042 310.108,86.947 311.41,89.144 C309.522,91.028 308.647,91.827 306.448,93.867 C306.656,93.007 306.868,92.137 307.074,91.282 C310.164,89.342 313.124,87.582 315.934,86.199 M316.094,86.369 C310.704,91.099 304.027,95.633 298.057,99.684 C302.133,95.944 306.084,92.07 310.131,88.298 C309.751,89.198 309.374,90.096 308.998,91.003 C307.121,87.768 307.91,87.29 306.324,83.943 C305.399,81.995 304.37,80.088 303.179,78.288 C302.583,77.372 303.637,76.871 304.039,76.411 C306.796,73.241 309.457,69.989 312.235,66.835 C313.249,71.527 314.135,76.25 315.311,80.905 C315.675,82.342 317.799,84.827 316.094,86.371 M269.967,560.247 C256.13,557.732 240.613,553.337 227.567,548.021 C229.203,547.414 230.823,546.799 232.457,546.187 C228.365,555.217 222.332,563.722 219.17,573.205 L217.897,572.462 C226.787,569.952 235.455,566.819 244.345,564.982 C252.833,563.06 261.339,561.362 269.967,560.249 M271.171,560.475 C262.713,563.701 253.981,566.223 245.161,568.512 C236.361,570.965 227.221,572.129 218.184,573.892 C218.13,573.902 218.079,573.917 218.03,573.917 C217.157,574.09 217.415,572.101 217.726,571.267 C218.349,569.6 219.344,568.08 219.896,566.387 C222.796,557.461 221.672,557.257 224.66,548.442 C224.966,547.538 226.85,544.844 227.937,544.605 C236.597,542.705 244.311,548.581 251.877,551.352 C256.637,553.096 261.627,554.142 266.424,555.782 C268.281,556.415 270.154,557.106 271.81,558.162 C273.36,559.147 271.927,560.124 271.17,560.475 M180.194,475.52 C168.917,472.804 156.7,468.257 146.52,462.632 C148.035,462.046 149.558,461.45 151.07,460.849 C147.745,466.411 136.89,481.944 133.968,487.826 C133.653,487.572 133.346,487.308 133.035,487.063 C141.192,484.663 149.289,481.641 157.287,479.909 C164.967,478.091 172.592,476.519 180.194,475.519 M181.186,475.769 C173.286,478.887 165.292,481.294 157.246,483.472 C149.186,485.817 141.104,486.852 132.971,488.498 C132.928,488.511 132.884,488.521 132.836,488.533 C132.322,488.636 131.59,488.595 132.044,487.737 C133.264,485.422 134.954,483.36 136.041,480.98 C138.746,475.052 141.104,460.638 149.644,458.64 C160.154,456.18 170.238,466.165 177.756,471.132 C178.172,471.408 184.976,473.954 181.186,475.766 M771.582,369.94 C764.224,368.153 756.159,365.172 749.515,361.485 C750.502,361.097 751.495,360.711 752.467,360.317 C748.93,366.262 744.359,371.77 741.277,378.003 C741.063,377.831 740.863,377.668 740.657,377.5 C751.012,374.455 760.747,371.34 771.582,369.94 M772.219,370.1 C767.049,372.14 761.817,373.724 756.527,375.15 C751.257,376.69 745.943,377.365 740.612,378.445 C740.595,378.452 740.559,378.46 740.532,378.469 C740.179,378.537 739.725,378.522 740.012,377.949 C743.007,371.989 745.972,366.005 749.212,360.174 C749.489,359.674 749.98,359.268 750.512,359.06 C751.034,358.858 751.674,358.8 752.192,359.012 C758.207,361.478 764.057,364.324 769.962,367.039 C770.302,367.194 774.638,368.889 772.218,370.099 M1.315,426.213 C14.898,424.641 28.43,424.373 42.068,425.221 C40.668,426.198 39.255,427.183 37.84,428.165 C39.575,419.433 43.028,411.948 44.07,403.055 C44.5,403.137 44.926,403.213 45.36,403.293 C31.12,412.019 16.873,419.878 1.315,426.213 M0.225,426.33 C11.405,419.21 21.985,413.435 33.781,407.417 C37.465,405.537 41.149,403.639 44.976,402.074 C45.382,401.909 46.371,401.884 46.271,402.314 C44.984,406.552 44.291,410.604 44.141,414.499 C43.955,418.407 43.791,422.324 43.297,426.365 C43.077,428.058 40.751,429.253 39.244,429.315 L39.056,429.317 C26.246,429.597 12.769,429.277 0.102,426.702 C-0.168,426.632 0.2,426.348 0.228,426.328 M83.394,369.6 C83.884,370.162 83.829,370.244 83.338,370.442 C63.924,378.377 43.533,384.954 23.148,390.054 C23.566,389.341 23.995,388.624 24.408,387.911 C39.352,389.178 54.796,387.127 68.378,380.541 C74.963,377.349 74.714,376.196 79.641,371.043 C80.335,370.319 81.951,368.373 83.395,369.601 M83.067,370.079 C78.904,374.769 72.401,381.131 66.679,383.989 C51.199,391.717 33.139,389.381 16.622,390.575 C38.594,382.775 60.754,375.275 83.474,369.933 C83.19,370.167 83.169,370.343 83.068,370.079 M535.784,233.293 C536.31,234.143 537.216,235.138 536.174,235.028 C508.824,232.472 481.258,226.826 455.424,217.388 C455.714,216.148 456,214.892 456.264,213.65 C472.162,228.4 490.584,240.97 512.767,242.258 C518.263,241.256 521.752,240.438 526.81,237.994 C528.447,237.204 529.923,236.116 531.44,235.114 C532.75,234.249 535.08,231.888 535.784,233.294 M535.499,233.984 C530.229,241.829 523.809,246.264 514.736,247.912 C499.618,248 486.45,238.652 474.521,230.735 C465.434,224.705 456.529,218.398 447.711,211.979 C465.536,214.951 497.348,221.823 514.591,227.323 C519.584,228.916 524.084,231.775 528.893,233.863 C530.75,234.668 532.603,235.565 534.581,235.993 C536.501,236.408 535.791,234.58 535.498,233.983 M327.132,246.544 C323.836,254.351 319.437,261.647 315.357,269.074 C311.287,276.487 306.683,283.6 302.692,291.054 C301.536,293.212 300.962,298.114 298.969,299.919 C298.457,300.382 298.149,298.339 298.655,297.871 C299.168,297.397 300.115,297.937 300.702,298.313 C304.087,300.478 307.082,303.215 310.447,305.413 C313.814,307.615 317.277,309.689 320.875,311.49 C325.802,314.086 331.15,316.388 336.409,319.008 C347.011,324.138 357.692,330.233 369.554,334.773 C368.664,335.743 367.747,336.713 366.84,337.69 C356.432,318.377 343.29,302.908 335.437,282.32 C331.515,270.673 328.285,258.82 327.132,246.544 M327.934,244.426 C334.274,254.569 339.044,265.716 344.342,276.408 C353.954,297.876 360.757,320.784 373.729,340.548 C345.181,330.404 311.302,328.208 287.567,307.648 C287.227,307.345 287.387,307.508 287.077,307.211 C286.86,306.957 286.645,306.701 286.435,306.444 C282.505,294.652 294.958,285.091 301.001,277.602 C309.991,266.462 318.811,255.182 327.566,243.852 C327.69,244.039 327.808,244.23 327.933,244.428 M13.95,462.46 C17.83,465.61 20.784,469.765 24.33,473.29 C25.862,474.81 27.643,476.064 29.173,477.584 C29.573,477.98 30.351,478.508 30.083,479.004 C29.801,479.527 28.851,479.438 28.305,479.196 C28.002,479.062 28.753,478.671 29.061,478.551 C29.771,478.271 30.565,478.271 31.285,478.025 C33.44,477.292 35.562,476.465 37.675,475.622 C41.978,473.902 46.275,472.162 50.528,470.326 C54.853,468.46 59.108,466.436 63.408,464.521 C71.971,460.711 80.646,457.148 89.122,453.151 C89.082,453.751 89.045,454.357 89.004,454.961 C82.76,455.454 76.39,456.227 69.771,457.481 C51.207,460.731 32.861,463.203 13.951,462.461 M13.165,461.868 C25.172,459.066 40.421,456.608 52.69,455.428 C68.752,453.886 78.287,454.562 94.294,452.283 C72.964,463.938 51.984,476.967 28.744,484.581 C28.584,484.639 28.298,484.715 28.114,484.807 C27.69,484.903 27.258,484.997 26.837,485.107 C16.795,484.023 14.707,470.365 12.592,462.397 C12.452,461.803 12.665,461.977 13.164,461.867" id="Shape"></path>
        </g>
    </g>
</svg>