<?xml version="1.0" encoding="UTF-8" standalone="no"?>
<svg width="164px" height="65px" viewBox="0 0 164 65" version="1.1" xmlns="http://www.w3.org/2000/svg" xmlns:xlink="http://www.w3.org/1999/xlink" xmlns:sketch="http://www.bohemiancoding.com/sketch/ns">
    <!-- Generator: Sketch 3.2.2 (9983) - http://www.bohemiancoding.com/sketch -->
    <title>bg_logo_footer</title>
    <desc>Created with Sketch.</desc>
    <defs></defs>
    <g id="Blank-Project" stroke="none" stroke-width="1" fill="none" fill-rule="evenodd" sketch:type="MSPage">
        <g id="Pagina-Producto-15" sketch:type="MSArtboardGroup" transform="translate(-516.000000, -2130.000000)">
            <g id="footer" sketch:type="MSLayerGroup" transform="translate(0.000000, 2072.000000)">
                <g id="bg_logo_footer" transform="translate(516.000000, 58.000000)">
                    <g id="EnergyFruits" transform="translate(33.464544, 39.009400)" sketch:type="MSShapeGroup">
                        <g id="F" transform="translate(50.621428, 0.227146)" fill="#FFFFFF">
                            <path d="M0.174376861,8.70498162 C0.174376861,8.70498162 5.31719429,7.09856656 6.88064446,7.09856656 C8.44409462,7.09856656 11.5951538,7.42140469 12.1138618,7.15015486 C12.6325697,6.87890504 11.6694998,8.17893048 9.36882295,8.60673954 C7.0681461,9.0345486 6.87893013,8.64845878 5.97150232,8.64845878 C5.0640745,8.64845878 3.1553905,8.51029183 1.76385595,9.39088183 C0.372321408,10.2714718 0.726127791,9.93353095 0.23516298,9.44740467 C-0.255801831,8.9612784 0.174376861,8.70498162 0.174376861,8.70498162 Z" id="Path-9"></path>
                            <path d="M12.2508282,2.31909676 L10.3171373,0.0403139948 C10.3171373,0.0403139948 8.39749014,0.430665383 5.53642904,3.89814737 C2.67536794,7.36562936 3.8429722,11.6431227 2.97072328,13.7722993 C2.09847435,15.9014759 0.629012744,16.3210602 0.433626287,16.6205721 C0.238239829,16.9200839 -0.377015884,17.3280048 0.334145036,17.6792539 C1.04530596,18.030503 3.62742979,17.0646804 4.28982515,15.4184897 C4.95222052,13.772299 5.1983231,11.5864503 6.04879021,8.6050947 C6.89925731,5.62373906 9.57939967,3.35624598 10.6216767,2.71042017 C11.6639538,2.06459436 12.2508282,2.31909676 12.2508282,2.31909676 Z" id="Path"></path>
                        </g>
                        <path d="M9.23549475,1.18443225 C9.23549475,1.18443225 6.47007609,1.68644644 5.95681123,1.99599848 C5.44354638,2.30555053 4.91092834,2.6099609 3.80687003,6.10057212 C2.70281171,9.59118335 2.13264619,10.7382437 1.64128403,12.272916 C1.14992188,13.8075884 0.221316932,16.3254887 0.221316932,16.7585577 C0.221316932,17.1916267 -0.124490774,17.8158725 0.0484130789,18.384261 C0.221316932,18.9526495 0.966703853,19.2555408 2.38678704,18.5688938 C3.80687022,17.8822468 5.50554588,16.6596974 5.73117866,16.2890295 C5.95681143,15.9183617 5.87718288,15.3280042 5.24746506,15.4723216 C4.61774725,15.616639 3.09868273,16.2370285 3.09868273,16.2370285 L2.28747162,16.6076964 L4.278879,11.5771543 C4.278879,11.5771543 6.82619802,10.2974622 7.55362235,9.89687914 C8.28104669,9.49629612 8.52997312,9.15682889 9.01102105,9.15682889 C9.49206898,9.15682889 9.30757691,8.4337228 8.77623338,8.4337228 C8.24488985,8.4337228 8.10825878,8.26989042 7.52395521,8.71335966 C6.93965163,9.15682889 6.43785922,9.28034589 6.08451904,9.28034589 C5.73117886,9.28034589 4.89922372,9.63547184 4.89922372,9.63547184 C4.89922372,9.63547184 5.27203297,7.86521744 5.94139822,6.04845426 C6.61076347,4.23169109 6.44562387,4.35135183 6.44562387,4.35135183 C6.44562387,4.35135183 6.46764271,4.08340059 7.24536213,3.89093844 C8.02308156,3.6984763 10.2066303,2.85570947 10.2066303,2.85570947 C10.2066303,2.85570947 10.4257735,2.12348858 9.94217552,1.65396042 C9.45857755,1.18443225 9.23549475,1.18443225 9.23549475,1.18443225 Z" id="Path-879" fill="#FEFEFE"></path>
                        <path d="M8.99340618,8.43255423 C8.99340618,8.43255423 9.6448087,8.21403316 10.1580736,7.87328051 C10.6713384,7.53252786 10.855831,7.30617743 10.855831,7.30617743 L12.1236381,7.94608192 C12.1236381,7.94608192 11.8812018,10.1180879 11.7147877,10.9555962 C11.5483735,11.7931045 12.4874083,9.24412047 13.5256426,8.27514895 C14.563877,7.30617743 14.8850007,7.148889 14.8850007,7.148889 L16.1064528,8.093087 C16.1064528,8.093087 15.7156809,11.5420974 15.3003408,12.5357256 C14.8850007,13.5293538 14.7445453,14.3695498 15.2165542,14.3695498 C15.6885632,14.3695498 16.2482989,14.0171115 16.2482989,14.0171115 C16.2482989,14.0171115 16.349005,14.6946437 15.4345383,15.1069123 C14.5200716,15.519181 13.6893914,16.0393079 13.2689523,14.9482216 C12.8485131,13.8571354 13.5784872,12.5708993 13.7990208,11.4510665 C14.0195543,10.3312336 14.462012,8.47672587 14.462012,8.47672587 C14.462012,8.47672587 12.3286427,10.2375149 11.6683169,12.1273132 C11.007991,14.0171115 11.063501,15.1641719 10.4688833,15.3787198 C9.87426556,15.5932678 8.83464058,15.4293186 9.02689761,14.2900876 C9.21915464,13.1508566 10.1244662,9.94502389 10.1244662,9.94502389 C10.1244662,9.94502389 10.7307886,8.15420279 10.4276274,8.31546433 C10.1244662,8.47672587 9.72083077,9.08017123 9.37386419,9.08017123 C9.02689761,9.08017123 8.99340618,8.43255423 8.99340618,8.43255423 Z" id="Path-878" fill="#FEFEFE"></path>
                        <path d="M17.7438245,11.0640608 C17.7438245,11.0640608 18.061008,8.37835505 19.339245,7.17403516 C20.6174819,5.96971528 21.2958862,6.07243187 22.1239009,6.23766652 C22.9519157,6.40290117 23.8624422,8.0894865 23.1802137,9.01428643 C22.4979851,9.93908635 19.9170591,10.6426774 19.9170591,10.6426774 C19.9170591,10.6426774 19.1265918,12.3710975 19.7198189,12.7651364 C20.313046,13.1591753 21.0817264,12.4218131 22.2644722,12.0290592 C23.447218,11.6363054 23.7735567,11.34101 23.7735567,11.34101 C23.7735567,11.34101 23.2420975,13.2944946 22.174196,13.6859632 C21.1062945,14.0774317 20.8611929,14.5116692 19.1045732,13.9837127 C17.3479535,13.4557563 17.7438245,11.0640608 17.7438245,11.0640608 Z M20.2640256,9.58524577 C20.2640256,9.58524577 21.3719082,9.0468893 22.0168211,8.76596702 C22.6617339,8.48504475 22.7764623,7.4966751 22.1148617,7.28072486 C21.4532611,7.06477462 20.9683887,7.60184567 20.5465589,8.38092588 C20.1247291,9.16000609 20.2640256,9.58524577 20.2640256,9.58524577 Z" id="Path-877" fill="#FEFEFE"></path>
                        <path d="M24.9435457,8.04274407 L26.6640086,5.60547453 L28.1589548,6.82405087 L27.6765159,8.79833619 C27.6765159,8.79833619 28.9960087,6.34423936 29.6769625,6.16860451 C30.3579163,5.99296966 31.3187379,6.77473756 31.4426214,6.92816974 C31.566505,7.08160191 31.0388701,8.45746669 30.6287449,8.96602482 C30.2186198,9.47458295 29.2397197,8.62258448 29.2397197,8.33266428 C29.2397197,8.04274407 29.1507183,7.37292439 29.1507183,7.37292439 C29.1507183,7.37292439 27.2004509,10.1209145 26.9941715,11.2745188 C26.7878921,12.4281231 26.5930855,13.8223343 26.5930855,13.8223343 C26.5930855,13.8223343 25.0349808,13.6493872 24.789995,13.3307203 C24.5450093,13.0120535 25.0466854,11.0574 25.0466854,11.0574 L26.0695067,7.34686546 L24.9435457,8.04274407 Z" id="Path-876" fill="#FEFEFE"></path>
                        <path d="M37.8136417,5.12297533 C37.8136417,5.12297533 34.3210302,4.10585906 32.5720591,8.05571511 C30.8230879,12.0055712 33.3239359,13.2228621 33.6077439,13.2228621 C33.8915519,13.222862 35.443167,12.7597611 36.112532,11.2277764 C36.781897,9.69579165 34.632883,15.7545515 33.932576,18.9851576 C33.232269,22.2157637 33.1511479,24.0950451 31.9141669,24.4383685 C30.6771858,24.7816919 29.3346314,25.2342761 27.6050135,23.2106774 C25.8753955,21.1870787 26.24299,20.747349 26.1127327,20.1907629 C25.9824754,19.6341768 25.289817,21.5288832 28.36338,24.4318246 C31.436943,27.334766 33.9325761,24.2573582 33.9325761,24.2573582 C33.9325761,24.2573582 34.5595261,23.5524818 35.8904919,18.5531403 C37.2214577,13.5537987 37.7888417,11.3421786 38.467362,9.69894684 C39.1458823,8.05571503 39.8977588,6.50865601 39.6397938,5.98198518 C39.3818288,5.45531434 38.2544768,4.72800143 38.0340593,4.72800141 C37.8136418,4.72800139 37.8136417,5.12297533 37.8136417,5.12297533 Z M37.533658,6.30941622 C37.533658,6.30941622 35.114047,6.70345529 34.4768986,8.77262783 C33.8397503,10.8418004 34.064224,11.5583625 34.4434072,11.7951132 C34.8225905,12.0318638 36.077534,10.437478 36.6359949,8.58413879 C37.1944559,6.73079964 37.533658,6.30941622 37.533658,6.30941622 Z" id="Path-875" fill="#FEFEFE"></path>
                        <path d="M41.6511338,4.01143926 L43.5046353,5.4537952 C43.5046353,5.4537952 42.532109,8.37999103 42.532109,10.8432026 C42.532109,13.3064143 45.1709788,6.79986164 45.1709788,6.79986164 L45.9525227,4.3209913 L47.5363545,5.64099882 C47.5363545,5.64099882 45.7965384,13.9324129 44.413887,18.2229047 C43.0312356,22.5133965 43.2156122,24.4133613 40.4296815,24.4133613 C37.6437508,24.4133613 35.3546291,21.2792783 35.7595393,21.0814408 C36.1644495,20.8836033 37.3331728,23.5746844 39.7745707,23.5746844 C42.2159686,23.5746844 42.0341412,20.2087588 42.5875032,17.9445533 C43.1408652,15.6803477 44.3455135,10.3896838 44.3455135,10.3896838 L44.6963044,8.84846749 C44.6963044,8.84846749 43.1434144,12.0491585 42.4753243,12.3391956 C41.8072341,12.6292326 40.6941368,12.5185698 40.6941364,10.7654933 C40.6941361,9.01241673 41.0077274,7.27908887 41.2036929,6.12817227 C41.3996585,4.97725566 41.5235419,4.71316067 41.5235419,4.71316067 L41.6511338,4.01143926 Z" id="Path-874" fill="#FEFEFE"></path>
                        <path d="M62.8386931,6.99057094 C62.8386931,6.99057094 63.4152325,7.11549021 64.0227137,6.78513776 C64.6301949,6.45478532 64.8056483,5.96702758 64.8056483,5.96702758 L66.2669872,6.18426324 C66.2669872,6.18426324 66.8434106,6.34038311 66.8434106,6.81505295 C66.8434106,7.28972279 66.5648175,8.66184816 66.5648175,8.66184816 C66.5648175,8.66184816 67.6752496,6.91508185 68.2660431,6.54967254 C68.8568366,6.18426324 69.4952597,5.74336484 69.4952597,5.74336484 L71.0932297,7.08428961 C71.0932297,7.08428961 70.4211992,9.17426255 69.9582295,9.17426255 C69.4952597,9.17426255 68.6994616,7.89445357 68.6994616,7.89445357 L69.2101769,6.69153596 C69.2101769,6.69153596 67.9526838,6.91262787 66.9944117,9.61516095 C66.0361397,12.317694 66.2333798,12.902793 65.7523317,13.2995197 C65.2712835,13.6962465 64.5852306,13.7457935 64.3039722,13.6234451 C64.0227137,13.5010967 63.772513,13.1318311 63.9582803,11.373496 C64.1440477,9.61516095 64.7850204,7.27534948 64.7850204,7.27534948 C64.7850204,7.27534948 63.4539388,7.94400059 62.1280722,7.6903058 C60.8022056,7.43661102 62.8386931,6.99057094 62.8386931,6.99057094 Z" id="Path-872" fill="#FEFEFE"></path>
                        <path d="M71.5363827,6.79682338 C71.5363827,6.79682338 72.0369,6.32075127 73.0480167,6.55878732 C74.0591334,6.79682338 74.2358615,7.37163898 74.2358615,7.37163898 C74.2358615,7.37163898 74.2566054,7.48872895 73.9934253,9.4395261 C73.7302452,11.3903232 73.3988076,12.6466443 73.3988076,13.7079321 C73.3988076,14.76922 76.044167,10.6620755 76.044167,10.6620755 L76.8360249,6.61347602 L78.4701517,7.60313109 C78.4701517,7.60313109 77.4409566,12.3643197 77.4409566,13.1499438 C77.4409566,13.9355679 79.1163393,11.3799231 79.1163393,11.3799231 C79.1163393,11.3799231 78.8583742,13.6989343 77.3622691,14.4986979 C75.8661641,15.2984616 75.8339474,14.1787458 75.8339474,13.8392785 C75.8339474,13.4998112 75.9048704,12.2122898 75.9048704,12.2122898 C75.9048704,12.2122898 74.3378424,14.2007147 73.4208261,14.6663866 C72.5038099,15.1320584 71.9298201,14.7534445 71.5531864,14.4452947 C71.1765527,14.1371448 71.7776601,10.8609648 71.7776601,10.8609648 C71.7776601,10.8609648 72.5709087,7.49387057 72.3657882,7.27149322 C72.1606676,7.04911588 71.5363827,6.79682338 71.5363827,6.79682338 Z" id="Path-871" fill="#FEFEFE"></path>
                        <path d="M81.2106546,7.54470299 C81.2106546,7.54470299 81.6516058,6.67073555 82.1224559,6.67073555 C82.593306,6.67073555 83.6096376,7.90239979 83.6096376,7.90239979 C83.6096376,7.90239979 82.3089765,13.2671506 82.4720879,14.1228884 C82.6351993,14.9786263 84.0597439,13.1266894 84.0597439,13.1266894 C84.0597439,13.1266894 83.7787172,14.3958645 82.9505866,14.9434526 C82.1224559,15.4910407 81.2829683,15.2958909 80.9772576,14.9811972 C80.6715469,14.6665034 80.4045426,13.4167265 80.9307868,11.4528414 C81.457031,9.48895627 81.7871939,7.64216105 81.7871939,7.64216105 L81.2106546,7.54470299 Z M83.1143353,3.0265753 L84.4621046,4.20226542 C84.4621046,4.20226542 83.8740925,4.85642636 83.0099209,4.85642636 C82.1457493,4.85642636 81.9006476,4.74588041 81.9006476,4.74588041 L83.1143353,3.0265753 Z" id="Path-870" fill="#FEFEFE"></path>
                        <path d="M87.1643647,7.09211897 C87.4109729,7.09211897 88.9352386,7.71250848 88.9352386,7.71250848 L88.750746,8.38875525 L91.139415,8.65927732 L91.2736125,9.3498974 L88.5741337,9.35901218 C88.5741337,9.35901218 87.6866688,13.708049 87.9111425,15.143861 C88.1356162,16.579673 90.2482417,13.075857 90.2482417,13.3230078 C90.2482417,13.5701587 89.7194479,15.1775156 88.8152952,15.7238182 C87.9111425,16.2701209 87.9201817,16.3052946 86.6549241,15.8682525 C85.3896666,15.4312103 86.2332103,12.848338 86.2332103,12.848338 L86.7683778,9.45261399 L85.0401505,9.43181359 L85.123937,8.33278113 L86.8819474,8.44858561 C86.8819474,8.44858561 86.9177565,7.09211897 87.1643647,7.09211897 Z" id="Path-869" fill="#FEFEFE"></path>
                        <path d="M90.6044792,12.9681156 C90.6044792,12.9681156 92.6294939,10.3853601 93.1505232,9.25641245 C93.6715526,8.12746481 94.0908328,8.033863 94.5834697,8.033863 C95.0761066,8.033863 95.7571763,8.67890916 95.8887084,8.96766081 C96.0202405,9.25641245 95.3932902,10.4332711 94.98838,10.9093432 C94.5834697,11.3854154 93.8998505,12.3581263 94.5963332,13.8407976 C95.2928159,15.3234689 96.0795748,15.648446 96.0795748,16.2923236 C96.0795748,16.9362012 96.0007714,17.4393839 94.8503582,17.709906 C93.6999449,17.9804281 92.8564013,18.3316978 91.7304403,17.7711387 C90.6044792,17.2105795 90.1234311,15.8475689 90.1234311,15.8475689 C90.1234311,15.8475689 90.9011507,16.4379264 92.025837,16.5628457 C93.1505232,16.6877649 94.3229551,15.7136517 94.3229551,15.7136517 C94.3229551,15.7136517 91.3345692,13.7889135 92.2425462,11.9563747 C91.7304403,12.1696372 90.6044792,12.9681156 90.6044792,12.9681156 Z" id="Path-868" fill="#FEFEFE"></path>
                    </g>
                    <text id="®-19" sketch:type="MSTextLayer" font-family="Helvetica Neue LT Std" font-size="5" font-weight="206" fill="#000000">
                        <tspan x="59.9979658" y="6.63253623">®</tspan>
                    </text>
                    <g id="Superfoods" transform="translate(0.000000, 10.041929)" fill="#FEFEFE" sketch:type="MSShapeGroup">
                        <path d="M163.842662,7.64601851 L161.298925,4.3534618 C161.298925,4.3534618 158.773662,4.91747084 155.009986,9.92754959 C151.246309,14.9376283 152.782272,21.1180724 151.634844,24.1944669 C150.487415,27.2708613 148.554364,27.8771083 148.297337,28.3098655 C148.040309,28.7426228 147.230951,29.3320175 148.166471,29.8395286 C149.101991,30.3470397 152.49873,28.9515467 153.3701,26.5730066 C154.241469,24.1944664 154.565213,21.0361879 155.683988,16.7285011 C156.802763,12.4208142 160.328444,9.1445697 161.699541,8.211432 C163.070639,7.27829431 163.842662,7.64601851 163.842662,7.64601851 Z" id="Path-12"></path>
                        <path d="M130.593822,5.38879291 C130.593822,5.38879291 124.969423,18.2196229 127.435775,24.3035277 C129.902126,30.3874325 133.851217,23.6432923 135.507255,22.0605464 C137.163293,20.4778006 139.182945,14.3234607 139.182944,10.9432023 C139.182943,7.56294395 138.531093,6.13656334 137.088514,5.49793021 C135.645935,4.85929707 134.172691,5.3887929 134.172691,5.3887929 C134.172691,5.3887929 137.062004,7.15797683 135.507255,12.609845 C133.952506,18.0617131 133.851217,18.0014216 131.540755,21.1569359 C129.230294,24.3124501 129.085284,22.3542471 129.085284,21.1569353 C129.085284,19.9596235 130.08485,14.4748541 131.540755,10.9432024 C132.996661,7.41155066 134.643815,5.49573145 133.851217,4.77474562 C133.058619,4.05375979 130.593822,5.38879291 130.593822,5.38879291 Z" id="Path-25"></path>
                        <path d="M117.705296,4.67082848 C117.705296,4.67082848 112.080897,17.5016585 114.547249,23.5855633 C117.0136,29.6694681 120.962691,22.9253279 122.618729,21.342582 C124.274767,19.7598361 126.294419,13.6054963 126.294418,10.2252379 C126.294418,6.84497952 125.642567,5.41859892 124.199988,4.77996578 C122.757409,4.14133264 121.284165,4.67082847 121.284165,4.67082847 C121.284165,4.67082847 124.173479,6.4400124 122.618729,11.8918805 C121.06398,17.3437487 120.962691,17.2834572 118.652229,20.4389714 C116.341768,23.5944857 116.196759,21.6362827 116.196759,20.4389709 C116.196759,19.2416591 117.196324,13.7568897 118.652229,10.2252379 C120.108135,6.69358624 121.755289,4.77776703 120.962691,4.0567812 C120.170093,3.33579536 117.705296,4.67082848 117.705296,4.67082848 Z" id="Path-27"></path>
                        <path d="M142.526978,5.4166027 C142.526978,5.4166027 141.301616,17.4405055 136.65773,26.1000074 C137.179773,26.2317507 134.672227,29.0073667 135.371526,29.3937221 C136.070826,29.7800775 137.469425,28.4630142 139.393875,28.4630142 C145.310907,28.4630142 147.860332,22.9744126 148.974168,21.2731365 C150.24608,19.3304139 150.403862,16.7993772 150.403861,13.4191188 C150.40386,10.0388605 149.173499,7.46399979 147.73092,6.82536666 C146.288341,6.18673352 144.815098,6.71622935 144.815098,6.71622935 C144.815098,6.71622935 147.227737,9.29243946 147.227738,14.6523466 C147.227739,20.0122538 142.820727,26.1000068 138.922868,26.1000068 C141.162334,22.1894649 142.805627,21.7074932 144.493623,17.4405055 C146.18162,13.1735177 145.286221,6.8231679 144.493623,6.10218207 C143.701026,5.38119624 142.526978,5.4166027 142.526978,5.4166027 Z" id="Path-26"></path>
                        <g id="Group" transform="translate(0.000000, 2.153893)">
                            <path d="M16.3042485,3.30655257 L13.7605114,0.013995859 C13.7605114,0.013995859 11.2352486,0.578004901 7.47157203,5.58808365 C3.70789542,10.5981624 5.24385872,16.7786065 4.09643028,19.8550009 C2.94900184,22.9313954 1.0159504,23.5376424 0.758922879,23.9703996 C0.50189536,24.4031568 -0.307462937,24.9925516 0.628057007,25.5000627 C1.56357695,26.0075738 4.96031638,24.6120807 5.83168608,22.2335406 C6.70305578,19.8550005 7.02679949,16.696722 8.14557432,12.3890351 C9.26434915,8.08134828 12.7900303,4.80510377 14.1611278,3.87196607 C15.5322253,2.93882837 16.3042485,3.30655257 16.3042485,3.30655257 Z" id="S"></path>
                        </g>
                        <path d="M16.7907937,5.9191898 C16.7907937,5.9191898 13.373551,9.80543201 12.068235,16.827181 C10.762919,23.8489299 11.5619191,26.2016072 12.6612144,27.1140362 C13.7605097,28.0264652 18.0400635,29.2300152 20.4408692,24.2623228 C22.8416748,19.2946304 22.8764441,14.5423567 23.9544625,12.057464 C25.0324809,9.57257136 26.029717,8.72223797 27.1983782,7.91080172 C28.3670394,7.09936547 28.2860833,6.45276318 28.1070482,6.08594238 C27.9280132,5.71912158 26.5341304,5.25531916 24.7340886,6.58306044 C22.9340468,7.91080172 21.0994086,9.89090106 20.1772459,14.8702801 C19.2550831,19.8496591 18.4657703,22.7868418 16.9641208,24.2079015 C15.4624713,25.6289611 14.3265041,25.6347178 14.3265041,23.7556112 C14.326504,21.8765047 14.8502909,17.4601779 15.9072059,14.0065157 C16.9641209,10.5528534 17.0409245,10.199638 17.953573,9.48134592 C18.8662216,8.76305388 19.7942654,8.41524572 19.1319207,7.49915308 C18.469576,6.58306045 16.7907937,5.9191898 16.7907937,5.9191898 Z" id="Path-501"></path>
                        <path d="M31.5730032,3.89069256 C31.5730032,3.89069256 35.6775821,4.86388065 36.0983889,5.30355744 C36.5191957,5.74323422 37.5871216,10.4004619 37.5871219,12.2260951 C37.5871222,14.0517283 37.5547914,14.2857971 36.6981244,14.9866236 C35.8414573,15.6874502 32.4469475,18.3365506 31.2741618,18.7032638 C30.1013762,19.069977 29.5264444,18.9951167 29.5264444,18.9951167 C29.5264444,18.9951167 27.7652132,26.5720818 27.3274713,27.155787 C26.8897294,27.7394921 26.3106922,27.9390636 25.9167416,27.9390636 C25.5227909,27.9390636 24.5251705,27.6473839 25.1001023,25.1785351 C25.6750341,22.7096863 27.9728798,13.5451254 29.2655783,9.56164341 C30.5582768,5.57816138 31.5730032,3.89069256 31.5730032,3.89069256 Z M33.4668442,6.80508212 C33.4668442,6.80508212 35.2296148,8.65175929 34.9270102,9.96682221 C34.6244055,11.2818851 34.336854,12.0862056 33.3221276,13.1977308 C32.3074012,14.3092559 31.4486813,14.0808794 31.058494,15.2269021 C30.6683066,16.3729247 32.1492372,11.2089222 32.5797283,10.1531113 C33.0102194,9.09730048 33.4668442,6.80508212 33.4668442,6.80508212 Z" id="Path-502"></path>
                        <path d="M42.260425,3.49667095 C42.260425,3.49667095 39.8441585,10.3077995 38.7199049,15.5241971 C37.5956512,20.7405948 36.7470157,24.6970428 36.3737284,25.6927096 C36.000441,26.6883765 36.3366631,27.159551 36.7784596,27.1595503 C37.2202561,27.1595496 40.1608819,25.6335478 41.4218022,24.7345958 C42.6827225,23.8356438 45.1010971,23.6739218 45.5527311,22.3709294 C46.0043651,21.0679371 45.5645005,20.2655234 44.9447559,20.2655234 C44.3250113,20.2655234 43.8361366,20.9336694 43.0482808,21.243299 C42.260425,21.5529287 39.7953235,22.1500449 39.533232,22.368981 C39.2711405,22.587917 39.9142486,21.9413816 40.5556,19.317329 C41.1969514,16.6932764 41.3845613,16.0525857 41.3845613,16.0525857 C41.3845613,16.0525857 43.9262529,16.192521 44.6104662,15.9737614 C45.2946794,15.7550018 45.9398956,14.9802212 46.1236411,14.49523 C46.3073865,14.0102387 45.8831561,13.5093058 44.8880162,13.6967132 C43.8928763,13.8841205 42.0533165,13.3341214 42.0533165,13.3341214 C42.0533165,13.3341214 43.832272,7.18511712 44.3601441,6.76920812 C44.8880162,6.35329911 45.5859321,6.36906411 46.8352584,5.94713261 C48.0845847,5.52520112 49.5079955,5.0579236 48.8432805,4.16694325 C48.1785656,3.27596289 48.4443463,3.34114793 45.7463135,3.15179247 C43.0482807,2.96243702 42.260425,3.49667095 42.260425,3.49667095 Z" id="Path-503"></path>
                        <path d="M53.3928552,0.197015248 C53.3928552,0.197015248 50.5824939,6.33655658 49.7242853,9.02960121 C48.8660767,11.7226458 48.1136193,15.7906674 48.1136193,17.618499 C48.1136193,19.4463306 47.1196634,21.6942089 47.1196634,22.6566582 C47.1196634,23.6191076 47.1084783,24.6194924 48.1966607,24.1059707 C49.2848432,23.5924489 50.2977801,19.9654937 50.5184332,19.1230087 C50.7390862,18.2805236 51.2710603,15.2164785 51.2710603,15.2164785 L53.2835455,15.581669 C53.2835455,15.581669 53.8099268,19.861079 54.1248067,20.7529511 C54.4396865,21.6448232 55.2034986,22.6147897 56.1259372,22.6147904 C57.0483758,22.614791 58.8325818,22.4095516 59.3098159,21.9587462 C59.7870501,21.5079408 59.9133075,20.3498225 59.2154198,19.9883922 C58.517532,19.626962 57.5461162,19.8209207 57.1312477,19.8209207 C56.7163793,19.8209207 56.6994322,15.7527296 56.6994319,15.7527293 C56.6994317,15.7527289 56.5108094,14.0544311 55.4187287,13.7063295 C54.3266481,13.358228 54.1303992,13.1300907 54.1303992,13.1300907 C54.1303992,13.1300907 58.0479244,9.82064776 58.5270227,9.13982483 C59.0061211,8.4590019 59.4040428,6.37073403 58.5609172,4.99370788 C57.7177916,3.61668173 56.9407606,1.93530152 55.8524087,1.06615839 C54.7640568,0.197015248 53.3928552,0.197015248 53.3928552,0.197015248 Z M54.7760756,3.08436138 C54.7760756,3.08436138 56.5224891,4.91390273 56.2226924,6.21676282 C55.9228957,7.51962291 55.6380124,8.31647986 54.632702,9.41769088 C53.6273915,10.5189019 52.7766399,10.2926446 52.3900732,11.428033 C52.0035065,12.5634214 53.4706952,7.44733698 53.8971916,6.4013233 C54.323688,5.35530962 54.7760756,3.08436138 54.7760756,3.08436138 Z" id="Path-504"></path>
                    </g>
                    <g id="Fruta" transform="translate(60.046310, 0.000000)" fill="#FEFEFE" sketch:type="MSShapeGroup">
                        <path d="M36.7724536,7.58306669 L33.6480809,3.53648936 C33.6480809,3.53648936 30.5463995,4.22966078 25.9236228,10.3870858 C21.3008461,16.5445108 23.1874097,24.1403238 21.7780682,27.9212361 C20.3687268,31.7021483 17.9944353,32.4472305 17.6787385,32.9790925 C17.3630416,33.5109544 16.3689385,34.2353251 17.518001,34.8590601 C18.6670636,35.4827951 22.8391457,33.7677235 23.909415,30.8444795 C24.9796843,27.9212355 25.377326,24.0396871 26.7514734,18.7455071 C28.1256207,13.4513271 32.4560769,9.42479756 34.1401423,8.2779642 C35.8242077,7.13113084 36.7724536,7.58306669 36.7724536,7.58306669 Z" id="Path"></path>
                        <path d="M18.6084943,38.3385939 C18.6084943,38.3385939 21.0002519,34.0755535 26.6659309,30.9707411 C28.867233,29.7644196 29.7475202,29.098926 32.3403555,28.8078199 C34.5703503,28.5574511 42.0912886,31.9111221 46.0964866,25.4182232 C47.4365218,23.2458678 47.8595537,21.384738 48.4208759,17.4420632 C48.982198,13.4993884 46.967343,9.1495495 45.6658036,7.71418629 C43.7501922,5.6016125 41.5726726,3.78223937 39.1868248,3.78223937 C36.8009771,3.78223937 37.3439289,4.35852209 35.7307075,4.73125127 C34.6143173,4.98918931 31.1949443,4.9410218 26.6659309,3.7822395 C22.1369175,2.6234572 21.8920553,2.1654141 18.6084942,3.06689576 C15.324933,3.96837741 12.5267362,6.68211598 12.5267362,6.68211598 C12.5267362,6.68211598 9.45355206,11.2521896 7.28412204,13.6791537 C5.11469203,16.1061178 3.08617013,20.8520016 7.29278926,27.4220356 C11.7712437,33.3332065 15.1945572,32.7167187 16.8997131,31.6072994 C17.0782574,32.4444445 17.9252022,33.6709634 17.9252022,33.6709634 C17.9252022,33.6709634 14.8022739,36.3537392 10.2617041,35.5882114 C5.72113441,34.8226835 1.77939028,28.484429 0.913982139,25.9541739 C0.0485740023,23.4239188 -0.762414748,17.7657204 3.11282815,12.9298219 C6.98807106,8.09392345 11.3333136,4.62124148 13.3868132,3.33449901 C14.8676194,2.46469535 15.3411915,1.83907515 17.1925865,1.25941841 C19.0439816,0.679761673 20.2585726,0.136482951 23.2654666,0.136482951 C26.2723605,0.136482951 27.5081484,1.83907523 30.2096919,1.8390751 C32.9112355,1.83907496 32.6459136,0.704190728 40.4204061,1.57911909 C48.1948985,2.45404745 53.4953483,10.4677018 53.4953452,16.3235883 C53.495342,22.1794749 53.07249,27.6442875 47.5814159,33.0327299 C42.0903418,38.4211724 37.2542996,33.954658 36.0408887,33.4936938 C34.8274778,33.0327295 33.3947617,31.0045948 28.8949018,33.4966146 C24.3950418,35.9886344 23.7954279,36.5473129 22.5032251,37.0558075 C21.2110224,37.5643022 18.6084943,38.3385939 18.6084943,38.3385939 Z M44.0992969,31.6017772 C44.0992969,31.6017772 46.7456863,31.2411843 48.4268633,27.6554384 C50.1080402,24.0696925 50.1810549,21.5983845 50.1810549,21.5983845 C50.1810549,21.5983845 47.9735416,25.0723414 47.0495641,27.1708422 C46.1255866,29.269343 44.0992969,31.6017772 44.0992969,31.6017772 Z M3.64034634,17.1543057 C3.64034634,17.1543057 0.331834104,20.5952038 3.9282029,25.2688354 C3.44815745,21.9703147 3.64034633,22.3655731 3.64034633,21.0722988 C3.64034633,19.7790245 3.44040945,18.4909281 3.64034634,17.1543057 Z" id="Path-6"></path>
                        <path d="M18.184326,18.9228826 C18.184326,18.9228826 26.8504898,16.0702707 29.4850603,16.0702707 C32.1196308,16.0702707 37.429482,16.6435546 38.3035569,16.1618793 C39.1776318,15.680204 37.5547624,17.9887406 33.6778909,18.7484279 C29.8010194,19.5081153 29.4821715,18.8225114 27.9530645,18.8225114 C26.4239575,18.8225114 23.2076333,18.5771597 20.8627579,20.1408785 C18.5178824,21.7045974 19.1140817,21.1044946 18.2867567,20.2412497 C17.4594317,19.3780048 18.184326,18.9228826 18.184326,18.9228826 Z" id="Path-5"></path>
                    </g>
                    <text id=".-es" sketch:type="MSTextLayer" font-family="Arial Narrow" font-size="6.25255102" font-style="italic" font-weight="bold" fill="#FEFEFE">
                        <tspan x="134.853914" y="46.6750779">. </tspan>
                        <tspan x="137.70542" y="46.6750779" font-size="8.23153409" letter-spacing="2">es</tspan>
                    </text>
                </g>
            </g>
        </g>
    </g>
</svg>