<?xml version="1.0" encoding="UTF-8" standalone="no"?>
<svg width="372px" height="345px" viewBox="0 0 372 345" version="1.1" xmlns="http://www.w3.org/2000/svg" xmlns:xlink="http://www.w3.org/1999/xlink" xmlns:sketch="http://www.bohemiancoding.com/sketch/ns">
    <!-- Generator: Sketch 3.2.2 (9983) - http://www.bohemiancoding.com/sketch -->
    <title>Fill 127 + Stroke 185 + Fill 127 + Stroke 186</title>
    <desc>Created with Sketch.</desc>
    <defs>
        <rect id="path-1" x="0" y="0" width="554" height="345"></rect>
    </defs>
    <g id="Blank-Project" stroke="none" stroke-width="1" fill="none" fill-rule="evenodd" sketch:type="MSPage">
        <g id="Pagina-Producto-7" sketch:type="MSArtboardGroup" transform="translate(-451.000000, -201.000000)">
            <g id="Fill-127-+-Stroke-185-+-Fill-127-+-Stroke-186" sketch:type="MSLayerGroup" transform="translate(304.000000, 201.000000)">
                <g id="Fill-127-+-Stroke-185-+-Fill-127-+-Stroke-186-+-Fill-127-+-Stroke-187">
                    <g id="Stroke-181">
                        <mask id="mask-2" sketch:name="Mask" fill="white">
                            <use xlink:href="#path-1"></use>
                        </mask>
                        <use id="Mask" sketch:type="MSShapeGroup" xlink:href="#path-1"></use>
                        <path d="M399.982879,285.465268 C396.575968,283.666328 393.15496,282.055268 389.649367,280.404283 C376.50809,274.213677 361.611668,267.198753 342.105342,247.88951 C322.032765,228.021328 311.062513,213.404359 307.657952,208.627541 C300.55983,207.368753 276.373115,202.39701 261.60122,190.936404 C237.207741,172.009965 236.326643,156.521707 239.883928,146.860041 C244.110846,135.373601 247.322741,126.639586 257.710294,116.275722 C255.153936,115.763753 252.790245,115.589965 251.540261,116.111328 C250.38896,116.588071 248.920464,117.16345 247.287497,117.802238 C243.28144,119.368677 233.899513,123.03701 232.259497,124.756101 C229.714887,128.403298 222.626164,132.071631 220.516229,133.104965 C211.4327,136.113374 201.266009,139.861556 198.798936,141.37398 C197.62179,143.468828 194.26657,151.319813 191.627977,157.916707 C190.97244,159.553601 189.431107,160.669131 187.668911,160.781859 C185.906716,160.892238 184.238505,159.981025 183.380903,158.438071 C182.93918,157.641934 182.495107,156.845798 182.053383,156.049662 C180.563741,157.418828 179.097594,159.102692 178.385668,160.833525 C175.512115,167.817919 165.582733,172.68398 163.620822,173.590495 C161.771692,174.442995 159.579521,173.97095 158.247302,172.430344 C156.912733,170.892086 156.757659,168.656328 157.869017,166.94898 C157.864318,166.951328 159.692302,163.860722 158.376529,162.465722 C157.070155,161.080116 153.590407,157.392995 161.167846,143.943222 C159.532529,144.680647 158.362432,145.380495 157.948903,145.932389 C157.380302,147.071404 156.393472,147.865192 155.169334,148.222162 C153.947546,148.576783 152.662318,148.351328 151.569757,147.696101 C148.912367,146.10148 145.148318,140.815041 149.925042,132.221934 C151.870505,128.725041 153.0547,126.296707 153.768977,124.612844 C151.327749,125.054359 149.422229,124.197162 148.440098,122.555571 C146.633261,119.530722 145.207058,112.320874 152.735155,106.675116 C153.57396,106.048071 154.396318,105.435116 155.19518,104.84095 C154.976668,104.599056 154.781651,104.331328 154.61483,104.037768 C153.801871,102.609889 153.820668,100.853222 154.661822,99.4394345 C154.760505,99.2750405 157.114798,95.3577678 162.918294,88.6739799 C168.599611,82.1240557 177.84996,78.2467072 179.943448,77.427086 C184.182115,74.9353436 201.388188,64.8744345 205.288513,63.317389 C213.505042,60.0318587 226.909472,55.3466315 233.596416,56.7064042 C233.850172,55.1587527 234.888692,53.8295102 236.371285,53.2212527 C238.088838,52.5167072 240.060147,52.9182981 241.364172,54.2381466 C244.406895,57.3193587 247.449619,60.4005708 250.492342,63.4794345 C252.93592,61.0534496 255.149237,58.6368587 255.729586,57.582389 C256.685871,55.8445102 258.344684,54.7289799 260.283098,54.5152678 C260.659033,54.4729951 261.044367,54.4682981 261.439098,54.4988284 C261.19709,53.397389 260.957432,52.2959496 260.715424,51.1968587 C260.393529,49.7173133 260.821155,48.1743587 261.864375,47.0752678 C262.522261,46.3801163 263.370464,45.9198133 264.284456,45.7366315 C263.687659,44.2453436 263.090863,42.7540557 262.494066,41.2627678 C261.984204,39.989889 262.073489,38.5526163 262.738424,37.3525405 C263.403359,36.1501163 264.571107,35.3117072 265.922123,35.0674648 C266.11009,35.0251921 272.202586,33.6254951 275.76222,25.3212527 C280.177107,15.0254951 282.463261,3.78329812 282.484407,3.67057085 C282.853294,1.83170721 284.312391,0.40617691 286.161521,0.0726920613 C288.008302,-0.260792787 289.873879,0.572919334 290.863058,2.16754055 C291.553838,3.28072236 292.484277,4.49723752 293.266692,5.35678297 C294.150139,4.82367691 295.181611,4.56299509 296.194285,4.71094964 C296.993147,4.82837388 304.065424,6.03079812 306.718115,12.0593587 C308.529651,16.1762527 310.623139,24.3043587 310.855749,25.2155708 C311.290424,26.9229193 310.703025,28.7289042 309.352009,29.8561769 C308.177212,30.8354951 306.953074,31.9674648 305.959196,32.9679193 C307.968098,34.6776163 309.227481,36.6479951 309.565822,37.2116315 C310.519757,38.7992072 310.418724,40.8048133 309.314416,42.2890557 C308.210107,43.7756466 306.316334,44.4496618 304.521245,43.9987527 C303.480375,43.7357224 302.277383,43.5243587 301.243562,43.404586 C301.386887,44.5600405 301.556058,45.3585254 301.558407,45.3726163 C301.854456,46.7605708 301.480871,48.2119345 300.55983,49.294586 C299.63644,50.374889 298.259578,50.9690557 296.840424,50.8962527 C295.801903,50.844586 294.584814,50.9150405 293.640277,51.0559496 C293.91518,51.9718587 294.190082,52.8877678 294.464985,53.8060254 C294.817424,54.9826163 294.681147,56.2554951 294.084351,57.3311012 C293.489903,58.4090557 292.484277,59.2004951 291.297733,59.5269345 C288.059993,60.4193587 284.357033,61.8425405 283.532326,62.5142072 C283.537025,62.5095102 283.969351,62.1525405 284.258351,61.3728436 C284.78231,59.9567072 284.591993,58.6227678 283.717944,57.3921618 C282.709968,55.9713284 281.248521,55.6754193 280.816196,55.6824648 C283.518229,55.6331466 295.860643,51.1193587 300.094611,43.554889 C308.069131,29.3066315 315.021578,22.8083739 320.756936,24.2409496 L321.94818,24.5462527 C331.877562,27.1154951 334.798107,27.284586 335.655708,27.1577678 C335.089456,27.2423133 333.745489,27.9421618 333.202733,29.5649648 C332.565993,31.4766315 333.266172,33.1370102 334.910887,34.2995102 C336.698928,35.5629951 338.820611,35.1520102 339.68996,34.4732981 C338.646741,35.2858739 336.219611,38.5690557 336.041042,39.8043587 C335.965855,41.7348133 337.570627,46.7605708 338.679635,49.531783 C339.154253,50.7224648 339.109611,52.0587527 338.552757,53.2165557 C337.993554,54.3720102 336.97618,55.2409496 335.747342,55.6096618 C335.674505,55.6307981 328.388416,57.8383739 323.473066,60.6448133 C322.624863,61.1286012 321.724968,61.7509496 320.820375,62.4437527 C321.616887,62.2112527 322.458042,61.9176921 323.33444,61.5513284 C331.261968,58.2517072 334.08618,55.2339042 334.114375,55.2033739 C335.329115,53.8788284 337.26283,53.324586 338.970985,53.8858739 C339.025025,53.9023133 344.452586,55.6754193 355.051603,58.4748133 C364.212668,60.8937527 376.174448,55.6613284 376.294277,55.6096618 C378.498196,54.6303436 381.087448,55.5298133 382.205855,57.664586 C383.326611,59.7993587 382.598237,62.4343587 380.539993,63.6884496 C380.250993,63.8810254 379.440383,64.6114042 379.325253,65.2689799 C379.221871,65.8654951 379.769326,66.7039042 380.105318,67.1524648 C383.587416,71.7907224 388.24431,72.9555708 388.288952,72.9649648 C390.704334,73.479283 392.276212,75.8160254 391.841537,78.2443587 C391.77105,78.6318587 389.973611,87.734586 375.843155,85.8604951 C369.008188,84.9516315 364.896399,81.839889 361.893619,79.5689042 C360.721172,78.6811769 359.262074,77.577389 358.70522,77.577389 C358.021489,78.5308739 358.037936,79.3035254 358.120172,79.6604951 C361.912416,86.8233739 359.548724,91.5226921 356.012586,93.3826921 C355.350001,93.8829193 354.118814,96.5343587 353.625399,98.3262527 C353.09909,100.233222 351.407383,101.583601 349.429025,101.677541 C347.453017,101.77148 345.636781,100.580798 344.934253,98.7301921 C343.44931,94.8223133 338.947489,86.5298133 334.511456,85.8464042 L333.602164,85.7054951 C325.740424,84.479586 309.382554,81.9338284 301.271757,87.6336012 C296.664204,90.8721618 294.389798,94.167086 293.292537,97.2201163 C300.651464,95.7429193 312.629692,94.4418587 323.494212,98.2417072 C339.953115,104.000192 347.687977,122.889056 351.844407,133.036859 L352.659716,135.016631 C357.232025,145.988753 353.618351,163.344056 347.516456,172.059283 L346.609513,173.346253 C341.42631,180.687616 334.971977,189.825571 338.738375,200.325647 C343.096871,212.483753 357.751285,232.809889 369.482806,242.974131 C380.805497,252.781404 391.336375,259.66951 406.808448,268.948374 C422.978351,278.647616 434.141269,294.939056 435.346611,299.758147 C435.849424,301.766101 435.543977,303.788147 434.491359,305.455571 C432.679822,308.316025 429.343399,309.107465 428.694911,309.23898 C426.85283,309.607692 424.970806,308.806859 423.951082,307.231025 C423.861798,307.092465 414.846407,293.323298 399.982879,285.465268 Z" fill="#AB456C" sketch:type="MSShapeGroup" mask="url(#mask-2)"></path>
                        <path d="M326.317938,344.566862 C324.172409,343.435271 322.018003,342.421862 319.810328,341.383339 C311.534507,337.489248 302.153369,333.076635 289.869108,320.930498 C277.228247,308.432771 270.319645,299.238226 268.175596,296.233453 C263.705499,295.441635 248.473726,292.314248 239.171011,285.105157 C223.809027,273.199817 223.254149,263.457203 225.494377,257.379703 C228.156312,250.154362 230.179027,244.660385 236.720669,238.14118 C235.110783,237.819135 233.62223,237.709817 232.835043,238.037771 C232.110003,238.337657 231.185206,238.699589 230.156832,239.101407 C227.633986,240.086748 221.725645,242.394248 220.692832,243.475612 C219.090344,245.769817 214.626165,248.077317 213.297417,248.727317 C207.576995,250.619703 201.174442,252.97743 199.620783,253.928794 C198.879466,255.246521 196.76649,260.185044 195.104816,264.334703 C194.691986,265.364362 193.72132,266.066067 192.611564,266.136976 C191.501808,266.206407 190.451238,265.633226 189.911157,264.662657 C189.632978,264.161862 189.35332,263.661067 189.075141,263.160271 C188.137027,264.021521 187.21371,265.080726 186.765369,266.169476 C184.955726,270.562885 178.702621,273.623794 177.467092,274.194021 C176.302588,274.730271 174.922051,274.433339 174.083076,273.464248 C173.242621,272.496635 173.144962,271.090271 173.844848,270.016294 C173.841889,270.017771 174.993076,268.07368 174.164458,267.19618 C173.341759,266.324589 171.15036,264.005271 175.922312,255.54493 C174.892458,256.008794 174.15558,256.449021 173.895157,256.79618 C173.537076,257.512657 172.915612,258.011976 172.144702,258.236521 C171.375271,258.459589 170.565889,258.317771 169.87784,257.905612 C168.204328,256.902544 165.833889,253.577203 168.842068,248.171862 C170.067238,245.972203 170.812995,244.444703 171.262816,243.385498 C169.725434,243.663226 168.525417,243.124021 167.906913,242.091407 C166.769043,240.18868 165.870881,235.653453 170.611759,232.102089 C171.140003,231.707657 171.657889,231.322089 172.160978,230.948339 C172.023369,230.79618 171.900555,230.627771 171.795499,230.443112 C171.283531,229.54493 171.295369,228.43993 171.825092,227.550612 C171.887238,227.447203 173.369873,224.983112 177.024669,220.778794 C180.602523,216.65868 186.428003,214.219703 187.746393,213.704135 C190.415726,212.136748 201.251385,205.808112 203.707645,204.82868 C208.882068,202.761976 217.323612,199.814817 221.534767,200.670157 C221.694572,199.696635 222.348588,198.860498 223.282263,198.477885 C224.363905,198.034703 225.605352,198.287317 226.426572,199.117544 C228.342751,201.055726 230.258929,202.993907 232.175108,204.930612 C233.71397,203.404589 235.107824,201.884476 235.473303,201.22118 C236.075531,200.127998 237.120182,199.426294 238.340913,199.291862 C238.577661,199.265271 238.820328,199.262317 239.068913,199.281521 C238.916507,198.58868 238.76558,197.895839 238.613173,197.204476 C238.410458,196.273794 238.679759,195.303226 239.336734,194.611862 C239.751043,194.174589 240.285206,193.885044 240.860799,193.769817 C240.484962,192.831748 240.109125,191.89368 239.733287,190.955612 C239.412198,190.15493 239.468425,189.250839 239.887173,188.495953 C240.305921,187.739589 241.04132,187.212203 241.892133,187.058567 C242.010507,187.031976 245.847303,186.151521 248.089011,180.927885 C250.86932,174.451521 252.309043,167.379817 252.32236,167.308907 C252.554669,166.152203 253.473547,165.255498 254.638051,165.045726 C255.801076,164.835953 256.975938,165.360385 257.598881,166.363453 C258.033905,167.06368 258.619856,167.828907 259.112588,168.369589 C259.668946,168.034248 260.318523,167.870271 260.956263,167.963339 C261.459352,168.037203 265.913173,168.793567 267.583726,172.585726 C268.724555,175.175385 270.042946,180.288226 270.189434,180.861407 C270.463173,181.935385 270.093255,183.071407 269.242442,183.780498 C268.502604,184.396521 267.731694,185.108567 267.105791,185.737885 C268.370913,186.813339 269.164019,188.052771 269.377092,188.407317 C269.97784,189.405953 269.914214,190.667544 269.218767,191.60118 C268.52332,192.536294 267.330702,192.960271 266.20023,192.676635 C265.544734,192.51118 264.787141,192.378226 264.136084,192.302885 C264.226344,193.029703 264.332881,193.531976 264.33436,193.540839 C264.520799,194.413907 264.285531,195.326862 263.705499,196.007885 C263.123986,196.68743 262.256897,197.06118 261.363173,197.015385 C260.709157,196.982885 259.942686,197.027203 259.347856,197.115839 C259.520978,197.691976 259.6941,198.268112 259.867222,198.845726 C260.089173,199.585839 260.003352,200.386521 259.627515,201.063112 C259.253157,201.74118 258.619856,202.239021 257.872621,202.444362 C255.833629,203.005726 253.501661,203.900953 252.982295,204.323453 C252.985255,204.320498 253.257515,204.095953 253.439515,203.605498 C253.769482,202.714703 253.649629,201.875612 253.09919,201.101521 C252.464409,200.207771 251.544051,200.021635 251.271791,200.026067 C252.973417,199.995044 260.746149,197.155726 263.412523,192.39743 C268.434539,183.434817 272.812897,179.347203 276.424783,180.248339 L277.174978,180.440385 C283.428084,182.056521 285.26732,182.162885 285.807401,182.083112 C285.450799,182.136294 284.604425,182.576521 284.262621,183.597317 C283.861629,184.799817 284.302572,185.844248 285.338344,186.575498 C286.464377,187.370271 287.800523,187.111748 288.348003,186.684817 C287.691027,187.195953 286.162523,189.26118 286.050068,190.038226 C286.002718,191.252544 287.013336,194.413907 287.711742,196.157089 C288.010637,196.906067 287.982523,197.746635 287.63184,198.47493 C287.279677,199.201748 286.638978,199.748339 285.865108,199.980271 C285.819238,199.993567 281.230767,201.382203 278.135287,203.147544 C277.601125,203.451862 277.034409,203.843339 276.464734,204.279135 C276.966344,204.132885 277.496068,203.948226 278.047986,203.717771 C283.040409,201.642203 284.818978,199.743907 284.836734,199.724703 C285.601726,198.891521 286.819499,198.542885 287.895222,198.895953 C287.929255,198.906294 291.347303,200.021635 298.022116,201.782544 C303.791369,203.304135 311.324393,200.012771 311.399856,199.980271 C312.787791,199.364248 314.418393,199.930044 315.122718,201.272885 C315.828523,202.615726 315.369824,204.273226 314.073629,205.062089 C313.891629,205.183226 313.381141,205.642657 313.308637,206.056294 C313.243531,206.431521 313.588295,206.958907 313.799889,207.241067 C315.992767,210.15868 318.925482,210.891407 318.953596,210.897317 C320.474702,211.220839 321.464604,212.690726 321.190864,214.218226 C321.146474,214.461976 320.014523,220.187885 311.115759,219.009021 C306.811385,218.437317 304.221954,216.47993 302.330929,215.051407 C301.592572,214.492998 300.673694,213.79868 300.323011,213.79868 C299.892425,214.398453 299.902783,214.884476 299.954572,215.109021 C302.342767,219.614703 300.854214,222.570726 298.627303,223.740726 C298.210035,224.055385 297.434686,225.723226 297.123954,226.850385 C296.792507,228.04993 295.727141,228.899362 294.481255,228.958453 C293.236848,229.017544 292.09306,228.268567 291.650637,227.104476 C290.715482,224.646294 287.880425,219.430044 285.086799,219.000157 L284.514165,218.911521 C279.563173,218.140385 269.261677,216.539021 264.15384,220.124362 C261.252198,222.161521 259.819873,224.234135 259.128864,226.154589 C263.763206,225.225385 271.306588,224.406976 278.148604,226.797203 C288.513726,230.419476 293.384816,242.30118 296.00236,248.684476 L296.515808,249.929817 C299.395255,256.831635 297.119515,267.74868 293.276799,273.230839 L292.705645,274.040385 C289.441482,278.658339 285.376816,284.406407 287.748734,291.011294 C290.493531,298.659135 299.722263,311.44493 307.110279,317.838567 C314.240832,324.007657 320.872734,328.340498 330.616393,334.177203 C340.799515,340.278339 347.82945,350.52618 348.588523,353.557544 C348.905173,354.820612 348.712816,356.092544 348.049921,357.141407 C346.909092,358.940726 344.807954,359.438567 344.399564,359.521294 C343.239499,359.753226 342.054279,359.249476 341.4121,358.258226 C341.355873,358.171067 335.67836,349.509817 326.317938,344.566862 Z" id="Stroke-182" fill="#AB456C" sketch:type="MSShapeGroup" mask="url(#mask-2)">
                            <g transform="translate(258.000000, 262.500000) scale(-1, 1) translate(-258.000000, -262.500000) "></g>
                        </path>
                        <path d="M496.317938,304.566862 C494.172409,303.435271 492.018003,302.421862 489.810328,301.383339 C481.534507,297.489248 472.153369,293.076635 459.869108,280.930498 C447.228247,268.432771 440.319645,259.238226 438.175596,256.233453 C433.705499,255.441635 418.473726,252.314248 409.171011,245.105157 C393.809027,233.199817 393.254149,223.457203 395.494377,217.379703 C398.156312,210.154362 400.179027,204.660385 406.720669,198.14118 C405.110783,197.819135 403.62223,197.709817 402.835043,198.037771 C402.110003,198.337657 401.185206,198.699589 400.156832,199.101407 C397.633986,200.086748 391.725645,202.394248 390.692832,203.475612 C389.090344,205.769817 384.626165,208.077317 383.297417,208.727317 C377.576995,210.619703 371.174442,212.97743 369.620783,213.928794 C368.879466,215.246521 366.76649,220.185044 365.104816,224.334703 C364.691986,225.364362 363.72132,226.066067 362.611564,226.136976 C361.501808,226.206407 360.451238,225.633226 359.911157,224.662657 C359.632978,224.161862 359.35332,223.661067 359.075141,223.160271 C358.137027,224.021521 357.21371,225.080726 356.765369,226.169476 C354.955726,230.562885 348.702621,233.623794 347.467092,234.194021 C346.302588,234.730271 344.922051,234.433339 344.083076,233.464248 C343.242621,232.496635 343.144962,231.090271 343.844848,230.016294 C343.841889,230.017771 344.993076,228.07368 344.164458,227.19618 C343.341759,226.324589 341.15036,224.005271 345.922312,215.54493 C344.892458,216.008794 344.15558,216.449021 343.895157,216.79618 C343.537076,217.512657 342.915612,218.011976 342.144702,218.236521 C341.375271,218.459589 340.565889,218.317771 339.87784,217.905612 C338.204328,216.902544 335.833889,213.577203 338.842068,208.171862 C340.067238,205.972203 340.812995,204.444703 341.262816,203.385498 C339.725434,203.663226 338.525417,203.124021 337.906913,202.091407 C336.769043,200.18868 335.870881,195.653453 340.611759,192.102089 C341.140003,191.707657 341.657889,191.322089 342.160978,190.948339 C342.023369,190.79618 341.900555,190.627771 341.795499,190.443112 C341.283531,189.54493 341.295369,188.43993 341.825092,187.550612 C341.887238,187.447203 343.369873,184.983112 347.024669,180.778794 C350.602523,176.65868 356.428003,174.219703 357.746393,173.704135 C360.415726,172.136748 371.251385,165.808112 373.707645,164.82868 C378.882068,162.761976 387.323612,159.814817 391.534767,160.670157 C391.694572,159.696635 392.348588,158.860498 393.282263,158.477885 C394.363905,158.034703 395.605352,158.287317 396.426572,159.117544 C398.342751,161.055726 400.258929,162.993907 402.175108,164.930612 C403.71397,163.404589 405.107824,161.884476 405.473303,161.22118 C406.075531,160.127998 407.120182,159.426294 408.340913,159.291862 C408.577661,159.265271 408.820328,159.262317 409.068913,159.281521 C408.916507,158.58868 408.76558,157.895839 408.613173,157.204476 C408.410458,156.273794 408.679759,155.303226 409.336734,154.611862 C409.751043,154.174589 410.285206,153.885044 410.860799,153.769817 C410.484962,152.831748 410.109125,151.89368 409.733287,150.955612 C409.412198,150.15493 409.468425,149.250839 409.887173,148.495953 C410.305921,147.739589 411.04132,147.212203 411.892133,147.058567 C412.010507,147.031976 415.847303,146.151521 418.089011,140.927885 C420.86932,134.451521 422.309043,127.379817 422.32236,127.308907 C422.554669,126.152203 423.473547,125.255498 424.638051,125.045726 C425.801076,124.835953 426.975938,125.360385 427.598881,126.363453 C428.033905,127.06368 428.619856,127.828907 429.112588,128.369589 C429.668946,128.034248 430.318523,127.870271 430.956263,127.963339 C431.459352,128.037203 435.913173,128.793567 437.583726,132.585726 C438.724555,135.175385 440.042946,140.288226 440.189434,140.861407 C440.463173,141.935385 440.093255,143.071407 439.242442,143.780498 C438.502604,144.396521 437.731694,145.108567 437.105791,145.737885 C438.370913,146.813339 439.164019,148.052771 439.377092,148.407317 C439.97784,149.405953 439.914214,150.667544 439.218767,151.60118 C438.52332,152.536294 437.330702,152.960271 436.20023,152.676635 C435.544734,152.51118 434.787141,152.378226 434.136084,152.302885 C434.226344,153.029703 434.332881,153.531976 434.33436,153.540839 C434.520799,154.413907 434.285531,155.326862 433.705499,156.007885 C433.123986,156.68743 432.256897,157.06118 431.363173,157.015385 C430.709157,156.982885 429.942686,157.027203 429.347856,157.115839 C429.520978,157.691976 429.6941,158.268112 429.867222,158.845726 C430.089173,159.585839 430.003352,160.386521 429.627515,161.063112 C429.253157,161.74118 428.619856,162.239021 427.872621,162.444362 C425.833629,163.005726 423.501661,163.900953 422.982295,164.323453 C422.985255,164.320498 423.257515,164.095953 423.439515,163.605498 C423.769482,162.714703 423.649629,161.875612 423.09919,161.101521 C422.464409,160.207771 421.544051,160.021635 421.271791,160.026067 C422.973417,159.995044 430.746149,157.155726 433.412523,152.39743 C438.434539,143.434817 442.812897,139.347203 446.424783,140.248339 L447.174978,140.440385 C453.428084,142.056521 455.26732,142.162885 455.807401,142.083112 C455.450799,142.136294 454.604425,142.576521 454.262621,143.597317 C453.861629,144.799817 454.302572,145.844248 455.338344,146.575498 C456.464377,147.370271 457.800523,147.111748 458.348003,146.684817 C457.691027,147.195953 456.162523,149.26118 456.050068,150.038226 C456.002718,151.252544 457.013336,154.413907 457.711742,156.157089 C458.010637,156.906067 457.982523,157.746635 457.63184,158.47493 C457.279677,159.201748 456.638978,159.748339 455.865108,159.980271 C455.819238,159.993567 451.230767,161.382203 448.135287,163.147544 C447.601125,163.451862 447.034409,163.843339 446.464734,164.279135 C446.966344,164.132885 447.496068,163.948226 448.047986,163.717771 C453.040409,161.642203 454.818978,159.743907 454.836734,159.724703 C455.601726,158.891521 456.819499,158.542885 457.895222,158.895953 C457.929255,158.906294 461.347303,160.021635 468.022116,161.782544 C473.791369,163.304135 481.324393,160.012771 481.399856,159.980271 C482.787791,159.364248 484.418393,159.930044 485.122718,161.272885 C485.828523,162.615726 485.369824,164.273226 484.073629,165.062089 C483.891629,165.183226 483.381141,165.642657 483.308637,166.056294 C483.243531,166.431521 483.588295,166.958907 483.799889,167.241067 C485.992767,170.15868 488.925482,170.891407 488.953596,170.897317 C490.474702,171.220839 491.464604,172.690726 491.190864,174.218226 C491.146474,174.461976 490.014523,180.187885 481.115759,179.009021 C476.811385,178.437317 474.221954,176.47993 472.330929,175.051407 C471.592572,174.492998 470.673694,173.79868 470.323011,173.79868 C469.892425,174.398453 469.902783,174.884476 469.954572,175.109021 C472.342767,179.614703 470.854214,182.570726 468.627303,183.740726 C468.210035,184.055385 467.434686,185.723226 467.123954,186.850385 C466.792507,188.04993 465.727141,188.899362 464.481255,188.958453 C463.236848,189.017544 462.09306,188.268567 461.650637,187.104476 C460.715482,184.646294 457.880425,179.430044 455.086799,179.000157 L454.514165,178.911521 C449.563173,178.140385 439.261677,176.539021 434.15384,180.124362 C431.252198,182.161521 429.819873,184.234135 429.128864,186.154589 C433.763206,185.225385 441.306588,184.406976 448.148604,186.797203 C458.513726,190.419476 463.384816,202.30118 466.00236,208.684476 L466.515808,209.929817 C469.395255,216.831635 467.119515,227.74868 463.276799,233.230839 L462.705645,234.040385 C459.441482,238.658339 455.376816,244.406407 457.748734,251.011294 C460.493531,258.659135 469.722263,271.44493 477.110279,277.838567 C484.240832,284.007657 490.872734,288.340498 500.616393,294.177203 C510.799515,300.278339 517.82945,310.52618 518.588523,313.557544 C518.905173,314.820612 518.712816,316.092544 518.049921,317.141407 C516.909092,318.940726 514.807954,319.438567 514.399564,319.521294 C513.239499,319.753226 512.054279,319.249476 511.4121,318.258226 C511.355873,318.171067 505.67836,309.509817 496.317938,304.566862 Z" id="Stroke-183" fill="#AB456C" sketch:type="MSShapeGroup" mask="url(#mask-2)">
                            <g transform="translate(428.000000, 222.500000) scale(-1, 1) translate(-428.000000, -222.500000) "></g>
                        </path>
                    </g>
                </g>
            </g>
        </g>
    </g>
</svg>