<?xml version="1.0" encoding="UTF-8" standalone="no"?>
<svg width="722px" height="448px" viewBox="0 0 722 448" version="1.1" xmlns="http://www.w3.org/2000/svg" xmlns:xlink="http://www.w3.org/1999/xlink" xmlns:sketch="http://www.bohemiancoding.com/sketch/ns">
    <!-- Generator: Sketch 3.2.2 (9983) - http://www.bohemiancoding.com/sketch -->
    <title>macuchino 3</title>
    <desc>Created with Sketch.</desc>
    <defs>
        <path id="path-1" d="M632.086337,196.714967 C626.600774,70.4488191 504.033368,8.13512835 395.424074,12.9013428 C383.201643,13.4367814 371.516063,10.0091633 360.117072,6.5774889 C342.138636,1.16631435 324.866581,-4.2448602 307.32812,5.90413435 C277.345222,-8.106508 251.669237,19.2089713 220.1767,20.5921876 C111.567406,25.3543457 -5.1269368,98.1699337 0.358625702,224.432025 C5.8441882,350.694117 108.120261,448.756444 228.794563,443.462904 C240.246028,442.959916 252.282781,444.128146 264.0612,445.292319 C288.288092,447.685567 311.4211,450.082872 326.101741,437.978715 C349.396208,453.989139 388.521711,436.453527 423.513867,434.920225 C544.192206,429.626685 637.571899,322.977059 632.086337,196.714967"></path>
    </defs>
    <g id="Blank-Project" stroke="none" stroke-width="1" fill="none" fill-rule="evenodd" sketch:type="MSPage">
        <g id="Producto-SuperShake-4" sketch:type="MSArtboardGroup" transform="translate(-222.000000, -240.000000)">
            <g id="macuchino-3" sketch:type="MSLayerGroup" transform="translate(222.000000, 240.000000)">
                <g>
                    <path d="M632.086337,196.714967 C626.600774,70.4488191 504.033368,8.13512835 395.424074,12.9013428 C383.201643,13.4367814 371.516063,10.0091633 360.117072,6.5774889 C342.138636,1.16631435 324.866581,-4.2448602 307.32812,5.90413435 C277.345222,-8.106508 251.669237,19.2089713 220.1767,20.5921876 C111.567406,25.3543457 -5.1269368,98.1699337 0.358625702,224.432025 C5.8441882,350.694117 108.120261,448.756444 228.794563,443.462904 C240.246028,442.959916 252.282781,444.128146 264.0612,445.292319 C288.288092,447.685567 311.4211,450.082872 326.101741,437.978715 C349.396208,453.989139 388.521711,436.453527 423.513867,434.920225 C544.192206,429.626685 637.571899,322.977059 632.086337,196.714967" id="shape" fill="#B08742" sketch:type="MSShapeGroup"></path>
                    <g id="bg_macuchino">
                        <mask id="mask-2" sketch:name="Clip 30" fill="white">
                            <use xlink:href="#path-1"></use>
                        </mask>
                        <g id="Clip-30"></g>
                        <path d="M320.725163,276.146466 C249.215064,265.798711 209.459872,243.164262 167.262617,239.82994 C163.419897,239.525714 159.359209,239.379685 155.141098,239.379685 C113.064936,239.379685 54.366592,253.589089 17.9374518,263.920619 C14.4136137,264.918482 10.3287062,265.628344 5.82400585,266.094824 C2.83701818,252.639902 0.976205586,238.7185 0.358625702,224.432025 C0.233495137,221.596635 0.17294809,218.785582 0.16891162,216.006981 C0.108364572,94.9329642 114.00947,25.2488805 220.1767,20.5921876 C245.275469,19.4888597 266.676832,1.91673961 289.511142,1.91673961 C295.327695,1.91673961 301.241123,3.06063108 307.32812,5.90413435 C314.525146,1.73826009 321.67777,0.196846048 328.850577,0.196846048 C339.159721,0.196846048 349.513266,3.3851393 360.117072,6.5774889 C370.720879,9.76578215 381.570909,12.9581318 392.864952,12.9581318 C393.716647,12.9581318 394.568342,12.93785 395.424074,12.9013428 C399.286976,12.730976 403.161987,12.6498489 407.053144,12.6498489 C512.598757,12.6498489 626.794525,74.9432579 632.086337,196.714967 C632.243759,200.288614 632.316415,203.850092 632.316415,207.391287 C632.304306,231.717235 628.631118,255.215686 621.821594,277.282245 C605.574803,273.716711 589.893117,267.924239 575.337607,262.131768 C551.861499,252.789987 531.319904,243.444151 516.110485,243.444151 C514.774414,243.444151 513.482744,243.517165 512.231438,243.66725 C481.057781,247.407207 411.440786,277.898811 346.36482,277.898811 C337.702555,277.898811 329.125057,277.359316 320.725163,276.146466 Z" id="Fill-29" fill="#C09F68" sketch:type="MSShapeGroup" mask="url(#mask-2)"></path>
                    </g>
                    <path d="M525.826268,313.432461 L620.804403,132.665157 L698.643688,181.495532 L721.510289,144.684131 L623.981105,83.5021622 L593.453284,91.7771218 L487.641264,293.170979 L525.826268,313.432461" id="pajita" fill="#B08742" sketch:type="MSShapeGroup"></path>
                </g>
            </g>
        </g>
    </g>
</svg>