<svg viewBox="0 0 232 228" xmlns="http://www.w3.org/2000/svg">
  <title>
    Polen Vacio
  </title>
  <g fill="none" fill-rule="evenodd" opacity=".5">
    <path d="M41.1 172.8l-13.7-17.7m0 0l5-15.3m0 0l16.6 4.7m0 0l6.8 21.3m0 0l-4.2 8.5m0 .1l-10.5-1.6" stroke="#FFF" stroke-width="3.588"/>
    <path d="M47.2 142.5l11-9.1 2.5 2.6-9.8 10.5" fill="#FFF"/>
    <path d="M43.8 112.4l-12.1 6m0 0l.7 21.4m23.4 26l7.9 2.4m0 0l6.7-10.1m-38.7-39.7l-8.6-4.5m0 0l6.4-22.8" stroke="#FFF" stroke-width="3.588"/>
    <path d="M29.5 91.1l13.6-8.5" stroke="#FFF" stroke-width="5.658"/>
    <path d="M77.6 119.8l18.9-7.7 1.5 3.1-18 9.7" fill="#FFF"/>
    <path d="M97.2 113.7l17.5 9.9" stroke="#FFF" stroke-width="5.658"/>
    <path d="M99.1 146.5l21.8 3.4-.3 3.4-22.1-1.1" fill="#FFF"/>
    <path d="M131.5 140l-10.2-18.1" stroke="#FFF" stroke-width="5.658"/>
    <path d="M121.7 123.7l-8.3 2.9-1.2-5.5 8.7-.9" fill="#FFF"/>
    <path d="M43.1 82.6l6.7-10.7" stroke="#FFF" stroke-width="5.658"/>
    <path d="M49.8 71.9L64.5 68" stroke="#FFF" stroke-width="3.588"/>
    <path d="M69.157 76.587l11.48 6.97-11.48-6.97zM80.6 83l.6 7.1" stroke="#FFF" stroke-width="5.658"/>
    <path d="M97.1 58.9l-23.2-.4m0 0L64.5 68" stroke="#FFF" stroke-width="3.588"/>
    <path d="M117.6 93.7l-17.4 11.7-2.9-4.9 18.5-9.7m2.5 31l13.3-16.7 2.6 1.8-11.2 18.2" fill="#FFF"/>
    <path d="M177.5 109.5l-3.2-15.6m0 0l-9.2-9.4M149.4 59l15.9 11.9m0 0l-.2 13.6" stroke="#FFF" stroke-width="5.658"/>
    <path d="M97.1 58.9l5.6-6m0 0l16.4 1.2" stroke="#FFF" stroke-width="3.588"/>
    <path d="M121 52.9l10.2 15.2-4.7 3-9.3-15.8" fill="#FFF"/>
    <path d="M119.1 54.1l7.4-12.1m0 0l16.4.2" stroke="#FFF" stroke-width="3.588"/>
    <path d="M142.9 42.2l8.6 10m0 0l-2.1 6.8" stroke="#FFF" stroke-width="5.658"/>
    <path d="M102.7 52.9l-5.8-16.8m0-.1l10.7-5.9m0 0L126.5 42m-29.6-6l-21-.1m0 0L67 47.1m6.9 11.4l-7-11.4m0 0l-18.2 7m0 0l-4.4 5.4M44.3 59.5l5.2 11.8M44.3 59.5l-11.8 1.4m0 0v-7m0 0l11.8-9.5m0 0l4.4 9.7m-16.2 6.8l-8.3 15.2m0 0l5.3 15" stroke="#FFF" stroke-width="3.588"/>
    <path d="M24.5 77.9L2.2 80.8l-.3-1.7 22-4.7m.3-22.5l-.8-7.6 2.1-.4 2.2 7.3M27 36.3l15.1-3.9.7 3.5-15.5 2" fill="#FFF"/>
    <path d="M42.4 34.2l3.9 4.3m0 0l-2 5.9m-11.8 9.5L26 51.6M46.3 38.5l9.2.7M55.5 39.2l16.2-9.7m0 0l4.2 6.4m-33.5-1.7l19.8-16.1m0 0l16 .5m0 0l-6.5 10.9" stroke="#FFF" stroke-width="3.588"/>
    <path d="M60.6 18.8l-.7-4.3 1.4-.5 2.6 3.3" fill="#FFF"/>
    <path d="M78.2 18.6l21-7" stroke="#FFF" stroke-width="3.588"/>
    <path d="M97.5 12.1l-.8-6.7 1.4-.4 2.8 6.1" fill="#FFF"/>
    <path d="M99.2 11.6l13.1 5.9m0 0l-4.7 12.6m4.7-12.6l13.1.1m0 0l18.5 15.3m0 0l-1 9.3" stroke="#FFF" stroke-width="3.588"/>
    <path d="M152.2 49.4l20 6-.9 3.5-20.5-3.8" fill="#FFF"/>
    <path d="M171.8 57.1l6.5-1.7m0 0l-1.8-12.3m0 0l-18.8-11.7m0 0l-13.8 1.5m13.8-1.5L155.1 18m0 0l-10.8-7.5m0 0l-17.1-2.1m0 0l-1.8 9.2" stroke="#FFF" stroke-width="3.588"/>
    <path d="M126 9.8l-8-8.5 1.1-1.2 9.3 7m14.1 2.8l3.1-6.1 1.3.3-.9 6.9" fill="#FFF"/>
    <path d="M155.1 18l16.9 2.8" stroke="#FFF" stroke-width="3.588"/>
    <path d="M170.3 21.5l-1.7-7.2.9-.5 4.1 6.2" fill="#FFF"/>
    <path d="M172 20.8l10.9 9.4" stroke="#FFF" stroke-width="3.588"/>
    <path d="M182.4 28.5l10.5-1.6.3 1.4-9.9 3.7" fill="#FFF"/>
    <path d="M176.5 43.1l6.9-4.5m0 0l-.5-8.4" stroke="#FFF" stroke-width="3.588"/>
    <path d="M174.3 93.9l14.6-11.8" stroke="#FFF" stroke-width="5.658"/>
    <path d="M188.9 82.1l.1-16.2m0 0l-10.7-10.5m-34.5 120.4l14-8.9m-46.7 10.7l6 13.1m0 0l19.8.2m0 0l6.9-15.1" stroke="#FFF" stroke-width="3.588"/>
    <path d="M89.6 163.8l-1.3 15.6h-3.6l-.7-15.7" fill="#FFF"/>
    <path d="M102.1 196.6l10.5.5m0 0l4.5-6.4m-40.3-5.8l-13.1-16.7m-12.1 6.2l-1.8 16.5m0 0l12.6 2.3m0 0l14.4-8.3m-35.7-12.1l8.7 18.1m-26.7-77L10 115.6" stroke="#FFF" stroke-width="3.588"/>
    <path d="M8.9 117l-8.5-7.9.7-1 10 6.1" fill="#FFF"/>
    <path d="M28.3 155.1l-9.2-1.1m0 0L8.8 137.6m0 0l1.2-22" stroke="#FFF" stroke-width="3.588"/>
    <path d="M9.2 139.4l-7 .3-.3-1.5 6.6-2.4" fill="#FFF"/>
    <path d="M19.1 154l-.6 10.6" stroke="#FFF" stroke-width="3.588"/>
    <path d="M18 166.3l-9.1-4.4.3-1 9.9 2" fill="#FFF"/>
    <path d="M18.5 164.6l10.4 19.5m0 0l12.4 10.7m0 0l8.5-3.9" stroke="#FFF" stroke-width="3.588"/>
    <path d="M30.5 185.1l-3.8 2.7.7-4.6M43.1 195l-2.3 9.1-1-.1-.2-9.4" fill="#FFF"/>
    <path d="M62.4 193.2l7 12.5m0 0l8.2-5.6m0 0l-.8-15.2m.8 15.2l16.2 3.1m0 0l8.3-6.6m-18.5 19.8l-14.8-10.1m14.8 10.1l16.6 4.6m0 0l-6.4-17.8m6.7 18.5l16.7-10.1m0 0l-4.6-14.5m4.6 14.5l28.3-.2m0 0l2-11.3m0 0l-10.6-9.2" stroke="#FFF" stroke-width="3.588"/>
    <path d="M101.9 220.4l1.6 7-1.9.6-3.1-6.5m-13.8-3.7L73 225.2l-.4-.6 9.9-9.6m64-2.2L130 223.4l-.6-.9 15-12.6" fill="#FFF"/>
    <path d="M145.5 211.4l17.7-1.5m-.5.2l8.6-10.5" stroke="#FFF" stroke-width="3.588"/>
    <path d="M164.9 210l-1.5 6.1h-1l-2-5.9" fill="#FFF"/>
    <path d="M147.5 200.1l20.5-7.8m0 0l3.3 7.3m-3.3-7.3l3.1-17.4m0 0l-13.3-8m26.8-1.6l-13.5 9.6m13.5-9.6l14.5-8m0 0l5.4 3.6m0 0l-10.8 26.7m0 0l-22.4 12" stroke="#FFF" stroke-width="3.588"/>
    <path d="M195.1 185.5l4 5.1-.5.7-6.3-1.6" fill="#FFF"/>
    <path d="M199.1 157.3l6.1-20.6" stroke="#FFF" stroke-width="3.588"/>
    <path d="M191.5 120.9l6.3-25.7 3.5.8-5.1 26" fill="#FFF"/>
    <path d="M199.5 96.2l-10.6-14.1m10.6 14.1l12.4 1.8m-2 34.6l-4.7 4.1M189 65.9l10.9-6.1m0 0L192.8 47M192.8 47l-9.4-8.4" stroke="#FFF" stroke-width="3.588"/>
    <path d="M203.7 36.5l2.1 14.3-3.6.2.6-14.5" fill="#FFF"/>
    <path d="M204 50.9l-4.1 8.9" stroke="#FFF" stroke-width="3.588"/>
    <path d="M219.6 56.5l3.2 19.4-3.6.3-.9-19.6" fill="#FFF"/>
    <path d="M221 76l-5.3 2.6m0 0l-15.8-18.8m15.8 18.8L211.9 98m-2 34.6l9.5 7.2" stroke="#FFF" stroke-width="3.588"/>
    <path d="M221.1 139.5l1 15.4-1.1.2-3.4-15m-13.1 19l17.9 1.1v1.2l-17.9 1.3" fill="#FFF"/>
    <path d="M11.2 98.2l18.3-7.1" stroke="#FFF" stroke-width="3.588"/>
    <path d="M2.4 81.6l10.4 15.7-3.1 1.8-8.2-17" fill="#FFF"/>
    <path d="M10 115.6l1.2-17.4M26 51.6l-8.8 9.5m0 0l7 15" stroke="#FFF" stroke-width="3.588"/>
    <path d="M17.5 62.9l-7.7.1-.2-1.1 7.3-2.6" fill="#FFF"/>
    <path d="M211.9 98l5.4 14.5m0 0l-7.4 20.1" stroke="#FFF" stroke-width="3.588"/>
    <path d="M219.1 111.2l12.5 10.4-.6.9-14-8.4m.9 23.2l12.9-4.8.6 1.1-10.6 8.7" fill="#FFF"/>
    <path d="M215.7 110.9l15.7-12.6.6.7-13.2 15.2m3.3-39.6l6.4 6.4-.7 1-7.9-4.5m-15.4-28.3l13.5 4.9-.5 1.5-14-3m-20.2-24.1l16.9 5.4-.3 1.4-17.5-3.3m-87.3 81.4l.9-10.9 5.6.9-2.2 10.6m31.4-46.5l19.3 19.4-2.5 2.7-20.7-17.9" fill="#FFF"/>
    <path d="M150.6 89.1l-6.9 17.1-5.1-2.4 8.4-16.4M96 72.3l-.7-13.2 3.5-.5 2.8 13m29.5 36.6l-15.3-14.9 1.8-2.1 17.2 12.7M65.9 67.1l6.7 9-4.9 2.9-4.6-10.2" fill="#FFF"/>
    <path d="M141.67 102.717l11.966 17.266L168.2 122.5l-1.5 5.4-15.3-5.8s-9.935-13.157-11.197-15.75c-1.262-2.596 1.467-3.633 1.467-3.633z" fill="#FFF"/>
    <path d="M152.4 121.6l-19 20.5-3.9-4.1 21.5-17.9" fill="#FFF"/>
    <path d="M158.4 156l-28.3-13.5 2.7-4.9 26.5 16.7m-79-29.6l-20.1 11.1-1.4-2.2 18.4-13.7m133.6-24.1l15.8-6 .6 1.1-14.2 9.3" fill="#FFF"/>
    <path d="M155.8 166.7l.2-11.8 5.7.5-2 11.6" fill="#FFF"/>
    <path d="M174.8 138.6L161 156.9l-4.3-3.6 15.4-16.9M71.4 101.6l10 19.6-5.2 2.3-8-20.5m17.2 58.3l12.1-6 1.9 3.3-11.2 7.6" fill="#FFF"/>
    <path d="M71 156.5l16.7 4.6-1.8 5.4-16-6.7m45.8-35.6l-14.5 26.6-4.8-2.9 17.3-25" fill="#FFF"/>
    <path d="M82 136.2l18.3 10.8-3 4.7-17.4-12.3m39.7 11.2l9.8-12.5 4.1 3.8-11.6 10.8m43.7-66.4L149.5 91l-1.3-5.5 16.5-2.9m.3 41.1l11-15.2 3 1.9-9.2 16.3" fill="#FFF"/>
    <path d="M170 123.9l4.9 12.9-2.9 1.4-7.1-11.8M44.7 81.8l8.9 15.1-5 2.6-7.1-16.1" fill="#FFF"/>
    <path d="M42 111.4l6.6-14.5 5 2.6-7.9 13.8" fill="#FFF"/>
    <path d="M51.5 96.4l18.9 3.1-1.2 5.5-18.5-5" fill="#FFF"/>
    <path d="M82.5 91.3l-10.6 12.9-4.2-3.9 12.2-11.5M58 135.7L41.4 114l4.8-3.3 14.7 23" fill="#FFF"/>
    <path d="M97.1 105.2l-17-13.7 2.2-2.9 18.2 12.1M79.1 80.5l18.8-10.1 1.8 3-17.6 12m35.8-5.3l1.6 11.2c.2 1.5-.9 3-2.4 3.2-1.6.2-3-.9-3.2-2.4v-.3l-.2-11.3c0-1.2.9-2.2 2.1-2.2 1-.1 1.9.7 2.1 1.8" fill="#FFF"/>
    <path d="M100 69.4l16.4 9.5-1.3 2.7-17.6-7.1m-15.3 47.3l1.2 15.6-4.9.7-3.1-15.3m85.3-53.2l9.5-13.3 3.1 1.7-5.9 15.2M71.3 207.5l-10.8 8.6-1.1-1 8.2-11.2" fill="#FFF"/>
    <path d="M141.1 105l-8.2 1" stroke="#FFF" stroke-width="5.658"/>
    <path d="M99.5 156.4l14 19.7-4.9 3-11.1-21.5" fill="#FFF"/>
    <path d="M97.4 156.9l-1.4-7.7 5.6.3-2.1 7.5m10.4 19.4l12.1-13.5 3.9 4-13.7 11.9" fill="#FFF"/>
    <path d="M125.3 162.4l19.1 12.2-1.3 2.4-20.5-9.6" fill="#FFF"/>
    <path d="M122.1 151.3l4.6 12.9-5.5 1.4-1.8-13.6m67.2-11.2l-1.4 24.5-1.2.1-3.1-24.4" fill="#FFF"/>
    <path d="M174 135.9l10.6 2.4-1.8 5.3-9.9-4.5" fill="#FFF"/>
    <path d="M196.6 131.8l-11 11.3-3.7-4.3 12.9-9.1m-2-6.9l-17-11.1 3.4-4.5 15.7 12.8" fill="#FFF"/>
    <path d="M192.9 131.3l-1.1-9.5 4.1-.8 2.5 9.2" fill="#FFF"/>
    <path d="M204.7 137.4l-10.5-4.3 3-4.8 8.5 7.6M113.9 78l14-9.6 2 2.4-12.4 11.6" fill="#FFF"/>
    <path d="M128.1 68.1l20-11.6 2.6 5-21.1 9.5m-41 106.5l14.2 18.5-1.4 1.2-17-15.9" fill="#FFF"/>
    <path d="M87 180.4l-8.8 7-2.8-4.9 10.5-4.1m.6-.7l24.5-2.9.2 5.6-24.7-1.1m-3.9-40.7l-9.5 20.9-5.3-2.8 11.5-19.8" fill="#FFF"/>
    <path d="M67.9 159.3l-9.6-24 2.4-1.2 12.2 22.8" fill="#FFF"/>
  </g>
</svg>
