<svg xmlns="http://www.w3.org/2000/svg" width="841.9" height="595.3" xmlns:xlink="http://www.w3.org/1999/xlink">
  <defs>
    <path id="a" d="M0 0h841.9v595.3H0z"/>
  </defs>
  <clipPath id="b">
    <use xlink:href="#a" overflow="visible"/>
  </clipPath>
  <g clip-path="url(#b)">
    <defs>
      <path id="c" d="M0 0h841.9v595.3H0z"/>
    </defs>
    <clipPath id="d">
      <use xlink:href="#c" overflow="visible"/>
    </clipPath>
    <g opacity=".8" clip-path="url(#d)">
      <defs>
        <path id="e" d="M220.9 98.1h397.8v374.6H220.9z"/>
      </defs>
      <clipPath id="f">
        <use xlink:href="#e" overflow="visible"/>
      </clipPath>
      <path fill="none" stroke="#FFF" stroke-width="6.504" stroke-miterlimit="10" d="M596.9 261.9c11.6-12.8 18.6-29.8 18.6-48.5 0-9.4-1.8-18.4-5.1-26.6-.9-5.5-3.6-10.5-7.5-14.2-13-19.1-35-31.6-59.9-31.6-4.5 0-8.9.4-13.2 1.2-31.6-25.5-71.8-40.8-115.6-40.8-10.4 0-20.6.9-30.5 2.5-6.7-1-13.6-1.6-20.6-1.6-73.5 0-133 59.5-133 133 0 7.8.7 15.5 2 22.9-1.3 8.9-2 18-2 27.2 0 18.4 2.7 36.1 7.7 52.9-8.7 11.9-13.8 26.6-13.8 42.5 0 40 32.4 72.5 72.5 72.5 10.5 0 20.5-2.3 29.5-6.3 26.2 14.3 56.3 22.5 88.2 22.5 18.6 0 36.5-2.8 53.5-7.9 76.9-.6 139.1-63.1 139.1-140.1 0-17.4-3.2-34.1-9-49.4-.1-3.5-.5-6.9-.9-10.2z" clip-path="url(#f)"/>
    </g>
    <g opacity=".7" clip-path="url(#d)">
      <defs>
        <path id="g" d="M230.3 101.3h368.1v368.1H230.3z"/>
      </defs>
      <clipPath id="h">
        <use xlink:href="#g" overflow="visible"/>
      </clipPath>
      <path fill="#BFAC06" d="M598.4 285.4c0-101.7-82.4-184.1-184.1-184.1-101.7 0-184.1 82.4-184.1 184.1 0 101.7 82.4 184.1 184.1 184.1 101.7 0 184.1-82.4 184.1-184.1" clip-path="url(#h)"/>
    </g>
    <g opacity=".8" clip-path="url(#d)">
      <defs>
        <path id="i" d="M224.2 308.3h144.9v144.9H224.2z"/>
      </defs>
      <clipPath id="j">
        <use xlink:href="#i" overflow="visible"/>
      </clipPath>
      <path fill="#BFAC06" d="M369.1 380.8c0-40-32.4-72.5-72.5-72.5-40 0-72.5 32.4-72.5 72.5 0 40 32.4 72.5 72.5 72.5s72.5-32.5 72.5-72.5" clip-path="url(#j)"/>
    </g>
    <g opacity=".8" clip-path="url(#d)">
      <defs>
        <path id="k" d="M470.6 141h144.9v144.9H470.6z"/>
      </defs>
      <clipPath id="l">
        <use xlink:href="#k" overflow="visible"/>
      </clipPath>
      <path fill="#BFAC06" d="M615.5 213.4c0-40-32.4-72.5-72.5-72.5-40 0-72.5 32.4-72.5 72.5s32.4 72.5 72.5 72.5 72.5-32.5 72.5-72.5" clip-path="url(#l)"/>
    </g>
    <g opacity=".5" clip-path="url(#d)">
      <defs>
        <path id="m" d="M557.8 165.8h51.4v51.4h-51.4z"/>
      </defs>
      <clipPath id="n">
        <use xlink:href="#m" overflow="visible"/>
      </clipPath>
      <path fill="#BFAC06" d="M609.2 191.5c0-14.2-11.5-25.7-25.7-25.7s-25.7 11.5-25.7 25.7 11.5 25.7 25.7 25.7c14.2.1 25.7-11.4 25.7-25.7" clip-path="url(#n)"/>
    </g>
    <g opacity=".6" clip-path="url(#d)">
      <defs>
        <path id="o" d="M230.3 102.3h266v266h-266z"/>
      </defs>
      <clipPath id="p">
        <use xlink:href="#o" overflow="visible"/>
      </clipPath>
      <path fill="#BFAC06" d="M496.3 235.3c0-73.5-59.5-133-133-133s-133 59.5-133 133 59.5 133 133 133c73.4 0 133-59.5 133-133" clip-path="url(#p)"/>
    </g>
    <g opacity=".6" clip-path="url(#d)">
      <defs>
        <path id="q" d="M326.6 181.3h280.3v280.3H326.6z"/>
      </defs>
      <clipPath id="r">
        <use xlink:href="#q" overflow="visible"/>
      </clipPath>
      <path fill="#BFAC06" d="M606.9 321.5c0-77.4-62.7-140.1-140.1-140.1-77.4 0-140.2 62.7-140.2 140.1 0 77.4 62.7 140.1 140.2 140.1 77.4 0 140.1-62.7 140.1-140.1" clip-path="url(#r)"/>
    </g>
    <path fill="#FFF" d="M368.8 381.8c0 4.8-1.3 8.8-3.8 12.1-2.8 3.7-6.4 5.5-11.1 5.5-3.4 0-6.2-1.3-8.4-3.8h-.2v11.8c0 3.5-1.3 5.3-3.8 5.3-2.6 0-4-1.8-4-5.3v-37.8c0-3.4 1.3-5.1 3.9-5.1 1.6 0 2.8.8 3.3 2.3.1.4.2.9.5 1.5 1.8-2.6 4.7-3.8 8.7-3.8 4.7 0 8.3 1.8 11 5.3 2.7 3.2 3.9 7.2 3.9 12m-7.9 0c0-2.8-.6-5.1-1.7-6.9-1.4-2.2-3.4-3.3-6-3.3s-4.7 1-6.2 3.1c-1.3 1.8-2 4-2 6.8v1.5c0 2.5.7 4.6 2.1 6.4 1.5 1.9 3.5 2.9 6 2.9 2.7 0 4.7-1.1 6.1-3.4 1.2-1.8 1.7-4.2 1.7-7.1m42.6 0c0 4.9-1.4 9-4.2 12.3-2.9 3.5-6.8 5.2-11.6 5.2-4.7 0-8.6-1.8-11.6-5.3-2.8-3.3-4.3-7.4-4.3-12.2 0-4.9 1.4-9 4.2-12.3 3-3.5 6.9-5.3 11.7-5.3 4.9 0 8.8 1.8 11.7 5.3 2.7 3.3 4.1 7.4 4.1 12.3m-15.8-10.5c-2.7 0-4.8 1.1-6.2 3.3-1.2 1.9-1.8 4.3-1.8 7.1s.6 5.2 1.9 7.1c1.5 2.2 3.5 3.3 6.2 3.3s4.8-1.1 6.2-3.3c1.2-1.9 1.8-4.2 1.8-7.1 0-2.8-.6-5.2-1.8-7.1-1.6-2.1-3.6-3.3-6.3-3.3m28.7 22.6c0 3.4-1.3 5.1-3.9 5.1-2.6 0-3.9-1.7-3.9-5.1v-38.7c0-3.4 1.3-5.1 3.9-5.1 2.6 0 3.9 1.7 3.9 5.1v38.7zm36.4-14c0 1.4-.4 2.4-1.3 3.2-.9.8-2 1.1-3.4 1.1h-18.8c.1 2.4 1 4.4 2.6 5.9 1.7 1.5 3.7 2.3 6.1 2.3 2 0 4.3-.6 6.8-1.9 2.5-1.3 3.9-1.9 4.2-1.9 2.1 0 3.1 1.1 3.1 3.2 0 .7-.3 1.4-.9 2.2-1.3 1.7-3.3 3.1-6.1 4.1-2.4.9-4.8 1.3-7.4 1.3-4.9 0-8.9-1.7-12-5.2-2.9-3.3-4.4-7.4-4.4-12.4 0-4.8 1.5-8.9 4.5-12.3 3-3.4 6.9-5.1 11.6-5.1 4.2 0 7.8 1.6 10.8 4.7 3.1 2.9 4.6 6.6 4.6 10.8m-7.8-1c-.1-2.3-.8-4.2-2.1-5.8-1.3-1.6-3.1-2.3-5.4-2.3s-4.2.8-5.7 2.3c-1.5 1.6-2.4 3.5-2.6 5.8H445zm40.9 15.1c0 3.3-1.3 5-4 5-2.6 0-3.9-1.7-3.9-5v-15c0-5.1-2.2-7.7-6.6-7.7-4.3 0-6.5 2.6-6.5 7.7v14.9c0 3.4-1.3 5.1-3.9 5.1-2.7 0-4-1.7-4-5.1v-24.1c0-3.4 1.3-5 3.9-5 1.4 0 2.4.6 3.1 1.7.2.6.4 1.2.7 1.8l.1.1c2.1-2.5 5.1-3.8 9-3.8 3.9 0 6.9 1.2 9 3.5 2.1 2.3 3.1 5.5 3.1 9.4V394zm-68.5 25.1c0 1.4-.5 2.1-1.6 2.1-.6 0-1.1-.3-1.3-.8-.1-.2-.1-.5-.3-.9-1 1.2-2.3 1.8-3.9 1.8-1.9 0-3.4-.8-4.6-2.3-1.1-1.4-1.6-3.1-1.6-5 0-1.5.3-2.9 1-4 .7-1.3 1.7-2.2 3-2.8.8-.3 1.5-.5 2.3-.5 1.5 0 2.7.6 3.7 1.7.1-.2.1-.4.2-.7.3-.6.7-.9 1.3-.9 1.1 0 1.6.7 1.6 2.1v10.2zm-6.5-9.5c-1.1 0-2 .4-2.6 1.3-.5.8-.8 1.8-.8 3s.2 2.1.7 2.9c.6.9 1.4 1.4 2.5 1.4s2-.5 2.6-1.4c.5-.8.8-1.7.8-2.9s-.2-2.1-.7-2.9c-.6-.9-1.4-1.4-2.5-1.4m12.7 9.4c0 1.4-.6 2.2-1.7 2.2s-1.7-.7-1.7-2.2v-16.3c0-1.4.6-2.2 1.7-2.2s1.7.7 1.7 2.1V419zm17.4-10.8c0 .3-.1.6-.2 1l-3.9 10.6c-.4 1-1 1.5-1.8 1.5-.9 0-1.5-.5-1.9-1.6l-4-10.6c-.1-.3-.2-.6-.2-.9 0-.5.1-.8.4-1.1.3-.3.7-.4 1.1-.4.8 0 1.3.5 1.6 1.5l2.8 8.7 2.8-8.9c.3-.9.8-1.3 1.6-1.3 1.2-.1 1.7.4 1.7 1.5m13.6 10.9c0 1.4-.5 2.1-1.6 2.1-.6 0-1.1-.3-1.3-.8-.1-.2-.1-.5-.3-.9-1 1.2-2.3 1.8-3.9 1.8-1.9 0-3.4-.8-4.6-2.3-1.1-1.4-1.6-3.1-1.6-5 0-1.5.3-2.9 1-4 .7-1.3 1.7-2.2 3-2.8.8-.3 1.5-.5 2.3-.5 1.5 0 2.7.6 3.7 1.7.1-.2.1-.4.2-.7.3-.6.7-.9 1.3-.9 1.1 0 1.6.7 1.6 2.1v10.2zm-6.5-9.5c-1.1 0-2 .4-2.6 1.3-.5.8-.8 1.8-.8 3s.2 2.1.7 2.9c.6.9 1.4 1.4 2.5 1.4s2-.5 2.6-1.4c.5-.8.8-1.7.8-2.9s-.2-2.1-.7-2.9c-.6-.9-1.4-1.4-2.5-1.4m15.3-3.1c1 0 1.8.2 2.7.5 1.1.4 1.6 1 1.6 1.8 0 .9-.4 1.4-1.3 1.4-.4 0-.8-.1-1.3-.3-.5-.2-1-.3-1.6-.3-1.1 0-2 .5-2.6 1.4-.6.8-.9 1.8-.9 3s.3 2.3.8 3c.6.9 1.5 1.4 2.7 1.4.4 0 1-.1 1.7-.4.7-.3 1.1-.4 1.3-.4.4 0 .7.1 1 .4.2.3.4.6.4 1 0 .9-.8 1.6-2.4 2.1-.6.2-1.3.3-2.1.3-2.1 0-3.7-.7-5-2.2-1.2-1.4-1.7-3.1-1.7-5.2s.6-3.8 1.8-5.2c1.2-1.5 2.9-2.3 4.9-2.3m9.7 12.6c0 1.4-.6 2.1-1.7 2.1s-1.7-.7-1.7-2.1v-10.3c0-1.4.6-2.1 1.7-2.1s1.7.7 1.7 2.1v10.3zm15.5-5.1c0 2.1-.6 3.8-1.8 5.2-1.2 1.5-2.9 2.2-4.9 2.2-2 0-3.6-.7-4.9-2.2-1.2-1.4-1.8-3.1-1.8-5.2s.6-3.8 1.8-5.2c1.3-1.5 2.9-2.2 4.9-2.2 2 0 3.7.7 4.9 2.2 1.2 1.3 1.8 3.1 1.8 5.2m-6.7-4.5c-1.1 0-2 .5-2.6 1.4-.5.8-.8 1.8-.8 3s.3 2.2.8 3c.6.9 1.5 1.4 2.6 1.4s2-.5 2.6-1.4c.5-.8.8-1.8.8-3s-.3-2.2-.8-3c-.6-.9-1.5-1.4-2.6-1.4" clip-path="url(#d)"/>
    <path fill="none" stroke="#FFF" stroke-width="2.962" stroke-miterlimit="10" d="M471.9 403.2l3.3-3.9" clip-path="url(#d)" stroke-linecap="round"/>
    <path fill="none" stroke="#FFF" stroke-width="3.588" d="M337.1 291.8l-13.7-17.7m0 0l5-15.3m0 0l16.6 4.7m0 0l6.8 21.3m0 0l-4.2 8.5m0 .1l-10.5-1.6" clip-path="url(#d)"/>
    <path fill="#FFF" d="M343.2 261.5l11-9.1 2.5 2.6-9.8 10.5" clip-path="url(#d)"/>
    <path fill="none" stroke="#FFF" stroke-width="3.588" d="M339.8 231.4l-12.1 6m0 0l.7 21.4m23.4 26l7.9 2.4m0 0l6.7-10.1m-38.7-39.7l-8.6-4.5m0 0l6.4-22.8" clip-path="url(#d)"/>
    <path fill="none" stroke="#FFF" stroke-width="5.658" d="M325.5 210.1l13.6-8.5" clip-path="url(#d)"/>
    <path fill="#FFF" d="M373.6 238.8l18.9-7.7 1.5 3.1-18 9.7" clip-path="url(#d)"/>
    <path fill="none" stroke="#FFF" stroke-width="5.658" d="M393.2 232.7l17.5 9.9" clip-path="url(#d)"/>
    <path fill="#FFF" d="M395.1 265.5l21.8 3.4-.3 3.4-22.1-1.1" clip-path="url(#d)"/>
    <path fill="none" stroke="#FFF" stroke-width="5.658" d="M427.5 259l-10.2-18.1" clip-path="url(#d)"/>
    <path fill="#FFF" d="M417.7 242.7l-8.3 2.9-1.2-5.5 8.7-.9" clip-path="url(#d)"/>
    <path fill="none" stroke="#FFF" stroke-width="5.658" d="M339.1 201.6l6.7-10.7" clip-path="url(#d)" stroke-linecap="round"/>
    <path fill="none" stroke="#FFF" stroke-width="3.588" d="M345.8 190.9l14.7-3.9" clip-path="url(#d)" stroke-linecap="round"/>
    <path fill="none" stroke="#FFF" stroke-width="5.658" d="M366.1 196.6l10.5 5.4m0 0l.6 7.1" clip-path="url(#d)"/>
    <path fill="none" stroke="#FFF" stroke-width="3.588" d="M393.1 177.9l-23.2-.4m0 0l-9.4 9.5" clip-path="url(#d)"/>
    <path fill="#FFF" d="M413.6 212.7l-17.4 11.7-2.9-4.9 18.5-9.7m2.5 31l13.3-16.7 2.6 1.8-11.2 18.2" clip-path="url(#d)"/>
    <path fill="none" stroke="#FFF" stroke-width="5.658" d="M473.5 228.5l-3.2-15.6m0 0l-9.2-9.4M445.4 178l15.9 11.9m0 0l-.2 13.6" clip-path="url(#d)"/>
    <path fill="none" stroke="#FFF" stroke-width="3.588" d="M393.1 177.9l5.6-6m0 0l16.4 1.2" clip-path="url(#d)"/>
    <path fill="#FFF" d="M417 171.9l10.2 15.2-4.7 3-9.3-15.8" clip-path="url(#d)"/>
    <path fill="none" stroke="#FFF" stroke-width="3.588" d="M415.1 173.1l7.4-12.1m0 0l16.4.2" clip-path="url(#d)"/>
    <path fill="none" stroke="#FFF" stroke-width="5.658" d="M438.9 161.2l8.6 10m0 0l-2.1 6.8" clip-path="url(#d)"/>
    <path fill="none" stroke="#FFF" stroke-width="3.588" d="M398.7 171.9l-5.8-16.8m0-.1l10.7-5.9m0 0l18.9 11.9m-29.6-6l-21-.1m0 0l-8.9 11.2m6.9 11.4l-7-11.4m0 0l-18.2 7m0 0l-4.4 5.4" clip-path="url(#d)"/>
    <path fill="none" stroke="#FFF" stroke-width="3.588" d="M340.3 178.5l5.2 11.8" clip-path="url(#d)" stroke-linecap="round"/>
    <path fill="none" stroke="#FFF" stroke-width="3.588" d="M340.3 178.5l-11.8 1.4m0 0v-7m0 0l11.8-9.5m0 0l4.4 9.7m-16.2 6.8l-8.3 15.2m0 0l5.3 15" clip-path="url(#d)"/>
    <path fill="#FFF" d="M320.5 196.9l-22.3 2.9-.3-1.7 22-4.7m.3-22.5l-.8-7.6 2.1-.4 2.2 7.3m-.7-14.9l15.1-3.9.7 3.5-15.5 2" clip-path="url(#d)"/>
    <path fill="none" stroke="#FFF" stroke-width="3.588" d="M338.4 153.2l3.9 4.3m0 0l-2 5.9m-11.8 9.5l-6.5-2.3" clip-path="url(#d)"/>
    <path fill="none" stroke="#FFF" stroke-width="3.588" d="M342.3 157.5l9.2.7" clip-path="url(#d)" stroke-linecap="round"/>
    <path fill="none" stroke="#FFF" stroke-width="3.588" d="M351.5 158.2l16.2-9.7m0 0l4.2 6.4m-33.5-1.7l19.8-16.1m0 0l16 .5m0 0l-6.5 10.9" clip-path="url(#d)"/>
    <path fill="#FFF" d="M356.6 137.8l-.7-4.3 1.4-.5 2.6 3.3" clip-path="url(#d)"/>
    <path fill="none" stroke="#FFF" stroke-width="3.588" d="M374.2 137.6l21-7" clip-path="url(#d)"/>
    <path fill="#FFF" d="M393.5 131.1l-.8-6.7 1.4-.4 2.8 6.1" clip-path="url(#d)"/>
    <path fill="none" stroke="#FFF" stroke-width="3.588" d="M395.2 130.6l13.1 5.9m0 0l-4.7 12.6m4.7-12.6l13.1.1m0 0l18.5 15.3m0 0l-1 9.3" clip-path="url(#d)"/>
    <path fill="#FFF" d="M448.2 168.4l20 6-.9 3.5-20.5-3.8" clip-path="url(#d)"/>
    <path fill="none" stroke="#FFF" stroke-width="3.588" d="M467.8 176.1l6.5-1.7m0 0l-1.8-12.3m0 0l-18.8-11.7m0 0l-13.8 1.5m13.8-1.5l-2.6-13.4m0 0l-10.8-7.5m0 0l-17.1-2.1m0 0l-1.8 9.2" clip-path="url(#d)"/>
    <path fill="#FFF" d="M422 128.8l-8-8.5 1.1-1.2 9.3 7m14.1 2.8l3.1-6.1 1.3.3-.9 6.9" clip-path="url(#d)"/>
    <path fill="none" stroke="#FFF" stroke-width="3.588" d="M451.1 137l16.9 2.8" clip-path="url(#d)"/>
    <path fill="#FFF" d="M466.3 140.5l-1.7-7.2.9-.5 4.1 6.2" clip-path="url(#d)"/>
    <path fill="none" stroke="#FFF" stroke-width="3.588" d="M468 139.8l10.9 9.4" clip-path="url(#d)"/>
    <path fill="#FFF" d="M478.4 147.5l10.5-1.6.3 1.4-9.9 3.7" clip-path="url(#d)"/>
    <path fill="none" stroke="#FFF" stroke-width="3.588" d="M472.5 162.1l6.9-4.5m0 0l-.5-8.4" clip-path="url(#d)"/>
    <path fill="none" stroke="#FFF" stroke-width="5.658" d="M470.3 212.9l14.6-11.8" clip-path="url(#d)"/>
    <path fill="none" stroke="#FFF" stroke-width="3.588" d="M484.9 201.1l.1-16.2m0 0l-10.7-10.5m-34.5 120.4l14-8.9m-46.7 10.7l6 13.1m0 0l19.8.2m0 0l6.9-15.1" clip-path="url(#d)"/>
    <path fill="#FFF" d="M385.6 282.8l-1.3 15.6h-3.6l-.7-15.7" clip-path="url(#d)"/>
    <path fill="none" stroke="#FFF" stroke-width="3.588" d="M398.1 315.6l10.5.5m0 0l4.5-6.4m-40.3-5.8l-13.1-16.7m-12.1 6.2l-1.8 16.5m0 0l12.6 2.3m0 0l14.4-8.3m-35.7-12.1l8.7 18.1m-26.7-77l-13.1 1.7" clip-path="url(#d)"/>
    <path fill="#FFF" d="M304.9 236l-8.5-7.9.7-1 10 6.1" clip-path="url(#d)"/>
    <path fill="none" stroke="#FFF" stroke-width="3.588" d="M324.3 274.1l-9.2-1.1m0 0l-10.3-16.4m0 0l1.2-22" clip-path="url(#d)"/>
    <path fill="#FFF" d="M305.2 258.4l-7 .3-.3-1.5 6.6-2.4" clip-path="url(#d)"/>
    <path fill="none" stroke="#FFF" stroke-width="3.588" d="M315.1 273l-.6 10.6" clip-path="url(#d)"/>
    <path fill="#FFF" d="M314 285.3l-9.1-4.4.3-1 9.9 2" clip-path="url(#d)"/>
    <path fill="none" stroke="#FFF" stroke-width="3.588" d="M314.5 283.6l10.4 19.5m0 0l12.4 10.7m0 0l8.5-3.9" clip-path="url(#d)"/>
    <path fill="#FFF" d="M326.5 304.1l-3.8 2.7.7-4.6m15.7 11.8l-2.3 9.1-1-.1-.2-9.4" clip-path="url(#d)"/>
    <path fill="none" stroke="#FFF" stroke-width="3.588" d="M358.4 312.2l7 12.5m0 0l8.2-5.6m0 0l-.8-15.2m.8 15.2l16.2 3.1m0 0l8.3-6.6m-18.5 19.8l-14.8-10.1m14.8 10.1l16.6 4.6m0 0l-6.4-17.8m6.7 18.5l16.7-10.1m0 0l-4.6-14.5m4.6 14.5l28.3-.2m0 0l2-11.3m0 0l-10.6-9.2" clip-path="url(#d)"/>
    <path fill="#FFF" d="M397.9 339.4l1.6 7-1.9.6-3.1-6.5m-13.8-3.7l-11.7 7.4-.4-.6 9.9-9.6m64-2.2L426 342.4l-.6-.9 15-12.6" clip-path="url(#d)"/>
    <path fill="none" stroke="#FFF" stroke-width="3.588" d="M441.5 330.4l17.7-1.5m-.5.2l8.6-10.5" clip-path="url(#d)"/>
    <path fill="#FFF" d="M460.9 329l-1.5 6.1h-1l-2-5.9" clip-path="url(#d)"/>
    <path fill="none" stroke="#FFF" stroke-width="3.588" d="M443.5 319.1l20.5-7.8m0 0l3.3 7.3m-3.3-7.3l3.1-17.4m0 0l-13.3-8m26.8-1.6l-13.5 9.6m13.5-9.6l14.5-8m0 0l5.4 3.6m0 0l-10.8 26.7m0 0l-22.4 12" clip-path="url(#d)"/>
    <path fill="#FFF" d="M491.1 304.5l4 5.1-.5.7-6.3-1.6" clip-path="url(#d)"/>
    <path fill="none" stroke="#FFF" stroke-width="3.588" d="M495.1 276.3l6.1-20.6" clip-path="url(#d)"/>
    <path fill="#FFF" d="M487.5 239.9l6.3-25.7 3.5.8-5.1 26" clip-path="url(#d)"/>
    <path fill="none" stroke="#FFF" stroke-width="3.588" d="M495.5 215.2l-10.6-14.1m10.6 14.1l12.4 1.8m-2 34.6l-4.7 4.1M485 184.9l10.9-6.1m0 0l-7.1-12.8" clip-path="url(#d)"/>
    <path fill="none" stroke="#FFF" stroke-width="3.588" d="M488.8 166l-9.4-8.4" clip-path="url(#d)" stroke-linecap="round"/>
    <path fill="#FFF" d="M499.7 155.5l2.1 14.3-3.6.2.6-14.5" clip-path="url(#d)"/>
    <path fill="none" stroke="#FFF" stroke-width="3.588" d="M500 169.9l-4.1 8.9" clip-path="url(#d)"/>
    <path fill="#FFF" d="M515.6 175.5l3.2 19.4-3.6.3-.9-19.6" clip-path="url(#d)"/>
    <path fill="none" stroke="#FFF" stroke-width="3.588" d="M517 195l-5.3 2.6m0 0l-15.8-18.8m15.8 18.8l-3.8 19.4m-2 34.6l9.5 7.2" clip-path="url(#d)"/>
    <path fill="#FFF" d="M517.1 258.5l1 15.4-1.1.2-3.4-15m-13.1 19l17.9 1.1v1.2l-17.9 1.3" clip-path="url(#d)"/>
    <path fill="none" stroke="#FFF" stroke-width="3.588" d="M307.2 217.2l18.3-7.1" clip-path="url(#d)"/>
    <path fill="#FFF" d="M298.4 200.6l10.4 15.7-3.1 1.8-8.2-17" clip-path="url(#d)"/>
    <path fill="none" stroke="#FFF" stroke-width="3.588" d="M306 234.6l1.2-17.4m14.8-46.6l-8.8 9.5m0 0l7 15" clip-path="url(#d)"/>
    <path fill="#FFF" d="M313.5 181.9l-7.7.1-.2-1.1 7.3-2.6" clip-path="url(#d)"/>
    <path fill="none" stroke="#FFF" stroke-width="3.588" d="M507.9 217l5.4 14.5m0 0l-7.4 20.1" clip-path="url(#d)"/>
    <path fill="#FFF" d="M515.1 230.2l12.5 10.4-.6.9-14-8.4m.9 23.2l12.9-4.8.6 1.1-10.6 8.7" clip-path="url(#d)"/>
    <path fill="#FFF" d="M511.7 229.9l15.7-12.6.6.7-13.2 15.2m3.3-39.6l6.4 6.4-.7 1-7.9-4.5m-15.4-28.3l13.5 4.9-.5 1.5-14-3m-20.2-24.1l16.9 5.4-.3 1.4-17.5-3.3m-87.3 81.4l.9-10.9 5.6.9-2.2 10.6m31.4-46.5l19.3 19.4-2.5 2.7-20.7-17.9" clip-path="url(#d)"/>
    <path fill="#FFF" d="M446.6 208.1l-6.9 17.1-5.1-2.4 8.4-16.4m-51-15.1l-.7-13.2 3.5-.5 2.8 13m29.5 36.6l-15.3-14.9 1.8-2.1 17.2 12.7m-68.9-36.8l6.7 9-4.9 2.9-4.6-10.2" clip-path="url(#d)"/>
    <path fill="#FFF" d="M345.7 215.9s.1 0 .2.1c.1 0 .3.1.4.1.3 0 .5-.2.7-.5.5-.6 1.2-1.4 2.1-2.4 1.7-2 4-4.7 6.2-7.4s4.4-5.5 6-7.6c1.6-2.1 2.7-3.5 2.7-3.5l4.2 3.8s-1.3 1.2-3.3 3c-2 1.8-4.5 4.2-7 6.6-2.5 2.4-5 4.9-6.9 6.8-.9.9-1.7 1.7-2.2 2.3-.3.3-.5.5-.5.8 0 .1.1.3.1.4 0 .1.1.2.1.2l-2.8-2.7zm93.8 6.5l9.1 16.9-1.8 1.2-12-14.9" clip-path="url(#d)"/>
    <path fill="#FFF" d="M448 238.7l16.2 2.8-1.5 5.4-15.3-5.8" clip-path="url(#d)"/>
    <path fill="#FFF" d="M448.4 240.6l-19 20.5-3.9-4.1 21.5-17.9" clip-path="url(#d)"/>
    <path fill="#FFF" d="M454.4 275l-28.3-13.5 2.7-4.9 26.5 16.7m-79-29.6l-20.1 11.1-1.4-2.2 18.4-13.7m133.6-24.1l15.8-6 .6 1.1-14.2 9.3" clip-path="url(#d)"/>
    <path fill="#FFF" d="M451.8 285.7l.2-11.8 5.7.5-2 11.6" clip-path="url(#d)"/>
    <path fill="#FFF" d="M470.8 257.6L457 275.9l-4.3-3.6 15.4-16.9m-100.7-34.8l10 19.6-5.2 2.3-8-20.5m17.2 58.3l12.1-6 1.9 3.3-11.2 7.6" clip-path="url(#d)"/>
    <path fill="#FFF" d="M367 275.5l16.7 4.6-1.8 5.4-16-6.7m45.8-35.6l-14.5 26.6-4.8-2.9 17.3-25" clip-path="url(#d)"/>
    <path fill="#FFF" d="M378 255.2l18.3 10.8-3 4.7-17.4-12.3m39.7 11.2l9.8-12.5 4.1 3.8-11.6 10.8m43.7-66.4l-16.1 4.7-1.3-5.5 16.5-2.9m.3 41.1l11-15.2 3 1.9-9.2 16.3" clip-path="url(#d)"/>
    <path fill="#FFF" d="M466 242.9l4.9 12.9-2.9 1.4-7.1-11.8m-120.2-44.6l8.9 15.1-5 2.6-7.1-16.1" clip-path="url(#d)"/>
    <path fill="#FFF" d="M338 230.4l6.6-14.5 5 2.6-7.9 13.8" clip-path="url(#d)"/>
    <path fill="#FFF" d="M347.5 215.4l18.9 3.1-1.2 5.5-18.5-5" clip-path="url(#d)"/>
    <path fill="#FFF" d="M378.5 210.3l-10.6 12.9-4.2-3.9 12.2-11.5M354 254.7L337.4 233l4.8-3.3 14.7 23" clip-path="url(#d)"/>
    <path fill="#FFF" d="M393.1 224.2l-17-13.7 2.2-2.9 18.2 12.1m-21.4-20.2l18.8-10.1 1.8 3-17.6 12m35.8-5.3l1.6 11.2c.2 1.5-.9 3-2.4 3.2-1.6.2-3-.9-3.2-2.4v-.3l-.2-11.3c0-1.2.9-2.2 2.1-2.2 1-.1 1.9.7 2.1 1.8" clip-path="url(#d)"/>
    <path fill="#FFF" d="M396 188.4l16.4 9.5-1.3 2.7-17.6-7.1m-15.3 47.3l1.2 15.6-4.9.7-3.1-15.3m85.3-53.2l9.5-13.3 3.1 1.7-5.9 15.2m-96.1 134.3l-10.8 8.6-1.1-1 8.2-11.2" clip-path="url(#d)"/>
    <path fill="none" stroke="#FFF" stroke-width="5.658" d="M437.1 224l-8.2 1" clip-path="url(#d)"/>
    <path fill="#FFF" d="M395.5 275.4l14 19.7-4.9 3-11.1-21.5" clip-path="url(#d)"/>
    <path fill="#FFF" d="M393.4 275.9l-1.4-7.7 5.6.3-2.1 7.5m10.4 19.4l12.1-13.5 3.9 4-13.7 11.9" clip-path="url(#d)"/>
    <path fill="#FFF" d="M421.3 281.4l19.1 12.2-1.3 2.4-20.5-9.6" clip-path="url(#d)"/>
    <path fill="#FFF" d="M418.1 270.3l4.6 12.9-5.5 1.4-1.8-13.6m67.2-11.2l-1.4 24.5-1.2.1-3.1-24.4" clip-path="url(#d)"/>
    <path fill="#FFF" d="M470 254.9l10.6 2.4-1.8 5.3-9.9-4.5" clip-path="url(#d)"/>
    <path fill="#FFF" d="M492.6 250.8l-11 11.3-3.7-4.3 12.9-9.1m-2-6.9l-17-11.1 3.4-4.5 15.7 12.8" clip-path="url(#d)"/>
    <path fill="#FFF" d="M488.9 250.3l-1.1-9.5 4.1-.8 2.5 9.2" clip-path="url(#d)"/>
    <path fill="#FFF" d="M500.7 256.4l-10.5-4.3 3-4.8 8.5 7.6M409.9 197l14-9.6 2 2.4-12.4 11.6" clip-path="url(#d)"/>
    <path fill="#FFF" d="M424.1 187.1l20-11.6 2.6 5-21.1 9.5m-41 106.5l14.2 18.5-1.4 1.2-17-15.9" clip-path="url(#d)"/>
    <path fill="#FFF" d="M383 299.4l-8.8 7-2.8-4.9 10.5-4.1m.6-.7l24.5-2.9.2 5.6-24.7-1.1m-3.9-40.7l-9.5 20.9-5.3-2.8 11.5-19.8" clip-path="url(#d)"/>
    <path fill="#FFF" d="M363.9 278.3l-9.6-24 2.4-1.2 12.2 22.8" clip-path="url(#d)"/>
  </g>
</svg>
