<?xml version="1.0" encoding="UTF-8" standalone="no"?>
<svg xmlns:sketch="http://www.bohemiancoding.com/sketch/ns" xmlns="http://www.w3.org/2000/svg" height="366px" width="445px" version="1.1" xmlns:xlink="http://www.w3.org/1999/xlink" viewBox="0 0 445 366"><!-- Generator: Sketch 3.2.2 (9983) - http://www.bohemiancoding.com/sketch -->
 <title>bg_quinoa</title>
 <desc>Created with Sketch.</desc>
 <g id="Blank-Project" fill-rule="evenodd" sketch:type="MSPage" fill="none">
  <g id="Pagina-Producto-11" transform="translate(-381 -141)" fill="#C22931" sketch:type="MSArtboardGroup">
   <g id="bg_amaranto-2" transform="translate(0 26)" sketch:type="MSLayerGroup">
    <g id="bg_quinoa" sketch:type="MSShapeGroup" transform="translate(354 115)">
     <g id="Fill-127-+-Stroke-185" transform="translate(130.51)">
      <path id="Stroke-184" d="m136.87 383.49v-11.94c8.17 3.47 17.3 8.67 20.59 14.13 8.94 14.84 30.69 13.82 58.21 12.53l8.97-0.4c26.26-1.09 33.05 2.03 33.33 2.16 2.1 1.43 4.61 1.41 6.84 0.17s3.33-3.76 3.21-6.3c-0.06-1.33-1.84-32.45-32.72-42.11-12.66-3.96-25.02-5.7-35.92-7.24-11.02-1.55-21.44-3.02-25.56-6.31-13.23-10.53-31.19 2.72-35.21 5.96-0.62 0.32-1.23 0.64-1.84 0.95-0.12-12.78-0.24-25.56-0.36-38.35 15.54-2.71 55.29-10.48 66.99-20.97 13.53-12.12 19.12-23.08 19.35-23.55 1.09-2.16 0.92-4.74-0.44-6.75-1.36-2-3.7-3.13-6.12-2.93-5.13 0.4-50.52 4.27-65.16 15.28-4.87 3.66-9.49 6.82-13.37 9.35 0.09-1.34 0.17-2.67 0.26-3.99 4.46-2.86 8.92-5.72 13.37-8.57 8.01-0.35 36.65-2.93 49.39-21.95 13.37-19.96 17.42-42.2 17.58-43.14 0.42-2.36-0.46-4.78-2.32-6.32-1.85-1.54-4.39-1.97-6.65-1.14-3.66 1.36-36.05 13.47-45.72 23.11-0.49 0.48-1.01 0.98-1.55 1.47 4.36-1.15 9.69-3.21 16.07-6.9 23.71-13.74 40.89-31.69 42.76-44.67 1.32-9.24 1.34-19.54 1.34-19.97 0-3-2-5.64-4.9-6.45-6.1-1.73-11.06-2.72-15.09-3.18 0.78-1.38 1.3-2.31 1.3-2.31 0.72-1.28 1-2.77 0.79-4.23l-3.82-26.62c-0.36-2.521-2.12-4.62-4.54-5.422-2.42-0.805-5.09-0.177-6.89 1.62-0.06 0.056-1.59 1.582-4.05 3.972 3.33-6.113 5.56-12.259 6.5-16.932 2.17-10.787-2.86-19.248-6.17-22.547-2.19-2.181-5.59-2.592-8.25-0.997-7.82 4.7-17.49 11.652-19.09 18.064-0.32 0.701-1.61 2.071-3.36 3.63 0.83-2.248 1.64-4.874 2.42-7.984 6.34-25.243 1.12-34.742-1.32-37.583-0.95-1.285-7.71-10.677-8.7-20.505-0.79-7.87-3.11-12.924-7.1-15.456-3.75-2.3774-7.22-1.4555-8.2-1.1146-0.52 0.0916-27.88 6.9706-32.418 32.558-1.665 9.383-4.413 16.208-6.62 21.692-2.888 7.172-5.383 13.366-3.436 20.532 3.376 12.445 10.974 17.613 18.464 21.84 4.99 2.813 8.6 7.673 9.02 9.663-1.22 1.67-2.79 4.06-4.41 6.63-2.11-6.84-4.96-14.408-8.44-19.544l-1.52-2.258c-13.815-20.51-24.381-34.714-34.58-30.651-6.553 2.611-16.641 7.625-17.065 7.836-2.442 1.215-3.9 3.782-3.7 6.494 0.196 2.709 2.026 5.035 4.619 5.888 6.023 1.973 14.643 7.055 14.463 11.074-0.149 3.34-0.869 6.242-1.563 9.051-1.465 5.92-3.291 13.29 3.528 20.08 6.233 6.21 16.771 10.98 20.302 12.47 2.86 2.43 5.723 4.87 8.582 7.3-0.383-0.04-0.859-0.16-1.379-0.36-4.375-1.63-11.527-6.27-17.842-10.36-8.918-5.79-14.602-9.38-18.857-10.22-7.152-1.43-25.381 3.14-32.885 5.17-3.259 0.89-5.357 4.03-4.91 7.37 0.444 3.33 3.3 5.82 6.676 5.82 4.949 0.02 14.621 1.86 15.582 6.16 0.663 2.97 2.127 5.96 4.042 8.84-11.73-6.51-17.918-6.87-19.113-6.87-2.099 0-4.08 0.98-5.355 2.64-1.274 1.66-1.699 3.82-1.147 5.84 0.871 3.19 7.408 26.44 16.944 42.57-3.68 0.32-7.361 0.65-11.038 0.97-1.985 0.18-3.789 1.22-4.93 2.84-1.138 1.63-1.5 3.67-0.98 5.59 0.241 0.9 6.201 22.22 27.455 37.89 15.924 11.73 28.307 11.94 34.612 10.86 6.518 5.63 13.036 11.26 19.559 16.89-0.63 4.85-1.26 9.71-1.88 14.56-5.787-7.33-13.164-14.97-20.174-17.3-11.948-3.97-51.066-8.96-52.724-9.17-3.1-0.39-6.065 1.39-7.161 4.31-1.094 2.91-0.032 6.2 2.567 7.93 0.134 0.09 13.344 8.95 18.835 18.14 6.34 10.61 12.329 20.62 28.805 22.27 8.401 0.83 21.808 5.48 28.682 8.02-0.32 9.84-0.623 19.69-0.93 29.53-2.565-0.64-5.77-2.46-8.569-7.1-9.073-15.06-26.741-26.98-27.489-27.49-0.955-0.63-2.058-1.02-3.206-1.11l-46.605-3.81c-2.118-0.17-4.1945 0.66-5.602 2.25-1.4076 1.59-1.9814 3.74-1.5471 5.81 1.1032 5.27 2.2065 10.54 3.3097 15.82-2.5647 4.6-5.1294 9.19-7.6973 13.79-1.0874 1.95-1.1318 4.32-0.1142 6.31 1.0177 1.98 2.9642 3.34 5.1897 3.61 0.2061 0.03 20.838 2.55 38.934 6.25 6.137 1.26 12.931 2.38 19.439 3.45 9.324 1.54 22.094 3.64 24.703 5.23 2.882 2.92 9.156 6.23 13.284 8.23 0.13 1.28 0.26 2.54 0.39 3.82 0.31 3.1 2.73 5.58 5.83 5.98l19.61 2.54"/>
     </g>
     <g id="Fill-127-+-Stroke-186" transform="translate(94.059 261.01) scale(-1 1) translate(-94.059 -142)">
      <path id="Stroke-184" d="m95.878 270.57v-8.43c5.742 2.45 12.162 6.12 14.472 9.97 6.29 10.47 21.58 9.75 40.93 8.84l6.31-0.28c18.46-0.77 23.23 1.43 23.43 1.53 1.48 1 3.24 0.99 4.81 0.12 1.56-0.88 2.34-2.66 2.26-4.45-0.05-0.94-1.3-22.89-23.01-29.71-8.9-2.8-17.59-4.02-25.25-5.11-7.75-1.09-15.08-2.13-17.98-4.45-9.29-7.43-21.92 1.92-24.749 4.2-0.432 0.23-0.862 0.45-1.295 0.68-0.082-9.02-0.167-18.04-0.249-27.06 10.923-1.91 38.873-7.4 47.093-14.8 9.51-8.55 13.44-16.29 13.61-16.61 0.76-1.53 0.64-3.35-0.31-4.76-0.96-1.42-2.6-2.21-4.31-2.08-3.6 0.29-35.51 3.02-45.81 10.78-3.42 2.59-6.672 4.82-9.393 6.6 0.06-0.94 0.118-1.88 0.176-2.81 3.136-2.02 6.277-4.03 9.407-6.05 5.63-0.24 25.77-2.07 34.72-15.49 9.4-14.08 12.25-29.77 12.36-30.43 0.3-1.67-0.32-3.37-1.63-4.46-1.3-1.08-3.09-1.39-4.68-0.8-2.57 0.95-25.34 9.5-32.14 16.3-0.34 0.34-0.71 0.69-1.09 1.04 3.06-0.82 6.81-2.27 11.3-4.87 16.67-9.69 28.75-22.36 30.06-31.52 0.93-6.52 0.94-13.78 0.94-14.09 0-2.11-1.41-3.974-3.44-4.55-4.29-1.219-7.77-1.916-10.61-2.243 0.55-0.974 0.91-1.626 0.91-1.626 0.51-0.907 0.71-1.956 0.56-2.983l-2.69-18.788c-0.25-1.775-1.49-3.256-3.19-3.822-1.7-0.568-3.58-0.124-4.85 1.143-0.04 0.04-1.11 1.116-2.84 2.804 2.34-4.314 3.91-8.651 4.57-11.947 1.53-7.611-2.01-13.581-4.34-15.908-1.54-1.539-3.93-1.829-5.8-0.704-5.5 3.317-12.29 8.221-13.42 12.745-0.22 0.494-1.13 1.461-2.36 2.561 0.58-1.585 1.15-3.439 1.7-5.633 4.46-17.81 0.78-24.512-0.93-26.516-0.67-0.907-5.42-7.533-6.11-14.467-0.56-5.5528-2.19-9.1188-5.001-10.905-2.634-1.6773-5.072-1.0269-5.759-0.78635-0.365 0.06459-19.607 4.918-22.794 22.97-1.171 6.62-3.103 11.436-4.654 15.305-2.031 5.06-3.785 9.43-2.416 14.486 2.373 8.781 7.714 12.427 12.981 15.409 3.508 1.987 6.049 5.41 6.341 6.816-0.856 1.178-1.962 2.869-3.103 4.68-1.478-4.827-3.484-10.166-5.929-13.79l-1.072-1.593c-9.711-14.471-17.14-24.492-24.31-21.625-4.607 1.842-11.699 5.379-11.998 5.528-1.716 0.858-2.741 2.669-2.601 4.582 0.138 1.911 1.424 3.553 3.247 4.154 4.235 1.392 10.296 4.978 10.168 7.814-0.104 2.356-0.61 4.403-1.098 6.383-1.03 4.181-2.314 9.382 2.48 14.173 4.382 4.379 11.791 7.74 14.274 8.791 2.01 1.72 4.023 3.437 6.034 5.154-0.27-0.031-0.604-0.116-0.97-0.254-3.076-1.151-8.104-4.425-12.544-7.312-6.27-4.081-10.266-6.613-13.257-7.21-5.029-1.007-17.845 2.218-23.12 3.651-2.292 0.623-3.767 2.844-3.453 5.196 0.312 2.352 2.32 4.107 4.694 4.107 3.479 0.018 10.28 1.312 10.955 4.35 0.466 2.1 1.496 4.21 2.842 6.23-8.247-4.59-12.598-4.84-13.438-4.84-1.475 0-2.868 0.69-3.764 1.86s-1.195 2.7-0.807 4.12c0.613 2.25 5.209 18.65 11.913 30.03-2.588 0.23-5.175 0.46-7.761 0.69-1.395 0.13-2.663 0.86-3.466 2.01-0.8 1.14-1.054 2.59-0.689 3.94 0.17 0.63 4.36 15.67 19.302 26.73 11.196 8.28 19.902 8.42 24.335 7.66 4.583 3.97 9.165 7.95 13.748 11.92-0.439 3.42-0.881 6.85-1.322 10.27-4.066-5.17-9.252-10.56-14.18-12.2-8.401-2.8-35.903-6.32-37.068-6.47-2.18-0.28-4.264 0.98-5.035 3.04-0.769 2.05-0.023 4.37 1.805 5.59 0.094 0.06 9.381 6.32 13.242 12.8 4.458 7.48 8.668 14.55 20.251 15.71 5.907 0.59 15.333 3.87 20.162 5.66-0.218 6.95-0.434 13.89-0.65 20.84-1.803-0.46-4.057-1.74-6.025-5.02-6.379-10.62-18.8-19.03-19.326-19.39-0.671-0.45-1.447-0.72-2.254-0.78l-32.766-2.69c-1.4891-0.12-2.949 0.47-3.9386 1.59s-1.3931 2.63-1.0877 4.1c0.7756 3.72 1.5513 7.44 2.3269 11.16-1.8031 3.24-3.6063 6.48-5.4116 9.73-0.76455 1.38-0.79575 3.04-0.08029 4.45 0.71549 1.4 2.084 2.36 3.6487 2.55 0.1448 0.01 14.651 1.79 27.373 4.41 4.315 0.88 9.091 1.67 13.667 2.43 6.555 1.08 15.533 2.57 17.368 3.69 2.026 2.06 6.437 4.4 9.341 5.81 0.089 0.9 0.18 1.79 0.269 2.69 0.219 2.19 1.92 3.94 4.104 4.22l13.788 1.79"/>
     </g>
     <g id="Fill-127-+-Stroke-187" transform="translate(340.97 179.11)">
      <path id="Stroke-184" d="m68.721 192.31v-6c4.069 1.75 8.612 4.35 10.25 7.09 4.452 7.44 15.277 6.93 28.979 6.29l4.46-0.21c13.08-0.54 16.46 1.02 16.6 1.09 1.04 0.72 2.29 0.71 3.4 0.08 1.11-0.62 1.66-1.88 1.6-3.16-0.03-0.66-0.92-16.27-16.29-21.11-6.3-1.99-12.45-2.86-17.88-3.63-5.488-0.78-10.672-1.52-12.727-3.17-6.582-5.28-15.523 1.36-17.526 2.99-0.306 0.16-0.61 0.32-0.917 0.48-0.058-6.41-0.118-12.82-0.176-19.23 7.733-1.36 27.522-5.26 33.346-10.52 6.74-6.08 9.52-11.57 9.63-11.81 0.54-1.08 0.46-2.38-0.22-3.38-0.67-1.01-1.84-1.57-3.04-1.47-2.56 0.2-25.15 2.14-32.439 7.66-2.426 1.83-4.727 3.42-6.654 4.69 0.043-0.67 0.084-1.34 0.125-2 2.22-1.44 4.441-2.87 6.66-4.3 3.985-0.17 18.245-1.47 24.588-11.01 6.65-10.01 8.67-21.16 8.75-21.63 0.21-1.185-0.23-2.394-1.15-3.167-0.93-0.772-2.19-0.989-3.32-0.571-1.82 0.677-17.941 6.758-22.757 11.588-0.243 0.24-0.502 0.49-0.774 0.74 2.172-0.58 4.825-1.61 8.002-3.47 11.799-6.882 20.359-15.885 21.289-22.395 0.66-4.635 0.66-9.796 0.66-10.015 0-1.503-0.99-2.825-2.43-3.235-3.04-0.866-5.51-1.362-7.51-1.595 0.38-0.691 0.64-1.155 0.64-1.155 0.36-0.644 0.5-1.39 0.39-2.12l-1.9-13.353c-0.18-1.262-1.051-2.315-2.257-2.717-1.206-0.403-2.535-0.088-3.433 0.812-0.028 0.029-0.79 0.793-2.012 1.993 1.656-3.066 2.768-6.148 3.235-8.491 1.08-5.41-1.423-9.652-3.071-11.307-1.092-1.093-2.785-1.299-4.106-0.5-3.895 2.357-8.707 5.843-9.507 9.059-0.157 0.351-0.801 1.038-1.67 1.82 0.413-1.127 0.816-2.444 1.204-4.003 3.155-12.659 0.556-17.422-0.656-18.847-0.477-0.644-3.84-5.354-4.331-10.282-0.393-3.9468-1.551-6.4813-3.538-7.7509-1.866-1.1921-3.592-0.72982-4.078-0.55885-0.259 0.04591-13.884 3.4954-16.141 16.327-0.828 4.704-2.197 8.127-3.295 10.877-1.438 3.597-2.68 6.703-1.711 10.296 1.681 6.241 5.462 8.832 9.192 10.952 2.484 1.412 4.283 3.845 4.49 4.844-0.606 0.838-1.389 2.039-2.197 3.326-1.047-3.43-2.467-7.225-4.198-9.801l-0.759-1.131c-6.877-10.286-12.137-17.408-17.214-15.371-3.262 1.31-8.284 3.824-8.495 3.93-1.215 0.609-1.941 1.896-1.842 3.256 0.098 1.358 1.009 2.525 2.3 2.952 2.998 0.99 7.289 3.539 7.199 5.554-0.074 1.675-0.432 3.13-0.778 4.537-0.729 2.971-1.638 6.668 1.757 10.073 3.102 3.112 8.348 5.501 10.107 6.249 1.423 1.222 2.848 2.442 4.272 3.663-0.191-0.022-0.428-0.083-0.687-0.181-2.178-0.818-5.738-3.145-8.882-5.197-4.439-2.9-7.269-4.7-9.387-5.124-3.56-0.716-12.635 1.576-16.371 2.594-1.622 0.444-2.667 2.022-2.444 3.694 0.221 1.671 1.643 2.919 3.323 2.919 2.464 0.013 7.279 0.932 7.757 3.088 0.33 1.493 1.059 2.992 2.012 4.435-5.839-3.266-8.92-3.444-9.515-3.444-1.044 0-2.031 0.49-2.665 1.322-0.635 0.833-0.846 1.916-0.571 2.927 0.434 1.601 3.688 13.259 8.435 21.347-1.832 0.163-3.665 0.326-5.495 0.489-0.988 0.089-1.886 0.609-2.454 1.429-0.567 0.81-0.747 1.84-0.488 2.8 0.12 0.45 3.087 11.14 13.667 19 7.927 5.88 14.092 5.98 17.231 5.44 3.245 2.83 6.49 5.65 9.734 8.47-0.311 2.44-0.623 4.87-0.936 7.31-2.878-3.68-6.551-7.51-10.04-8.68-5.948-1.99-25.422-4.49-26.247-4.6-1.544-0.19-3.019 0.7-3.565 2.16-0.545 1.46-0.016 3.11 1.278 3.98 0.066 0.04 6.643 4.49 9.376 9.1 3.157 5.31 6.138 10.34 14.34 11.16 4.182 0.42 10.856 2.75 14.276 4.03-0.155 4.93-0.308 9.87-0.461 14.8-1.277-0.32-2.872-1.23-4.266-3.56-4.516-7.55-13.312-13.53-13.684-13.78-0.475-0.32-1.024-0.51-1.596-0.56l-23.201-1.91c-1.0541-0.08-2.0878 0.33-2.7885 1.13-0.7007 0.79-0.9864 1.87-0.7702 2.91 0.5492 2.64 1.0984 5.29 1.6476 7.93-1.2767 2.31-2.5535 4.61-3.8318 6.92-0.5413 0.98-0.5634 2.16-0.0568 3.16s1.4756 1.68 2.5835 1.81c0.1026 0.02 10.373 1.28 19.382 3.14 3.055 0.63 6.437 1.19 9.677 1.73 4.642 0.77 10.999 1.82 12.297 2.62 1.435 1.47 4.558 3.13 6.615 4.13 0.063 0.64 0.128 1.27 0.191 1.91 0.154 1.56 1.358 2.8 2.905 3l9.763 1.27"/>
     </g>
    </g>
   </g>
  </g>
 </g>
</svg>
