<?xml version="1.0" encoding="UTF-8" standalone="no"?>
<svg width="445px" height="366px" viewBox="0 0 445 366" version="1.1" xmlns="http://www.w3.org/2000/svg" xmlns:xlink="http://www.w3.org/1999/xlink" xmlns:sketch="http://www.bohemiancoding.com/sketch/ns">
    <!-- Generator: Sketch 3.2.2 (9983) - http://www.bohemiancoding.com/sketch -->
    <title>bg_quinoa</title>
    <desc>Created with Sketch.</desc>
    <defs></defs>
    <g id="Blank-Project" stroke="none" stroke-width="1" fill="none" fill-rule="evenodd" sketch:type="MSPage">
        <g id="Pagina-Producto-11" sketch:type="MSArtboardGroup" transform="translate(-381.000000, -141.000000)" fill="#C22931">
            <g id="bg_amaranto-2" sketch:type="MSLayerGroup" transform="translate(0.000000, 26.000000)">
                <g id="bg_quinoa" transform="translate(354.000000, 115.000000)" sketch:type="MSShapeGroup">
                    <g id="Fill-127-+-Stroke-185" transform="translate(130.507426, 0.000000)">
                        <path d="M136.869009,383.492302 L136.869009,371.546378 C145.041891,375.01903 154.169015,380.215381 157.459726,385.676916 C166.402976,400.517768 188.147661,399.498071 215.674866,398.210033 L224.640308,397.805942 C250.899416,396.716792 257.690073,399.839022 257.965884,399.974772 C260.074094,401.401716 262.581755,401.382774 264.810434,400.14209 C267.035944,398.901406 268.136017,396.375841 268.021889,393.837648 C267.958484,392.514883 266.176808,361.393606 235.295489,351.730162 C222.639886,347.768182 210.282285,346.028699 199.379826,344.491261 C188.356897,342.938038 177.942654,341.470053 173.815,338.183662 C160.591924,327.648898 142.632508,340.895487 138.609471,344.137682 C137.994445,344.456534 137.382588,344.775387 136.767561,345.094239 C136.650262,332.311722 136.529793,319.526049 136.412494,306.740375 C151.946676,304.034863 191.698331,296.256122 203.399692,285.768712 C216.927111,273.645999 222.516246,262.685046 222.747674,262.224131 C223.835066,260.058459 223.667044,257.479225 222.30701,255.471401 C220.950147,253.466733 218.610509,252.342857 216.188445,252.535431 C211.058994,252.939522 165.673821,256.80995 151.030477,267.815101 C146.157816,271.47717 141.535604,274.640441 137.66474,277.166006 C137.750336,275.83377 137.832762,274.504692 137.915189,273.175613 C142.375718,270.321724 146.836247,267.464679 151.293607,264.61079 C159.298466,264.263525 187.944765,261.677977 200.679625,242.657314 C214.045362,222.695878 218.09693,200.458276 218.261782,199.523817 C218.683424,197.1561 217.798927,194.744185 215.944336,193.20359 C214.089745,191.662995 211.550382,191.230492 209.286829,192.063929 C205.625201,193.415106 173.244357,205.531505 163.568781,215.169694 C163.080564,215.652708 162.560644,216.145193 162.015362,216.640835 C166.377614,215.485389 171.70679,213.430211 178.088486,209.736572 C201.79872,196.003811 218.981427,178.050199 220.845529,165.068794 C222.17069,155.825225 222.186541,145.533547 222.186541,145.097887 C222.186541,142.098778 220.186119,139.462719 217.288518,138.645068 C211.188974,136.918212 206.233887,135.930085 202.204511,135.466012 C202.978049,134.086422 203.497969,133.161434 203.497969,133.161434 C204.220784,131.876553 204.499765,130.389626 204.290529,128.934269 L200.470389,102.305341 C200.108981,99.7892467 198.352667,97.6898706 195.930603,96.8880037 C193.508539,96.0829797 190.839196,96.7112141 189.035328,98.5075223 C188.978264,98.5643476 187.447038,100.089158 184.993271,102.482131 C188.318854,96.3671058 190.553874,90.2205115 191.492265,85.5482158 C193.66071,74.7608954 188.632708,66.3002519 185.322976,63.0012323 C183.129169,60.8197754 179.7275,60.409371 177.074008,62.0036341 C169.249853,66.7043423 159.583787,73.6559606 157.976475,80.0677393 C157.662621,80.7685836 156.369163,82.1387028 154.62236,83.6982393 C155.452963,81.4504863 156.261375,78.8238984 157.041254,75.7142963 C163.378566,50.4712719 158.157179,40.9719897 155.722434,38.1307288 C154.765021,36.8458475 148.009237,27.4539019 147.023292,17.6262962 C146.233902,9.75600361 143.906945,4.70171622 139.915611,2.16983709 C136.168386,-0.207351173 132.700142,0.714480131 131.723708,1.05543144 C131.203788,1.14698318 103.835095,8.02599144 99.3016504,33.6131241 C97.6372738,42.9955988 94.8886746,49.8209388 92.6821867,55.3045723 C89.794097,62.4771775 87.2991171,68.6711262 89.2456453,75.8374176 C92.6219522,88.2821402 100.21785,93.450078 107.70913,97.6772428 C112.69909,100.493248 116.313165,105.34549 116.728466,107.33753 C115.511094,109.00756 113.938654,111.40369 112.315491,113.970295 C110.213621,107.129171 107.360404,99.5619458 103.882649,94.4255776 L102.357763,92.1683536 C88.5450219,71.6576071 77.9786079,57.4544597 67.7799419,61.5174628 C61.2270533,64.1282658 51.1393457,69.1415128 50.7145333,69.3530289 C48.2734476,70.5684571 46.8151366,73.1350628 47.0148618,75.8468884 C47.2114168,78.5555571 49.040646,80.8822341 51.6339033,81.7346123 C57.6573616,83.7077102 66.2772475,88.7904102 66.0965438,92.8092158 C65.9475424,96.1492758 65.2278977,99.0505189 64.5336149,101.857053 C63.0689634,107.782661 61.2429045,115.154154 68.0620933,121.944768 C74.2947876,128.151344 84.8326695,132.915191 88.3643182,134.405275 C91.2238758,136.842445 94.0866036,139.276459 96.9461612,141.710472 C96.562562,141.666275 96.0870258,141.546311 95.5671063,141.350579 C91.1921734,139.718433 84.0401092,135.077707 77.7249886,130.986291 C68.8071,125.202747 63.1228575,121.613287 58.8683938,120.767223 C51.7163296,119.340278 33.4874425,123.911551 25.9834815,125.941475 C22.7244735,126.825422 20.6257738,129.972908 21.0727778,133.306654 C21.5166116,136.6404 24.3729989,139.128082 27.7493059,139.128082 C32.6980524,139.153338 42.3704584,140.987529 43.3310415,145.287304 C43.9936219,148.264314 45.4582734,151.253952 47.3730991,154.129939 C35.6432065,147.617138 29.4548956,147.263559 28.2597147,147.263559 C26.161015,147.263559 24.1796142,148.239058 22.9051773,149.899618 C21.6307403,151.560177 21.205928,153.719535 21.7575499,155.73683 C22.6293663,158.928513 29.1664037,182.176341 38.7024893,198.305232 C35.0218392,198.630398 31.3411892,198.955565 27.6637093,199.280732 C25.6791383,199.457521 23.8752711,200.49616 22.7339842,202.121992 C21.5958676,203.750982 21.2344601,205.793533 21.7543797,207.709805 C21.995318,208.609538 27.9553715,229.928465 49.2086687,245.596441 C65.1327904,257.334005 77.5157527,257.53605 83.8213625,256.459528 C90.3393785,262.088382 96.8573944,267.717235 103.37541,273.349245 C102.750873,278.204645 102.123165,283.056887 101.495457,287.912286 C95.7129374,280.581833 88.335786,272.935684 81.3263827,270.609007 C69.3777435,266.64387 30.2601369,261.652722 28.6021007,261.444362 C25.5016048,261.049743 22.5374293,262.833423 21.4405258,265.750451 C20.3467926,268.664322 21.4088234,271.947557 24.0084212,273.680726 C24.1415713,273.769121 37.3519665,282.630698 42.8428244,291.820598 C49.1833068,302.427972 55.1718925,312.444995 71.6476362,314.086612 C80.0487754,314.923206 93.4557256,319.567089 100.325638,322.111596 C100.014955,331.954986 99.7074413,341.798377 99.3999279,351.641767 C96.8352028,351.000905 93.6300889,349.179341 90.8307659,344.535458 C81.7575355,329.476775 64.0897811,317.556108 63.3416042,317.054152 C62.3873615,316.416446 61.2841176,316.031298 60.1364903,315.939746 L13.5307739,312.132456 C11.4130528,311.961981 9.33654478,312.79226 7.92895767,314.380209 C6.52137057,315.965002 5.94755691,318.118046 6.38187995,320.189009 C7.4851239,325.461127 8.58836785,330.733244 9.6916118,336.005362 C7.12688664,340.605047 4.56216149,345.201576 1.99426609,349.801262 C0.906873348,351.752261 0.862489971,354.116821 1.88013741,356.105704 C2.89778484,358.094586 4.84431296,359.448921 7.0698223,359.720419 C7.27588798,359.745675 27.9078179,362.268083 46.0035549,365.971193 C52.1411419,367.227662 58.9349688,368.348381 65.4434741,369.421746 C74.7671535,370.956027 87.5368852,373.061717 90.1459938,374.652823 C93.027743,377.569851 99.3016504,380.884656 103.432475,382.883009 C103.559284,384.155262 103.689264,385.424359 103.816074,386.696612 C104.126758,389.799901 106.545652,392.281269 109.652488,392.682202 L129.2636,395.217238" id="Stroke-184"></path>
                    </g>
                    <g id="Fill-127-+-Stroke-186" transform="translate(94.059406, 261.007310) scale(-1, 1) translate(-94.059406, -261.007310) translate(0.000000, 119.014620)">
                        <path d="M95.8775544,270.568912 L95.8775544,262.140593 C101.623554,264.590686 108.040441,268.256916 110.353997,272.110244 C116.64161,282.581049 131.929358,281.861613 151.282545,280.952851 L157.58576,280.66775 C176.047404,279.899311 180.821621,282.102167 181.015532,282.197944 C182.497723,283.204709 184.260751,283.191345 185.827639,282.315994 C187.392299,281.440642 188.165713,279.658757 188.085474,277.867962 C188.040897,276.934699 186.788278,254.977413 165.076957,248.159473 C156.17935,245.36414 147.491255,244.136866 139.826207,243.052143 C132.076462,241.956283 124.754659,240.920562 121.852684,238.601884 C112.55611,231.169193 99.9296211,240.515183 97.1011983,242.802679 C96.6687995,243.027642 96.2386297,243.252605 95.8062309,243.477568 C95.7237631,234.459 95.6390664,225.438203 95.5565986,216.417407 C106.47801,214.508562 134.42568,209.020354 142.652401,201.621074 C152.162945,193.068023 156.092424,185.334639 156.255131,185.009445 C157.01963,183.481478 156.9015,181.661727 155.945319,180.245128 C154.991368,178.830756 153.346469,178.037817 151.64362,178.173686 C148.037326,178.458788 116.128972,181.189528 105.83387,188.954094 C102.408113,191.537829 99.1584357,193.76964 96.4369982,195.551526 C96.4971774,194.611581 96.5551277,193.673864 96.6130781,192.736147 C99.7490834,190.722616 102.885089,188.706858 106.018865,186.693327 C111.646736,186.448318 131.786711,184.624112 140.74004,171.204286 C150.136911,157.120707 152.985394,141.431204 153.101295,140.771906 C153.397733,139.101388 152.775881,137.399687 151.471998,136.312737 C150.168115,135.225787 148.382799,134.920639 146.791393,135.508661 C144.21706,136.46197 121.451489,145.010567 114.64901,151.810688 C114.305765,152.151473 113.940232,152.498941 113.556868,152.848636 C116.623779,152.033423 120.370492,150.583414 124.857186,147.977406 C141.526827,138.288403 153.607246,125.621423 154.917815,116.462531 C155.849478,109.940829 155.860623,102.679645 155.860623,102.37227 C155.860623,100.256281 154.454212,98.3964375 152.417035,97.8195521 C148.128709,96.6011877 144.645001,95.904025 141.812121,95.5766035 C142.355963,94.6032484 142.721496,93.9506328 142.721496,93.9506328 C143.229676,93.0440985 143.425815,91.9950133 143.278711,90.9682017 L140.592935,72.1804447 C140.338845,70.4052411 139.104057,68.9240487 137.401208,68.3583 C135.698359,67.7903239 133.821659,68.233568 132.553438,69.5009341 C132.513319,69.5410266 131.43678,70.61684 129.711642,72.3051767 C132.049716,67.990786 133.621062,63.6541218 134.280805,60.3576333 C135.805344,52.7467542 132.270373,46.7774372 129.943444,44.4498491 C128.401073,42.9107453 126.009507,42.6211889 124.143951,43.7460042 C118.643126,47.0625389 111.847333,51.9671792 110.717301,56.4909414 C110.496644,56.9854147 109.58727,57.9520877 108.359168,59.0524021 C108.943129,57.4665238 109.511488,55.6133627 110.059788,53.419416 C114.515278,35.6094688 110.844346,28.9073513 109.132582,26.90273 C108.459467,25.9961956 103.709767,19.3698083 103.016592,12.4360457 C102.461606,6.88324453 100.825623,3.31724585 98.0194884,1.53090547 C95.3849764,-0.146294414 92.9466041,0.504093854 92.2601153,0.744648418 C91.8945824,0.809241774 72.6528378,5.66265285 69.4655687,23.715382 C68.2954174,30.3350872 66.3629962,35.1506332 64.8117099,39.0195525 C62.7812189,44.0801078 61.0271064,48.4501824 62.3956262,53.5062829 C64.7693616,62.2865246 70.1097091,65.9327081 75.3765042,68.9151392 C78.8847292,70.9019417 81.425629,74.3253896 81.7176096,75.7308519 C80.8617276,76.9091238 79.7562132,78.5996878 78.6150371,80.4105291 C77.1373033,75.5838463 75.1313297,70.2448714 72.6862707,66.6209614 L71.6141893,65.0284011 C61.9030482,50.5572622 54.4742593,40.5363827 47.3040181,43.4029912 C42.6969654,45.2450155 35.6047343,48.7820586 35.3060671,48.9312915 C33.5898453,49.788824 32.5645699,51.5996653 32.704988,53.512965 C32.8431773,55.4240374 34.1292293,57.0655996 35.9524364,57.666986 C40.1872695,59.0590841 46.2475387,62.645129 46.1204937,65.4805546 C46.0157373,67.8370984 45.5097862,69.8840396 45.0216659,71.86416 C43.9919328,76.0449092 42.7081097,81.245788 47.5023866,86.0368331 C51.8843245,90.4158171 59.2930537,93.776899 61.7760032,94.8282115 C63.7864345,96.5477312 65.7990947,98.2650235 67.809526,99.9823158 C67.539834,99.9511328 67.2055051,99.8664932 66.8399721,99.7283971 C63.7641459,98.5768535 58.7358388,95.3026386 54.2959505,92.4159838 C48.0261686,88.3354656 44.0298234,85.8029606 41.0386939,85.2060289 C36.0103867,84.1992635 23.1944443,87.4244766 17.9187337,88.8566672 C15.6274661,89.4803271 14.1519611,91.7010022 14.4662303,94.0530912 C14.7782706,96.4051803 16.7864731,98.1603377 19.1602085,98.1603377 C22.6394583,98.1781565 29.4397088,99.472251 30.1150532,102.505911 C30.5808849,104.606309 31.610618,106.715616 32.9568492,108.744739 C24.7100688,104.149701 20.3593349,103.900237 19.5190549,103.900237 C18.0435499,103.900237 16.6505126,104.58849 15.7545111,105.76008 C14.8585096,106.93167 14.5598424,108.455182 14.9476639,109.878463 C15.5606003,112.130321 20.1565087,128.532579 26.8609183,139.912146 C24.2732123,140.141564 21.6855064,140.370982 19.1000293,140.600399 C17.7047632,140.725131 16.4365421,141.457932 15.6341527,142.605021 C14.8339921,143.754337 14.5799021,145.195437 14.9454351,146.547443 C15.1148284,147.18224 19.3050844,162.223582 34.2473588,173.277955 C45.4429204,181.559269 54.1488458,181.70182 58.5820475,180.942291 C63.1645827,184.913669 67.747118,188.885046 72.3296532,192.858651 C71.8905679,196.284327 71.4492537,199.707774 71.0079395,203.13345 C66.9424997,197.961526 61.7559435,192.566868 56.827935,190.925305 C48.4273633,188.127745 20.9254653,184.606293 19.7597717,184.459288 C17.5799471,184.180868 15.4959634,185.439325 14.724778,187.497403 C13.9558214,189.553253 14.7024894,191.869705 16.5301542,193.092524 C16.6237663,193.15489 25.9114241,199.407081 29.7718088,205.890918 C34.229528,213.374837 38.4398437,220.442241 50.0232268,221.600467 C55.9297046,222.190717 65.3555516,225.467159 70.1854903,227.262409 C69.9670621,234.207308 69.7508627,241.152208 69.5346633,248.097107 C67.7315159,247.644953 65.4781389,246.359768 63.5100559,243.083326 C57.1310599,232.458833 44.7096256,224.048333 44.1836147,223.694183 C43.512728,223.244257 42.7370849,222.972519 41.9302377,222.907926 L9.1637734,220.221733 C7.67489521,220.101456 6.2149922,220.687251 5.22537856,221.807611 C4.23576492,222.925745 3.83234134,224.444802 4.1376951,225.905948 C4.91333822,229.625635 5.68898135,233.345321 6.46462447,237.065007 C4.66147709,240.310267 2.85832971,243.553298 1.05295347,246.798558 C0.288454646,248.175064 0.257250612,249.843355 0.97271453,251.24659 C1.68817845,252.649825 3.05669821,253.605361 4.62135762,253.796914 C4.76623349,253.814733 19.2716515,255.594391 31.9939818,258.207081 C36.3090539,259.093569 41.0854999,259.884281 45.6613486,260.641582 C52.2164246,261.724078 61.1942709,263.209725 63.0286223,264.332313 C65.0546556,266.390391 69.4655687,268.729116 72.3697727,270.139033 C72.4589271,271.036657 72.5503103,271.932055 72.6394647,272.82968 C72.8578929,275.019172 74.5585128,276.769875 76.7427951,277.052749 L90.5305203,278.841317" id="Stroke-184"></path>
                    </g>
                    <g id="Fill-127-+-Stroke-187" transform="translate(340.965347, 179.111111)">
                        <path d="M68.720968,192.305177 L68.720968,186.314802 C72.7895643,188.05619 77.3331983,190.66194 78.9713685,193.400669 C83.4234671,200.842729 94.2483319,200.331394 107.951831,199.685498 L112.414977,199.482863 C125.487197,198.936701 128.867698,200.502367 129.005002,200.570439 C130.054504,201.285992 131.302859,201.276493 132.412333,200.654343 C133.520228,200.032192 134.067863,198.765728 134.011048,197.492931 C133.979484,196.829621 133.092536,181.223616 117.719303,176.377807 C111.419134,174.391041 105.267315,173.518764 99.8398898,172.747804 C94.352493,171.968929 89.1681103,171.232796 87.1132956,169.58481 C80.5306289,164.302071 71.5901333,170.944676 69.5873991,172.570499 C69.2812286,172.73039 68.9766362,172.890281 68.6704657,173.050173 C68.6120723,166.640281 68.5521008,160.228806 68.4937074,153.817331 C76.226881,152.460631 96.0159144,148.559921 101.841046,143.300929 C108.57522,137.221901 111.357584,131.725446 111.472792,131.494316 C112.014115,130.408323 111.93047,129.114947 111.253423,128.108108 C110.577954,127.102852 109.413243,126.539275 108.207499,126.635843 C105.653974,126.838477 83.0604814,128.779334 75.7707816,134.297951 C73.3450902,136.134324 71.0440765,137.720571 69.1170959,138.987035 C69.1597073,138.318975 69.2007404,137.652498 69.2417736,136.986022 C71.4622992,135.554917 73.6828247,134.122229 75.9017721,132.691125 C79.8867238,132.516986 94.1473272,131.220443 100.486951,121.682385 C107.140637,111.672569 109.157575,100.521351 109.239641,100.05276 C109.449542,98.8654495 109.009224,97.6559762 108.085978,96.883433 C107.162732,96.1108898 105.898595,95.8940078 104.771761,96.311941 C102.948941,96.9894994 86.8292198,103.065361 82.0125574,107.898505 C81.7695148,108.140717 81.5106902,108.387677 81.2392401,108.636221 C83.4108415,108.056813 86.0637935,107.026228 89.2407074,105.174024 C101.044055,98.2876252 109.597892,89.2846478 110.525873,82.7750219 C111.18556,78.139763 111.193451,72.9789214 111.193451,72.7604563 C111.193451,71.2565301 110.197608,69.9346581 108.755134,69.5246403 C105.71868,68.6586954 103.251955,68.1631913 101.246065,67.9304785 C101.631145,67.2386724 101.88997,66.7748299 101.88997,66.7748299 C102.249799,66.1305163 102.388681,65.3848855 102.28452,64.6550855 L100.38279,51.3018037 C100.202876,50.0400887 99.3285535,48.9873404 98.1228097,48.585238 C96.9170659,48.1815525 95.5882226,48.4965855 94.6902275,49.3973581 C94.6618199,49.4258536 93.89955,50.1904813 92.6780242,51.3904562 C94.3335546,48.3240297 95.4461847,45.2417725 95.9133315,42.8988138 C96.9928194,37.4894286 94.4897963,33.2467735 92.8421568,31.5924547 C91.7500434,30.4985463 90.0566362,30.2927458 88.7356839,31.0922013 C84.8406895,33.4494078 80.0287617,36.9353505 79.2286149,40.1505865 C79.0723733,40.5020303 78.4284682,41.1890871 77.5588807,41.9711287 C77.9723688,40.8439756 78.3748094,39.5268529 78.7630463,37.9675188 C81.9178655,25.3092092 79.3185723,20.5457208 78.1065157,19.1209486 C77.6298997,18.4766349 74.2667582,13.7669712 73.7759385,8.83884242 C73.382967,4.89222339 72.2245691,2.35771192 70.237617,1.08808157 C68.3721861,-0.103977848 66.6456368,0.358281582 66.1595516,0.529254248 C65.900727,0.575163575 52.2761377,4.02469542 50.0193136,16.8555608 C49.1907592,21.5604752 47.822461,24.9830947 46.7240347,27.7329051 C45.2862957,31.3296634 44.0442533,34.4356668 45.0132673,38.0292589 C46.6940489,44.2697613 50.475413,46.8612636 54.2046965,48.981008 C56.6887812,50.3931156 58.4879277,52.8263099 58.6946718,53.8252336 C58.0886435,54.662683 57.3058569,55.8642409 56.4978192,57.1512852 C55.4514734,53.7207503 54.0310946,49.9261069 52.2998107,47.3504354 L51.5406971,46.218533 C44.6644854,35.9332607 39.4043492,28.8109827 34.327284,30.848407 C31.0651473,32.1576143 26.043319,34.6715458 25.8318404,34.7776121 C24.6166274,35.387098 23.890656,36.6741423 23.9900825,38.0340082 C24.0879309,39.392291 24.9985515,40.5590212 26.289518,40.9864528 C29.2880955,41.975878 33.5792178,44.5246372 33.4892605,46.5398983 C33.4150851,48.2147972 33.056834,49.6696479 32.7112085,51.0770063 C31.9820807,54.0484479 31.0730383,57.7449402 34.4677436,61.1501458 C37.5704823,64.2624816 42.8164147,66.6513497 44.5745281,67.3985635 C45.9980633,68.6207015 47.4231767,69.8412564 48.8467119,71.0618112 C48.6557499,71.0396481 48.4190201,70.979491 48.1601955,70.8813401 C45.9822813,70.0628876 42.4218651,67.7357596 39.2780933,65.6840876 C34.8386203,62.7838846 32.0089101,60.9839224 29.8909674,60.5596569 C26.3305512,59.8441046 17.2559087,62.1364048 13.5203124,63.1543254 C11.8979242,63.5975879 10.8531566,65.1759189 11.0756826,66.8476516 C11.2966305,68.5193844 12.7185875,69.7668516 14.3993691,69.7668516 C16.8629372,69.7795162 21.6780215,70.6992858 22.1562157,72.8554411 C22.4860592,74.3482858 23.215187,75.8474628 24.168419,77.2896489 C18.3290838,74.0237543 15.24844,73.8464494 14.6534591,73.8464494 C13.6086915,73.8464494 12.6223174,74.3356211 11.9878815,75.1683214 C11.3534456,76.0010216 11.141967,77.0838484 11.4165736,78.0954367 C11.8505782,79.6959308 15.1048239,91.3537337 19.8520456,99.4416907 C18.0197569,99.6047479 16.1874682,99.7678052 14.3567577,99.9308625 C13.3688053,100.019515 12.4708103,100.540348 11.9026588,101.355635 C11.3360854,102.172504 11.1561708,103.196757 11.4149954,104.157687 C11.5349385,104.608865 14.501952,115.299405 25.082196,123.156233 C33.0094881,129.042125 39.1739321,129.143442 42.3129693,128.603612 C45.5577459,131.426244 48.8025224,134.248876 52.0472989,137.073091 C51.7363937,139.507868 51.4239104,141.941063 51.111427,144.37584 C48.2327926,140.699928 44.5603243,136.865708 41.070927,135.698977 C35.1226961,133.710629 15.6493024,131.207779 14.8239045,131.103295 C13.2804262,130.90541 11.8048104,131.799851 11.2587537,133.262617 C10.7142751,134.7238 11.2429717,136.370203 12.5370946,137.239314 C12.603379,137.283641 19.1797329,141.727347 21.9131731,146.335693 C25.0695704,151.654843 28.0507878,156.677957 36.2526864,157.501158 C40.4349129,157.920675 47.1091152,160.249386 50.5290717,161.525348 C50.3744083,166.461393 50.221323,171.397437 50.0682377,176.333481 C48.791475,176.012116 47.1959161,175.098678 45.8023666,172.769967 C41.285562,165.218675 32.4902607,159.240964 32.1178058,158.989254 C31.642768,158.669472 31.0935548,158.476336 30.5222469,158.430427 L7.32114795,156.521232 C6.26691123,156.435745 5.23319109,156.852096 4.53247087,157.648385 C3.83175065,158.443091 3.54609668,159.522752 3.7623099,160.561253 C4.31152305,163.204997 4.86073619,165.848741 5.40994934,168.492485 C4.1331866,170.799032 2.85642386,173.103997 1.57808292,175.410545 C1.03676076,176.388889 1.01466598,177.574616 1.52126776,178.571956 C2.02786954,179.569297 2.99688354,180.248438 4.10477902,180.384583 C4.20736194,180.397248 14.478279,181.662129 23.4866372,183.519082 C26.5420298,184.149148 29.9241096,184.711142 33.1641515,185.249389 C37.8056339,186.018766 44.1626182,187.07468 45.4614757,187.872553 C46.8960583,189.335319 50.0193136,190.997553 52.0757064,191.999643 C52.1388344,192.637624 52.2035405,193.274023 52.2666685,193.912004 C52.421332,195.468172 53.6254976,196.712473 55.1721323,196.913524 L64.9348694,198.184737" id="Stroke-184"></path>
                    </g>
                </g>
            </g>
        </g>
    </g>
</svg>