<?xml version="1.0" encoding="UTF-8" standalone="no"?>
<svg width="751px" height="335px" viewBox="0 0 751 335" version="1.1" xmlns="http://www.w3.org/2000/svg" xmlns:xlink="http://www.w3.org/1999/xlink" xmlns:sketch="http://www.bohemiancoding.com/sketch/ns">
    <!-- Generator: Sketch 3.2.2 (9983) - http://www.bohemiancoding.com/sketch -->
    <title>macuchino 3</title>
    <desc>Created with Sketch.</desc>
    <defs>
        <rect id="path-1" x="0" y="0" width="883" height="367"></rect>
        <path id="path-3" d="M664.886945,203.758951 C647.107518,58.614918 512.101191,-3.60960656 398.174437,10.4112131 C385.294586,11.9972787 372.600421,8.91819672 360.210106,5.84334426 C340.827028,1.03439344 322.186693,-3.77878689 304.736437,9.26078689 C271.823607,-4.54432787 247.384807,28.9660656 214.349593,33.030623 C100.422839,47.0514426 -15.5506804,140.159836 2.23296693,285.303869 C20.0123941,430.447902 144.227836,499.359279 264.484793,484.56023 C279.343887,482.733082 296.038739,490.426557 311.948647,498.115803 C333.37427,508.473869 353.381928,518.831934 365.586558,505.944623 C391.637449,522.575049 423.65139,464.977607 458.522362,460.684656 C578.779318,445.885607 682.670592,348.902984 664.886945,203.758951"></path>
    </defs>
    <g id="Blank-Project" stroke="none" stroke-width="1" fill="none" fill-rule="evenodd" sketch:type="MSPage">
        <g id="Producto-SuperShake-5" sketch:type="MSArtboardGroup" transform="translate(-293.000000, -211.000000)">
            <g id="macuchino-3" sketch:type="MSLayerGroup" transform="translate(161.000000, 179.000000)">
                <mask id="mask-2" sketch:name="Mask 2" fill="white">
                    <use xlink:href="#path-1"></use>
                </mask>
                <use id="Mask-2" sketch:type="MSShapeGroup" xlink:href="#path-1"></use>
                <g id="royalbreakfast" mask="url(#mask-2)">
                    <g transform="translate(132.000000, 32.012780)">
                        <path d="M664.886945,203.758951 C647.107518,58.614918 512.101191,-3.60960656 398.174437,10.4112131 C385.294586,11.9972787 372.600421,8.91819672 360.210106,5.84334426 C340.827028,1.03439344 322.186693,-3.77878689 304.736437,9.26078689 C271.823607,-4.54432787 247.384807,28.9660656 214.349593,33.030623 C100.422839,47.0514426 -15.5506804,140.159836 2.23296693,285.303869 C20.0123941,430.447902 144.227836,499.359279 264.484793,484.56023 C279.343887,482.733082 296.038739,490.426557 311.948647,498.115803 C333.37427,508.473869 353.381928,518.831934 365.586558,505.944623 C391.637449,522.575049 423.65139,464.977607 458.522362,460.684656 C578.779318,445.885607 682.670592,348.902984 664.886945,203.758951" id="shape" fill="#711610" sketch:type="MSShapeGroup"></path>
                        <g id="mascara" stroke-width="1" fill="none" sketch:type="MSLayerGroup">
                            <mask id="mask-4" sketch:name="Clip 44" fill="white">
                                <use xlink:href="#path-3"></use>
                            </mask>
                            <g id="Clip-44"></g>
                            <path d="M311.957087,311.425311 C228.309799,306.02 180.280447,283.535934 131.17074,283.535934 C96.2533461,283.535934 47.6964772,295.996066 6.25475522,309.221738 C4.58358191,301.494426 3.23735897,293.526033 2.23296693,285.303869 C0.996467484,275.241869 0.409868772,265.42941 0.414088907,255.874951 C0.519592272,127.627803 108.322931,46.0786557 214.349593,33.030623 C241.801569,29.6512459 263.315815,5.94485246 288.687265,5.94485246 C293.848489,5.94485246 299.174299,6.92609836 304.736437,9.26078689 C313.126064,2.98842623 321.790001,0.848295082 330.681824,0.848295082 C340.27841,0.848295082 350.145085,3.34793443 360.210106,5.84334426 C370.275127,8.34298361 380.538495,10.842623 390.945347,10.842623 C393.346603,10.842623 395.76052,10.7072787 398.174437,10.4112131 C408.61083,9.12544262 419.211808,8.48255738 429.897189,8.48255738 C535.839449,8.48255738 648.73649,71.9124918 664.886945,203.758951 C666.224728,214.675311 666.874629,225.316754 666.878849,235.67059 C666.891509,253.104623 665.076851,269.713902 661.658542,285.447672 C641.287952,282.783082 621.411118,277.077475 603.049313,271.376098 C577.87621,263.559967 555.560138,255.739607 538.772442,255.739607 C535.847889,255.739607 533.092141,255.976459 530.513639,256.492459 C492.026011,264.207082 404.736747,311.814426 324.334742,311.818656 C320.186349,311.818656 316.059058,311.69177 311.957087,311.425311 Z" id="Fill-43" fill="#9A5A56" sketch:type="MSShapeGroup" mask="url(#mask-4)"></path>
                        </g>
                        <path d="M471.798906,346.665574 L619.642882,121.389279 L715.959014,195.388754 L750.707603,149.963836 L630.028633,57.2403279 L588.793698,64.2274754 L424.081844,315.210721 L471.798906,346.665574" id="pajita" fill="#711610" sketch:type="MSShapeGroup"></path>
                    </g>
                </g>
            </g>
        </g>
    </g>
</svg>