<svg xmlns="http://www.w3.org/2000/svg" viewBox="0 0 751 512" xmlns:xlink="http://www.w3.org/1999/xlink">
  <title>
    Royal Breakfast
  </title>
  <defs>
    <path id="a" d="M398.174 10.424C385.294 12.01 372.6 8.93 360.21 5.856c-19.383-4.81-38.023-9.622-55.474 3.418-32.912-13.806-57.35 19.705-90.386 23.77-113.927 14.02-229.9 107.13-212.117 252.273 17.78 145.144 141.995 214.055 262.252 199.256 14.86-1.827 31.554 5.866 47.464 13.556 21.424 10.357 41.432 20.715 53.637 7.827 26.05 16.63 58.064-40.967 92.935-45.26 120.257-14.8 224.15-111.78 206.365-256.925C647.107 58.628 512.1-3.598 398.174 10.424z"/>
  </defs>
  <g fill="none" fill-rule="evenodd">
    <mask id="b" fill="#fff">
      <use xlink:href="#a"/>
    </mask>
    <use fill="#653B8A" xlink:href="#a"/>
    <path fill="#522E71" d="M131.17 283.55c-34.917 0-83.474 12.46-124.915 25.685-1.67-7.728-3.018-15.696-4.022-23.918C.996 275.255.41 265.442.413 255.887.52 127.642 108.324 46.092 214.35 33.044c27.452-3.38 48.966-27.085 74.337-27.085 5.16 0 10.487.98 16.05 3.316C313.126 3 321.79.86 330.68.86c9.596 0 19.463 2.5 29.528 4.996 10.065 2.5 20.328 5 30.735 5 2.402 0 4.816-.136 7.23-.432 10.436-1.286 21.037-1.93 31.722-1.93 105.942 0 218.84 63.43 234.99 195.278 1.338 10.916 1.988 21.558 1.992 31.91.012 17.435-1.803 34.045-5.22 49.778-20.372-2.664-40.25-8.37-58.61-14.07-25.174-7.817-47.49-15.638-64.278-15.638-2.924 0-5.68.237-8.258.753-38.488 7.715-125.777 55.322-206.18 55.326-4.148 0-8.275-.125-12.377-.392-83.647-5.405-131.677-27.89-180.786-27.89z" mask="url(#b)"/>
    <path fill="#653B8A" d="M471.8 346.678l147.843-225.276 96.316 74 34.748-45.425-120.68-92.724-41.234 6.987-164.712 250.984 47.717 31.454"/>
  </g>
</svg>
