<?xml version="1.0" encoding="UTF-8" standalone="no"?>
<svg width="458px" height="335px" viewBox="0 0 458 335" version="1.1" xmlns="http://www.w3.org/2000/svg" xmlns:xlink="http://www.w3.org/1999/xlink" xmlns:sketch="http://www.bohemiancoding.com/sketch/ns">
    <!-- Generator: Sketch 3.2.2 (9983) - http://www.bohemiancoding.com/sketch -->
    <title>Stroke 181</title>
    <desc>Created with Sketch.</desc>
    <defs>
        <rect id="path-1" x="0" y="0" width="554" height="345"></rect>
    </defs>
    <g id="Blank-Project" stroke="none" stroke-width="1" fill="none" fill-rule="evenodd" sketch:type="MSPage">
        <g id="Pagina-Producto-22" sketch:type="MSArtboardGroup" transform="translate(-373.000000, -211.000000)">
            <g id="Stroke-181" sketch:type="MSLayerGroup" transform="translate(304.000000, 201.000000)">
                <mask id="mask-2" sketch:name="Mask" fill="white">
                    <use xlink:href="#path-1"></use>
                </mask>
                <use id="Mask" sketch:type="MSShapeGroup" xlink:href="#path-1"></use>
                <g id="stevia" mask="url(#mask-2)" fill="#1C7B49" sketch:type="MSShapeGroup">
                    <g transform="translate(69.500000, 10.500000)" id="Stroke-361">
                        <path d="M242.777496,338.54665 C242.777496,338.54665 244.117642,258.087961 307.16146,264.793689 C370.201927,271.499417 422.782555,287.054563 436.733474,289.734175 C450.681044,292.417136 456.852416,292.417136 456.852416,292.417136 L430.562102,269.62034 L433.245745,258.891845 L401.052088,258.087961 L409.907102,245.483738 L380.933146,244.679854 L380.933146,231.268398 C380.933146,231.268398 346.059197,242.532816 316.549182,244.679854 C287.039168,246.823544 236.606124,268.280534 236.070066,295.100097 C236.070066,295.100097 238.753708,259.967039 264.239934,244.679854 C289.72281,229.39267 289.72281,222.686942 289.72281,222.686942 C289.72281,222.686942 258.87265,230.732476 246.801285,241.460971 C234.72992,252.189466 229.365985,264.257767 229.365985,264.257767 C229.365985,264.257767 240.093854,237.438204 246.801285,215.981214 C253.508715,194.527573 264.239934,175.753544 301.794175,169.047816 C339.351766,162.342087 385.224964,166.364854 403.199672,159.659126 C421.17438,152.956748 450.681044,122.114417 450.681044,122.114417 L419.830883,126.137184 L414.466949,117.284417 L398.371796,128.816796 L378.249504,119.431456 L358.130562,131.499757 L354.106774,120.771262 C354.106774,120.771262 308.501606,139.009369 287.039168,151.613592 C265.58008,164.221165 245.997197,183.799078 244.117642,193.184417 C244.117642,193.184417 240.093854,140.349175 260.216146,122.114417 C280.335088,103.876311 299.113883,101.729272 328.620547,90.4648544 C358.130562,79.2004369 369.665869,61.7695631 369.665869,61.7695631 C369.665869,61.7695631 335.327978,61.7695631 313.868891,71.1549029 C292.406453,80.5435922 251.093102,91.2720874 242.241438,112.725728 C233.389774,134.182718 234.72992,132.839563 234.72992,132.839563 C234.72992,132.839563 237.413562,74.9097087 317.892679,63.6452913 C398.371796,52.3808738 403.199672,45.6784951 403.199672,45.6784951 L383.616788,41.6557282 L374.225715,32.2670388 L349.546927,40.3125728 L343.375555,32.2670388 L316.013124,47.018301 L305.817964,43.5314563 L255.652949,75.1776699 C255.652949,75.1776699 258.87265,45.6784951 283.01538,38.972767 C307.16146,32.2670388 318.428737,27.7083495 320.572971,18.858932 C322.720555,10.006165 322.720555,0.0849029126 322.720555,0.0849029126 C322.720555,0.0849029126 286.23508,9.47024272 264.239934,28.2442718 C242.241438,47.018301 235.534007,83.7624757 235.534007,83.7624757 C235.534007,83.7624757 241.43735,36.2898058 236.070066,26.904466 C230.706131,17.5157767 229.365985,16.7118932 229.365985,16.7118932 L222.122496,36.8257282 L203.879759,13.4930097 L198.512474,21.5385437 L161.762321,0.0849029126 C161.762321,0.0849029126 209.243693,48.3581068 217.29127,61.7695631 L183.760818,38.972767 L174.369745,41.6557282 L159.614737,28.2442718 C159.614737,28.2442718 159.882766,42.995534 175.173832,59.0866019 C190.464898,75.1776699 201.196117,81.8833981 209.243693,81.8833981 C217.29127,81.8833981 226.682343,85.3702427 226.682343,97.974466 C226.682343,110.582039 225.338847,130.695874 225.338847,130.695874 L206.563401,91.2720874 C206.563401,91.2720874 191.004307,83.7624757 186.441109,83.7624757 C181.881263,83.7624757 172.225511,65.7923301 163.638526,65.7923301 C155.054891,65.7923301 154.518832,76.5208252 148.34746,73.8378641 C142.179438,71.1549029 119.376854,61.7695631 119.376854,61.7695631 L103.281701,72.4980583 L84.5029051,63.6452913 L69.7478978,71.1549029 L37.5575912,53.7240291 C37.5575912,53.7240291 49.6289562,96.6346602 118.036708,106.02 C186.441109,115.408689 197.172328,111.117961 206.563401,123.990146 C215.951124,136.86233 230.706131,146.251019 230.706131,183.799078 C230.706131,221.347136 222.122496,242.800777 222.122496,242.800777 C222.122496,242.800777 240.093854,190.501456 211.927336,161.002282 C183.760818,131.499757 144.85973,130.695874 124.740788,137.401602 C104.621847,144.103981 56.3330365,137.401602 56.3330365,137.401602 C56.3330365,137.401602 72.4315401,161.002282 104.621847,165.025049 C136.812153,169.047816 169.00581,173.070583 189.124752,183.799078 C209.243693,194.527573 238.753708,199.890146 215.951124,238.77801 C215.951124,238.77801 198.512474,233.415437 186.441109,221.347136 C174.369745,209.275485 162.29838,201.229951 162.29838,201.229951 C162.29838,201.229951 159.882766,229.39267 175.173832,238.77801 C190.464898,248.16335 214.879007,245.483738 215.415066,258.891845 C215.951124,272.303301 217.29127,291.613252 217.29127,291.613252 C217.29127,291.613252 191.808394,268.280534 156.934445,260.235 C122.060496,252.189466 102.474263,256.212233 88.5266934,258.891845 C74.5757737,261.574806 57.6765328,258.891845 57.6765328,258.891845 L41.5813796,274.982913 L18.7787956,277.665874 L18.7787956,296.439903 L4.02378832,311.191165 L0,324.599272 L30.8501606,321.91966 L30.8501606,328.622039 L65.7241095,311.191165 L75.1118321,315.213932 L84.5029051,298.318981 L105.961993,307.168398 L112.669423,289.734175 L130.108073,292.417136 C130.108073,292.417136 141.37535,264.257767 178.393533,280.348835 C215.415066,296.439903 226.682343,305.021359 225.338847,325.138544 C223.998701,345.252379 225.338847,340.693689 225.338847,340.693689"></path>
                    </g>
                </g>
            </g>
        </g>
    </g>
</svg>