<?xml version="1.0" encoding="UTF-8" standalone="no"?>
<svg width="637px" height="378px" viewBox="0 0 637 378" version="1.1" xmlns="http://www.w3.org/2000/svg" xmlns:xlink="http://www.w3.org/1999/xlink" xmlns:sketch="http://www.bohemiancoding.com/sketch/ns">
    <!-- Generator: Sketch 3.2.2 (9983) - http://www.bohemiancoding.com/sketch -->
    <title>bg_spiroulina</title>
    <desc>Created with Sketch.</desc>
    <defs></defs>
    <g id="Blank-Project" stroke="none" stroke-width="1" fill="none" fill-rule="evenodd" sketch:type="MSPage">
        <g id="Pagina-Producto-28" sketch:type="MSArtboardGroup" transform="translate(-337.000000, -124.000000)" stroke="#2E3828" stroke-width="31.8289986" stroke-linecap="round" stroke-linejoin="round">
            <g id="bg_spiroulina" sketch:type="MSLayerGroup" transform="translate(352.282663, 139.000000)">
                <path d="M62.967374,0.935653711 C62.967374,0.935653711 81.0484786,5.58288347 75.8829587,24.9534794 C70.7174388,44.3240753 53.9286066,41.7399015 65.5519188,55.945719 C77.1752311,70.1479673 130.383299,72.7321411 114.10852,93.3912547 C97.8373108,114.053938 71.2314919,129.291283 92.6717909,149.432848 C114.10852,169.577982 146.911535,159.248425 139.16504,187.656491 C131.414975,216.064557 112.041598,222.521422 117.210688,238.015757 C122.376208,253.510093 164.99264,258.67844 172.742704,275.464862 C180.492769,292.251284 162.411665,297.933611 162.411665,297.933611" id="Stroke-349" sketch:type="MSShapeGroup"></path>
                <path d="M0.849066762,346.222683 C0.849066762,346.222683 18.9301714,339.765818 31.8457561,321.687309 C44.757771,303.6088 60.2579006,283.724225 84.7932277,288.114465 C109.332125,292.504705 122.247709,309.551686 139.036542,294.57133 C155.825374,279.590974 157.374673,237.755198 181.13892,224.841468 C204.903168,211.927737 242.35408,236.463112 274.643041,224.841468 C306.928433,213.219824 300.470641,161.311481 315.967201,144.007511 C331.46733,126.70354 369.178839,143.489962 400.689581,137.033097 C432.200324,130.576231 434.784868,100.876079 434.784868,100.876079" id="Stroke-351" sketch:type="MSShapeGroup"></path>
                <path d="M140.071788,65.1830697 C140.071788,65.1830697 163.318412,76.8047134 163.318412,91.010531 C163.318412,105.212779 193.022829,125.875462 208.519389,102.632175 C224.015948,79.3888873 245.97387,67.7672436 256.30491,97.463827 C266.63595,127.16398 264.054975,149.11518 288.590302,146.534576 C313.129199,143.950402 363.756292,110.377558 374.604955,121.999201 C385.450048,133.620845 376.928903,190.954525 417.73901,184.49766 C458.549116,178.040795 486.186611,140.07771 512.01778,169.777863 C537.84538,199.478016 529.320666,230.466686 558.511029,221.429216 C587.697823,212.391746 605.004279,218.845042 605.004279,218.845042" id="Stroke-353" sketch:type="MSShapeGroup"></path>
                <path d="M217.589095,261.494619 C217.589095,261.494619 204.67351,280.347666 236.962472,283.445819 C269.247864,286.543972 299.209307,249.615985 315.22349,273.633811 C331.237672,297.651637 321.424256,323.475529 344.153257,324.767616 C366.882259,326.059702 373.857674,309.27328 373.857674,309.27328" id="Stroke-355" sketch:type="MSShapeGroup"></path>
                <path d="M36.5472003,226.245963 C40.9380707,218.497011 62.8924228,190.088945 102.92788,204.294762 C142.963336,218.497011 189.456585,210.751628 192.04113,178.467301 C194.622105,146.186544 189.456585,121.65117 228.20334,138.437592" id="Stroke-357" sketch:type="MSShapeGroup"></path>
                <path d="M357.830402,250.897364 C357.830402,250.897364 362.995922,218.616607 412.073716,235.403029 C461.14794,252.189451 485.943864,261.226921 489.042462,228.946164 C492.144629,196.661837 476.6445,119.186592 508.933462,120.478679 C541.218854,121.767197 534.761061,157.924215 559.299958,142.42988 C583.838855,126.931975 581.25431,83.0295742 581.25431,83.0295742" id="Stroke-359" sketch:type="MSShapeGroup"></path>
            </g>
        </g>
    </g>
</svg>