<?xml version="1.0" encoding="UTF-8" standalone="no"?>
<svg
   xmlns:sketch="http://www.bohemiancoding.com/sketch/ns"
   xmlns:dc="http://purl.org/dc/elements/1.1/"
   xmlns:cc="http://creativecommons.org/ns#"
   xmlns:rdf="http://www.w3.org/1999/02/22-rdf-syntax-ns#"
   xmlns:svg="http://www.w3.org/2000/svg"
   xmlns="http://www.w3.org/2000/svg"
   xmlns:xlink="http://www.w3.org/1999/xlink"
   id="svg3487"
   viewBox="0 0 337 333"
   version="1.1"
   width="337px"
   height="333px">
  <metadata
     id="metadata3569">
    <rdf:RDF>
      <cc:Work
         rdf:about="">
        <dc:format>image/svg+xml</dc:format>
        <dc:type
           rdf:resource="http://purl.org/dc/dcmitype/StillImage" />
        <dc:title>Stroke 181</dc:title>
      </cc:Work>
    </rdf:RDF>
  </metadata>
  <!-- Generator: Sketch 3.2.2 (9983) - http://www.bohemiancoding.com/sketch -->
  <title
     id="title3489">Stroke 181</title>
  <desc
     id="desc3491">Created with Sketch.</desc>
  <defs
     id="defs3493">
    <rect
       width="554"
       height="345"
       x="0"
       y="0"
       id="path-1" />
  </defs>
  <g
     fill="none"
     sketch:type="MSPage"
     fill-rule="evenodd"
     id="Blank-Project">
    <g
       sketch:type="MSArtboardGroup"
       transform="translate(-436 -213)"
       id="Pagina-Producto-20">
      <g
         sketch:type="MSLayerGroup"
         transform="translate(304 201)"
         id="Stroke-181">
        <mask
           fill="white"
           sketch:name="Mask"
           id="mask-2">
          <use
             id="use3500"
             xlink:href="#path-1" />
        </mask>
        <use
           sketch:type="MSShapeGroup"
           xlink:href="#path-1"
           id="Mask" />
        <g
           stroke-width="11.648"
           stroke-linecap="round"
           stroke="#4A792E"
           sketch:type="MSShapeGroup"
           mask="url(#mask-2)"
           stroke-linejoin="round"
           id="trigoverde">
          <g
             id="g3504"
             transform="translate(245.5 18)">
            <path
               d="m86.288 343.85s15.262-32.51 12.774-44.07c-2.488-11.55-14.93-11.55-20.737-4.95-5.807 6.61-13.273 45.39-13.273 45.39s-13.272-15.68-23.228-18.15c-9.953-2.48-9.455-2.48-9.455-2.48s-10.452-39.61-5.475-51.17c4.977-11.55 19.909-0.82 24.056 9.91 4.149 10.72 9.126 30.53 9.126 30.53s21.9-8.25 28.202-41.26c6.306-33.01 0.831-30.54 0.831-30.54s-25.717 2.48-27.375 16.51-5.807 24.76-5.807 24.76-17.419-10.73-22.396-28.89c-4.979-18.15-16.591-34.66-3.319-37.13 13.273-2.48 25.217 12.37 28.203 20.63 2.987 8.25 0-9.91 4.149-20.63 4.147-10.73 10.784-19.81 18.249-18.16s3.319 18.16 1.658 26.41c-1.658 8.25-4.478 10.73-4.478 10.73"
               id="Stroke-363" />
            <path
               d="m42.243 205.12s-3.318-1.65-6.637-22.29c-3.316-20.63-2.821-26.57 5.475-21.12 8.295 5.44 16.591 22.78 16.591 22.78s-4.645 3.79-2.156 13.2c2.488 9.41 18.249 4.95 24.886-14.86 6.635-19.8 10.452-39.61 2.156-39.61-8.295 0-16.757 3.3-18.747 11.56-1.99 8.25-3.319 13.2-3.319 13.2s-9.123 0.82-4.976-24.76c4.148-25.58 3.318-33.01 12.442-33.01 9.125 0 10.783 4.13 10.783 12.38s-0.329 13.2-0.329 13.2c9.455-42.91-3.817-99.855-3.817-99.855"
               id="Stroke-365" />
            <path
               d="m37.708 151.58s-12.112-18.16-7.963-28.06c4.146-9.9 10.119-9.08 12.109-5.78 0 0 3.651 12.38 10.289 16.51 0 0-22.398-37.964-9.956-43.742 12.444-5.777 19.079 2.972 20.739 8.253l1.659 5.279"
               id="Stroke-367" />
            <path
               d="m105.89 298.12s15.76-34.17 19.91-75.43"
               id="Stroke-369" />
            <path
               d="m89.043 269.64s24.057-36.65 28.207-68.5"
               id="Stroke-371" />
            <path
               d="m84.23 224.47s12.608-13.7 17.92-50.84l5.31-37.14"
               id="Stroke-373" />
            <path
               d="m79.417 185.66s13.438-34.17 15.429-68l1.992-33.84"
               id="Stroke-375" />
            <path
               d="m51.017 0.021688s-12.442 56.944 0.83 85.002"
               id="Stroke-377" />
            <path
               d="m16.846 67.06s2.821 70.97 12.774 83.35c9.956 12.38 14.933 11.56 14.933 11.56"
               id="Stroke-379" />
            <path
               d="m7.2197 129.31s15.262 70.81 36.002 81.21c20.738 10.4 13.771 9.57 13.771 9.57"
               id="Stroke-381" />
            <path
               d="m0 189.17s18.581 63.05 36.501 71.3c17.917 8.25 19.076 14.52 19.076 14.52"
               id="Stroke-383" />
          </g>
        </g>
        <g
           stroke-width="7.648"
           stroke-linecap="round"
           stroke="#4A792E"
           sketch:type="MSShapeGroup"
           mask="url(#mask-2)"
           stroke-linejoin="round"
           id="trigoverde-2">
          <g
             id="g3518"
             transform="translate(178.53 263.48) scale(-1 1) rotate(21) translate(-42.5 -115)">
            <path
               d="m57.745 229.22s10.214-21.68 8.549-29.38-9.992-7.7-13.878-3.3-8.882 30.25-8.882 30.25-8.882-10.45-15.545-12.1c-6.661-1.65-6.327-1.65-6.327-1.65s-6.995-26.4-3.664-34.11c3.33-7.7 13.324-0.55 16.099 6.6 2.776 7.16 6.107 20.36 6.107 20.36s14.655-5.5 18.873-27.51c4.22-22 0.556-20.35 0.556-20.35s-17.21 1.65-18.32 11c-1.109 9.35-3.886 16.5-3.886 16.5s-11.657-7.15-14.987-19.25c-3.333-12.1-11.103-23.11-2.221-24.76s16.875 8.26 18.873 13.76c1.999 5.5 0-6.6 2.777-13.76 2.775-7.15 7.217-13.2 12.212-12.1 4.996 1.1 2.221 12.1 1.11 17.61-1.11 5.5-2.997 7.15-2.997 7.15"
               id="path3520" />
            <path
               d="m28.27 136.73s-2.221-1.1-4.442-14.85c-2.219-13.75-1.887-17.72 3.664-14.09 5.551 3.64 11.103 15.19 11.103 15.19s-3.108 2.53-1.443 8.8 12.212 3.3 16.654-9.9c4.44-13.2 6.995-26.408 1.443-26.408-5.551 0-11.214 2.201-12.546 7.698-1.332 5.51-2.221 8.81-2.221 8.81s-6.105 0.55-3.33-16.508c2.776-17.054 2.221-22.006 8.326-22.006 6.107 0 7.217 2.752 7.217 8.253s-0.221 8.802-0.221 8.802c6.328-28.607-2.554-66.566-2.554-66.566"
               id="path3522" />
            <path
               d="m25.235 101.04s-8.106-12.1-5.329-18.702c2.774-6.601 6.772-6.051 8.104-3.85 0 0 2.443 8.252 6.885 11.001 0 0-14.989-25.304-6.663-29.155 8.328-3.852 12.768 1.98 13.879 5.501l1.11 3.521"
               id="path3524" />
            <path
               d="m70.863 198.73s10.547-22.78 13.324-50.29"
               id="path3526" />
            <path
               d="m59.589 179.74s16.099-24.42 18.876-45.66"
               id="path3528" />
            <path
               d="m56.368 149.63s8.438-9.13 11.991-33.89l3.552-24.753"
               id="path3530" />
            <path
               d="m53.147 123.76s8.993-22.77 10.325-45.33l1.334-22.555"
               id="path3532" />
            <path
               d="m34.141 0.014457s-8.326 37.96 0.556 56.664"
               id="path3534" />
            <path
               d="m11.274 44.703s1.887 47.312 8.548 55.567c6.663 8.25 9.994 7.7 9.994 7.7"
               id="path3536" />
            <path
               d="m4.8316 86.199s10.213 47.201 24.093 54.131c13.878 6.93 9.215 6.38 9.215 6.38"
               id="path3538" />
            <path
               d="m-3.6948e-13 126.1s12.435 42.03 24.427 47.53c11.99 5.5 12.766 9.68 12.766 9.68"
               id="path3540" />
          </g>
        </g>
        <g
           stroke-width="5.648"
           stroke-linecap="round"
           stroke="#4A792E"
           sketch:type="MSShapeGroup"
           mask="url(#mask-2)"
           stroke-linejoin="round"
           id="trigoverde-3">
          <g
             id="g3543"
             transform="translate(439.11 275.73) rotate(10) translate(-31.5 -85.5)">
            <path
               d="m42.862 170.14s7.581-16.09 6.345-21.81-7.416-5.72-10.301-2.45c-2.884 3.27-6.593 22.46-6.593 22.46s-6.592-7.76-11.538-8.98c-4.944-1.23-4.697-1.23-4.697-1.23s-5.191-19.6-2.719-25.32c2.472-5.71 9.89-0.41 11.949 4.9 2.061 5.31 4.533 15.11 4.533 15.11s10.879-4.08 14.009-20.42c3.132-16.33 0.413-15.1 0.413-15.1s-12.774 1.22-13.598 8.16-2.885 12.25-2.885 12.25-8.652-5.31-11.124-14.29c-2.473-8.98-8.2413-17.15-1.649-18.37 6.593-1.23 12.526 6.12 14.009 10.2 1.484 4.09 0-4.89 2.061-10.2 2.06-5.312 5.357-9.804 9.065-8.987s1.649 8.987 0.824 13.067c-0.824 4.08-2.225 5.31-2.225 5.31"
               id="path3545" />
            <path
               d="m20.983 101.49s-1.648-0.82-3.297-11.026c-1.647-10.208-1.401-13.148 2.72-10.453s8.241 11.271 8.241 11.271-2.307 1.877-1.071 6.533c1.236 4.655 9.065 2.445 12.362-7.351 3.296-9.799 5.192-19.6 1.071-19.6s-8.324 1.634-9.312 5.717c-0.989 4.084-1.649 6.534-1.649 6.534s-4.532 0.407-2.472-12.251c2.061-12.658 1.649-16.334 6.18-16.334 4.533 0 5.357 2.043 5.357 6.126 0 4.084-0.164 6.534-0.164 6.534 4.697-21.234-1.896-49.41-1.896-49.41"
               id="path3547" />
            <path
               d="m18.731 75s-6.017-8.984-3.956-13.885c2.06-4.899 5.027-4.491 6.015-2.857 0 0 1.814 6.125 5.111 8.166 0 0-11.126-18.783-4.946-21.641 6.182-2.859 9.478 1.47 10.302 4.083l0.824 2.614"
               id="path3549" />
            <path
               d="m52.598 147.5s7.829-16.9 9.89-37.32"
               id="path3551" />
            <path
               d="m44.23 133.41s11.95-18.13 14.011-33.889"
               id="path3553" />
            <path
               d="m41.839 111.06s6.263-6.77 8.9-25.149l2.637-18.376"
               id="path3555" />
            <path
               d="m39.449 91.862s6.675-16.905 7.663-33.647l0.99-16.742"
               id="path3557" />
            <path
               d="m25.341 0.010731s-6.18 28.175 0.413 42.058"
               id="path3559" />
            <path
               d="m8.3679 33.181s1.401 35.117 6.3451 41.242c4.946 6.125 7.418 5.717 7.418 5.717"
               id="path3561" />
            <path
               d="m3.5862 63.982s7.5818 35.035 17.884 40.178c10.301 5.15 6.84 4.74 6.84 4.74"
               id="path3563" />
            <path
               d="m-7.9581e-13 93.598s9.2298 31.202 18.131 35.282c8.9 4.08 9.476 7.18 9.476 7.18"
               id="path3565" />
          </g>
        </g>
      </g>
    </g>
  </g>
  <ellipse
     ry="36.382397"
     rx="35.371777"
     cy="135.76549"
     cx="122.91425"
     id="path3703"
     style="fill:#ff0000;fill-rule:evenodd;stroke:#000000;stroke-width:1px;stroke-linecap:butt;stroke-linejoin:miter;stroke-opacity:1" />
</svg>
