<?xml version="1.0" encoding="utf-8"?>
<!-- Generated by IcoMoon.io -->
<!DOCTYPE svg PUBLIC "-//W3C//DTD SVG 1.1//EN" "http://www.w3.org/Graphics/SVG/1.1/DTD/svg11.dtd">
<svg version="1.1" xmlns="http://www.w3.org/2000/svg" xmlns:xlink="http://www.w3.org/1999/xlink" width="32" height="32" viewBox="0 0 32 32">
<path d="M13.487 17.572c0 0.907-0.736 1.643-1.643 1.643s-1.643-0.736-1.643-1.643 0.736-1.643 1.643-1.643c0.907 0 1.643 0.736 1.643 1.643zM20.156 15.929c-0.907 0-1.643 0.736-1.643 1.643s0.736 1.643 1.643 1.643c0.907 0 1.643-0.736 1.643-1.643s-0.736-1.643-1.643-1.643zM32 16.657v3.122c0 1.568-1.271 2.839-2.839 2.839h-2.060c-2.041 5.667-7.253 9.090-11.102 9.090s-9.061-3.423-11.102-9.090h-2.060c-1.568 0-2.839-1.271-2.839-2.839v-3.122c0-1.079 0.602-2.017 1.488-2.497 0.030-4.433 1.322-7.896 3.846-10.289 2.504-2.374 6.092-3.578 10.666-3.578s8.162 1.204 10.666 3.578c2.524 2.394 3.816 5.856 3.846 10.289 0.886 0.48 1.488 1.418 1.488 2.497zM25.992 17.583c0-0.73-0.037-1.417-0.093-2.082-1.26-1.153-3.547-2.027-6.433-2.352 0.379 0.426 0.706 0.987 0.905 1.725-1.768-1.393-5.238-1.061-7.863-4.178-0.15-0.174-0.281-0.34-0.393-0.492-0.001-0.002-0.003-0.003-0.004-0.005l0 0c-0.467-0.632-0.626-1.007-0.635-0.591-0.077 3.582-2.616 6.375-5.436 6.769-0.018 0.394-0.032 0.792-0.032 1.207 0 1.514 0.247 2.894 0.668 4.138 1.584 1.91 4.199 2.45 6.514 2.593 0.43-0.684 1.394-1.161 2.517-1.161 1.522 0 2.757 0.876 2.757 1.957s-1.234 1.957-2.757 1.957c-1.171 0-2.169-0.519-2.569-1.25-1.618-0.094-3.397-0.37-4.982-1.118 2.229 3.286 5.685 5.023 7.843 5.023 3.391 0 9.992-4.284 9.992-12.138zM28.803 13.818c-0.181-7.736-4.596-11.823-12.803-11.823s-12.622 4.087-12.803 11.823h1.092c0.399-2.607 1.243-4.752 2.525-6.401 2.042-2.627 5.133-3.96 9.186-3.96s7.144 1.332 9.186 3.96c1.281 1.649 2.125 3.793 2.525 6.401h1.092z" fill="rgb(68, 68, 68)"></path>
</svg>
