<?xml version="1.0" encoding="utf-8"?>
<!-- Generated by IcoMoon.io -->
<!DOCTYPE svg PUBLIC "-//W3C//DTD SVG 1.1//EN" "http://www.w3.org/Graphics/SVG/1.1/DTD/svg11.dtd">
<svg version="1.1" xmlns="http://www.w3.org/2000/svg" xmlns:xlink="http://www.w3.org/1999/xlink" width="32" height="32" viewBox="0 0 32 32">
<path d="M16.014 3.2c-0.534 0-0.99 0.204-1.368 0.614s-0.566 0.903-0.566 1.48c0 0.558 0.189 1.042 0.566 1.452 0.378 0.409 0.834 0.614 1.368 0.614 0.514 0 0.961-0.204 1.339-0.614s0.567-0.894 0.567-1.452c0-0.577-0.189-1.070-0.567-1.48s-0.825-0.614-1.339-0.614zM24.392 19.487c-0.803 0-1.2-0.632-1.2-1.896v-4.99h2.526v-3.12h-2.53c-0.010-0.411-0.032-1.357-0.048-1.801h-2.951v1.801h-1.63v3.119h1.63v4.849c0 1.585 0.193 2.745 0.578 3.48 0.511 0.982 1.407 1.471 2.739 1.471 0.949 0 1.786-0.188 2.412-0.566v-2.829c-0.499 0.321-0.963 0.481-1.527 0.481zM14.545 9.553c-1.095 0.433-2.114 0.652-2.989 0.652-0.781-0.453-1.591-0.68-2.504-0.68-1.268 0-2.356 0.425-3.269 1.274-0.95 0.907-1.427 2.040-1.427 3.398 0 0.907 0.258 1.755 0.782 2.548 0.465 0.736 0.952 1.209 1.59 1.416v0.057c-0.637 0.264-0.921 0.925-0.921 1.983 0 0.812 0.283 1.416 0.921 1.812v0.058c-1.762 0.584-2.568 1.67-2.568 3.256 0 1.379 0.592 2.388 1.748 3.030 0.912 0.509 2.084 0.764 3.501 0.764 3.446 0 5.173-1.463 5.173-4.389 0-1.831-1.33-2.954-3.994-3.37-0.616-0.095-1.079-0.321-1.397-0.68-0.243-0.246-0.361-0.491-0.361-0.736 0-0.699 0.372-1.105 1.118-1.218 1.135-0.17 2.062-0.703 2.781-1.599 0.716-0.897 1.075-1.95 1.075-3.158 0-0.377-0.113-0.783-0.261-1.217 0.439-0.104 0.756-0.197 1.002-0.286v9.957h3.375v-13.465h-3.375v0.593zM9.716 23.68c1.63 0 2.444 0.466 2.444 1.398 0 0.988-0.747 1.482-2.241 1.482-1.707 0-2.559-0.476-2.559-1.427-0.002-0.968 0.785-1.453 2.356-1.453v0zM9.149 16c-1.192 0-1.789-0.618-1.789-1.853 0-1.325 0.597-1.987 1.789-1.987 0.569 0 1.014 0.206 1.334 0.618 0.265 0.375 0.397 0.823 0.397 1.343 0.001 1.253-0.576 1.879-1.731 1.879v0z" fill="rgb(68, 68, 68)"></path>
</svg>
