<?xml version="1.0" encoding="UTF-8" standalone="no"?>
<svg width="329px" height="205px" viewBox="0 0 329 205" version="1.1" xmlns="http://www.w3.org/2000/svg" xmlns:xlink="http://www.w3.org/1999/xlink" xmlns:sketch="http://www.bohemiancoding.com/sketch/ns">
    <!-- Generator: Sketch 3.2.2 (9983) - http://www.bohemiancoding.com/sketch -->
    <title>ico_noticias</title>
    <desc>Created with Sketch.</desc>
    <defs></defs>
    <g id="Blank-Project" stroke="none" stroke-width="1" fill="none" fill-rule="evenodd" sketch:type="MSPage">
        <g id="Portada-10" sketch:type="MSArtboardGroup" transform="translate(-190.000000, -780.000000)">
            <g id="sidebar" sketch:type="MSLayerGroup" transform="translate(-16.000000, 699.000000)">
                <g id="destacados" transform="translate(16.000000, 0.000000)" sketch:type="MSShapeGroup">
                    <g id="noticies" transform="translate(189.221969, 3.500000)">
                        <g id="ico_noticias" transform="translate(0.000000, 78.000000)">
                            <g id="puntitos" transform="translate(0.778031, 26.356871)" fill="#8C4C35">
                                <path d="M256.752517,48.8455303 C256.752517,48.8455303 257.69619,46.3847877 259.475271,46.3847877 C261.254353,46.3847877 262.214992,50.4086277 262.214992,50.4086277 L259.141592,52.1862513 L256.752517,48.8455303 Z M286.981555,4.76584849 C286.981555,4.76584849 290.862086,-1.87605333 294.798365,0.658721866 C298.734644,3.19349706 299.185474,6.97336648 296.99192,8.95710307 C294.798365,10.9408397 291.995625,11.6147052 289.48859,9.45345799 C286.981555,7.29221078 286.981555,4.76584849 286.981555,4.76584849 Z M319.892143,57.9397619 C319.892143,57.9397619 323.539988,55.703641 326.029248,55.703641 C328.518508,55.703641 329.732032,57.5006139 328.599302,58.8197403 C327.466571,60.1388667 323.108548,62.0940002 323.108548,62.0940002 L319.892143,57.9397619 Z M71.2666849,4.58329083 C71.2666849,4.58329083 75.3007244,0.111048897 79.5868409,2.34716987 C83.8729574,4.58329083 84.3124758,6.98682644 83.0278532,9.2229474 C81.7432306,11.4590684 76.18057,15.0984436 73.1443352,12.1606955 C70.1081004,9.22294739 71.2666849,4.58329083 71.2666849,4.58329083 Z M0.174514828,22.6943564 C0.174514828,22.6943564 2.06024469,19.5698442 3.9839473,21.1321003 C5.9076499,22.6943564 6.55480935,25.7170736 5.26937828,25.7170737 C3.9839472,25.7170738 0.695635495,25.2686717 0.695635495,25.2686717 L0.174514828,22.6943564 Z" id="Path-1123"></path>
                            </g>
                            <path d="M116.539397,111.876149 C117.469892,110.29477 119.447847,105.070629 118.634319,103.643038 C117.457671,104.304794 117.707316,105.485391 117.237705,106.439189 C116.434651,108.073384 114.173881,108.983686 114.095321,111.09944 C114.60334,111.630709 115.268478,112.023724 116.539397,111.876149 M118.808896,103.332355 C119.496729,103.012351 119.870323,102.412732 119.856357,101.468255 C118.512115,100.8298 118.559251,102.403412 118.808896,103.332355 M118.634319,93.7011692 C119.032354,94.5508884 122.059517,94.9796315 122.300433,93.7011692 C122.153788,92.5687282 118.65876,92.2378503 118.634319,93.7011692 M123.173317,110.478074 C126.039869,110.816718 126.535667,106.902107 124.569932,105.973164 C123.360114,106.670648 122.370264,108.997667 123.173317,110.478074 M136.26658,160.18742 C136.331174,158.929152 137.006786,157.559038 135.74285,156.925244 C132.750603,156.990487 134.276404,158.497302 134.171658,160.18742 C134.089607,161.510931 132.675535,162.391718 133.298774,163.604937 C131.23353,164.995245 129.650118,169.282677 131.553006,171.838048 C133.084045,171.782125 134.23276,171.945233 135.393696,171.838048 C136.987583,169.301318 136.0728,163.985524 136.26658,160.18742 M140.631001,112.808199 C140.784629,111.071479 138.497672,105.058201 136.790311,105.041114 C135.414645,105.027133 133.197519,107.43493 132.076736,108.458631 C130.854698,109.573985 129.871831,111.083906 128.410622,112.031491 C126.373311,113.351895 123.887336,113.748016 123.871625,116.5364 C127.019245,118.939536 132.144821,116.997765 135.219119,116.225717 C138.171214,115.483183 140.372628,115.711536 140.631001,112.808199 M141.853039,149.624184 C144.176657,146.843567 142.750364,142.059042 137.488618,143.565857 C136.788565,145.672291 139.229149,148.289798 137.488618,149.934867 C136.582564,150.43196 135.144051,149.712728 134.346235,150.090209 C134.695389,151.85023 135.28895,153.392773 136.615734,154.284435 C137.291346,151.778773 138.630351,149.86341 141.853039,149.624184 M143.424231,105.351797 C142.514686,109.674957 147.120023,107.020167 145.519153,104.575089 C144.859253,104.867131 144.00208,104.985191 143.424231,105.351797 M141.503886,140.303681 C144.230776,140.968544 145.054779,145.252868 148.137806,144.187224 C147.659465,142.666429 146.612004,141.053982 145.169999,140.303681 C144.21681,139.808141 143.022704,139.915327 141.853039,139.526973 C140.007762,138.914926 138.415621,137.647338 136.615734,137.50753 C136.441157,137.50753 136.407988,137.633357 136.26658,137.662872 C136.256106,137.86171 136.043122,137.877244 136.092004,138.128897 C136.769362,140.53514 139.187251,139.738237 141.503886,140.303681 M149.01069,70.8659383 C149.122419,69.1431988 146.348393,68.5062978 143.947961,67.2930791 C142.736398,66.6810328 141.734327,65.3015984 140.281848,65.4289786 C138.48196,65.5874271 138.347536,67.6534718 139.58354,68.380471 C141.020308,68.5715413 141.544038,67.9501745 142.9005,68.0697876 C144.071911,69.7723327 146.482817,70.3719517 149.01069,70.8659383 M152.676804,80.6524659 C152.7606,79.9363406 151.899937,79.4765291 151.280189,79.8757573 C151.184172,80.6027565 152.125141,80.9926642 152.676804,80.6524659 M150.756458,72.4193554 C150.02149,74.2166589 152.675058,75.2885167 154.422572,74.4387976 C153.993113,73.0593632 152.268294,72.8356712 150.756458,72.4193554 M164.198875,106.905214 C163.319008,105.95763 162.461836,105.726171 162.103953,104.73043 C161.421358,102.827494 162.378039,101.017764 161.754799,99.1381289 C161.503409,98.3800614 160.398337,97.227426 159.834454,96.3419782 C159.092503,95.1784688 158.46228,93.8223357 157.390378,93.3904858 C154.939319,92.404066 152.516193,92.4009591 150.756458,90.9050185 C149.83993,90.1252031 149.164317,88.7193607 147.963229,88.2642095 C147.242226,87.9908081 146.561377,88.057605 145.519153,87.9535261 C143.178078,87.7205135 140.38834,86.3938953 138.885233,86.2447673 C136.870616,86.0459299 134.979949,86.3084574 134.171658,87.1768175 C133.258621,88.1570237 131.874227,91.3415287 132.94962,92.6137773 C134.501608,92.0700813 134.873457,89.771024 136.790311,90.12831 C138.021078,90.3582157 137.689382,91.6226972 138.536079,92.4584356 C139.937931,93.1015502 142.478024,91.8867781 143.249654,92.9244607 C143.817029,93.677868 142.614194,94.7512792 143.075077,95.409928 C144.532794,95.3757528 146.657394,94.8087556 146.915768,96.1866365 C146.133663,97.413836 143.275841,98.2526812 144.646269,100.380863 C146.475834,100.620089 147.406329,98.546277 149.01069,99.6041541 C149.028148,101.031744 147.078124,102.015057 146.741191,103.643038 C150.526017,102.123797 152.977076,103.11643 153.375111,106.439189 C152.922957,107.228325 151.470478,107.1258 151.105612,107.992606 C152.030869,108.879607 153.898841,110.269916 153.724265,112.652857 C158.725891,112.6948 161.772257,109.670297 164.198875,106.905214 M164.198875,74.9048227 C166.213492,73.222472 161.983495,71.3583715 162.103953,73.6620891 C162.144106,74.4419044 163.156651,74.6920046 164.198875,74.9048227 M172.22941,125.080194 C172.307969,125.580394 172.496512,125.982729 173.276871,125.856902 C173.168633,125.384664 172.88931,125.063106 172.22941,125.080194 M175.895524,149.002817 C174.72935,147.865715 172.913751,148.143777 171.007372,147.4494 C169.233671,146.803178 168.271753,145.283936 166.992105,144.963932 C165.948135,144.702958 164.883216,144.845873 164.722606,145.585299 C164.593419,146.178705 166.281577,147.435419 167.166681,148.070767 C169.284299,149.593115 173.711567,152.035087 175.895524,149.002817 M174.149755,92.1477521 C174.336552,90.5850146 175.205945,89.3919903 174.673486,88.2642095 C172.692039,88.3418803 169.827233,87.8494471 168.214143,88.2642095 C167.885938,90.184233 167.444259,91.9302738 167.864989,93.8565109 C168.118125,95.0106998 169.23018,95.7889618 169.261604,96.8080033 C169.291282,97.7959766 168.493465,98.4282173 168.563296,99.4488124 C169.516486,99.7734765 170.218285,100.570379 171.356526,100.380863 C171.976273,100.276784 174.038026,98.6410355 174.324332,97.4293702 C174.656028,96.0188675 173.93328,93.9621433 174.149755,92.1477521 M178.86333,111.09944 C179.392298,109.772822 176.901086,109.354953 176.768408,110.478074 C177.045985,111.15847 178.177243,111.667991 178.86333,111.09944 M179.38706,159.410711 C180.678929,158.644877 179.240416,157.41457 178.86333,156.459219 C178.379752,155.235126 178.295955,153.571416 177.117562,153.041701 C174.797435,153.033934 173.248939,153.689476 171.356526,153.663068 C164.26696,153.565203 162.887803,146.351134 154.597149,146.983375 C152.659346,147.130949 149.131148,147.244349 147.614075,148.536792 C147.233498,150.548467 148.860554,151.83625 148.312382,153.973751 C148.050517,154.9959 146.695801,155.455711 146.566614,156.459219 C146.39902,157.757875 147.844517,159.120222 147.788652,160.653445 C147.758974,161.481416 146.973378,162.35133 146.915768,163.294254 C146.854666,164.289994 147.532024,165.332337 147.439498,166.090405 C147.312057,167.137408 146.156358,167.67489 146.042884,168.731214 C145.924171,169.837246 146.783089,170.295505 146.392037,171.527364 C145.561051,173.649332 142.715449,171.968535 141.503886,172.304073 C141.226308,173.461369 142.93367,173.113403 143.773385,173.391465 C144.567709,173.653992 145.056524,174.228757 145.868307,174.323515 C148.008619,174.572062 150.763441,173.702148 152.32765,173.080781 C152.37304,168.237227 152.577295,163.107844 153.375111,158.012636 C153.745214,155.645228 154.218317,151.022259 156.692071,150.090209 C160.880169,148.510384 161.941597,151.702656 162.976837,153.973751 C163.598331,155.337652 164.52708,157.242141 164.373452,158.789344 C164.305367,159.472848 163.825281,159.974602 163.675145,160.653445 C163.579127,161.083741 163.75545,161.706662 163.675145,162.206862 C163.530246,163.117164 162.82321,163.864358 162.80226,164.536987 C162.760362,165.922635 164.003349,167.446538 163.849721,169.041897 C163.750213,170.081133 162.987312,171.061339 162.976837,171.838048 C162.961125,173.032625 163.645467,173.537486 163.500568,174.323515 C163.203787,175.923535 160.955237,176.13946 161.754799,178.983766 C162.166801,180.448638 165.462811,183.075467 167.864989,183.022651 C169.656147,182.982262 176.915052,180.200092 177.117562,178.051716 C177.243257,176.715777 176.443695,176.51228 176.0701,175.255565 C175.37703,172.9301 174.874249,169.817052 174.673486,166.245746 C174.542553,163.923388 174.640316,155.999407 177.990446,157.080586 C179.099009,157.437871 178.264531,158.83284 179.38706,159.410711 M180.958252,92.9244607 C182.178544,92.0856155 181.721153,89.3189797 180.259945,89.040918 C179.570366,90.0490857 179.799062,92.5625145 180.958252,92.9244607 M184.449789,100.846888 C184.467247,98.9392916 182.981598,97.0984923 181.481983,96.0312948 C180.677183,98.0491836 182.16807,100.556399 184.449789,100.846888 M185.322673,37.4674714 C185.107944,36.4670708 184.44106,35.8690052 183.402328,35.6033709 C183.166649,36.9936792 184.311873,38.1369942 185.322673,37.4674714 M185.148096,85.3127171 C185.40647,85.1806766 185.523436,84.921256 185.49725,84.5360085 C185.273792,84.5282414 185.256334,84.3371711 184.973519,84.3806668 C184.830366,84.4940663 184.505653,85.4556314 185.148096,85.3127171 M185.49725,149.624184 C187.702155,149.30418 190.313825,149.532532 189.33794,147.604741 C187.606138,146.65405 186.103032,148.519704 184.275212,148.847475 C182.866377,149.100682 181.452305,148.662618 180.259945,149.468842 C181.171236,151.559741 183.592617,149.900692 185.49725,149.624184 M192.6549,81.2738327 C193.147207,79.3305079 192.918512,76.7440685 194.400669,75.6815312 C193.553971,74.8644339 191.057522,74.3564665 189.861671,75.2155061 C189.496805,76.548338 189.261127,77.9945693 189.163364,79.5650739 C190.015299,80.4132396 190.846284,81.2769395 192.6549,81.2738327 M193.527785,143.099832 C194.386703,139.550274 191.012132,140.295914 188.290479,139.682314 C187.190645,139.433768 185.993048,138.820168 184.624366,138.284239 C183.323768,137.774718 181.710678,137.526171 180.783675,137.041505 C179.809536,136.531985 179.165348,135.107501 178.165023,134.556038 C176.766662,133.78399 174.600163,133.742048 173.102294,132.691938 C171.496187,131.564157 169.61774,129.345877 168.039566,127.41032 C165.838152,124.710481 161.707664,119.298376 165.246336,115.915033 C165.810219,115.375998 169.313977,114.451714 169.43618,113.584908 C169.600283,112.426059 167.351733,111.619835 166.468374,112.031491 C162.791786,113.741803 156.442426,115.453668 152.502227,116.691742 C152.483023,118.970605 148.93213,121.403256 146.042884,120.885968 C144.974473,120.694898 144.421065,119.354299 143.424231,119.332551 C140.946985,119.276628 138.96903,125.008737 139.58354,127.721003 C139.789541,128.629752 140.714798,129.418888 141.503886,129.429762 C143.085552,129.45151 144.382658,126.885265 146.392037,126.012244 C147.168904,125.675153 148.825638,125.397091 149.53442,125.080194 C150.945001,124.45106 152.214175,122.290257 154.422572,123.371435 C154.986455,124.340767 154.087384,124.986989 154.247995,125.856902 C154.391148,126.632058 155.319897,126.925653 155.470033,127.876345 C155.590491,128.642179 155.031845,128.78354 155.295456,129.740445 C156.735715,130.854245 159.106469,131.668236 159.310724,133.623988 C159.429436,134.751769 158.498941,135.6978 158.786993,137.196847 C160.349456,139.231823 163.086821,137.931613 166.293797,138.284239 C168.53711,138.531232 170.295098,139.921541 172.75314,140.769706 C174.30862,141.305635 176.338949,141.235731 178.514176,141.391073 C180.525301,141.533988 182.585308,142.07613 184.275212,142.167782 C185.184757,142.217491 186.076845,142.073023 186.893865,142.167782 C189.055126,142.417882 191.342083,144.246254 193.527785,143.099832 M188.988787,63.5648781 C190.591402,62.5054477 191.15354,59.3566713 194.051515,59.370652 C193.201326,57.91044 192.232425,57.3263552 191.258286,57.5065516 C190.076401,57.7255834 190.572199,58.6980225 189.861671,59.6813355 C189.161618,60.6491143 187.318086,61.3761135 186.370134,61.0794108 C185.135876,60.69261 185.746895,59.0320071 184.798943,58.1279184 C181.567525,56.8851847 180.174402,59.9966791 179.38706,62.1668028 C178.746363,63.933038 179.547671,67.2262821 181.132829,68.6911544 C182.475325,69.9323347 185.186503,71.4608971 186.893865,71.1766217 C187.651528,71.050795 188.164784,70.2476783 188.988787,69.6232047 C191.279235,67.8880378 193.585395,66.6251097 194.400669,64.0309032 C191.263523,64.0806126 190.603623,68.4814431 187.766749,68.8464961 C185.532165,69.1354317 183.718312,67.6410445 184.100635,66.0503454 C184.514382,64.3291593 187.469968,64.5683855 188.988787,63.5648781 M190.734555,130.827837 C191.843118,130.296568 194.151024,128.750918 194.051515,127.721003 C193.990413,127.080995 192.614748,126.490697 191.956593,125.701561 C191.064505,124.631256 190.317317,123.115121 190.559978,121.351993 C190.980709,118.293315 192.185289,116.90922 194.226092,115.449008 C193.651734,114.30414 194.442567,111.942946 193.178631,111.410124 C193.168156,111.315365 193.152444,111.226821 193.004054,111.254782 C192.843443,111.441192 192.569358,111.293617 192.305747,111.410124 C190.046722,112.39965 187.649782,115.028032 184.449789,116.070375 C183.697363,116.315815 182.595783,116.331349 182.005713,116.691742 C180.137741,117.83195 178.716685,125.485636 179.736214,127.876345 C180.389132,129.40646 183.878923,132.292709 185.671827,132.381254 C186.932272,132.443391 189.261127,131.533088 190.734555,130.827837 M195.797284,91.681727 C196.532252,90.9221061 195.872352,89.2770374 195.098976,88.8855763 C193.704107,88.489455 193.443988,92.3357156 195.797284,91.681727 M196.670168,136.730822 C196.944254,133.265148 190.919607,134.369628 191.083709,136.57548 C192.419222,137.004223 195.458605,137.179759 196.670168,136.730822 M198.415936,101.93428 C199.115989,99.6818249 199.267871,96.6107194 197.019322,95.8759531 C192.937715,94.8569115 190.874217,98.1563694 192.829477,100.536204 C194.769026,98.5509373 197.775239,99.5792994 198.415936,101.93428 M195.97186,125.080194 C198.202953,125.240196 198.918718,123.265803 198.590513,121.662676 C197.153746,121.886368 196.469404,122.77803 195.273553,123.216093 C195.107705,124.193193 195.537164,124.639024 195.97186,125.080194 M200.860012,180.847867 C200.928097,179.850573 199.245176,178.651335 198.590513,177.585691 C195.549385,172.639611 195.046603,159.827027 197.368475,153.81841 C194.821399,153.87744 193.234496,155.541149 190.734555,154.905802 C189.203516,154.517447 188.639633,152.734125 187.243018,152.575676 C185.312198,152.356644 183.613566,153.748506 182.18029,154.75046 C182.215205,156.626988 184.224585,157.815352 184.275212,159.566053 C184.296161,160.313246 183.700854,161.024711 183.751482,161.740837 C183.819566,162.721043 184.818146,163.421634 184.973519,164.536987 C185.155079,165.848071 184.556281,166.969639 184.973519,168.42053 C184.556281,169.35258 183.089835,169.158403 182.878597,170.284631 C182.775597,170.837647 183.660702,171.897078 183.926058,173.080781 C184.083178,173.784479 183.952245,174.809735 184.100635,175.255565 C184.489942,176.431502 186.153659,177.01714 186.02098,177.741033 C186.160642,178.537935 185.652623,178.760074 185.671827,179.449791 C187.99719,181.121268 192.586816,183.774504 197.193898,183.177992 C198.325156,183.031971 200.779707,182.02225 200.860012,180.847867 M202.256627,169.663264 C205.212213,169.565398 204.011124,166.306329 202.08205,165.935063 C201.558319,166.786335 201.507692,169.012382 202.256627,169.663264 M204.700703,87.1768175 C205.327433,84.9678585 201.462302,85.0004802 200.860012,86.7107924 C202.104745,86.858367 203.508343,87.476627 204.700703,87.1768175 M206.795625,177.119666 C206.044944,176.02606 204.742601,175.424888 203.129511,175.100224 C202.553407,176.060235 202.939222,177.664915 203.653242,178.362399 C205.318705,178.4991 205.723723,177.51268 206.795625,177.119666 M208.366816,37.9334965 C211.123385,36.2915347 208.88531,31.6173027 206.271894,32.0305117 C203.639275,32.4468274 207.293169,37.7020374 208.366816,37.9334965 M208.71597,150.090209 C209.002276,147.64047 205.065568,147.864162 205.049856,149.934867 C205.893062,150.551574 207.535831,150.104189 208.71597,150.090209 M224.078732,152.575676 C224.719429,150.014091 220.945078,148.202807 219.365157,150.090209 C220.786213,151.051774 221.999522,152.199749 224.078732,152.575676 M226.522808,178.362399 C226.40235,174.323515 224.65309,170.236475 223.031271,166.245746 C221.467063,162.396379 220.030295,158.133802 217.968543,155.371827 C217.490202,154.730266 216.495114,154.040548 215.699044,153.197043 C214.005648,151.4044 212.991357,150.007878 209.588854,150.24555 C209.087819,151.767899 207.434576,152.263439 206.271894,153.197043 C205.802283,155.556683 207.904188,157.450299 207.843086,159.721395 C207.823882,160.462374 207.279203,161.139664 207.319355,161.896178 C207.368237,162.818908 208.263816,163.760279 208.366816,164.692329 C208.576309,166.585945 207.38744,168.961119 207.493932,170.284631 C207.610899,171.730862 209.637736,172.995343 209.588854,174.478857 C209.559176,175.361198 208.604241,176.162761 208.366816,176.964324 C213.073408,178.882794 222.034437,182.739929 226.522808,178.362399 M232.807574,142.94449 C230.74233,142.531281 227.554557,141.940983 225.649924,142.478465 C224.722921,142.739439 223.860511,143.811297 222.856694,144.342566 C221.913979,144.842766 220.861281,144.908009 220.587195,145.740641 C224.52914,146.991142 230.744076,145.383355 232.807574,142.94449 M230.712652,122.439385 C230.916907,121.802484 229.499343,121.814911 229.490614,122.284043 C229.715818,122.498415 230.248278,122.437832 230.712652,122.439385 M237.346572,135.798772 C237.924422,134.048071 236.548756,132.444944 235.949957,130.983179 C235.300532,129.39714 235.235938,127.54702 233.855035,126.478269 C232.514285,126.602543 232.016741,128.499265 230.363498,128.808395 C228.773103,129.106651 227.05003,128.614218 226.348231,127.721003 C225.978128,127.248764 226.124773,126.529532 225.649924,126.012244 C224.523903,124.783491 220.328822,123.376095 218.66685,122.594727 C217.036302,121.828892 214.277988,119.913529 212.905814,119.953918 C212.1691,119.975665 211.627912,120.649848 210.636315,120.730626 C210.109093,120.774122 209.309531,120.443244 208.366816,120.419943 C207.080185,120.387321 206.324267,120.850239 205.573587,120.575284 C202.843205,119.574884 206.050182,114.224915 207.668509,114.206274 C208.681055,114.193847 208.581546,115.239297 209.588854,115.293666 C210.098619,114.970556 210.51062,114.560454 210.636315,113.895591 C208.181765,111.758089 200.372943,113.44976 200.336282,115.759692 C200.327553,116.362417 201.792252,117.271166 202.431204,118.245159 C203.855751,120.415283 202.618001,123.557845 201.383743,125.546219 C200.610367,126.793613 198.452597,128.9016 198.590513,130.361812 C198.672564,131.239493 200.020297,132.168436 200.685435,133.002621 C202.932239,135.818966 202.925256,140.625239 206.621048,141.701757 C205.531688,138.114917 209.789618,138.158412 211.858353,136.886164 C211.7152,133.251168 211.565064,130.554436 210.810892,127.565661 C211.641878,126.363316 213.928835,127.192841 215.524467,127.254978 C216.999641,127.312454 218.579562,126.857303 219.016004,128.031686 C218.366578,131.575031 221.409452,132.137368 220.936349,134.866721 C220.477212,137.510637 213.342256,136.281884 216.222774,139.060948 C218.101221,139.076482 219.803345,137.93006 221.809233,137.662872 C222.877643,137.519958 224.001918,137.648891 225.126193,137.50753 C229.539496,136.954514 233.533814,135.0842 237.346572,135.798772 M239.266917,140.925048 C240.057751,141.007379 240.406904,140.696696 240.314379,139.992998 C239.664953,139.554934 238.799052,140.326982 239.266917,140.925048 M238.743187,176.032274 C240.820651,176.192276 245.268869,173.927394 245.027953,172.148731 C244.865597,170.946386 242.828285,170.526964 242.409301,169.35258 C242.082842,168.437618 242.3063,167.197991 242.060147,166.090405 C241.899536,165.369619 241.454365,164.742039 241.36184,164.070962 C240.956821,161.138111 242.156164,157.765642 241.012686,154.905802 C240.55704,153.765594 238.60178,153.409861 237.695726,152.264993 C237.177233,151.611004 236.775706,150.588856 236.648265,149.624184 C236.498129,148.485529 237.30642,146.685119 235.949957,145.895983 C235.939483,145.801224 235.923771,145.712679 235.775381,145.740641 C233.083406,146.762789 230.164481,147.582994 228.094,149.158158 C228.49378,151.564402 229.907853,153.58229 230.887229,155.837852 C231.857876,158.074772 233.951053,159.744696 234.204189,162.362204 C231.552367,164.355238 230.380956,160.776165 228.094,160.498103 C227.566777,161.291899 228.28778,162.143172 228.61773,162.672887 C229.593615,163.107844 230.592194,162.926094 231.41096,163.294254 C232.489844,163.77892 235.208006,166.425943 235.426227,167.799163 C235.677618,169.383649 234.492241,170.797258 234.902496,172.459414 C235.253396,173.883898 237.222623,175.915767 238.743187,176.032274 M246.948299,150.866917 C247.594233,148.640871 244.93019,146.765896 244.6788,148.692133 C244.55485,149.642825 245.726261,150.574875 246.948299,150.866917 M251.661873,168.886555 C253.285438,162.54706 250.279225,156.78699 247.821183,152.575676 L247.297452,152.575676 C246.314585,154.644828 247.063519,158.853034 247.821183,160.808786 C248.206998,161.804527 248.936729,162.554827 249.043221,163.449596 C249.188119,164.673688 248.599795,165.827877 249.043221,166.867113 C249.47268,167.876834 250.670277,168.235673 251.661873,168.886555 M263.358522,131.604546 C263.100148,132.928057 260.928412,132.549023 260.216139,133.468646 C260.907463,135.0842 260.987768,136.413925 260.041562,137.818214 C260.394207,139.16192 263.014605,138.487737 263.183945,139.992998 C262.202823,141.684669 258.19803,140.505625 256.200871,140.925048 C254.767595,144.271108 259.214067,144.271108 259.343254,146.362008 C259.432289,147.788045 257.71969,148.751163 256.550025,148.847475 C253.706168,149.083594 251.64267,146.741042 249.741528,146.051324 C250.577751,148.344168 252.073875,151.41372 253.407642,154.595118 C253.96105,155.915523 255.455428,157.391269 256.026294,158.789344 C257.600977,162.648032 257.497977,169.849674 253.931372,171.216681 C253.557778,175.182555 250.783752,176.283927 246.773722,177.896374 C244.118408,178.963572 242.152673,180.318151 239.616071,180.381842 C238.221202,180.416017 236.747774,179.707659 235.426227,179.915816 C232.390336,180.392715 231.953894,183.589648 229.490614,184.420726 C228.441407,184.774905 224.965583,184.964422 223.555002,185.042093 C221.39374,185.161706 218.207713,185.12287 215.873621,184.576068 C214.958838,184.361696 210.547281,182.550412 210.287162,184.886751 C210.138771,186.221136 213.640783,187.724844 214.477006,188.614952 C218.16756,192.545097 213.502867,194.216574 210.461738,196.848062 C207.628356,199.299355 204.93289,202.987167 200.161705,203.527756 C196.394336,203.954946 190.944047,200.994133 191.083709,198.40148 C191.25654,195.206101 198.38975,195.487269 198.415936,191.721786 C198.440377,188.270093 193.255445,187.499599 190.385402,186.284826 C188.763583,185.598216 186.295066,184.114703 184.798943,184.110042 C182.112205,184.102275 179.973639,186.160553 177.990446,186.906193 C177.555749,189.640207 179.598298,190.129534 179.38706,192.343153 C179.015212,196.253104 169.088773,197.063987 165.246336,198.40148 C163.870671,198.879932 161.68846,199.813536 160.009031,199.799555 C157.17914,199.7747 153.797587,197.548654 154.247995,194.82862 C154.668725,192.28723 158.532111,191.894215 160.707338,189.702344 C161.550544,188.854178 162.824955,187.190469 162.80226,186.129485 C162.779565,185.065394 160.468168,182.437012 158.96157,181.779917 C158.388958,181.529817 157.516074,181.557778 156.866648,181.313892 C155.304185,180.7267 154.694912,179.333285 153.200534,179.139108 C151.390172,178.904542 148.97752,180.036983 147.614075,180.537183 C145.742611,181.225347 143.844961,181.582633 142.725924,182.556625 C142.416923,184.113149 143.85369,184.655292 143.075077,185.818801 C141.551021,188.093004 137.893637,184.692574 137.139465,183.177992 C136.559869,182.012929 136.524954,179.754261 135.393696,179.29445 C133.949946,178.707258 131.694413,180.451745 129.63266,179.915816 C126.423938,179.083185 124.971459,172.905245 125.442816,168.575872 C125.666274,166.520701 126.54265,164.330383 126.839431,161.896178 C127.439975,156.976507 127.621535,152.617618 128.759776,147.760083 C129.269541,145.582192 130.63124,143.098279 130.505545,141.546415 C130.388578,140.100184 128.77898,139.183668 128.585199,137.973556 C128.192401,135.51605 129.796763,131.147841 130.680121,130.051129 C131.764244,128.704316 134.478913,128.385865 135.219119,126.944294 C135.866799,125.686027 135.817918,121.776076 135.393696,120.575284 C131.430802,120.258387 128.637572,122.875895 124.569932,122.128702 C123.5312,121.937631 122.555315,120.944998 121.427549,120.885968 C119.357067,120.778782 118.651777,121.962486 116.36482,121.662676 C113.288776,121.258788 108.903406,117.876999 108.334286,114.982983 C108.294133,114.779485 108.28715,113.895591 108.334286,113.274224 C108.645032,109.184077 109.561561,105.968504 111.127515,101.312913 C112.393197,97.5458765 113.028657,92.5733884 114.968206,90.2836517 C116.476549,88.5018823 119.114406,87.8152719 120.205511,86.5554507 C119.645119,83.4470632 121.422311,82.0117058 122.824163,80.1864407 C123.796556,78.9204058 124.533271,77.7491294 125.966547,77.7009734 C126.895295,77.6699051 127.824044,78.7324424 128.934353,78.7883654 C130.083069,78.8458418 131.333039,77.6015547 132.42589,77.8563151 C134.576677,78.3565154 133.0404,81.3095613 134.520812,82.3612246 C135.98202,82.7464721 137.336736,82.0225797 138.885233,82.2058829 C140.119491,82.3519041 141.311851,83.4284222 142.551347,83.9146417 C144.372183,84.6276601 146.56836,84.4272693 148.137806,85.0020336 C149.14686,85.3717469 150.065134,86.7045787 151.105612,87.3321592 C153.09928,88.5329506 155.904729,89.4836419 157.739532,90.5943351 C160.10854,92.0296925 161.293916,94.6254524 163.500568,95.409928 C163.404551,93.9435023 164.994946,86.746521 163.325991,85.4680588 C162.657362,84.9569845 160.724796,85.2521338 159.4853,85.1573753 C157.959499,85.0408691 156.833478,84.5763974 155.64461,84.5360085 C153.320992,84.4567843 151.28368,84.9694119 149.708997,84.2253251 C148.642333,83.722018 147.837533,81.725877 146.915768,80.3417824 C145.38822,78.0473854 143.317739,76.2982378 141.329309,74.5941393 C139.34437,72.8931476 136.882837,71.5711897 134.869966,69.6232047 C134.267676,69.0406733 134.058183,68.2779455 133.473351,67.6037625 C130.683613,64.391296 122.827655,63.0708915 122.99874,57.6618933 C123.079046,55.1406974 126.375056,54.4509802 125.966547,51.7589084 C125.708173,50.0517031 123.010961,49.9056819 122.649587,48.1860492 C122.139822,45.7673788 124.425033,43.9452206 126.490277,43.8364814 C128.77898,43.7153148 129.370795,45.4349475 130.854698,45.3898984 C132.502704,45.3401891 135.091678,41.3199457 136.615734,39.797597 C138.740334,37.6740759 140.679883,36.0414345 142.37677,34.2052956 C146.028917,30.2534025 149.543149,25.9582044 153.025957,22.2439841 C154.879963,20.2664842 156.878868,18.4909285 158.786993,16.6516827 C160.773678,14.7363195 162.358835,12.5988176 164.024298,10.5933562 C167.404106,6.5202966 172.098477,2.91636901 176.942985,0.80682863 C178.556075,0.104684116 180.774946,-0.588139895 182.354867,0.80682863 C182.066815,2.69578378 181.729882,4.64842904 181.132829,6.70981348 C180.724319,8.12031618 179.650671,10.8232619 177.990446,10.9040396 C176.480356,10.9770502 175.190233,8.39371758 174.324332,10.9040396 C174.663011,11.7941475 176.726509,11.147926 176.942985,12.1467732 C176.998849,14.7425331 174.141026,15.878081 172.403987,17.1177078 C165.263794,22.2160226 158.876027,28.8180452 153.200534,35.7587126 C150.313033,39.291183 147.217786,41.5715993 143.598808,44.9238733 C142.567059,45.8792248 139.374048,48.7996489 139.408964,50.0501496 C139.449116,51.4590989 141.659259,51.7495879 141.678462,53.1569838 C141.711632,55.5057504 138.256756,55.4638081 138.012349,57.5065516 C137.726043,59.8988138 141.521343,62.536516 142.9005,63.4095364 C145.124609,64.8184857 148.5114,66.0938411 150.756458,67.6037625 C152.102446,68.5094046 153.551434,70.741665 155.295456,70.7105966 C156.699054,70.685742 157.48465,69.0764019 159.136147,68.2251293 C160.410558,67.5680339 162.210445,67.4049251 163.151414,66.827054 C163.961451,66.3299605 164.296638,65.4103376 164.897183,64.8076118 C166.627239,63.0693381 168.74311,61.8172839 168.91245,60.3027023 C169.052111,59.0568618 168.170498,58.0844227 168.214143,57.3512099 C168.418397,53.8746625 174.458756,54.0843738 176.244677,50.8268582 C176.670645,50.0485962 176.426237,49.0932447 176.768408,48.4967326 C177.075663,47.9608037 178.788262,47.3813791 178.86333,46.4772904 C178.971568,45.1770803 176.075338,43.8411416 175.371793,42.7490894 C174.027551,40.6612969 172.987073,36.8321238 173.451448,33.1179036 C173.732517,30.8607886 175.797761,27.819198 177.117562,25.8168434 C178.597973,23.5706023 180.141232,20.9639685 182.529444,20.0692003 C184.261246,19.4198719 190.287639,19.3173464 191.956593,20.5352254 C193.105309,21.3725172 192.749172,22.7317571 193.876938,24.1080846 C196.439726,23.755459 197.398153,24.7123639 199.637974,25.1954766 C201.102674,25.5108202 202.776866,25.2933419 204.176972,25.6615017 C205.549146,26.0218945 207.975764,27.2584144 209.239701,27.8362856 C211.458572,28.8506669 213.916614,32.4716821 213.429545,36.3800795 C213.03151,39.5645844 210.130042,44.2962928 205.39901,41.9723809 C203.90987,41.2407215 203.236003,39.2896296 202.431204,37.6228131 C201.731151,36.1719216 200.54752,33.6522791 199.637974,33.2732453 C198.457835,32.7808121 195.673334,33.0479998 194.575246,33.428587 C192.167831,34.262772 189.200025,38.2861222 188.81421,41.3510141 C188.534887,43.5755073 188.838651,45.9102932 190.210825,46.4772904 C192.132916,47.2726399 194.601432,45.5732017 197.193898,46.3219487 C198.794768,46.7833136 201.291217,49.8979148 201.907473,51.448225 C202.630221,53.2641696 202.326458,55.5756541 202.954934,57.6618933 C203.496122,59.45609 205.285535,60.7159112 204.700703,62.7881696 C204.196176,64.5808129 201.521658,64.3151786 199.637974,65.1182952 C198.349597,65.6682048 197.394662,67.4732755 196.146437,68.6911544 C195.643656,69.1820342 193.330513,70.4107871 193.527785,71.3319635 C193.772192,72.4690647 198.075511,72.5327548 198.939667,72.8853805 C202.975883,74.5320026 205.533434,79.4951701 208.017663,83.1379332 C209.456176,85.2474735 212.492067,86.9639994 210.985469,90.4389934 C210.439043,91.700368 208.015917,93.6747611 206.621048,94.322536 C204.957331,95.0945843 201.757337,95.1738086 201.383743,96.6526616 C200.905402,98.5400634 203.614835,102.106709 202.954934,105.351797 C202.844951,105.88928 202.429458,106.83065 201.907473,107.371239 C201.032843,108.276882 198.052816,108.542516 197.892206,110.012048 C197.490679,113.68588 206.622794,109.845833 208.366816,109.701365 C208.721207,109.67185 209.044174,109.685831 209.588854,109.701365 C214.889007,109.84894 220.135041,111.122742 224.253309,113.429566 C226.102078,114.465695 228.088762,115.494057 230.014345,116.691742 C231.857876,117.838164 234.212918,118.633513 235.600804,119.953918 C236.437027,120.749267 236.705875,121.774522 237.346572,122.594727 C239.21629,124.988542 242.959218,126.771865 246.599145,127.721003 C247.807217,128.036347 249.202086,127.985084 250.439835,128.34237 C251.743924,128.718297 252.92581,129.655007 254.280526,130.051129 C257.119145,130.8791 260.376749,130.371132 263.358522,131.604546" id="Fill-3" fill="#000000"></path>
                        </g>
                    </g>
                </g>
            </g>
        </g>
    </g>
</svg>