<?xml version="1.0" encoding="UTF-8" standalone="no"?>
<svg width="45px" height="117px" viewBox="0 0 45 117" version="1.1" xmlns="http://www.w3.org/2000/svg" xmlns:xlink="http://www.w3.org/1999/xlink" xmlns:sketch="http://www.bohemiancoding.com/sketch/ns">
    <!-- Generator: Sketch 3.2.2 (9983) - http://www.bohemiancoding.com/sketch -->
    <title>Fill 10</title>
    <desc>Created with Sketch.</desc>
    <defs></defs>
    <g id="Blank-Project" stroke="none" stroke-width="1" fill="none" fill-rule="evenodd" sketch:type="MSPage">
        <g id="Portada-8" sketch:type="MSArtboardGroup" transform="translate(-466.000000, -2093.000000)" fill="#1A171B">
            <g id="sidebar__page" sketch:type="MSLayerGroup" transform="translate(-17.000000, 1956.500000)">
                <g id="Group" transform="translate(281.000000, 128.000000)" sketch:type="MSShapeGroup">
                    <g id="iconos" transform="translate(0.000000, 0.750882)">
                        <path d="M206.931657,50.8814146 C207.304917,50.7938598 207.705826,49.2363053 207.085262,49.3453648 C206.272692,49.4882175 206.32799,51.0242673 206.931657,50.8814146 M208.006892,48.8845499 C208.200434,49.8184682 211.049807,47.9414153 209.082127,48.116525 C208.143601,48.2010077 207.902441,48.3837976 208.006892,48.8845499 M210.618177,51.0350196 C211.057487,50.9797218 211.473756,49.4452081 210.925387,49.4989698 C209.902378,49.598813 210.062127,51.1056779 210.618177,51.0350196 M212.154227,46.2732652 C212.194164,45.8201305 211.115857,45.3378109 211.078992,45.3516353 C210.962252,45.3931087 209.948459,46.8323873 210.310967,47.1948951 C210.372409,47.2563371 212.083568,47.0704751 212.154227,46.2732652 M212.000622,51.6494395 C212.530559,53.9181851 214.725574,49.2700984 212.922251,49.6525748 C212.592001,49.7232331 211.854697,51.0211952 212.000622,51.6494395 M215.687141,43.9691905 C215.128019,45.7832653 216.565762,45.1749896 215.687141,43.9691905 M217.069586,56.257589 C217.140244,55.3175265 216.177141,55.3912569 215.687141,54.7215391 C216.01432,56.4173381 213.866922,55.7998461 213.690276,56.8720089 C213.598113,57.429595 214.11269,58.1991559 214.765511,58.2544537 C215.449053,58.3128236 217.058834,56.4081218 217.069586,56.257589 M217.223191,108.176072 C217.396765,107.707577 218.313786,107.409584 218.298426,107.100838 C218.278457,106.721433 217.011216,105.898111 216.608771,105.718393 C215.876075,105.39275 216.599555,110.553877 216.608771,111.094567 C217.74084,110.919457 216.879116,109.105383 217.223191,108.176072 M219.527266,49.9597847 C219.889773,49.597277 218.505792,46.5251774 217.991216,47.0412901 C217.439774,47.5958041 218.840651,50.646399 219.527266,49.9597847 M222.44576,121.232496 C222.602437,121.235721 223.771371,120.842339 223.6746,120.464471 C223.559396,120.014408 220.256889,119.392462 219.988081,119.389236 C220.124789,119.889988 221.753002,121.217135 222.44576,121.232496 M224.59623,111.708987 C226.431809,108.887263 223.112406,110.549269 221.984945,109.558517 C222.089397,109.65068 222.435008,108.624599 222.292155,108.329677 C222.004914,107.736762 220.734601,108.054724 219.988081,107.868862 C220.444287,108.902624 221.204632,109.446539 221.52413,110.326542 C221.740713,110.922529 221.829804,112.758109 222.13855,112.937827 C222.865102,113.36024 224.313597,112.143689 224.59623,111.708987 M225.364255,71.1572721 C226.845007,72.9298735 227.805038,70.2356422 225.364255,71.1572721 M227.97554,103.260713 C228.210555,102.902813 227.121496,102.067202 227.05391,102.031873 C225.629991,101.283817 222.441152,100.913629 220.90971,101.263848 C219.602532,101.563378 218.212407,103.535666 218.298426,104.028738 C218.36294,104.403534 220.657798,106.173063 220.756105,106.179208 C220.974225,106.193032 221.189272,105.534067 221.677735,105.411183 C222.390462,105.231465 222.568644,106.004098 223.213785,105.411183 C222.616262,103.379142 225.299741,104.924255 226.285885,104.950368 C226.216763,104.177735 225.123095,104.004161 225.671465,103.260713 C226.195258,102.549522 227.67601,103.715384 227.97554,103.260713 M227.36112,49.6525748 C228.437891,51.8061166 231.122906,47.2716976 231.047639,47.1948951 C229.909426,46.0566822 229.493003,48.51897 229.357984,48.7309449 C228.761997,49.6617911 227.926386,49.0688759 227.36112,49.6525748 M230.574382,73.6164878 C228.000116,73.962099 232.288767,75.2078354 231.354849,73.6149518 C231.211996,73.3707198 230.493125,73.6164878 230.574382,73.6164878 M232.737294,30.7591622 C232.854034,30.6746794 233.873971,26.6748058 232.890899,26.6118277 C232.225636,26.5688183 232.218109,28.1663101 231.969269,28.4550875 C230.447044,30.2246169 228.396417,28.4289746 226.7467,28.6086925 C225.96485,28.6931752 223.610086,30.8528612 222.599365,29.6839273 C222.227641,29.2538334 222.99413,27.6117961 222.292155,27.0726426 C221.726889,26.6379406 220.855949,28.2799778 220.141686,28.7622974 C219.353692,29.2953067 217.578018,30.3090996 217.069586,30.1447423 C215.762408,29.7238646 216.62874,27.1678777 216.608771,25.9974078 C216.535041,21.5551517 215.081937,17.7902937 212.922251,14.7842442 C212.329336,16.6090714 213.343129,17.1359365 213.690276,18.6243687 C214.172596,20.6918918 214.922188,25.9467181 214.611906,28.4550875 C214.444477,29.8114195 212.363129,33.4933308 214.919116,33.0632369 C216.639492,32.7744595 217.660965,31.7729551 218.759241,31.3735821 C220.981905,30.5656199 224.279804,31.0233627 226.285885,30.9127672 C227.209051,30.8620775 228.221308,30.2998833 229.818799,30.4519522 C230.414633,30.5087861 231.821808,31.4304159 232.737294,30.7591622 M232.737294,122.614941 C233.211933,122.427542 233.492877,121.005314 233.351714,120.771681 C232.986134,120.164941 232.3072,120.312402 231.815664,120.618076 C230.743501,121.284721 231.737326,123.009705 232.737294,122.614941 M233.351714,114.934692 C233.615914,114.311055 232.930836,113.521526 232.890899,112.477012 C232.857106,111.61068 233.276447,111.083815 233.198109,110.480147 C233.135131,110.003972 232.399363,108.618455 232.122874,108.329677 C231.594473,107.779772 231.296479,109.437169 231.354849,110.172937 C231.434724,111.169833 232.264037,112.10836 232.276479,112.784222 C232.316416,115.072936 230.957012,114.635162 229.818799,115.856321 C231.350241,115.853249 232.910714,115.976133 233.351714,114.934692 M233.198109,100.803033 C233.456165,101.113469 234.440773,99.0843472 233.505319,99.7277984 C233.388579,99.8092091 232.758799,100.273096 233.198109,100.803033 M233.966134,116.317136 C235.035071,117.386227 235.817074,114.576792 234.580554,114.934692 C234.393156,114.989989 234.496071,115.057575 234.451526,115.189676 C234.420651,115.189676 233.755541,116.106698 233.966134,116.317136 M234.426949,94.0444142 C234.628171,93.3332231 235.572688,91.0829101 235.502184,90.0506847 C235.411557,88.7250737 234.691149,87.8019078 234.273344,86.3641651 C234.004535,85.4379271 233.920052,84.2367362 233.658924,82.9848556 C233.320993,81.3612509 232.313344,77.0249823 231.508454,76.9942613 C230.029238,76.9374275 230.824912,79.4104677 231.047639,80.3735709 C231.448548,82.1139153 231.397859,82.7728807 231.354849,84.0600904 C231.274975,86.4701526 233.340962,86.0784599 233.351714,88.8218448 C232.807799,88.9047915 232.973846,88.2780832 232.430084,88.3610299 C231.76651,90.4039761 233.179523,93.0367655 233.351714,94.3516241 C233.399331,94.7218121 233.092121,96.168771 233.505319,96.3484889 C234.394692,96.7340374 234.38225,94.1995552 234.426949,94.0444142 M235.655789,38.9002262 C235.757168,38.8142074 236.612748,35.0662458 236.116604,34.7528917 C235.629676,34.4441457 234.239551,38.4394112 233.658924,38.4394112 C231.741934,38.4394112 233.132059,34.7989732 232.276479,33.5240518 C232.013814,33.1338952 230.7051,32.8389736 229.357984,32.9096319 C227.533157,33.004867 225.754412,33.6361835 224.135415,33.8312618 C222.184632,34.0647414 220.344444,33.3166851 218.452031,33.5240518 C217.220119,33.6592242 214.590402,34.0432367 213.843881,34.9064967 C213.353881,35.473299 213.215637,37.1752422 213.843881,37.5177813 C215.545825,38.4470915 216.616451,35.6453366 217.530401,35.8281265 C218.269241,35.9755873 217.828395,36.8480636 218.605636,37.2105714 C220.369021,38.032358 222.708425,36.2874054 225.21065,36.9033614 C225.792813,37.046214 225.980211,37.846496 226.593095,38.1322012 C227.978612,38.7758061 230.752718,38.7543014 232.890899,38.9002262 C233.893939,38.9693484 235.325538,39.1797872 235.655789,38.9002262 M238.113468,104.795227 C238.563531,103.196199 237.72024,100.763096 237.345443,98.9597735 C236.998296,97.2916235 237.068954,91.8063896 235.655789,92.8155743 C235.632748,92.8309348 235.508328,93.0982075 235.502184,93.1227843 C235.199582,94.347016 235.287137,96.5020939 235.348579,98.1917486 C235.3793,99.0319679 234.96303,100.228551 235.194974,100.956638 C235.261024,101.165541 235.996792,101.194726 236.116604,101.417453 C236.82165,102.732465 234.02604,107.965634 235.348579,108.176072 C235.631212,108.222154 238.082747,104.795227 238.113468,104.795227 M237.806258,42.1259307 C237.505193,42.6620121 239.277794,43.1351155 239.035098,42.2795357 C238.922967,41.8832349 238.010553,41.7603509 237.806258,42.1259307 M246.100927,89.5898697 C245.990332,91.8125338 246.028733,92.6112797 245.179297,94.6588341 C244.753812,95.6849154 244.432777,96.8692098 244.104063,97.5773287 C243.819893,98.1886765 243.254627,98.4682376 243.182433,99.1133785 C242.993498,100.790745 245.08867,102.884381 244.257667,105.871998 C243.941241,107.007138 243.027292,106.912057 242.260803,108.022467 C241.852213,108.613847 241.631022,109.7751 241.031963,110.940962 C240.276226,112.410962 238.926039,113.46162 239.188703,115.549111 C239.305443,116.478422 241.362214,119.123653 239.649518,120.310866 C238.701775,120.968295 231.66206,125.809971 227.668331,124.458202 C223.674601,123.106433 216.249335,122.065035 215.226326,121.693311 C213.777831,121.166446 212.644226,124.012746 211.386202,124.4582 C210.016045,124.943592 206.573758,124.094157 206.163632,123.075755 C205.650592,121.80237 207.000779,119.684158 207.238867,118.314001 C207.430873,117.212653 207.340246,116.025287 207.546077,115.088296 C208.109807,112.515413 209.106704,111.639865 209.389337,108.636887 C209.595168,106.457386 211.350873,104.263754 211.078992,102.646293 C210.737989,100.614253 207.172817,100.336074 205.549212,98.1917486 C205.30498,97.8691782 204.779651,96.5481753 204.166768,95.426859 C203.286611,93.8140067 202.189871,91.694258 202.016298,89.4362647 C201.899558,87.9217196 202.441784,86.3104034 202.630718,84.8281153 C202.836548,83.2214072 202.521658,81.5025675 203.245138,80.5271759 C203.549276,80.1170506 204.449401,80.0003108 204.934792,79.605546 C205.807269,78.8943549 206.34335,77.4289634 207.392472,76.5334464 C208.143601,75.8913776 209.158929,75.6794027 209.850152,75.1510016 C210.486076,74.6656098 210.744133,73.837679 211.232597,73.4613468 C212.252534,72.6733532 213.312408,72.7255789 213.997486,71.771692 C214.708677,70.7794038 215.502815,68.3140439 214.919116,66.5491226 C214.674884,65.8102827 213.759399,65.4554552 213.383066,64.7058629 C212.70106,63.3495309 212.592001,61.6890611 211.693412,60.2513184 C211.255637,59.5493437 210.436923,59.0009739 209.850152,58.2544537 C208.667393,56.7506609 209.146641,56.7629493 206.931657,56.257589 C205.103758,55.8413195 205.415576,54.1347681 205.242002,52.2638595 C205.076109,50.4866498 203.919464,49.0442991 205.549212,47.809315 C205.959338,47.4974969 206.538428,47.654174 207.238867,47.1948951 C207.739619,46.8677165 208.016108,46.2026069 208.621312,45.5052403 C209.1236,44.9276856 212.587393,42.5560247 211.847017,41.3579058 C210.943819,39.8986585 205.235858,42.7065576 204.934792,41.0506959 C204.736642,39.9631726 210.60896,38.1106966 205.395607,38.7466212 C206.089902,36.5731107 211.227989,39.1014487 212.461437,37.5177813 C212.846985,37.0231733 212.728709,34.3258698 212.615041,33.2168419 C212.505982,32.1446791 211.88849,30.9096951 211.693412,29.3767174 C211.283286,26.1540849 211.20034,22.0973773 210.771782,18.7779737 C210.584384,17.3202624 210.522942,14.747379 210.157362,13.7090093 C210.008365,13.2850596 209.062158,12.5938372 209.082127,12.3265645 C209.158929,11.2774425 213.897643,10.7874426 215.226326,10.0224898 C215.957486,9.60161216 215.82385,9.05631448 216.762376,8.79364997 C218.167862,8.40042122 219.210839,9.20377526 220.6025,9.40806989 C221.77297,9.58010747 223.030995,9.3466279 224.135415,9.56167487 C225.728299,9.87195693 226.719051,10.6814552 229.204379,10.1760948 C230.110649,9.99176881 231.51767,9.51252128 233.044504,9.86888483 C233.703469,10.0224898 234.167356,10.6369097 234.887764,10.7905147 C236.841619,11.2067842 240.541963,10.4756245 241.185568,11.2513297 C241.614126,11.7674424 241.121054,15.9823631 241.031963,16.781109 C240.935192,17.6581934 240.538891,18.3832089 240.417543,19.2387886 C240.125694,21.2986314 240.374534,22.7839916 239.649518,24.307753 C239.389926,24.8530507 238.757073,25.1986619 238.574283,25.8438028 C238.333123,26.6947744 238.452782,28.3045546 238.267073,29.6839273 C238.094882,30.9649929 237.648045,32.3320772 237.652653,33.2168419 C237.657261,33.9725784 237.935286,36.0416375 238.113468,36.2889415 C238.624973,37.0016686 239.942904,36.6790981 240.724753,36.9033614 C241.396007,37.0953676 242.471242,37.6084083 242.875223,37.9785963 C243.322213,38.3887216 244.216194,39.7066523 243.950458,40.282671 C243.72005,40.7834232 241.792308,40.8264326 241.646383,41.0506959 C241.428264,41.3840187 241.899831,41.5514481 241.953593,42.1259307 C242.054972,43.2149901 241.316132,45.8600678 241.492778,46.8876851 C241.609518,47.5666192 242.199361,48.7155844 242.568013,49.8061798 C243.440489,52.3898155 245.62936,55.2499403 245.640112,58.2544537 C245.647793,60.2712871 244.283627,60.8058324 242.568013,61.6337633 C241.921336,61.9455814 239.746136,62.3618509 239.495913,62.8626031 C239.082716,63.690534 240.188672,66.467712 239.495913,67.6243575 C239.237857,68.0544515 237.37002,69.2848274 236.731023,69.6212223 C236.131964,69.9361125 235.428453,70.1450152 235.194974,69.7748272 C234.826322,69.1911283 237.333001,68.0851725 237.346979,68.0851725 C237.807794,67.8317242 239.672559,67.2034799 239.188703,66.0883077 C238.927575,65.4846401 237.285537,67.1082448 235.502184,66.7027276 C234.669645,66.5137935 232.638987,63.8272424 232.122874,65.6274928 C232.018423,65.9915366 232.250366,66.4692481 231.815664,66.5491226 C231.211996,66.6612543 230.757326,65.0683706 231.047639,64.091443 C231.270366,63.3418507 232.909332,62.9547661 232.737294,62.4017882 C232.274943,60.914892 230.393282,63.9347659 230.279614,64.2450479 C230.050743,64.8686842 230.239677,65.3694364 229.972404,65.9347027 C227.430242,64.9854239 231.890931,61.4018197 230.894034,60.4049234 C230.499269,60.0101586 229.16137,61.6813808 229.050774,61.7873683 C228.586887,62.2358948 227.55927,62.9931673 227.36112,63.3234181 C227.003066,63.9209414 227.30275,65.079123 226.43949,65.1666778 C226.359615,62.026992 229.023126,61.2343903 230.279614,58.7152686 C230.913849,57.4449555 230.970837,55.5233571 231.969269,54.8751441 C232.628234,54.4465862 236.743312,53.8920723 237.038233,54.5679342 C237.529769,55.6953947 234.179645,55.0179968 234.119739,55.0287491 C233.599018,55.11784 231.878642,56.3021344 232.276479,56.8720089 C232.62977,57.3789053 235.075162,56.5340779 235.809394,56.5647989 C237.188766,56.6231688 240.684816,58.3450806 240.878358,59.7905035 C241.050395,61.0792493 240.145662,60.7090613 240.571148,61.1729483 C240.790803,61.4125721 242.97353,60.97787 243.489643,60.4049234 C244.082558,59.7474941 244.414345,57.5202219 243.950458,56.257589 C243.686257,55.5402537 242.726226,54.8029498 242.260803,53.7999093 C241.441935,52.0303799 241.591085,50.4098473 240.878358,49.3453648 C240.475759,48.7447694 239.331556,48.271666 238.727888,47.5021051 C238.028986,46.6111962 237.23024,44.6143314 237.038233,43.5083756 C236.723343,41.701981 237.236384,41.7219496 234.426949,41.5115108 C234.153532,41.4915422 230.809551,41.1920125 232.122874,41.9723258 C232.619018,42.2672473 235.227077,43.0322001 235.194974,43.8155855 C235.167325,44.4822311 232.193379,45.2656165 231.662059,45.5052403 C229.872561,46.3116665 233.98303,45.6096917 234.426949,46.1196602 C234.741839,46.4806319 234.145698,47.1119484 234.119739,47.5021051 C234.081338,48.0673714 234.48071,51.8199411 232.890899,52.2638595 C231.600617,52.6248312 228.142969,50.67712 226.7467,50.4205997 C226.018612,50.2854273 225.20297,50.6709758 224.904976,50.2685308 C224.95413,50.2685308 225.364255,48.27013 225.364255,48.27013 C226.32275,47.6311332 226.431809,48.3346441 227.207515,48.116525 C227.642217,47.995177 230.151969,46.4545191 229.818799,45.9660553 C229.195163,45.0551777 226.275132,47.3223872 225.978675,45.5052403 C225.89112,44.9676229 227.651433,43.7940808 227.97554,43.5083756 C228.423912,43.1120747 230.047671,42.0153352 229.972404,41.6651158 C229.722028,40.5115424 222.335165,40.3625456 221.370525,41.0506959 C220.825228,41.4408525 219.909742,44.5605697 219.988081,45.9660553 C220.141686,48.7155844 222.170807,50.4067752 222.906575,52.5710694 C222.657735,51.8399097 223.416544,53.3575269 222.75297,52.7246744 C222.295227,52.5219158 221.431967,51.4712578 220.295291,51.1886246 C219.872877,51.0826372 219.29993,51.3422296 218.912846,51.1886246 C217.952815,50.8061482 217.373724,49.0166502 216.301561,50.2669947 C215.888364,49.6879039 215.822313,48.6940797 215.226326,48.8845499 C214.023599,49.2685623 215.868395,50.7616027 215.840746,51.9566495 C215.829994,52.4236086 215.269336,52.8506305 215.379931,53.1854893 C215.508959,53.577182 218.385981,56.3374635 218.759241,55.3359591 C218.994256,54.7031065 218.058802,54.5525737 217.409053,53.9826992 C217.404445,53.978091 216.049649,52.6294393 216.301561,52.2638595 C217.066514,51.1502233 219.584099,54.1501286 219.988081,54.2607242 C220.862093,54.500348 221.597861,53.5387808 222.13855,54.2607242 C222.820556,55.1731378 221.3183,55.2299716 220.448896,56.103984 C219.915886,56.6400654 220.110965,57.1377455 219.527266,57.4864288 C219.001937,57.799783 217.891373,57.5939523 217.069586,57.9472437 C215.968238,58.4203471 215.750119,59.3773061 215.226326,59.4832935 C214.919116,59.5462716 213.648803,58.9595006 213.383066,59.1760836 C212.450684,59.9318201 215.350746,63.3249541 215.840746,63.937838 C216.70247,65.019217 216.856075,65.5583705 218.452031,66.0883077 C219.616357,66.4753923 219.788394,66.5690913 218.912846,65.6274928 C218.398269,65.0729788 216.243191,63.074578 217.069586,62.2481832 C217.774633,61.5431363 221.742249,66.0007529 222.13855,66.2419127 C223.481058,67.0606272 225.778988,67.9515361 227.66833,68.3923824 C227.520869,68.3570533 228.393345,68.2234169 228.436354,68.6995924 C228.540806,69.8746705 225.192217,69.0021942 224.749835,68.8531974 C224.350462,68.718025 219.456607,66.7196242 222.13855,68.5459874 C222.831309,69.0175547 224.448769,69.7548586 225.82507,69.9284322 C226.81275,70.0528523 228.069239,69.767147 228.589959,70.0820372 C229.181339,70.4384008 229.116825,71.7517233 229.357984,71.925297 C230.910931,73.0420052 233.331745,70.1818804 235.809394,71.0036671 C236.537481,71.2448269 237.076635,72.6272717 237.652653,73.6149518 C238.810835,75.6026002 240.276226,77.6562988 241.646383,79.759151 C242.131775,80.5041351 242.985818,81.1462039 243.336038,81.7560157 C243.732338,82.4472381 243.988859,83.583915 244.718482,84.6745103 C245.291429,85.5316261 246.276037,86.6314378 246.408137,87.13219 M222.290619,72.0789019 C222.290619,72.0666135 223.06018,71.4537297 222.906575,70.6964571 C222.6946,69.6611596 221.3183,69.6657677 220.448896,69.1604073 C219.496545,68.6074294 218.613316,68.0006897 217.684006,67.7779625 C216.313849,67.4492478 216.647172,71.1403755 216.455166,71.771692 C216.048113,73.1141995 214.628803,72.0758298 214.151091,72.8469268 C213.800872,73.4137292 214.555072,74.0358294 214.304696,74.6901866 C214.025135,75.4198103 213.484446,74.7792775 212.922251,75.6118165 C213.670308,76.4889009 214.888395,76.613321 214.458301,77.6086812 C213.800872,79.1262985 210.47686,77.1171453 210.003757,77.1478663 C208.604415,77.2384932 208.123632,79.5333517 208.774917,80.6807809 C209.206547,81.4411255 212.76711,82.3258902 211.847017,83.9064854 C210.982221,85.3918456 208.515325,82.1553887 207.238867,82.9848556 C206.705858,83.3304668 207.026892,85.0907798 207.085262,85.2889303 C207.33871,86.1583345 209.721124,88.5883653 209.235732,89.5898697 C208.890121,90.3041329 206.951626,89.8095248 206.778052,90.0506847 C206.272692,90.7526594 207.80567,91.757236 207.546077,91.4331295 C208.653569,92.8155743 209.811751,93.8754487 210.003757,95.580464 C210.080559,96.2686143 209.447707,96.2194607 210.003757,96.9629088 C210.584384,97.7403036 212.132722,97.4283319 212.615041,97.7309337 C213.111186,98.0413694 214.048176,99.437485 213.997486,99.8814034 C213.986734,99.9781746 213.19874,100.692438 213.229461,100.803033 C213.412251,101.468143 216.849931,102.879926 217.376796,102.799898 C218.12178,102.68623 220.441215,100.013504 220.448896,99.8814034 C220.448896,99.7907765 219.115604,96.9490843 218.912846,96.8093038 C217.269272,95.6787712 212.458364,98.9997108 213.536671,94.5052291 C213.63037,94.1135364 214.908364,93.5313735 214.765511,92.6619693 C214.573505,91.4976436 212.068208,91.3901201 211.539807,90.5114996 C210.903882,89.4546973 211.482973,88.6083339 211.693412,87.593005 C211.848553,86.8388045 211.694948,85.8833815 212.154227,85.1353253 C212.541311,84.5040088 213.293976,84.4732878 213.997486,83.5992755 C215.129555,82.1937899 215.326169,79.4980225 215.840746,77.6086812 C216.462846,75.3230391 218.753097,78.7515023 218.912846,80.5271759 C219.075667,82.3412507 218.885197,84.9540714 218.605636,86.2105602 C218.23084,87.8986789 216.853003,88.1920644 217.223191,89.2826598 C217.402909,89.8125969 218.551874,89.5530045 218.759241,90.3578946 C218.902093,90.9139447 218.098739,91.4776749 218.144821,92.2011544 C218.163253,92.496076 218.679366,93.0045084 218.912846,93.4299942 C219.654758,94.7878623 220.608645,98.2501185 221.83134,98.4989586 C222.81134,98.6986451 222.842061,97.6587394 223.6746,97.8845387 C224.1646,98.016639 224.219898,99.0304318 224.90344,99.2669835 C225.477923,99.4651339 228.007643,97.9951343 228.743564,99.5741935 C228.96153,100.042689 228.634505,101.267074 228.743564,101.724663 C228.864912,102.237704 229.846448,102.955039 229.972404,103.721528 C230.170555,104.928863 229.416201,105.357421 230.279614,106.332813 C231.881714,108.143815 230.860241,105.434223 230.894034,104.489553 C230.978517,102.096387 232.279551,97.463661 231.354849,95.273254 C230.852561,94.0828154 229.499147,94.1504016 228.589959,93.5835992 C227.413345,92.8509035 227.350367,91.9231294 226.593095,91.1259195 C226.794317,92.497612 228.834191,95.2826239 227.514725,96.5020939 C227.152217,96.8369527 226.570054,96.1948839 226.285885,96.1948839 C225.437985,96.1964199 225.285916,96.8108399 224.749835,96.5020939 C224.411904,96.3070155 222.502594,91.8248222 222.292155,88.9754498 C222.141622,86.9478641 222.969553,85.6652625 223.06018,84.5209054 C223.101654,83.9940403 222.619334,82.6453886 222.906575,82.3704356 C223.275227,82.0186802 224.447233,82.7344794 224.749835,82.3704356 C225.272092,81.7421913 224.09087,78.0449194 223.828205,77.9158912 C222.365886,77.1985559 221.986481,79.5057028 221.063315,78.9911261 C220.324475,78.5794647 221.307547,74.9374906 220.756105,74.0757667 C220.040306,72.9575224 216.598019,73.1264879 217.069586,71.464482 C218.708551,70.9330088 221.238425,72.5719739 222.290619,72.0789019 M218.909774,43.0490967 C218.871372,43.0490967 219.573347,41.8432976 219.220056,41.3579058 C218.874444,40.8848025 216.886796,41.1935485 216.608771,41.2043009 C215.674853,41.2427021 214.53664,41.1827962 214.151091,41.6651158 C214.005167,41.8463697 214.306232,42.4362128 214.151091,43.0475606 C213.658019,44.9829834 211.926891,44.5651778 213.536671,46.2732652 C216.533505,49.4544244 212.94222,40.1966522 215.994351,43.5083756 C216.679429,41.1075297 218.1141,43.5268082 218.909774,43.0490967" id="Fill-10"></path>
                    </g>
                </g>
            </g>
        </g>
    </g>
</svg>