<?xml version="1.0" encoding="UTF-8" standalone="no"?>
<svg width="155px" height="197px" viewBox="0 0 155 197" version="1.1" xmlns="http://www.w3.org/2000/svg" xmlns:xlink="http://www.w3.org/1999/xlink" xmlns:sketch="http://www.bohemiancoding.com/sketch/ns">
    <!-- Generator: Sketch 3.2.2 (9983) - http://www.bohemiancoding.com/sketch -->
    <title>ico_agenda</title>
    <desc>Created with Sketch.</desc>
    <defs></defs>
    <g id="Blank-Project" stroke="none" stroke-width="1" fill="none" fill-rule="evenodd" sketch:type="MSPage">
        <g id="Portada-10" sketch:type="MSArtboardGroup" transform="translate(-671.000000, -785.000000)" fill="#000000">
            <g id="sidebar" sketch:type="MSLayerGroup" transform="translate(-16.000000, 699.000000)">
                <g id="destacados" transform="translate(16.000000, 0.000000)" sketch:type="MSShapeGroup">
                    <g id="agenda" transform="translate(582.721969, 1.000000)">
                        <g id="ico_agenda" transform="translate(89.000000, 86.000000)">
                            <path d="M87.6250631,184.191804 C87.6902463,183.041314 86.2978169,182.046814 85.9581177,180.900908 C84.8203432,177.057195 84.7846085,171.71885 83.8403398,168.890392 C83.6038286,172.684754 82.0386889,178.588904 82.8715433,182.911673 C83.1208398,184.202247 83.8057358,185.857599 84.5106231,186.044536 C85.4511513,186.294209 87.5696523,185.192289 87.6250631,184.191804 M83.6782279,153.436567 C85.0667394,153.124927 85.0869526,150.209508 83.9155751,149.646946 C83.1498384,150.481007 83.3571879,151.924 83.6782279,153.436567 M92.3601149,112.569164 C92.227867,110.925539 88.8957008,109.930879 87.6429184,110.467895 C84.8002636,111.684467 88.114957,114.634307 89.4770567,114.70699 C90.7094286,114.773216 92.4676071,113.897778 92.3601149,112.569164 M97.6364414,129.651223 C97.5960757,129.011443 96.4883251,128.121546 95.9610383,127.339497 C94.2057013,124.738786 92.7352408,121.339918 91.146803,119.552211 C86.2424932,118.978155 85.8087232,124.560604 86.1609206,128.25279 C86.4201461,130.965766 87.7310565,133.37761 88.2289329,135.872524 C88.6346243,137.906259 88.6533162,139.532428 89.3156874,142.035815 C89.5755523,143.016557 89.748841,144.071225 89.8451318,145.038443 C90.1430556,148.042788 90.3083307,150.972755 90.0924481,153.631001 C89.8770134,156.271244 89.0202639,158.674233 88.7116346,161.20707 C88.2331633,165.128828 90.4255647,165.894281 91.3065991,168.733888 C91.7516594,170.169185 91.4379833,171.831147 91.5877464,173.409764 C91.7258408,174.850303 92.2349864,176.412805 92.3679804,177.83469 C92.4571356,178.781984 92.2537652,179.754786 92.4625269,180.425164 C93.1725125,182.695288 95.795786,183.695994 95.6570901,186.216791 C95.6121784,187.050849 94.8792278,187.608637 94.5862702,188.360964 C96.2779695,187.026332 98.4825296,186.011893 100.084682,184.621354 C99.5668969,182.434661 98.1938035,180.995166 97.9997538,178.959962 C97.7195544,176.035594 99.5504186,173.107248 99.3611596,170.246689 C98.6191809,169.582341 96.9000632,170.165736 96.7433141,168.752928 C97.6496347,166.939211 99.3963523,168.710416 100.423522,169.081687 C103.600927,167.113567 100.460364,165.459407 99.1805243,164.086572 C97.657396,162.453554 97.327408,160.047988 97.6588719,157.511126 C97.8204191,156.270318 98.7751616,155.111257 98.654553,153.913683 C98.4900461,152.282265 96.5234072,150.794258 96.3576512,149.1044 C96.220975,147.702717 97.3353942,145.620924 97.1945971,143.579588 C97.0295766,141.195447 95.7440683,138.753053 95.7928644,136.657104 C95.810921,135.886442 96.5057155,134.906832 96.5765716,133.91177 C96.6291414,133.1725 96.3255631,132.447145 96.4178363,131.984401 C96.5452842,131.341102 97.6802605,130.331131 97.6364414,129.651223 M87.3295476,60.1093257 C88.2747954,58.5266477 89.5877762,57.6531244 89.4069986,56.4840844 C86.3701817,57.1336197 83.7686374,59.2348432 81.8843749,61.0694566 C82.6776661,62.1891547 83.9732399,64.0415373 85.2520966,63.7345671 C86.2564903,63.4939162 86.6794074,61.1983833 87.3295476,60.1093257 M111.747141,136.736198 C111.440078,135.128287 110.736672,134.025329 109.109887,134.105233 C109.570647,135.516579 110.473563,136.36438 111.747141,136.736198 M102.93326,97.6787719 C103.307813,96.7523704 104.182293,95.8160325 103.541316,94.9644106 L103.190015,95.0263545 C100.926052,96.2174724 99.4054666,98.3171116 97.4990371,100.755277 C95.8940894,102.807872 93.8050836,105.977271 94.3701739,107.661895 C94.617544,108.397161 96.0952757,109.228339 97.3114554,108.935679 C99.9154798,108.307055 99.5652881,104.924114 100.403995,102.850199 C100.7648,101.958811 101.747428,101.327667 102.149553,100.424105 C102.553155,99.5186529 102.592757,98.520955 102.93326,97.6787719 M119.618873,159.170286 C119.194773,155.173033 120.468648,150.400576 119.388472,148.619387 C118.305705,146.833767 116.000053,147.808999 113.756699,147.494116 C107.375529,146.597122 106.69709,136.309354 101.12525,134.404407 C101.097713,134.309865 101.066022,134.222574 100.921734,134.277346 C100.684402,134.410444 100.536617,134.599449 100.478379,134.844361 C100.040082,137.905195 102.384668,139.122876 102.287144,142.020967 C102.254433,142.965307 100.467873,144.419322 100.560994,145.584265 C100.648129,146.663901 102.30853,149.29113 102.83003,150.235515 C103.602468,151.637529 105.301729,153.149869 105.394637,154.508755 C105.479608,155.771273 104.02548,156.809819 103.991924,157.852076 C103.931021,159.725293 104.76614,161.349268 105.502626,162.311148 C106.203568,163.225522 108.015653,163.385065 108.463315,164.722136 C109.383475,167.465223 106.347015,170.51001 106.954124,173.624413 C107.305165,175.420106 108.903225,176.872076 109.019644,178.148602 C109.162103,179.726877 107.749609,181.258327 108.191156,182.694244 C108.540558,183.833551 111.983511,186.113878 113.861745,186.093922 C115.93322,186.070853 117.206328,184.940387 119.111859,184.02756 C120.791965,183.222918 123.357904,182.604269 123.547909,181.452953 C123.877676,179.450853 121.690957,178.16297 121.214684,177.464807 C119.504449,174.95554 119.112635,172.702639 119.322322,169.814101 C119.395104,168.799146 119.1391,167.67596 119.264099,166.40249 C119.395989,165.075662 120.248083,164.125347 120.231914,162.647014 C120.22213,161.749275 119.747259,160.381153 119.618873,159.170286 M116.327938,125.284769 C116.16992,124.018836 116.333268,122.603359 115.862682,121.619036 C115.457575,120.769819 113.453045,119.87836 112.994047,118.702976 C112.270528,116.849122 113.088659,114.483903 112.813412,112.542859 C112.613392,111.131163 111.865974,109.912126 111.358441,108.399853 C110.620958,106.199756 110.190681,104.406628 107.907122,105.260643 C105.576054,106.132812 105.153396,108.635242 102.863017,110.549612 C101.447099,111.73296 97.9659959,113.057219 98.0030194,114.828438 C98.0267761,115.969763 99.814058,118.05319 100.799008,119.386772 C103.135546,122.551454 105.212363,124.684855 107.453347,127.338438 C108.673236,128.782135 109.350007,130.566017 110.424986,131.865801 C111.972069,133.737385 115.095266,135.067084 117.380861,135.364742 C118.245153,132.223904 116.752764,128.690399 116.327938,125.284769 M105.281324,43.7810453 C106.617607,43.2553776 107.396535,42.3831427 107.322451,40.9769414 C105.602212,40.1673412 104.487873,42.5782726 105.281324,43.7810453 M129.526169,157.23029 C130.860526,156.149314 129.384718,153.57264 127.535788,154.15937 C127.286202,155.609608 128.325932,156.99708 129.526169,157.23029 M133.388179,181.12141 C134.061441,182.566982 141.893003,185.937588 142.967865,182.039397 C139.062871,182.726324 136.100974,180.996665 135.086463,177.400079 C134.454541,175.161815 135.046579,172.305256 134.220141,169.405509 C133.722221,167.660157 132.482122,165.002813 131.128582,165.225184 C128.485013,165.660357 130.437906,168.90898 130.698668,171.004118 C130.897081,172.601857 130.412794,173.778992 130.581241,174.446701 C130.91479,175.763156 132.491528,176.570359 133.062251,178.245842 C133.369855,179.148099 133.046684,180.386445 133.388179,181.12141 M113.648871,31.075908 C114.668072,29.9331814 115.712682,26.9316428 115.447667,25.8703357 C115.155284,24.6949033 113.221746,24.0109045 112.05208,23.0471921 C110.481884,21.7532553 108.341772,19.0965503 106.688011,21.3858775 C107.438411,23.2072908 110.561565,22.6468176 110.722012,24.7482376 C110.858903,26.5311772 105.850306,28.1492169 103.595471,27.4713579 C101.331018,26.7903066 102.688099,24.5337385 100.615374,23.9231661 C100.568652,25.6097537 98.1172314,26.9805774 98.3538147,28.5585499 C98.4466816,29.1776665 99.9462935,30.6567724 100.815417,31.2204871 C101.878717,31.909651 103.055856,31.7037192 103.433263,32.7142488 C104.268687,34.9459604 101.731695,36.3758682 99.359465,37.3432861 C101.208622,38.7607578 107.42225,38.276177 109.335233,36.3990216 C109.921896,35.8230322 110.391249,33.6675927 110.913598,33.0247292 C111.598147,32.1821716 112.889712,31.9267329 113.648871,31.075908 M118.657318,52.8109909 C119.923584,51.2205927 122.632386,49.6968411 122.092702,47.6427371 C121.403605,45.0185944 117.535408,46.047738 115.30402,45.0919946 C113.595678,44.3601403 113.134215,41.2705692 111.141641,43.0558432 C109.11017,44.8773062 107.858178,48.2331576 104.480356,49.4446967 C103.187571,49.9089219 101.891418,49.7480265 100.819556,50.253141 C99.2575585,50.9880725 95.7420763,55.5479941 95.674938,57.0263512 C95.6523081,57.5142927 96.1190324,58.0658586 96.1571092,58.7337433 C96.2026153,59.5567466 95.7152178,60.3156572 95.8167578,60.9120614 C95.9678137,61.7995562 96.8308569,62.3904146 96.7616924,63.1896419 C96.6546815,64.4110562 94.2967328,65.3156658 93.8617188,67.2858093 C96.4254532,70.4756088 92.8841036,73.2248671 91.1314304,75.4257199 C91.2932096,76.4253865 92.4670104,77.0119634 92.132096,78.0193667 C91.9665774,78.8062535 90.342126,78.6836923 89.608797,79.1160785 C90.2807797,80.2359835 90.1063948,81.6094117 90.6288705,82.8469289 C91.076866,83.9085609 91.9959679,84.3037756 92.1564883,85.3476597 C92.3535374,86.6295226 91.6460094,87.5266455 91.1329417,88.7870693 C91.399838,90.0028439 91.4753347,91.2116308 91.3110847,91.851642 C91.0379766,92.9116963 90.2190335,94.7279296 89.5207464,96.0780438 C88.4508818,98.1454634 86.4910487,99.2536246 86.556584,100.837316 C86.6243736,102.464605 88.3217406,104.839266 89.592412,104.701574 C91.0655545,104.541216 92.6256469,100.981128 93.3149083,100.13448 C94.4210336,98.7760022 95.9192037,97.5455615 97.1210012,96.0414861 C98.7752156,93.9704273 102.247823,91.3962367 101.423688,88.6019983 C101.055616,87.3568093 99.5172435,87.1164138 99.1377366,85.9090892 C97.8755484,81.8836308 104.084168,79.5423427 103.410066,75.2160236 C103.200672,73.8744178 101.885708,72.7440484 101.456008,71.3239668 C100.705448,68.8442778 100.251523,65.355788 100.885256,62.951386 C101.273885,61.4782611 102.171887,60.3569052 102.70346,58.8830174 C103.315294,57.1864057 103.701375,55.5344889 105.307863,55.1648601 C106.494933,54.8919984 108.407064,55.5162226 108.656177,56.692767 C108.853315,57.6259086 107.786315,58.312666 107.169867,59.5619881 C106.737578,60.4382798 105.975714,62.1776403 105.942804,62.8743365 C105.805352,65.7925034 108.246084,67.4527405 108.861204,70.1811775 C109.263462,71.9694685 109.285136,74.7732156 109.097571,76.6573611 C108.91514,78.4884583 107.614965,81.0266667 108.112839,82.371178 C108.583565,83.6438914 110.508703,83.5407103 111.12926,85.0982324 C111.532094,86.1091669 111.063958,86.9054177 111.658704,88.1008612 C112.812443,89.1488554 114.225983,88.9175341 115.414051,89.8828903 C116.728965,90.9513488 116.66518,92.3460119 117.128269,94.4690234 C117.368912,95.576994 118.059913,96.6609563 118.240397,97.6948025 C118.481264,99.0813722 117.964156,100.606482 118.410082,101.738546 C118.799396,102.724163 120.483629,103.370648 120.843819,104.24245 C121.984513,107.003683 119.895726,110.215409 122.209229,111.986072 C126.521295,107.9277 121.041027,101.24205 120.485041,95.0177597 C120.343503,93.4344344 120.822206,91.75315 120.730846,90.2489682 C120.452754,85.6931342 117.710521,81.4088482 123.006828,80.5596985 C122.746236,79.0201782 122.203653,77.8432378 121.312018,77.1107691 C116.291692,79.2066806 116.970838,75.0979977 115.833995,71.7217775 C115.342962,70.2619972 114.276601,69.2165201 114.490485,68.2109041 C109.086578,68.8606783 114.040467,64.9808104 112.26623,61.7593459 C112.949071,59.8286066 114.932152,58.7701185 116.164377,57.1612805 C117.066678,55.9821352 117.603222,54.1358529 118.657318,52.8109909 M148.46132,178.968624 C147.382015,177.120474 146.125647,175.500709 144.11234,174.847071 L143.761039,174.909015 C143.652402,177.096989 146.08349,178.147877 145.115498,180.536262 C146.723867,180.321101 147.994677,179.896598 148.46132,178.968624 M124.428499,40.7912053 C123.748624,39.4005712 122.591681,38.6220038 122.123139,36.9610925 C119.947544,38.0062716 118.034789,36.03296 116.371446,36.1828593 C115.200144,36.2883646 113.961568,37.2449067 113.312737,38.3516576 C116.511862,39.5881248 119.769914,42.6994928 124.428499,40.7912053 M123.334334,21.3900316 C123.982161,20.2981231 122.472816,19.1335907 121.343953,18.3191123 C119.416226,16.9285304 117.605141,15.9426718 114.638867,16.2424691 C113.167287,16.3911447 110.246016,16.6585649 109.508673,17.9617935 C111.857562,18.2075544 113.275974,21.2701532 115.678349,21.1105231 C116.607531,21.0493395 117.367381,20.2537944 118.229513,20.1718444 C120.172892,19.9872324 121.097887,21.7306052 123.334334,21.3900316 M136.467871,32.6821932 C134.696384,31.6127675 134.027337,33.9093337 132.363715,34.0576527 C130.839052,34.1928759 129.476771,32.5168315 129.642865,30.9525882 C129.756748,29.8831318 130.99837,29.7244906 131.064987,28.7464714 C127.070473,27.9191145 123.520366,30.7008769 124.236508,34.1871263 C127.01196,34.253387 129.448983,34.7524693 129.787177,37.9338431 C132.704088,36.6145571 135.86901,35.4487054 136.467871,32.6821932 M143.711961,28.4144185 C144.083966,30.5241604 148.470995,30.3421046 148.875006,33.0442167 C149.191081,35.1654498 146.720139,36.2920369 145.531677,37.7073992 C146.371748,39.7394966 146.556045,42.2945909 144.287698,42.9780887 C142.628058,43.4776702 141.201931,42.0866338 140.024807,42.4261791 C138.656334,42.8206476 138.7344,45.1533126 136.430689,45.6670638 C134.006893,46.208507 132.911278,44.6581656 131.473652,44.2598715 C130.86538,45.4425735 131.421069,46.0159302 130.689945,47.0052048 C130.007033,47.928947 128.585715,48.1469744 128.130323,48.9230541 C127.782316,49.5172522 127.849225,50.7389597 127.522267,51.6374154 C126.739007,53.7895444 125.79174,56.6549676 125.003952,58.9252166 C124.426302,60.5897291 123.357431,61.5945621 123.41713,63.2786795 C123.526575,66.3439593 125.41877,68.7347803 126.410669,72.0387903 C127.152531,74.5102362 126.818261,77.2366118 127.341181,79.3702566 C127.663912,80.6869896 128.454178,81.3786718 128.80461,82.5340918 C129.440951,84.6330721 129.107816,87.1604529 129.475874,89.4224308 C129.762262,91.1904162 130.425692,92.8267404 130.515356,94.2904848 C130.690926,97.1453102 130.015586,100.813366 129.644579,103.731979 C129.082557,108.155679 127.80368,111.882901 127.426819,116.832859 C127.147301,120.4963 126.686415,124.784846 128.694209,129.156267 C129.170478,130.193361 130.252388,131.029154 130.68459,132.227187 C131.059987,133.267401 130.925573,134.446393 131.297631,135.703915 C132.058805,138.274612 133.926105,140.637233 134.678795,143.580944 C135.3622,146.254975 135.545218,148.484401 136.691077,150.884612 C137.37237,152.314103 138.526173,153.557622 139.227818,154.999819 C140.483759,157.582672 140.603604,160.357703 141.499347,162.746614 C143.148509,167.148682 145.025828,170.584984 148.368152,172.941716 C150.004438,174.096901 153.37148,175.114741 153.74317,176.719404 C154.339401,179.299632 151.194871,180.642758 148.459225,182.702449 C147.304997,183.572422 146.194762,185.338991 144.892972,186.101367 C143.381118,186.987144 140.62562,187.588705 138.828793,187.659485 C137.152438,187.725317 135.754729,186.834404 134.362386,186.980514 C130.004242,187.439374 127.496656,191.285482 122.456951,191.361015 C120.896416,191.385242 119.090815,190.779711 117.870625,191.029082 C116.374299,191.335291 115.466067,192.727312 114.053582,193.005702 C112.053139,193.4008 111.130453,191.999208 109.383658,192.19967 C107.358306,192.432955 105.427404,194.218761 103.837974,194.644043 C101.459837,195.280091 98.8882502,195.199067 96.4412353,194.807662 C92.9468738,194.248967 90.9529442,194.465305 89.0977355,192.191802 C88.4787471,191.434071 88.2260622,190.298893 87.3024127,190.227114 C86.0647463,190.130862 84.3011006,191.909988 82.3200034,191.757434 C76.6428304,191.319655 77.1394998,181.060956 77.7212152,175.947778 C78.5194114,168.919284 78.4228392,162.434746 78.370049,154.976214 C78.3351956,150.04345 78.4202039,145.954798 77.4708762,140.632521 C76.5750503,135.613668 76.3972114,129.366696 77.0235169,124.742642 C77.2383211,123.156774 78.0435905,121.468421 77.852005,120.197001 C77.6756609,119.022291 76.6054888,118.181169 76.4443069,117.349232 C76.1340098,115.74352 77.1135857,113.503003 77.8918014,112.205604 C79.2047407,110.017109 82.2018684,108.64946 80.7614173,104.855858 C80.3732774,103.835815 79.2658811,103.615565 78.0321098,102.729964 C77.0162104,102.001483 76.1549727,100.897024 75.4784531,100.573098 C73.6450807,99.6970849 69.8027927,100.061727 69.3087774,97.4243688 C68.7332257,94.3451377 74.9990678,91.3012369 78.8362056,90.8560301 C79.7060037,89.6158078 79.0588756,88.3595336 79.2492036,87.0354371 C79.4886337,85.3735305 80.6587634,83.2379181 81.0843228,81.0087273 C81.4462553,79.106872 82.2801739,75.7937784 81.522694,74.2506227 C81.033234,73.2517038 79.0453547,73.1736712 77.9708638,72.5956547 C76.6781627,71.899686 75.7022295,70.7404961 74.0483244,69.865427 C72.4782243,69.0342416 69.7162757,67.7092822 68.1015728,67.9809622 C66.1721763,68.3065016 65.2873718,70.2011561 63.6292002,71.3767067 C62.9127597,71.8843294 61.7829925,72.3589174 60.8381963,73.0094617 C58.8715365,74.3665054 57.5115777,75.2303881 54.8939369,74.2205416 C54.3147667,73.9967718 52.8142306,73.4368474 52.5995273,72.5068029 C52.328501,71.3292342 54.1557541,69.4280883 55.3517158,68.5996406 C57.980668,66.7771113 61.7664728,65.5066696 64.4551961,63.7355207 C65.6184759,62.9682376 67.7241225,60.7149228 67.882122,59.5464375 C67.9995828,58.6718861 67.5179652,57.8817854 67.6397902,57.1449691 C67.8355969,55.9649289 68.4577523,54.7993326 70.6149026,54.5020715 C72.7474619,54.2091465 73.7316665,56.3396687 75.6276697,56.22533 C77.7011896,56.1008734 80.1494646,53.808327 81.884415,52.677899 C86.3076409,49.7943251 89.5487638,48.3005503 93.787357,45.2018535 C95.2890552,44.1044068 98.7853738,42.2707009 98.823005,40.8920557 C98.8528293,39.8080908 97.2737623,38.8644239 96.9804089,37.6321313 C96.5349997,35.7634579 97.8573196,34.3163455 97.42973,32.9904009 C96.7669814,30.9368135 93.9274461,31.8937505 93.6271104,29.913135 C93.4130384,28.5039165 95.0452762,27.9619123 95.8438889,27.0780591 C96.8015772,26.0178753 98.7761669,23.3705262 98.5209386,21.717627 C98.3313286,20.4882247 96.9848675,19.8571371 96.706208,18.6157357 C95.841747,14.771085 99.8777085,14.251713 101.878691,12.0005587 C103.951083,9.67163425 103.565703,6.91083541 105.99727,5.57121339 C108.356288,4.27208466 111.871026,4.87444053 115.011188,4.30770946 C119.618676,3.47573145 123.26145,0.490240939 128.118312,-0.44762815 C132.271009,-1.24992763 139.468803,1.38184708 139.088781,5.27646936 C138.904002,7.17641817 135.111375,8.35681276 132.369272,8.25371195 C129.508538,8.14545761 126.3635,5.75719823 124.139061,6.77188261 C124.4945,8.63360767 126.301924,10.5847552 127.813303,11.1753572 C129.896547,11.9893874 131.6665,11.6121184 133.085317,13.341743 C134.042486,14.5075004 135.219863,17.3535152 135.549412,19.0992249 C135.73949,20.105308 135.056236,21.9823478 135.691232,22.9849351 C137.077134,25.1749843 143.98095,20.8600417 145.150998,24.2499607 C145.751547,25.9918814 143.456156,26.9636747 143.711961,28.4144185" id="Fill-99"></path>
                            <path d="M3.45171817,107.842511 C3.41878686,109.204222 6.24048002,113.19743 7.26481704,110.491147 C6.62698959,109.991022 5.58012063,106.538447 4.6649769,106.440292 C3.82089547,106.349927 3.46905044,107.13517 3.45171817,107.842511 M16.1042735,172.967799 C16.3434588,172.492603 16.4023885,171.666852 15.7576282,171.56558 C15.3468534,171.953527 15.2497927,172.930407 16.1042735,172.967799 M16.2775962,181.692718 C16.5445131,180.405793 15.8442895,178.804147 15.5843055,177.486061 C13.8649445,177.786759 14.4906394,181.719205 16.2775962,181.692718 M18.3574683,106.28449 C18.5550561,105.608309 18.2777399,104.745165 18.1841456,104.259062 C16.7854316,104.858901 16.5566457,105.634795 15.4109828,105.661281 C13.9862704,105.694 13.1993855,104.033149 12.117852,104.10326 C11.2703041,104.159349 10.7018057,105.00068 10.9045932,106.28449 C11.0761827,107.362641 12.599689,109.495572 13.677756,109.556335 C14.4611745,109.601517 18.0402878,107.375105 18.3574683,106.28449 M22.1705672,111.737564 C22.3577556,110.900907 21.5726039,109.451947 20.6106631,109.712137 C18.3921328,110.313533 12.0693216,113.904772 11.7712066,116.255826 C11.5424207,118.05534 12.545959,122.891438 14.3710467,122.955317 C15.305256,122.988036 16.0921409,121.886515 17.1442096,121.397296 C18.0281552,120.985978 19.2830114,121.219682 19.050759,119.995077 C16.5150482,120.389256 14.984609,120.10258 14.7176921,118.904462 C14.4039781,117.499127 16.2394652,115.350616 17.3175322,114.542003 C19.0992893,113.20522 21.8429873,113.203662 22.1705672,111.737564 M23.5571486,132.926653 C22.7130671,131.860967 22.520679,130.410449 23.0371805,128.875798 C21.6609985,127.414374 20.6210624,125.342206 21.6505991,122.955317 C17.3002,121.296025 16.4959827,127.56706 17.6641776,131.057028 C17.1390099,132.089996 15.4161825,132.049487 14.5443694,132.770851 C14.1491937,134.271226 14.5825004,136.2281 15.0643374,137.444915 C18.7647766,137.321831 20.5448005,134.182418 23.5571486,132.926653 M21.9972445,151.467106 C22.4166854,150.487111 24.0823163,149.52737 23.9037939,148.195261 C23.7114057,146.75565 19.7249842,144.594674 17.3175322,144.767615 C15.7350962,144.88135 13.3692417,146.110629 13.5044334,147.260449 C13.5928279,148.014531 14.7419573,148.182797 15.5843055,148.81847 C16.3139939,149.370009 16.941422,150.273662 16.9708869,150.9997 C17.0523485,153.040708 14.2982512,153.754281 13.5044334,155.362159 C12.4922289,157.412515 12.9827321,160.428844 12.4644973,162.840661 C12.1629159,164.245996 10.7468696,165.712094 12.117852,167.047319 C14.9516777,166.690532 16.6329077,165.163671 17.8375003,163.152265 C18.828906,161.496089 18.660783,159.389644 19.3974043,157.699191 C19.8393772,156.684919 20.9122445,155.88877 21.3039538,154.894753 C21.7303276,153.811928 21.5674042,152.467356 21.9972445,151.467106 M22.3438898,141.651572 C23.6282109,141.846325 25.7011501,141.467726 25.6370207,139.937749 C24.2903035,139.685349 22.9331869,140.708969 22.3438898,141.651572 M25.983666,134.640477 C26.2141852,134.380287 26.4429711,134.11854 26.3303114,133.549862 C25.8450079,133.185285 24.7218769,132.84252 24.4237619,133.549862 C24.9107987,133.942483 25.0338578,134.662289 25.983666,134.640477 M26.3303114,166.42411 C27.4257107,164.509302 28.0184742,157.326824 26.3303114,156.296972 L25.983666,156.296972 C24.8882667,158.327074 24.3475,160.523884 23.3838259,162.529057 C22.4530831,164.467235 20.8845129,165.814924 20.2640177,167.826329 C22.4253515,169.150647 25.3285063,168.175326 26.3303114,166.42411 M39.6761574,94.2877264 C39.1475232,93.3965382 38.1023875,93.7299547 37.5962853,93.9761221 C34.9652471,95.2521415 33.6687935,96.8818317 31.7033143,98.9617901 C28.8018927,102.03265 26.2297842,106.970019 25.6370207,111.270158 C31.6599837,109.715253 30.9770923,102.808545 34.4764771,98.9617901 C36.2772997,96.9815451 38.5859578,96.7867924 39.6761574,94.2877264 M45.9157737,89.6136626 C46.0596316,89.1727426 45.6713888,89.2101351 45.7424511,88.834652 C45.4616683,88.6009488 44.4633297,88.6009488 44.182547,88.834652 L44.182547,89.4578605 C44.5239926,89.7102599 45.4443361,89.9595433 45.9157737,89.6136626 M50.4221633,86.4976201 C50.7740083,87.6972965 49.5070196,92.8574628 48.6889365,93.82032 C48.0181778,94.6086787 46.0301667,95.141522 45.0491604,95.8457476 C43.5343202,96.9332464 42.8722275,98.438295 41.5827068,100.052405 C40.1059976,101.901776 38.2341127,103.696617 36.7296719,105.661281 C35.9531863,106.673995 35.2373637,107.632178 34.4764771,108.621522 C33.6739931,109.665396 33.1124277,110.868188 32.396605,111.737564 C31.5455907,112.770532 29.8626275,113.367255 29.6234422,114.3862 C29.247332,115.994078 30.7292409,118.061573 30.8367009,119.683473 C30.9112297,120.800574 30.4415252,121.944161 30.4900556,123.111119 C30.5420524,124.377791 31.112284,125.667832 31.1833463,127.006173 C31.3601354,130.35436 30.027284,133.766427 30.1434102,137.133311 C30.1728751,138.015151 30.7587057,138.814416 30.8367009,139.626145 C31.1573479,142.935382 29.6165093,145.325386 29.2767969,148.351064 C28.819225,152.429963 30.982292,155.988484 31.1833463,159.568817 C31.3393367,162.332746 31.1677473,165.629519 30.1434102,167.826329 C29.2490652,169.744253 27.3875797,170.540402 26.6769567,172.500393 C26.0529951,174.21889 26.2852475,175.68343 25.8103433,177.797665 C27.1865254,179.480328 29.7066371,178.279094 31.7033143,178.732478 C33.2805507,179.090823 35.0311097,180.954216 34.9964452,182.783333 C34.9513813,185.151525 32.006629,186.879371 29.6234422,187.145793 C26.281781,187.519718 24.7617412,185.371206 22.6905352,185.743574 C21.1635624,186.017785 21.2415576,187.996472 19.7440497,188.548012 C16.1424045,189.875446 7.28041608,188.021401 6.39820366,185.587771 C5.87996886,184.159066 6.16941773,181.755039 6.05155831,180.134697 C5.8955679,178.003324 6.69111898,176.146163 6.74484901,173.902612 C6.79164613,171.945737 5.91116694,169.948354 5.70491296,167.826329 C5.49519252,165.657564 6.05155831,163.05411 6.22488098,160.659431 C6.40340334,158.186852 6.53166212,155.531984 6.91817169,153.804138 C7.20588733,152.515654 8.15916204,151.362719 8.13143042,150.220689 C8.07423393,147.847823 5.87476918,146.339658 6.05155831,143.988604 C6.15728514,142.583269 7.55946559,141.32283 7.78478506,139.781947 C8.53700548,134.656057 5.2352085,129.754522 5.70491296,124.980745 C5.95969729,122.392872 8.22329143,119.551041 7.61146239,116.879034 C7.1001605,114.641716 1.39957769,114.249095 0.505232682,111.737564 C-0.0407337465,110.202913 -0.115262497,105.201665 0.505232682,103.32425 C1.02693394,101.745974 2.60763674,99.7501488 3.45171817,99.1175922 C4.16927405,98.5800749 5.54892255,98.3276754 6.39820366,97.8711752 C8.16782818,96.9192242 11.1351124,94.555706 13.5044334,94.4435285 C14.7176921,94.3858817 17.7803038,95.1103616 18.7041136,96.0015497 C20.0456311,97.2947074 19.425136,100.297014 21.4772765,101.298822 C22.7893291,100.924897 22.6437381,99.3014387 23.2105032,98.0269773 C24.0095207,96.2290208 25.7635462,93.5881748 25.983666,91.0158817 C26.13619,89.2335054 25.6231549,87.8250542 26.1569887,86.341818 C26.6457586,84.9832235 30.1503431,80.8497931 31.876637,80.8887436 C34.2060938,80.9417164 36.6499435,83.3519752 36.9029946,85.8744116 C37.0399195,87.2330061 36.0606464,88.5355119 36.9029946,89.7694647 C40.5514369,89.9611014 41.2429944,82.7396729 44.8758377,82.602567 C46.5432018,82.5402462 46.7563887,83.5607501 47.8223232,84.4721925 C48.7201346,85.238739 50.182978,85.682775 50.4221633,86.4976201" id="Fill-137"></path>
                        </g>
                    </g>
                </g>
            </g>
        </g>
    </g>
</svg>