<?xml version="1.0" encoding="UTF-8" standalone="no"?>
<svg width="133px" height="192px" viewBox="0 0 133 192" version="1.1" xmlns="http://www.w3.org/2000/svg" xmlns:xlink="http://www.w3.org/1999/xlink" xmlns:sketch="http://www.bohemiancoding.com/sketch/ns">
    <!-- Generator: Sketch 3.2.2 (9983) - http://www.bohemiancoding.com/sketch -->
    <title>ico_tienda</title>
    <desc>Created with Sketch.</desc>
    <defs></defs>
    <g id="Blank-Project" stroke="none" stroke-width="1" fill="none" fill-rule="evenodd" sketch:type="MSPage">
        <g id="Portada-10" sketch:type="MSArtboardGroup" transform="translate(-1038.000000, -785.000000)" fill="#000000">
            <g id="sidebar" sketch:type="MSLayerGroup" transform="translate(-16.000000, 699.000000)">
                <g id="destacados" transform="translate(16.000000, 0.000000)" sketch:type="MSShapeGroup">
                    <g id="botiga" transform="translate(942.778031, 0.000000)">
                        <g id="ico_tienda" transform="translate(95.000000, 86.000000)">
                            <path d="M17.5716893,53.7847927 C18.9950108,51.4025052 17.8343624,47.6422065 16.973039,45.1364335 C16.4855667,43.7158033 15.9247902,41.1094934 14.8802066,40.2341667 C14.1483872,40.3948072 12.9938474,41.8744481 12.2889062,42.6404956 C11.5082174,43.4906881 10.81305,44.4687373 10.3952166,45.4041676 C9.35429819,47.7372794 9.65240158,50.5315496 9.59864523,53.4274495 C9.57298879,54.7628419 8.99999497,56.1124405 8.40256645,57.0828402 C7.88699418,57.9188264 6.31706442,59.3930034 6.50887685,60.1142464 C6.65548508,60.6661065 7.76115546,60.8223758 7.90409848,61.4507315 C8.08247182,62.2320781 7.14295743,63.2735092 6.80820198,64.3040125 C6.05683482,66.6130829 6.61883302,68.1211364 7.10630538,70.1876069 C7.3775306,71.3317605 7.35309589,72.45078 7.70495564,73.3075292 C7.99572862,74.0178443 8.70189158,74.661499 9.2993201,75.2690916 C9.85398789,75.8329725 10.5100597,76.6700515 11.4923348,76.7847947 C11.8612989,75.9335094 11.5228782,75.3029682 11.4923348,74.5554982 C11.3567222,71.2596362 12.6786397,68.8085028 13.1868816,66.2644821 C13.3664767,65.3618355 13.5534021,63.833019 13.484985,63.1445597 C13.42512,62.5457095 12.9461997,61.9643439 12.8875565,61.3622153 C12.7519438,59.989668 13.3945766,59.0444026 13.7843101,58.152684 C14.0298789,57.5898959 14.084857,56.9506123 14.2827781,56.6369809 C14.9205239,55.6272407 16.8618611,54.9715652 17.5716893,53.7847927 M23.9503689,61.3622153 C23.1709018,60.821283 21.4616942,61.1032235 20.1629897,60.6486218 C19.5631177,60.4388057 19.211258,60.0956689 18.7677681,60.0246374 C17.9785271,59.8967807 17.3945377,60.7141894 17.5716893,61.2726063 C17.8380276,62.1129637 23.6351612,62.8331139 23.9503689,61.3622153 M23.1525758,35.3308071 C23.4946617,34.7822253 23.7927651,33.8959707 23.5520832,33.1015106 C23.2148843,32.8818593 22.8508072,32.6796927 22.3560044,32.8348692 C21.878306,33.699268 22.4598519,34.941773 23.1525758,35.3308071 M28.6345017,14.737134 C28.610067,13.1613273 30.889825,12.4269708 30.6283736,10.6369768 C30.4219004,10.5276976 30.0993623,10.5113057 29.8305805,10.5473679 C28.2655377,10.7604624 25.4188946,13.7044452 25.4457728,14.826743 C25.4592119,15.3895311 26.0786317,15.9249994 26.1433836,16.4309622 C26.4976868,19.2306964 22.8459203,20.90704 22.953433,23.4740094 C23.5154312,23.965766 24.0810946,23.8269813 24.3486546,24.4542442 C24.7591576,25.4159015 23.6583742,26.7086749 24.3486546,27.4856503 C25.9198061,25.8125851 27.4310925,23.8608579 28.2362161,21.512447 C29.0340092,19.1826135 30.4719915,16.8418522 30.5281913,14.2027585 C29.6729767,14.1360982 29.5031555,15.1086834 28.6345017,14.737134 M33.4188169,20.0863529 C34.1628536,20.212024 34.7089693,18.9946533 33.9172848,18.8383839 C33.4786819,19.0110451 33.3723909,19.4798531 33.4188169,20.0863529 M39.896457,17.500806 C40.5464202,16.8495017 40.3888163,14.8944961 39.896457,14.2027585 C37.9025851,13.7929613 34.816482,13.9426739 35.0131813,15.6288526 C35.1793373,17.0472972 38.3497402,17.3423511 39.896457,17.500806 M38.3020926,9.92338339 C39.2538243,10.6293273 41.631321,10.620585 42.4877574,9.83486721 C41.3295524,9.7059177 39.259933,9.39665745 38.3020926,9.92338339 M43.4846934,9.83486721 C44.607468,11.0139902 48.2983302,12.1209889 49.364905,10.1015086 C48.2347999,9.30486289 45.0753926,9.66220601 43.4846934,9.83486721 M46.5744618,63.590419 C47.1621164,63.6100893 47.9660182,64.1969188 48.3691908,63.590419 C46.2543671,62.7107211 43.45415,61.9927565 40.6942501,61.9861998 C41.4737172,62.7609896 42.4730966,63.5762127 43.9831613,63.7685442 C44.8310456,63.8767306 45.724134,63.5630992 46.5744618,63.590419 M63.7166287,163.792927 C63.216939,162.290337 62.0660644,162.018232 60.628082,161.474021 C59.9732319,161.22705 59.1057999,160.744036 58.5340279,160.315662 C56.9201156,159.10594 55.6177459,156.11606 53.5505699,155.501911 C53.4076269,155.551087 53.3074446,155.640696 53.2524665,155.768552 C52.9494761,156.922541 52.9042719,158.106035 53.351427,158.889567 C54.9176916,161.630291 59.8987061,163.560162 63.7166287,163.792927 M62.819875,57.8849498 C63.3904254,57.6467211 64.3030616,57.7549075 64.6146041,57.1713564 C64.5486304,55.2983102 62.0330775,55.5103119 61.5248357,53.9629178 C61.3098103,53.309428 61.5639312,52.5597724 61.4246534,51.9117465 C61.2316192,51.0134711 60.3348656,50.2474236 60.0294318,49.6835427 C59.0899174,47.9481884 58.1797246,45.6096126 58.1357422,43.5322142 C58.0990901,41.8099734 58.7331707,40.3915288 58.833353,38.9861977 C58.8638964,38.5545447 58.685523,38.1611395 58.7343924,37.5590108 C58.7881488,36.8782012 59.2682907,36.1930203 59.2316387,35.3308071 C59.2010953,34.5975434 58.6366536,33.8347743 58.7343924,32.9233854 C58.9286483,31.1071644 61.4258751,29.8974432 62.2224465,28.1992438 C62.593854,27.4069693 62.8235402,26.5666119 62.7209145,25.4355718 C61.4148795,25.2967871 60.7319295,26.1120103 59.6311461,26.3272904 C57.6507133,26.7130461 54.8737091,26.0879688 53.351427,25.7918221 C51.6104543,25.4530564 49.9635553,25.3995096 48.2690085,25.0782286 C47.3001725,24.8946395 46.2507019,24.9350728 45.6777081,24.7219783 C44.5805899,24.313274 44.2079606,22.3112782 42.4877574,23.117759 C41.1365183,23.7515786 37.8781504,24.8345359 36.9068709,25.7022131 C36.2764556,26.2671868 36.0076738,27.1239361 35.5116493,27.7533845 C33.9966976,29.6756063 32.1592079,31.256877 29.6314377,32.3890099 C28.5062195,32.8927872 27.3382407,33.0588917 26.939955,33.6369789 C26.2130225,34.6937091 26.2851049,36.6443436 26.1433836,38.3622133 C25.9833363,40.2898991 25.5483986,41.8930256 25.6449156,43.4426052 C25.7646457,45.3626415 27.7255307,46.6521366 27.7377481,48.7918241 C27.7548524,51.8385294 25.7964108,53.8634737 24.0493294,55.299403 C23.1904496,56.0064397 22.0053664,56.6162178 21.5582113,57.7068247 C22.7848335,58.0434047 23.5325354,58.7012658 24.5477974,58.8651846 C25.6815677,59.0487737 27.1207718,58.8542567 28.3351766,58.8651846 C32.0358126,58.900154 35.7987571,58.8269369 39.1988462,59.4902619 C41.3075612,59.900059 43.435824,60.2781652 45.5775258,60.6486218 C47.7302233,61.0212641 49.900025,61.8594358 51.8572449,61.9861998 C53.9610729,62.121706 56.2591569,61.8627142 57.836417,61.1829973 C58.339772,60.9677172 58.786927,60.5065588 59.331821,60.2027625 C59.8999278,59.8858527 60.5523344,59.7077276 61.0263677,59.4006529 C61.6470092,58.9985053 62.0550688,58.205138 62.819875,57.8849498 M63.5174858,13.4891651 C65.3452017,12.8870364 67.2877607,12.6094672 68.8002689,11.6172116 C63.9255454,11.7855017 59.5297421,11.7964296 54.6476881,13.0433057 C53.1058583,13.4378038 51.0337953,13.5601966 49.1657622,14.1131495 C48.0026702,14.4584719 44.9238975,15.3917167 44.7809544,16.2528371 C44.6331245,17.1336278 45.8707423,19.0722415 46.3753189,19.3738522 C47.980679,20.3322312 49.5383914,19.2230469 50.8603089,18.6602588 C51.6947541,18.3051012 52.6122772,17.9401086 53.4516093,17.680024 C55.5041245,17.0407404 56.7942769,16.3828794 58.4350673,15.5403364 C60.1540488,14.6562674 61.7850653,14.0606955 63.5174858,13.4891651 M69.9963477,25.7918221 C69.9755782,25.692378 69.8851698,25.6530375 69.7972049,25.6136969 C69.3634889,25.8792455 68.7037518,25.9426274 68.7000866,26.5939317 C69.4991015,26.6551281 69.8314135,26.2988778 69.9963477,25.7918221 M72.288323,105.490266 C72.7098216,104.570135 73.4978409,103.50794 73.4844018,102.636985 C73.4685192,101.622874 72.5082353,100.685258 72.0891801,99.7847967 C71.1154572,97.6942848 71.3243739,95.1284082 70.8931014,92.4740154 C70.7929191,92.4751082 70.774593,92.4018911 70.6939585,92.3854992 C69.7788788,94.9546542 66.5253979,95.4322045 63.816811,96.3971402 C63.9585322,98.698561 62.2163378,99.8132093 60.7270426,100.675423 C59.0605957,101.641451 56.5792515,102.369251 54.348363,102.369251 C52.3129521,102.369251 50.1016113,101.937598 48.1688262,101.65675 C46.0857677,101.352954 44.2666039,100.494019 42.5879397,100.586906 C42.3008319,102.132115 43.1132859,103.493734 43.3857328,105.132923 C43.9501745,108.5326 43.560441,112.350817 44.381447,115.741752 C44.5866985,116.587573 44.9947581,117.419188 45.2794224,118.327298 C45.9843636,120.581729 46.4547317,124.809743 49.1657622,125.013002 C49.7912906,125.059993 50.5744229,124.686258 51.3587769,124.478627 C53.5921089,123.885241 56.286035,123.532269 58.6342101,123.408783 C64.0086234,123.12575 68.112432,125.082941 73.2852589,124.478627 C74.6401633,122.37828 73.0983334,120.477914 72.8869732,118.773158 C72.6682826,117.014855 72.8625385,115.178963 72.4874658,113.513548 C72.2076885,112.264486 71.4233345,111.186993 71.291387,110.036282 C71.0665878,108.073627 71.6627946,106.854071 72.288323,105.490266 M81.1593424,53.2493244 C81.0115125,52.5215246 80.6706484,51.2571638 79.8630814,51.1096368 C78.7708501,50.9107486 77.9718352,52.1488824 76.6743524,52.2690896 C74.8576322,52.4362868 73.1875201,51.5970222 71.1924265,51.9117465 C70.9150926,52.2592545 70.4532767,52.440658 70.5937762,53.1597154 C71.8240636,54.0656403 74.0806086,53.7771431 76.1758845,53.6951837 C77.991383,53.6241522 80.1428587,54.0492484 81.1593424,53.2493244 M82.7537069,64.1258873 C81.8117491,64.175063 81.0933687,64.4231269 80.759835,65.0165131 C81.7922013,65.0482041 82.4030689,64.7028817 82.7537069,64.1258873 M84.7463571,61.1829973 C84.7365832,60.4300634 84.5802011,59.3820754 83.5502783,59.4006529 C82.5741118,59.4181376 81.8447359,61.1250793 80.8600173,61.6288566 C78.3139211,62.932558 75.0494446,61.8168169 71.6908945,62.3424501 C71.9413502,63.45382 72.8038953,64.111681 73.6835446,64.4821376 C76.8282911,65.8044165 79.4049307,63.5172019 81.3584853,62.6101842 C82.60099,62.032097 83.9693335,61.9250034 84.7463571,61.1829973 M85.1459866,8.85353962 C84.585088,8.22736956 83.3572441,8.10388402 82.2552389,7.9629138 C80.4067535,7.72577784 78.1648694,7.56404456 76.1758845,7.69517965 C73.9853132,7.83942825 71.7141074,8.16180202 70.3946334,8.94314859 C71.2266351,9.34966737 72.0916236,8.99669542 72.9859338,8.94314859 C77.0054427,8.70164147 81.5331934,9.38026556 85.1459866,8.85353962 M88.6339185,47.5438552 C89.2033693,46.2674736 89.3645162,45.2533623 91.1250367,45.4041676 C90.9601024,44.402077 90.0059272,43.7453087 89.5306722,42.9082297 C89.2131432,42.34872 89.2728861,41.4548158 88.4348979,41.2144015 C88.4726495,41.6722815 88.5459536,42.3050083 88.4348979,42.6404956 C88.1476679,43.5038016 86.1965568,44.6949453 84.7463571,45.2260425 C83.2619488,45.7702531 82.6852897,45.3582703 81.6565887,44.9583083 C80.2943539,44.428304 78.2552778,43.7988556 78.1685346,42.5519794 C78.1098913,41.7061581 79.297418,40.9674304 79.0652883,40.0560415 C78.9015758,39.4102012 77.3524155,39.2080346 77.271781,38.4507295 C77.0139948,36.0356582 83.2509531,36.0782771 85.8435975,36.2225257 C87.0920887,36.2913716 88.7133313,36.8006129 89.6309767,36.3110419 C89.0676345,35.2084144 87.9057643,34.5898938 86.7402289,33.5473699 C86.3566041,33.2042331 85.7628408,32.693899 85.3450073,32.1212758 C84.995591,31.6426327 84.6339574,30.7476357 84.1489285,30.5170565 C83.3706832,30.1465999 81.442785,30.3400241 79.8630814,30.2493224 C77.5601105,30.1170945 76.3615882,29.5553992 74.1820126,29.7149469 C72.4947962,29.8373396 70.2968946,30.2263737 68.5009438,30.4274475 C64.6500344,30.8591005 63.1363044,33.0512421 63.0190179,36.2225257 C64.3898048,37.0115218 66.6744496,36.1504014 68.0024758,36.2225257 C68.3299009,36.2400104 69.0177378,36.5711265 69.4978797,36.668385 C71.2938305,37.0290065 75.5784559,36.9098922 75.5772342,38.5403384 C75.5772342,39.3522832 74.4092553,39.4386138 74.2821949,40.2341667 C74.1783474,40.874543 74.8930625,42.2449047 74.9798057,43.354089 C75.0726576,44.54414 74.8551887,45.9746053 73.7837269,45.9396359 C72.8429908,45.9090377 73.0409119,44.8523074 72.3885053,44.4239328 C69.3928105,45.9789764 64.7062342,46.091534 64.2150966,42.6404956 C64.0855927,41.7269211 64.9041553,40.9215331 63.6176681,40.7685422 C62.9310529,41.0898232 63.318343,41.9738922 63.318343,42.7301046 C63.318343,43.3420683 63.1192001,44.0480122 63.2193824,44.691667 C63.3977558,45.8543981 64.5388565,46.5515997 65.0128897,47.7219803 C65.7838047,49.6256247 64.2517487,51.7915393 64.9127074,53.2493244 C65.2743411,54.0459701 66.538837,54.5639537 67.0067616,55.2108868 C67.5602077,55.9758415 67.6518378,57.0172726 68.1026581,57.7068247 C68.6145652,58.4903568 70.0464389,59.4694988 70.9932837,59.4902619 C71.7092205,59.5044682 72.1050627,59.0673512 72.8869732,58.9547936 C74.4300248,58.7340495 76.4764313,59.2225277 77.3719633,58.3308091 C75.8374638,57.7898769 74.5864069,58.2259011 73.3842195,57.7068247 C72.7379216,57.4270698 72.4666963,56.7495385 71.8900373,56.4588557 C71.5601688,56.2927513 71.0751399,56.3386485 70.6939585,56.1911216 C69.7532224,55.8272217 68.5375959,55.0775661 68.4019832,54.4972933 C68.1613014,53.4678829 68.9126686,52.7204129 69.3976975,51.8232303 C70.0672084,50.5861893 70.3543161,48.2202937 71.8900373,48.3459648 C72.574209,48.40279 72.5998655,49.3524266 73.2852589,49.6835427 C74.0207435,50.0387003 76.5521789,50.1457939 77.4709238,50.0397931 C79.4110393,49.8168634 78.6853286,48.5929359 78.568042,47.1876048 C80.5057141,46.44997 81.6297105,48.3361297 82.3554212,49.5054176 C82.7708112,50.1763921 83.1238927,50.908563 83.5502783,51.5554961 C84.0133159,52.2570689 84.7683483,52.8701254 84.7463571,53.6951837 C84.257663,54.0634547 83.3804571,53.7585657 82.7537069,54.051434 C82.3884081,54.2219096 82.1232915,54.9092761 81.756771,55.2108868 C81.0017386,55.8326857 78.8331586,56.3091432 79.7628991,57.5286995 C80.7537263,57.657649 81.6016106,57.0161798 82.2552389,56.5473719 C82.9479628,56.0512441 83.7995123,55.5605803 84.3480714,55.0327616 C84.5973054,54.7934401 84.7158137,54.2874772 85.0456822,53.9629178 C85.4329723,53.5804405 85.9766444,53.4591405 86.241761,53.0711992 C86.574073,52.5849066 86.6889161,51.8647564 86.9393718,51.1992458 C87.459831,49.819049 88.0401552,48.8737835 88.6339185,47.5438552 M90.0291402,174.134022 C90.1525354,174.953616 91.2154451,175.378712 92.1219726,175.202773 C91.8629647,174.505571 91.0211892,173.881587 90.0291402,174.134022 M94.9124158,131.342456 C95.991208,131.426601 97.0284613,131.998132 98.2013271,131.520581 C96.6533885,130.421232 94.3652006,130.199395 92.0231342,130.094487 C89.8385495,129.997229 87.7212823,130.60045 85.1459866,130.362221 C83.8263904,130.239829 82.7585939,129.35576 81.258303,128.936127 C79.3304048,128.395195 75.9828503,128.429072 72.9859338,128.400659 C69.9010524,128.372246 66.792958,128.069543 64.4142395,128.222534 C62.0795035,128.372246 58.9750743,128.249854 56.7405205,128.668393 C57.9927991,130.323974 60.6451863,130.297747 62.4215893,131.342456 C64.3678135,132.487703 64.6866864,134.464564 64.7135646,137.31566 C64.7282254,138.776723 64.9383639,140.741564 64.0159538,141.505426 C63.1619609,142.213555 60.8931986,142.321742 60.628082,143.377379 C60.4692564,144.009013 61.168089,145.039516 61.5248357,145.606676 C62.4557979,147.087409 63.3439994,148.105892 64.2150966,149.350582 C64.5987215,149.896979 65.4368319,150.620407 64.8137469,151.400661 C62.2114509,150.608386 61.6690004,147.973664 59.9292495,146.408785 C58.0636598,146.432827 56.9127852,147.097244 56.0429097,148.013004 C57.1644627,148.979033 58.6048885,148.895981 59.7301066,149.706833 C61.0544676,150.661933 61.6494527,152.37871 62.7209145,153.629958 C63.1729565,154.157776 63.9084411,154.781761 64.5144218,155.323786 C65.1521676,155.894223 65.754483,156.661364 66.3079291,157.017614 C66.8748142,157.380421 67.738581,157.600072 68.4019832,157.997849 C69.0348421,158.377048 69.6090576,158.961692 70.1954906,159.245818 C70.5693415,159.427221 71.0983529,159.437056 71.4917516,159.602068 C73.9388873,160.630386 76.3237144,162.000747 79.0652883,162.901208 C78.2418387,161.266391 76.4972008,160.336425 74.9798057,159.156209 C73.0189207,157.632856 71.6261425,155.680036 69.9963477,153.986208 C69.1032593,153.058427 68.1759622,152.286916 67.6041901,151.312145 C66.9859921,150.2576 66.5962586,149.128746 65.9096434,148.013004 C65.4062885,147.195596 63.4539556,146.045978 63.6176681,144.982691 C63.7911545,143.850558 65.6909528,144.127035 66.806397,144.179489 C67.1961306,143.284492 66.8980272,142.217926 67.9035153,142.12941 C68.8075993,142.049636 69.579736,143.285584 70.4948157,143.466988 C69.5296449,143.613422 68.5375959,143.736908 68.4019832,144.625348 C69.9914608,145.217641 71.420891,146.524621 73.2852589,146.676519 C73.9254482,146.727881 74.4935551,146.533364 75.0787662,146.497301 C76.5179703,146.408785 77.5503366,146.866665 78.9663277,147.121286 C80.6193355,147.419618 82.102522,147.331102 83.5502783,148.013004 C86.3443867,149.328727 87.1739449,151.853077 90.1294446,153.005973 C90.2490525,151.817015 92.5190365,150.731872 92.1219726,149.706833 C91.9179428,149.180107 90.537382,148.867568 89.5306722,148.548473 C86.4995471,147.585723 83.0664711,147.124564 81.0591602,145.606676 C80.3285625,145.053723 79.8569727,144.074581 79.1654706,143.645113 C78.3994426,143.168656 77.183816,143.297605 77.1715987,142.307535 C77.1581596,141.151361 79.3963785,140.773255 81.0591602,140.97105 C82.1892652,141.105464 83.3914527,141.695572 84.6475187,142.039801 C85.8899012,142.381845 87.1972801,142.615703 88.6339185,142.843004 C91.3473925,143.271378 94.1819404,143.993714 96.9062877,144.001364 C96.2257812,142.246339 96.2832028,140.478201 95.0125981,139.365738 C94.3944001,138.824806 92.7365054,138.510082 91.6235046,138.117769 C90.4225389,137.694858 89.3987248,137.053389 88.3345934,136.780191 C87.0823148,136.45891 85.6125673,136.46656 84.3480714,136.156207 C83.0127148,135.829462 81.7225624,135.49616 80.5606922,135.265581 C78.3322471,134.820814 73.916896,134.564008 73.8826875,132.680034 C73.8509223,130.925009 76.7684261,131.102042 78.7671849,131.25394 C80.8160348,131.409116 82.9552932,131.999224 84.5472142,132.144566 C88.3407021,132.492074 91.5392049,131.079093 94.9124158,131.342456 M96.2086769,157.462381 C96.0779513,158.613091 98.2318704,158.613091 98.1023665,157.462381 C97.6600984,157.194646 96.6668276,157.244915 96.2086769,157.462381 M97.1054306,166.734724 C99.382745,166.569713 101.997258,166.360989 100.095017,164.505428 C98.9697985,164.421283 98.9746855,165.128319 97.9033458,165.307537 C96.5874148,165.527189 93.8421758,164.767698 94.0156622,166.11074 C94.0987402,166.754394 95.9044648,166.821055 97.1054306,166.734724 M102.487174,172.350584 C102.363779,171.628249 102.036476,171.090595 101.590421,170.656756 C99.6160965,170.410878 98.7535514,172.212893 100.195199,173.064178 C101.187248,173.030301 102.085223,172.911187 102.487174,172.350584 M105.876268,149.884958 C105.749207,149.880587 105.738212,149.771307 105.576943,149.796442 C104.364981,150.488179 102.6741,149.832504 101.490238,150.330817 C100.824393,150.611665 100.28573,151.417053 99.696731,151.84652 C99.2008287,152.208235 98.2636356,152.524052 98.4018138,152.916364 C101.580647,152.878116 104.881897,152.175451 105.876268,149.884958 M114.447962,14.3808837 C114.598235,13.4957218 113.477904,13.3536588 112.852376,13.2225237 C112.071687,13.057512 111.17982,12.9591607 110.460218,12.7766644 C108.988027,12.4029294 107.539172,11.6073765 106.175593,11.3505703 C105.634364,11.2478478 105.040601,11.3910036 104.481046,11.2609613 C103.638049,11.0653515 102.963651,10.646812 102.187849,10.4588517 C100.946566,10.157241 99.5000316,9.80208344 98.1023665,10.0129924 C95.848265,10.351758 93.7994151,10.4905427 91.8226475,11.2609613 C96.0840599,12.3526609 101.415835,12.4870744 104.281903,14.826743 C107.013703,14.9819195 109.762607,14.1852738 112.254947,14.2923675 C113.034414,14.3251513 113.74913,14.6934223 114.447962,14.3808837 M115.443676,9.21088274 C115.81264,8.25906054 116.210926,7.05589609 115.843184,6.26908555 C115.514537,5.56532723 112.588481,4.50531859 111.157829,4.5752573 C109.835912,4.63863926 107.621028,5.77295779 107.868918,6.89307002 C107.982661,7.40231129 109.022236,7.59901392 109.762607,7.87330482 C110.57384,8.17382273 111.084525,8.59454781 111.856662,8.76502343 C113.100388,9.03931433 114.342893,8.83933332 115.443676,9.21088274 M116.241469,163.525193 C116.329434,162.129697 116.160835,160.723273 115.543859,159.602068 C114.571357,161.288247 113.5159,162.899023 113.750351,165.66488 C114.01669,166.317277 114.975752,166.351154 115.145573,167.090975 C114.218398,167.741186 112.522507,169.054722 113.650169,170.746365 C114.599457,170.479724 115.281185,169.286394 115.443676,168.249334 C115.506107,167.855929 115.365485,167.451596 115.443676,167.001366 C115.637932,165.883439 116.1645,164.745842 116.241469,163.525193 M116.540794,147.74527 C116.965958,148.033768 117.662347,148.504761 118.334302,148.280739 C118.319641,147.664404 117.042928,147.345308 116.540794,147.74527 M116.540794,172.08285 C117.921355,172.40741 119.125986,170.844716 118.235341,169.676521 C117.217636,170.073205 116.831567,171.035955 116.540794,172.08285 M123.617085,169.230662 C123.74048,168.983691 123.907858,168.777153 123.915188,168.428552 C123.549889,168.430738 123.253008,169.129032 123.617085,169.230662 M124.712981,164.951287 C125.470457,164.670439 126.14852,163.057478 125.311632,162.455349 C124.568817,162.782094 124.550491,164.09563 124.712981,164.951287 M127.503425,160.493787 C129.17598,160.05667 127.878497,156.944397 127.603607,155.94777 C127.301838,154.851699 126.860792,153.696618 126.208385,153.272614 C125.650052,152.9109 125.378827,153.188469 124.813164,152.826755 C124.058253,152.345926 123.88831,151.269526 123.118617,151.312145 C122.245076,151.359135 122.380689,152.372153 121.323888,152.64863 C118.533445,153.381894 114.742522,150.072918 113.949494,148.636989 C113.497452,147.821766 113.722251,146.678705 112.353908,146.943161 C111.804127,148.530988 110.644822,149.574605 110.061933,151.132927 C110.836513,151.815922 111.94707,151.800623 112.753415,152.29238 C114.144972,153.141479 115.309285,154.520583 116.540794,155.412302 C117.305601,155.266961 117.804069,154.495449 118.732587,154.699801 C120.204901,155.023268 119.254268,157.793497 119.132095,159.067693 C119.027026,160.160485 119.338568,161.484949 119.231055,162.723083 C119.030691,165.050731 117.870042,167.184955 119.031913,168.606678 C120.897502,167.590381 120.748451,164.626728 121.025785,162.187615 C121.12841,161.280597 121.360662,160.368116 121.42407,159.513552 C121.532805,158.066695 121.362983,156.870087 121.723395,155.768552 C121.922538,155.157681 123.631746,153.719566 124.413656,153.808083 C125.533987,153.934847 125.745348,155.882203 125.709917,157.462381 C125.692813,158.234985 125.207784,159.366025 125.808878,160.047927 C126.045895,160.316754 126.88034,160.656613 127.503425,160.493787 M127.80275,170.92449 C129.055028,170.732159 129.369014,168.765132 128.998829,167.714959 C127.910262,168.120385 127.623155,169.677614 127.80275,170.92449 M132.387922,158.621833 C132.519869,159.984545 133.205263,160.98445 133.184493,162.543865 C133.166167,163.957939 132.538196,165.708592 132.28774,167.447225 C131.691533,171.590001 129.900469,174.980936 125.808878,175.738241 C124.992759,175.889046 124.109566,175.84752 123.31776,175.648632 C122.270733,175.386362 121.807695,174.620314 120.626277,174.578788 C119.171313,174.52852 118.436928,175.804901 116.540794,175.648632 C114.869583,175.512033 114.206058,174.246579 112.154765,174.222538 C109.133414,174.187568 106.8269,176.395009 105.776085,178.412304 C105.567169,178.814452 105.586716,179.482148 105.277617,179.928007 C105.029727,180.287536 104.369868,180.354196 103.783435,180.730117 C101.812899,181.993385 100.433437,184.368023 99.198263,186.525195 C98.7988778,187.223489 98.5373043,188.233229 97.9033458,188.664882 C97.0199091,189.264825 95.3485753,189.332579 94.1159667,190.180586 C93.4145685,190.661414 93.1885474,191.773877 92.2222771,191.96293 C91.4586925,192.112643 90.7377466,191.765135 90.0291402,191.695196 C88.6876749,191.564061 87.2973402,191.858022 86.3420654,191.338945 C85.9522097,189.032061 88.4628756,189.509611 89.5306722,187.683555 C90.9026808,185.339515 90.186744,181.507092 92.2222771,179.839491 C93.0578218,179.153217 94.4811433,179.570664 94.5141302,178.234179 C93.8776061,177.673576 93.1115781,178.21888 92.4212977,178.234179 C91.7859954,178.248385 91.0871629,178.005785 90.3285875,177.966445 C89.7018373,177.934754 89.0798519,178.05059 88.5337362,177.966445 C87.4696049,177.803619 86.4274647,177.169799 85.3450073,176.808085 C83.1434404,176.072635 81.0787079,175.513126 78.9663277,174.490272 C77.9693918,174.007258 76.667022,173.578883 76.0757022,173.064178 C75.656647,172.698092 75.5479126,171.993241 75.0787662,171.7266 C74.1343649,171.190039 72.1319409,171.30806 70.7929191,171.013006 C69.3805932,170.702653 67.8082199,170.095061 66.1087862,169.676521 C62.7392405,168.845999 60.0819664,168.321459 56.9396634,166.82324 C54.758866,165.783995 52.3911431,164.021321 51.159634,166.645115 C50.8175482,167.374008 50.5316621,168.228571 50.6611661,168.962928 C53.6556391,169.487468 56.90912,170.014194 58.833353,171.636991 C60.3935089,172.952713 61.4234317,174.864007 62.819875,176.540351 C63.3769863,177.20914 64.0232842,178.1249 64.8137469,179.036288 C65.4331667,179.750975 66.82961,180.605538 66.9065793,181.354101 C67.0030964,182.289531 65.8852087,182.9463 65.5113577,183.671914 C65.029994,184.605159 65.0751982,186.202821 64.2150966,186.435586 C63.0703307,186.747032 62.1198207,185.223679 61.5248357,184.653241 C59.9976666,183.1889 58.4546151,181.820724 56.9396634,180.106132 C56.309248,179.393632 55.4931289,178.129271 54.6476881,177.877928 C51.972088,177.082376 49.055806,178.478964 46.8737869,177.432069 C46.014907,177.020086 45.396709,176.220162 44.879915,175.648632 C44.4205426,175.140483 43.3930632,174.506664 43.3857328,173.420428 C43.3722937,171.759384 45.1364794,171.377999 46.2751366,170.746365 C46.1773978,169.207713 46.7650524,167.358709 46.4755012,165.66488 C46.3753189,165.081329 45.8805161,164.553511 45.7766687,163.971052 C45.6019605,162.980982 45.8511945,161.984356 45.4785653,161.295896 C45.0900535,160.579024 44.012483,160.314569 43.2855505,160.047927 C42.4963096,161.278412 42.7052263,163.323026 42.8872649,165.129412 C43.0595295,166.845096 43.1658205,168.502862 42.688122,170.122381 C42.23608,171.65229 41.2635787,173.133024 41.0925358,174.578788 C40.8775104,176.400473 40.8506322,178.225436 41.1927181,179.928007 C41.488378,181.401091 42.9092561,184.46856 42.0894718,185.90121 C41.7424989,186.508803 40.4914421,186.54268 39.9966393,187.149179 C39.0693423,188.284591 39.8011617,190.258174 37.8036246,190.358711 C36.7627062,190.410072 36.1884906,189.562065 35.0131813,189.199258 C33.6472814,188.778533 31.8635479,188.765419 31.3259844,187.951289 C30.9423596,187.372109 31.3443105,185.879355 31.424945,184.919883 C31.5886575,182.977991 31.4738144,181.496164 31.3259844,179.928007 C31.1842632,178.433067 31.1390589,177.024458 31.2258021,175.738241 C31.3198758,174.343838 31.2893324,172.955991 31.424945,171.548475 C31.5202403,170.558405 31.9026435,169.626253 32.1225558,168.695194 C32.3693463,167.657041 32.4194375,166.692105 32.5220632,165.575271 C32.8055058,162.485947 34.0345714,159.359468 35.3125065,156.571755 C35.9160437,155.25494 36.7944713,153.919547 37.2061961,152.560114 C37.6997771,150.928575 37.727877,149.3025 38.3020926,147.834879 C39.8671354,143.838537 42.5830528,140.234508 44.6807722,136.335425 C45.3832699,135.028445 46.5988965,133.452638 46.674644,132.4123 C46.7247352,131.717284 46.2751366,130.700987 46.0759938,129.648628 C45.8854031,128.638888 45.7485687,127.625869 45.4785653,126.974565 C45.0167493,125.863195 44.0210351,124.785702 43.3857328,123.408783 C42.462101,121.410066 42.046711,119.775248 41.3918609,117.43558 C41.2183745,116.815967 40.851854,116.228044 40.6942501,115.653235 C39.9526568,112.942017 40.3167339,109.470216 39.896457,106.024641 C39.7327445,104.676136 39.4651845,103.020555 39.1988462,101.478625 C38.9141819,99.8285084 38.8653125,97.9904316 38.203132,97.2888588 C37.5702732,96.6178843 34.9203295,95.9884358 33.9172848,95.4158126 C33.2282262,95.0235001 32.7285365,94.3055355 32.2227381,93.9897185 C31.6815094,93.6509529 29.9014412,92.5679956 29.1329697,92.4740154 C26.6210821,92.1669408 23.4494575,92.9504729 20.9607828,92.2958903 C19.4678224,91.9035778 17.185621,90.5026179 16.4757928,89.2644841 C16.1483678,88.6951392 15.9235685,88.0143296 15.778182,87.3925307 C15.6169129,86.706257 15.801395,85.9467663 15.5778174,85.074718 C15.4385396,84.527229 13.8282926,82.3886342 13.0866993,82.2225298 C12.4404014,82.0771884 11.6829255,82.3569432 11.1930097,82.4006549 C7.40807398,82.7350494 4.21567984,81.4510183 3.11978334,78.9233894 C2.71050205,77.978124 2.74104543,76.703928 2.52235482,75.4472168 C2.41484212,74.8341602 2.07519973,74.2287532 2.02388685,73.6637795 C1.89071771,72.2070872 2.42339427,71.3896785 2.02388685,70.0979979 C1.79786583,69.3723837 1.3042848,68.8259875 1.02695091,68.1375283 C-0.247318929,64.9695231 0.643326048,60.8114479 0.92676862,57.2609653 C1.18699822,54.0208358 2.04343461,51.5620529 3.41910847,49.0595583 C4.59441776,46.9198707 5.73063152,44.9430092 6.80820198,43.1759639 C7.39585663,42.2110282 7.89065939,41.1674114 8.60170929,40.3226829 C9.3164244,39.4735832 10.1826347,38.7851239 10.8936846,37.916354 C11.5155478,37.1568632 12.2595845,36.2378248 12.986517,35.3308071 C13.6780191,34.4675011 14.6297509,33.5397203 14.9803889,32.6567441 C15.2931531,31.8677479 15.1941926,31.0547104 15.4788569,30.4274475 C15.8160558,29.6832559 16.6175141,29.2636236 16.8740785,28.6451031 C17.3798769,27.4266395 17.3774334,25.9622977 17.6718716,24.7219783 C17.969975,23.4587103 18.1703396,22.1648441 18.6675858,20.9780715 C19.1391756,19.8546809 19.7964691,18.8219921 20.1629897,17.680024 C20.5478363,16.4779523 20.6223621,15.1709726 21.0597434,13.9350244 C21.3285251,13.1755336 22.1629703,12.4007438 22.8544724,11.5286955 C24.1702812,9.86655819 25.5997114,8.31807133 27.6375658,7.24932035 C30.6247084,5.68225602 36.1567255,5.44949123 40.5940678,5.73361726 C42.5011965,5.85601001 44.5757029,5.83852534 46.4755012,6.26908555 C47.3099464,6.45813864 48.1443915,6.78706915 48.9666193,6.9815862 C49.9256815,7.20779424 50.8456481,7.32581582 51.4577374,7.60557068 C51.9183316,7.81647961 52.6354902,8.86883871 53.2524665,8.94314859 C53.8425646,9.01308731 55.0716302,8.27654522 55.9427274,7.9629138 C58.6879665,6.97175107 61.5272791,6.28329185 64.2150966,5.46588312 C67.8253242,4.36871953 71.9059199,3.43219643 76.5741702,3.23767938 C79.0628448,3.1338641 81.401246,3.4223613 83.6504606,3.59392971 C85.9228881,3.7676837 87.9192034,4.26927542 89.9289579,4.5752573 C91.9228298,4.8779608 94.5629996,4.90855899 96.7071449,5.19924177 C97.6087855,5.32054173 98.7755426,5.45058403 99.8958738,5.64510108 C100.912358,5.81994786 102.279479,6.29749815 102.985642,6.17947657 C103.869079,6.0308568 104.092534,4.6473816 104.580007,3.86166385 C105.807851,1.88698795 108.135378,0.292603815 111.157829,0.0281480501 C113.669717,-0.190410433 114.935434,0.904567569 116.440612,1.90010146 C117.409448,2.54157061 118.20602,2.77761377 118.732587,3.41580455 C119.322686,4.12939799 119.98621,5.62215244 120.028849,6.71385206 C120.070388,7.79134539 119.327573,8.84479728 119.231055,10.0129924 C119.161539,10.8653705 119.278703,11.8128215 119.430198,12.5089303 C119.667215,13.5886092 120.451569,14.3229657 120.328174,15.6288526 C120.24143,16.5435199 119.433864,18.1936364 118.932952,19.1061181 C118.748592,19.4405126 117.345918,21.659974 116.739937,21.7801811 C116.024,21.9233369 115.348503,21.2742182 114.647105,21.2458056 C114.032572,21.2195786 112.715542,21.4982407 111.756479,21.602056 C109.17874,21.880718 106.619083,22.8084988 103.783435,23.0281501 C101.854315,23.1778626 100.032708,23.5209994 98.2013271,23.7417435 C96.3894937,23.9592092 94.3772958,23.6237219 92.8195834,24.6334621 C93.0651522,25.5743564 93.9301407,26.129495 94.5141302,26.7720569 C95.1372151,27.4594233 95.6136919,28.1052636 96.1084946,29.0013534 C97.671094,31.8262218 98.9710203,33.8937851 97.9033458,37.826745 C97.6845331,38.6288546 97.4181948,39.6670074 97.0052483,40.3226829 C96.7426974,40.7423152 95.77997,40.995843 95.5110661,41.5706518 C95.3829061,41.8449427 95.3852274,42.7727235 95.3120454,43.1759639 C95.0066116,44.8534002 94.2075968,46.8422824 93.4183558,48.52409 C92.6216623,50.219011 91.7641264,52.0079122 90.8270554,53.2493244 C90.067014,54.2546934 87.6601956,55.6512821 87.4378398,56.7265899 C86.859959,59.5208601 90.2113009,59.178816 92.720745,59.668387 C96.8574183,60.4759606 98.7975339,62.3042024 102.187849,63.9466694 C104.193938,64.9181618 105.956902,66.2830596 107.669775,67.0676845 C108.614176,67.4993375 109.921555,67.6370294 110.660583,68.4937786 C111.041886,68.9352667 111.117512,69.6302827 111.457154,70.276123 C111.958188,71.2301308 112.884263,72.1131071 113.549987,73.129404 C114.188954,74.1041749 114.818148,75.098616 115.443676,76.0712012 C116.682516,77.9967015 118.479688,79.9757485 119.132095,82.1329208 C119.45952,83.2158781 119.277481,84.3753308 119.729523,85.4320611 C120.17057,86.4614715 121.095546,87.2460965 121.623213,88.1957331 C122.307507,89.4262174 122.523632,90.8315484 123.018435,92.2073741 C123.496133,93.5362097 123.646407,94.992902 124.115553,96.3971402 C124.62746,97.930328 125.519449,98.9968934 125.90906,100.408781 C126.350107,102.003165 125.876073,103.54291 126.009242,105.490266 C126.158294,107.666016 127.470438,109.794775 128.301218,111.730111 C128.720273,112.70816 129.139328,113.787839 129.497297,114.850033 C129.851722,115.903485 130.449028,116.995184 130.593193,117.969955 C130.792336,119.311904 130.59075,120.989341 130.494232,122.427456 C130.418485,123.538825 130.185133,124.89061 129.796622,125.548471 C129.441097,126.148414 128.376965,126.441282 128.102075,126.974565 C127.511977,128.116533 127.860171,129.792876 127.503425,131.074722 C127.083148,130.303211 126.193724,128.010532 124.813164,128.222534 C123.757707,128.38536 124.181527,129.940403 123.417942,130.540347 C121.6843,129.801619 122.019055,127.830221 122.121681,126.260971 C122.268289,124.024025 123.168708,122.15535 122.919474,119.753393 C122.716666,117.806036 121.008802,115.925341 122.519967,114.404174 C123.345982,114.043552 123.708715,114.811785 124.413656,114.850033 C124.300035,111.918071 122.892718,109.145657 122.819292,105.756907 C122.796201,104.682692 123.14916,103.608477 123.118617,102.45886 C123.081965,101.07757 122.193763,99.4471238 121.623213,98.0013595 C120.703369,95.6682477 120.62139,93.2957953 118.533445,92.2073741 C117.967781,93.0903504 118.463928,93.9110375 118.235341,94.703312 C117.436326,97.4680768 112.544499,96.6998437 111.258011,94.3459688 C110.922034,93.7318195 110.252645,91.5822968 110.162115,90.8697962 C110.027724,89.8141587 110.335601,88.6426852 110.361258,87.4821397 C110.408905,85.332617 110.446779,82.9448655 109.962972,80.8849518 C109.702865,79.7823243 109.231153,78.820667 109.464504,78.0327636 C109.662547,77.3617891 110.349163,77.141045 110.759543,76.7847947 C110.677687,75.9291382 109.92632,74.9204908 109.064997,74.466982 C109.32767,76.6908145 108.397929,77.7082043 107.371794,79.0129984 C106.973386,79.5189613 106.41261,80.805178 105.478104,80.6172177 C104.237921,80.3691538 105.105353,77.9682889 105.3778,77.141045 C105.812738,75.8176734 106.308762,74.9685737 106.374736,73.5752634 C103.524427,72.1600972 101.546438,75.0385124 99.2984453,75.7149509 C97.2166085,76.341121 94.6095477,76.0526238 92.6204406,75.7149509 C90.6045775,75.3718141 88.4689843,74.8155827 86.9393718,74.1992478 C86.1709003,73.8888948 85.2778119,72.9152167 84.5472142,72.9512789 C83.4439873,73.0059185 82.6034335,75.2002457 81.9559138,75.9815923 C81.3975808,76.656938 80.2405976,77.4448413 79.4647957,77.6754205 C78.5106205,77.9595465 77.1483857,77.8218547 76.274845,78.1212798 C74.7073587,78.6589337 74.1209258,79.8872324 73.3842195,81.2412022 C72.0720759,81.5340705 71.6713467,82.6913377 70.4948157,82.7569052 C69.8680655,82.7918746 68.5253785,82.3339946 67.7043724,81.9547956 C66.0501429,81.1920265 64.7832035,80.057708 64.7135646,77.8546385 C64.6805778,76.7913514 64.679356,75.2242871 65.2120326,74.466982 C65.5003621,74.0571848 66.4838589,73.8014714 66.9065793,73.5752634 C67.5760902,73.2168274 67.9572716,72.4540583 68.8992295,72.5054196 C70.7464931,72.6048637 70.4154029,75.3193601 71.1924265,76.6055767 C72.9847121,76.0001697 73.8961265,74.4265486 75.3780914,73.4856544 C76.2198669,72.9512789 77.4587065,72.8081231 77.8692095,71.7918261 C76.921143,70.6793634 75.467278,71.2246669 74.2821949,71.1678417 C71.9279111,71.055284 69.9010524,69.7723457 67.803333,68.9396379 C65.943852,68.2009102 63.7386199,66.7026918 61.5248357,66.6218252 C60.2456789,66.5748351 58.025786,67.0196016 57.1388062,67.691669 C56.3349044,68.3003544 55.9085189,69.4936837 55.3452989,70.455341 C54.2151938,72.381934 52.9287066,73.9205858 51.9562054,76.0712012 C51.8083754,76.399039 51.0948821,78.9080904 50.1626981,78.7452643 C49.1950838,78.5769743 49.8047297,74.4943018 49.9635553,73.6637795 C50.2775412,72.0125702 50.9213957,70.3679176 51.3587769,69.2062793 C51.6177848,68.51782 52.2005525,68.0785175 52.0563877,67.3343259 C51.0496779,67.2742223 51.3221248,68.3156534 50.9604912,68.9396379 C50.6086315,69.5439521 49.8426035,69.8466556 49.5640478,70.455341 C49.2793835,71.0760471 49.3807876,71.7546712 49.1657622,72.3272944 C48.6343073,73.740275 47.5872803,74.3883009 46.2751366,75.1794826 C45.7974382,75.4679798 45.3124093,76.2023363 44.4816293,75.8930761 C43.7608055,74.8046548 44.6294593,73.7293471 45.0790578,72.5939358 C45.3930438,71.8038468 46.4388491,70.1023691 45.9770332,69.2958882 C45.6325039,68.6948524 44.4095469,68.8401938 43.6838362,68.6719038 C42.7785304,68.4620876 42.1077978,68.0424553 41.4920432,67.9583103 C40.2153299,67.7856491 38.3240838,67.8840004 37.3051566,68.2260445 C35.369928,68.876256 33.6106293,71.2192029 31.6240878,69.4740134 C31.8721001,68.7746263 32.7993971,68.7964821 33.3186346,68.4041696 C34.3204575,67.6490501 34.9801945,66.5245667 35.7107922,65.5519814 C34.3497791,64.6799331 31.9857215,64.9607807 29.9307628,65.1061221 C27.9759865,65.243814 26.0554187,65.8415714 24.3486546,65.9082318 C21.7988932,66.0076759 19.6657435,64.8722645 17.2723642,65.3738563 C16.7616788,66.4764838 16.8911828,67.9222482 16.5747534,69.3854972 C16.2937543,70.6881058 15.8783643,72.0497251 15.778182,73.2179202 C15.6682258,74.4910234 15.8172775,76.3739047 16.6749356,76.9629199 C17.2906902,77.3858305 18.4965429,77.3749026 19.3651966,77.5869043 C20.3401413,77.8240403 21.0206478,78.1114447 21.8575365,78.389014 C22.454965,77.893979 22.5074996,77.1760144 22.7542901,76.6055767 C23.0035241,76.0296751 23.363936,75.4657942 23.5520832,74.8232323 C23.8929473,73.6550372 24.0505512,70.8793445 25.1464477,70.6334662 C26.4891347,70.3318555 27.8367086,72.1994377 27.9368909,73.0397951 C28.0957165,74.3598883 27.825713,77.1082612 27.6375658,79.1911236 C27.5447139,80.2238124 27.3345755,80.6106609 27.2392801,81.8662794 C27.1586456,82.9295665 26.6064213,84.747973 27.8367086,84.4507335 C28.3400636,84.3294335 28.1714641,83.5459014 28.3351766,82.8465142 C28.5001109,82.1471271 29.2453694,81.2958418 29.7303982,80.2609674 C29.9796322,79.730963 30.0614885,78.8884201 30.3290485,78.6567481 C30.539187,78.4753446 31.3015497,78.3638797 31.7242701,78.2108888 C32.1213341,78.0666402 32.4854112,77.7388025 33.0205312,77.7650295 C35.3650411,77.8786799 35.1304679,81.031386 35.5116493,83.3808897 C35.9954565,83.8311202 36.8775493,83.5601077 37.5055212,83.916358 C38.3338577,84.3862587 38.8811951,86.1707888 39.1988462,87.1258893 C40.044287,89.6666317 41.0644359,91.7079679 41.6911861,94.2574527 C42.0222763,95.6059585 42.051598,96.9347941 42.5879397,98.0909685 C44.3264689,98.2559801 45.9648159,98.0407 47.6703582,98.0013595 C49.3905614,97.962019 51.0350171,98.3554242 52.6538162,98.3576098 C54.574384,98.3608882 56.1834093,97.835255 57.836417,97.377375 C59.4723205,96.9249589 61.12655,96.6834518 62.5217716,96.0397971 C62.446024,95.1699343 62.0000907,94.9863452 61.9231214,94.2574527 C61.767961,92.7865541 62.8333141,91.5342139 63.2193824,90.1562027 C63.7984849,88.0853611 64.1796663,85.4582881 66.0098257,85.1643269 C67.8717502,84.8649018 69.1301374,86.5838643 69.6970226,87.5706559 C69.9242653,87.9662467 70.3420988,89.5999714 70.6939585,89.6218272 C71.3268174,89.6611677 72.1246105,86.0494888 72.288323,85.5205773 C72.7134868,84.1502156 73.0738987,82.4443666 73.7837269,81.4204201 C76.7281088,81.610566 76.0231676,84.6714776 75.8765593,87.3040145 C75.8118074,88.4733024 75.4428433,89.6404047 75.2779091,90.7801872 C75.1093096,91.9571246 75.3487697,93.1799593 75.4782737,94.5251868 C75.5992254,95.79829 75.5308083,97.1358679 75.8765593,98.1794846 C76.8466171,101.112539 80.9956299,103.18666 79.6639385,107.184094 C79.3511743,108.12171 78.5338334,108.96316 78.0695741,109.947766 C77.8056793,110.506183 77.70061,111.228519 77.4709238,111.908236 C77.2449028,112.581396 76.8001912,113.196638 76.773313,113.691673 C76.7415479,114.283967 77.1911464,115.003024 77.271781,115.741752 C77.4196109,117.102278 76.8857126,118.673714 77.0726381,119.843002 C77.2045855,120.666967 77.8753182,121.434107 77.9693918,122.24933 C78.0659089,123.084224 77.622419,123.864478 77.8692095,124.656752 C80.5851269,125.337562 83.7457559,125.410779 87.2386969,125.636987 C88.7195622,125.733153 90.4605349,125.84571 92.2222771,125.904721 C93.8360671,125.958268 95.889804,126.30359 97.205735,125.904721 C97.8384717,125.71239 98.2845272,124.604298 98.9991202,124.478627 C100.379681,124.234934 101.000322,125.365974 102.288031,125.102611 C102.834147,124.005448 101.806668,122.911563 101.391278,121.803471 C100.556833,119.580731 100.171986,117.319744 99.7970354,114.404174 C99.6540924,113.301546 99.1945978,111.060229 100.394342,110.928001 C102.208619,110.72802 101.688159,114.266482 102.886804,114.939642 C103.690706,114.315657 103.305737,113.143091 103.284967,112.17597 C103.261754,111.153116 103.240985,110.113871 103.184785,109.056048 C102.99786,105.548184 103.115146,102.066547 101.291095,100.319172 C99.4610583,100.732248 97.9606452,101.337655 95.6100267,101.478625 C92.1917337,101.682977 88.1073507,101.315799 85.1459866,100.230656 C83.7750776,99.7279715 82.7280505,99.2504212 81.258303,98.3576098 C80.2051672,97.7183262 78.3908904,96.5730798 78.6670026,95.5950306 C79.1153794,94.0061104 83.1519926,95.5469477 84.3480714,95.8616719 C86.5239818,96.4342952 87.5771176,97.5150669 89.6309767,98.0909685 C93.5245246,99.1826681 97.4780598,97.7369037 99.7970354,96.219015 C98.9368117,95.0377064 99.3118844,93.0848864 99.0994246,90.7801872 C98.9661333,89.3442579 98.6130518,87.9618755 98.7999773,86.9466714 C98.9099335,86.3467283 99.4584926,85.5435259 99.7970354,84.7184676 C101.445034,80.6915276 103.876287,85.5894232 104.979514,87.1258893 C105.526851,87.8886584 105.845724,88.6230149 106.274553,89.5322182 C106.685056,90.4009882 107.383889,91.2369744 107.470632,92.0281561 C107.542715,92.6860172 107.369228,93.4629926 107.371794,94.1678437 C107.374115,94.955747 107.231172,95.6605981 107.171307,96.3971402 C106.840217,100.543195 108.462681,104.858632 108.367386,109.144564 C108.268425,113.625013 106.516579,117.684737 107.769957,121.625346 C108.951375,120.744555 109.591565,119.363266 110.261075,118.059564 C111.518241,115.611709 112.165761,112.615272 110.859726,109.680032 C110.6166,109.135821 108.114609,106.514212 110.261075,106.11425 C111.08086,105.961259 112.380908,106.89669 112.852376,107.450736 C113.695373,108.439713 114.17918,110.12917 114.746065,112.086361 C115.485215,114.635846 116.278121,116.642213 115.942144,119.575267 C115.78454,120.948907 115.127247,122.478817 114.647105,123.943159 C114.186511,125.345211 113.139484,126.566953 112.653233,127.9548 C112.164539,129.351388 112.323365,130.998227 111.756479,132.501909 C111.240907,133.866807 110.412571,135.191271 110.061933,136.335425 C109.849351,137.030441 109.907994,137.898118 109.762607,138.653237 C109.616121,139.42147 109.146853,140.112115 109.165179,140.613707 C109.201831,141.627818 110.268406,142.930427 110.859726,143.109645 C111.885983,143.423276 114.562805,142.73591 116.042327,142.753395 C118.527336,142.7829 120.592068,143.77297 122.519967,143.733629 C123.179704,142.835354 123.160156,141.408167 123.516903,139.989723 C123.843106,138.693671 124.480974,137.397619 124.612921,136.335425 C124.725321,135.442613 124.397774,134.490791 124.813164,133.928003 C125.143032,133.478865 125.883404,133.663547 126.606671,133.392535 C127.219982,133.164141 127.327495,132.359846 128.001893,132.323784 C128.259679,132.309577 129.183311,132.888757 129.298154,133.304019 C129.509514,134.076623 128.792477,135.037187 128.699503,135.799956 C128.550452,137.023884 128.808238,138.340699 128.699503,139.543863 C128.607873,140.56781 128.269453,141.533838 128.001893,142.397144 C127.698902,143.374101 127.077161,144.240685 127.004957,144.982691 C126.934218,145.720326 127.403242,147.52999 127.603607,148.102613 C128.555339,150.818203 131.348348,152.469412 132.18768,155.680036 C132.441678,156.64825 132.27931,157.51702 132.387922,158.621833" id="Fill-14"></path>
                        </g>
                    </g>
                </g>
            </g>
        </g>
    </g>
</svg>