<?xml version="1.0" encoding="utf-8"?>
<!-- Generated by IcoMoon.io -->
<!DOCTYPE svg PUBLIC "-//W3C//DTD SVG 1.1//EN" "http://www.w3.org/Graphics/SVG/1.1/DTD/svg11.dtd">
<svg version="1.1" xmlns="http://www.w3.org/2000/svg" xmlns:xlink="http://www.w3.org/1999/xlink" width="32" height="32" viewBox="0 0 32 32">
<path d="M25.75 20.361c-6.556 0-13.032 0-19.549 0-0.011-0.212-0.029-0.398-0.029-0.584-0.002-3.561-0.002-7.122-0-10.683 0.001-1.269 0.643-1.941 1.91-1.943 5.255-0.008 10.509-0.008 15.764 0 1.273 0.002 1.905 0.666 1.905 1.936-0.001 3.522-0 7.045-0 10.567 0 0.225 0 0.449 0 0.707zM7.726 8.708c0 3.457 0 6.872 0 10.288 5.526 0 11.002 0 16.486 0 0-3.46 0-6.861 0-10.288-5.521 0-10.999 0-16.486 0zM29.804 21.791c0 0.398 0.083 0.821-0.029 1.185-0.077 0.251-0.4 0.554-0.655 0.601-0.866 0.16-1.751 0.298-2.629 0.3-7.009 0.024-14.019 0.020-21.028 0.007-0.748-0.001-1.501-0.079-2.241-0.189-0.954-0.142-1.084-0.331-1.084-1.276 0-0.191 0-0.382 0-0.629 9.222 0 18.41 0 27.667 0z" fill="rgb(68, 68, 68)"></path>
</svg>
