<?xml version="1.0" encoding="utf-8"?>
<!-- Generated by IcoMoon.io -->
<!DOCTYPE svg PUBLIC "-//W3C//DTD SVG 1.1//EN" "http://www.w3.org/Graphics/SVG/1.1/DTD/svg11.dtd">
<svg version="1.1" xmlns="http://www.w3.org/2000/svg" xmlns:xlink="http://www.w3.org/1999/xlink" width="32" height="32" viewBox="0 0 32 32">
<path d="M5.080 7.009c0 0.693 0.24 1.272 0.719 1.737s1.103 0.698 1.872 0.698h0.029c0.797 0 1.438-0.232 1.922-0.698s0.726-1.044 0.726-1.737c-0.009-0.712-0.252-1.296-0.726-1.751s-1.106-0.683-1.894-0.683c-0.788 0-1.426 0.23-1.915 0.691s-0.733 1.042-0.733 1.744zM5.351 25.475h4.698v-14.11h-4.698v14.11zM12.64 25.475h4.684v-7.873c0-0.513 0.052-0.897 0.157-1.153 0.19-0.475 0.489-0.878 0.897-1.21s0.911-0.498 1.509-0.498c0.55 0 1.006 0.138 1.367 0.413s0.619 0.643 0.776 1.103c0.157 0.46 0.235 1.018 0.235 1.673v7.546h4.684v-8.087c0-1.063-0.135-2.003-0.406-2.819s-0.65-1.478-1.139-1.986c-0.489-0.508-1.058-0.892-1.709-1.153s-1.364-0.392-2.143-0.392c-0.342 0-0.669 0.026-0.982 0.078s-0.591 0.123-0.833 0.214c-0.242 0.090-0.475 0.199-0.698 0.327s-0.413 0.256-0.57 0.384c-0.157 0.128-0.311 0.275-0.463 0.441s-0.278 0.316-0.377 0.448c-0.1 0.133-0.202 0.28-0.306 0.441v-2.008h-4.684c0.009 0.247 0.017 0.902 0.021 1.965s0.007 2.261 0.007 3.595c0 1.334-0.002 2.651-0.007 3.951s-0.012 2.392-0.021 3.275v1.324z" fill="rgb(68, 68, 68)"></path>
</svg>
