<?xml version="1.0" encoding="UTF-8" standalone="no"?>
<svg width="77px" height="54px" viewBox="0 0 77 54" version="1.1" xmlns="http://www.w3.org/2000/svg" xmlns:xlink="http://www.w3.org/1999/xlink" xmlns:sketch="http://www.bohemiancoding.com/sketch/ns">
    <!-- Generator: Sketch 3.2.2 (9983) - http://www.bohemiancoding.com/sketch -->
    <title>logo</title>
    <desc>Created with Sketch.</desc>
    <defs></defs>
    <g id="Blank-Project" stroke="none" stroke-width="1" fill="none" fill-rule="evenodd" sketch:type="MSPage">
        <g id="Portada-Web-2" sketch:type="MSArtboardGroup" transform="translate(-561.000000, -17.000000)">
            <g id="HEADER-2" sketch:type="MSLayerGroup">
                <g id="logo" transform="translate(561.000000, 17.000000)" sketch:type="MSShapeGroup">
                    <g id="Fruta" transform="translate(0.289232, 0.000000)">
                        <path d="M52.5564649,10.6419022 L48.0910032,4.96302823 C48.0910032,4.96302823 43.6579726,5.93580913 37.0509399,14.5769985 C30.4439073,23.2181878 33.1402494,33.8779778 31.1259697,39.1840236 C29.1116901,44.4900693 25.7182705,45.5357006 25.2670656,46.2821035 C24.8158607,47.0285063 23.3950541,48.0450716 25.0373341,48.920407 C26.6796141,49.7957425 32.6424984,47.3888502 34.1721644,43.2864365 C35.7018304,39.1840229 36.2701537,33.7367466 38.2341327,26.3070156 C40.1981117,18.8772845 46.3873497,13.2265452 48.7942744,11.6171055 C51.201199,10.0076658 52.5564649,10.6419022 52.5564649,10.6419022 Z" id="Path" fill="#317549"></path>
                        <path d="M26.5959049,53.8035052 C26.5959049,53.8035052 30.0142877,47.8208519 38.1118724,43.4636291 C41.2580497,41.7707051 42.5161866,40.8367667 46.2219567,40.4282351 C49.4091426,40.0768732 60.1583282,44.7833384 65.8826959,35.6713526 C67.7979206,32.6227188 68.4025325,30.0108518 69.2047936,24.4777922 C70.0070547,18.9447327 67.1273541,12.8402683 65.2671488,10.8259125 C62.5292907,7.86117477 59.4171042,5.30790816 56.0071679,5.30790816 C52.5972317,5.30790816 53.3732372,6.11665014 51.0675652,6.63972974 C49.4719818,7.00171407 44.5848953,6.9341169 38.1118724,5.30790834 C31.6388495,3.68169978 31.2888841,3.03889259 26.5959047,4.30401131 C21.9029253,5.56913002 17.9036454,9.37752862 17.9036454,9.37752862 C17.9036454,9.37752862 13.5113442,15.7910653 10.4107196,19.1970111 C7.31009507,22.602957 4.41086128,29.2632218 10.4231071,38.4834571 C16.8238694,46.7790591 21.7165876,45.9138941 24.1536556,44.3569605 C24.4088373,45.5317908 25.61932,47.2530594 25.61932,47.2530594 C25.61932,47.2530594 21.1559227,51.0180056 14.6663831,49.9436812 C8.17684354,48.8693569 2.54316624,39.9743956 1.30629494,36.4234936 C0.0694236472,32.8725915 -1.08966958,24.9320054 4.44896186,18.1454161 C9.9875933,11.3588269 16.1979644,6.48534452 19.1328972,4.67955958 C21.2493168,3.45889703 21.9261625,2.58091597 24.5722404,1.76743897 C27.2183183,0.953961972 28.954254,0.19153705 33.251811,0.19153705 C37.549368,0.19153705 39.3155988,2.58091609 43.1767385,2.58091589 C47.0378781,2.5809157 46.658671,0.988245149 57.7702449,2.21609958 C68.8818189,3.44395402 76.4574054,14.6901331 76.457401,22.9081502 C76.4573965,31.1261674 75.8530417,38.7953604 68.0050083,46.3573771 C60.1569749,53.9193939 53.2451358,47.6511899 51.5108869,47.0042832 C49.776638,46.3573765 47.7289506,43.5111387 41.2975948,47.0083822 C34.8662391,50.5056258 34.0092501,51.2896624 32.1623891,52.0032721 C30.3155282,52.7168819 26.5959049,53.8035052 26.5959049,53.8035052 Z M63.0282432,44.3492108 C63.0282432,44.3492108 66.8105547,43.8431629 69.213351,38.8110092 C71.6161473,33.7788555 71.7205025,30.3106784 71.7205025,30.3106784 C71.7205025,30.3106784 68.565448,35.18595 67.2448673,38.130938 C65.9242867,41.0759261 63.0282432,44.3492108 63.0282432,44.3492108 Z M5.20290913,24.0739599 C5.20290913,24.0739599 0.4742688,28.9028376 5.6143237,35.4617052 C4.92822611,30.8326367 5.20290911,31.3873334 5.20290911,29.5723818 C5.20290911,27.7574302 4.9171524,25.9497453 5.20290913,24.0739599 Z" id="Path-6" fill="#F1730A"></path>
                        <path d="M25.9896688,26.5559403 C25.9896688,26.5559403 38.3756503,22.55265 42.1410698,22.55265 C45.9064893,22.55265 53.4955126,23.3571835 54.7447708,22.6812114 C55.9940289,22.0052393 53.6745677,25.2449868 48.1336086,26.3111146 C42.5926495,27.3772425 42.136941,26.4150817 39.9514883,26.4150817 C37.7660357,26.4150817 33.1691537,26.0707607 29.8177764,28.2652479 C26.4663992,30.4597351 27.3185079,29.6175646 26.1360663,28.4061065 C24.9536248,27.1946484 25.9896688,26.5559403 25.9896688,26.5559403 Z" id="Path-5" fill="#317549"></path>
                    </g>
                </g>
            </g>
        </g>
    </g>
</svg>