<?xml version="1.0" encoding="UTF-8" standalone="no"?>
<svg xmlns:sketch="http://www.bohemiancoding.com/sketch/ns" xmlns="http://www.w3.org/2000/svg" height="141px" width="130px" version="1.1" xmlns:xlink="http://www.w3.org/1999/xlink" viewBox="0 0 130 141"><!-- Generator: Sketch 3.2.2 (9983) - http://www.bohemiancoding.com/sketch -->
 <title>logo</title>
 <desc>Created with Sketch.</desc>
 <g id="Blank-Project" fill-rule="evenodd" sketch:type="MSPage" fill="none">
  <g id="Producto-SuperShake-9" transform="translate(-466 -1102)" sketch:type="MSArtboardGroup">
   <g id="logo" transform="translate(470 1120)" sketch:type="MSLayerGroup">
    <g id="completo" sketch:type="MSShapeGroup" transform="translate(0 69)">
     <g id="energyfruits" fill="#317549" transform="translate(24.288 30.008)">
      <g id="energy" transform="translate(0 1.7147)">
       <path id="Path-879" d="m7.0434 0.026637s-1.2208 0.23962-2.5005 0.60571c-1.2796 0.3661-2.9164 6.5248-3.2912 7.6702-0.37472 1.1454-1.3466 4.1374-1.2148 4.5614 0.13189 0.424 0.70035 0.65 1.7834 0.138 1.083-0.513 2.3785-1.425 2.5506-1.702 0.172-0.277 0.1113-0.717-0.369-0.61-0.4802 0.108-1.6387 0.571-1.6387 0.571l-0.6187 0.277 1.5188-3.7547s3.2764-1.5171 3.9004-1.8195c0.6239-0.3023 0.6432-0.6643 0.0883-0.5176-0.4543 0.105-3.5156 0.8879-3.5156 0.8879l1.1147-3.7355s0.0814-0.4083 0.6745-0.552c0.5932-0.1436 2.2584-0.7726 2.2584-0.7726s0.1672-0.54649-0.2017-0.89693c-0.3688-0.35043-0.5389-0.35043-0.5389-0.35043z"/>
       <path id="Path-877" d="m14.415 6.9717s0.242-2.0045 1.217-2.9034c0.975-0.8988 1.492-0.8222 2.124-0.6988 0.631 0.1233 1.326 1.3821 0.805 2.0723-0.52 0.6902-2.488 1.2154-2.488 1.2154s-0.603 1.29-0.151 1.5841c0.453 0.2941 1.039-0.2563 1.941-0.5494s1.151-0.5135 1.151-0.5135-0.405 1.458-1.22 1.7501c-0.814 0.2922-1.001 0.6163-2.341 0.2223-1.339-0.3941-1.038-2.1791-1.038-2.1791zm1.922-1.1038s0.845-0.4018 1.337-0.6114c0.492-0.2097 0.58-0.9474 0.075-1.1086-0.505-0.1611-0.874 0.2397-1.196 0.8212s-0.216 0.8988-0.216 0.8988z"/>
       <path id="Path-875" d="m28.838 2.5375s-2.663-0.7591-3.997 2.1889 0.573 3.8565 0.79 3.8565c0.216 0 1.4-0.3457 1.91-1.4891 0.511-1.1434-1.22 3.3142-1.91 5.6842s-1.044 3.903-2.134 4.019c-0.474 0.05-1.44-0.468-1.793-1.103-0.356-0.64-0.094-1.322-0.185-1.991-0.55 1.999 0.265 3.602 2.44 4.072 1.638 0.056 2.398-1.483 3.413-5.214 1.015-3.7311 3.056-8.9893 2.859-9.3824s-1.056-0.9359-1.225-0.9359c-0.168 0-0.168 0.2948-0.168 0.2948zm-0.213 0.8855s-1.845 0.2941-2.331 1.8384c-0.486 1.5444-0.315 2.0792-0.026 2.2559s1.246-1.0133 1.672-2.3965c0.426-1.3833 0.685-1.6978 0.685-1.6978z"/>
       <path id="Path-874" d="m31.765 1.7079l1.414 1.0765s-0.742 2.184-0.742 4.0224 2.012-3.0177 2.012-3.0177l0.596-1.8502 1.208 0.9852s-1.257 6.4093-2.166 8.9789c-0.522 1.477-2.444 1.982-4.371 1.89-0.942-0.004-3.045-0.391-4.41-1.175-2.828-1.085-3.898 0.986-3.613 0.66s0.396-1.748 4.173-1.075 5.558 0.886 6.528-0.91c0.969-1.7953 1.693-5.975 1.693-5.975s-1.184 2.3889-1.693 2.6054c-0.51 0.2164-1.359 0.1338-1.359-1.1746s0.239-2.6021 0.389-3.4611c0.149-0.859 0.341-1.5798 0.341-1.5798z"/>
      </g>
      <g id="fruits" transform="translate(6.1825)">
       <g id="F" transform="translate(31.099 .16953)">
        <path id="Path-9" d="m1.4578 6.497s3.9221-1.199 5.1145-1.199 3.9637 0.2741 4.3587 0.0717c0.396-0.2025-0.707 0.7347-2.4611 1.054-1.7546 0.3193-1.8989 0.0311-2.5909 0.0311-0.6921 0-2.1477-0.1031-3.209 0.5541-1.0612 0.6573-0.7914 0.405-1.1658 0.0422-0.3745-0.3628-0.0464-0.5541-0.0464-0.5541z"/>
        <path id="Path" d="m10.668 1.7309l-1.4749-1.7008c0-0.000011-1.464 0.29133-3.646 2.8793-2.1819 2.588-0.9132 4.9005-1.9567 7.3696-1.0435 2.469-2.218 2.544-3.261 3.123 1.6558 0.025 3.7619-0.666 4.267-1.894 0.5052-1.229 0.6929-2.8604 1.3415-5.0855 0.6486-2.2252 2.6926-3.9176 3.4875-4.3996 0.7946-0.482 1.2426-0.292 1.2426-0.292z"/>
       </g>
       <path id="Path-872" d="m40.844 5.6076c2.028 0.0792 2.642-1.107 2.642-1.107s1.309 0.2316 1.309 0.5858c0 0.3543-0.212 1.3784-0.212 1.3784s0.549-0.8159 1.049-1.2867c0.499-0.4708 1.186-0.8915 1.186-0.8915l1.218 1.0008s-0.512 1.5599-0.865 1.5599-0.96-0.9552-0.96-0.9552l0.389-0.8978s-1.395 0.5797-2.064 2.1028c-0.439 1.7147-0.347 2.8466-0.46 3.1369-0.4 0.16-1.32 0.098-1.535 0.007-0.168-0.071 0.023-1.4673 0.054-1.7523 0.142-1.3124 0.63-3.0587 0.63-3.0587s-3.138 1.2913-4.149 1.102c-0.567-0.1062 0.691-0.6292 1.768-0.9244z"/>
       <path id="Path-873" d="m13.067 5.4873c0.732 0.1051 1.273-0.9867 1.273-0.9867s1.309 0.2316 1.309 0.5858c0 0.3543-0.212 1.3784-0.212 1.3784s0.549-0.8159 1.049-1.2867c0.499-0.4708 1.186-0.8915 1.186-0.8915l1.218 1.0008s-0.512 1.5599-0.865 1.5599-0.96-0.9552-0.96-0.9552l0.389-0.8978s-1.395 0.5797-2.064 2.1028c-0.439 1.7147-0.347 2.8466-0.46 3.1369-0.4 0.16-1.32 0.098-1.535 0.007-0.168-0.071 0.023-1.4673 0.054-1.7523 0.142-1.3124 0.63-3.0587 0.63-3.0587s-0.801 0.2814-1.012 0.0573z"/>
       <path id="Path-871" d="m48.374 5.0728s0.382-0.3553 1.153-0.1776c0.771 0.1776 0.906 0.6067 0.906 0.6067s0.016 0.0873-0.185 1.5433-0.453 2.3937-0.453 3.1858c0 0.792 2.017-2.2733 2.017-2.2733l0.604-3.0217 1.246 0.7386s-0.785 3.5536-0.785 4.1399c0 0.5865 1.278-1.321 1.278-1.321s-0.197 1.7305-1.338 2.3275-1.165-0.239-1.165-0.492 0.054-1.2143 0.054-1.2143-1.195 1.4843-1.895 1.8313c-0.699 0.348-1.137 0.065-1.424-0.165s0.171-2.6749 0.171-2.6749 0.605-2.513 0.449-2.679c-0.157-0.166-0.633-0.3543-0.633-0.3543z"/>
       <path id="Path-876" d="m7.2631 12.158s-0.3817 0.368-1.1528 0.184-0.9059-0.628-0.9059-0.628-0.0158-0.09 0.1849-1.598c0.2007-1.5085 0.4535-2.4796 0.4535-3.3s-2.0175 2.3545-2.0175 2.3545l-0.6039 3.1295-1.2463-0.765s0.7849-3.6804 0.7849-4.2877c0-0.3091-0.4703 0.0966-0.9873 0.441-0.4988 0.3322-1.0448 0.5984-1.0448 0.5984l-0.40315-0.0559s0.0293-0.1696 0.2016-0.3487c0.34168-0.0464 0.76445-0.4443 1.1924-0.7847 0.4577-0.3642 0.8807-0.7732 1.1013-0.8927 1.141-0.6182 1.1655 0.2474 1.1655 0.5098s-0.0541 1.2577-0.0541 1.2577 1.1951-1.5371 1.8945-1.8971c0.6993-0.36 1.1371-0.0673 1.4243 0.1709 0.2873 0.2382-0.1712 2.7707-0.1712 2.7707s-0.6049 2.6033-0.4485 2.7743c0.1564 0.172 0.6325 0.367 0.6325 0.367z"/>
       <path id="Path-870" d="m54.869 5.631s0.336-0.6523 0.696-0.6523c0.359 0 1.134 0.9193 1.134 0.9193s-0.992 4.004-0.868 4.643c0.125 0.638 1.211-0.7438 1.211-0.7438s-0.214 0.9468-0.846 1.3558c-0.631 0.409-1.272 0.263-1.505 0.028s-0.437-1.167-0.035-2.6331c0.401-1.4658 0.653-2.8441 0.653-2.8441l-0.44-0.0728zm1.452-3.3721l1.028 0.8775s-0.449 0.4882-1.108 0.4882-0.846-0.0825-0.846-0.0825l0.926-1.2832z"/>
       <path id="Path-869" d="m58.968 5.2932c0.188 0 1.351 0.4631 1.351 0.4631l-0.141 0.5047 1.822 0.2019 0.102 0.5154-2.059 0.0068s-0.677 3.2459-0.505 4.3179c0.171 1.071 1.782-1.5438 1.782-1.3593 0 0.1843-0.403 1.3843-1.093 1.7923-0.689 0.407-0.682 0.434-1.647 0.107-0.965-0.326-0.322-2.2536-0.322-2.2536l0.408-2.5344-1.318-0.0155 0.064-0.8203 1.341 0.0864s0.027-1.0124 0.215-1.0124z"/>
       <path id="Path-868" d="m61.749 9.1683s1.092-1.6367 1.784-2.2597c0.693-0.623 0.718-0.9125 1.093-0.9125 0.376 0 0.895 0.4814 0.996 0.697 0.1 0.2155-0.378 1.0938-0.687 1.4491-0.309 0.3554-0.83 1.0813-0.299 2.1878 0.531 1.107 1.131 1.349 1.131 1.83 0 0.48-0.06 0.856-0.937 1.058-0.878 0.202-1.521 0.464-2.38 0.046-0.858-0.419-1.225-1.436-1.225-1.436s0.758 0.773 1.616 0.866c0.858 0.094 1.3-0.332 1.3-0.332s-1.993-2.6079-1.3-3.9757c-0.391 0.1592-1.092 0.782-1.092 0.782z"/>
      </g>
     </g>
     <g id="superfoods" fill="#317549" transform="translate(0 10.288)">
      <path id="Path-12" d="m120.88 7.0851l-1.98-2.4972s-1.97 0.4278-4.9 4.2276c-2.92 3.7995-1.73 8.4875-2.62 10.82-0.9 2.333-2.4 2.793-2.6 3.121-0.2 0.329-0.83 0.776-0.1 1.161s3.37-0.674 4.05-2.478 0.93-4.199 1.8-7.466 3.61-5.7523 4.68-6.46c1.07-0.7078 1.67-0.4289 1.67-0.4289z"/>
      <path id="Path-13" d="m12.684 3.1757l-1.979-2.4972c0-0.00001-1.9655 0.4278-4.8944 4.2276-2.9289 3.7999-1.7336 8.4869-2.6265 10.821-0.893 2.333-2.3973 2.793-2.5973 3.121-0.19999 0.328-0.82983 0.775-0.10181 1.16 0.72801 0.385 3.3713-0.673 4.0494-2.477s0.9301-4.2 1.8007-7.467c0.8706-3.2669 3.6143-5.7517 4.6809-6.4595 1.067-0.7077 1.668-0.4288 1.668-0.4288z"/>
      <path id="Path-25" d="m96.193 1.0574s-4.176 9.2836-2.345 13.686c1.831 4.402 4.763-0.477 5.993-1.623 1.229-1.145 2.729-5.5978 2.729-8.0437 0-2.4458-0.48-3.4778-1.56-3.9399-1.066-0.4621-2.16-0.079-2.16-0.079s2.14 1.2801 0.991 5.2249c-1.155 3.9447-1.23 3.9007-2.945 6.1847-1.715 2.283-1.823 0.866-1.823 0 0-0.867 0.742-4.8353 1.823-7.3907 1.081-2.5553 2.304-3.9415 1.715-4.4632-0.588-0.52165-2.418 0.4443-2.418 0.4443z"/>
      <path id="Path-27" d="m87.415 0.77332s-3.62 8.0478-2.033 11.864c1.588 3.816 4.129-0.414 5.195-1.407s2.365-4.8527 2.365-6.9728c0-2.1202-0.419-3.0149-1.347-3.4154-0.929-0.40059-1.877-0.06848-1.877-0.06848s1.859 1.1097 0.859 4.5292c-1.001 3.4195-1.066 3.3817-2.553 5.3605-1.487 1.98-1.58 0.751-1.58 0 0-0.7506 0.643-4.1907 1.58-6.4058 0.937-2.2152 1.997-3.4168 1.487-3.869-0.51-0.45224-2.096 0.38512-2.096 0.38512z"/>
      <path id="Path-26" d="m105.17 1.5361s-0.95 9.1199-4.56 15.687c-1.016 1.806-1.053 1.953-1.233 2.357 0.325 0.175 0.963-0.001 1.713-0.219 0.5-0.147 1.1-0.376 1.71-0.376 4.6 0 6.52-4.132 7.39-5.423 0.99-1.473 1.11-3.393 1.11-5.9565 0-2.5637-0.95-4.5166-2.08-5.001-1.12-0.4843-2.27-0.0827-2.27-0.0827s1.88 1.9539 1.88 6.0191c0 4.0651-3.43 8.6821-6.46 8.6821 1.74-2.966 3.02-3.331 4.33-6.567 1.32-3.2368 0.62-8.0531 0-8.6-0.61-0.5468-1.53-0.5199-1.53-0.5199z"/>
      <path id="Path-501" d="m12.82 3.4458s-2.251 2.9929-2.9784 8.4602c-0.7272 5.468-0.0101 7.25 0.8814 7.909 0.892 0.66 4.267 1.416 5.929-2.512 1.663-3.928 1.496-7.5939 2.232-9.5535 0.736-1.9597 1.476-2.6556 2.351-3.3284s1.124 0.5218 2.8-1.6226c-0.154-0.2756-3.425-0.3985-4.769 0.6979-1.345 1.0963-2.69 2.6972-3.203 6.5746-0.513 3.877-1.006 6.174-2.115 7.33s-1.991 1.206-2.068-0.243 0.15-4.876 0.83-7.5815c0.68-2.706 1.58-4.0042 1.817-4.2683-0.588-0.6258-1.707-1.8624-1.707-1.8624z"/>
      <path id="Path-507" d="m22.458 2.6504s2.197-0.296 3.703 1.098c1.507 1.3941 1.48 3.2651 1.285 4.3421-0.194 1.0769-1.552 3.2265-2.158 3.7725-0.607 0.546-1.408 1.201-2.261 1.514-0.854 0.313-1.337 0.171-1.337 0.171s-0.204 1.711-0.751 3.597c-0.547 1.885-1.486 3.137-1.777 3.152-0.292 0.015-0.926-0.054-0.596-1.883 0.988-2.518 1.296-6.972 2.097-9.9375 0.802-2.9655 1.795-5.8261 1.795-5.8261zm1.818 2.011s1.15 0.2323 1.166 1.8915c-0.154 1.364-0.845 2.6928-1.263 3.4453-0.412 0.9078-2.067 1.3118-2.11 1.3018-0.042-0.01 0.823-3.4606 1.101-4.25 0.277-0.7894 1.106-2.3886 1.106-2.3886z"/>
      <path id="Path-503" d="m30.632 1.569s-1.739 4.7774-2.548 8.436c-0.809 3.659-1.42 6.434-1.688 7.133-0.269 0.698-0.027 1.028 0.291 1.028s2.434-1.07 3.342-1.7c0.907-0.631 2.648-0.744 2.973-1.658s0.008-1.477-0.438-1.477-0.798 0.468-1.365 0.686c-0.567 0.217-2.341 0.636-2.529 0.789-0.189 0.154 0.274-0.3 0.735-2.14 0.462-1.841 0.597-2.29 0.597-2.29s1.829 0.098 2.322-0.055c0.492-0.154 0.956-0.6973 1.089-1.0375 0.132-0.3402-0.173-0.6915-0.89-0.5601-0.716 0.1315-2.04-0.2543-2.04-0.2543s1.281-4.313 1.66-4.6047c0.38-0.2917 0.883-0.2807 1.782-0.5766 0.899-0.296 1.923-0.6237 1.445-1.2487-0.478-0.6249-0.287-0.5792-2.229-0.712s-2.509 0.2419-2.509 0.2419z"/>
      <path id="Path-508" d="m37.402 0.27443s1.834-0.24712 3.092 0.91687c1.258 1.1639 1.235 2.7261 1.073 3.6253s-1.296 2.694-1.802 3.1497c-0.331 0.2974-0.731 0.6336-1.166 0.9041-0.153 0.0946 1.642 0.4652 1.222 1.6276-0.124 0.343-0.269 0.993-0.365 1.577 0.537-0.342 0.639-0.411 1.083-0.514 0.145 0.693 0.35 0.891 0.408 1.238-0.75 0.42-0.972 0.364-2.6 1.264-0.443-0.611-0.065-3.035-0.064-3.064 0.012-1.2428-1.63-0.879-1.63-0.879s-0.063 0.682-0.52 2.256c-0.456 1.575-1.24 2.62-1.483 2.632-0.244 0.013-0.773-0.045-0.498-1.572 0.825-2.102 1.082-5.821 1.751-8.2971 0.67-2.476 1.499-4.8645 1.499-4.8645v0.00003zm1.518 1.6791s0.96 0.194 0.973 1.5793c-0.129 1.1388-0.705 2.2483-1.054 2.8766-0.344 0.7582-1.678 1.02-1.764 1.1012s0.689-2.9037 0.921-3.5628c0.232-0.659 0.924-1.9943 0.924-1.9943z"/>
     </g>
     <g id="fruta" transform="translate(42.753)">
      <path id="silueta" fill="#F1730A" d="m14.481 29.078s1.861-3.234 6.27-5.588c1.713-0.915 2.398-1.42 4.416-1.641 1.735-0.19 7.588 2.354 10.705-2.571 1.043-1.647 1.372-3.059 1.809-6.049s-1.131-6.2896-2.144-7.3782c-1.491-1.6023-3.185-2.9822-5.042-2.9822s-1.434 0.4371-2.69 0.7198c-0.868 0.1956-3.529 0.1591-7.054-0.7198-3.524-0.8789-3.715-1.2263-6.27-0.5425-2.555 0.6837-4.7327 2.7419-4.7327 2.7419s-2.3916 3.4661-4.0798 5.307c-1.6883 1.841-3.2669 5.44 0.0067 10.423 3.4851 4.483 5.9728 4.191 7.2998 3.35 0.915-0.581 2.842-1.264 3.759-4.127 0.799-2.497 0.245 1.905-0.308 3.564-0.082 0.244-2.477 1.952-2.477 1.952s-2.43 2.035-5.9634 1.455c-3.5334-0.581-6.6009-5.388-7.2743-7.307-0.6735-1.919-1.3046-6.211 1.7111-9.8785 3.0157-3.6677 6.3971-6.3016 7.9956-7.2775 1.152-0.6597 1.52-1.1342 2.961-1.5738 1.441-0.43964 2.386-0.85169 4.726-0.85169s3.302 1.2913 5.404 1.2913 1.896-0.86071 7.946-0.1971c6.05 0.6636 10.175 6.7414 10.175 11.182 0 4.442-0.329 8.587-4.602 12.673-4.273 4.087-8.037 0.7-8.981 0.35s-2.059-1.888-5.561 0.002-3.969 2.314-4.974 2.7c-1.006 0.385-3.031 0.973-3.031 0.973zm19.837-5.11s2.059-0.273 3.368-2.993c1.308-2.72 1.365-4.594 1.365-4.594s-1.718 2.635-2.437 4.227c-0.719 1.591-2.296 3.36-2.296 3.36zm-31.485-10.957s-2.5747 2.609 0.224 6.154c-0.3736-2.502-0.224-2.202-0.224-3.183s-0.1556-1.958 0-2.971z"/>
      <path id="efe" fill="#317549" d="m16.414 13.661c0.282-2.089 0.893-4.2905 2.435-6.292 3.597-4.6701 6.011-5.1958 6.011-5.1958l2.431 3.0691s-0.738-0.3428-2.048 0.527c-1.203 0.7983-4.14 3.4361-5.442 6.9687 1.285-0.315 2.469-0.55 3.144-0.55 2.05 0 6.182 0.435 6.863 0.07 0.68-0.365-0.583 1.385-3.6 1.962-3.017 0.576-3.265 0.056-4.455 0.056-0.575 0-1.456-0.044-2.42 0.045-0.943 3.704-1.262 6.461-2.052 8.564-0.832 2.217-5.445 3.987-6.763 4.102 2.293-0.737 4.008-3.452 5.105-6.319 0.504-1.319 0.466-3.248 0.627-5.402-0.005 0.003-0.01 0.006-0.015 0.01-1.824 1.186-1.361 0.731-2.004 0.076-0.644-0.655-0.08-1-0.08-1s0.959-0.308 2.263-0.691z"/>
     </g>
    </g>
    <g id="reducido" sketch:type="MSShapeGroup" transform="translate(37)">
     <g id="fruta" transform="translate(.11603)">
      <path id="silueta" fill="#F1730A" d="m16.476 33.676s2.118-3.745 7.134-6.472c1.949-1.06 2.729-1.644 5.024-1.9 1.975-0.22 8.634 2.726 12.18-2.977 1.187-1.909 1.561-3.543 2.058-7.006 0.497-3.464-1.287-7.2843-2.439-8.5451-1.696-1.8556-3.624-3.4537-5.737-3.4537-2.112 0-1.631 0.5062-3.06 0.8336-0.988 0.2266-4.016 0.1842-8.026-0.8336s-4.227-1.4202-7.134-0.6283c-2.907 0.7918-5.385 3.1755-5.385 3.1755s-2.7207 4.0142-4.6416 6.1456c-1.9208 2.132-3.7169 6.301 0.0077 12.072 3.9649 5.192 6.7949 4.853 8.3049 3.879 1.042-0.672 3.234-1.463 4.277-4.78 0.909-2.891 0.279 2.207-0.35 4.129-0.093 0.282-2.818 2.261-2.818 2.261s-2.765 2.356-6.7852 1.684c-4.0203-0.673-7.5103-6.24-8.2766-8.463-0.76619-2.222-1.4842-7.192 1.9469-11.44 3.4312-4.2475 7.2789-7.2978 9.0969-8.4281 1.311-0.764 1.73-1.3135 3.369-1.8227 1.64-0.50912 2.715-0.98632 5.377-0.98632 2.663 0 3.757 1.4955 6.149 1.4955s2.157-0.99686 9.041-0.2283c6.883 0.7685 11.576 7.8074 11.576 12.951 0 5.144-0.374 9.944-5.236 14.677s-9.144 0.81-10.218 0.405-2.343-2.186-6.327 0.002c-3.984 2.189-4.515 2.68-5.659 3.127-1.145 0.446-3.449 1.127-3.449 1.127zm22.57-5.918s2.343-0.317 3.832-3.466c1.488-3.15 1.553-5.321 1.553-5.321s-1.955 3.052-2.773 4.895-2.612 3.892-2.612 3.892zm-35.823-12.69s-2.9294 3.022 0.2549 7.127c-0.4251-2.897-0.2549-2.55-0.2549-3.686s-0.177-2.267 0-3.441z"/>
      <path id="efe" fill="#317549" d="m18.675 15.821c0.321-2.419 1.016-4.969 2.771-7.2868 4.093-5.4085 6.839-6.0174 6.839-6.0174l2.766 3.5544s-0.839-0.3969-2.33 0.6104c-1.369 0.9245-4.711 3.9794-6.192 8.0704 1.462-0.365 2.809-0.636 3.577-0.636 2.333 0 7.034 0.503 7.808 0.08s-0.663 1.605-4.095 2.272c-3.433 0.667-3.715 0.065-5.069 0.065-0.654 0-1.657-0.05-2.753 0.053-1.073 4.29-1.436 7.482-2.335 9.917-0.947 2.568-6.196 4.618-7.695 4.751 2.609-0.854 4.56-3.997 5.808-7.318 0.574-1.527 0.531-3.762 0.714-6.256-0.005 0.004-0.011 0.007-0.017 0.011-2.076 1.374-1.548 0.847-2.281 0.088-0.732-0.758-0.09-1.158-0.09-1.158s1.09-0.356 2.574-0.8z"/>
     </g>
    </g>
   </g>
  </g>
 </g>
</svg>
