<?xml version="1.0" encoding="UTF-8" standalone="no"?>
<svg width="261px" height="248px" viewBox="0 0 261 248" version="1.1" xmlns="http://www.w3.org/2000/svg" xmlns:xlink="http://www.w3.org/1999/xlink" xmlns:sketch="http://www.bohemiancoding.com/sketch/ns">
    <!-- Generator: Sketch 3.2.2 (9983) - http://www.bohemiancoding.com/sketch -->
    <title>logo</title>
    <desc>Created with Sketch.</desc>
    <defs></defs>
    <g id="Blank-Project" stroke="none" stroke-width="1" fill="none" fill-rule="evenodd" sketch:type="MSPage">
        <g id="Producto-SuperShake-9" sketch:type="MSArtboardGroup" transform="translate(-401.000000, -1060.000000)">
            <g id="logo" sketch:type="MSLayerGroup" transform="translate(401.000000, 1060.000000)">
                <g id="completo" transform="translate(0.000000, 140.000000)" sketch:type="MSShapeGroup">
                    <g id="energyfruits" transform="translate(52.390511, 65.417291)" fill="#317549">
                        <g id="energy" transform="translate(0.000000, 3.738131)">
                            <path d="M15.1927844,0.058068155 C15.1927844,0.058068155 12.5594799,0.580436541 9.79920959,1.37852914 C7.03893926,2.17662174 3.50829431,15.6026223 2.69998252,18.099615 C1.89167073,20.5966077 -0.204792655,27.118297 0.0796415881,28.043095 C0.364075831,28.967893 1.59026924,29.460713 3.9263669,28.3435023 C6.26246455,27.2262915 9.05685876,25.2371392 9.42803434,24.6340431 C9.79920992,24.030947 9.66821753,23.0704044 8.63230476,23.3052164 C7.59639199,23.5400283 5.09746579,24.5494347 5.09746579,24.5494347 L3.76298878,25.1525308 L7.03893921,16.967574 C7.03893921,16.967574 14.1062906,13.6602975 15.4522124,13.0011508 C16.7981342,12.3420041 16.8395911,11.5529784 15.6427931,11.872741 C14.6627384,12.1015829 8.05943284,13.8083545 8.05943284,13.8083545 L10.4639634,5.66494148 C10.4639634,5.66494148 10.6395492,4.77484225 11.918931,4.46169622 C13.1983128,4.14855018 16.790344,2.77732417 16.790344,2.77732417 C16.790344,2.77732417 17.1508439,1.58596225 16.3553045,0.822015202 C15.5597652,0.058068155 15.1927844,0.058068155 15.1927844,0.058068155 Z" id="Path-879"></path>
                            <path d="M31.0944607,15.1982112 C31.0944607,15.1982112 31.6162412,10.8284265 33.7189957,8.86893467 C35.8217502,6.90944282 36.9377543,7.07656812 38.299874,7.3454136 C39.6619938,7.61425907 41.1598489,10.3584222 40.0375537,11.8631204 C38.9152586,13.3678185 34.6695246,14.5125982 34.6695246,14.5125982 C34.6695246,14.5125982 33.3691721,17.3248287 34.3450561,17.9659507 C35.32094,18.6070727 36.5854523,17.4073456 38.5311198,16.7683145 C40.4767873,16.1292833 41.0136283,15.6488221 41.0136283,15.6488221 C41.0136283,15.6488221 40.1393553,18.8272445 38.3826116,19.4641843 C36.6258679,20.1011242 36.2226652,20.8076515 33.3329506,19.9486386 C30.4432359,19.0896256 31.0944607,15.1982112 31.0944607,15.1982112 Z M35.2402995,12.7921013 C35.2402995,12.7921013 37.0628138,11.916167 38.123723,11.4590916 C39.1846323,11.0020163 39.3733655,9.39388684 38.2850041,9.04252443 C37.1966428,8.69116203 36.3990068,9.56500489 35.7050788,10.8326094 C35.0111507,12.1002139 35.2402995,12.7921013 35.2402995,12.7921013 Z" id="Path-877"></path>
                            <path d="M62.20506,5.53175235 C62.20506,5.53175235 56.4595645,3.87685064 53.5824321,10.3034744 C50.7052997,16.7300981 54.8193017,18.7106946 55.286178,18.7106945 C55.7530543,18.7106944 58.3055276,17.9572048 59.4066617,15.464585 C60.5077959,12.9719652 56.7750186,22.6893532 55.286178,27.8564085 C53.7973374,33.0234637 53.0358175,36.3653232 50.683806,36.6172143 C49.6601679,36.7268418 47.5775303,35.5975423 46.8155815,34.2135308 C46.0474692,32.8183237 46.6136424,31.3299282 46.4180157,29.8721328 C45.2298705,34.229609 46.9882647,37.7239243 51.6792379,38.7493542 C55.212718,38.8720233 56.8519005,35.5175296 59.0413963,27.3833378 C61.230892,19.2491459 65.6335218,7.78632776 65.2091584,6.92940659 C64.784795,6.07248542 62.9302527,4.88910902 62.5676565,4.88910899 C62.2050602,4.88910897 62.20506,5.53175235 62.20506,5.53175235 Z M61.7444748,7.46215414 C61.7444748,7.46215414 57.7641111,8.10327645 56.7159748,11.4699291 C55.6678384,14.8365817 56.0371073,16.0024661 56.6608799,16.3876718 C57.2846526,16.7728776 59.3490885,14.1787279 60.2677807,11.1632475 C61.1864728,8.14776714 61.7444748,7.46215414 61.7444748,7.46215414 Z" id="Path-875"></path>
                            <path d="M68.5178988,3.72322465 L71.5669882,6.0700137 C71.5669882,6.0700137 69.9671409,10.8310884 69.9671409,14.8388633 C69.9671409,18.8466383 74.3081946,8.26013466 74.3081946,8.26013466 L75.5938679,4.22688212 L78.1993389,6.37460384 C78.1993389,6.37460384 75.4876818,20.3467215 73.5273343,25.9493619 C72.4006311,29.169461 68.2553709,30.2698664 64.0989955,30.068915 C62.0665488,30.0591805 57.5290973,29.2155051 54.585852,27.5062512 C48.4847884,25.1423377 46.178262,29.6574599 46.7931235,28.9461506 C47.407985,28.2348414 47.6459179,25.1362232 55.7929819,26.6026104 C63.9400459,28.0689977 67.78184,28.5338042 69.8737275,24.6193415 C71.965615,20.7048788 73.5273349,11.5933242 73.5273349,11.5933242 C73.5273349,11.5933242 70.9727644,16.801017 69.8737275,17.2729226 C68.7746905,17.7448281 66.9435978,17.5647739 66.9435972,14.7124261 C66.9435967,11.8600783 67.4594677,9.0398626 67.7818394,7.16726069 C68.1042112,5.29465878 68.5178988,3.72322465 68.5178988,3.72322465 Z" id="Path-874"></path>
                        </g>
                        <g id="fruits" transform="translate(13.335766, 0.000000)">
                            <g id="F" transform="translate(67.080986, 0.369579)">
                                <path d="M3.14452164,14.1634634 C3.14452164,14.1634634 11.6046766,11.5497415 14.176619,11.5497415 C16.7485615,11.5497415 22.7256272,12.1472175 23.578924,11.7058798 C24.4322207,11.264542 22.0544912,13.3075505 18.2697792,14.0036183 C14.4850673,14.6996862 14.1737989,14.0714977 12.6810413,14.0714977 C11.1882837,14.0714977 8.04841674,13.8466928 5.75928282,15.2794591 C3.4701489,16.7122254 4.05217555,16.1623778 3.24451741,15.3714248 C2.43685927,14.5804717 3.14452164,14.1634634 3.14452164,14.1634634 Z" id="Path-9"></path>
                                <path d="M23.0108012,3.77329251 L19.8297969,0.0655929919 C19.8297969,0.0655929919 16.6718952,0.700715251 11.9653271,6.34249099 C7.25875907,11.9842667 9.99550074,17.0256143 7.74463125,22.408256 C5.49376176,27.7908977 2.96029241,27.9539143 0.710601573,29.216525 C4.28210247,29.2702537 8.82494158,27.7651334 9.91461033,25.0866944 C11.0042791,22.4082555 11.4091284,18.8517647 12.8081832,14.0009421 C14.207238,9.1501195 18.6161869,5.4607889 20.3307773,4.40999631 C22.0453677,3.35920372 23.0108012,3.77329251 23.0108012,3.77329251 Z" id="Path"></path>
                            </g>
                            <path d="M88.1015465,12.2245597 C92.4754844,12.3973319 93.8000819,9.81121969 93.8000819,9.81121969 C93.8000819,9.81121969 96.6245067,10.3161371 96.6245067,11.0884499 C96.6245067,11.8607627 96.1662091,14.0932829 96.1662091,14.0932829 C96.1662091,14.0932829 97.3512393,12.3146438 98.4287228,11.2883158 C99.5062062,10.2619878 100.986912,9.34475694 100.986912,9.34475694 L103.615641,11.5265121 C103.615641,11.5265121 102.510122,14.9270081 101.748517,14.9270081 C100.986912,14.9270081 99.6777901,12.8446915 99.6777901,12.8446915 L100.517939,10.8874813 C100.517939,10.8874813 97.5076664,12.1513851 96.0658873,15.4717862 C95.1191077,19.2097995 95.3175775,21.6771701 95.0721014,22.3097374 C94.2095412,22.6585587 92.2254295,22.524433 91.7627473,22.3253657 C91.4005542,22.1695334 91.8119721,19.1266315 91.8783439,18.5052768 C92.1839391,15.644373 93.2383666,11.8373766 93.2383666,11.8373766 C93.2383666,11.8373766 86.4695277,14.6524777 84.2884204,14.239703 C83.0652084,14.00821 85.7774844,12.8680296 88.1015465,12.2245597 Z" id="Path-872"></path>
                            <path d="M28.1854375,11.9622737 C29.7657219,12.1914682 30.9314688,9.81121969 30.9314688,9.81121969 C30.9314688,9.81121969 33.7558935,10.3161371 33.7558935,11.0884499 C33.7558935,11.8607627 33.297596,14.0932829 33.297596,14.0932829 C33.297596,14.0932829 34.4826262,12.3146438 35.5601096,11.2883158 C36.6375931,10.2619878 38.1182989,9.34475694 38.1182989,9.34475694 L40.747028,11.5265121 C40.747028,11.5265121 39.6415091,14.9270081 38.879904,14.9270081 C38.1182989,14.9270081 36.8091769,12.8446915 36.8091769,12.8446915 L37.6493255,10.8874813 C37.6493255,10.8874813 34.6390532,12.1513851 33.1972741,15.4717862 C32.2504945,19.2097995 32.4489644,21.6771701 32.2034882,22.3097374 C31.3409281,22.6585587 29.3568164,22.524433 28.8941342,22.3253657 C28.5319411,22.1695334 28.943359,19.1266315 29.0097307,18.5052768 C29.3153259,15.644373 30.3697534,11.8373766 30.3697534,11.8373766 C30.3697534,11.8373766 28.6403637,12.45077 28.1854375,11.9622737 Z" id="Path-873"></path>
                            <path d="M104.344647,11.0587895 C104.344647,11.0587895 105.168019,10.2841951 106.831349,10.6714923 C108.49468,11.0587895 108.785405,11.9940447 108.785405,11.9940447 C108.785405,11.9940447 108.81953,12.1845562 108.386587,15.3586059 C107.953645,18.5326556 107.408415,20.576756 107.408415,22.3035272 C107.408415,24.0302984 111.760145,17.3477582 111.760145,17.3477582 L113.062785,10.7604736 L115.750994,12.3706945 C115.750994,12.3706945 114.057924,20.1173991 114.057924,21.3956508 C114.057924,22.6739026 116.814,18.515734 116.814,18.515734 C116.814,18.515734 116.389636,22.2888872 113.928479,23.5901448 C111.467323,24.8914024 111.414325,23.0695658 111.414325,22.5172346 C111.414325,21.9649035 111.530996,19.8700383 111.530996,19.8700383 C111.530996,19.8700383 108.953168,23.1053105 107.444637,23.8629831 C105.936106,24.6206557 104.991868,24.0046309 104.37229,23.5032549 C103.752711,23.0018789 104.741558,17.6713615 104.741558,17.6713615 C104.741558,17.6713615 106.046486,12.1929219 105.709054,11.8311023 C105.371622,11.4692826 104.344647,11.0587895 104.344647,11.0587895 Z" id="Path-871"></path>
                            <path d="M15.6667683,26.5052237 C15.6667683,26.5052237 14.843396,27.3074822 13.1800657,26.906353 C11.5167355,26.5052237 11.2260101,25.5365665 11.2260101,25.5365665 C11.2260101,25.5365665 11.1918856,25.339251 11.6248281,22.0518424 C12.0577706,18.7644338 12.6029997,16.6473298 12.6029997,14.8588882 C12.6029997,13.0704466 8.25127021,19.991649 8.25127021,19.991649 L6.94863,26.8141937 L4.26042138,25.1464649 C4.26042138,25.1464649 5.95349143,17.1230923 5.95349143,15.7991887 C5.95349143,15.1253586 4.93891553,16.0097172 3.82376544,16.7604675 C2.74793112,17.4847493 1.57011117,18.0649137 1.57011117,18.0649137 L0.700502273,17.9430726 C0.700502273,17.9430726 0.763700497,17.5733566 1.13534479,17.1829824 C1.87236996,17.0818103 2.7842542,16.2144592 3.70731237,15.4722459 C4.69473741,14.6782765 5.60724118,13.7868106 6.0829357,13.52632 C8.54409259,12.1785888 8.59709039,14.0654911 8.59709039,14.6375484 C8.59709039,15.2096057 8.48041897,17.3792874 8.48041897,17.3792874 C8.48041897,17.3792874 11.0582473,14.0284698 12.5667782,13.2437375 C14.0753092,12.4590052 15.019547,13.0970308 15.6391256,13.6163131 C16.2587042,14.1355954 15.2698567,19.6564884 15.2698567,19.6564884 C15.2698567,19.6564884 13.9649288,25.3305865 14.3023609,25.7053283 C14.639793,26.0800701 15.6667683,26.5052237 15.6667683,26.5052237 L15.6667683,26.5052237 Z" id="Path-876"></path>
                            <path d="M118.354129,12.2756289 C118.354129,12.2756289 119.079512,10.8536379 119.854081,10.8536379 C120.62865,10.8536379 122.300559,12.8576205 122.300559,12.8576205 C122.300559,12.8576205 120.160915,21.5863524 120.429241,22.978683 C120.697566,24.3710135 123.041003,21.3578147 123.041003,21.3578147 C123.041003,21.3578147 122.578702,23.4228294 121.216391,24.3137841 C119.854081,25.2047387 118.473088,24.8872197 117.970181,24.3751964 C117.467274,23.8631732 117.02804,21.8297203 117.893734,18.6343758 C118.759429,15.4390314 119.302561,12.4341983 119.302561,12.4341983 L118.354129,12.2756289 Z M121.485765,4.92439734 L123.702903,6.83730705 C123.702903,6.83730705 122.735598,7.90166135 121.313999,7.90166135 C119.8924,7.90166135 119.489197,7.72179726 119.489197,7.72179726 L121.485765,4.92439734 Z" id="Path-870"></path>
                            <path d="M127.195682,11.5392509 C127.601363,11.5392509 130.108846,12.5486573 130.108846,12.5486573 L129.805347,13.6489464 L133.73481,14.0891001 L133.955571,15.2127753 L129.514813,15.2276055 C129.514813,15.2276055 128.054895,22.3037173 128.424164,24.639859 C128.793432,26.9760007 132.268792,21.2751077 132.268792,21.6772351 C132.268792,22.0793625 131.398904,24.6946168 129.911534,25.58348 C128.424164,26.4723433 128.439034,26.5295727 126.357631,25.8184822 C124.276228,25.1073916 125.663893,20.9049223 125.663893,20.9049223 L126.544267,15.3799006 L123.701259,15.3460572 L123.839091,13.5578736 L126.731094,13.7462936 C126.731094,13.7462936 126.790001,11.5392509 127.195682,11.5392509 Z" id="Path-869"></path>
                            <path d="M133.194357,19.9869944 C133.194357,19.9869944 135.549508,16.4188153 137.043169,15.0606703 C138.53683,13.7025254 138.590019,13.071518 139.400428,13.071518 C140.210837,13.071518 141.331225,14.1210421 141.547601,14.5908562 C141.763977,15.0606703 140.732617,16.9754814 140.066522,17.7500758 C139.400428,18.5246702 138.275845,20.107322 139.421589,22.5197063 C140.567333,24.9320906 141.861585,25.4608454 141.861585,26.5084682 C141.861585,27.5560909 141.73195,28.3747958 139.839471,28.8149494 C137.946992,29.2551031 136.559326,29.8266374 134.707072,28.9145782 C132.854818,28.0025189 132.063473,25.7848289 132.063473,25.7848289 C132.063473,25.7848289 133.699351,27.4704068 135.549508,27.6736571 C137.399665,27.8769073 138.353468,26.9486218 138.353468,26.9486218 C138.353468,26.9486218 134.055847,21.2638393 135.549508,18.2822023 C134.707072,18.6291917 133.194357,19.9869944 133.194357,19.9869944 Z" id="Path-868"></path>
                        </g>
                    </g>
                    <g id="superfoods" transform="translate(0.000000, 22.428786)" fill="#317549">
                        <path d="M260.735895,15.4455563 L256.46601,10.0016296 C256.46601,10.0016296 252.227136,10.9341645 245.909476,19.2178491 C239.591816,27.5015336 242.170065,37.720305 240.244006,42.8068281 C238.317947,47.8933513 235.073151,48.8957225 234.641708,49.611245 C234.210265,50.3267676 232.851686,51.3012753 234.422038,52.1403962 C235.99239,52.9795171 241.694114,50.6722032 243.156784,46.7395153 C244.619454,42.8068274 245.162886,37.5849168 247.040848,30.4625699 C248.918809,23.340223 254.836972,17.9232669 257.138479,16.3804133 C259.439986,14.8375596 260.735895,15.4455563 260.735895,15.4455563 Z" id="Path-12"></path>
                        <path d="M27.3599822,6.92302949 L23.0900974,1.47910283 C23.0900974,1.47910283 18.8512234,2.41163768 12.5335635,10.6953223 C6.21590366,18.9790068 8.79415218,29.1977782 6.86809335,34.2843013 C4.94203451,39.3708244 1.69723886,40.3731957 1.26579573,41.0887182 C0.83435259,41.8042408 -0.524225987,42.7787485 1.04612593,43.6178694 C2.61647785,44.4569903 8.31820161,42.1496764 9.78087174,38.2169885 C11.2435419,34.2843006 11.7869739,29.06239 13.6649352,21.9400431 C15.5428965,14.8176961 21.4610601,9.40074013 23.762567,7.85788647 C26.0640739,6.3150328 27.3599822,6.92302949 27.3599822,6.92302949 Z" id="Path-13"></path>
                        <path d="M207.490354,2.30517531 C207.490354,2.30517531 198.483573,22.5439074 202.433132,32.1403652 C206.38269,41.7368231 212.706671,31.0989418 215.358612,28.6023948 C218.010552,26.1058479 221.244776,16.3982891 221.244775,11.0664327 C221.244773,5.73457623 220.200915,3.48467231 217.890802,2.47732321 C215.58069,1.46997412 213.221473,2.30517529 213.221473,2.30517529 C213.221473,2.30517529 217.848351,5.09580064 215.358612,13.6953144 C212.868873,22.2948281 212.706671,22.1997272 209.006752,27.1770831 C205.306833,32.154439 205.074618,29.065664 205.074618,27.1770822 C205.074618,25.2885004 206.675298,16.6370897 209.006752,11.0664328 C211.338205,5.49577577 213.975918,2.47385501 212.706671,1.33660674 C211.437424,0.199358482 207.490354,2.30517531 207.490354,2.30517531 Z" id="Path-25"></path>
                        <path d="M188.55595,1.6858344 C188.55595,1.6858344 180.748349,19.2299445 184.172056,27.5487124 C187.595762,35.8674802 193.077757,26.6459459 195.376613,24.4817938 C197.67547,22.3176417 200.479083,13.9025652 200.479082,9.28060188 C200.479081,4.65863859 199.574204,2.708291 197.571664,1.83506221 C195.569124,0.961833426 193.524017,1.68583438 193.524017,1.68583438 C193.524017,1.68583438 197.534865,4.10491075 195.376614,11.5594694 C193.218363,19.0140281 193.077757,18.9315892 189.870452,23.2462507 C186.663147,27.5609123 186.46185,24.8833825 186.46185,23.24625 C186.46185,21.6091174 187.849413,14.1095714 189.870452,9.28060195 C191.891491,4.45163246 194.178015,1.83205577 193.077757,0.846222829 C191.9775,-0.139610112 188.55595,1.6858344 188.55595,1.6858344 Z" id="Path-27"></path>
                        <path d="M226.860767,3.34863653 C226.860767,3.34863653 224.803889,23.2290063 217.008722,37.546662 C214.825806,41.4822864 214.746898,41.8026566 214.35844,42.684837 C215.058987,43.0660749 216.428894,42.6823211 218.044831,42.2072125 C219.136556,41.8862299 220.435548,41.3866806 221.738022,41.3866806 C231.670277,41.3866806 235.813267,32.3787908 237.682938,29.565894 C239.817953,26.3537886 240.082804,22.1689622 240.082803,16.5800293 C240.082802,10.9910963 238.017533,6.73381122 235.596038,5.67789259 C233.174543,4.62197396 230.701576,5.49744452 230.701576,5.49744452 C230.701576,5.49744452 234.751402,9.7569608 234.751403,18.6190531 C234.751405,27.4811454 227.353851,37.5466609 220.810953,37.5466609 C224.570093,31.0809552 227.328503,30.2840612 230.161953,23.2290063 C232.995402,16.1739514 231.492397,5.67425716 230.161953,4.48217625 C228.831508,3.29009534 226.860767,3.34863653 226.860767,3.34863653 Z" id="Path-26"></path>
                        <path d="M27.6524705,7.51195027 C27.6524705,7.51195027 22.7974083,14.0363453 21.228651,25.9555691 C19.6598937,37.8747929 21.2067562,41.7599005 23.1299678,43.1973694 C25.0531794,44.6348383 32.3330938,46.282643 35.9193763,37.7204794 C39.5056589,29.1583158 39.1447858,21.1659376 40.7326833,16.8938364 C42.3205808,12.6217352 43.9172342,11.1046768 45.804676,9.6379672 C47.6921178,8.17125761 48.2291752,10.7755288 51.8433851,6.10079522 C51.510917,5.49982248 44.4569893,5.2319706 41.5567112,7.62207802 C38.6564331,10.0121854 35.7557005,13.5020464 34.6490784,21.9540982 C33.5424564,30.40615 32.4784048,35.4132872 30.0865487,37.934092 C27.6946925,40.4548968 25.7909933,40.5642621 25.6252538,37.4051855 C25.4595142,34.2461089 25.9480058,26.775597 27.4150814,20.8766922 C28.882157,14.9777874 30.823079,12.1475517 31.3343579,11.571882 C30.0666399,10.2076719 27.6524705,7.51195027 27.6524705,7.51195027 L27.6524705,7.51195027 Z" id="Path-501"></path>
                        <path d="M48.442161,5.77779173 C48.442161,5.77779173 53.1816929,5.13256636 56.4307567,8.17161586 C59.6798205,11.2106654 59.622134,15.2895116 59.2026844,17.6372162 C58.7832349,19.9849208 55.8549749,24.6710456 54.5464713,25.8610204 C53.2379677,27.0509953 51.509975,28.4786623 49.668995,29.1618597 C47.8280149,29.8450571 46.7850463,29.5356245 46.7850463,29.5356245 C46.7850463,29.5356245 46.3451558,33.2647859 45.1651492,37.3751643 C43.9851426,41.4855427 41.9613129,44.2146445 41.3325955,44.2475585 C40.7038782,44.2804726 39.3356255,44.1297047 40.0464726,40.1418015 C42.1774163,34.6534494 42.8417846,24.9438226 44.5713245,18.4788504 C46.3008644,12.0138782 48.442161,5.77779173 48.442161,5.77779173 L48.442161,5.77779173 Z M52.3638488,10.16183 C52.3638488,10.16183 54.8445006,10.6682734 54.8785942,14.2853158 C54.546162,17.2587643 53.0564996,20.1555446 52.1547164,21.7960594 C51.2666284,23.7756972 47.695071,24.6567279 47.6040101,24.6341642 C47.5129493,24.6116006 49.379301,17.0898038 49.977937,15.3689399 C50.5765729,13.648076 52.3638488,10.16183 52.3638488,10.16183 L52.3638488,10.16183 Z" id="Path-507"></path>
                        <path d="M66.0747317,3.4203691 C66.0747317,3.4203691 62.3237967,13.835119 60.5785411,21.8114004 C58.8332856,29.7876818 57.515891,35.8374013 56.9364116,37.3598539 C56.3569322,38.8823066 56.8788727,39.6027694 57.5647035,39.6027683 C58.2505343,39.6027673 62.8154679,37.2693909 64.7728804,35.8948227 C66.7302929,34.5202545 70.4845005,34.2729689 71.1856027,32.2805913 C71.8867048,30.2882138 71.2038731,29.0612603 70.2418013,29.0612603 C69.2797295,29.0612603 68.5208161,30.082908 67.2977739,30.556356 C66.0747316,31.029804 62.2479867,31.9428416 61.8411242,32.277612 C61.4342618,32.6123824 62.4326023,31.623779 63.4282157,27.6113967 C64.4238292,23.5990143 64.7150688,22.619348 64.7150688,22.619348 C64.7150688,22.619348 68.6607098,22.83332 69.7228606,22.4988194 C70.7850114,22.1643188 71.7866245,20.9796185 72.0718651,20.2380289 C72.3571057,19.4964392 71.6985439,18.7304735 70.1537205,19.0170341 C68.6088971,19.3035946 65.753223,18.4626027 65.753223,18.4626027 C65.753223,18.4626027 68.5148168,9.06029273 69.3342686,8.42433522 C70.1537204,7.78837772 71.2371429,7.81248363 73.1765571,7.16731727 C75.1159714,6.5221509 77.3256289,5.80764691 76.2937466,4.44526804 C75.2618644,3.08288916 75.6744538,3.1825622 71.4861138,2.89302285 C67.2977738,2.6034835 66.0747317,3.4203691 66.0747317,3.4203691 Z" id="Path-503"></path>
                        <path d="M80.6764843,0.598263578 C80.6764843,0.598263578 84.6337127,0.0595386024 87.3464886,2.59696498 C90.0592645,5.13439135 90.0110997,8.53998643 89.6608841,10.5001808 C89.3106686,12.4603751 86.8657449,16.3730117 85.7732219,17.3665703 C85.0602509,18.0149579 84.1981177,18.7478643 83.2579457,19.3373798 C82.9290749,19.5435915 86.8014901,20.3515472 85.8945192,22.8856014 C85.6268606,23.6334328 85.3146826,25.0513247 85.1084763,26.323664 C86.2663284,25.5782234 86.4852868,25.4284608 87.44375,25.2030981 C87.7566997,26.7147299 88.1981959,27.1444613 88.3226699,27.9027275 C86.7064044,28.8183637 86.2275184,28.6955475 82.7145943,30.6580129 C81.760582,29.3253515 82.5758783,24.0418322 82.5765198,23.9788385 C82.6041229,21.2685889 79.0622394,22.0622128 79.0622394,22.0622128 C79.0622394,22.0622128 78.9256091,23.548276 77.9403735,26.9801986 C76.9551379,30.4121212 75.2653598,32.6907596 74.7404181,32.7182408 C74.2154763,32.7457221 73.0730664,32.6198398 73.6665816,29.2901768 C75.4457934,24.7077279 76.0005016,16.6007644 77.444565,11.2028954 C78.8886284,5.80502647 80.6764843,0.598263578 80.6764843,0.598263578 L80.6764843,0.598263578 Z M83.9508613,4.25867592 C83.9508613,4.25867592 86.0220587,4.68152621 86.0505249,7.70154243 C85.7729637,10.1841958 84.5291837,12.6028359 83.7762481,13.9725685 C83.0347473,15.6254488 80.1579795,16.1960884 79.9720477,16.3731348 C79.7861159,16.5501811 81.4589407,10.0431238 81.9587663,8.60630433 C82.4585918,7.16948487 83.9508613,4.25867592 83.9508613,4.25867592 L83.9508613,4.25867592 Z" id="Path-508"></path>
                    </g>
                    <g id="fruta" transform="translate(92.219982, 0.000000)">
                        <path d="M31.2359827,63.3891872 C31.2359827,63.3891872 35.2507567,56.3406588 44.7610935,51.2071493 C48.4561714,49.2126124 49.9338103,48.1122826 54.2861108,47.6309666 C58.0293518,47.2170058 70.6539036,52.7619791 77.376978,42.0265936 C79.6263441,38.4348124 80.3364402,35.3576127 81.2786684,28.8387782 C82.2208967,22.3199437 78.8387866,15.1279024 76.654039,12.754667 C73.4385181,9.26172889 69.7833612,6.25356996 65.7785075,6.25356996 C61.7736537,6.25356996 62.6850457,7.20639816 59.9771126,7.8226701 C58.1031543,8.24914589 52.363438,8.16950554 44.7610935,6.25357017 C37.158749,4.3376348 36.7477266,3.58030449 31.2359825,5.07081792 C25.7242383,6.56133135 21.0272205,11.0482377 21.0272205,11.0482377 C21.0272205,11.0482377 15.8686127,18.604416 12.2270349,22.6171683 C8.5854572,26.6299206 5.18040605,34.4767843 12.2415836,45.3397052 C19.7590605,55.1132593 25.1241293,54.4760101 27.9863824,52.6416918 C29.9613562,51.3759999 34.1171055,49.8878961 36.0945984,43.6447894 C37.8182635,38.2030379 36.6245038,47.7990924 35.4312105,51.4156559 C35.2554855,51.948233 30.0890171,55.6717079 30.0890171,55.6717079 C30.0890171,55.6717079 24.8469093,60.1074203 17.2251665,58.8416934 C9.6034237,57.5759665 2.98686196,47.0962707 1.53419883,42.9127367 C0.0815357045,38.7292026 -1.27977973,29.3739144 5.22515388,21.3782202 C11.7300875,13.382526 19.0239565,7.64077947 22.4709349,5.51327422 C24.9565974,4.07513731 25.7515296,3.04073434 28.8592578,2.08232753 C31.9669861,1.12392071 34.0057832,0.225661467 39.0531173,0.225661467 C44.1004514,0.225661467 46.1748291,3.04073447 50.7096059,3.04073424 C55.2443827,3.04073401 54.7990168,1.16431181 67.8491813,2.61092192 C80.8993457,4.05753203 89.7966135,17.3073407 89.7966083,26.9894874 C89.7966031,36.671634 89.086809,45.7071774 79.8695616,54.61645 C70.6523142,63.5257227 62.534595,56.1407697 60.4977789,55.3786095 C58.4609627,54.6164493 56.0560237,51.2631232 48.5026158,55.3834388 C40.9492079,59.5037545 39.9427036,60.4274758 37.7736285,61.2682229 C35.6045534,62.10897 31.2359827,63.3891872 31.2359827,63.3891872 Z M74.0245207,52.2505069 C74.0245207,52.2505069 78.4667165,51.6543011 81.2887188,45.7256143 C84.1107211,39.7969274 84.2332827,35.7108568 84.2332827,35.7108568 C84.2332827,35.7108568 80.5277789,41.4547112 78.9768019,44.924381 C77.425825,48.3940508 74.0245207,52.2505069 74.0245207,52.2505069 Z M6.11063922,28.3629988 C6.11063922,28.3629988 0.557012522,34.0521937 6.5938316,41.7795952 C5.78803338,36.3258076 6.1106392,36.9793296 6.1106392,34.8410245 C6.1106392,32.7027195 5.77502769,30.5729757 6.11063922,28.3629988 Z" id="silueta" fill="#F1730A"></path>
                        <path d="M35.4056311,29.7812584 C36.012981,25.2279872 37.3316411,20.4277562 40.6574003,16.0643858 C48.4171347,5.88367418 53.6235779,4.73758174 53.6235779,4.73758174 L58.8681102,11.4282092 C58.8681102,11.4282092 57.2763967,10.6809766 54.4495459,12.5771555 C51.8552244,14.3173598 45.5194548,20.0677773 42.7117279,27.7681624 C45.4828001,27.0821017 48.0369685,26.5706509 49.4932484,26.5706509 C53.9156051,26.5706509 62.828654,27.5185208 64.2958651,26.7221169 C65.7630762,25.925713 63.0389481,29.7426568 56.5312807,30.998727 C50.0236134,32.2547972 49.4883993,31.1212169 46.9216597,31.1212169 C45.6816297,31.1212169 43.7805779,31.0265346 41.7027981,31.2201886 C39.6685334,39.2954888 38.9802524,45.3047201 37.2763767,49.8887237 C35.4798363,54.7220271 25.5301564,58.5804016 22.6878564,58.8318275 C27.6339909,57.2241469 31.3330223,51.3067968 33.698725,45.0554211 C34.7862021,42.18176 34.7046145,37.9752464 35.0527185,33.2795842 C35.0417881,33.2867033 35.0308689,33.2938454 35.0199609,33.3010105 C31.0838827,35.8864696 32.0846552,34.8942572 30.695918,33.4669646 C29.3071807,32.0396719 30.5239791,31.287171 30.5239791,31.287171 C30.5239791,31.287171 32.5920071,30.6166579 35.4056311,29.7812584 Z" id="efe" fill="#317549"></path>
                    </g>
                </g>
                <g id="reducido" transform="translate(92.000000, 0.000000)" sketch:type="MSShapeGroup">
                    <g id="fruta" transform="translate(0.219982, 0.000000)">
                        <path d="M31.2359827,63.3891872 C31.2359827,63.3891872 35.2507567,56.3406588 44.7610935,51.2071493 C48.4561714,49.2126124 49.9338103,48.1122826 54.2861108,47.6309666 C58.0293518,47.2170058 70.6539036,52.7619791 77.376978,42.0265936 C79.6263441,38.4348124 80.3364402,35.3576127 81.2786684,28.8387782 C82.2208967,22.3199437 78.8387866,15.1279024 76.654039,12.754667 C73.4385181,9.26172889 69.7833612,6.25356996 65.7785075,6.25356996 C61.7736537,6.25356996 62.6850457,7.20639816 59.9771126,7.8226701 C58.1031543,8.24914589 52.363438,8.16950554 44.7610935,6.25357017 C37.158749,4.3376348 36.7477266,3.58030449 31.2359825,5.07081792 C25.7242383,6.56133135 21.0272205,11.0482377 21.0272205,11.0482377 C21.0272205,11.0482377 15.8686127,18.604416 12.2270349,22.6171683 C8.5854572,26.6299206 5.18040605,34.4767843 12.2415836,45.3397052 C19.7590605,55.1132593 25.1241293,54.4760101 27.9863824,52.6416918 C29.9613562,51.3759999 34.1171055,49.8878961 36.0945984,43.6447894 C37.8182635,38.2030379 36.6245038,47.7990924 35.4312105,51.4156559 C35.2554855,51.948233 30.0890171,55.6717079 30.0890171,55.6717079 C30.0890171,55.6717079 24.8469093,60.1074203 17.2251665,58.8416934 C9.6034237,57.5759665 2.98686196,47.0962707 1.53419883,42.9127367 C0.0815357045,38.7292026 -1.27977973,29.3739144 5.22515388,21.3782202 C11.7300875,13.382526 19.0239565,7.64077947 22.4709349,5.51327422 C24.9565974,4.07513731 25.7515296,3.04073434 28.8592578,2.08232753 C31.9669861,1.12392071 34.0057832,0.225661467 39.0531173,0.225661467 C44.1004514,0.225661467 46.1748291,3.04073447 50.7096059,3.04073424 C55.2443827,3.04073401 54.7990168,1.16431181 67.8491813,2.61092192 C80.8993457,4.05753203 89.7966135,17.3073407 89.7966083,26.9894874 C89.7966031,36.671634 89.086809,45.7071774 79.8695616,54.61645 C70.6523142,63.5257227 62.534595,56.1407697 60.4977789,55.3786095 C58.4609627,54.6164493 56.0560237,51.2631232 48.5026158,55.3834388 C40.9492079,59.5037545 39.9427036,60.4274758 37.7736285,61.2682229 C35.6045534,62.10897 31.2359827,63.3891872 31.2359827,63.3891872 Z M74.0245207,52.2505069 C74.0245207,52.2505069 78.4667165,51.6543011 81.2887188,45.7256143 C84.1107211,39.7969274 84.2332827,35.7108568 84.2332827,35.7108568 C84.2332827,35.7108568 80.5277789,41.4547112 78.9768019,44.924381 C77.425825,48.3940508 74.0245207,52.2505069 74.0245207,52.2505069 Z M6.11063922,28.3629988 C6.11063922,28.3629988 0.557012522,34.0521937 6.5938316,41.7795952 C5.78803338,36.3258076 6.1106392,36.9793296 6.1106392,34.8410245 C6.1106392,32.7027195 5.77502769,30.5729757 6.11063922,28.3629988 Z" id="silueta" fill="#F1730A"></path>
                        <path d="M35.4056311,29.7812584 C36.012981,25.2279872 37.3316411,20.4277562 40.6574003,16.0643858 C48.4171347,5.88367418 53.6235779,4.73758174 53.6235779,4.73758174 L58.8681102,11.4282092 C58.8681102,11.4282092 57.2763967,10.6809766 54.4495459,12.5771555 C51.8552244,14.3173598 45.5194548,20.0677773 42.7117279,27.7681624 C45.4828001,27.0821017 48.0369685,26.5706509 49.4932484,26.5706509 C53.9156051,26.5706509 62.828654,27.5185208 64.2958651,26.7221169 C65.7630762,25.925713 63.0389481,29.7426568 56.5312807,30.998727 C50.0236134,32.2547972 49.4883993,31.1212169 46.9216597,31.1212169 C45.6816297,31.1212169 43.7805779,31.0265346 41.7027981,31.2201886 C39.6685334,39.2954888 38.9802524,45.3047201 37.2763767,49.8887237 C35.4798363,54.7220271 25.5301564,58.5804016 22.6878564,58.8318275 C27.6339909,57.2241469 31.3330223,51.3067968 33.698725,45.0554211 C34.7862021,42.18176 34.7046145,37.9752464 35.0527185,33.2795842 C35.0417881,33.2867033 35.0308689,33.2938454 35.0199609,33.3010105 C31.0838827,35.8864696 32.0846552,34.8942572 30.695918,33.4669646 C29.3071807,32.0396719 30.5239791,31.287171 30.5239791,31.287171 C30.5239791,31.287171 32.5920071,30.6166579 35.4056311,29.7812584 Z" id="efe" fill="#317549"></path>
                    </g>
                </g>
            </g>
        </g>
    </g>
</svg>