<?xml version="1.0" encoding="UTF-8" standalone="no"?>
<svg width="240px" height="107px" viewBox="0 0 240 107" version="1.1" xmlns="http://www.w3.org/2000/svg" xmlns:xlink="http://www.w3.org/1999/xlink" xmlns:sketch="http://www.bohemiancoding.com/sketch/ns">
    <!-- Generator: Sketch 3.2.2 (9983) - http://www.bohemiancoding.com/sketch -->
    <title>logo</title>
    <desc>Created with Sketch.</desc>
    <defs></defs>
    <g id="Blank-Project" stroke="none" stroke-width="1" fill="none" fill-rule="evenodd" sketch:type="MSPage">
        <g id="Home-Desktop-1180" sketch:type="MSArtboardGroup" transform="translate(-470.000000, -37.000000)">
            <g id="HEADER" sketch:type="MSLayerGroup">
                <g id="logo" transform="translate(470.000000, 37.000000)" sketch:type="MSShapeGroup">
                    <g id="EnergyFruits" transform="translate(48.282353, 64.441398)" fill="#317549">
                        <g id="energy" transform="translate(0.000000, 3.689655)">
                            <path d="M13.937505,0.0573151322 C13.937505,0.0573151322 11.5217731,0.572909489 8.98956563,1.36065249 C6.45735821,2.1483955 3.21842713,15.4002889 2.4769008,17.8649007 C1.73537447,20.3295126 -0.187871991,26.7666292 0.0730613298,27.6794346 C0.33399465,28.5922399 1.4588758,29.078669 3.60195714,27.9759461 C5.74503848,26.8732233 8.30855035,24.9098661 8.64905814,24.3145909 C8.98956593,23.7193158 8.86939658,22.7712293 7.91907444,23.0029963 C6.9687523,23.2347633 4.67629587,24.2310798 4.67629587,24.2310798 L3.45207788,24.8263549 L6.45735816,16.74754 C6.45735816,16.74754 12.940781,13.483152 14.1754981,12.832553 C15.4102153,12.181954 15.448247,11.4031604 14.3503324,11.7187763 C13.4512532,11.9446506 7.39353515,13.6292889 7.39353515,13.6292889 L9.59939526,5.59147901 C9.59939526,5.59147901 9.76047357,4.71292251 10.9341485,4.40383732 C12.1078234,4.09475213 15.4030688,2.74130807 15.4030688,2.74130807 C15.4030688,2.74130807 15.7337829,1.56539563 15.0039737,0.811355379 C14.2741645,0.0573151322 13.937505,0.0573151322 13.937505,0.0573151322 Z" id="Path-879"></path>
                            <path d="M28.5253308,15.0011221 C28.5253308,15.0011221 29.0040001,10.6880044 30.9330178,8.75392309 C32.8620356,6.81984176 33.8858316,6.98479979 35.1354084,7.2501589 C36.3849852,7.51551801 37.7590825,10.2240951 36.7295151,11.7092804 C35.6999478,13.1944658 31.8050108,14.3244001 31.8050108,14.3244001 C31.8050108,14.3244001 30.6120978,17.1001618 31.507351,17.7329698 C32.4026041,18.3657778 33.5626381,17.1816086 35.3475479,16.5508644 C37.1324577,15.9201201 37.6249432,15.4458895 37.6249432,15.4458895 C37.6249432,15.4458895 36.8229055,18.5830944 35.2113099,19.2117745 C33.5997144,19.8404545 33.2298257,20.5378196 30.5788691,19.6899463 C27.9279124,18.842073 28.5253308,15.0011221 28.5253308,15.0011221 Z M32.3286263,12.6262144 C32.3286263,12.6262144 34.0005583,11.7616391 34.9738117,11.3104911 C35.947065,10.8593431 36.1202044,9.27206772 35.1217671,8.92526175 C34.1233299,8.57845578 33.3915973,9.44096673 32.755004,10.6921331 C32.1184106,11.9432994 32.3286263,12.6262144 32.3286263,12.6262144 Z" id="Path-877"></path>
                            <path d="M57.0654668,5.46001706 C57.0654668,5.46001706 51.7946837,3.82657597 49.1552697,10.1698598 C46.5158557,16.5131436 50.2899449,18.4680559 50.7182463,18.4680558 C51.1465477,18.4680557 53.488127,17.7243373 54.4982817,15.2640416 C55.5084364,12.8037459 52.0840738,22.3951197 50.7182463,27.4951689 C49.3524188,32.5952182 48.6538182,35.8937408 46.4961379,36.1423654 C45.5570763,36.2505713 43.6465133,35.1359164 42.9475193,33.7698527 C42.242871,32.3927385 42.762265,30.9236444 42.5828017,29.4847535 C41.4928251,33.7857223 43.1059348,37.2347237 47.4093239,38.2468559 C50.6508558,38.3679343 52.1546036,35.0569414 54.1631957,27.028233 C56.1717879,18.9995246 60.2106575,7.68535533 59.8213564,6.83954664 C59.4320553,5.99373795 57.7307416,4.82570747 57.3981043,4.82570745 C57.065467,4.82570742 57.0654668,5.46001706 57.0654668,5.46001706 Z M56.6429367,7.36538556 C56.6429367,7.36538556 52.9914442,7.99819385 52.0299084,11.321188 C51.0683726,14.6441822 51.4071313,15.7949475 51.9793657,16.1751579 C52.5516002,16.5553684 54.4454653,13.9948594 55.2882521,11.0184835 C56.1310388,8.04210759 56.6429367,7.36538556 56.6429367,7.36538556 Z" id="Path-875"></path>
                            <path d="M62.8567175,3.67494219 L65.6538807,5.99129828 C65.6538807,5.99129828 64.1862182,10.6906317 64.1862182,14.6464342 C64.1862182,18.6022367 68.1685993,8.15301794 68.1685993,8.15301794 L69.3480459,4.17206828 L71.7382441,6.29193852 C71.7382441,6.29193852 69.2506333,20.082867 67.4522564,25.6128528 C66.4186452,28.7911939 62.6158805,29.8773294 58.802919,29.6789839 C56.9383999,29.6693756 52.775848,28.8366409 50.0757836,27.1495525 C44.4788106,24.816294 42.3628573,29.2728645 42.9269168,28.5707794 C43.4909763,27.8686944 43.7092504,24.8102588 51.1831763,26.2576301 C58.6571023,27.7050013 62.1814743,28.1637803 64.100523,24.30008 C66.0195716,20.4363797 67.4522569,11.442983 67.4522569,11.442983 C67.4522569,11.442983 65.1087537,16.5831429 64.1005229,17.0489288 C63.0922922,17.5147147 61.4124905,17.3369954 61.41249,14.5216366 C61.4124895,11.7062778 61.8857375,8.92263443 62.1814738,7.07431627 C62.4772101,5.2259981 62.8567175,3.67494219 62.8567175,3.67494219 Z" id="Path-874"></path>
                        </g>
                        <g id="fruits" transform="translate(12.233920, 0.000000)">
                            <g id="F" transform="translate(61.538527, 0.364786)">
                                <path d="M2.88471059,13.9797928 C2.88471059,13.9797928 10.6458588,11.3999654 13.0052987,11.3999654 C15.3647385,11.3999654 20.8479588,11.9896935 21.6307532,11.5540789 C22.4135477,11.1184644 20.2322742,13.1349793 16.760268,13.8220206 C13.2882619,14.5090619 13.0027115,13.8890197 11.6332906,13.8890197 C10.2638697,13.8890197 7.38342923,13.6671301 5.28343132,15.0813164 C3.18343342,16.4955027 3.71737105,15.9527855 2.97644437,15.1720894 C2.23551768,14.3913934 2.88471059,13.9797928 2.88471059,13.9797928 Z" id="Path-9"></path>
                                <path d="M21.1095707,3.72436078 L18.1913918,0.0647423876 C18.1913918,0.0647423876 15.2944066,0.691628435 10.9767112,6.26024211 C6.65901576,11.8288558 9.16963854,16.8048276 7.10474353,22.1176676 C5.03984852,27.4305077 2.715703,27.5914104 0.65188926,28.8376476 C3.92830063,28.8906796 8.09579495,27.4050775 9.09543157,24.7613723 C10.0950682,22.1176672 10.4664674,18.6072966 11.7499276,13.8193791 C13.0333878,9.03146153 17.0780544,5.38997386 18.6509795,4.35280785 C20.2239046,3.31564185 21.1095707,3.72436078 21.1095707,3.72436078 Z" id="Path"></path>
                            </g>
                            <path d="M80.8222977,12.0660327 C84.834846,12.2365644 86.0500008,9.68398863 86.0500008,9.68398863 C86.0500008,9.68398863 88.641062,10.1823583 88.641062,10.9446558 C88.641062,11.7069534 88.2206305,13.9105225 88.2206305,13.9105225 C88.2206305,13.9105225 89.3077495,12.1549486 90.2962076,11.1419299 C91.2846657,10.1289112 92.6430306,9.22357493 92.6430306,9.22357493 L95.0545651,11.3770373 C95.0545651,11.3770373 94.040388,14.733436 93.3417093,14.733436 C92.6430306,14.733436 91.4420727,12.6781227 91.4420727,12.6781227 L92.2128054,10.7462933 C92.2128054,10.7462933 89.451252,11.993807 88.1285976,15.2711494 C87.2600442,18.9606885 87.4421158,21.3960624 87.2169217,22.0204266 C86.4256291,22.3647245 84.6054515,22.2323381 84.1809977,22.0358522 C83.8487302,21.8820408 84.2261554,18.878599 84.2870432,18.2653019 C84.5673891,15.4414982 85.5346963,11.6838705 85.5346963,11.6838705 C85.5346963,11.6838705 79.3251219,14.4624657 77.324225,14.0550437 C76.202079,13.8265527 78.6902575,12.7011581 80.8222977,12.0660327 Z" id="Path-872"></path>
                            <path d="M25.856661,11.8071479 C27.3063769,12.0333703 28.3758059,9.68398863 28.3758059,9.68398863 C28.3758059,9.68398863 30.966867,10.1823583 30.966867,10.9446558 C30.966867,11.7069534 30.5464356,13.9105225 30.5464356,13.9105225 C30.5464356,13.9105225 31.6335546,12.1549486 32.6220127,11.1419299 C33.6104708,10.1289112 34.9688356,9.22357493 34.9688356,9.22357493 L37.3803702,11.3770373 C37.3803702,11.3770373 36.366193,14.733436 35.6675143,14.733436 C34.9688356,14.733436 33.7678778,12.6781227 33.7678778,12.6781227 L34.5386105,10.7462933 C34.5386105,10.7462933 31.7770571,11.993807 30.4544027,15.2711494 C29.5858492,18.9606885 29.7679208,21.3960624 29.5427267,22.0204266 C28.7514342,22.3647245 26.9312566,22.2323381 26.5068027,22.0358522 C26.1745353,21.8820408 26.5519604,18.878599 26.6128483,18.2653019 C26.8931942,15.4414982 27.8605013,11.6838705 27.8605013,11.6838705 C27.8605013,11.6838705 26.2739996,12.2893095 25.856661,11.8071479 Z" id="Path-873"></path>
                            <path d="M95.7233379,10.91538 C95.7233379,10.91538 96.4786804,10.1508305 98.0045807,10.5331053 C99.530481,10.91538 99.7971856,11.8385069 99.7971856,11.8385069 C99.7971856,11.8385069 99.8284906,12.026548 99.4313193,15.1594368 C99.0341481,18.2923257 98.5339676,20.3099184 98.5339676,22.014297 C98.5339676,23.7186755 102.526142,17.122794 102.526142,17.122794 L103.721154,10.6209327 L106.187254,12.2102724 C106.187254,12.2102724 104.634071,19.8565184 104.634071,21.1181939 C104.634071,22.3798694 107.162431,18.2756235 107.162431,18.2756235 C107.162431,18.2756235 106.77313,21.9998468 104.515322,23.2842298 C102.257514,24.5686129 102.208895,22.7704016 102.208895,22.2252331 C102.208895,21.6800645 102.315927,19.6123654 102.315927,19.6123654 C102.315927,19.6123654 99.9510873,22.8056828 98.5671963,23.5535299 C97.1833053,24.3013771 96.3170837,23.6933409 95.7486967,23.1984667 C95.1803098,22.7035925 96.0874553,17.4422008 96.0874553,17.4422008 C96.0874553,17.4422008 97.2845657,12.0348051 96.9750134,11.6776775 C96.6654611,11.32055 95.7233379,10.91538 95.7233379,10.91538 Z" id="Path-871"></path>
                            <path d="M14.3723268,24.2156091 C14.3723268,24.2156091 13.6169842,24.9485657 12.091084,24.5820874 C10.5651837,24.2156091 10.298479,23.3306279 10.298479,23.3306279 C10.298479,23.3306279 10.267174,23.1503572 10.6643453,20.1469266 C11.0615166,17.1434959 11.5616971,15.2092748 11.5616971,13.5753251 C11.5616971,11.9413754 7.56952226,18.2646999 7.56952226,18.2646999 L6.37451061,24.4978891 L3.90841091,22.9742246 C3.90841091,22.9742246 5.46159376,15.6439393 5.46159376,14.4343991 C5.46159376,13.8187769 4.53084556,14.6267414 3.50783296,15.3126392 C2.52088772,15.974355 1.44038325,16.5044028 1.44038325,16.5044028 L0.642624397,16.3930868 C0.642624397,16.3930868 0.70060097,16.0553081 1.04153875,15.6986558 C1.7176684,15.6062234 2.55420966,14.8137971 3.40100164,14.1356988 C4.30684227,13.4103152 5.14395188,12.5958573 5.58034291,12.3578688 C7.83815066,11.1265594 7.88676961,12.8504644 7.88676961,13.3731054 C7.88676961,13.8957463 7.77973798,15.8780033 7.77973798,15.8780033 C7.77973798,15.8780033 10.1445774,12.8166412 11.5284684,12.0996968 C12.9123594,11.3827524 13.778581,11.9656631 14.3469679,12.440088 C14.9153549,12.9145129 14.0082093,17.9584917 14.0082093,17.9584917 C14.0082093,17.9584917 12.811099,23.1424412 13.1206513,23.4848115 C13.4302036,23.8271817 14.3723268,24.2156091 14.3723268,24.2156091 L14.3723268,24.2156091 Z" id="Path-876"></path>
                            <path d="M108.575309,12.1164396 C108.575309,12.1164396 109.240759,10.7128889 109.95133,10.7128889 C110.661901,10.7128889 112.195671,12.6908839 112.195671,12.6908839 C112.195671,12.6908839 110.232813,21.3064224 110.478968,22.6806974 C110.725123,24.0549723 112.874938,21.0808484 112.874938,21.0808484 C112.874938,21.0808484 112.450833,23.1190841 111.201082,23.998485 C109.95133,24.8778858 108.684439,24.5644843 108.223084,24.059101 C107.761729,23.5537176 107.358786,21.5466344 108.152954,18.3927269 C108.947122,15.2388193 109.445378,12.2729527 109.445378,12.2729527 L108.575309,12.1164396 Z M111.448199,4.86053818 L113.48215,6.74864144 C113.48215,6.74864144 112.594767,7.79919328 111.290625,7.79919328 C109.986483,7.79919328 109.616594,7.62166166 109.616594,7.62166166 L111.448199,4.86053818 Z" id="Path-870"></path>
                            <path d="M116.686343,11.3896109 C117.058506,11.3896109 119.358811,12.3859274 119.358811,12.3859274 L119.080389,13.471948 L122.685186,13.9063938 L122.887707,15.0154973 L118.813859,15.0301352 C118.813859,15.0301352 117.474565,22.0144846 117.813323,24.3203314 C118.152082,26.6261783 121.340295,20.9992139 121.340295,21.3961266 C121.340295,21.7930393 120.54228,24.3743791 119.177802,25.2517156 C117.813323,26.1290522 117.826965,26.1855395 115.917534,25.4836703 C114.008104,24.7818011 115.281116,20.6338291 115.281116,20.6338291 L116.08875,15.1804554 L113.480641,15.1470509 L113.607085,13.3820562 L116.26014,13.5680328 C116.26014,13.5680328 116.314181,11.3896109 116.686343,11.3896109 Z" id="Path-869"></path>
                            <path d="M122.189387,19.7278048 C122.189387,19.7278048 124.349948,16.2058975 125.720198,14.8653649 C127.090447,13.5248322 127.139241,12.9020077 127.882691,12.9020077 C128.626141,12.9020077 129.65396,13.9379216 129.852458,14.4016432 C130.050956,14.8653649 129.104811,16.7553448 128.493751,17.5198943 C127.882691,18.2844438 126.851025,19.846572 127.902104,22.2276727 C128.953182,24.6087734 130.140499,25.1306714 130.140499,26.1647086 C130.140499,27.1987459 130.021575,28.0068338 128.285459,28.4412796 C126.549343,28.8757254 125.276331,29.4398481 123.577117,28.5396164 C121.877902,27.6393847 121.151941,25.4504535 121.151941,25.4504535 C121.151941,25.4504535 122.652657,27.1141729 124.349948,27.3147874 C126.047239,27.5154019 126.922235,26.5991544 126.922235,26.5991544 C126.922235,26.5991544 122.979698,20.9880916 124.349948,18.0451202 C123.577117,18.3876099 122.189387,19.7278048 122.189387,19.7278048 Z" id="Path-868"></path>
                        </g>
                    </g>
                    <g id="Superfoods" transform="translate(0.282353, 22.324376)" fill="#317549">
                        <path d="M239.19301,15.2452596 L235.275918,9.87192936 C235.275918,9.87192936 231.387274,10.7923712 225.5916,18.9686336 C219.795927,27.1448961 222.161152,37.2311513 220.394231,42.2517128 C218.627309,47.2722744 215.65061,48.2616469 215.254814,48.9678907 C214.859018,49.6741344 213.61269,50.6360048 215.053294,51.464244 C216.493898,52.2924833 221.724526,50.0150904 223.066345,46.1334013 C224.408165,42.2517122 224.906697,37.0975188 226.629494,30.0675339 C228.352292,23.0375489 233.781477,17.6908396 235.892825,16.1679935 C238.004174,14.6451474 239.19301,15.2452596 239.19301,15.2452596 Z" id="Path-12"></path>
                        <path d="M25.0994076,6.83325223 L21.1823152,1.45992195 C21.1823152,1.45992195 17.2936713,2.38036377 11.4979979,10.5566262 C5.7023246,18.7328887 8.06754948,28.8191439 6.30062816,33.8397054 C4.53370685,38.860267 1.55700723,39.8496395 1.16121139,40.5558833 C0.765415547,41.262127 -0.480912657,42.2239973 0.959691457,43.0522366 C2.40029557,43.8804759 7.63092356,41.603083 8.97274292,37.7213939 C10.3145623,33.8397047 10.8130942,28.6855114 12.5358919,21.6555265 C14.2586896,14.6255415 19.6878745,9.27883214 21.799223,7.75598607 C23.9105716,6.23313999 25.0994076,6.83325223 25.0994076,6.83325223 Z" id="Path-13"></path>
                        <path d="M190.346797,2.27528199 C190.346797,2.27528199 182.084187,22.2515599 185.707419,31.7235717 C189.330651,41.1955835 195.132124,30.6956534 197.564952,28.2314814 C199.997781,25.7673095 202.964781,16.1856375 202.96478,10.9229241 C202.964779,5.66021074 202.007168,3.43948337 199.887925,2.4451975 C197.768682,1.45091162 195.604391,2.27528197 195.604391,2.27528197 C195.604391,2.27528197 199.848981,5.02971873 197.564953,13.5177147 C195.280924,22.0057106 195.132124,21.9118431 191.737905,26.824653 C188.343686,31.737463 188.130657,28.688743 188.130657,26.8246521 C188.130657,24.9605613 189.599084,16.4213414 191.737905,10.9229242 C193.876725,5.42450702 196.296502,2.44177427 195.132124,1.31927374 C193.967746,0.196773218 190.346797,2.27528199 190.346797,2.27528199 Z" id="Path-25"></path>
                        <path d="M172.976818,1.66397264 C172.976818,1.66397264 165.814307,18.9805723 168.955135,27.191463 C172.095964,35.4023538 177.125017,26.3004036 179.233934,24.164316 C181.342852,22.0282284 183.914821,13.7222779 183.91482,9.16025182 C183.914819,4.59822576 183.084705,2.67317011 181.247622,1.81126528 C179.410539,0.949360453 177.534406,1.66397262 177.534406,1.66397262 C177.534406,1.66397262 181.213864,4.05167862 179.233935,11.4095672 C177.254006,18.7674558 177.125017,18.6860859 174.182711,22.9447954 C171.240404,27.2035048 171.055739,24.560697 171.055739,22.9447946 C171.055739,21.3288922 172.328656,13.9265997 174.182711,9.1602519 C176.036765,4.39390407 178.134368,1.80829783 177.125017,0.835249084 C176.115667,-0.13779966 172.976818,1.66397264 172.976818,1.66397264 Z" id="Path-27"></path>
                        <path d="M208.116761,3.3052117 C208.116761,3.3052117 206.229829,22.9277745 199.078725,37.0597601 C197.076168,40.9443477 197.003781,41.2605634 196.647418,42.1313037 C197.290083,42.5075977 198.546804,42.1288204 200.029227,41.659873 C201.03075,41.3430529 202.222415,40.8499817 203.417274,40.8499817 C212.528892,40.8499817 216.329575,31.9589054 218.044767,29.1824861 C220.00338,26.0120349 220.246348,21.881477 220.246347,16.3650209 C220.246346,10.8485647 218.351717,6.64648773 216.130294,5.60426216 C213.908871,4.5620366 211.640229,5.42615413 211.640229,5.42615413 C211.640229,5.42615413 215.355444,9.63043337 215.355446,18.3776028 C215.355447,27.1247723 208.569104,37.059759 202.566802,37.059759 C206.01535,30.6779 208.54585,29.8913401 211.145191,22.9277745 C213.744531,15.964209 212.36571,5.60067388 211.145191,4.42405177 C209.924673,3.24742967 208.116761,3.3052117 208.116761,3.3052117 Z" id="Path-26"></path>
                        <path d="M25.3677295,6.91185554 C25.3677295,6.91185554 20.913809,12.9150471 19.4746678,23.8820996 C18.0355266,34.8491521 19.454582,38.4238965 21.2188913,39.7465327 C22.9832007,41.0691689 29.6616238,42.5853381 32.9515955,34.7071659 C36.2415672,26.8289937 35.9105107,19.4750894 37.3672108,15.5442664 C38.8239108,11.6134435 40.2886432,10.2175759 42.0201382,8.86803487 C43.7516331,7.51849388 44.244317,9.91472194 47.5599087,5.61343109 C47.2549102,5.06046727 40.783802,4.81401283 38.1231547,7.0131857 C35.4625074,9.21235857 32.8014431,12.4234308 31.786254,20.2002875 C30.7710648,27.9771442 29.7949287,32.5842845 27.6006959,34.903714 C25.406463,37.2231435 23.6600539,37.3237721 23.5080083,34.4170594 C23.3559628,31.5103467 23.8040935,24.6366193 25.1499543,19.2089505 C26.4958152,13.7812817 28.2763716,11.1771403 28.7454069,10.6474583 C27.582432,9.39222853 25.3677295,6.91185554 25.3677295,6.91185554 L25.3677295,6.91185554 Z" id="Path-501"></path>
                        <path d="M44.4397052,5.31623085 C44.4397052,5.31623085 48.7876409,4.72254953 51.7682561,7.51882352 C54.7488712,10.3150975 54.6959509,14.0681037 54.3111577,16.2282611 C53.9263645,18.3884186 51.2400473,22.7001906 50.0396567,23.7951039 C48.8392661,24.8900173 47.254046,26.2036346 45.565174,26.8322545 C43.876302,27.4608744 42.919507,27.176161 42.919507,27.176161 C42.919507,27.176161 42.5159617,30.607417 41.4334513,34.3894364 C40.3509409,38.1714558 38.4943268,40.6825424 37.9175562,40.7128271 C37.3407856,40.7431118 36.0855826,40.6043881 36.7376972,36.9350598 C38.692575,31.8851467 39.302051,22.9511767 40.8886904,17.002661 C42.4753298,11.0541454 44.4397052,5.31623085 44.4397052,5.31623085 L44.4397052,5.31623085 Z M48.0373698,9.3500487 C48.0373698,9.3500487 50.3130618,9.81603475 50.3443385,13.1441285 C50.039373,15.880042 48.6727915,18.545412 47.8455167,20.0548737 C47.0308056,21.8763674 43.7543423,22.6870167 43.6708052,22.6662555 C43.5872682,22.6454944 45.2994156,15.7245789 45.8485902,14.1411868 C46.3977648,12.5577947 48.0373698,9.3500487 48.0373698,9.3500487 L48.0373698,9.3500487 Z" id="Path-507"></path>
                        <path d="M60.6154131,3.37601405 C60.6154131,3.37601405 57.174393,13.6557064 55.5733365,21.528552 C53.9722799,29.4013977 52.7637329,35.3726649 52.232132,36.8753746 C51.7005311,38.3780842 52.1793471,39.0892041 52.8085123,39.089203 C53.4376774,39.089202 57.6254407,36.7860846 59.4211251,35.4293417 C61.2168096,34.0725988 64.6608318,33.8285199 65.3040065,31.8619794 C65.9471813,29.8954389 65.3207675,28.6843963 64.4381853,28.6843963 C63.5556031,28.6843963 62.8593937,29.6927954 61.7374034,30.1601038 C60.615413,30.6274122 57.1048468,31.5286096 56.7316007,31.8590387 C56.3583545,32.1894678 57.2742088,31.2136845 58.1875613,27.2533344 C59.1009138,23.2929843 59.3680902,22.3260222 59.3680902,22.3260222 C59.3680902,22.3260222 62.9877289,22.5372195 63.9621212,22.2070566 C64.9365135,21.8768938 65.8553699,20.7075566 66.117043,19.9755838 C66.378716,19.2436111 65.7745669,18.4875783 64.357382,18.7704228 C62.9401971,19.0532672 60.3204685,18.2231813 60.3204685,18.2231813 C60.3204685,18.2231813 62.8538901,8.94279963 63.605636,8.31508916 C64.3573819,7.6873787 65.3512883,7.71117201 67.1304616,7.07437211 C68.9096349,6.43757221 70.936723,5.73233384 69.9900983,4.38762218 C69.0434737,3.04291052 69.4219736,3.141291 65.5796884,2.85550638 C61.7374033,2.56972175 60.6154131,3.37601405 60.6154131,3.37601405 Z" id="Path-503"></path>
                        <path d="M74.0107193,0.550471086 C74.0107193,0.550471086 77.6409881,0.0547823407 80.1296253,2.38950554 C82.6182624,4.72422873 82.5740771,7.85776667 82.2527976,9.66137021 C81.931518,11.4649737 79.6886022,15.0650481 78.6863471,15.9792359 C78.0322843,16.5758268 77.2413835,17.2501847 76.3788916,17.7926066 C76.0771933,17.982345 79.6296563,18.7257569 78.7976225,21.0573773 C78.5520788,21.7454679 78.2656939,23.050091 78.0765251,24.220789 C79.1387115,23.5348982 79.3395788,23.3970995 80.2188506,23.1897399 C80.5059433,24.5806145 80.9109616,24.9760167 81.0251511,25.6737085 C79.542427,26.5161988 79.1031082,26.4031938 75.8804338,28.208887 C75.0052452,26.9826857 75.7531789,22.1212422 75.7537675,22.0632807 C75.7790899,19.5695404 72.5298488,20.2997653 72.5298488,20.2997653 C72.5298488,20.2997653 72.4045074,21.6671139 71.5006753,24.8248761 C70.5968432,27.9826384 69.0466803,30.079247 68.5651111,30.1045329 C68.0835418,30.1298188 67.0355216,30.0139927 67.5799986,26.9503209 C69.2122059,22.7339425 69.7210822,15.2746066 71.0458322,10.3079483 C72.3705821,5.34128993 74.0107193,0.550471086 74.0107193,0.550471086 L74.0107193,0.550471086 Z M77.0145562,3.91847013 C77.0145562,3.91847013 78.9146242,4.30754088 78.9407384,7.08630207 C78.6861103,9.37062781 77.5450957,11.596054 76.8543702,12.8563651 C76.1741346,14.3772045 73.5350552,14.9022584 73.3644857,15.0651613 C73.1939162,15.2280642 74.7285265,9.24082538 75.1870548,7.91878675 C75.6455831,6.59674811 77.0145562,3.91847013 77.0145562,3.91847013 L77.0145562,3.91847013 Z" id="Path-508"></path>
                    </g>
                    <g id="fcentral" transform="translate(84.000000, 0.000000)">
                        <path d="M29.3423057,62.4719944 C29.3423057,62.4719944 33.0253654,55.5148707 41.7499259,50.4479321 C45.1397039,48.4792602 46.4952553,47.3931994 50.4879539,46.918125 C53.9219157,46.5095324 65.5033841,51.9825991 71.6709754,41.3864291 C73.7344912,37.8412258 74.3859167,34.803931 75.2502949,28.3696321 C76.114673,21.9353333 73.0120043,14.8365578 71.007768,12.4940983 C68.0579244,9.04645634 64.7047689,6.07730695 61.0308098,6.07730695 C57.3568506,6.07730695 58.1929403,7.01777896 55.7087459,7.62605914 C53.9896204,8.04700443 48.7241389,7.96839685 41.7499259,6.07730716 C34.775713,4.18621748 34.3986506,3.43870816 29.3423055,4.90989274 C24.2859603,6.38107732 19.9770261,10.8097979 19.9770261,10.8097979 C19.9770261,10.8097979 15.2446399,18.2679883 11.9039417,22.2287036 C8.56324347,26.1894189 5.43952921,33.9345251 11.9172883,44.6565766 C18.8136458,54.303388 23.7354343,53.6744026 26.3611984,51.8638716 C28.1729931,50.6145931 31.9853803,49.1457869 33.7994861,42.9836402 C35.3807361,37.6124569 34.2856088,47.0840706 33.1909095,50.6537348 C33.0297035,51.1794055 28.2901063,54.8545947 28.2901063,54.8545947 C28.2901063,54.8545947 23.4811192,59.2327852 16.4891107,57.9834721 C9.49710212,56.734159 3.42722318,46.3903631 2.094584,42.2610807 C0.761944834,38.1317984 -0.4868941,28.8978287 5.48057982,21.005822 C11.4480537,13.1138153 18.1392785,7.44652725 21.3014559,5.34661131 C23.5817445,3.92712404 24.3109967,2.90613511 27.1619539,1.96015684 C30.0129111,1.01417856 31.8832559,0.127567865 36.5135621,0.127567865 C41.1438683,0.127567865 43.0468539,2.90613524 47.206952,2.90613502 C51.3670502,2.90613479 50.9584819,1.05404587 62.9303975,2.48189647 C74.9023131,3.90974706 83.0644584,16.9877333 83.0644536,26.5443228 C83.0644488,36.1009122 82.4133004,45.0192834 73.9576132,53.8130213 C65.5019261,62.6067593 58.0549204,55.3175737 56.1863929,54.5652972 C54.3178654,53.8130206 52.1116307,50.5031801 45.182311,54.5700639 C38.2529913,58.6369477 37.3296478,59.5486902 35.339789,60.3785346 C33.3499302,61.208379 29.3423057,62.4719944 29.3423057,62.4719944 Z M68.5955095,51.4777596 C68.5955095,51.4777596 72.670676,50.8892853 75.2595148,45.0374812 C77.8483537,39.1856771 77.9607889,35.1525942 77.9607889,35.1525942 C77.9607889,35.1525942 74.5614463,40.8219628 73.1386164,44.2466382 C71.7157864,47.6713137 68.5955095,51.4777596 68.5955095,51.4777596 Z M6.29290335,27.9000226 C6.29290335,27.9000226 1.19813614,33.5154405 6.73617274,41.1426338 C5.99695231,35.7595704 6.29290334,36.4046176 6.29290334,34.2940419 C6.29290334,32.1834662 5.98502119,30.0813408 6.29290335,27.9000226 Z" id="Path-6" fill="#F1730A"></path>
                        <path d="M29.3423057,62.4719944 C29.3423057,62.4719944 33.0253654,55.5148707 41.7499259,50.4479321 C45.1397039,48.4792602 46.4952553,47.3931994 50.4879539,46.918125 C53.9219157,46.5095324 65.5033841,51.9825991 71.6709754,41.3864291 C73.7344912,37.8412258 74.3859167,34.803931 75.2502949,28.3696321 C76.114673,21.9353333 73.0120043,14.8365578 71.007768,12.4940983 C68.0579244,9.04645634 64.7047689,6.07730695 61.0308098,6.07730695 C57.3568506,6.07730695 58.1929403,7.01777896 55.7087459,7.62605914 C53.9896204,8.04700443 48.7241389,7.96839685 41.7499259,6.07730716 C34.775713,4.18621748 34.3986506,3.43870816 29.3423055,4.90989274 C24.2859603,6.38107732 19.9770261,10.8097979 19.9770261,10.8097979 C19.9770261,10.8097979 15.2446399,18.2679883 11.9039417,22.2287036 C8.56324347,26.1894189 5.43952921,33.9345251 11.9172883,44.6565766 C18.8136458,54.303388 23.7354343,53.6744026 26.3611984,51.8638716 C28.1729931,50.6145931 31.9853803,49.1457869 33.7994861,42.9836402 C35.3807361,37.6124569 34.2856088,47.0840706 33.1909095,50.6537348 C33.0297035,51.1794055 28.2901063,54.8545947 28.2901063,54.8545947 C28.2901063,54.8545947 23.4811192,59.2327852 16.4891107,57.9834721 C9.49710212,56.734159 3.42722318,46.3903631 2.094584,42.2610807 C0.761944834,38.1317984 -0.4868941,28.8978287 5.48057982,21.005822 C11.4480537,13.1138153 18.1392785,7.44652725 21.3014559,5.34661131 C23.5817445,3.92712404 24.3109967,2.90613511 27.1619539,1.96015684 C30.0129111,1.01417856 31.8832559,0.127567865 36.5135621,0.127567865 C41.1438683,0.127567865 43.0468539,2.90613524 47.206952,2.90613502 C51.3670502,2.90613479 50.9584819,1.05404587 62.9303975,2.48189647 C74.9023131,3.90974706 83.0644584,16.9877333 83.0644536,26.5443228 C83.0644488,36.1009122 82.4133004,45.0192834 73.9576132,53.8130213 C65.5019261,62.6067593 58.0549204,55.3175737 56.1863929,54.5652972 C54.3178654,53.8130206 52.1116307,50.5031801 45.182311,54.5700639 C38.2529913,58.6369477 37.3296478,59.5486902 35.339789,60.3785346 C33.3499302,61.208379 29.3423057,62.4719944 29.3423057,62.4719944 Z M68.5955095,51.4777596 C68.5955095,51.4777596 72.670676,50.8892853 75.2595148,45.0374812 C77.8483537,39.1856771 77.9607889,35.1525942 77.9607889,35.1525942 C77.9607889,35.1525942 74.5614463,40.8219628 73.1386164,44.2466382 C71.7157864,47.6713137 68.5955095,51.4777596 68.5955095,51.4777596 Z M6.29290335,27.9000226 C6.29290335,27.9000226 1.19813614,33.5154405 6.73617274,41.1426338 C5.99695231,35.7595704 6.29290334,36.4046176 6.29290334,34.2940419 C6.29290334,32.1834662 5.98502119,30.0813408 6.29290335,27.9000226 Z" id="Path-11" fill="#F1730A"></path>
                        <path d="M55.0732714,11.2846233 L50.2620601,4.68075935 C50.2620601,4.68075935 45.4857909,5.81198937 38.3671922,15.8606784 C31.2485934,25.9093673 34.1537065,38.305452 31.9834662,44.4757604 C29.8132259,50.6460689 26.419821,56.4866832 21.8823529,58.0735155 C24.4898125,57.8253501 33.617416,54.0170107 35.2655202,49.2463852 C36.9136244,44.4757596 37.5259516,38.1412167 39.6419967,29.5013115 C41.7580417,20.8614063 48.426497,14.2902597 51.0197838,12.4186702 C53.6130707,10.5470808 55.0732714,11.2846233 55.0732714,11.2846233 Z" id="Path" fill="#317549"></path>
                        <path d="M29.1113107,30.9637756 C29.1113107,30.9637756 42.456308,26.3084189 46.5132746,26.3084189 C50.5702411,26.3084189 58.7468637,27.243997 60.0928488,26.4579207 C61.438834,25.6718445 58.9397826,29.4392906 52.9698008,30.6790721 C46.999819,31.9188537 46.5088261,30.7999736 44.1541593,30.7999736 C41.7994924,30.7999736 36.8466852,30.3995687 33.2358192,32.9514998 C29.6249531,35.5034309 30.5430385,34.5240854 29.2690434,33.1153018 C27.9950483,31.7065182 29.1113107,30.9637756 29.1113107,30.9637756 Z" id="Path-5" fill="#317549"></path>
                    </g>
                </g>
            </g>
        </g>
    </g>
</svg>