<svg xmlns="http://www.w3.org/2000/svg" xmlns:xlink="http://www.w3.org/1999/xlink" xmlns:sketch="http://www.bohemiancoding.com/sketch/ns" width="91px" height="82px" viewBox="0 0 91 82" version="1.1"><!-- Generator: Sketch 3.2.2 (9983) - http://www.bohemiancoding.com/sketch --><title>logo_footer</title><desc>Created with Sketch.</desc><defs/><g stroke="none" stroke-width="1" fill="none" fill-rule="evenodd" sketch:type="MSPage"><g sketch:type="MSArtboardGroup" transform="translate(-545.000000, -1972.000000)" fill="#FEFEFE"><g sketch:type="MSLayerGroup" transform="translate(29.000000, 1938.000000)"><g transform="translate(443.500000, 34.500000)" sketch:type="MSShapeGroup"><g transform="translate(73.000000, 0.000000)"><path d="M0.670830682 80 C0.670830682 80 6.1 80.6 7.9 78.7 C9.79428438 76.9 9.6 76 8.6 74.8 C7.72222979 73.6 6.4 73.2 6.4 73.2 C6.42555118 73.2 5.5 72.3 6.4 72.3 C7.24302622 72.3 12.2 74.2 14.6 76.6 C16.9114624 79.1 17.2 80.6 21.9 79.8 C26.6275907 79 27.2 77.3 27.2 76.4 C27.174548 75.6 26.8 74.5 25.4 73.6 C24.0070988 72.6 23.6 72.7 23.6 72.5 C23.5589746 72.3 26.6 72.2 29.2 74.2 C31.8304211 76.2 34.6 79.5 36.9 79.7 C39.2613674 80 43 80.1 44.6 77.9 C46.2325168 75.7 44.4 74.2 43.6 73.5 C42.7304131 72.8 41.9 72.6 41.9 72.2 C41.9275767 71.8 46.4 73 47.6 74.1 C48.7138831 75.2 52.6 79.2 54.1 79.5 C55.6981871 79.7 59.9 80.4 61.9 78.3 C63.8726082 76.1 63.7 75.2 62.6 74.2 C61.4677067 73.2 60.3 72.7 60.1 72.3 C59.8381838 71.9 61.9 72 63.3 72.6 C64.6129553 73.2 68.4 76.1 69.4 77.2 C70.4413489 78.3 71.6 79.7 74 79.7 C76.3333841 79.7 79.2 79.5 80.5 77.8 C81.789463 76.1 82 75.9 80.8 74.4 C79.6664319 73 78.8 73.3 78.4 72.8 C78.0040166 72.3 78.5 71.7 80 72.2 C81.4733976 72.6 84.7 74.3 86.1 75.8 C87.5320143 77.4 88.7 78.5 89.5 79 C90.3355397 79.5 90.8 80.3 90.3 80.3 C89.7412192 80.3 85.9 78 84.7 76.9 C83.5232516 75.8 83.5 76.7 83.2 77.2 C82.8814081 77.8 80.8 80.4 76.1 80.6 C71.4242566 80.9 68.9 78.6 68.2 78.2 C67.5960587 77.8 65.6 75.6 65.3 76 C65.1033416 76.4 63.7 79.9 59.1 80.5 C54.5679307 81.1 51.2 79.6 50 78.4 C48.864188 77.2 47.4 76 47.3 76.2 C47.0810725 76.4 47.5 77.6 45.4 79.1 C43.3120684 80.5 37.8 81.1 35.9 80.4 C33.9587153 79.7 30.8 77.4 30.2 76.9 C29.5439247 76.4 29.4 76 28.9 77.4 C28.4320859 78.7 24.7 80.4 23 80.6 C21.2560359 80.9 17.7 81.2 15.6 79.5 C13.5136224 77.8 12 76.8 11.6 76.5 C11.1268128 76.2 11.6 77.6 10 78.8 C8.39466084 80 6.1 80.7 3.4 80.7 C0.670830682 80.7 0.4 80.8 0.1 80.5 C-0.140066218 80.1 0.7 80 0.7 80 Z"/><g><path d="M9.7 60.1 C9.7 60.1 12.5 61 13.9 61.4 C15.2 61.8 15.7 61.9 15.7 61.9 C15.6 61.9 15.9 63.3 15.9 64.1 C15.9 65 20.6 64.3 22 63 C23.4 61.6 23.7 60.3 23.7 60.1 C23.7 59.8 22.3 59.6 21.8 60.8 C21.2 61.9 20.3 62.7 20 62.7 C19.6 62.7 18.2 62.5 18.2 62.5 C18.1 62.5 18.5 60.7 17.8 60.7 C17.1 60.7 18.3 60.1 18.9 58.9 C19.5 57.8 19.5 55.3 19.5 55.3 C19.4 55.3 21.5 55.4 22.4 54.8 C23.3 54.1 23.9 53 23.4 51.9 C22.9 50.8 22.2 50.1 22.2 50.1 L22.3 49.3 C22.3 49.3 26.1 47.3 27.4 45.9 C28.6 44.5 29.5 41 28.3 39.2 C27 37.5 24.5 35.9 21.1 34.8 C17.6 33.8 9.6 34.9 8.1 35.5 C6.5 36.2 5.5 39.1 6.5 42 C7.6 45 10.2 49 10.2 49 C10.1 49 10.1 49.6 9.5 49.9 C8.9 50.1 7.8 50.9 8.2 51.7 C8.6 52.5 9.5 52.2 9.5 52.2 L9.4 53.2 L11.3 53.9 C11.3 53.9 10.5 56.1 7.7 57.8 C5 59.6 3.8 60.3 3.5 61 C3.3 61.6 3.6 62.4 4 63 C4.4 63.6 5.1 64.4 5.3 64.8 C5.5 65.2 6.5 65.6 6.9 65.2 C7.2 64.8 7.1 64.1 6.5 63.4 C6 62.7 5.9 62.3 5.9 62.3 L9.7 60.1 ZM12.4 50.1 C12.4 50.1 12.8 51.1 12.5 51.8 C12.1 52.5 10.3 51.7 10.3 51.7 L11.2 50 L12.4 50.1 ZM18 51.8 L19.7 50.5 C19.7 50.5 21.1 51.3 21.1 52 C21 52.6 20.3 53.1 19.5 53.1 C18.7 53.1 18.1 51.8 18.1 51.8 ZM19.1 46.6 C19.1 46.6 18.8 47.7 16.6 47.7 C14.4 47.7 14.7 45.8 14.7 45.8 C14.6 45.8 15.1 45.5 15.5 45.8 C15.9 46.2 16.6 46.9 17.6 46.9 C18.5 46.9 19.1 46.6 19.1 46.6 ZM21.4 40.7 C21.4 40.7 22.6 40.2 23.1 40.6 C23.6 41.1 23.6 42 23.3 42.3 C22.9 42.6 22.2 42.9 21.5 42.2 C20.7 41.6 21.4 40.7 21.4 40.7 ZM13.3 39.5 C13.3 39.5 14.9 38.8 15.3 39.5 C15.5 40.1 15.3 40.8 15 41 C14.6 41.2 13.9 41.2 13.6 40.7 C13.3 40.1 13.4 39.5 13.4 39.5 Z"/></g><g><path d="M77.3 59.1 C77.3 59.1 74.6 60 73.2 60.4 C71.8 60.8 71.4 60.9 71.4 60.9 C71.4 60.9 71.2 62.3 71.2 63.1 C71.2 64 66.5 63.3 65.1 62 C63.7 60.6 63.4 59.3 63.4 59.1 C63.4 58.8 64.8 58.6 65.3 59.8 C65.9 60.9 66.8 61.7 67.1 61.7 C67.5 61.7 68.9 61.5 68.9 61.5 C68.9 61.5 68.6 59.7 69.3 59.7 C70 59.7 68.8 59.1 68.2 57.9 C67.6 56.8 67.6 54.3 67.6 54.3 C67.6 54.3 65.6 54.4 64.7 53.8 C63.8 53.1 63.2 52 63.7 50.9 C64.1 49.8 64.9 49.1 64.9 49.1 L64.8 48.3 C64.8 48.3 61 46.3 59.7 44.9 C58.4 43.5 57.6 40 58.8 38.2 C60 36.5 62.6 34.9 66 33.8 C69.5 32.8 77.5 33.9 79 34.5 C80.6 35.2 81.6 38.1 80.6 41 C79.5 44 76.9 48 76.9 48 C76.9 48 77 48.6 77.6 48.9 C78.2 49.1 79.3 49.9 78.9 50.7 C78.4 51.5 77.6 51.2 77.6 51.2 L77.7 52.2 L75.7 52.9 C75.7 52.9 76.6 55.1 79.4 56.8 C82.1 58.6 83.3 59.3 83.6 60 C83.8 60.6 83.5 61.4 83.1 62 C82.7 62.6 82 63.4 81.8 63.8 C81.6 64.2 80.6 64.6 80.2 64.2 C79.9 63.8 80 63.1 80.6 62.4 C81.1 61.7 81.2 61.3 81.2 61.3 L77.3 59.1 ZM74.7 49.1 C74.7 49.1 74.3 50.1 74.6 50.8 C74.9 51.5 76.8 50.7 76.8 50.7 L75.8 49 L74.7 49.1 ZM69.1 50.8 L67.3 49.5 C67.3 49.5 66 50.3 66 51 C66 51.6 66.8 52.1 67.6 52.1 C68.4 52.1 69 50.8 69 50.8 ZM68 45.6 C68 45.6 68.3 46.7 70.5 46.7 C72.7 46.7 72.4 44.8 72.4 44.8 C72.4 44.8 72 44.5 71.6 44.8 C71.2 45.2 70.5 45.9 69.5 45.9 C68.5 45.9 68 45.6 68 45.6 ZM65.7 39.7 C65.7 39.7 64.5 39.2 64 39.6 C63.4 40.1 63.5 41 63.8 41.3 C64.1 41.6 64.9 41.9 65.6 41.2 C66.3 40.6 65.7 39.7 65.7 39.7 ZM73.7 38.5 C73.7 38.5 72.2 37.8 71.8 38.5 C71.5 39.1 71.8 39.8 72.1 40 C72.5 40.2 73.2 40.2 73.5 39.7 C73.7 39.1 73.7 38.5 73.7 38.5 Z"/></g><g><path d="M41.2 37.3 C41.1 37.5 41.1 37.7 41.2 37.9 L41.3 37.6 L41.2 37.3 L41.2 37.3 ZM37.8 62.8 L39.9 63.2 C39.9 63.2 39.6 64.5 40.1 64.8 C40.6 65.2 41.9 64.8 42.1 64.5 C42.3 64.2 42 63.4 42 63.4 L42.4 62.6 L43.4 62.8 C43.4 62.8 43.3 66.1 43.6 66.6 C43.9 67.1 44.9 67.4 45.7 67.4 C46.5 67.4 47.6 66.3 46.9 65.9 C46.2 65.4 45.3 64.6 45.3 64.6 C45.3 64.6 45.6 63.9 45.6 63.3 C45.6 62.8 45.8 62.4 46.4 62.6 C46.9 62.8 47.7 62.7 47.7 62.7 C47.7 62.7 48.7 64.2 48.7 64.9 C48.7 65.6 50 66.9 50.8 67.2 C51.5 67.4 53.4 67.2 53.4 66.4 C53.4 65.7 52.9 64.9 52.5 64.3 C52.1 63.6 51.6 63.1 51.9 62.6 C52.2 62.2 53.4 62 53.8 62.7 C54.3 63.3 54.5 64.7 54.8 64.7 C55.2 64.7 56.2 64.8 56.4 63.2 C56.6 61.6 55.6 61.2 55.2 60.7 C54.8 60.2 54.6 57.6 54.3 56.2 C54.1 54.9 51.2 44.7 51.2 44.7 C51.2 44.7 49.9 39.7 49.6 35.8 C49.3 31.9 48.5 30.6 49.4 28.9 C50.2 27.2 51.6 24.2 51.6 24.2 L51.8 28 L52.2 29.6 C52.2 29.6 52 31.5 52.6 31.8 C53.2 32.2 56.1 31.8 57.4 31.1 C58.6 30.4 59.5 30.1 59.2 29.5 C59 28.9 57.6 28.8 56.7 29.2 C55.8 29.5 54.9 29.7 54.9 29.7 L54.1 29.5 L54.2 25.1 C54.2 25.1 54.5 23.2 55 21.8 C55.5 20.3 55.7 17.3 55.7 16.8 C55.7 16.2 55.3 15.6 55.3 15.6 C55.3 15.6 53.3 15.9 52.1 15.6 C50.8 15.3 49 14.5 48.4 14.5 C47.7 14.5 47.4 13.3 47 12.8 C46.6 12.4 46 12.1 46 12.1 C46 12.1 46.4 11.8 47.1 11.5 C47.7 11.2 48.3 11.2 48.6 10.9 C48.9 10.5 49 9.5 49.2 9 C49.4 8.4 49.7 8.3 50.2 8.3 C50.8 8.3 50.9 7.2 50.6 6.8 C50.4 6.4 49.7 6.3 50.2 5.6 C50.6 4.9 51.2 5.1 51.2 3.4 C51.2 1.7 48.1 0.1 46.2 0.1 C44.2 0.1 41.6 1.3 41.3 2 C41 2.6 41.4 3.5 40.9 4 C40.4 4.6 40 5.1 40.3 5.8 C40.5 6.5 41.7 8.3 41.7 9.9 C41.7 11.5 42 12.9 41.2 13.6 C40.3 14.2 39.2 15.2 38.3 15.2 C37.3 15.2 34.5 14.7 33.4 15.4 C32.2 16.1 31.4 16.2 30.8 16.9 C30.2 17.6 30.5 25.3 30.5 25.3 C30.5 25.3 30.4 29 30 29.3 C29.7 29.7 28.2 29.6 28.2 29.6 L27.1 29.5 C27.1 29.5 27.1 28.4 26.4 28.2 C25.7 28 25 27.9 24.7 28.7 C24.5 29.5 24.6 31 25 31 C25.4 31 27.6 31.6 28.7 31.9 C29.7 32.2 31.4 33 32.4 32.2 C33.4 31.5 33.8 29.7 33.8 27.1 C33.8 24.5 33.3 23.7 33.7 23.2 C34.1 22.6 34.6 23.5 34.9 24.2 C35.2 24.8 36.7 27.6 36.7 28.6 C36.6 29.5 36.9 30.4 36.6 32.6 C36.3 34.8 36.4 36 36.2 36.5 C35.9 36.9 35.1 39.6 35.1 43.2 C35.1 46.9 33.8 51.4 34.6 54.6 C35.4 57.7 35.7 57.4 35.4 59.1 C35.1 60.9 34.3 62.3 34.8 62.7 C35.4 63.2 36.1 63.8 37 63.8 C37.8 63.8 37.8 62.8 37.8 62.8 ZM46.7 4.9 C46.7 4.9 46.1 5.6 45.4 5.9 C44.6 6.3 44.2 6.4 44.7 6.6 C45.1 6.7 45.6 7 46.2 6.8 C46.7 6.6 47.1 6.2 47.1 5.7 C47.1 5.3 46.7 4.9 46.7 4.9 ZM49.2 18.6 L50.9 19.4 C50.9 19.4 51.9 19.9 51.6 20.4 C51.3 20.9 50.7 21 50.7 21 C50.7 21 50.6 19.8 50 19.8 C49.4 19.8 49 19.5 49 19.1 C49 18.8 49.2 18.6 49.2 18.6 ZM34.2 18.5 C34.2 18.5 35 17.7 36.7 18 C38.5 18.2 38.9 18.9 38.9 19.3 C38.9 19.8 38.3 19.7 38 19.3 C37.7 18.9 36.8 18.7 36.4 19 C35.9 19.3 35.8 19.8 35.2 19.4 C34.6 19 34.2 18.5 34.2 18.5 ZM44.7 17.4 C44.7 17.4 44.3 20.8 44.5 22.3 C44.7 23.9 44 25.5 44.4 28.4 C44.7 31.2 45.2 36.1 45.2 38.1 C45.2 40.1 44.8 42.2 44.8 44.7 C44.8 47.2 45.6 50.9 45.6 51.9 C45.6 53 46.1 56.9 46.1 56.9 C46.1 56.9 46.5 58.9 46.3 58.9 C46.1 58.9 45.3 59.7 44.7 59.5 C44.1 59.2 44.1 53.7 44.1 53.7 C44.1 53.7 43.6 48.1 43.6 42.5 C43.6 36.8 43.3 33.3 43 31.8 C42.7 30.3 42.3 30.1 42.5 28.4 C42.7 26.6 43.7 25.2 43.7 23.8 C43.7 22.3 42.5 21.8 43.1 20.5 C43.7 19.1 43.2 18.3 43.8 17.6 C44.3 17 44.7 17.4 44.7 17.4 ZM41.4 56.7 C41.4 56.7 41.3 57.3 41.8 57.3 C42.2 57.3 42.4 56.7 42.4 56.7 L41.4 56.7 ZM41.9 58.8 L42.9 59 L42.7 59.4 L42 59.3 L41.9 58.8 ZM39.3 54.7 L40.7 54.7 L40.6 55.1 L39.3 54.7 ZM40.5 50.6 L41.8 50.6 L41.6 51.3 L40.5 50.6 ZM40.5 40.3 L41.8 40.3 L41.7 41.3 L41.1 40.7 L40.5 40.3 ZM41.2 37.3 C41.3 37.1 41.5 36.9 41.5 36.9 L41.3 37.6 L41.4 38 L41.7 37.9 L41.7 36.8 L41.2 36.9 L41.2 37.3 L41.2 37.3 ZM41.2 22.7 L41.4 23.1 L41.6 22.8 L41.2 22.7 ZM11.2 12.8 C11.2 12.8 11.8 12.5 12.3 12.6 L11.2 12.8 Z"/></g><g><path d="M63.5 18.3 C63.5 18.3 63.7 17.8 64 17.8 C64.4 17.8 64.6 18.6 64.6 18.6 L64 18.9 L63.5 18.3 ZM69.6 9.4 C69.6 9.4 70.4 8 71.2 8.5 C72 9 72.1 9.8 71.7 10.2 C71.2 10.6 70.6 10.7 70.1 10.3 C69.6 9.9 69.6 9.4 69.6 9.4 ZM76.3 20.1 C76.3 20.1 77.1 19.7 77.6 19.7 C78.1 19.7 78.3 20 78.1 20.3 C77.9 20.6 77 21 77 21 L76.3 20.1 ZM25.7 9.3 C25.7 9.3 26.5 8.4 27.4 8.9 C28.3 9.3 28.4 9.8 28.1 10.3 C27.9 10.7 26.7 11.5 26.1 10.9 C25.5 10.3 25.7 9.3 25.7 9.3 ZM11.3 13 C11.3 13 11.6 12.4 12 12.7 C12.4 13 12.5 13.6 12.3 13.6 C12 13.6 11.3 13.5 11.3 13.5 L11.3 13 Z"/></g></g></g></g></g></g></svg>