<?xml version="1.0" encoding="UTF-8" standalone="no"?>
<svg width="130px" height="126px" viewBox="0 0 130 126" version="1.1" xmlns="http://www.w3.org/2000/svg" xmlns:xlink="http://www.w3.org/1999/xlink" xmlns:sketch="http://www.bohemiancoding.com/sketch/ns">
    <!-- Generator: Sketch 3.2.2 (9983) - http://www.bohemiancoding.com/sketch -->
    <title>logo</title>
    <desc>Created with Sketch.</desc>
    <defs></defs>
    <g id="Blank-Project" stroke="none" stroke-width="1" fill="none" fill-rule="evenodd" sketch:type="MSPage">
        <g id="Producto-SuperShake-9" sketch:type="MSArtboardGroup" transform="translate(-466.000000, -1102.000000)">
            <g id="logo" sketch:type="MSLayerGroup" transform="translate(470.000000, 1117.000000)">
                <g id="completo" transform="translate(0.000000, 60.000000)" sketch:type="MSShapeGroup">
                    <g id="energyfruits" transform="translate(24.288321, 30.007932)" fill="#317549">
                        <g id="energy" transform="translate(0.000000, 1.714739)">
                            <path d="M7.04339813,0.0266367684 C7.04339813,0.0266367684 5.82259414,0.266255294 4.54292858,0.632352817 C3.26326303,0.99845034 1.62645062,7.15716621 1.25171603,8.30257569 C0.87698145,9.44798518 -0.0949421888,12.4395858 0.0369219623,12.8638051 C0.168786113,13.2880243 0.737251256,13.5140885 1.82026971,13.0016065 C2.90328816,12.4891245 4.1987736,11.5766693 4.37085117,11.3000198 C4.54292873,11.0233702 4.48220047,10.5827543 4.00194972,10.6904662 C3.52169897,10.7981781 2.36319295,11.2612086 2.36319295,11.2612086 L1.74452737,11.5378582 L3.263263,7.78329083 C3.263263,7.78329083 6.53969793,6.26619153 7.16366934,5.96383064 C7.78764075,5.66146975 7.80686026,5.29953137 7.25202285,5.44621147 C6.79766801,5.55118481 3.73636542,6.33410756 3.73636542,6.33410756 L4.85110948,2.59859701 C4.85110948,2.59859701 4.93251134,2.19029461 5.52563468,2.04664964 C6.11875802,1.90300467 7.78402922,1.27400191 7.78402922,1.27400191 C7.78402922,1.27400191 7.9511575,0.727505619 7.58234424,0.377071193 C7.21353097,0.0266367684 7.04339813,0.0266367684 7.04339813,0.0266367684 Z" id="Path-879"></path>
                            <path d="M14.4154396,6.97165653 C14.4154396,6.97165653 14.6573379,4.96716813 15.6321781,4.06831866 C16.6070183,3.16946918 17.1243995,3.24613217 17.7558803,3.36945578 C18.3873611,3.49277939 19.081769,4.75156981 18.5614713,5.44179833 C18.0411735,6.13202685 16.0728447,6.65715515 16.0728447,6.65715515 C16.0728447,6.65715515 15.4699993,7.94716912 15.9224206,8.24126179 C16.3748419,8.53535446 16.9610718,7.98502092 17.8630862,7.69188736 C18.7651006,7.3987538 19.013981,7.17835877 19.013981,7.17835877 C19.013981,7.17835877 18.6086666,8.63635067 17.7942376,8.92852492 C16.9798085,9.22069918 16.7928831,9.54479426 15.453207,9.15075163 C14.1135308,8.756709 14.4154396,6.97165653 14.4154396,6.97165653 Z M16.3374569,5.86793636 C16.3374569,5.86793636 17.1823773,5.46613163 17.6742164,5.25646405 C18.1660556,5.04679646 18.2535526,4.3091224 17.7489866,4.14794699 C17.2444206,3.98677157 16.8746354,4.38761692 16.5529292,4.96908689 C16.2312231,5.55055685 16.3374569,5.86793636 16.3374569,5.86793636 Z" id="Path-877"></path>
                            <path d="M28.8383612,2.53750108 C28.8383612,2.53750108 26.1747407,1.77837185 24.8408976,4.72636439 C23.5070546,7.67435692 25.4143123,8.58288744 25.6307568,8.58288738 C25.8472014,8.58288733 27.0305319,8.2372499 27.5410194,7.09384633 C28.0515069,5.95044277 26.3209856,10.4079602 25.6307568,12.778169 C24.9405281,15.1483778 24.5874863,16.6813409 23.4970901,16.7968873 C23.0225299,16.8471751 22.057016,16.3291478 21.7037753,15.6942802 C21.3476773,15.0542769 21.610156,14.3715267 21.5194632,13.7028132 C20.9686373,15.7016555 21.7838315,17.3045524 23.9585739,17.7749331 C25.5967007,17.8312034 26.3566282,16.2924448 27.3716818,12.5611641 C28.3867354,8.82988342 30.4278013,3.57170998 30.2310658,3.17862688 C30.0343302,2.78554377 29.1745616,2.24271056 29.0064614,2.24271055 C28.8383613,2.24271054 28.8383612,2.53750108 28.8383612,2.53750108 Z M28.6248331,3.42300648 C28.6248331,3.42300648 26.7795305,3.71709929 26.2936128,5.26143537 C25.8076952,6.80577144 25.9788888,7.34058078 26.2680708,7.51728066 C26.5572527,7.69398055 27.5143284,6.50400362 27.9402355,5.12075574 C28.3661426,3.73750786 28.6248331,3.42300648 28.6248331,3.42300648 Z" id="Path-875"></path>
                            <path d="M31.7650029,1.70790122 L33.1785654,2.78440995 C33.1785654,2.78440995 32.4368737,4.96838916 32.4368737,6.80681804 C32.4368737,8.64524692 34.4493929,3.7890526 34.4493929,3.7890526 L35.045433,1.93893675 L36.2533334,2.9241302 C36.2533334,2.9241302 34.996205,9.3333585 34.0873849,11.903377 C33.5650435,13.3804867 31.6432946,13.8852598 29.7163926,13.7930803 C28.7741472,13.7886149 26.6705777,13.4016078 25.3060846,12.6175464 C22.4776222,11.5331824 21.408313,13.6043394 21.6933638,13.2780507 C21.9784145,12.9517621 22.0887206,11.5303776 25.8657119,12.2030323 C29.6427033,12.875687 31.4237649,13.088901 32.3935671,11.2932759 C33.3633694,9.4976508 34.0873851,5.31803864 34.0873851,5.31803864 C34.0873851,5.31803864 32.9030824,7.70688854 32.3935671,7.92335898 C31.8840519,8.13982943 31.0351545,8.05723575 31.0351543,6.74881931 C31.035154,5.44040287 31.2743126,4.14672596 31.4237646,3.28773426 C31.5732167,2.42874256 31.7650029,1.70790122 31.7650029,1.70790122 Z" id="Path-874"></path>
                        </g>
                        <g id="fruits" transform="translate(6.182482, 0.000000)">
                            <g id="F" transform="translate(31.098848, 0.169532)">
                                <path d="M1.45780505,6.49700154 C1.45780505,6.49700154 5.37994584,5.29804655 6.57230231,5.29804655 C7.76465879,5.29804655 10.5356356,5.57211813 10.9312253,5.36966963 C11.326815,5.16722112 10.2244959,6.10438095 8.46989764,6.42367813 C6.71529939,6.74297531 6.57099489,6.45481547 5.87895017,6.45481547 C5.18690545,6.45481547 3.73125833,6.35169396 2.67001234,7.0089262 C1.60876635,7.66615844 1.87859479,7.41393477 1.50416324,7.05111227 C1.12973169,6.68828977 1.45780505,6.49700154 1.45780505,6.49700154 Z" id="Path-9"></path>
                                <path d="M10.6678427,1.73086812 L9.19312425,0.0300885284 C9.19312425,0.0300885284 7.72911614,0.321429014 5.54714399,2.90939954 C3.36517183,5.49737006 4.63392946,7.80991481 3.59042292,10.2790165 C2.54691637,12.7481182 1.3723961,12.8228965 0.329435978,13.4020757 C1.98518927,13.4267219 4.09125644,12.7362997 4.59642854,11.507658 C5.10160065,10.2790163 5.28928939,8.64759846 5.93789335,6.42245049 C6.5864973,4.19730252 8.63049279,2.50494904 9.42537952,2.02293409 C10.2202662,1.54091914 10.6678427,1.73086812 10.6678427,1.73086812 Z" id="Path"></path>
                            </g>
                            <path d="M40.844012,5.6075962 C42.8717763,5.6868495 43.4858617,4.50055949 43.4858617,4.50055949 C43.4858617,4.50055949 44.7952694,4.73217298 44.7952694,5.08644492 C44.7952694,5.44071685 44.5828019,6.46480869 44.5828019,6.46480869 C44.5828019,6.46480869 45.1321838,5.6489192 45.6317067,5.17812652 C46.1312297,4.70733383 46.8176872,4.28658575 46.8176872,4.28658575 L48.03637,5.28739089 C48.03637,5.28739089 47.5238498,6.84725144 47.1707685,6.84725144 C46.8176872,6.84725144 46.2107762,5.89206034 46.2107762,5.89206034 L46.6002704,4.99425746 C46.6002704,4.99425746 45.2047036,5.57402987 44.5362926,7.09714964 C44.0973641,8.81183463 44.189375,9.943656 44.0755719,10.2338245 C43.6756877,10.3938343 42.7558505,10.3323087 42.5413503,10.2409934 C42.373437,10.1695107 42.564171,8.7736842 42.594941,8.48865907 C42.7366154,7.17631791 43.2254496,5.42998927 43.2254496,5.42998927 C43.2254496,5.42998927 40.0874056,6.72132006 39.0762409,6.53197384 C38.5091579,6.4257844 39.7665732,5.90276585 40.844012,5.6075962 Z" id="Path-872"></path>
                            <path d="M13.066812,5.48728151 C13.7994343,5.59241663 14.3398763,4.50055949 14.3398763,4.50055949 C14.3398763,4.50055949 15.649284,4.73217298 15.649284,5.08644492 C15.649284,5.44071685 15.4368165,6.46480869 15.4368165,6.46480869 C15.4368165,6.46480869 15.9861984,5.6489192 16.4857213,5.17812652 C16.9852443,4.70733383 17.6717018,4.28658575 17.6717018,4.28658575 L18.8903846,5.28739089 C18.8903846,5.28739089 18.3778644,6.84725144 18.0247831,6.84725144 C17.6717018,6.84725144 17.0647908,5.89206034 17.0647908,5.89206034 L17.454285,4.99425746 C17.454285,4.99425746 16.0587182,5.57402987 15.3903072,7.09714964 C14.9513787,8.81183463 15.0433896,9.943656 14.9295865,10.2338245 C14.5297023,10.3938343 13.6098651,10.3323087 13.3953649,10.2409934 C13.2274516,10.1695107 13.4181856,8.7736842 13.4489556,8.48865907 C13.59063,7.17631791 14.0794642,5.42998927 14.0794642,5.42998927 C14.0794642,5.42998927 13.2777165,5.71136239 13.066812,5.48728151 Z" id="Path-873"></path>
                            <path d="M48.3743382,5.0728392 C48.3743382,5.0728392 48.7560548,4.71752067 49.5271773,4.89517993 C50.2982998,5.0728392 50.4330805,5.50185536 50.4330805,5.50185536 C50.4330805,5.50185536 50.4489007,5.58924598 50.2481879,7.04523206 C50.0474751,8.50121814 49.794706,9.4388789 49.794706,10.2309758 C49.794706,11.0230726 51.8121745,7.95768725 51.8121745,7.95768725 L52.4160805,4.93599708 L53.6623381,5.67463052 C53.6623381,5.67463052 52.8774282,9.22816473 52.8774282,9.81451874 C52.8774282,10.4008727 54.1551494,8.49345596 54.1551494,8.49345596 C54.1551494,8.49345596 53.9584138,10.2242602 52.8174177,10.8211674 C51.6764216,11.4180745 51.6518517,10.5823696 51.6518517,10.3290067 C51.6518517,10.0756438 51.7059408,9.11469648 51.7059408,9.11469648 C51.7059408,9.11469648 50.5108556,10.5987663 49.8114983,10.9463225 C49.1121411,11.2938787 48.674391,11.0112986 48.3871534,10.7813096 C48.0999158,10.5513206 48.558347,8.10612911 48.558347,8.10612911 C48.558347,8.10612911 49.1633136,5.59308345 49.0068796,5.42711113 C48.8504455,5.26113882 48.3743382,5.0728392 48.3743382,5.0728392 Z" id="Path-871"></path>
                            <path d="M7.26313781,12.1583595 C7.26313781,12.1583595 6.88142114,12.526368 6.11029867,12.3423637 C5.33917621,12.1583595 5.20439549,11.7140213 5.20439549,11.7140213 C5.20439549,11.7140213 5.18857533,11.6235096 5.38928812,10.115524 C5.59000091,8.60753846 5.84277,7.63638982 5.84277,6.81600377 C5.84277,5.99561773 3.82530151,9.17048117 3.82530151,9.17048117 L3.22139552,12.3000888 L1.97513788,11.5350756 C1.97513788,11.5350756 2.76004775,7.8546295 2.76004775,7.24733428 C2.76004775,6.93823791 2.28968881,7.34390695 1.77270352,7.68828783 C1.27394508,8.02052721 0.727905943,8.28665765 0.727905943,8.28665765 L0.324753927,8.23076726 C0.324753927,8.23076726 0.354052721,8.06117276 0.526347585,7.88210201 C0.868033583,7.83569281 1.29078451,7.43782534 1.7187157,7.09736052 C2.17648746,6.73315434 2.5995256,6.32422504 2.82005831,6.20473392 C3.96105442,5.58650865 3.98562428,6.45206013 3.98562428,6.71447173 C3.98562428,6.97688333 3.93153523,7.97215018 3.93153523,7.97215018 C3.93153523,7.97215018 5.12662039,6.43507791 5.82597765,6.07510895 C6.5253349,5.71513998 6.963085,6.0078123 7.25032259,6.24601519 C7.53756019,6.48421808 7.07912898,9.01673782 7.07912898,9.01673782 C7.07912898,9.01673782 6.4741624,11.6195351 6.63059643,11.791435 C6.78703047,11.9633349 7.26313781,12.1583595 7.26313781,12.1583595 L7.26313781,12.1583595 Z" id="Path-876"></path>
                            <path d="M54.8691555,5.63102245 C54.8691555,5.63102245 55.2054445,4.97873299 55.5645357,4.97873299 C55.9236268,4.97873299 56.6987265,5.89799104 56.6987265,5.89799104 C56.6987265,5.89799104 55.7067846,9.90199652 55.8311805,10.5406803 C55.9555765,11.179364 57.0419975,9.79716273 57.0419975,9.79716273 C57.0419975,9.79716273 56.827674,10.7444172 56.1961049,11.153112 C55.5645357,11.5618068 54.9243052,11.4161558 54.6911566,11.1812828 C54.4580081,10.9464097 54.2543787,10.0136332 54.6557159,8.54787883 C55.0570531,7.08212449 55.30885,5.70376071 55.30885,5.70376071 L54.8691555,5.63102245 Z M56.3209869,2.25889786 L57.3488556,3.13637938 C57.3488556,3.13637938 56.9004114,3.6246153 56.2413558,3.6246153 C55.5823002,3.6246153 55.3953748,3.54210884 55.3953748,3.54210884 L56.3209869,2.25889786 Z" id="Path-870"></path>
                            <path d="M58.9681132,5.29323437 C59.1561876,5.29323437 60.3186602,5.75626482 60.3186602,5.75626482 L60.177958,6.26098459 L61.999663,6.46288994 L62.1020079,6.97833729 L60.0432656,6.98514015 C60.0432656,6.98514015 59.3664455,10.231063 59.5376391,11.3026876 C59.7088327,12.3743123 61.3200146,9.75922371 61.3200146,9.94368583 C61.3200146,10.128148 60.9167331,11.3278059 60.2271861,11.7355413 C59.5376391,12.1432767 59.5445328,12.1695288 58.5795912,11.8433404 C57.6146497,11.5171521 58.2579735,9.5894139 58.2579735,9.5894139 L58.666116,7.05500027 L57.3480932,7.0394758 L57.4119925,6.21920806 L58.7527292,6.30563925 C58.7527292,6.30563925 58.7800389,5.29323437 58.9681132,5.29323437 Z" id="Path-869"></path>
                            <path d="M61.7491082,9.16834605 C61.7491082,9.16834605 62.8409598,7.53156667 63.5334234,6.90856438 C64.2258869,6.28556209 64.2505452,5.99610919 64.6262519,5.99610919 C65.0019587,5.99610919 65.5213727,6.47754225 65.6216849,6.69305331 C65.7219971,6.90856438 65.2438569,7.78691806 64.9350544,8.14223659 C64.6262519,8.49755512 64.1048936,9.22354222 64.6360622,10.3301405 C65.1672308,11.4367388 65.767248,11.6792869 65.767248,12.1598478 C65.767248,12.6404087 65.7071491,13.0159614 64.8297929,13.2178667 C63.9524367,13.4197721 63.3091129,13.6819438 62.4504051,13.263568 C61.5916972,12.8451922 61.2248285,11.8279032 61.2248285,11.8279032 C61.2248285,11.8279032 61.9832241,12.6011041 62.8409598,12.6943381 C63.6986954,12.7875721 64.1408798,12.3617531 64.1408798,12.3617531 C64.1408798,12.3617531 62.1484962,9.75405472 62.8409598,8.38633131 C62.450405,8.54550076 61.7491082,9.16834605 61.7491082,9.16834605 Z" id="Path-868"></path>
                        </g>
                    </g>
                    <g id="superfoods" transform="translate(0.000000, 10.288434)" fill="#317549">
                        <path d="M120.87756,7.08511757 L118.898035,4.58790351 C118.898035,4.58790351 116.932887,5.01567178 114.00401,8.81552709 C111.075133,12.6153824 112.270413,17.3028922 111.377489,19.6361597 C110.484565,21.9694272 108.980273,22.4292305 108.780255,22.7574519 C108.580238,23.0856732 107.950399,23.5326951 108.678416,23.9176129 C109.406434,24.3025308 112.049762,23.2441299 112.727858,21.4401446 C113.405954,19.6361594 113.65789,17.2407875 114.528516,13.9736559 C115.399141,10.7065243 118.142811,8.22168208 119.209793,7.51395104 C120.276775,6.80622 120.87756,7.08511757 120.87756,7.08511757 Z" id="Path-12"></path>
                        <path d="M12.6841297,3.1757016 L10.7046046,0.678487538 C10.7046046,0.678487538 8.73945604,1.10625582 5.81057925,4.90611113 C2.88170246,8.70596644 4.07698243,13.3934762 3.1840586,15.7267437 C2.29113477,18.0600112 0.786842538,18.5198145 0.586824839,18.8480359 C0.386807139,19.1762572 -0.243031971,19.6232791 0.484985586,20.008197 C1.21300314,20.3931148 3.85633101,19.334714 4.53442713,17.5307287 C5.21252324,15.7267434 5.46445919,13.3313716 6.3350849,10.0642399 C7.20571062,6.79710832 9.94938034,4.31226612 11.0163625,3.60453508 C12.0833446,2.89680404 12.6841297,3.1757016 12.6841297,3.1757016 Z" id="Path-13"></path>
                        <path d="M96.1928463,1.05741987 C96.1928463,1.05741987 92.0172889,10.3412419 93.84831,14.7432868 C95.6793312,19.1453317 98.6111386,14.2655696 99.8405824,13.1203646 C101.070026,11.9751596 102.569417,7.52215097 102.569417,5.07634526 C102.569416,2.63053956 102.085482,1.59847353 101.01451,1.13638679 C99.9435383,0.674300054 98.8498015,1.05741986 98.8498015,1.05741986 C98.8498015,1.05741986 100.99483,2.33752323 99.8405826,6.28225429 C98.6863357,10.2269853 98.6111386,10.1833611 96.8958505,12.4665519 C95.1805624,14.7497427 95.0729073,13.3328734 95.0729073,12.4665515 C95.0729073,11.6002295 95.8149851,7.63169254 96.8958505,5.0763453 C97.9767159,2.52099806 99.1995637,1.13479587 98.6111387,0.61312236 C98.0227136,0.0914488448 96.1928463,1.05741987 96.1928463,1.05741987 Z" id="Path-25"></path>
                        <path d="M87.4148276,0.773318531 C87.4148276,0.773318531 83.7952115,8.82107547 85.3824472,12.637024 C86.9696828,16.4529726 89.511144,12.222911 90.5768974,11.2301807 C91.6426508,10.2374503 92.9424101,6.37732347 92.9424096,4.25715682 C92.9424091,2.13699018 92.5229066,1.24233532 91.5945261,0.841771658 C90.6661456,0.441207994 89.7180309,0.773318523 89.7180309,0.773318523 C89.7180309,0.773318523 91.577466,1.88298658 90.5768976,5.30250891 C89.5763293,8.72203123 89.511144,8.68421521 88.0242325,10.6634178 C86.537321,12.6426203 86.4439993,11.4143957 86.4439993,10.6634174 C86.4439993,9.91243918 87.0872755,6.47228048 88.0242325,4.25715686 C88.9611895,2.04203324 90.0212252,0.840392555 89.5111441,0.38817561 C89.001063,-0.0640413357 87.4148276,0.773318531 87.4148276,0.773318531 Z" id="Path-27"></path>
                        <path d="M105.172999,1.5360718 C105.172999,1.5360718 104.219428,10.6555075 100.605576,17.2232394 C99.5935727,19.0285717 99.5569912,19.1755306 99.3769011,19.5802005 C99.7016758,19.7550802 100.336767,19.5790464 101.085918,19.3611066 C101.592043,19.2138669 102.194258,18.9847159 102.798087,18.9847159 C107.402695,18.9847159 109.323392,14.8526563 110.190174,13.5623367 C111.17997,12.0888939 111.302756,10.1692487 111.302755,7.60551802 C111.302755,5.04178731 110.345293,3.08890423 109.222684,2.60453788 C108.100076,2.12017154 106.953604,2.52176354 106.953604,2.52176354 C106.953604,2.52176354 108.83111,4.47567009 108.83111,8.54085005 C108.831111,12.60603 105.401594,17.223239 102.368296,17.223239 C104.111039,14.2573189 105.389842,13.8917712 106.703434,10.6555075 C108.017026,7.41924376 107.32023,2.60287026 106.703434,2.05604415 C106.086638,1.50921805 105.172999,1.5360718 105.172999,1.5360718 Z" id="Path-26"></path>
                        <path d="M12.8197277,3.44584875 C12.8197277,3.44584875 10.5689134,6.43869052 9.84163513,11.9062244 C9.11435685,17.3737582 9.83148466,19.1559177 10.7230885,19.8153071 C11.6146924,20.4746965 14.9896718,21.2305702 16.6522779,17.3029722 C18.314884,13.3753742 18.1475827,9.70914567 18.8837344,7.74946622 C19.6198861,5.78978677 20.3600971,5.09388843 21.235118,4.42108587 C22.1101389,3.74828331 22.3591195,4.9429031 24.0346728,2.79852992 C23.8805401,2.52285435 20.6103284,2.39998651 19.265755,3.49636607 C17.9211816,4.59274562 16.5763975,6.19359927 16.0633659,10.0706872 C15.5503342,13.9477752 15.0570382,16.2446271 13.9481701,17.4009596 C12.8393019,18.5572921 11.956744,18.6074597 11.8799069,17.158342 C11.8030698,15.7092243 12.0295353,12.282384 12.7096738,9.57646432 C13.3898122,6.87054467 14.2896267,5.57227142 14.5266563,5.30820277 C13.9389403,4.68241831 12.8197277,3.44584875 12.8197277,3.44584875 L12.8197277,3.44584875 Z" id="Path-501"></path>
                        <path d="M22.4578601,2.65036318 C22.4578601,2.65036318 24.6551143,2.35438824 26.1613853,3.74844764 C27.6676563,5.14250705 27.6409127,7.01353744 27.4464552,8.09046616 C27.2519978,9.16739488 25.8944519,11.3169934 25.2878277,11.8628534 C24.6812034,12.4087135 23.8801034,13.0636066 23.0266222,13.3769999 C22.173141,13.6903932 21.6896192,13.5484516 21.6896192,13.5484516 C21.6896192,13.5484516 21.4856852,15.2590761 20.9386324,17.1445708 C20.3915795,19.0300655 19.453329,20.281947 19.1618546,20.2970452 C18.8703803,20.3121434 18.2360563,20.2429838 18.5656061,18.4136704 C19.5535148,15.8960777 19.861517,11.4421204 20.6633343,8.47653687 C21.4651517,5.51095328 22.4578601,2.65036318 22.4578601,2.65036318 L22.4578601,2.65036318 Z M24.2759605,4.6613899 C24.2759605,4.6613899 25.4259945,4.89370342 25.4418004,6.55289718 C25.2876843,7.91686435 24.5970745,9.24566268 24.1790064,9.99819237 C23.7672875,10.9062831 22.111508,11.3104256 22.0692921,11.3000753 C22.0270761,11.289725 22.8923196,7.83935953 23.1698482,7.04997242 C23.4473767,6.26058531 24.2759605,4.6613899 24.2759605,4.6613899 L24.2759605,4.6613899 Z" id="Path-507"></path>
                        <path d="M30.6323469,1.56897665 C30.6323469,1.56897665 28.8934076,6.34638488 28.0843045,10.0052295 C27.2752014,13.6640742 26.6644552,16.4391749 26.3958077,17.1375477 C26.1271601,17.8359205 26.3691325,18.166408 26.6870848,18.1664075 C27.005037,18.166407 29.1213472,17.0960509 30.0288066,16.465515 C30.936266,15.8349791 32.6767224,15.7215454 33.0017545,14.8076107 C33.3267865,13.8936761 33.0102247,13.3308533 32.5642067,13.3308533 C32.1181888,13.3308533 31.7663554,13.7994991 31.1993511,14.0166771 C30.6323468,14.2338551 28.858262,14.6526796 28.66964,14.806244 C28.4810179,14.9598084 28.9438501,14.5063206 29.405418,12.6657783 C29.866986,10.8252359 30.0020051,10.3758477 30.0020051,10.3758477 C30.0020051,10.3758477 31.8312103,10.474 32.323625,10.3205594 C32.8160398,10.1671187 33.2803891,9.62367823 33.4126271,9.28349948 C33.5448651,8.94332074 33.2395548,8.59196033 32.5233723,8.72341012 C31.8071898,8.85485991 30.4832949,8.46908382 30.4832949,8.46908382 C30.4832949,8.46908382 31.7635741,4.15609758 32.1434732,3.86437396 C32.5233723,3.57265033 33.0256486,3.58370809 33.924764,3.28776021 C34.8238795,2.99181234 35.8482801,2.66405822 35.3698979,2.03911378 C34.8915157,1.41416934 35.0827928,1.45989092 33.1410719,1.3270747 C31.1993511,1.19425849 30.6323469,1.56897665 30.6323469,1.56897665 Z" id="Path-503"></path>
                        <path d="M37.4017417,0.274432834 C37.4017417,0.274432834 39.2363189,0.0273112855 40.493966,1.19126834 C41.7516131,2.35522539 41.7292838,3.91742497 41.5669233,4.81659668 C41.4045628,5.71576839 40.2710925,7.51055584 39.7645971,7.96631665 C39.4340627,8.26374217 39.0343764,8.59993774 38.5985112,8.87035773 C38.4460462,8.96495023 40.2413038,9.33557212 39.8208307,10.4979823 C39.6967438,10.8410242 39.5520176,11.4914334 39.4564201,12.0750752 C39.993202,11.73313 40.0947115,11.6644316 40.5390565,11.5610542 C40.6841405,12.2544632 40.8888188,12.4515878 40.9465251,12.7994163 C40.197222,13.2194329 39.9752097,13.1630952 38.3466127,14.0633087 C37.9043311,13.4519961 38.2823037,11.0283634 38.2826011,10.9994672 C38.295398,9.75623345 36.6533753,10.1202811 36.6533753,10.1202811 C36.6533753,10.1202811 36.5900333,10.8019615 36.1332766,12.3762379 C35.6765199,13.9505143 34.8931362,14.9957613 34.6497724,15.0083673 C34.4064086,15.0209734 33.8767856,14.9632293 34.1519401,13.4358609 C34.9767855,11.3338201 35.233949,7.61502954 35.903419,5.13894286 C36.572889,2.66285618 37.4017417,0.274432834 37.4017417,0.274432834 L37.4017417,0.274432834 Z M38.919748,1.95352106 C38.919748,1.95352106 39.8799582,2.14748909 39.8931552,3.53281763 C39.7644774,4.67164945 39.1878591,5.78111737 38.838797,6.40943509 C38.4950361,7.16763709 37.1613621,7.42939837 37.0751639,7.51061228 C36.9889656,7.5918262 37.7644898,4.60693751 37.9962097,3.94784602 C38.2279295,3.28875453 38.919748,1.95352106 38.919748,1.95352106 L38.919748,1.95352106 Z" id="Path-508"></path>
                    </g>
                    <g id="fruta" transform="translate(42.753325, 0.000000)">
                        <path d="M14.4810495,29.0776088 C14.4810495,29.0776088 16.3423048,25.8443389 20.7513116,23.489518 C22.4643553,22.5745928 23.149391,22.0698544 25.1671241,21.8490672 C26.9024964,21.659177 32.755258,24.2027427 35.8720856,19.2782539 C36.9148952,17.6306479 37.2440968,16.2190884 37.6809153,13.2287973 C38.1177337,10.2385063 36.5497823,6.93940475 35.53693,5.85076467 C34.0462095,4.24849949 32.3516732,2.86861007 30.4950169,2.86861007 C28.6383605,2.86861007 29.0608833,3.30568723 27.8054813,3.58838078 C26.9367114,3.78401188 24.2757701,3.74747961 20.7513116,2.86861017 C17.226853,1.98974073 17.0363024,1.64234151 14.4810493,2.32606327 C11.9257963,3.00978502 9.74825166,5.06799896 9.74825166,5.06799896 C9.74825166,5.06799896 7.35671314,8.53413577 5.66847213,10.3748478 C3.98023112,12.2155599 2.40164419,15.8150387 5.67521692,20.7980299 C9.16033075,25.2813116 11.6475848,24.9889955 12.9745298,24.1475651 C13.8901306,23.5669724 15.8167424,22.884356 16.7335111,20.0205456 C17.5326049,17.5243293 16.9791761,21.9261892 16.4259635,23.5851633 C16.3444971,23.8294647 13.9493145,25.5374807 13.9493145,25.5374807 C13.9493145,25.5374807 11.5190652,27.5722112 7.98561358,26.9916025 C4.45216194,26.4109938 1.38471378,21.6037939 0.711256931,19.6847416 C0.0378000776,17.7656893 -0.593307845,13.4742727 2.42238935,9.80652302 C5.43808654,6.13877337 8.81953538,3.50494471 10.4175599,2.52902487 C11.5699168,1.86932904 11.9384486,1.39483226 13.3791962,0.955196113 C14.8199437,0.515559961 15.7651332,0.103514434 18.105085,0.103514434 C20.4450368,0.103514434 21.4067216,1.39483233 23.509051,1.39483222 C25.6113805,1.39483212 25.4049082,0.534087988 31.4549844,1.19767061 C37.5050607,1.86125323 41.6298476,7.93914711 41.6298452,12.3804988 C41.6298428,16.8218505 41.3007812,20.9665952 37.0276512,25.0534175 C32.7545211,29.1402397 28.9911341,25.7526466 28.046863,25.4030319 C27.1025919,25.0534171 25.9876585,23.5151941 22.485887,25.4052472 C18.9841156,27.2953002 18.5174986,27.7190256 17.5119121,28.1046894 C16.5063255,28.4903532 14.4810495,29.0776088 14.4810495,29.0776088 Z M34.3178813,23.9681224 C34.3178813,23.9681224 36.37729,23.6946335 37.6855746,20.9750524 C38.9938592,18.2554713 39.050679,16.381127 39.050679,16.381127 C39.050679,16.381127 37.3328017,19.0159226 36.6137664,20.6075142 C35.8947311,22.1991059 34.3178813,23.9681224 34.3178813,23.9681224 Z M2.83290171,13.0105499 C2.83290171,13.0105499 0.258231859,15.6202723 3.05691043,19.1649519 C2.68334115,16.6632145 2.8329017,16.9629952 2.8329017,15.9821214 C2.8329017,15.0012475 2.67731169,14.0243008 2.83290171,13.0105499 Z" id="silueta" fill="#F1730A"></path>
                        <path d="M16.4141048,13.6611277 C16.6956732,11.5724712 17.307006,9.37053035 18.8488331,7.3689843 C22.4462579,2.69893311 24.8599729,2.17320263 24.8599729,2.17320263 L27.2913461,5.24229778 C27.2913461,5.24229778 26.5534253,4.89953054 25.2428929,5.76933739 C24.0401615,6.56759622 21.102889,9.20540245 19.8012225,12.7376892 C21.0858958,12.4229824 22.2700122,12.188372 22.9451458,12.188372 C24.9953572,12.188372 29.1274603,12.6231747 29.8076616,12.2578518 C30.4878629,11.8925289 29.2249529,13.6434206 26.2079884,14.2195995 C23.1910238,14.7957785 22.9428978,14.2757876 21.7529533,14.2757876 C21.1780735,14.2757876 20.296743,14.2323553 19.3334811,14.3211874 C18.3903929,18.0254536 18.0713047,20.7819817 17.2813854,22.8847356 C16.4485065,25.1018473 11.8358196,26.8717438 10.518125,26.9870768 C12.8111605,26.2496087 14.5260372,23.5352279 15.6227806,20.6676244 C16.1269366,19.3494312 16.0891125,17.4198378 16.250494,15.2658643 C16.2454267,15.26913 16.2403645,15.2724062 16.2353075,15.2756929 C14.4105357,16.4616833 14.8744953,16.00654 14.2306746,15.3518186 C13.5868539,14.6970972 14.1509635,14.3519133 14.1509635,14.3519133 C14.1509635,14.3519133 15.1097044,14.0443385 16.4141048,13.6611277 Z" id="efe" fill="#317549"></path>
                    </g>
                </g>
                <g id="reducido" transform="translate(33.000000, 0.000000)" sketch:type="MSShapeGroup">
                    <g id="fruta" transform="translate(0.137791, 0.000000)">
                        <path d="M19.5653958,39.618242 C19.5653958,39.618242 22.0801443,35.2129117 28.0371685,32.0044683 C30.3516678,30.7578827 31.2772218,30.0701766 34.0033881,29.7693541 C36.3480555,29.5106286 44.2557418,32.976237 48.4668983,26.266621 C49.8758419,24.0217578 50.3206274,22.0985079 50.9108143,18.0242364 C51.5010012,13.9499648 49.3825367,9.45493897 48.0140684,7.97166686 C45.9999509,5.78858056 43.710457,3.90848122 41.2019222,3.90848122 C38.6933875,3.90848122 39.2642594,4.50399885 37.5680815,4.88916881 C36.3942835,5.15571618 32.7990766,5.10594096 28.0371685,3.90848136 C23.2752604,2.71102175 23.0178068,2.2376903 19.5653956,3.1692612 C16.1129845,4.10083209 13.1708964,6.90514859 13.1708964,6.90514859 C13.1708964,6.90514859 9.93968045,11.62776 7.65869221,14.1357302 C5.37770396,16.6437004 3.24486973,21.5479902 7.66780511,28.3373158 C12.3765544,34.445787 15.737092,34.0475063 17.5299318,32.9010574 C18.7670033,32.11 21.3700551,31.1799351 22.6087045,27.2779934 C23.6883629,23.8768987 22.9406232,29.8744327 22.1931758,32.1347849 C22.0831063,32.4676456 18.8469668,34.7948174 18.8469668,34.7948174 C18.8469668,34.7948174 15.5634487,37.5671377 10.78939,36.7760584 C6.01533133,35.984979 1.87089156,29.4351692 0.960981687,26.8204604 C0.0510718149,24.2057516 -0.801620271,18.3586965 3.27289859,13.3613876 C7.34741744,8.36407872 11.9161046,4.77548717 14.075201,3.44579639 C15.6321544,2.54696082 16.130079,1.90045896 18.076678,1.3014547 C20.023277,0.702450446 21.3003257,0.141038417 24.4618427,0.141038417 C27.6233596,0.141038417 28.9226952,1.90045904 31.7631598,1.9004589 C34.6036243,1.90045876 34.3246589,0.727694883 42.4989377,1.6318262 C50.6732165,2.53595752 56.2462304,10.8170879 56.2462272,16.8684296 C56.2462239,22.9197713 55.8016276,28.5669859 50.0281869,34.1352813 C44.2547462,39.7035767 39.1700211,35.0879811 37.8942131,34.6116309 C36.6184052,34.1352808 35.1120149,32.039452 30.3807594,34.6146493 C25.6495039,37.1898466 25.0190561,37.7671724 23.6604047,38.2926393 C22.3017532,38.8181063 19.5653958,39.618242 19.5653958,39.618242 Z M46.3670075,32.6565668 C46.3670075,32.6565668 49.1494818,32.2839382 50.9171096,28.5785089 C52.6847374,24.8730797 52.7615067,22.3192855 52.7615067,22.3192855 C52.7615067,22.3192855 50.4404769,25.9091945 49.4689858,28.0777381 C48.4974948,30.2462818 46.3670075,32.6565668 46.3670075,32.6565668 Z M3.82754325,17.7268742 C3.82754325,17.7268742 0.348897953,21.2826211 4.13020221,26.112247 C3.62547146,22.7036298 3.82754324,23.112081 3.82754324,21.7756403 C3.82754324,20.4391997 3.61732504,19.1081098 3.82754325,17.7268742 Z" id="silueta" fill="#F1730A"></path>
                        <path d="M22.1771535,18.6132865 C22.5575815,15.767492 23.3835554,12.7673476 25.4667233,10.0402411 C30.3272162,3.67729637 33.5883949,2.96098859 33.5883949,2.96098859 L36.8734317,7.14263072 C36.8734317,7.14263072 35.8764243,6.67561037 34.1057595,7.8607222 C32.4807449,8.94834985 28.512186,12.5423608 26.7534999,17.3551015 C28.4892264,16.9263136 30.0890901,16.6066568 31.0012655,16.6066568 C33.7713131,16.6066568 39.3542119,17.1990755 40.2732342,16.7013231 C41.1922565,16.2035706 39.4859345,18.5891605 35.4097033,19.3742044 C31.3334721,20.1592482 30.9982281,19.4507606 29.3904901,19.4507606 C28.613768,19.4507606 27.4229994,19.3915841 26.1215329,19.5126179 C24.8473231,24.5596805 24.416202,28.3154501 23.3489393,31.1804523 C22.2236337,34.201267 15.9914167,36.612751 14.2110749,36.7698922 C17.3092031,35.7650918 19.6261788,32.066748 21.1079926,28.1596382 C21.7891595,26.3636 21.7380553,23.734529 21.9560984,20.7997401 C21.9492519,20.8041896 21.9424124,20.8086534 21.9355799,20.8131316 C19.4701243,22.4290435 20.0969819,21.8089107 19.2271135,20.9168528 C18.3572451,20.024795 19.1194155,19.5544819 19.1194155,19.5544819 C19.1194155,19.5544819 20.4147737,19.1354112 22.1771535,18.6132865 Z" id="efe" fill="#317549"></path>
                    </g>
                </g>
            </g>
        </g>
    </g>
</svg>