<?xml version="1.0" encoding="UTF-8" standalone="no"?>
<svg xmlns:sketch="http://www.bohemiancoding.com/sketch/ns" xmlns="http://www.w3.org/2000/svg" height="82px" width="91px" version="1.1" xmlns:xlink="http://www.w3.org/1999/xlink" viewBox="0 0 91 82"><!-- Generator: Sketch 3.2.2 (9983) - http://www.bohemiancoding.com/sketch -->
 <title>logo_footer</title>
 <desc>Created with Sketch.</desc>
 <g fill-rule="evenodd" sketch:type="MSPage" fill="none">
  <g fill="#FEFEFE" sketch:type="MSArtboardGroup" transform="translate(-545 -1972)">
   <g sketch:type="MSLayerGroup" transform="translate(29 1938)">
    <g transform="translate(443.5 34.5)" sketch:type="MSShapeGroup">
     <g transform="translate(73)">
      <path d="m0.67083 80s5.4292 0.6 7.2292-1.3c1.8943-1.8 1.7-2.7 0.7-3.9-0.8778-1.2-2.2-1.6-2.2-1.6 0.0256 0-0.9-0.9 0-0.9 0.843 0 5.8 1.9 8.2 4.3 2.311 2.5 2.6 4 7.3 3.2 4.728-0.8 5.3-2.5 5.3-3.4-0.025-0.8-0.4-1.9-1.8-2.8-1.393-1-1.8-0.9-1.8-1.1-0.041-0.2 3-0.3 5.6 1.7 2.63 2 5.4 5.3 7.7 5.5 2.361 0.3 6.1 0.4 7.7-1.8 1.633-2.2-0.2-3.7-1-4.4-0.87-0.7-1.7-0.9-1.7-1.3 0.028-0.4 4.5 0.8 5.7 1.9 1.114 1.1 5 5.1 6.5 5.4 1.598 0.2 5.8 0.9 7.8-1.2 1.973-2.2 1.8-3.1 0.7-4.1-1.132-1-2.3-1.5-2.5-1.9-0.262-0.4 1.8-0.3 3.2 0.3 1.313 0.6 5.1 3.5 6.1 4.6 1.041 1.1 2.2 2.5 4.6 2.5 2.333 0 5.2-0.2 6.5-1.9 1.289-1.7 1.5-1.9 0.3-3.4-1.134-1.4-2-1.1-2.4-1.6-0.396-0.5 0.1-1.1 1.6-0.6 1.473 0.4 4.7 2.1 6.1 3.6 1.432 1.6 2.6 2.7 3.4 3.2 0.836 0.5 1.3 1.3 0.8 1.3-0.559 0-4.4-2.3-5.6-3.4-1.177-1.1-1.2-0.2-1.5 0.3-0.319 0.6-2.4 3.2-7.1 3.4-4.676 0.3-7.2-2-7.9-2.4-0.604-0.4-2.6-2.6-2.9-2.2-0.197 0.4-1.6 3.9-6.2 4.5-4.532 0.6-7.9-0.9-9.1-2.1-1.136-1.2-2.6-2.4-2.7-2.2-0.219 0.2 0.2 1.4-1.9 2.9-2.088 1.4-7.6 2-9.5 1.3-1.941-0.7-5.1-3-5.7-3.5-0.656-0.5-0.8-0.9-1.3 0.5-0.468 1.3-4.2 3-5.9 3.2-1.744 0.3-5.3 0.6-7.4-1.1-2.086-1.7-3.6-2.7-4-3-0.473-0.3 0 1.1-1.6 2.3-1.6053 1.2-3.9 1.9-6.6 1.9-2.7292 0-3 0.1-3.3-0.2-0.24007-0.4 0.6-0.5 0.6-0.5z"/>
      <path d="m9.7 60.1s2.8 0.9 4.2 1.3c1.3 0.4 1.8 0.5 1.8 0.5-0.1 0 0.2 1.4 0.2 2.2 0 0.9 4.7 0.2 6.1-1.1 1.4-1.4 1.7-2.7 1.7-2.9 0-0.3-1.4-0.5-1.9 0.7-0.6 1.1-1.5 1.9-1.8 1.9-0.4 0-1.8-0.2-1.8-0.2-0.1 0 0.3-1.8-0.4-1.8s0.5-0.6 1.1-1.8c0.6-1.1 0.6-3.6 0.6-3.6-0.1 0 2 0.1 2.9-0.5 0.9-0.7 1.5-1.8 1-2.9s-1.2-1.8-1.2-1.8l0.1-0.8s3.8-2 5.1-3.4c1.2-1.4 2.1-4.9 0.9-6.7-1.3-1.7-3.8-3.3-7.2-4.4-3.5-1-11.5 0.1-13 0.7-1.6 0.7-2.6 3.6-1.6 6.5 1.1 3 3.7 7 3.7 7-0.1 0-0.1 0.6-0.7 0.9-0.6 0.2-1.7 1-1.3 1.8s1.3 0.5 1.3 0.5l-0.1 1 1.9 0.7s-0.8 2.2-3.6 3.9c-2.7 1.8-3.9 2.5-4.2 3.2-0.2 0.6 0.1 1.4 0.5 2s1.1 1.4 1.3 1.8 1.2 0.8 1.6 0.4c0.3-0.4 0.2-1.1-0.4-1.8-0.5-0.7-0.6-1.1-0.6-1.1l3.8-2.2zm2.7-10s0.4 1 0.1 1.7c-0.4 0.7-2.2-0.1-2.2-0.1l0.9-1.7 1.2 0.1zm5.6 1.7l1.7-1.3s1.4 0.8 1.4 1.5c-0.1 0.6-0.8 1.1-1.6 1.1s-1.4-1.3-1.4-1.3zm1.1-5.2s-0.3 1.1-2.5 1.1-1.9-1.9-1.9-1.9c-0.1 0 0.4-0.3 0.8 0 0.4 0.4 1.1 1.1 2.1 1.1 0.9 0 1.5-0.3 1.5-0.3zm2.3-5.9s1.2-0.5 1.7-0.1c0.5 0.5 0.5 1.4 0.2 1.7-0.4 0.3-1.1 0.6-1.8-0.1-0.8-0.6-0.1-1.5-0.1-1.5zm-8.1-1.2s1.6-0.7 2 0c0.2 0.6 0 1.3-0.3 1.5-0.4 0.2-1.1 0.2-1.4-0.3-0.3-0.6-0.2-1.2-0.2-1.2z"/>
      <path d="m77.3 59.1s-2.7 0.9-4.1 1.3-1.8 0.5-1.8 0.5-0.2 1.4-0.2 2.2c0 0.9-4.7 0.2-6.1-1.1-1.4-1.4-1.7-2.7-1.7-2.9 0-0.3 1.4-0.5 1.9 0.7 0.6 1.1 1.5 1.9 1.8 1.9 0.4 0 1.8-0.2 1.8-0.2s-0.3-1.8 0.4-1.8-0.5-0.6-1.1-1.8c-0.6-1.1-0.6-3.6-0.6-3.6s-2 0.1-2.9-0.5c-0.9-0.7-1.5-1.8-1-2.9 0.4-1.1 1.2-1.8 1.2-1.8l-0.1-0.8s-3.8-2-5.1-3.4-2.1-4.9-0.9-6.7c1.2-1.7 3.8-3.3 7.2-4.4 3.5-1 11.5 0.1 13 0.7 1.6 0.7 2.6 3.6 1.6 6.5-1.1 3-3.7 7-3.7 7s0.1 0.6 0.7 0.9c0.6 0.2 1.7 1 1.3 1.8-0.5 0.8-1.3 0.5-1.3 0.5l0.1 1-2 0.7s0.9 2.2 3.7 3.9c2.7 1.8 3.9 2.5 4.2 3.2 0.2 0.6-0.1 1.4-0.5 2s-1.1 1.4-1.3 1.8-1.2 0.8-1.6 0.4c-0.3-0.4-0.2-1.1 0.4-1.8 0.5-0.7 0.6-1.1 0.6-1.1l-3.9-2.2zm-2.6-10s-0.4 1-0.1 1.7 2.2-0.1 2.2-0.1l-1-1.7-1.1 0.1zm-5.6 1.7l-1.8-1.3s-1.3 0.8-1.3 1.5c0 0.6 0.8 1.1 1.6 1.1s1.4-1.3 1.4-1.3zm-1.1-5.2s0.3 1.1 2.5 1.1 1.9-1.9 1.9-1.9-0.4-0.3-0.8 0c-0.4 0.4-1.1 1.1-2.1 1.1s-1.5-0.3-1.5-0.3zm-2.3-5.9s-1.2-0.5-1.7-0.1c-0.6 0.5-0.5 1.4-0.2 1.7s1.1 0.6 1.8-0.1c0.7-0.6 0.1-1.5 0.1-1.5zm8-1.2s-1.5-0.7-1.9 0c-0.3 0.6 0 1.3 0.3 1.5 0.4 0.2 1.1 0.2 1.4-0.3 0.2-0.6 0.2-1.2 0.2-1.2z"/>
      <path d="m41.2 37.3c-0.1 0.2-0.1 0.4 0 0.6l0.1-0.3-0.1-0.3zm-3.4 25.5l2.1 0.4s-0.3 1.3 0.2 1.6c0.5 0.4 1.8 0 2-0.3s-0.1-1.1-0.1-1.1l0.4-0.8 1 0.2s-0.1 3.3 0.2 3.8 1.3 0.8 2.1 0.8 1.9-1.1 1.2-1.5c-0.7-0.5-1.6-1.3-1.6-1.3s0.3-0.7 0.3-1.3c0-0.5 0.2-0.9 0.8-0.7 0.5 0.2 1.3 0.1 1.3 0.1s1 1.5 1 2.2 1.3 2 2.1 2.3c0.7 0.2 2.6 0 2.6-0.8 0-0.7-0.5-1.5-0.9-2.1-0.4-0.7-0.9-1.2-0.6-1.7 0.3-0.4 1.5-0.6 1.9 0.1 0.5 0.6 0.7 2 1 2 0.4 0 1.4 0.1 1.6-1.5s-0.8-2-1.2-2.5-0.6-3.1-0.9-4.5c-0.2-1.3-3.1-11.5-3.1-11.5s-1.3-5-1.6-8.9-1.1-5.2-0.2-6.9c0.8-1.7 2.2-4.7 2.2-4.7l0.2 3.8 0.4 1.6s-0.2 1.9 0.4 2.2c0.6 0.4 3.5 0 4.8-0.7 1.2-0.7 2.1-1 1.8-1.6-0.2-0.6-1.6-0.7-2.5-0.3-0.9 0.3-1.8 0.5-1.8 0.5l-0.8-0.2 0.1-4.4s0.3-1.9 0.8-3.3c0.5-1.5 0.7-4.5 0.7-5 0-0.6-0.4-1.2-0.4-1.2s-2 0.3-3.2 0c-1.3-0.3-3.1-1.1-3.7-1.1-0.7 0-1-1.2-1.4-1.7-0.4-0.4-1-0.7-1-0.7s0.4-0.3 1.1-0.6c0.6-0.3 1.2-0.3 1.5-0.6 0.3-0.4 0.4-1.4 0.6-1.9 0.2-0.6 0.5-0.7 1-0.7 0.6 0 0.7-1.1 0.4-1.5-0.2-0.4-0.9-0.5-0.4-1.2 0.4-0.7 1-0.5 1-2.2s-3.1-3.3-5-3.3c-2 0-4.6 1.2-4.9 1.9-0.3 0.6 0.1 1.5-0.4 2-0.5 0.6-0.9 1.1-0.6 1.8 0.2 0.7 1.4 2.5 1.4 4.1s0.3 3-0.5 3.7c-0.9 0.6-2 1.6-2.9 1.6-1 0-3.8-0.5-4.9 0.2-1.2 0.7-2 0.8-2.6 1.5s-0.3 8.4-0.3 8.4-0.1 3.7-0.5 4c-0.3 0.4-1.8 0.3-1.8 0.3l-1.1-0.1s0-1.1-0.7-1.3-1.4-0.3-1.7 0.5c-0.2 0.8-0.1 2.3 0.3 2.3s2.6 0.6 3.7 0.9c1 0.3 2.7 1.1 3.7 0.3 1-0.7 1.4-2.5 1.4-5.1s-0.5-3.4-0.1-3.9c0.4-0.6 0.9 0.3 1.2 1 0.3 0.6 1.8 3.4 1.8 4.4-0.1 0.9 0.2 1.8-0.1 4s-0.2 3.4-0.4 3.9c-0.3 0.4-1.1 3.1-1.1 6.7 0 3.7-1.3 8.2-0.5 11.4 0.8 3.1 1.1 2.8 0.8 4.5-0.3 1.8-1.1 3.2-0.6 3.6 0.6 0.5 1.3 1.1 2.2 1.1 0.8 0 0.8-1 0.8-1zm8.9-57.9s-0.6 0.7-1.3 1c-0.8 0.4-1.2 0.5-0.7 0.7 0.4 0.1 0.9 0.4 1.5 0.2 0.5-0.2 0.9-0.6 0.9-1.1 0-0.4-0.4-0.8-0.4-0.8zm2.5 13.7l1.7 0.8s1 0.5 0.7 1-0.9 0.6-0.9 0.6-0.1-1.2-0.7-1.2-1-0.3-1-0.7c0-0.3 0.2-0.5 0.2-0.5zm-15-0.1s0.8-0.8 2.5-0.5c1.8 0.2 2.2 0.9 2.2 1.3 0 0.5-0.6 0.4-0.9 0s-1.2-0.6-1.6-0.3c-0.5 0.3-0.6 0.8-1.2 0.4s-1-0.9-1-0.9zm10.5-1.1s-0.4 3.4-0.2 4.9c0.2 1.6-0.5 3.2-0.1 6.1 0.3 2.8 0.8 7.7 0.8 9.7s-0.4 4.1-0.4 6.6 0.8 6.2 0.8 7.2c0 1.1 0.5 5 0.5 5s0.4 2 0.2 2-1 0.8-1.6 0.6c-0.6-0.3-0.6-5.8-0.6-5.8s-0.5-5.6-0.5-11.2c0-5.7-0.3-9.2-0.6-10.7s-0.7-1.7-0.5-3.4c0.2-1.8 1.2-3.2 1.2-4.6 0-1.5-1.2-2-0.6-3.3 0.6-1.4 0.1-2.2 0.7-2.9 0.5-0.6 0.9-0.2 0.9-0.2zm-3.3 39.3s-0.1 0.6 0.4 0.6c0.4 0 0.6-0.6 0.6-0.6h-1zm0.5 2.1l1 0.2-0.2 0.4-0.7-0.1-0.1-0.5zm-2.6-4.1h1.4l-0.1 0.4-1.3-0.4zm1.2-4.1h1.3l-0.2 0.7-1.1-0.7zm0-10.3h1.3l-0.1 1-0.6-0.6-0.6-0.4zm0.7-3c0.1-0.2 0.3-0.4 0.3-0.4l-0.2 0.7 0.1 0.4 0.3-0.1v-1.1l-0.5 0.1v0.4zm0-14.6l0.2 0.4 0.2-0.3-0.4-0.1zm-30-9.9s0.6-0.3 1.1-0.2l-1.1 0.2z"/>
      <path d="m63.5 18.3s0.2-0.5 0.5-0.5c0.4 0 0.6 0.8 0.6 0.8l-0.6 0.3-0.5-0.6zm6.1-8.9s0.8-1.4 1.6-0.9 0.9 1.3 0.5 1.7c-0.5 0.4-1.1 0.5-1.6 0.1s-0.5-0.9-0.5-0.9zm6.7 10.7s0.8-0.4 1.3-0.4 0.7 0.3 0.5 0.6-1.1 0.7-1.1 0.7l-0.7-0.9zm-50.6-10.8s0.8-0.9 1.7-0.4c0.9 0.4 1 0.9 0.7 1.4-0.2 0.4-1.4 1.2-2 0.6s-0.4-1.6-0.4-1.6zm-14.4 3.7s0.3-0.6 0.7-0.3 0.5 0.9 0.3 0.9c-0.3 0-1-0.1-1-0.1v-0.5z"/>
     </g>
    </g>
   </g>
  </g>
 </g>
</svg>
