<svg class="btn btn--supershakes" width="330" height="170" xmlns="http://www.w3.org/2000/svg">
  <title>
    Logo SuperShakes
  </title>
  <path d="M142.557 109.93s6.522-12.223 21.972-21.125c6-3.46 8.4-5.367 15.47-6.202 6.08-.718 26.59 8.898 37.51-9.72 3.65-6.228 4.81-11.565 6.34-22.87 1.53-11.305-3.97-23.778-7.52-27.894-5.227-6.06-11.16-11.28-17.67-11.28-6.508 0-5.028 1.65-9.427 2.72-3.044.74-12.368.6-24.718-2.72-12.353-3.33-13.02-4.64-21.974-2.05-8.95 2.58-16.58 10.37-16.58 10.37s-8.38 13.1-14.297 20.06c-5.916 6.96-11.448 20.56.023 39.4 12.212 16.95 20.93 15.843 25.58 12.662 3.21-2.19 9.96-4.773 13.17-15.6 2.8-9.437.86 7.204-1.077 13.476-.29.924-8.68 7.38-8.68 7.38s-8.52 7.694-20.9 5.5c-12.37-2.19-23.12-20.364-25.48-27.62-2.36-7.257-4.57-23.48 5.996-37.347 10.57-13.864 22.418-23.822 28.018-27.512 4.038-2.49 5.33-4.28 10.378-5.95 5.048-1.66 8.36-3.22 16.56-3.22s11.57 4.89 18.936 4.89 6.64-3.25 27.84-.742c21.2 2.51 35.65 25.487 35.65 42.278 0 16.79-1.155 32.46-16.13 47.91-14.973 15.453-28.16 2.646-31.47 1.324-3.31-1.324-7.215-7.14-19.485.006s-13.906 8.75-17.43 10.207c-3.523 1.46-10.62 3.68-10.62 3.68zm69.51-19.316s7.217-1.034 11.802-11.316c4.58-10.28 4.78-17.367 4.78-17.367s-6.02 9.97-8.54 15.98c-2.52 6.02-8.05 12.71-8.05 12.71zM101.74 49.188s-9.022 9.866.785 23.267c-1.31-9.458-.785-8.325-.785-12.033s-.545-7.402 0-11.234z"/>
  <path d="M142.557 109.93s6.522-12.223 21.972-21.125c6-3.46 8.4-5.367 15.47-6.202 6.08-.718 26.59 8.898 37.51-9.72 3.65-6.228 4.81-11.565 6.34-22.87 1.53-11.305-3.97-23.778-7.52-27.894-5.227-6.06-11.16-11.28-17.67-11.28-6.508 0-5.028 1.65-9.427 2.72-3.044.74-12.368.6-24.718-2.72-12.353-3.33-13.02-4.64-21.974-2.05-8.95 2.58-16.58 10.37-16.58 10.37s-8.38 13.1-14.297 20.06c-5.916 6.96-11.448 20.56.023 39.4 12.212 16.95 20.93 15.843 25.58 12.662 3.21-2.19 9.96-4.773 13.17-15.6 2.8-9.437.86 7.204-1.077 13.476-.29.924-8.68 7.38-8.68 7.38s-8.52 7.694-20.9 5.5c-12.37-2.19-23.12-20.364-25.48-27.62-2.36-7.257-4.57-23.48 5.996-37.347 10.57-13.864 22.418-23.822 28.018-27.512 4.038-2.49 5.33-4.28 10.378-5.95 5.048-1.66 8.36-3.22 16.56-3.22s11.57 4.89 18.936 4.89 6.64-3.25 27.84-.742c21.2 2.51 35.65 25.487 35.65 42.278 0 16.79-1.155 32.46-16.13 47.91-14.973 15.453-28.16 2.646-31.47 1.324-3.31-1.324-7.215-7.14-19.485.006s-13.906 8.75-17.43 10.207c-3.523 1.46-10.62 3.68-10.62 3.68zm69.51-19.316s7.217-1.034 11.802-11.316c4.58-10.28 4.78-17.367 4.78-17.367s-6.02 9.97-8.54 15.98c-2.52 6.02-8.05 12.71-8.05 12.71zM101.74 49.188s-9.022 9.866.785 23.267c-1.31-9.458-.785-8.325-.785-12.033s-.545-7.402 0-11.234z"/>
  <path d="M187.446 19.82l-8.52-11.604s-8.458 1.988-21.064 19.643-7.46 39.43-11.304 50.27c-3.844 10.84-9.853 21.1-17.888 23.89 4.618-.44 20.78-7.13 23.7-15.51 2.918-8.38 4.002-19.51 7.75-34.69 3.747-15.18 15.555-26.73 20.148-30.02 4.592-3.29 7.178-1.993 7.178-1.993z"/>
  <path d="M141.4 54.26s23.632-8.18 30.816-8.18c7.184 0 21.664 1.643 24.047.262 2.384-1.38-2.042 5.238-12.613 7.417-10.572 2.17-11.442.21-15.61.21-4.17 0-12.942-.71-19.336 3.78-6.394 4.48-4.768 2.76-7.025.29-2.26-2.48-.28-3.78-.28-3.78z"/>
  <text font-family="Averia Libre" font-size="59">
    <tspan x="0" y="158">SuperShakes</tspan>
  </text>
</svg>
