<?xml version="1.0" encoding="UTF-8" standalone="no"?>
<svg width="92px" height="10px" viewBox="0 0 92 10" version="1.1" xmlns="http://www.w3.org/2000/svg" xmlns:xlink="http://www.w3.org/1999/xlink" xmlns:sketch="http://www.bohemiancoding.com/sketch/ns">
    <!-- Generator: Sketch 3.2.2 (9983) - http://www.bohemiancoding.com/sketch -->
    <title>agua</title>
    <desc>Created with Sketch.</desc>
    <defs></defs>
    <g id="Page-1" stroke="none" stroke-width="1" fill="none" fill-rule="evenodd" sketch:type="MSPage">
        <path d="M0.676953037,8.2 C0.676953037,8.2 6.1,8.9 8,7 C9.88367219,5.1 9.6,4.2 8.7,3 C7.79270694,1.8 6.5,1.4 6.5,1.4 C6.48419416,1.4 5.6,0.4 6.4,0.4 C7.30912989,0.4 12.3,2.4 14.7,4.9 C17.0658053,7.3 17.3,8.9 22.1,8.1 C26.8706082,7.2 27.4,5.5 27.4,4.7 C27.4225573,3.8 27,2.7 25.6,1.8 C24.2262003,0.8 23.8,0.8 23.8,0.6 C23.7739863,0.4 26.8,0.4 29.5,2.4 C32.1209224,4.4 34.9,7.8 37.3,8 C39.6196873,8.2 43.3,8.4 45,6.2 C46.6544591,3.9 44.8,2.4 44,1.7 C43.1203934,1 42.3,0.8 42.3,0.4 C42.3102299,-3.10862447e-15 46.9,1.2 48,2.3 C49.1584717,3.4 53.1,7.5 54.6,7.7 C56.2065181,8 60.5,8.8 62.5,6.5 C64.4555433,4.3 64.3,3.4 63.2,2.4 C62.0286934,1.4 60.8,0.8 60.6,0.5 C60.3842986,0.1 62.5,0.2 63.8,0.8 C65.2026472,1.4 69,4.3 70,5.4 C71.0842338,6.5 72.3,8 74.7,8 C77.0300428,8 79.9,7.8 81.2,6.1 C82.5359168,4.3 82.8,4.1 81.6,2.6 C80.3935098,1.2 79.5,1.5 79.1,1 C78.7159225,0.5 79.2,-0.1 80.7,0.3 C82.2169669,0.8 85.5,2.5 86.9,4.1 C88.3308777,5.7 89.5,6.8 90.3,7.3 C91.1599895,7.7 91.6,8.6 91.1,8.6 C90.5602449,8.6 86.7,6.2 85.5,5.2 C84.2855289,4.1 84.2,4.9 83.9,5.5 C83.6378275,6.1 81.5,8.7 76.8,8.9 C72.0761121,9.2 69.5,6.8 68.9,6.5 C68.212976,6.1 66.2,3.8 65.9,4.2 C65.697509,4.7 64.3,8.2 59.7,8.8 C55.0659464,9.4 51.7,7.9 50.5,6.7 C49.3101484,5.5 47.9,4.2 47.7,4.4 C47.5107592,4.7 47.9,5.9 45.8,7.3 C43.7073572,8.8 38.2,9.4 36.2,8.7 C34.2686404,8 31.1,5.7 30.4,5.2 C29.8135582,4.7 29.6,4.3 29.2,5.6 C28.6915721,7 24.9,8.7 23.2,8.9 C21.4500297,9.2 17.9,9.5 15.7,7.8 C13.6369548,6.1 12.1,5.1 11.7,4.7 C11.228362,4.4 11.7,5.9 10.1,7 C8.47127495,8.2 6.1,9 3.4,9 C0.676953037,9 0.4,9.1 0.1,8.8 C-0.141344536,8.4 0.7,8.2 0.7,8.2 L0.676953037,8.2 Z" id="agua" fill="#326171" sketch:type="MSShapeGroup"></path>
    </g>
</svg>