<svg version="1.1" xmlns="http://www.w3.org/2000/svg" xmlns:xlink="http://www.w3.org/1999/xlink">


	<path id="icon-apple" d="M714.688 527.142c-1.082-109.358 88.318-161.806 92.314-164.412-50.232-74.224-128.48-84.394-156.366-85.568-66.592-6.808-129.938 39.59-163.736 39.59-33.712 0-85.864-38.582-141.092-37.57-72.584 1.090-139.51 42.618-176.884 108.26-75.412 132.142-19.312 327.902 54.19 435.070 35.916 52.456 78.744 111.376 134.974 109.272 54.15-2.182 74.628-35.382 140.094-35.382s83.868 35.382 141.174 34.296c58.27-1.092 95.188-53.462 130.856-106.082 41.244-60.858 58.226-119.778 59.23-122.802-1.294-0.596-113.626-44.052-114.752-174.674v0zM609.762 206.268c29.976-35.686 50.21-85.196 44.69-134.588-43.178 1.724-95.518 28.222-126.496 63.828-27.798 31.586-52.128 81.998-45.608 130.402 48.2 3.69 97.406-24.038 127.414-59.642v0z"></path>

<symbol id="icon-arrow-left" viewBox="0 0 1548 1024">
	<title>arrow-left</title>
	<path class="path1" d="M513.62 1006.14l39.27-39.246-427.056-427.126h1404.76v-55.558h-1404.834l427.126-427.056-39.27-39.316-494.14 494.14 494.14 494.164z"></path>
</symbol>
<symbol id="icon-arrow-right" viewBox="0 0 1548 1024">
	<title>arrow-right</title>
	<path class="path1" d="M1008.020 45.198l427.056 427.128h-1404.76v55.558h1404.834l-427.126 427.056 39.27 39.318 494.14-494.14-494.14-494.164-39.27 39.246z"></path>
</symbol>
<symbol id="icon-contacto" viewBox="0 0 1024 1024">
	<title>contacto</title>
	<path class="path1" d="M431.584 562.318c0 29.038-23.538 52.576-52.576 52.576s-52.576-23.538-52.576-52.576 23.538-52.576 52.576-52.576c29.038 0 52.576 23.538 52.576 52.576zM644.996 509.74c-29.038 0-52.576 23.538-52.576 52.576s23.54 52.576 52.576 52.576c29.038 0 52.576-23.538 52.576-52.576s-23.54-52.576-52.576-52.576zM1024 533.010v99.918c0 50.168-40.668 90.836-90.836 90.836h-65.914c-65.312 181.35-232.096 290.886-355.25 290.886s-289.938-109.536-355.25-290.886h-65.914c-50.168 0-90.834-40.668-90.834-90.836v-99.918c0-34.522 19.26-64.54 47.62-79.91 0.952-141.862 42.298-252.658 123.068-329.252 80.116-75.974 194.95-114.5 341.31-114.5s261.198 38.524 341.312 114.496c80.77 76.596 122.116 187.39 123.068 329.252 28.358 15.37 47.62 45.39 47.62 79.912zM831.746 562.65c0-23.374-1.196-45.334-2.962-66.614-40.314-36.882-113.498-64.87-205.86-75.268 12.126 13.638 22.602 31.574 28.956 55.188-56.572-44.57-167.622-33.962-251.62-133.698-4.814-5.572-8.978-10.894-12.582-15.756-0.042-0.058-0.088-0.104-0.13-0.162l0.010 0.004c-14.942-20.208-20.038-32.228-20.324-18.924-2.464 114.638-83.716 204.004-173.944 216.614-0.57 12.606-1.038 25.336-1.038 38.618 0 48.454 7.914 92.614 21.366 132.412 50.68 61.132 134.378 78.394 208.458 82.972 13.75-21.88 44.608-37.154 80.54-37.154 48.718 0 88.21 28.034 88.21 62.616s-39.494 62.616-88.212 62.616c-37.476 0-69.408-16.616-82.192-40.012-51.774-3.010-108.69-11.836-159.416-35.788 71.338 105.146 181.926 160.75 250.988 160.75 108.524 0 319.746-137.096 319.746-388.414zM921.692 442.174c-5.782-247.552-147.082-378.322-409.692-378.322s-403.91 130.77-409.692 378.322h34.948c12.778-83.436 39.786-152.058 80.79-204.818 65.344-84.076 164.244-126.706 293.954-126.706s228.61 42.632 293.956 126.706c41.002 52.762 68.012 121.382 80.79 204.818h34.948z"></path>
</symbol>
<symbol id="icon-close2" viewBox="0 0 1024 1024">
	<title>close2</title>
	<path class="path1" d="M302.85 393.966l-242.51 242.51-60.34-60.34 242.51-242.51-234.534-234.534 60.34-60.34 234.534 234.534 243.226-243.226 60.34 60.34-243.226 243.226 251.202 251.202-60.34 60.34-251.202-251.202z"></path>
</symbol>
<symbol id="icon-ham-menu" viewBox="0 0 1288 1024">
	<title>ham-menu</title>
	<path class="path1" d="M1285.048 3.928v219.010h-1281.288v-219.010h1281.288zM1285.060 395.482v219.15h-1281.374v-219.15h1281.374zM3.806 800.376h1280.308v219.61h-1280.308v-219.61z"></path>
</symbol>
<symbol id="icon-close" viewBox="0 0 1024 1024">
	<title>close</title>
	<path class="path1" d="M521.66 27.308c-267.688 0-484.692 217.006-484.692 484.692s217.006 484.692 484.692 484.692c267.688 0 484.692-217.006 484.692-484.692s-217.006-484.692-484.692-484.692zM708.386 761.068l-186.75-186.75-186.72 186.722-62.314-62.314 186.724-186.724-186.724-186.72 62.314-62.314 186.72 186.72 186.748-186.742 62.314 62.314-186.746 186.744 186.75 186.748-62.314 62.318z"></path>
</symbol>
<symbol id="icon-facebook" viewBox="0 0 1024 1024">
	<title>facebook</title>
	<path class="path1" d="M106.88 785.256v-560.274c0-30.932 10.942-57.342 32.83-79.226s48.294-32.83 79.226-32.83h560.276c30.932 0 57.342 10.944 79.226 32.83s32.828 48.294 32.828 79.226v560.274c0 30.932-10.942 57.342-32.828 79.226s-48.294 32.828-79.226 32.828h-123.436v-311.214h118.182l5.254-113.806h-123.436v-89.294c0-17.51 3.136-30.276 9.41-38.3s19.040-12.036 38.3-12.036l72.662 0.438 2.626-105.926c-22.76-2.918-49.462-4.378-80.102-4.378-27.43 0-51.796 4.012-73.098 12.038s-38.374 18.894-51.212 32.61c-12.84 13.714-22.47 29.108-28.89 46.178s-9.63 35.528-9.63 55.37v103.3h-111.18v113.806h111.18v311.214h-316.904c-30.932 0-57.342-10.942-79.226-32.828s-32.83-48.294-32.83-79.226v0z"></path>
</symbol>
<symbol id="icon-facebook2" viewBox="0 0 1024 1024">
	<title>facebook2</title>
	<path class="path1" d="M298.574 541.086v-132.038h96.142v-112.428c0-22.66 3.752-44.014 11.26-64.058s18.622-38.058 33.346-54.034c14.724-15.978 34.428-28.616 59.114-37.912s52.762-13.944 84.232-13.944c15.88 0 31.47 0.436 46.77 1.306s26.706 1.744 34.212 2.616l11.26 1.308-3.030 122.888h-83.582c-21.942 0-36.594 4.648-43.956 13.944s-11.044 23.966-11.044 44.012v96.306h142.48l-6.062 132.038h-136.416v366.482h-138.582v-366.482h-96.142z"></path>
</symbol>
<symbol id="icon-flickr" viewBox="0 0 1024 1024">
	<title>flickr</title>
	<path class="path1" d="M61.92 506.88c0 59.054 20.942 109.524 62.83 151.41s92.356 62.83 151.41 62.83c59.054 0 109.524-20.942 151.41-62.83s62.83-92.356 62.83-151.41c0-59.054-20.942-109.524-62.83-151.41s-92.356-62.83-151.41-62.83c-59.054 0-109.522 20.942-151.41 62.83s-62.83 92.356-62.83 151.41zM523.36 506.88c0 59.054 20.942 109.524 62.83 151.41s92.356 62.83 151.41 62.83c59.054 0 109.524-20.942 151.41-62.83s62.83-92.356 62.83-151.41c0-59.054-20.942-109.524-62.83-151.41s-92.356-62.83-151.41-62.83c-59.054 0-109.524 20.942-151.41 62.83s-62.83 92.356-62.83 151.41z"></path>
</symbol>
<symbol id="icon-git" viewBox="0 0 1024 1024">
	<title>git</title>
	<path class="path1" d="M512.448 102.4c-17.076 0-31.69 6.542-43.784 19.652-12.096 13.084-18.106 28.892-18.106 47.35 0 17.86 6.060 33.358 18.106 46.466 12.096 13.084 26.682 19.652 43.784 19.652 16.462 0 30.764-6.542 42.86-19.652 12.070-13.11 18.13-28.606 18.13-46.466 0-18.458-6.062-34.24-18.13-47.35-12.096-13.11-26.4-19.652-42.86-19.652zM780.558 623.572c-25.712 0-38.392-20.23-38.392-60.662v-159.678h80.832v-99.832h-80.958c-0.306-13.154-1.018-43.432-1.528-57.638h-94.428v57.638h-52.164v99.806h52.164v155.154c0 50.718 6.188 87.836 18.51 111.354 16.346 31.41 45.038 47.088 87.654 47.088 30.372 0 57.154-6.024 77.192-18.1v-90.52c-15.962 10.286-30.804 15.39-48.88 15.39zM465.452 305.702c-35.026 13.848-67.636 20.876-95.646 20.876-24.996-14.506-50.928-21.746-80.134-21.746-40.562 0-75.38 13.584-104.61 40.754-30.402 29.012-45.652 65.266-45.652 108.732 0 29.012 8.264 56.156 25.022 81.536 14.89 23.562 30.48 38.674 50.876 45.308v1.818c-20.396 8.452-29.466 29.592-29.466 63.448 0 25.986 9.068 45.308 29.466 57.972v1.842c-56.384 18.692-82.186 53.444-82.186 104.176 0 44.124 18.942 76.428 55.944 96.962 29.18 16.296 66.7 24.458 112.016 24.458 110.276 0 165.542-46.81 165.542-140.456 0-58.604-42.56-94.542-127.814-107.836-19.722-3.028-34.532-10.268-44.692-21.746-7.77-7.872-11.562-15.716-11.562-23.562 0-22.378 11.902-35.356 35.78-38.964 36.324-5.45 65.974-22.51 88.994-51.18 22.918-28.698 34.402-62.394 34.402-101.044 0-12.058-3.612-25.062-8.342-38.938 14.058-3.318 24.19-6.32 32.064-9.136v318.612h107.988v-430.87h-107.988v18.982zM310.9 757.76c52.166 0 78.22 14.922 78.22 44.74 0 31.63-23.892 47.418-71.7 47.418-54.628 0-81.9-15.228-81.9-45.658-0.054-30.992 25.108-46.5 75.378-46.5v0zM292.764 512c-38.154 0-57.244-19.774-57.244-59.294 0-42.39 19.090-63.586 57.244-63.586 18.192 0 32.452 6.592 42.694 19.774 8.476 12.008 12.7 26.338 12.7 42.966 0.026 40.096-18.43 60.142-55.396 60.142v0z"></path>
</symbol>
<symbol id="icon-git2" viewBox="0 0 1024 1024">
	<title>git2</title>
	<path class="path1" d="M61.44 528.092c0-60.418 11.746-118.224 35.234-173.414s55.172-102.682 95.048-142.48c39.876-39.794 87.29-71.456 142.246-94.986s112.592-35.294 172.912-35.294c60.61 0 118.392 11.764 173.348 35.294s102.298 55.19 142.028 94.986c39.73 39.794 71.34 87.214 94.83 142.26s35.236 112.922 35.236 173.632c0 97.31-28.346 184.67-85.042 262.084s-129.846 131.076-219.458 160.998c-10.44 2.034-18.126 0.798-23.054-3.704s-7.394-10.384-7.394-17.646c0-1.162 0.072-15.976 0.216-44.442s0.216-54.464 0.216-77.992c0-37.762-10.004-65.212-30.014-82.35 22.33-2.614 42.268-6.174 59.812-10.674s35.596-11.982 54.158-22.438c18.56-10.456 34.076-23.384 46.544-38.778s22.692-35.728 30.668-61c7.976-25.272 11.962-54.464 11.962-87.58 0-46.766-15.226-86.562-45.674-119.386 1.74-4.358 3.336-9.44 4.784-15.25s2.754-13.942 3.914-24.4c1.16-10.456 0.654-22.584-1.522-36.382s-6.018-27.812-11.528-42.046c-1.16-0.29-2.682-0.582-4.568-0.87s-6.524-0.144-13.92 0.436c-7.394 0.582-15.442 2.18-24.144 4.794s-20.226 7.48-34.582 14.596c-14.356 7.116-29.506 16.048-45.458 26.796-34.22-9.586-71.34-14.668-111.36-15.25-40.020 0.582-77.14 5.664-111.36 15.25-15.95-10.748-31.030-19.68-45.24-26.796s-25.81-11.91-34.8-14.38c-8.99-2.468-16.892-4.138-23.708-5.010s-11.672-1.018-14.572-0.436l-4.35 0.87c-16.82 42.41-18.27 81.77-4.35 118.080-30.45 33.404-45.676 73.2-45.676 119.386 0 33.116 3.986 62.308 11.962 87.578s18.198 45.606 30.668 61c12.47 15.394 27.986 28.322 46.546 38.778s36.612 18.010 54.158 22.658c17.546 4.648 37.336 8.134 59.378 10.456-15.37 13.652-24.796 33.55-28.274 59.692-8.12 3.776-16.748 6.682-25.882 8.714s-20.082 2.976-32.844 2.832c-12.76-0.144-25.448-4.284-38.062-12.418s-23.562-20.188-32.844-36.164c-0.58-1.162-1.522-2.688-2.828-4.576s-4.060-5.374-8.264-10.456c-4.206-5.082-8.772-9.586-13.702-13.506s-11.31-7.626-19.14-11.11c-7.83-3.486-15.95-5.52-24.36-6.1h-4.35c-1.74 0-4.422 0.508-8.048 1.524s-6.090 2.324-7.396 3.922c-1.306 1.598-0.724 4.284 1.74 8.062s7.468 8.278 15.008 13.506c0.87 0.29 1.956 0.87 3.262 1.744s4.060 2.976 8.266 6.318c4.206 3.34 8.192 7.262 11.962 11.764s8.12 10.82 13.050 18.954c4.93 8.134 9.28 16.994 13.050 26.578 0.29 0.87 0.652 1.888 1.086 3.050s1.594 3.63 3.48 7.408c1.884 3.776 4.132 7.48 6.742 11.11s6.162 7.698 10.658 12.2c4.496 4.502 9.352 8.568 14.572 12.2s11.746 7.044 19.574 10.24c7.83 3.196 16.166 5.52 25.012 6.972s19.212 1.962 31.102 1.524c11.89-0.436 24.504-2.106 37.846-5.010 0 14.524 0.072 30.5 0.216 47.928s0.216 26.724 0.216 27.886c0 6.972-2.464 12.78-7.394 17.428s-12.616 6.1-23.056 4.356c-89.61-29.918-162.762-83.658-219.458-161.216s-85.042-164.99-85.042-262.3v0z"></path>
</symbol>
<symbol id="icon-smile2" viewBox="0 0 1024 1024">
	<title>smile2</title>
	<path class="path1" d="M492.216 841.062c-186.716 0-338.616-151.9-338.616-338.606 0-186.716 151.9-338.616 338.616-338.616s338.616 151.9 338.616 338.616c0 186.706-151.9 338.606-338.616 338.606v0zM492.216 204.8c-164.128 0-297.656 133.53-297.656 297.656 0 164.116 133.53 297.636 297.656 297.636s297.656-133.52 297.656-297.636c0-164.128-133.53-297.656-297.656-297.656v0zM457.42 423.27c0 24.516-19.874 44.39-44.39 44.39s-44.39-19.874-44.39-44.39c0-24.516 19.874-44.39 44.39-44.39s44.39 19.874 44.39 44.39zM621.26 423.27c0 24.516-19.874 44.39-44.39 44.39s-44.39-19.874-44.39-44.39c0-24.516 19.874-44.39 44.39-44.39s44.39 19.874 44.39 44.39zM495.678 659.64c-94.31 0-153.528-62.822-154.4-63.784l30.136-27.74c4.352 4.68 108.524 113.316 262.604-2.468l24.606 32.736c-61.020 45.876-116.284 61.256-162.95 61.256v0z"></path>
</symbol>
<symbol id="icon-laptop" viewBox="0 0 1024 1024">
	<title>laptop</title>
	<path class="path1" d="M824.014 651.552c-209.794 0-417.016 0-625.562 0-0.354-6.77-0.938-12.728-0.938-18.698-0.056-113.948-0.072-227.894-0.010-341.846 0.026-40.602 20.582-62.102 61.118-62.17 168.158-0.272 336.3-0.27 504.446 0 40.748 0.066 60.96 21.31 60.956 61.942-0.018 112.708-0.010 225.424-0.014 338.132 0.004 7.188 0.004 14.376 0.004 22.64zM247.224 278.668c0 110.632 0 219.888 0 329.226 176.842 0 352.058 0 527.548 0 0-110.708 0-219.548 0-329.226-176.658 0-351.96 0-527.548 0zM953.736 697.312c0 12.722 2.662 26.286-0.922 37.926-2.478 8.044-12.786 17.726-20.976 19.244-27.716 5.126-56.040 9.524-84.142 9.616-224.304 0.764-448.604 0.65-672.904 0.23-23.926-0.042-48.026-2.528-71.722-6.048-30.522-4.548-34.686-10.606-34.674-40.846 0.004-6.114 0-12.226 0-20.126 295.112 0.006 589.134 0.006 885.336 0.006z"></path>
</symbol>
<symbol id="icon-external" viewBox="0 0 1024 1024">
	<title>external</title>
	<path class="path1" d="M253.44 702.4v-197.76c0-33.302 9.098-63.602 27.296-90.898s42.058-47.294 71.584-59.998v77.766c-21.974 19.57-32.96 43.946-32.96 73.13v197.76c0 27.466 9.612 50.812 28.84 70.040s42.572 28.84 70.040 28.84c27.466 0 50.812-9.612 70.040-28.84s28.84-42.572 28.84-70.040v-197.76c0-29.182-10.988-53.56-32.96-73.13v-77.764c29.526 12.702 53.388 32.702 71.584 59.998s27.294 57.594 27.294 90.898v197.76c0 45.664-16.052 84.546-48.154 116.648s-70.984 48.154-116.646 48.154c-45.664 0-84.546-16.052-116.646-48.154s-48.152-70.984-48.152-116.648zM385.28 504.64v-197.76c0-45.664 16.050-84.546 48.154-116.648s70.984-48.152 116.648-48.152c45.664 0 84.546 16.050 116.648 48.152s48.154 70.984 48.154 116.648v197.76c0 33.302-9.098 63.602-27.294 90.898s-42.058 47.294-71.586 59.996v-77.764c21.972-19.57 32.96-43.948 32.96-73.13v-197.76c0-27.466-9.612-50.812-28.84-70.040s-42.572-28.84-70.040-28.84c-27.466 0-50.812 9.612-70.040 28.84s-28.84 42.574-28.84 70.040v197.76c0 29.182 10.988 53.56 32.96 73.13v77.764c-29.526-12.702-53.388-32.702-71.584-59.996s-27.296-57.594-27.296-90.898z"></path>
</symbol>
<symbol id="icon-linkedin" viewBox="0 0 1024 1024">
	<title>linkedin</title>
	<path class="path1" d="M162.56 224.288c0 22.174 7.67 40.7 23.008 55.584s35.308 22.324 59.912 22.324h0.912c25.514 0 46.016-7.44 61.506-22.324s23.236-33.412 23.236-55.584c-0.304-22.78-8.048-41.46-23.236-56.038s-35.384-21.87-60.594-21.87c-25.21 0-45.636 7.366-61.278 22.098s-23.464 33.334-23.464 55.81zM171.216 815.206h150.348v-451.504h-150.348v451.504zM404.486 815.206h149.894v-251.948c0-16.402 1.672-28.702 5.012-36.904 6.076-15.188 15.642-28.096 28.702-38.726s29.158-15.946 48.294-15.946c17.616 0 32.196 4.404 43.738 13.212s19.818 20.578 24.83 35.308c5.012 14.73 7.518 32.576 7.518 53.534v241.47h149.894v-258.784c0-34.020-4.328-64.088-12.986-90.21s-20.806-47.308-36.448-63.558c-15.642-16.25-33.866-28.55-54.672-36.904s-43.662-12.528-68.568-12.528c-10.934 0-21.414 0.836-31.438 2.506s-18.908 3.948-26.654 6.834c-7.746 2.886-15.188 6.378-22.326 10.478s-13.212 8.202-18.224 12.302c-5.012 4.1-9.948 8.808-14.808 14.124s-8.884 10.1-12.072 14.352c-3.188 4.252-6.454 8.96-9.794 14.124v-64.24h-149.894c0.304 7.896 0.532 28.856 0.682 62.874s0.228 72.364 0.228 115.040c0 42.674-0.076 84.818-0.228 126.43s-0.38 76.54-0.682 104.788v42.37z"></path>
</symbol>
<symbol id="icon-logo_sf" viewBox="0 0 1024 1024">
	<title>logo_sf</title>
	<path class="path1" d="M409.6 204.8h204.8v204.8h-204.8v-204.8zM204.8 819.2v-204.8h203.42v-204.8h-203.42v-409.6h-204.8v1024h614.4v-204.8h-409.6z"></path>
</symbol>
<symbol id="icon-logo_sf2" viewBox="0 0 1024 1024">
	<title>logo_sf2</title>
	<path class="path1" d="M148.48 1003.52h-128v-983.040h163.84v819.2h409.6v163.84h-445.44zM409.6 204.8v204.8h204.8v-204.8h-204.8zM204.8 819.2v-204.8h203.42v-204.8h-203.42v-409.6h-204.8v1024h614.4v-204.8h-409.6zM184.32 430.080h204.8v163.84h-204.8v-163.84z"></path>
</symbol>
<symbol id="icon-mail" viewBox="0 0 1024 1024">
	<title>mail</title>
	<path class="path1" d="M890.88 701.338c0 16.832-4.756 32.446-12.386 46.182l-243.614-271.374 240.976-209.906c9.372 14.816 15.024 32.212 15.024 51.012v384.086zM511.988 532.48l327.692-294.982c-13.438-7.576-28.582-12.218-44.92-12.218h-565.544c-16.36 0-31.504 4.642-44.896 12.218l327.668 294.982zM598.326 512l-75.922 66.98c-4.446 3.9-9.972 5.848-15.524 5.848s-11.080-1.95-15.524-5.85l-75.944-66.98-241.33 272.098c14.466 9.144 31.42 14.622 49.754 14.622h566.092c18.336 0 35.288-5.478 49.754-14.622l-241.354-272.096zM148.146 266.24c-9.372 14.816-15.026 32.212-15.026 51.012v384.086c0 16.832 4.734 32.446 12.388 46.182l243.612-271.42-240.974-209.86z"></path>
</symbol>
<symbol id="icon-mobile" viewBox="0 0 1024 1024">
	<title>mobile</title>
	<path class="path1" d="M671.086 83.272c-105.728-0.010-211.474 1.054-317.184-0.52-42.736-0.638-76.814 29.914-76.36 76.526 1.14 117.508 0.376 235.032 0.376 352.55 0.002 118.554-0.044 237.114 0.024 355.676 0.026 44.226 28.772 72.884 72.83 72.888 106.77 0.014 213.544 0.014 320.31 0 44.058-0.004 72.822-28.658 72.834-72.888 0.054-237.114 0.054-474.23 0-711.346-0.010-44.226-28.77-72.88-72.83-72.888zM690.692 797.648c-119.89 0-239.236 0-359.148 0 0-190.504 0-380.586 0-571.448 119.426 0 238.756 0 359.148 0 0 190.706 0 380.786 0 571.448z"></path>
</symbol>
<symbol id="icon-uniE616" viewBox="0 0 1024 1024">
	<title>uniE616</title>
	<path class="path1" d="M523.86 862.090c-99.468 0.024-198.938 0.076-298.406-0.014-33.792-0.038-39.438-5.54-39.584-38.676-0.16-36.49 0.328-72.99 0-109.48-0.174-19.558 4.864-36.836 16.688-52.702 47.808-64.14 94.928-128.792 142.95-192.77 11.452-15.254 18.538-31.032 18.178-50.224-0.348-18.824-0.27-37.67 0.072-56.494 0.262-14.634 6.1-24.706 22.416-26.354 27.232-2.758 37.764 1.652 43.482 19.24 9.024 27.748 12.384 30.404 41.034 30.516 36.488 0.142 72.99 0.202 109.48-0.056 25.342-0.178 30.382-4.24 37.54-28.174 5.762-19.268 14.008-23.402 39.928-21.5 17.668 1.298 24.49 11.832 25.75 27.808 0.328 4.096 0.736 8.318 0.116 12.332-6.898 44.794 7.246 81.716 35.702 116.992 44.658 55.344 86.076 113.344 127.562 171.162 8.1 11.292 13.66 26.668 14.486 40.51 2.406 40.48 2.676 81.144 2.134 121.712-0.39 29.48-8.168 36.062-37.592 36.106-100.646 0.144-201.292 0.054-301.94 0.066zM526.158 480.174c-53.016-5.444-107.46 46.226-106.96 103.384 0.504 58.096 47.038 105.538 105.264 105.66 59.616 0.134 107.678-46.774 107.752-105.164 0.086-58.922-45.726-103.794-106.056-103.878zM511.174 163.11c84.302-5.27 167.174 7.096 249.098 23.108 34.256 6.694 67.284 23.48 98.676 39.87 28.168 14.706 41.024 43.988 47.62 73.604 8.786 39.428 8.332 79.566-3.996 118.642-7.788 24.71-19.768 30.238-44.51 22.596-26.982-8.336-54.32-15.62-81.002-24.812-27.010-9.304-32.764-18.856-32.528-47.128 0.464-56.196-6.414-67.628-60.732-81.878-26.4-6.93-54.624-9.684-82.002-9.598-73.442 0.232-146.876 2.898-220.308 4.976-6.902 0.194-13.856 2.666-20.564 4.774-51.058 16.052-58.202 25.994-57.522 79.346 0.41 32.034-2.416 38.52-32.764 47.848-37.604 11.568-76.042 20.462-114.276 29.904-15.492 3.822-27.282-3.574-32.638-17.6-20.052-52.476-20.37-149.706 35.778-197.13 30.932-26.132 68.314-37.692 106.25-44.278 81.1-14.076 162.57-27.59 245.422-22.248z"></path>
</symbol>
<symbol id="icon-uniE617" viewBox="0 0 1024 1024">
	<title>uniE617</title>
	<path class="path1" d="M830.668 977.862l-309.728-226.064-309.728 226.066 119.288-364.434-310.712-224.706 383.45 0.836 117.698-364.948 117.698 364.942 383.448-0.836-310.708 224.71 119.296 364.434zM125.55 423.086l245.138 177.284-94.116 287.526 244.364-178.36 244.364 178.36-94.12-287.526 245.142-177.284-302.528 0.658-92.86-287.928-92.86 287.928-302.526-0.658z"></path>
</symbol>
<symbol id="icon-uniE618" viewBox="0 0 1024 1024">
	<title>uniE618</title>
	<path class="path1" d="M850.872 325.262l-62.318-62.314-373.686 373.688-127.252-127.26-62.318 62.314 189.36 189.36 0.214-0.216 0.208 0.212z"></path>
</symbol>
<symbol id="icon-uniE619" viewBox="0 0 1024 1024">
	<title>uniE619</title>
	<path class="path1" d="M117.95 786.318c81.048 0 153.23-24.852 216.55-74.558-37.676-0.634-71.392-12.268-101.152-34.904s-50.338-51.524-61.736-86.668c12.348 2.216 23.27 3.324 32.766 3.324 14.88 0 30.236-2.058 46.064-6.174-40.208-8.23-73.608-28.336-100.202-60.312s-39.89-68.858-39.89-110.65v-2.374c25.328 13.614 51.764 20.894 79.308 21.846-24.062-15.83-43.058-36.566-56.986-62.212s-20.894-53.346-20.894-83.106c0-31.976 7.916-61.26 23.744-87.856 43.69 53.822 96.718 96.798 159.088 128.932s129.328 49.942 200.878 53.424c-3.166-12.346-4.75-25.644-4.75-39.89 0-48.122 17.096-89.2 51.288-123.234s75.35-51.050 123.472-51.050c50.654 0 93.078 18.362 127.27 55.086 40.524-8.23 77.408-22.32 110.65-42.264-13.298 41.79-38.782 73.924-76.456 96.404 34.51-4.116 67.908-13.298 100.202-27.544-23.11 35.142-52.078 65.376-86.904 90.704 0 2.216 0.078 5.856 0.236 10.922s0.236 8.866 0.236 11.396c0 38.626-4.908 77.566-14.722 116.824s-23.982 77.406-42.504 114.448c-18.52 37.042-42.186 71.63-70.996 103.764s-61.102 60.232-96.876 84.294c-35.774 24.062-77.010 42.976-123.71 56.75s-96.008 20.658-147.928 20.658c-96.562 0-185.84-26.12-267.838-78.356 15.198 1.582 29.126 2.374 41.79 2.374z"></path>
</symbol>
<symbol id="icon-wordpress" viewBox="0 0 1024 1024">
	<title>wordpress</title>
	<path class="path1" d="M35.2 527.36c0-62.488 12.188-122.226 36.564-179.22s57.166-106.090 98.364-147.29c41.2-41.2 90.296-73.988 147.29-98.366s116.734-36.566 179.22-36.566c62.486 0 122.226 12.188 179.22 36.566s106.090 57.164 147.29 98.366c41.2 41.2 73.988 90.296 98.366 147.29s36.564 116.734 36.564 179.22c0 62.486-12.188 122.226-36.566 179.22s-57.164 106.090-98.366 147.29c-41.2 41.2-90.296 73.988-147.29 98.366s-116.732 36.564-179.22 36.564c-62.488 0-122.226-12.188-179.22-36.566s-106.090-57.164-147.29-98.366c-41.2-41.2-73.988-90.296-98.364-147.29s-36.564-116.732-36.564-179.22zM81.55 527.36c0 81.028 21.458 154.928 64.376 221.706s99.566 117.334 169.95 151.668l-198.276-542.294c-24.034 53.56-36.050 109.866-36.050 168.92zM150.044 299.73h26.78c12.704 0 28.324-0.428 46.866-1.288s33.818-1.63 45.834-2.318l17.51-1.544c7.21-0.342 12.446 2.146 15.708 7.468s3.69 10.902 1.286 16.738c-2.404 5.836-7.038 9.27-13.904 10.3-15.106 1.718-31.072 2.918-47.896 3.606l151.41 449.596 90.64-272.436-64.376-177.16-43.774-3.606c-6.868-0.688-11.586-3.948-14.162-9.786s-2.146-11.502 1.286-16.994c3.432-5.494 8.584-8.068 15.45-7.726 45.664 3.432 82.058 5.15 109.18 5.15 13.048 0 28.754-0.43 47.124-1.288s33.562-1.63 45.576-2.318l18.024-1.546c5.494-0.342 9.87 1.116 13.132 4.378s4.978 7.038 5.15 11.33c0.172 4.292-1.030 8.326-3.606 12.102s-6.61 6.008-12.102 6.696c-14.764 1.716-30.558 2.918-47.38 3.606l149.866 445.99 41.716-138.020c8.24-27.124 13.818-45.576 16.738-55.362s6.094-22.574 9.528-38.368c3.432-15.794 5.15-29.356 5.15-40.686 0-15.794-1.974-31.33-5.922-46.608s-7.982-27.466-12.102-36.566c-4.12-9.098-9.614-19.484-16.48-31.156-0.688-1.374-2.66-4.634-5.922-9.786s-5.322-8.582-6.18-10.3c-0.858-1.716-2.66-4.892-5.408-9.528s-4.634-7.896-5.664-9.784c-1.030-1.888-2.576-4.892-4.634-9.012s-3.52-7.382-4.378-9.784c-0.858-2.404-1.974-5.494-3.348-9.27s-2.318-7.124-2.832-10.044c-0.514-2.918-1.030-6.094-1.544-9.528s-0.772-6.866-0.772-10.3c0-19.57 6.696-36.738 20.086-51.5s30.042-22.144 49.956-22.144l5.15 0.514c-37.768-34.678-80.596-61.542-128.492-80.598s-98.452-28.582-151.668-28.582c-71.070 0-137.162 16.822-198.274 50.47s-110.552 79.31-148.32 136.99zM379.22 925.456c38.454 11.33 77.594 16.996 117.42 16.996 47.38 0 93.386-7.898 138.020-23.69-1.374-2.060-2.404-3.948-3.090-5.664l-127.72-349.684-124.63 362.046zM705.216 885.8c62.83-36.394 112.956-86.434 150.38-150.122s56.134-133.126 56.134-208.318c0-71.070-16.996-137.332-50.986-198.79 1.716 13.732 2.576 27.81 2.576 42.23 0 46.35-10.472 95.962-31.414 148.836l-126.69 366.164z"></path>
</symbol>
<symbol id="icon-youtube" viewBox="0 0 1024 1024">
	<title>youtube</title>
	<path class="path1" d="M772.506 735.56h-50.586l0.236-29.38c0-13.056 10.722-23.736 23.828-23.736h3.226c13.128 0 23.88 10.68 23.88 23.736l-0.584 29.38zM582.788 672.604c-12.832 0-23.326 8.622-23.326 19.18v142.88c0 10.538 10.496 19.14 23.326 19.14 12.882 0 23.388-8.602 23.388-19.14v-142.88c0-10.568-10.506-19.18-23.388-19.18v0zM890.88 592.682v271.81c0 65.198-56.544 118.548-125.644 118.548h-516.7c-69.13 0-125.656-53.35-125.656-118.548v-271.81c0-65.198 56.526-118.558 125.656-118.558h516.7c69.1 0 125.644 53.36 125.644 118.558v0zM283.002 894.004l-0.040-286.322 64.050 0.020v-42.424l-170.742-0.256v41.708l53.3 0.154v287.12h53.432zM475.002 650.332h-53.402v152.894c0 22.118 1.342 33.178-0.082 37.078-4.342 11.858-23.858 24.442-31.468 1.28-1.29-4.054-0.154-16.292-0.174-37.304l-0.214-153.948h-53.106l0.164 151.52c0.040 23.224-0.522 40.55 0.184 48.424 1.3 13.896 0.84 30.106 13.732 39.352 24.024 17.316 70.072-2.58 81.592-27.32l-0.102 31.57 42.884 0.052v-243.6h-0.010zM645.836 825.416l-0.114-127.252c-0.042-48.496-36.322-77.548-85.576-38.308l0.216-94.606-53.35 0.082-0.256 326.554 43.858-0.644 3.994-20.336c56.074 51.436 91.31 16.2 91.228-45.486v0zM812.964 808.55l-40.048 0.216c-0.020 1.586-0.072 3.42-0.092 5.418v22.344c0 11.95-9.882 21.688-21.884 21.688h-7.844c-12.022 0-21.894-9.738-21.894-21.688v-58.768h91.688v-34.51c0-25.222-0.644-50.432-2.734-64.85-6.554-45.61-70.574-52.85-102.912-29.5-10.158 7.292-17.91 17.050-22.414 30.168-4.558 13.116-6.81 31.038-6.81 53.802v75.868c0.010 126.136 153.222 108.308 134.942-0.184v0zM607.57 396.616c2.754 6.698 7.034 12.124 12.842 16.22 5.734 4.036 13.076 6.062 21.852 6.062 7.7 0 14.52-2.080 20.46-6.37 5.918-4.27 10.906-10.65 14.972-19.158l-1.004 20.952h59.524v-253.144h-46.858v197.018c0 10.67-8.786 19.404-19.528 19.404-10.68 0-19.496-8.736-19.496-19.404v-197.018h-48.906v170.742c0 21.75 0.39 36.25 1.034 43.602 0.686 7.302 2.356 14.306 5.11 21.094v0zM427.182 253.644c0-24.3 2.028-43.274 6.052-56.954 4.056-13.63 11.336-24.586 21.882-32.85 10.516-8.306 23.982-12.462 40.356-12.462 13.774 0 25.57 2.702 35.43 7.996 9.902 5.326 17.53 12.236 22.836 20.768 5.396 8.56 9.062 17.356 11.018 26.358 1.996 9.124 2.98 22.886 2.98 41.452v64.020c0 23.48-0.942 40.754-2.764 51.722-1.812 10.998-5.704 21.198-11.726 30.76-5.948 9.462-13.62 16.538-22.918 21.054-9.4 4.558-20.152 6.788-32.298 6.788-13.568 0-24.996-1.874-34.418-5.786-9.452-3.892-16.752-9.76-21.954-17.55-5.252-7.804-8.95-17.306-11.182-28.384-2.242-11.070-3.308-27.72-3.308-49.91v-67.020h0.010zM473.806 354.202c0 14.336 10.67 26.040 23.666 26.040 13.004 0 23.624-11.704 23.624-26.040v-134.758c0-14.316-10.62-26.020-23.624-26.020-12.996 0-23.666 11.704-23.666 26.020v134.758zM309.064 422.246h56.156l0.060-194.15 66.356-166.318h-61.42l-35.276 123.534-35.778-123.874h-60.784l70.594 166.748 0.092 194.058z"></path>
</symbol>
<symbol id="icon-img" viewBox="0 0 1024 1024">
	<title>img</title>
	<path class="path1" d="M896 192h-768v640h768v-640zM1024 64v0 896h-1024v-896h1024zM832 768h-640v-128l192-320 263 320 185-128v64zM640 352c0-53.020 42.98-96 96-96s96 42.98 96 96c0 53.020-42.98 96-96 96s-96-42.98-96-96z"></path>
</symbol>
<symbol id="icon-cart2" viewBox="0 0 1024 1024">
	<title>cart2</title>
	<path class="path1" d="M128 928c0-53.020 42.98-96 96-96s96 42.98 96 96c0 53.020-42.98 96-96 96s-96-42.98-96-96zM768 928c0-53.020 42.98-96 96-96s96 42.98 96 96c0 53.020-42.98 96-96 96s-96-42.98-96-96zM960 512v-384h-832c0-70.692-57.306-128-128-128v64c35.29 0 64 28.71 64 64l48.074 412.054c-29.294 23.458-48.074 59.5-48.074 99.946 0 70.694 57.308 128 128 128h768v-64h-768c-35.346 0-64-28.654-64-64 0-0.22 0.014-0.436 0.016-0.656l831.984-127.344z"></path>
</symbol>
<symbol id="icon-map-point" viewBox="0 0 1024 1024">
	<title>map-point</title>
	<path class="path1" d="M512 0c-176.732 0-320 143.268-320 320 0 320 320 704 320 704s320-384 320-704c0-176.732-143.27-320-320-320zM512 512c-106.040 0-192-85.96-192-192s85.96-192 192-192 192 85.96 192 192-85.96 192-192 192z"></path>
</symbol>
<symbol id="icon-quotes" viewBox="0 0 1024 1024">
	<title>quotes</title>
	<path class="path1" d="M225 448c123.712 0 224 100.29 224 224s-100.288 224-224 224c-123.712 0-224-100.288-224-224l-1-32c0-247.424 200.576-448 448-448v128c-85.474 0-165.834 33.286-226.274 93.726-11.634 11.636-22.252 24.016-31.83 37.020 11.438-1.8 23.16-2.746 35.104-2.746zM801 448c123.71 0 224 100.29 224 224s-100.29 224-224 224c-123.71 0-224-100.288-224-224l-1-32c0-247.424 200.576-448 448-448v128c-85.474 0-165.834 33.286-226.274 93.726-11.636 11.636-22.254 24.016-31.832 37.020 11.44-1.8 23.16-2.746 35.106-2.746z"></path>
</symbol>
<symbol id="icon-uniE621" viewBox="0 0 1024 1024">
	<title>uniE621</title>
	<path class="path1" d="M728.992 512c137.754-87.334 231.008-255.208 231.008-448 0-21.676-1.192-43.034-3.478-64h-889.042c-2.29 20.968-3.48 42.326-3.48 64 0 192.792 93.254 360.666 231.006 448-137.752 87.334-231.006 255.208-231.006 448 0 21.676 1.19 43.034 3.478 64h889.042c2.288-20.966 3.478-42.324 3.478-64 0.002-192.792-93.252-360.666-231.006-448zM160 960c0-186.912 80.162-345.414 224-397.708v-100.586c-143.838-52.29-224-210.792-224-397.706v0h704c0 186.914-80.162 345.416-224 397.706v100.586c143.838 52.294 224 210.796 224 397.708h-704zM619.626 669.594c-71.654-40.644-75.608-93.368-75.626-125.366v-64.228c0-31.994 3.804-84.914 75.744-125.664 38.504-22.364 71.808-56.348 97.048-98.336h-409.582c25.266 42.032 58.612 76.042 97.166 98.406 71.654 40.644 75.606 93.366 75.626 125.366v64.228c0 31.992-3.804 84.914-75.744 125.664-72.622 42.18-126.738 125.684-143.090 226.336h501.67c-16.364-100.708-70.53-184.248-143.212-226.406z"></path>
</symbol>
<symbol id="icon-planet" viewBox="0 0 1024 1024">
	<title>planet</title>
	<path class="path1" d="M874.040 149.962c96.702 96.704 149.96 225.28 149.96 362.040s-53.258 265.334-149.96 362.038c-96.706 96.702-225.28 149.96-362.040 149.96s-265.334-53.258-362.040-149.96c-96.702-96.704-149.96-225.278-149.96-362.038s53.254-265.336 149.96-362.040c96.706-96.704 225.28-149.962 362.040-149.962s265.334 53.258 362.040 149.962zM828.784 828.786c63.058-63.060 104.986-141.608 122.272-227.062-13.474 19.836-26.362 27.194-34.344-17.206-8.22-72.39-74.708-26.148-116.516-51.86-44.004 29.658-142.906-57.662-126.098 40.824 25.934 44.422 140.008-59.45 83.148 34.542-36.274 65.616-132.642 210.932-120.106 286.258 1.582 109.744-112.134 22.884-151.314-13.52-26.356-72.92-8.982-200.374-77.898-236.086-74.802-3.248-139.004-10.046-167.994-93.67-17.446-59.828 18.564-148.894 82.678-162.644 93.85-58.966 127.374 69.054 215.39 71.434 27.328-28.594 101.816-37.686 107.992-69.75-57.75-10.19 73.268-48.558-5.528-70.382-43.47 5.112-71.478 45.074-48.368 78.958-84.238 19.642-86.936-121.904-167.91-77.258-2.058 70.59-132.222 22.886-45.036 8.572 29.956-13.088-48.86-51.016-6.28-44.124 20.916-1.136 91.332-25.812 72.276-42.402 39.21-24.34 72.16 58.29 110.538-1.882 27.708-46.266-11.62-54.808-46.35-31.356-19.58-21.924 34.57-69.276 82.332-89.738 15.918-6.82 31.122-10.536 42.746-9.484 24.058 27.792 68.55 32.606 70.878-3.342-59.582-28.534-125.276-43.608-193.292-43.608-97.622 0-190.47 31.024-267.308 88.39 20.65 9.46 32.372 21.238 12.478 36.296-15.456 46.054-78.17 107.876-133.224 99.124-28.586 49.296-47.412 103.606-55.46 160.528 46.112 15.256 56.744 45.45 46.836 55.55-23.496 20.488-37.936 49.53-45.376 81.322 15.010 91.836 58.172 176.476 125.27 243.576 84.616 84.614 197.118 131.214 316.784 131.214s232.168-46.6 316.784-131.214z"></path>
</symbol>
<symbol id="icon-external2" viewBox="0 0 1024 1024">
	<title>external2</title>
	<path class="path1" d="M953.396 74.642l-4.028-4.042c-94.148-94.134-248.194-94.134-342.326 0l-218.106 218.136c-94.134 94.132-94.134 248.176 0 342.31l4.026 4.026c7.832 7.848 16.146 14.924 24.736 21.458l79.848-79.85c-9.302-5.494-18.126-12.072-26.116-20.060l-4.042-4.042c-51.114-51.098-51.114-134.272 0-185.39l218.128-218.112c51.116-51.118 134.274-51.118 185.386 0l4.042 4.024c51.1 51.116 51.1 134.292 0 185.39l-98.686 98.686c17.132 42.308 25.248 87.4 24.538 132.386l152.604-152.604c94.134-94.136 94.134-248.178-0.004-342.316zM631.042 388.934c-7.832-7.832-16.146-14.922-24.736-21.44l-79.848 79.832c9.304 5.496 18.126 12.074 26.116 20.062l4.042 4.040c51.116 51.116 51.116 134.272 0 185.388l-218.13 218.134c-51.118 51.102-134.276 51.102-185.388 0l-4.042-4.042c-51.098-51.12-51.098-134.276 0-185.388l98.688-98.686c-17.134-42.306-25.246-87.402-24.538-132.386l-152.602 152.598c-94.136 94.132-94.136 248.178 0 342.324l4.026 4.032c94.152 94.128 248.192 94.128 342.328 0l218.11-218.118c94.134-94.132 94.134-248.194 0-342.326l-4.026-4.024z"></path>
</symbol>
<symbol id="icon-clip" viewBox="0 0 1024 1024">
	<title>clip</title>
	<path class="path1" d="M697.832 327.048l-64.952-64.922-324.81 324.742c-53.814 53.792-53.814 141.048 0 194.844 53.804 53.792 141.060 53.792 194.874 0l389.772-389.708c89.714-89.662 89.714-235.062 0-324.726-89.666-89.704-235.112-89.704-324.782 0l-409.23 409.178c-0.29 0.304-0.612 0.576-0.876 0.846-125.102 125.096-125.102 327.856 0 452.906 125.054 125.056 327.868 125.056 452.988 0 0.274-0.274 0.516-0.568 0.82-0.876l0.032 0.034 279.332-279.292-64.986-64.92-279.33 279.262c-0.296 0.268-0.564 0.57-0.846 0.844-89.074 89.058-233.98 89.058-323.076 0-89.062-89.042-89.062-233.922 0-322.978 0.304-0.304 0.604-0.582 0.888-0.846l-0.046-0.060 409.28-409.166c53.712-53.738 141.144-53.738 194.886 0 53.712 53.734 53.712 141.148 0 194.84l-389.772 389.7c-17.936 17.922-47.054 17.922-64.972 0-17.894-17.886-17.894-47.032 0-64.92l324.806-324.782z"></path>
</symbol>
<symbol id="icon-face3" viewBox="0 0 1024 1024">
	<title>face3</title>
	<path class="path1" d="M512 1024c282.77 0 512-229.23 512-512s-229.23-512-512-512-512 229.23-512 512 229.23 512 512 512zM512 96c229.75 0 416 186.25 416 416s-186.25 416-416 416-416-186.25-416-416 186.25-416 416-416zM256 320c0 35.346 28.654 64 64 64s64-28.654 64-64-28.654-64-64-64-64 28.654-64 64zM640 320c0 35.346 28.654 64 64 64s64-28.654 64-64-28.654-64-64-64-64 28.654-64 64zM384 704h256v64h-256v-64z"></path>
</symbol>
<symbol id="icon-face4" viewBox="0 0 1024 1024">
	<title>face4</title>
	<path class="path1" d="M512 1024c282.77 0 512-229.23 512-512s-229.23-512-512-512-512 229.23-512 512 229.23 512 512 512zM512 96c229.75 0 416 186.25 416 416s-186.25 416-416 416-416-186.25-416-416 186.25-416 416-416zM745.74 601.62l22.488 76.776-437.008 128.002-22.488-76.776zM256 320c0-35.346 28.654-64 64-64s64 28.654 64 64c0 35.346-28.654 64-64 64s-64-28.654-64-64zM640 320c0-35.346 28.654-64 64-64s64 28.654 64 64c0 35.346-28.654 64-64 64s-64-28.654-64-64z"></path>
</symbol>
<symbol id="icon-uniE627" viewBox="0 0 1024 1024">
	<title>uniE627</title>
	<path class="path1" d="M0 416v192c0 17.672 14.328 32 32 32h960c17.672 0 32-14.328 32-32v-192c0-17.672-14.328-32-32-32h-960c-17.672 0-32 14.328-32 32z"></path>
</symbol>
<symbol id="icon-uniE628" viewBox="0 0 1024 1024">
	<title>uniE628</title>
	<path class="path1" d="M992 384h-352v-352c0-17.672-14.328-32-32-32h-192c-17.672 0-32 14.328-32 32v352h-352c-17.672 0-32 14.328-32 32v192c0 17.672 14.328 32 32 32h352v352c0 17.672 14.328 32 32 32h192c17.672 0 32-14.328 32-32v-352h352c17.672 0 32-14.328 32-32v-192c0-17.672-14.328-32-32-32z"></path>
</symbol>
<symbol id="icon-uniE62F" viewBox="0 0 1024 1024">
	<title>uniE62F</title>
	<path class="path1" d="M288 256l-256 256 256 256h128l-256-256 256-256h-128zM736 256h-128l256 256-256 256h128l256-256-256-256z"></path>
</symbol>
<symbol id="icon-uniE630" viewBox="0 0 1024 1024">
	<title>uniE630</title>
	<path class="path1" d="M128 512l256-256h-128l-256 256 256 256h128zM768 256h-128l256 256-256 256h128l256-256zM544 128l-160 768h96l160-768z"></path>
</symbol>
<symbol id="icon-uniE631" viewBox="0 0 1024 1024">
	<title>uniE631</title>
	<path class="path1" d="M0 64v896h1024v-896h-1024zM960 896h-896v-768h896v768zM896 192h-768v640h768v-640zM448 512h-64v64h-64v64h-64v-64h64v-64h64v-64h-64v-64h-64v-64h64v64h64v64h64v64zM704 640h-192v-64h192v64z"></path>
</symbol>
<symbol id="icon-facebook3" viewBox="0 0 1024 1024">
	<title>facebook3</title>
	<path class="path1" d="M512 0c282.77 0 512 229.23 512 512 0 261.094-195.438 476.53-448 508.026v-380.026h176l16-128h-192v-64c0-35.346 28.654-64 64-64h128v-128h-128c-106.040 0-192 85.96-192 192v64h-96v128h96v380.026c-252.562-31.496-448-246.932-448-508.026 0-282.77 229.23-512 512-512z"></path>
</symbol>
<symbol id="icon-twitter" viewBox="0 0 1024 1024">
	<title>twitter</title>
	<path class="path1" d="M1024 194.418c-37.676 16.708-78.164 28.002-120.66 33.080 43.372-26 76.686-67.17 92.372-116.23-40.596 24.078-85.556 41.56-133.41 50.98-38.32-40.83-92.922-66.34-153.346-66.34-116.022 0-210.088 94.058-210.088 210.078 0 16.466 1.858 32.5 5.44 47.878-174.6-8.764-329.402-92.4-433.018-219.506-18.084 31.028-28.446 67.116-28.446 105.618 0 72.888 37.088 137.192 93.46 174.866-34.438-1.092-66.832-10.542-95.154-26.278-0.020 0.876-0.020 1.756-0.020 2.642 0 101.788 72.418 186.696 168.522 206-17.626 4.8-36.188 7.372-55.348 7.372-13.538 0-26.698-1.32-39.528-3.772 26.736 83.46 104.32 144.206 196.252 145.896-71.9 56.35-162.486 89.934-260.916 89.934-16.958 0-33.68-0.994-50.116-2.94 92.972 59.61 203.402 94.394 322.042 94.394 386.422 0 597.736-320.124 597.736-597.744 0-9.108-0.206-18.168-0.61-27.18 41.056-29.62 76.672-66.62 104.836-108.748z"></path>
</symbol>
<symbol id="icon-vimeo" viewBox="0 0 1024 1024">
	<title>vimeo</title>
	<path class="path1" d="M0 308.37l41.594 54.544c0 0 85.77-67.608 114.36-33.802 28.588 33.802 137.736 441.956 174.17 517.246 31.8 66.030 119.518 153.32 215.714 90.982 96.136-62.34 415.84-335.286 473.066-657.616 57.18-322.226-384.72-254.726-431.53 26.010 116.99-70.236 179.436 28.538 119.57 140.372-59.758 111.724-114.36 184.592-142.952 184.592-28.538 0-50.49-74.768-83.188-205.446-33.798-135.102-33.592-378.46-174.116-350.87-132.518 26.012-306.688 233.988-306.688 233.988z"></path>
</symbol>
<symbol id="icon-flickr2" viewBox="0 0 1024 1024">
	<title>flickr2</title>
	<path class="path1" d="M512 0c-282.77 0-512 230.796-512 515.5s229.23 515.5 512 515.5 512-230.796 512-515.5-229.23-515.5-512-515.5zM288 672c-88.366 0-160-71.634-160-160s71.634-160 160-160 160 71.634 160 160c0 88.366-71.634 160-160 160zM736 672c-88.368 0-160-71.634-160-160s71.632-160 160-160 160 71.634 160 160c0 88.366-71.632 160-160 160z"></path>
</symbol>
<symbol id="icon-uniE638" viewBox="0 0 1024 1024">
	<title>uniE638</title>
	<path class="path1" d="M512 831.892c-19.154 0-38.308-9.916-58.142-29.75-7.81-7.81-7.81-20.474 0-28.286 7.81-7.808 20.474-7.808 28.286 0 12.206 12.21 21.972 18.144 29.856 18.144 7.882 0 17.65-5.934 29.858-18.142 7.812-7.808 20.472-7.808 28.286 0 7.81 7.81 7.81 20.474 0 28.286-19.836 19.832-38.99 29.748-58.144 29.748zM0 525.492c0 49.892 4.266 95.122 12.8 135.682s20.534 75.74 36 105.532c15.466 29.792 35.022 55.904 58.666 78.34s49.332 40.92 77.066 55.458c27.734 14.536 59.466 26.296 95.2 35.266 35.732 8.974 72.088 15.256 109.066 18.846s77.69 5.384 122.134 5.384c44.444 0 85.242-1.79 122.398-5.38s73.602-9.872 109.332-18.846c35.734-8.974 67.558-20.73 95.468-35.266 27.91-14.538 53.778-33.026 77.598-55.458 23.824-22.436 43.47-48.548 58.934-78.34 15.47-29.794 27.56-64.974 36.27-105.532 8.71-40.56 13.066-85.788 13.066-135.68 0-89.38-27.736-166.372-83.2-230.982 3.2-8.616 5.954-18.486 8.266-29.614 2.308-11.128 4.532-26.832 6.664-47.112 2.138-20.282 1.336-43.704-2.398-70.264-3.734-26.564-10.754-53.664-21.066-81.302l-8-1.618c-5.332-1.076-14.042-0.718-26.132 1.080-12.086 1.794-26.222 5.022-42.398 9.69-16.176 4.664-37.066 13.908-62.668 27.728-25.598 13.818-52.62 31.318-81.066 52.496-48.356-14.718-115.020-30.116-200-30.116-84.976 0-151.822 15.396-200.53 30.114-28.446-21.18-55.556-38.588-81.334-52.228-25.78-13.642-46.402-22.974-61.868-27.998s-29.778-8.256-42.934-9.69c-13.156-1.436-21.602-1.886-25.334-1.346s-6.488 1.166-8.266 1.884c-10.314 27.64-17.424 54.74-21.336 81.304-3.91 26.56-4.8 49.892-2.666 69.992 2.134 20.102 4.444 35.898 6.934 47.382s5.334 21.358 8.534 29.614c-55.466 64.25-83.2 141.242-83.2 230.98zM136.536 639.404c0-58.022 21.332-110.638 64-157.856 12.8-14.406 27.646-25.312 44.534-32.712 16.89-7.402 36.088-11.606 57.6-12.606s42.044-0.8 61.6 0.6c19.556 1.402 43.734 3.302 72.534 5.702 28.798 2.404 53.688 3.602 74.666 3.602 20.976 0 45.868-1.2 74.664-3.602 28.806-2.4 52.982-4.3 72.536-5.702 19.56-1.4 40.090-1.6 61.602-0.6s40.802 5.204 57.868 12.606c17.066 7.4 32 18.306 44.8 32.712 42.664 47.218 64 99.834 64 157.856 0 34.012-3.554 64.324-10.668 90.934-7.11 26.612-16.090 48.916-26.934 66.922s-26.048 33.218-45.598 45.62c-19.558 12.406-38.492 22.010-56.8 28.81-18.312 6.8-41.958 12.104-70.934 15.906-28.982 3.796-54.934 6.102-77.872 6.9-22.934 0.8-51.82 1.2-86.664 1.2s-63.644-0.402-86.4-1.2c-22.756-0.798-48.622-3.104-77.6-6.9-28.978-3.802-52.622-9.104-70.934-15.906s-37.244-16.404-56.8-28.81c-19.556-12.404-34.756-27.612-45.6-45.62-10.846-18.006-19.824-40.31-26.934-66.922-7.11-26.61-10.666-56.922-10.666-90.934zM256 608.004c0-53.020 28.654-96 64-96s64 42.98 64 96c0 53.020-28.654 96-64 96s-64-42.98-64-96zM640 608.004c0-53.020 28.654-96 64-96s64 42.98 64 96c0 53.020-28.654 96-64 96s-64-42.98-64-96z"></path>
</symbol>
<symbol id="icon-uniE639" viewBox="0 0 1024 1024">
	<title>uniE639</title>
	<path class="path1" d="M512 0c-282.77 0-512 229.23-512 512s229.23 512 512 512 512-229.23 512-512-229.23-512-512-512zM816.056 816.056c-39.518 39.516-85.512 70.532-136.708 92.186-13.006 5.5-26.214 10.328-39.6 14.492v-76.734c0-40.334-13.834-70-41.5-89 17.334-1.666 33.25-4 47.75-7s29.834-7.334 46-13 30.666-12.416 43.5-20.25 25.166-18 37-30.5 21.75-26.666 29.75-42.5 14.334-34.834 19-57 7-46.584 7-73.25c0-51.666-16.834-95.666-50.5-132 15.334-40 13.666-83.5-5-130.5l-12.5-1.5c-8.666-1-24.25 2.666-46.75 11s-47.75 22-75.75 41c-39.666-11-80.834-16.5-123.5-16.5-43 0-84 5.5-123 16.5-17.666-12-34.416-21.916-50.25-29.75s-28.5-13.166-38-16-18.334-4.584-26.5-5.25-13.416-0.834-15.75-0.5-4 0.666-5 1c-18.666 47.334-20.334 90.834-5 130.5-33.666 36.334-50.5 80.334-50.5 132 0 26.666 2.334 51.084 7 73.25s11 41.166 19 57 17.916 30 29.75 42.5 24.166 22.666 37 30.5 27.334 14.584 43.5 20.25 31.5 10 46 13 30.416 5.334 47.75 7c-27.334 18.666-41 48.334-41 89v78.23c-15.098-4.494-29.98-9.804-44.6-15.988-51.194-21.654-97.188-52.67-136.706-92.186-39.516-39.518-70.534-85.512-92.186-136.708-22.398-52.958-33.756-109.262-33.756-167.348s11.358-114.39 33.758-167.35c21.654-51.194 52.67-97.188 92.186-136.706s85.512-70.534 136.706-92.186c52.96-22.4 109.264-33.758 167.35-33.758s114.39 11.358 167.35 33.758c51.196 21.654 97.19 52.67 136.708 92.186 39.516 39.516 70.532 85.512 92.186 136.706 22.398 52.96 33.756 109.264 33.756 167.35s-11.358 114.39-33.758 167.35c-21.654 51.194-52.67 97.19-92.186 136.706z"></path>
</symbol>
<symbol id="icon-wp" viewBox="0 0 1024 1024">
	<title>wp</title>
	<path class="path1" d="M128 511.992c0 148.026 88.322 275.968 216.43 336.578l-183.178-488.784c-21.308 46.508-33.252 97.982-33.252 152.206zM771.228 493.128c0-46.234-17.054-78.236-31.654-103.142-19.458-30.82-37.72-56.894-37.72-87.716 0-34.374 26.766-66.376 64.486-66.376 1.704 0 3.32 0.204 4.976 0.302-68.316-60.97-159.34-98.196-259.308-98.196-134.16 0-252.186 67.046-320.844 168.568 9.010 0.282 17.506 0.454 24.712 0.454 40.154 0 102.34-4.752 102.34-4.752 20.69-1.182 23.132 28.434 2.458 30.822 0 0-20.81 2.368-43.952 3.55l139.834 405.106 84.044-245.456-59.822-159.65c-20.688-1.184-40.278-3.55-40.278-3.55-20.702-1.192-18.272-32.002 2.438-30.822 0 0 63.4 4.752 101.134 4.752 40.146 0 102.35-4.752 102.35-4.752 20.702-1.182 23.14 28.434 2.446 30.822 0 0-20.834 2.372-43.948 3.55l138.78 402.018 38.312-124.632c16.58-51.75 29.216-88.9 29.216-120.9zM518.742 544.704l-115.226 326.058c34.416 9.858 70.794 15.238 108.488 15.238 44.716 0 87.604-7.518 127.518-21.2-1.018-1.602-1.974-3.304-2.75-5.154l-118.030-314.942zM848.962 332.572c1.652 11.91 2.588 24.686 2.588 38.458 0 37.93-7.292 80.596-29.202 133.95l-117.286 330.272c114.162-64.828 190.938-185.288 190.938-323.258 0-65.030-17.060-126.16-47.038-179.422zM512 0c-282.77 0-512 229.23-512 512s229.23 512 512 512 512-229.23 512-512-229.23-512-512-512zM512 960c-247.424 0-448-200.576-448-448s200.576-448 448-448 448 200.576 448 448-200.576 448-448 448z"></path>
</symbol>
<symbol id="icon-paypal2" viewBox="0 0 1024 1024">
	<title>paypal2</title>
	<path class="path1" d="M880.634 130.774c25.698 12.576 48.094 30.486 64.502 52.482 34.536 46.3 44.236 109.372 28.836 187.466-15.56 79.026-50.416 145.734-101.166 194.044-9.282 9.702-19.222 18.746-29.804 27.080-54.356 42.802-122.998 65.428-198.508 65.428h-240.060l-64.564 302.726h-132.424l10.086-46.3h46.128l64.564-302.726h188.27c180.25 0 330.938-111.078 371.258-299.936 45.722-213.834-107.598-311.038-239.41-311.038h-449.278l-199.064 913.7h152.032l-24.032 110.3h263.66l64.564-302.726h188.27c180.25 0 330.938-111.078 371.258-299.936 33.716-157.68-40.804-251.932-135.118-290.564zM422.344 186.082h129.132c64.592 0 107.602 55.538 88.786 124.956-16.136 69.44-83.386 124.976-150.64 124.976h-123.758l56.48-249.932z"></path>
</symbol>
<symbol id="icon-html52" viewBox="0 0 1024 1024">
	<title>html52</title>
	<path class="path1" d="M60.538 0l82.144 921.63 368.756 102.37 369.724-102.524 82.3-921.476h-902.924zM810.762 862.824l-297.226 82.376v0.466l-0.776-0.234-0.782 0.234v-0.466l-297.222-82.376-70.242-787.486h736.496l-70.248 787.486zM650.754 530.204l-13.070 146.552-126.21 34.070-125.862-33.916-8.050-90.234h-113.49l15.83 177.512 232.076 64.176 231.342-64.176 31.040-347.012h-411.966l-10.302-115.748h432.534l10.112-113.026h-566.218l30.498 341.802z"></path>
</symbol>
<symbol id="icon-uniE63E" viewBox="0 0 1024 1024">
	<title>uniE63E</title>
	<path class="path1" d="M258.278 446.542l-146.532-253.802c93.818-117.464 238.234-192.74 400.254-192.74 187.432 0 351.31 100.736 440.532 251h-417.77c-7.504-0.65-15.092-1-22.762-1-121.874 0-224.578 83.644-253.722 196.542zM695.306 325h293.46c22.74 57.93 35.234 121.004 35.234 187 0 280.826-226.1 508.804-506.186 511.926l209.394-362.678c29.48-42.378 46.792-93.826 46.792-149.248 0-73.17-30.164-139.42-78.694-187zM326 512c0-102.56 83.44-186 186-186s186 83.44 186 186c0 102.56-83.44 186-186 186s-186-83.44-186-186zM582.182 764.442l-146.578 253.878c-246.532-36.884-435.604-249.516-435.604-506.32 0-91.218 23.884-176.846 65.696-251.024l209.030 362.054c41.868 89.112 132.476 150.97 237.274 150.97 24.3 0 47.836-3.34 70.182-9.558z"></path>
</symbol>
<symbol id="icon-uniE63F" viewBox="0 0 1024 1024">
	<title>uniE63F</title>
	<path class="path1" d="M1022.526 334.14l-11.86 76.080c0 0-16.954-140.856-37.732-193.514-31.846-80.688-46.014-80.040-46.108-79.922 21.33 54.204 17.462 83.324 17.462 83.324s-37.792-102.998-137.712-135.768c-110.686-36.282-170.57-26.364-177.488-24.486-1.050-0.008-2.064-0.010-3.030-0.010 0.818 0.062 1.612 0.146 2.426 0.212-0.034 0.020-0.090 0.042-0.082 0.052 0.45 0.548 122.306 21.302 143.916 50.996 0 0-51.76 0-103.272 14.842-2.328 0.666 189.524 23.964 228.746 215.674 0 0-21.030-43.876-47.040-51.328 17.106 52.036 12.714 150.776-3.576 199.85-2.096 6.312-4.24-27.282-36.328-41.75 10.28 73.646-0.616 190.456-51.708 222.632-3.982 2.504 32.030-115.31 7.242-69.762-142.708 218.802-311.404 100.972-387.248 49.11 38.866 8.462 112.654-1.318 145.314-25.612 0.042-0.030 0.078-0.056 0.118-0.086 35.468-24.252 56.472-41.964 75.334-37.772 18.874 4.214 31.438-14.726 16.78-31.53-14.676-16.838-50.314-39.978-98.524-27.366-34 8.904-76.134 46.522-140.448 8.432-49.364-29.25-54.012-53.546-54.45-70.376 1.218-5.966 2.754-11.536 4.576-16.624 5.682-15.87 22.912-20.658 32.494-24.438 16.256 2.792 30.262 7.862 44.968 15.406 0.19-4.894 0.252-11.39-0.018-18.76 1.41-2.802 0.538-11.252-1.722-21.58-1.302-10.308-3.42-20.974-6.752-30.692 0.012-0.002 0.020-0.010 0.030-0.014 0.056-0.018 0.108-0.040 0.156-0.070 0.078-0.044 0.146-0.112 0.208-0.19 0.012-0.020 0.030-0.034 0.044-0.052 0.082-0.124 0.154-0.272 0.198-0.466 1.020-4.618 12.022-13.524 25.718-23.1 12.272-8.58 26.702-17.696 38.068-24.752 10.060-6.248 17.72-10.882 19.346-12.098 0.618-0.466 1.358-1.012 2.164-1.636 0.15-0.116 0.3-0.232 0.454-0.354 0.094-0.074 0.19-0.148 0.286-0.226 5.41-4.308 13.484-12.448 15.178-29.578 0.004-0.042 0.010-0.080 0.012-0.122 0.050-0.504 0.092-1.014 0.13-1.534 0.028-0.362 0.050-0.726 0.072-1.096 0.014-0.284 0.032-0.566 0.044-0.856 0.030-0.674 0.050-1.364 0.060-2.064 0-0.040 0.002-0.076 0.004-0.116 0.022-1.658-0.006-3.386-0.104-5.202-0.054-1.014-0.126-1.93-0.298-2.762-0.008-0.044-0.018-0.092-0.028-0.136-0.018-0.082-0.036-0.164-0.058-0.244-0.036-0.146-0.076-0.292-0.122-0.43-0.006-0.018-0.010-0.032-0.016-0.046-0.052-0.16-0.112-0.314-0.174-0.464-0.004-0.006-0.004-0.010-0.006-0.016-1.754-4.108-8.32-5.658-35.442-6.118-0.026-0.002-0.050-0.002-0.076-0.002v0c-11.066-0.188-25.538-0.194-44.502-0.118-33.25 0.134-51.628-32.504-57.494-45.132 8.040-44.46 31.276-76.142 69.45-97.626 0.722-0.406 0.58-0.742-0.274-0.978 7.464-4.514-90.246-0.124-135.186 57.036-39.888-9.914-74.654-9.246-104.616-2.214-5.754-0.162-12.924-0.88-21.434-2.652-19.924-18.056-48.448-51.402-49.976-91.208 0 0-0.092 0.072-0.252 0.204-0.020-0.382-0.056-0.76-0.072-1.142 0 0-60.716 46.664-51.628 173.882-0.022 2.036-0.064 3.986-0.12 5.874-16.432 22.288-24.586 41.020-25.192 45.156-14.56 29.644-29.334 74.254-41.356 141.98 0 0 8.408-26.666 25.284-56.866-12.412 38.022-22.164 97.156-16.436 185.856 0 0 1.514-19.666 6.874-47.994 4.186 55.010 22.518 122.924 68.858 202.788 88.948 153.32 225.67 230.74 376.792 242.616 26.836 2.212 54.050 2.264 81.424 0.186 2.516-0.178 5.032-0.364 7.55-0.574 30.964-2.174 62.134-6.852 93.238-14.366 425.172-102.798 378.942-616.198 378.942-616.198z"></path>
</symbol>
<symbol id="icon-uniE640" viewBox="0 0 1024 1024">
	<title>uniE640</title>
	<path class="path1" d="M734.202 628.83h236.050c1.82-16.37 2.548-33.098 2.548-50.196 0-80.224-21.534-155.468-59.124-220.266 38.88-103.308 37.492-190.988-14.556-243.39-49.496-49.28-182.29-41.28-332.412 25.198-11.104-0.84-22.318-1.272-33.638-1.272-206.048 0-378.926 141.794-426.708 332.85 64.638-82.754 132.638-142.754 223.478-186.448-8.26 7.74-56.454 55.652-64.56 63.764-239.548 239.478-315.090 552.306-233.806 633.604 61.786 61.774 173.758 51.342 302.376-11.648 59.806 30.458 127.5 47.63 199.218 47.63 193.134 0 356.804-124.316 416.090-297.448h-237.868c-32.734 60.382-96.748 101.48-170.218 101.48s-137.484-41.098-170.216-101.48c-14.55-27.274-22.914-58.554-22.914-91.656v-0.722h386.26zM348.302 512.804c5.456-97.11 86.2-174.584 184.766-174.584s179.312 77.472 184.766 174.584h-369.532zM896.966 163.808c33.526 33.88 32.688 96.214 4.012 174.022-49.136-74.908-120.518-133.936-204.792-167.64 90.106-38.638 163.406-43.756 200.78-6.382zM93.482 967.256c-42.782-42.796-29.884-132.618 25.23-240.832 34.308 96.27 101.156 177.090 187.336 229.154-95.43 43.318-173.536 50.674-212.566 11.678z"></path>
</symbol>
<symbol id="icon-uniE641" viewBox="0 0 1024 1024">
	<title>uniE641</title>
	<path class="path1" d="M512 64c-24.064 0-47.708 1.792-70.824 5.212-0.3-0.782-0.624-1.548-0.982-2.296 12.826-10.002 19.55-23.83 16.634-37.552-3.734-17.564-22.394-29.364-46.434-29.364-5.18 0-10.458 0.562-15.68 1.672-30.168 6.414-50.146 28.622-45.482 50.562 2.834 13.338 14.292 23.338 30.164 27.384-0.032 0.972-0.016 1.95 0.042 2.934-200.622 57.53-347.438 242.338-347.438 461.448 0 265.098 214.904 480 480 480s480-214.902 480-480c0-265.096-214.902-480-480-480zM364.882 48.908c-2.706-12.726 12.48-27.19 33.158-31.584 4.132-0.878 8.29-1.324 12.354-1.324 16.036 0 28.694 6.864 30.784 16.69 1.596 7.51-3.070 15.61-11.386 21.904-7.034-4.966-16.016-7.126-25.1-5.196-9.044 1.922-16.348 7.508-20.758 14.856-10.184-2.45-17.508-8.084-19.052-15.346zM769.386 801.386c-43.968 43.968-97.21 75.278-155.31 92.154l-42.396-68.768-10.746 79.958c-16.090 2.152-32.426 3.27-48.934 3.27-97.228 0-188.636-37.864-257.386-106.614-43.968-43.966-75.278-97.21-92.154-155.308l68.768-42.398-79.96-10.746c-2.15-16.090-3.268-32.426-3.268-48.934 0-97.228 37.862-188.636 106.614-257.386 43.968-43.968 97.212-75.278 155.31-92.156l42.396 68.77 10.748-79.96c16.088-2.15 32.424-3.268 48.932-3.268 97.228 0 188.636 37.862 257.386 106.614 43.968 43.968 75.278 97.212 92.154 155.31l-68.77 42.398 79.96 10.746c2.152 16.088 3.27 32.424 3.27 48.932 0 97.228-37.864 188.636-106.614 257.386zM760.902 295.098l-196.978 149.704c-14.644-7.658-30.876-12.062-47.416-12.726l-51.080-107.18-3.068 118.664c-13.284 6.536-25.104 15.664-34.876 26.95l-63.088-22.364 46.092 48.538c-6.334 13.518-9.866 28.030-10.434 42.824l-107.158 51.066 118.738 3.068c0.38 0.768 0.774 1.526 1.17 2.282l-149.704 196.98 196.978-149.704c14.644 7.656 30.874 12.060 47.416 12.724l51.080 107.182 3.066-118.664c13.286-6.538 25.106-15.664 34.878-26.952l63.090 22.368-46.094-48.54c6.336-13.52 9.868-28.030 10.436-42.824l107.156-51.066-118.736-3.070c-0.378-0.766-0.774-1.524-1.17-2.28l149.702-196.98zM512.102 444.534v0zM492.042 450.098c6.726-1.43 13.444-2.118 20.056-2.118 4.144 0 8.25 0.27 12.294 0.796l0.092 0.032-0.010-0.022c8.732 1.144 17.176 3.5 25.132 6.896l-71.546 54.376-54.38 71.552c-2.376-5.594-4.27-11.484-5.58-17.652-11.026-51.86 22.080-102.836 73.942-113.86zM562.12 625.884v0 0c-9.056 5.544-19.182 9.684-30.16 12.018-6.726 1.43-13.444 2.118-20.054 2.118-4.15 0-8.258-0.272-12.308-0.798l-0.068-0.010c-8.734-1.142-17.174-3.5-25.132-6.894l71.544-54.376 54.38-71.554c2.376 5.594 4.27 11.486 5.58 17.654 8.69 40.882-10.056 81.2-43.782 101.842z"></path>
</symbol>
<symbol id="icon-uniE642" viewBox="0 0 1024 1024">
	<title>uniE642</title>
	<path class="path1" d="M945.868 817.828c-94.126 127.528-257.996 207.65-433.868 206.15-175.872 1.5-339.744-78.624-433.868-206.15l-78.122 78.154v-255.994h255.994l-70.374 70.34c56.438 93.438 150.874 160.592 262.37 179.624v-387.026c-110.246-28.53-191.996-127.778-191.996-246.932 0-141.37 114.624-255.994 255.996-255.994s255.996 114.624 255.996 255.996c0 119.154-81.75 218.402-191.996 246.932v387.024c111.496-19.032 205.934-86.186 262.368-179.624l-70.372-70.34h255.992v255.994l-78.12-78.154zM639.996 255.996c0-70.686-57.308-127.998-127.996-127.998s-127.998 57.312-127.998 127.998c0 70.686 57.31 127.998 127.998 127.998 70.688-0.002 127.996-57.314 127.996-127.998z"></path>
</symbol>
<symbol id="icon-uniE643" viewBox="0 0 1024 1024">
	<title>uniE643</title>
	<path class="path1" d="M356.75 575.624l-210.562 210.564-82.188-82.188c-35.376 0-64 28.624-64 64v192c0 35.376 28.624 64 64 64h192c35.376 0 64-28.624 64-64l-82.188-82.124 210.562-210.624-91.624-91.628zM960 0h-192c-35.376 0-64 28.656-64 64l82.188 82.188-210.564 210.562 91.624 91.624 210.562-210.532 82.19 82.158c35.376 0 64-28.624 64-64v-192c0-35.344-28.624-64-64-64zM960 704l-82.188 82.188-210.562-210.564-91.624 91.624 210.562 210.624-82.188 82.128c0 35.376 28.624 64 64 64h192c35.376 0 64-28.624 64-64v-192c0-35.376-28.624-64-64-64zM320 64c0-35.344-28.624-64-64-64h-192c-35.376 0-64 28.656-64 64v192c0 35.376 28.624 64 64 64l82.188-82.156 210.562 210.532 91.624-91.624-210.562-210.564 82.188-82.188z"></path>
</symbol>
<symbol id="icon-uniE644" viewBox="0 0 1024 1024">
	<title>uniE644</title>
	<path class="path1" d="M960 320l-82.188-82.156-210.562 210.532-91.624-91.624 210.562-210.564-82.188-82.188c0-35.344 28.624-64 64-64h192c35.376 0 64 28.656 64 64v192c0 35.376-28.624 64-64 64zM320 960c0 35.376-28.624 64-64 64h-192c-35.376 0-64-28.624-64-64v-192c0-35.376 28.624-64 64-64l82.188 82.188 210.562-210.562 91.624 91.624-210.562 210.626 82.188 82.124z"></path>
</symbol>
<symbol id="icon-uniE645" viewBox="0 0 1024 1024">
	<title>uniE645</title>
	<path class="path1" d="M512 1024c-282.75 0-512-229.25-512-512 0-282.782 229.25-512 512-512s512 229.218 512 512c0 282.75-229.25 512-512 512zM128 512c0 82.624 26.624 158.624 71.062 221.312l534.25-534.28c-62.624-44.376-138.688-71.032-221.312-71.032-212.062 0-384 171.938-384 384zM824.938 290.688l-534.25 534.312c62.624 44.376 138.688 71 221.312 71 212.062 0 384-171.938 384-384 0-82.624-26.624-158.656-71.062-221.312z"></path>
</symbol>
<symbol id="icon-uniE646" viewBox="0 0 1024 1024">
	<title>uniE646</title>
	<path class="path1" d="M1006.932 264.536l-247.466-247.468c-22.76-22.758-59.71-22.758-82.468 0l-247.464 247.468c-22.822 22.758-22.822 59.708 0 82.53l41.202 41.202 247.466-247.466 164.998 164.998-247.466 247.466 41.264 41.264c22.758 22.76 59.708 22.76 82.468 0l247.464-247.464c22.76-22.822 22.76-59.774 0.002-82.53zM553.266 635.732l-247.466 247.468-164.998-164.998 247.464-247.466-41.264-41.264c-22.758-22.76-59.708-22.76-82.466 0l-247.468 247.464c-22.758 22.82-22.758 59.772 0 82.53l247.466 247.466c22.758 22.758 59.708 22.758 82.466 0l247.466-247.466c22.82-22.758 22.82-59.708 0-82.53l-41.2-41.204zM347.002 676.936c22.822 22.82 59.708 22.82 82.532 0l247.464-247.464c22.758-22.76 22.758-59.648 0-82.406-22.82-22.82-59.708-22.82-82.53 0l-247.466 247.464c-22.758 22.76-22.758 59.648 0 82.406z"></path>
</symbol>
<symbol id="icon-uniE647" viewBox="0 0 1024 1024">
	<title>uniE647</title>
	<path class="path1" d="M574.924 562.124c-81.050 81.1-174.95 158.618-212.070 121.446-53.146-53.094-85.862-99.38-203.008-5.274s-27.188 156.876 24.32 208.384c59.392 59.342 280.782 3.124 499.662-215.706 218.778-218.83 275.098-440.27 215.654-499.662-51.456-51.506-114.176-141.414-208.332-24.32s-47.872 149.862 5.274 203.008c37.018 37.172-40.448 131.022-121.498 212.122z"></path>
</symbol>
<symbol id="icon-uniE648" viewBox="0 0 1024 1024">
	<title>uniE648</title>
	<path class="path1" d="M81.612 257.842c24.986 13.466 371.15 199.372 384.050 206.286 12.85 6.912 29.542 10.24 46.336 10.24 16.846 0 33.536-3.328 46.386-10.29 12.902-6.912 359.014-192.818 384-206.286 25.038-13.414 48.692-55.552 2.764-55.552h-866.254c-45.926 0-22.324 42.138 2.714 55.602zM952.986 360.242c-28.416 14.848-377.19 197.172-394.598 206.286s-29.542 10.292-46.386 10.292c-16.794 0-28.928-1.178-46.336-10.292s-366.234-191.488-394.598-206.286c-20.018-10.444-19.866 1.792-19.866 11.214s0 375.552 0 375.552c0 21.504 28.62 49.152 50.79 49.152h820.070c22.222 0 50.74-27.648 50.74-49.1 0 0 0-366.13 0-375.552 0-9.472 0.206-21.71-19.814-11.264z"></path>
</symbol>
<symbol id="icon-uniE649" viewBox="0 0 1024 1024">
	<title>uniE649</title>
	<path class="path1" d="M254.002 1011.2c-68.404 0-132.454-28.98-178.74-75.316-89.6-89.6-114.638-246.068 11.008-371.712 73.678-73.574 368.588-368.486 515.788-515.686 52.274-52.276 118.732-72.448 182.426-55.348 62.514 16.692 113.818 67.942 130.56 130.51 17.050 63.692-3.174 130.202-55.398 182.426l-493.158 493.21c-28.16 28.16-59.954 44.85-91.954 48.178-31.642 3.328-61.85-6.86-83.046-28.006-38.4-38.35-43.826-110.54 19.968-174.284l346.368-346.47c14.234-14.182 37.326-14.182 51.558 0 14.234 14.234 14.234 37.326 0 51.558l-346.418 346.42c-29.952 29.952-32.716 58.572-19.968 71.322 5.58 5.53 14.080 8.090 23.86 7.066 15.002-1.586 32.102-11.316 48.076-27.29l493.158-493.158c33.842-33.844 46.798-73.626 36.506-112.076-10.138-37.836-41.164-68.864-79.002-79.002-38.452-10.29-78.234 2.714-112.076 36.506-147.15 147.2-442.060 442.112-515.686 515.686-96.052 96.052-73.062 206.592-11.058 268.646 62.054 62.004 172.594 85.044 268.698-11.058l515.738-515.686c14.182-14.234 37.326-14.234 51.506 0 14.234 14.234 14.234 37.326 0 51.508l-515.738 515.738c-60.774 60.826-128.768 86.324-192.974 86.324z"></path>
</symbol>
<symbol id="icon-uniE64A" viewBox="0 0 1024 1024">
	<title>uniE64A</title>
	<path class="path1" d="M251.7 181.914c-82.432 0-149.3 68.762-149.3 153.6s66.866 153.6 149.3 153.6c149.248 0 49.766 296.96-149.3 296.96v71.63c355.226 0 494.438-675.79 149.3-675.79zM681.728 181.914c-82.432 0-149.298 68.762-149.298 153.6s66.866 153.6 149.298 153.6c149.248 0 49.766 296.96-149.298 296.96v71.63c355.276 0 494.49-675.79 149.298-675.79z"></path>
</symbol>
<symbol id="icon-uniE64B" viewBox="0 0 1024 1024">
	<title>uniE64B</title>
	<path class="path1" d="M961.024 514.56l-410.83-411.188c-20.992-21.812-55.346-21.812-76.338 0l-410.88 411.188c-21.042 21.76-13.21 39.63 17.408 39.63h85.658v315.802c0 22.784 0.974 41.422 42.188 41.422h199.424v-316.826h208.64v316.826h209.356c31.438 0 32.308-18.586 32.308-41.422v-315.802h85.606c30.566 0 38.452-17.818 17.458-39.63z"></path>
</symbol>
<symbol id="icon-uniE64C" viewBox="0 0 1024 1024">
	<title>uniE64C</title>
	<path class="path1" d="M881.818 347.086c-81.050-188.672-211.558-332.34-277.556-305.46-112.076 45.568 66.816 264.396-483.634 488.142-47.564 19.302-59.598 96.666-39.68 142.9 19.866 46.234 84.89 92.262 132.454 72.96 8.192-3.328 38.45-13.056 38.45-13.056 33.946 45.568 69.478 18.534 82.126 47.514 15.154 34.816 48.076 110.438 59.238 136.14 11.264 25.702 36.658 49.562 55.092 42.548 18.33-7.014 80.946-30.874 104.91-39.936s29.696-30.464 22.374-47.308c-7.884-18.126-40.244-23.45-49.458-44.646-9.268-21.198-39.424-89.038-48.076-110.438-11.776-29.082 13.262-52.736 49.664-56.524 250.572-26.112 297.422 128.666 382.72 93.952 65.842-26.932 52.428-218.112-28.62-406.784zM853.606 653.108c-14.644 5.938-113.254-71.782-176.282-218.47-62.976-146.636-55.040-280.678-40.448-286.618 14.644-5.99 110.848 87.858 173.876 234.496 62.924 146.586 57.498 264.654 42.854 270.592z"></path>
</symbol>
<symbol id="icon-uniE64D" viewBox="0 0 1024 1024">
	<title>uniE64D</title>
	<path class="path1" d="M256 652.8h-51.2c-28.262 0-51.2 22.886-51.2 51.2s22.938 51.2 51.2 51.2h51.2c28.262 0 51.2-22.886 51.2-51.2s-22.938-51.2-51.2-51.2zM256 448h-51.2c-28.262 0-51.2 22.938-51.2 51.2s22.938 51.2 51.2 51.2h51.2c28.262 0 51.2-22.938 51.2-51.2s-22.938-51.2-51.2-51.2zM256 243.2h-51.2c-28.262 0-51.2 22.938-51.2 51.2s22.938 51.2 51.2 51.2h51.2c28.262 0 51.2-22.938 51.2-51.2s-22.938-51.2-51.2-51.2zM460.8 345.6h358.4c28.314 0 51.2-22.938 51.2-51.2s-22.886-51.2-51.2-51.2h-358.4c-28.262 0-51.2 22.938-51.2 51.2s22.938 51.2 51.2 51.2zM819.2 448h-358.4c-28.262 0-51.2 22.938-51.2 51.2s22.938 51.2 51.2 51.2h358.4c28.314 0 51.2-22.938 51.2-51.2s-22.886-51.2-51.2-51.2zM819.2 652.8h-358.4c-28.262 0-51.2 22.886-51.2 51.2s22.938 51.2 51.2 51.2h358.4c28.314 0 51.2-22.886 51.2-51.2s-22.886-51.2-51.2-51.2z"></path>
</symbol>
<symbol id="icon-uniE64E" viewBox="0 0 1024 1024">
	<title>uniE64E</title>
	<path class="path1" d="M378.88 192h-92.16c-56.32 0-81.92 25.6-81.92 81.92v92.16c0 56.32 25.6 81.92 81.92 81.92h92.16c56.32 0 81.92-25.6 81.92-81.92v-92.16c0-56.32-25.6-81.92-81.92-81.92zM737.28 192h-92.16c-56.32 0-81.92 25.6-81.92 81.92v92.16c0 56.32 25.6 81.92 81.92 81.92h92.16c56.32 0 81.92-25.6 81.92-81.92v-92.16c0-56.32-25.6-81.92-81.92-81.92zM378.88 550.4h-92.16c-56.32 0-81.92 25.6-81.92 81.92v92.16c0 56.32 25.6 81.92 81.92 81.92h92.16c56.32 0 81.92-25.6 81.92-81.92v-92.16c0-56.32-25.6-81.92-81.92-81.92zM737.28 550.4h-92.16c-56.32 0-81.92 25.6-81.92 81.92v92.16c0 56.32 25.6 81.92 81.92 81.92h92.16c56.32 0 81.92-25.6 81.92-81.92v-92.16c0-56.32-25.6-81.92-81.92-81.92z"></path>
</symbol>
<symbol id="icon-uniE64F" viewBox="0 0 1024 1024">
	<title>uniE64F</title>
	<path class="path1" d="M819.2 448h-614.4c-28.262 0-51.2 22.938-51.2 51.2s22.938 51.2 51.2 51.2h614.4c28.314 0 51.2-22.938 51.2-51.2s-22.886-51.2-51.2-51.2zM204.8 345.6h614.4c28.314 0 51.2-22.938 51.2-51.2s-22.886-51.2-51.2-51.2h-614.4c-28.262 0-51.2 22.938-51.2 51.2s22.938 51.2 51.2 51.2zM819.2 652.8h-614.4c-28.262 0-51.2 22.886-51.2 51.2s22.938 51.2 51.2 51.2h614.4c28.314 0 51.2-22.886 51.2-51.2s-22.886-51.2-51.2-51.2z"></path>
</symbol>
<symbol id="icon-uniE650" viewBox="0 0 1024 1024">
	<title>uniE650</title>
	<path class="path1" d="M990.208 680.654l-163.020-109.67h-100.506l174.080 133.53h-181.504c-5.222 0-9.882 2.662-12.288 6.81l-41.778 114.432h-306.38l-41.83-114.432c-2.304-4.148-7.066-6.81-12.288-6.81h-181.454l174.132-133.53h-100.558l-162.97 109.67c-24.268 14.49-38.758 47.924-32.256 74.188l28.722 157.39c6.502 26.318 35.38 47.872 64.052 47.872h835.226c28.774 0 57.6-21.554 64.102-47.872l28.722-157.39c6.604-26.318-7.936-59.698-32.206-74.188zM778.292 351.846h-169.010v-262.144h-194.56v262.144h-168.96l266.24 249.856 266.292-249.856z"></path>
</symbol>
<symbol id="icon-uniE651" viewBox="0 0 1024 1024">
	<title>uniE651</title>
	<path class="path1" d="M645.12 38.4h-276.48c-28.314 0-40.96 22.938-40.96 51.2v870.4l184.32-184.32 184.32 184.32v-870.4c0-28.262-22.938-51.2-51.2-51.2z"></path>
</symbol>
<symbol id="icon-uniE652" viewBox="0 0 1024 1024">
	<title>uniE652</title>
	<path class="path1" d="M716.8 734.72c-50.534 0-94.004 30.618-112.846 74.24h-168.754c-72.294 0-79.052-61.030-79.36-79.36v-198.042c22.068 10.188 48.282 16.282 79.36 16.282h168.754c18.842 43.674 62.31 74.24 112.846 74.24 67.84 0 122.88-55.040 122.88-122.88s-55.040-122.88-122.88-122.88c-50.534 0-94.004 30.618-112.846 74.24h-168.754c-72.294 0-79.052-61.030-79.36-79.36v-117.556c43.674-18.842 74.188-62.31 74.188-112.846 0-67.84-54.988-122.88-122.83-122.88s-122.88 55.040-122.88 122.88c0 50.534 30.618 93.952 74.24 112.846v475.956c0 71.014 47.052 176.64 176.64 176.64h168.756c18.842 43.674 62.31 74.24 112.846 74.24 67.84 0 122.88-54.99 122.88-122.88 0-67.84-55.040-122.88-122.88-122.88zM716.8 428.288c39.168 0 70.912 31.744 70.912 70.912s-31.744 70.912-70.912 70.912-70.912-31.744-70.912-70.912 31.744-70.912 70.912-70.912zM236.288 140.8c0-39.168 31.744-70.912 70.912-70.912s70.912 31.744 70.912 70.912-31.744 70.912-70.912 70.912-70.912-31.744-70.912-70.912zM716.8 928.512c-39.168 0-70.912-31.744-70.912-70.912s31.744-70.912 70.912-70.912 70.912 31.744 70.912 70.912-31.744 70.912-70.912 70.912z"></path>
</symbol>
<symbol id="icon-uniE653" viewBox="0 0 1024 1024">
	<title>uniE653</title>
	<path class="path1" d="M918.99 744.754v-117.554c0-71.014-47.002-176.64-176.588-176.64h-102.4c-72.294 0-79.002-35.43-79.36-53.76v-143.154c43.674-18.892 74.24-62.31 74.24-112.844 0-67.84-54.99-122.88-122.88-122.88s-122.88 55.040-122.88 122.88c0 50.534 30.566 93.952 74.24 112.844v143.154c0 13.262-3.84 53.76-79.36 53.76h-102.4c-129.586 0-176.64 105.626-176.64 176.64v117.556c-43.674 18.842-74.24 62.31-74.24 112.846 0 67.84 54.988 122.88 122.88 122.88 67.84 0 122.88-55.040 122.88-122.88 0-50.534-30.566-94.004-74.24-112.846v-117.556c0-13.26 3.84-79.36 79.36-79.36h102.4c31.078 0 57.294-4.71 79.36-12.698v209.614c-43.674 18.842-74.24 62.31-74.24 112.846 0 67.84 54.988 122.88 122.88 122.88s122.88-55.040 122.88-122.88c0-50.534-30.618-94.004-74.29-112.846v-209.614c22.068 7.986 48.282 12.698 79.36 12.698h102.4c72.294 0 79.002 61.030 79.412 79.36v117.556c-43.674 18.842-74.24 62.31-74.24 112.846 0 67.84 54.99 122.88 122.88 122.88s122.88-55.040 122.88-122.88c0-50.534-30.566-94.004-74.29-112.846zM224.512 857.6c0 39.168-31.744 70.912-70.912 70.912s-70.912-31.744-70.912-70.912 31.744-70.912 70.912-70.912 70.912 31.744 70.912 70.912zM441.088 140.8c0-39.168 31.796-70.912 70.912-70.912s70.86 31.744 70.86 70.912-31.744 70.912-70.86 70.912c-39.118 0-70.912-31.744-70.912-70.912zM582.912 857.6c0 39.168-31.794 70.912-70.86 70.912-39.168 0-70.912-31.744-70.912-70.912s31.744-70.912 70.86-70.912c39.116 0 70.912 31.744 70.912 70.912zM870.4 928.512c-39.116 0-70.912-31.744-70.912-70.912s31.794-70.912 70.912-70.912 70.912 31.744 70.912 70.912-31.794 70.912-70.912 70.912z"></path>
</symbol>
<symbol id="icon-uniE654" viewBox="0 0 1024 1024">
	<title>uniE654</title>
	<path class="path1" d="M307.25 263.68l-0.050 471.040 409.6-235.52z"></path>
</symbol>
<symbol id="icon-uniE655" viewBox="0 0 1024 1024">
	<title>uniE655</title>
	<path class="path1" d="M153.6 386.56c-62.208 0-112.64 50.432-112.64 112.64s50.432 112.64 112.64 112.64 112.64-50.432 112.64-112.64c0-62.208-50.432-112.64-112.64-112.64zM512 386.56c-62.208 0-112.64 50.432-112.64 112.64s50.432 112.64 112.64 112.64 112.588-50.432 112.588-112.64c0-62.208-50.38-112.64-112.588-112.64zM870.4 386.56c-62.208 0-112.64 50.432-112.64 112.64s50.432 112.64 112.64 112.64 112.64-50.432 112.64-112.64c0-62.208-50.432-112.64-112.64-112.64z"></path>
</symbol>
<symbol id="icon-uniE656" viewBox="0 0 1024 1024">
	<title>uniE656</title>
	<path class="path1" d="M505.446 7.73c-271.462 3.634-488.55 226.61-484.916 498.022s226.61 488.55 498.074 484.916c271.412-3.584 488.55-226.61 484.914-498.074-3.634-271.412-226.714-488.5-498.074-484.864zM517.172 887.194c-214.322 2.918-390.348-168.5-393.216-382.822s168.55-390.348 382.874-393.216c214.272-2.868 390.298 168.55 393.166 382.822s-168.5 390.298-382.822 393.216zM391.73 582.502c-20.736 0-36.454-7.578-47.104-22.732-10.702-15.154-15.974-35.328-15.974-60.57 0-55.5 21.044-83.25 63.078-83.25 8.396 0 17.51 2.816 27.342 8.396 9.778 5.632 18.074 15.462 24.832 29.44l63.026-32.82c-25.19-45.414-67.022-68.148-125.338-68.148-39.834 0-72.704 13.158-98.816 39.526-26.060 26.368-39.116 62.002-39.116 106.854 0 45.978 12.902 81.92 38.708 107.726 25.754 25.804 59.75 38.706 101.786 38.706 26.318 0 50.432-6.606 72.294-19.814s39.014-31.284 51.354-54.322l-58.060-29.44c-11.214 26.932-30.566 40.448-58.010 40.448zM663.398 582.502c-20.788 0-36.506-7.578-47.104-22.732-10.702-15.104-15.974-35.328-15.974-60.57 0-55.5 20.992-83.25 63.078-83.25 9.010 0 18.38 2.816 28.212 8.396 9.778 5.632 18.126 15.462 24.78 29.44l62.208-32.82c-24.678-45.414-66.1-68.148-124.518-68.148-39.782 0-72.704 13.158-98.764 39.526-26.112 26.368-39.116 61.952-39.116 106.802 0 45.978 12.75 81.92 38.246 107.726 25.548 25.804 59.648 38.706 102.246 38.706 25.804 0 49.614-6.606 71.476-19.814 21.812-13.21 39.22-31.284 52.122-54.322l-58.88-29.44c-11.212 26.982-30.514 40.5-58.010 40.5z"></path>
</symbol>
<symbol id="icon-blog" viewBox="0 0 1024 1024">
	<title>blog</title>
	<path class="path1" d="M384 0v96c73.482 0 144.712 14.37 211.716 42.71 64.768 27.394 122.958 66.632 172.948 116.624s89.228 108.18 116.624 172.948c28.342 67.004 42.712 138.238 42.712 211.718h96c0-353.46-286.54-640-640-640z"></path>
	<path class="path2" d="M384 192v96c94.022 0 182.418 36.614 248.9 103.098 66.486 66.484 103.1 154.878 103.1 248.902h96c0-247.422-200.576-448-448-448z"></path>
	<path class="path3" d="M480 384l-64 64-224 64-192 416 25.374 25.374 232.804-232.804c-1.412-5.286-2.178-10.84-2.178-16.57 0-35.346 28.654-64 64-64s64 28.654 64 64-28.654 64-64 64c-5.732 0-11.282-0.764-16.568-2.178l-232.804 232.804 25.372 25.374 416-192 64-224 64-64-160-160z"></path>
</symbol>
<symbol id="icon-podcast" viewBox="0 0 1024 1024">
	<title>podcast</title>
	<path class="path1" d="M1024 512c0-282.77-229.23-512-512-512s-512 229.23-512 512c0 220.054 138.836 407.664 333.686 480.068l-13.686 31.932h384l-13.686-31.932c194.85-72.404 333.686-260.014 333.686-480.068zM486.79 634.826c-22.808-9.788-38.79-32.436-38.79-58.826 0-35.346 28.654-64 64-64s64 28.654 64 64c0 26.39-15.978 49.044-38.786 58.834l-25.214-58.834-25.21 58.826zM538.268 637.292c58.092-12.118 101.732-63.602 101.732-125.292 0-70.694-57.306-128-128-128-70.692 0-128 57.306-128 128 0 61.692 43.662 113.122 101.76 125.228l-74.624 174.122c-91.23-39.15-155.136-129.784-155.136-235.35 0-141.384 114.616-268 256-268s256 126.616 256 268c0 105.566-63.906 196.2-155.136 235.35l-74.596-174.058zM688.448 987.708l-73.924-172.486c126.446-42.738 217.476-162.346 217.476-303.222 0-176.73-143.268-320-320-320-176.73 0-320 143.27-320 320 0 140.876 91.030 260.484 217.476 303.222l-73.924 172.486c-159.594-68.488-271.386-227.034-271.386-411.708 0-247.332 200.502-459.834 447.834-459.834s447.834 212.502 447.834 459.834c0 184.674-111.792 343.22-271.386 411.708z"></path>
</symbol>
<symbol id="icon-feed" viewBox="0 0 1024 1024">
	<title>feed</title>
	<path class="path1" d="M384 512c0-70.692 57.308-128 128-128s128 57.308 128 128c0 70.692-57.308 128-128 128s-128-57.308-128-128zM664.348 230.526c99.852 54.158 167.652 159.898 167.652 281.474s-67.8 227.316-167.652 281.474c44.066-70.126 71.652-170.27 71.652-281.474s-27.586-211.348-71.652-281.474zM288 512c0 111.204 27.584 211.348 71.652 281.474-99.852-54.16-167.652-159.898-167.652-281.474s67.8-227.314 167.652-281.474c-44.068 70.126-71.652 170.27-71.652 281.474zM96 512c0 171.9 54.404 326.184 140.652 431.722-142.302-90.948-236.652-250.314-236.652-431.722s94.35-340.774 236.652-431.722c-86.248 105.538-140.652 259.822-140.652 431.722zM787.352 80.28c142.298 90.946 236.648 250.312 236.648 431.72s-94.35 340.774-236.648 431.72c86.244-105.536 140.648-259.82 140.648-431.72s-54.404-326.184-140.648-431.72z"></path>
</symbol>
<symbol id="icon-cart" viewBox="0 0 1024 1024">
	<title>cart</title>
	<path class="path1" d="M384 928c0 53.019-42.981 96-96 96s-96-42.981-96-96c0-53.019 42.981-96 96-96s96 42.981 96 96z"></path>
	<path class="path2" d="M1024 928c0 53.019-42.981 96-96 96s-96-42.981-96-96c0-53.019 42.981-96 96-96s96 42.981 96 96z"></path>
	<path class="path3" d="M1024 512v-384h-768c0-35.346-28.654-64-64-64h-192v64h128l48.074 412.054c-29.294 23.458-48.074 59.5-48.074 99.946 0 70.696 57.308 128 128 128h768v-64h-768c-35.346 0-64-28.654-64-64 0-0.218 0.014-0.436 0.016-0.656l831.984-127.344z"></path>
</symbol>
<symbol id="icon-location" viewBox="0 0 1024 1024">
	<title>location</title>
	<path class="path1" d="M512 0c-176.732 0-320 143.268-320 320 0 320 320 704 320 704s320-384 320-704c0-176.732-143.27-320-320-320zM512 512c-106.040 0-192-85.96-192-192s85.96-192 192-192 192 85.96 192 192-85.96 192-192 192z"></path>
</symbol>
<symbol id="icon-bubbles" viewBox="0 0 1152 1024">
	<title>bubbles</title>
	<path class="path1" d="M1088 901.166c0 45.5 26.028 84.908 64 104.184v15.938c-10.626 1.454-21.472 2.224-32.5 2.224-68.008 0-129.348-28.528-172.722-74.264-26.222 6.982-54.002 10.752-82.778 10.752-159.058 0-288-114.616-288-256s128.942-256 288-256c159.058 0 288 114.616 288 256 0 55.348-19.764 106.592-53.356 148.466-6.824 14.824-10.644 31.312-10.644 48.7zM512 0c278.458 0 504.992 180.614 511.836 405.52-49.182-21.92-103.586-33.52-159.836-33.52-95.56 0-185.816 33.446-254.138 94.178-70.846 62.972-109.862 147.434-109.862 237.822 0 44.672 9.544 87.888 27.736 127.788-5.228 0.126-10.468 0.212-15.736 0.212-27.156 0-53.81-1.734-79.824-5.044-109.978 109.978-241.25 129.7-368.176 132.596v-26.916c68.536-33.578 128-94.74 128-164.636 0-9.754-0.758-19.33-2.164-28.696-115.796-76.264-189.836-192.754-189.836-323.304 0-229.75 229.23-416 512-416z"></path>
</symbol>
<symbol id="icon-menu3" viewBox="0 0 1408 1024">
	<title>menu3</title>
	<path class="path1" d="M0 192h896v192h-896v-192zM0 448h896v192h-896v-192zM0 704h896v192h-896v-192z"></path>
	<path class="path2" d="M992 448l192 192 192-192z"></path>
</symbol>
<symbol id="icon-menu4" viewBox="0 0 1408 1024">
	<title>menu4</title>
	<path class="path1" d="M0 192h896v192h-896v-192zM0 448h896v192h-896v-192zM0 704h896v192h-896v-192z"></path>
	<path class="path2" d="M992 640l192-192 192 192z"></path>
</symbol>
<symbol id="icon-link" viewBox="0 0 1024 1024">
	<title>link</title>
	<path class="path1" d="M440.236 635.766c-13.31 0-26.616-5.076-36.77-15.23-95.134-95.136-95.134-249.934 0-345.070l192-192c46.088-46.086 107.36-71.466 172.534-71.466s126.448 25.38 172.536 71.464c95.132 95.136 95.132 249.934 0 345.070l-87.766 87.766c-20.308 20.308-53.23 20.308-73.54 0-20.306-20.306-20.306-53.232 0-73.54l87.766-87.766c54.584-54.586 54.584-143.404 0-197.99-26.442-26.442-61.6-41.004-98.996-41.004s-72.552 14.562-98.996 41.006l-192 191.998c-54.586 54.586-54.586 143.406 0 197.992 20.308 20.306 20.306 53.232 0 73.54-10.15 10.152-23.462 15.23-36.768 15.23z"></path>
	<path class="path2" d="M256 1012c-65.176 0-126.45-25.38-172.534-71.464-95.134-95.136-95.134-249.934 0-345.070l87.764-87.764c20.308-20.306 53.234-20.306 73.54 0 20.308 20.306 20.308 53.232 0 73.54l-87.764 87.764c-54.586 54.586-54.586 143.406 0 197.992 26.44 26.44 61.598 41.002 98.994 41.002s72.552-14.562 98.998-41.006l192-191.998c54.584-54.586 54.584-143.406 0-197.992-20.308-20.308-20.306-53.232 0-73.54 20.306-20.306 53.232-20.306 73.54 0.002 95.132 95.134 95.132 249.932 0.002 345.068l-192.002 192c-46.090 46.088-107.364 71.466-172.538 71.466z"></path>
</symbol>
<symbol id="icon-smile" viewBox="0 0 1024 1024">
	<title>smile</title>
	<path class="path1" d="M512 1024c282.77 0 512-229.23 512-512s-229.23-512-512-512-512 229.23-512 512 229.23 512 512 512zM512 96c229.75 0 416 186.25 416 416s-186.25 416-416 416-416-186.25-416-416 186.25-416 416-416zM256 320c0-35.346 28.654-64 64-64s64 28.654 64 64c0 35.346-28.654 64-64 64s-64-28.654-64-64zM640 320c0-35.346 28.654-64 64-64s64 28.654 64 64c0 35.346-28.654 64-64 64s-64-28.654-64-64zM704.098 627.26l82.328 49.396c-55.962 93.070-157.916 155.344-274.426 155.344s-218.464-62.274-274.426-155.344l82.328-49.396c39.174 65.148 110.542 108.74 192.098 108.74s152.924-43.592 192.098-108.74z"></path>
</symbol>
<symbol id="icon-cancel-circle" viewBox="0 0 1024 1024">
	<title>cancel-circle</title>
	<path class="path1" d="M512 0c-282.77 0-512 229.23-512 512s229.23 512 512 512 512-229.23 512-512-229.23-512-512-512zM512 928c-229.75 0-416-186.25-416-416s186.25-416 416-416 416 186.25 416 416-186.25 416-416 416z"></path>
	<path class="path2" d="M672 256l-160 160-160-160-96 96 160 160-160 160 96 96 160-160 160 160 96-96-160-160 160-160z"></path>
</symbol>
<symbol id="icon-circle-right" viewBox="0 0 1024 1024">
	<title>circle-right</title>
	<path class="path1" d="M512 0c-282.77 0-512 229.23-512 512s229.23 512 512 512 512-229.23 512-512-229.23-512-512-512zM512 928c-229.75 0-416-186.25-416-416s186.25-416 416-416 416 186.25 416 416-186.25 416-416 416z"></path>
	<path class="path2" d="M354.744 706.744l90.512 90.512 285.254-285.256-285.256-285.254-90.508 90.508 194.744 194.746z"></path>
</symbol>
<symbol id="icon-circle-left" viewBox="0 0 1024 1024">
	<title>circle-left</title>
	<path class="path1" d="M512 1024c282.77 0 512-229.23 512-512s-229.23-512-512-512-512 229.23-512 512 229.23 512 512 512zM512 96c229.75 0 416 186.25 416 416s-186.25 416-416 416-416-186.25-416-416 186.25-416 416-416z"></path>
	<path class="path2" d="M669.256 317.256l-90.512-90.512-285.254 285.256 285.256 285.254 90.508-90.508-194.744-194.746z"></path>
</symbol>
<symbol id="icon-paypal" viewBox="0 0 1024 1024">
	<title>paypal</title>
	<path class="path1" d="M880.634 130.774c25.698 12.576 48.094 30.486 64.502 52.482 34.536 46.3 44.236 109.372 28.836 187.466-15.56 79.026-50.416 145.734-101.166 194.044-9.282 9.702-19.222 18.746-29.804 27.080-54.356 42.802-122.998 65.428-198.508 65.428h-240.060l-64.564 302.726h-132.424l10.086-46.3h46.128l64.564-302.726h188.27c180.25 0 330.938-111.078 371.258-299.936 45.722-213.834-107.598-311.038-239.41-311.038h-449.278l-199.064 913.7h152.032l-24.032 110.3h263.66l64.564-302.726h188.27c180.25 0 330.938-111.078 371.258-299.936 33.716-157.68-40.804-251.932-135.118-290.564zM422.344 186.082h129.132c64.592 0 107.602 55.538 88.786 124.956-16.136 69.44-83.386 124.976-150.64 124.976h-123.758l56.48-249.932z"></path>
</symbol>
<symbol id="icon-paypal3" viewBox="0 0 1024 1024">
	<title>paypal3</title>
	<path class="path1" d="M648.342 64c28.332 0 56.918 5.804 82.666 16.784 27.084 11.548 49.324 27.924 66.104 48.672 33.598 41.542 43.038 98.132 28.050 168.218-16.306 76.378-54.398 139.96-110.16 183.87-54.356 42.802-122.998 65.428-198.508 65.428h-240.060l-64.564 302.728h-132.424l171.176-785.7h397.72zM285.786 500.014h203.836c47.436 0 95.494-18.17 135.318-51.164 38.82-32.162 66.274-75.522 77.396-122.2 13.902-52.524 4.63-105.152-25.514-144.554-29.176-38.14-74.864-60.014-125.346-60.014h-180.282l-85.408 377.932zM648.342 0h-449.278l-199.064 913.7h152.032l-24.032 110.3h263.66l64.564-302.726h188.27c180.25 0 330.938-111.078 371.258-299.936 33.716-157.68-40.804-251.932-135.118-290.564 25.698 12.576 48.094 30.486 64.502 52.482 34.536 46.3 44.236 109.372 28.836 187.466-15.56 79.026-50.416 145.734-101.166 194.044-9.282 9.702-19.222 18.746-29.804 27.080-54.356 42.802-122.998 65.428-198.508 65.428h-240.060l-64.564 302.726h-132.424l10.086-46.3h46.128l64.564-302.726h188.27c180.25 0 330.938-111.078 371.258-299.936 45.722-213.834-107.598-311.038-239.41-311.038v0zM365.864 436.014l56.482-249.932h129.132c64.592 0 107.602 55.538 88.786 124.956-16.136 69.44-83.386 124.976-150.64 124.976h-123.76z"></path>
</symbol>


</svg>
