<?xml version="1.0" encoding="utf-8"?>
<!-- Generated by IcoMoon.io -->
<!DOCTYPE svg PUBLIC "-//W3C//DTD SVG 1.1//EN" "http://www.w3.org/Graphics/SVG/1.1/DTD/svg11.dtd">
<svg version="1.1" xmlns="http://www.w3.org/2000/svg" xmlns:xlink="http://www.w3.org/1999/xlink" width="32" height="32" viewBox="0 0 32 32">
<path d="M16.371 26.94c-3.108 0.001-6.217 0.002-9.325-0-1.056-0.001-1.232-0.173-1.237-1.209-0.005-1.14 0.010-2.281 0-3.421-0.005-0.611 0.152-1.151 0.521-1.647 1.494-2.004 2.966-4.025 4.467-6.024 0.358-0.477 0.579-0.97 0.568-1.569-0.011-0.588-0.008-1.177 0.002-1.765 0.008-0.457 0.191-0.772 0.7-0.824 0.851-0.086 1.18 0.052 1.359 0.601 0.282 0.867 0.387 0.95 1.282 0.954 1.14 0.004 2.281 0.006 3.421-0.002 0.792-0.006 0.949-0.133 1.173-0.88 0.18-0.602 0.438-0.731 1.248-0.672 0.552 0.041 0.765 0.37 0.805 0.869 0.010 0.128 0.023 0.26 0.004 0.385-0.216 1.4 0.226 2.554 1.116 3.656 1.396 1.73 2.69 3.542 3.986 5.349 0.253 0.353 0.427 0.833 0.453 1.266 0.075 1.265 0.084 2.536 0.067 3.803-0.012 0.921-0.255 1.127-1.175 1.128-3.145 0.005-6.29 0.002-9.436 0.002zM16.442 15.005c-1.657-0.17-3.358 1.445-3.342 3.231 0.016 1.816 1.47 3.298 3.289 3.302 1.863 0.004 3.365-1.462 3.367-3.286 0.003-1.841-1.429-3.244-3.314-3.246zM15.974 5.097c2.634-0.165 5.224 0.222 7.784 0.722 1.070 0.209 2.103 0.734 3.084 1.246 0.88 0.46 1.282 1.375 1.488 2.3 0.275 1.232 0.26 2.486-0.125 3.708-0.243 0.772-0.618 0.945-1.391 0.706-0.843-0.261-1.698-0.488-2.531-0.775-0.844-0.291-1.024-0.589-1.017-1.473 0.015-1.756-0.2-2.113-1.898-2.559-0.825-0.217-1.707-0.303-2.563-0.3-2.295 0.007-4.59 0.091-6.885 0.155-0.216 0.006-0.433 0.083-0.643 0.149-1.596 0.502-1.819 0.812-1.798 2.48 0.013 1.001-0.075 1.204-1.024 1.495-1.175 0.361-2.376 0.639-3.571 0.934-0.484 0.119-0.853-0.112-1.020-0.55-0.627-1.64-0.637-4.678 1.118-6.16 0.967-0.817 2.135-1.178 3.32-1.384 2.534-0.44 5.080-0.862 7.669-0.695z" fill="rgb(68, 68, 68)"></path>
</svg>
