<?xml version="1.0" encoding="utf-8"?>
<!-- Generated by IcoMoon.io -->
<!DOCTYPE svg PUBLIC "-//W3C//DTD SVG 1.1//EN" "http://www.w3.org/Graphics/SVG/1.1/DTD/svg11.dtd">
<svg version="1.1" xmlns="http://www.w3.org/2000/svg" xmlns:xlink="http://www.w3.org/1999/xlink" width="32" height="32" viewBox="0 0 32 32">
<path d="M24.141 22.986h-1.581l0.007-0.918c0-0.408 0.335-0.742 0.745-0.742h0.101c0.41 0 0.746 0.334 0.746 0.742l-0.018 0.918zM18.212 21.019c-0.401 0-0.729 0.269-0.729 0.599v4.465c0 0.329 0.328 0.598 0.729 0.598 0.403 0 0.731-0.269 0.731-0.598v-4.465c0-0.33-0.328-0.599-0.731-0.599v0zM27.84 18.521v8.494c0 2.037-1.767 3.705-3.926 3.705h-16.147c-2.16 0-3.927-1.667-3.927-3.705v-8.494c0-2.037 1.766-3.705 3.927-3.705h16.147c2.159 0 3.926 1.668 3.926 3.705v0zM8.844 27.938l-0.001-8.948 2.002 0.001v-1.326l-5.336-0.008v1.303l1.666 0.005v8.973h1.67zM14.844 20.323h-1.669v4.778c0 0.691 0.042 1.037-0.003 1.159-0.136 0.371-0.746 0.764-0.983 0.040-0.040-0.127-0.005-0.509-0.005-1.166l-0.007-4.811h-1.66l0.005 4.735c0.001 0.726-0.016 1.267 0.006 1.513 0.041 0.434 0.026 0.941 0.429 1.23 0.751 0.541 2.19-0.081 2.55-0.854l-0.003 0.987 1.34 0.002v-7.613h-0zM20.182 25.794l-0.004-3.977c-0.001-1.515-1.135-2.423-2.674-1.197l0.007-2.956-1.667 0.003-0.008 10.205 1.371-0.020 0.125-0.636c1.752 1.607 2.853 0.506 2.851-1.421v0zM25.405 25.267l-1.252 0.007c-0.001 0.050-0.002 0.107-0.003 0.169v0.698c0 0.373-0.309 0.678-0.684 0.678h-0.245c-0.376 0-0.684-0.304-0.684-0.678v-1.837h2.865v-1.078c0-0.788-0.020-1.576-0.085-2.027-0.205-1.425-2.205-1.652-3.216-0.922-0.317 0.228-0.56 0.533-0.7 0.943-0.142 0.41-0.213 0.97-0.213 1.681v2.371c0 3.942 4.788 3.385 4.217-0.006v0zM18.987 12.394c0.086 0.209 0.22 0.379 0.401 0.507 0.179 0.126 0.409 0.189 0.683 0.189 0.241 0 0.454-0.065 0.639-0.199s0.341-0.333 0.468-0.599l-0.031 0.655h1.86v-7.911h-1.464v6.157c0 0.333-0.275 0.606-0.61 0.606-0.334 0-0.609-0.273-0.609-0.606v-6.157h-1.528v5.336c0 0.68 0.012 1.133 0.032 1.363 0.021 0.228 0.074 0.447 0.16 0.659v0zM13.349 7.926c0-0.759 0.063-1.352 0.189-1.78 0.127-0.426 0.354-0.768 0.684-1.027 0.329-0.26 0.749-0.389 1.261-0.389 0.43 0 0.799 0.084 1.107 0.25 0.309 0.166 0.548 0.382 0.714 0.649 0.169 0.268 0.283 0.542 0.344 0.824 0.062 0.285 0.093 0.715 0.093 1.295v2.001c0 0.734-0.029 1.274-0.086 1.616s-0.178 0.662-0.366 0.961c-0.186 0.296-0.426 0.517-0.716 0.658-0.294 0.142-0.63 0.212-1.009 0.212-0.424 0-0.781-0.059-1.076-0.181s-0.524-0.305-0.686-0.548c-0.164-0.244-0.28-0.541-0.349-0.887s-0.103-0.866-0.103-1.56v-2.094h0zM14.806 11.069c0 0.448 0.333 0.814 0.74 0.814s0.738-0.366 0.738-0.814v-4.211c0-0.447-0.332-0.813-0.738-0.813s-0.74 0.366-0.74 0.813v4.211zM9.658 13.195h1.755l0.002-6.067 2.074-5.197h-1.919l-1.102 3.86-1.118-3.871h-1.899l2.206 5.211 0.003 6.064z" fill="rgb(68, 68, 68)"></path>
</svg>
